G04 #@! TF.FileFunction,Copper,L2,Bot,Signal*
%FSLAX46Y46*%
G04 Gerber Fmt 4.6, Leading zero omitted, Abs format (unit mm)*
G04 Created by KiCad (PCBNEW 4.0.5-e0-6337~52~ubuntu16.10.1) date Tue Feb  7 00:40:12 2017*
%MOMM*%
%LPD*%
G01*
G04 APERTURE LIST*
%ADD10C,0.100000*%
%ADD11R,1.700000X1.700000*%
%ADD12O,1.700000X1.700000*%
%ADD13R,1.550000X1.300000*%
%ADD14C,0.600000*%
%ADD15C,0.250000*%
%ADD16C,0.200000*%
G04 APERTURE END LIST*
D10*
D11*
X190500000Y-68580000D03*
D12*
X190500000Y-71120000D03*
X190500000Y-73660000D03*
X190500000Y-76200000D03*
X190500000Y-78740000D03*
X190500000Y-81280000D03*
X190500000Y-83820000D03*
X190500000Y-86360000D03*
X190500000Y-88900000D03*
X190500000Y-91440000D03*
X190500000Y-93980000D03*
X190500000Y-96520000D03*
X190500000Y-99060000D03*
X190500000Y-101600000D03*
X190500000Y-104140000D03*
X190500000Y-106680000D03*
X190500000Y-109220000D03*
X190500000Y-111760000D03*
D11*
X149860000Y-68580000D03*
D12*
X149860000Y-71120000D03*
X149860000Y-73660000D03*
X149860000Y-76200000D03*
X149860000Y-78740000D03*
X149860000Y-81280000D03*
X149860000Y-83820000D03*
X149860000Y-86360000D03*
X149860000Y-88900000D03*
X149860000Y-91440000D03*
X149860000Y-93980000D03*
X149860000Y-96520000D03*
X149860000Y-99060000D03*
X149860000Y-101600000D03*
X149860000Y-104140000D03*
X149860000Y-106680000D03*
X149860000Y-109220000D03*
X149860000Y-111760000D03*
D13*
X182410000Y-115860000D03*
X174460000Y-115860000D03*
X182410000Y-120360000D03*
X174460000Y-120360000D03*
D14*
X175260000Y-107950000D03*
X164465000Y-104775000D03*
X162763200Y-69773800D03*
X183972200Y-110439200D03*
X177165000Y-87630000D03*
X177165000Y-83820000D03*
X177165000Y-110490000D03*
X175260000Y-113665000D03*
X174335000Y-120470000D03*
X182535000Y-120470000D03*
X169545000Y-99060000D03*
X152400000Y-100330000D03*
X159300000Y-105480000D03*
X162560000Y-105410000D03*
X182245000Y-73660000D03*
X186690000Y-71120000D03*
X185420000Y-72390000D03*
X152400000Y-85090000D03*
X152400000Y-87630000D03*
X152400000Y-90170000D03*
X152400000Y-92710000D03*
X152400000Y-95250000D03*
X152400000Y-97790000D03*
X151765000Y-70485000D03*
X152400000Y-72390000D03*
X152400000Y-77470000D03*
X152400000Y-74930000D03*
X152400000Y-80010000D03*
X187363100Y-104190800D03*
X183870600Y-104076500D03*
X182219600Y-84455000D03*
X182219600Y-88671400D03*
X186690000Y-78740000D03*
X185420000Y-80010000D03*
X184150000Y-81280000D03*
X182219600Y-81915000D03*
X168275000Y-96520000D03*
X167005000Y-90170000D03*
X167005000Y-98425000D03*
X167005000Y-91440000D03*
X165735000Y-99060000D03*
X165735000Y-93980000D03*
X163830000Y-100965000D03*
X163830000Y-97155000D03*
X161290000Y-103505000D03*
X161290000Y-100965000D03*
X171297600Y-94462600D03*
X172923200Y-72440800D03*
X173774100Y-93535500D03*
X174155100Y-73672700D03*
X161086800Y-70866000D03*
X176784000Y-105410000D03*
X180340000Y-86995000D03*
D15*
X173990000Y-106680000D02*
X164465000Y-106680000D01*
X175260000Y-107950000D02*
X173990000Y-106680000D01*
X149860000Y-111760000D02*
X159385000Y-111760000D01*
X159385000Y-111760000D02*
X164465000Y-106680000D01*
X164465000Y-106680000D02*
X164465000Y-104775000D01*
X179959000Y-69773800D02*
X162763200Y-69773800D01*
X185826400Y-75641200D02*
X179959000Y-69773800D01*
X190500000Y-106680000D02*
X189725300Y-106680000D01*
X189725300Y-106680000D02*
X188226700Y-105181400D01*
X188226700Y-78041500D02*
X185826400Y-75641200D01*
X188226700Y-105181400D02*
X188226700Y-78041500D01*
X185826400Y-75641200D02*
X185978800Y-75641200D01*
X190500000Y-106680000D02*
X190144400Y-106680000D01*
X185978800Y-75641200D02*
X190500000Y-71120000D01*
X190500000Y-106680000D02*
X190500000Y-109220000D01*
X189331600Y-110388400D02*
X190500000Y-109220000D01*
X184023000Y-110388400D02*
X189331600Y-110388400D01*
X183972200Y-110439200D02*
X184023000Y-110388400D01*
X177165000Y-83820000D02*
X177165000Y-87630000D01*
X177165000Y-111760000D02*
X177165000Y-110490000D01*
X175260000Y-113665000D02*
X177165000Y-111760000D01*
X174335000Y-120470000D02*
X174445000Y-120360000D01*
X174445000Y-120360000D02*
X174460000Y-120360000D01*
X182535000Y-120470000D02*
X182425000Y-120360000D01*
X182425000Y-120360000D02*
X182410000Y-120360000D01*
X163830000Y-102870000D02*
X165735000Y-102870000D01*
X162560000Y-104140000D02*
X163830000Y-102870000D01*
X162560000Y-105410000D02*
X162560000Y-104140000D01*
X165735000Y-102870000D02*
X169545000Y-99060000D01*
X159370000Y-105410000D02*
X162560000Y-105410000D01*
X159300000Y-105480000D02*
X159370000Y-105410000D01*
X182219600Y-75996800D02*
X182219600Y-73685400D01*
X182219600Y-73685400D02*
X182245000Y-73660000D01*
X185420000Y-72390000D02*
X186690000Y-71120000D01*
X189230000Y-68580000D02*
X186690000Y-71120000D01*
X189230000Y-68580000D02*
X190500000Y-68580000D01*
X152400000Y-100330000D02*
X152400000Y-104140000D01*
X152400000Y-100330000D02*
X152400000Y-97790000D01*
X152400000Y-79375000D02*
X152400000Y-85090000D01*
X152400000Y-85090000D02*
X152400000Y-87630000D01*
X152400000Y-87630000D02*
X152400000Y-90170000D01*
X152400000Y-90170000D02*
X152400000Y-92710000D01*
X152400000Y-92710000D02*
X152400000Y-95250000D01*
X152400000Y-95250000D02*
X152400000Y-97790000D01*
X152400000Y-104140000D02*
X149860000Y-106680000D01*
X152400000Y-70485000D02*
X151765000Y-70485000D01*
X152400000Y-77470000D02*
X152400000Y-79375000D01*
X152400000Y-74930000D02*
X152400000Y-77470000D01*
X152400000Y-72390000D02*
X152400000Y-74930000D01*
X152400000Y-70485000D02*
X152400000Y-72390000D01*
X152400000Y-79375000D02*
X152400000Y-80010000D01*
X149860000Y-68580000D02*
X150495000Y-68580000D01*
X150495000Y-68580000D02*
X152400000Y-70485000D01*
X183870600Y-104076500D02*
X183870600Y-90322400D01*
X187363100Y-104190800D02*
X187248800Y-104076500D01*
X187248800Y-104076500D02*
X183870600Y-104076500D01*
X182219600Y-88671400D02*
X182219600Y-84455000D01*
X183870600Y-90322400D02*
X182219600Y-88671400D01*
X182219600Y-78105000D02*
X186055000Y-78105000D01*
X186055000Y-78105000D02*
X186690000Y-78740000D01*
X182219600Y-79375000D02*
X184785000Y-79375000D01*
X184785000Y-79375000D02*
X185420000Y-80010000D01*
X182219600Y-80645000D02*
X183515000Y-80645000D01*
X183515000Y-80645000D02*
X184150000Y-81280000D01*
X182219600Y-84455000D02*
X182219600Y-81915000D01*
X182219600Y-81915000D02*
X182219600Y-80645000D01*
X182219600Y-80645000D02*
X182219600Y-79375000D01*
X182219600Y-79375000D02*
X182219600Y-78105000D01*
X182219600Y-78105000D02*
X182219600Y-77978000D01*
X182219600Y-77978000D02*
X182219600Y-75996800D01*
X168275000Y-91440000D02*
X168275000Y-96520000D01*
X167005000Y-90170000D02*
X168275000Y-91440000D01*
X167005000Y-91440000D02*
X167005000Y-98425000D01*
X165735000Y-93980000D02*
X165735000Y-99060000D01*
X163830000Y-97155000D02*
X163830000Y-100965000D01*
X161290000Y-100965000D02*
X161290000Y-103505000D01*
X171297600Y-94462600D02*
X172923200Y-92837000D01*
X172923200Y-92837000D02*
X172923200Y-72440800D01*
X173774100Y-93535500D02*
X174155100Y-93154500D01*
X174155100Y-93154500D02*
X174155100Y-73672700D01*
X170256200Y-80035400D02*
X161086800Y-70866000D01*
X170256200Y-98882200D02*
X170256200Y-80035400D01*
X176784000Y-105410000D02*
X170256200Y-98882200D01*
X180340000Y-115860000D02*
X180340000Y-86995000D01*
X174460000Y-115860000D02*
X180340000Y-115860000D01*
X180340000Y-115860000D02*
X182410000Y-115860000D01*
D16*
G36*
X192665000Y-120613064D02*
X192590085Y-120989689D01*
X192397666Y-121277666D01*
X192109689Y-121470085D01*
X191733068Y-121545000D01*
X183482176Y-121545000D01*
X183529405Y-121525437D01*
X183700438Y-121354404D01*
X183793000Y-121130938D01*
X183793000Y-120666000D01*
X183641000Y-120514000D01*
X182564000Y-120514000D01*
X182564000Y-120534000D01*
X182256000Y-120534000D01*
X182256000Y-120514000D01*
X182236000Y-120514000D01*
X182236000Y-120206000D01*
X182256000Y-120206000D01*
X182256000Y-119254000D01*
X182564000Y-119254000D01*
X182564000Y-120206000D01*
X183641000Y-120206000D01*
X183793000Y-120054000D01*
X183793000Y-119589062D01*
X183700438Y-119365596D01*
X183529405Y-119194563D01*
X183305939Y-119102000D01*
X182716000Y-119102000D01*
X182564000Y-119254000D01*
X182256000Y-119254000D01*
X182104000Y-119102000D01*
X181514061Y-119102000D01*
X181290595Y-119194563D01*
X181119562Y-119365596D01*
X181027000Y-119589062D01*
X181027000Y-119768534D01*
X180912527Y-119745764D01*
X180882978Y-119745764D01*
X180854000Y-119740000D01*
X180766000Y-119740000D01*
X180737018Y-119745765D01*
X180707472Y-119745765D01*
X180561671Y-119774766D01*
X180523544Y-119790559D01*
X180453528Y-119819560D01*
X180329922Y-119902150D01*
X180329921Y-119902151D01*
X180329919Y-119902152D01*
X180247150Y-119984922D01*
X180164560Y-120108528D01*
X180159394Y-120121000D01*
X180119766Y-120216671D01*
X180090764Y-120362473D01*
X180090764Y-120392022D01*
X180085000Y-120421000D01*
X180085000Y-121545000D01*
X176785000Y-121545000D01*
X176785000Y-120421000D01*
X176779235Y-120392018D01*
X176779235Y-120362472D01*
X176750234Y-120216671D01*
X176710606Y-120121000D01*
X176705440Y-120108528D01*
X176622850Y-119984922D01*
X176622848Y-119984920D01*
X176622848Y-119984919D01*
X176540078Y-119902150D01*
X176416472Y-119819560D01*
X176346456Y-119790559D01*
X176308329Y-119774766D01*
X176162527Y-119745764D01*
X176132978Y-119745764D01*
X176104000Y-119740000D01*
X176016000Y-119740000D01*
X175987018Y-119745765D01*
X175957472Y-119745765D01*
X175843000Y-119768534D01*
X175843000Y-119589062D01*
X175750438Y-119365596D01*
X175579405Y-119194563D01*
X175355939Y-119102000D01*
X174766000Y-119102000D01*
X174614000Y-119254000D01*
X174614000Y-120206000D01*
X174634000Y-120206000D01*
X174634000Y-120514000D01*
X174614000Y-120514000D01*
X174614000Y-120534000D01*
X174306000Y-120534000D01*
X174306000Y-120514000D01*
X173229000Y-120514000D01*
X173077000Y-120666000D01*
X173077000Y-121130938D01*
X173169562Y-121354404D01*
X173340595Y-121525437D01*
X173387824Y-121545000D01*
X148626936Y-121545000D01*
X148250311Y-121470085D01*
X147962334Y-121277666D01*
X147769915Y-120989689D01*
X147695000Y-120613068D01*
X147695000Y-118110000D01*
X149535800Y-118110000D01*
X149709355Y-118982518D01*
X150203597Y-119722203D01*
X150943282Y-120216445D01*
X151815800Y-120390000D01*
X152688318Y-120216445D01*
X153428003Y-119722203D01*
X153516965Y-119589062D01*
X173077000Y-119589062D01*
X173077000Y-120054000D01*
X173229000Y-120206000D01*
X174306000Y-120206000D01*
X174306000Y-119254000D01*
X174154000Y-119102000D01*
X173564061Y-119102000D01*
X173340595Y-119194563D01*
X173169562Y-119365596D01*
X173077000Y-119589062D01*
X153516965Y-119589062D01*
X153922245Y-118982518D01*
X154095800Y-118110000D01*
X154083170Y-118046500D01*
X186403900Y-118046500D01*
X186577455Y-118919018D01*
X187071697Y-119658703D01*
X187811382Y-120152945D01*
X188683900Y-120326500D01*
X189556418Y-120152945D01*
X190296103Y-119658703D01*
X190790345Y-118919018D01*
X190963900Y-118046500D01*
X190790345Y-117173982D01*
X190296103Y-116434297D01*
X189556418Y-115940055D01*
X188683900Y-115766500D01*
X187811382Y-115940055D01*
X187071697Y-116434297D01*
X186577455Y-117173982D01*
X186403900Y-118046500D01*
X154083170Y-118046500D01*
X153922245Y-117237482D01*
X153428003Y-116497797D01*
X152688318Y-116003555D01*
X151815800Y-115830000D01*
X150943282Y-116003555D01*
X150203597Y-116497797D01*
X149709355Y-117237482D01*
X149535800Y-118110000D01*
X147695000Y-118110000D01*
X147695000Y-115210000D01*
X173379123Y-115210000D01*
X173379123Y-116510000D01*
X173400042Y-116621173D01*
X173465745Y-116723279D01*
X173565997Y-116791778D01*
X173685000Y-116815877D01*
X175235000Y-116815877D01*
X175346173Y-116794958D01*
X175448279Y-116729255D01*
X175516778Y-116629003D01*
X175540877Y-116510000D01*
X175540877Y-116285000D01*
X181329123Y-116285000D01*
X181329123Y-116510000D01*
X181350042Y-116621173D01*
X181415745Y-116723279D01*
X181515997Y-116791778D01*
X181635000Y-116815877D01*
X183185000Y-116815877D01*
X183296173Y-116794958D01*
X183398279Y-116729255D01*
X183466778Y-116629003D01*
X183490877Y-116510000D01*
X183490877Y-115210000D01*
X183469958Y-115098827D01*
X183404255Y-114996721D01*
X183304003Y-114928222D01*
X183185000Y-114904123D01*
X181635000Y-114904123D01*
X181523827Y-114925042D01*
X181421721Y-114990745D01*
X181353222Y-115090997D01*
X181329123Y-115210000D01*
X181329123Y-115435000D01*
X180765000Y-115435000D01*
X180765000Y-111760000D01*
X189327470Y-111760000D01*
X189415009Y-112200086D01*
X189664297Y-112573173D01*
X190037384Y-112822461D01*
X190477470Y-112910000D01*
X190522530Y-112910000D01*
X190962616Y-112822461D01*
X191335703Y-112573173D01*
X191584991Y-112200086D01*
X191672530Y-111760000D01*
X191584991Y-111319914D01*
X191335703Y-110946827D01*
X190962616Y-110697539D01*
X190522530Y-110610000D01*
X190477470Y-110610000D01*
X190037384Y-110697539D01*
X189664297Y-110946827D01*
X189415009Y-111319914D01*
X189327470Y-111760000D01*
X180765000Y-111760000D01*
X180765000Y-87418530D01*
X180848359Y-87335317D01*
X180939896Y-87114871D01*
X180940104Y-86876176D01*
X180848952Y-86655571D01*
X180680317Y-86486641D01*
X180459871Y-86395104D01*
X180221176Y-86394896D01*
X180000571Y-86486048D01*
X179831641Y-86654683D01*
X179740104Y-86875129D01*
X179739896Y-87113824D01*
X179831048Y-87334429D01*
X179915000Y-87418528D01*
X179915000Y-115435000D01*
X175540877Y-115435000D01*
X175540877Y-115210000D01*
X175519958Y-115098827D01*
X175454255Y-114996721D01*
X175354003Y-114928222D01*
X175235000Y-114904123D01*
X173685000Y-114904123D01*
X173573827Y-114925042D01*
X173471721Y-114990745D01*
X173403222Y-115090997D01*
X173379123Y-115210000D01*
X147695000Y-115210000D01*
X147695000Y-109598910D01*
X148452097Y-109598910D01*
X148596523Y-109947616D01*
X148971146Y-110375741D01*
X149481089Y-110627915D01*
X149705998Y-110517857D01*
X149705998Y-110636152D01*
X149397384Y-110697539D01*
X149024297Y-110946827D01*
X148775009Y-111319914D01*
X148687470Y-111760000D01*
X148775009Y-112200086D01*
X149024297Y-112573173D01*
X149397384Y-112822461D01*
X149837470Y-112910000D01*
X149882530Y-112910000D01*
X150322616Y-112822461D01*
X150695703Y-112573173D01*
X150944991Y-112200086D01*
X150947992Y-112185000D01*
X159385000Y-112185000D01*
X159520657Y-112158016D01*
X159547641Y-112152649D01*
X159685520Y-112060520D01*
X164641040Y-107105000D01*
X173813960Y-107105000D01*
X174659999Y-107951039D01*
X174659896Y-108068824D01*
X174751048Y-108289429D01*
X174919683Y-108458359D01*
X175140129Y-108549896D01*
X175378824Y-108550104D01*
X175599429Y-108458952D01*
X175768359Y-108290317D01*
X175859896Y-108069871D01*
X175860104Y-107831176D01*
X175768952Y-107610571D01*
X175600317Y-107441641D01*
X175379871Y-107350104D01*
X175261041Y-107350000D01*
X174290520Y-106379480D01*
X174152641Y-106287351D01*
X174125657Y-106281984D01*
X173990000Y-106255000D01*
X164890000Y-106255000D01*
X164890000Y-105198530D01*
X164973359Y-105115317D01*
X165064896Y-104894871D01*
X165065104Y-104656176D01*
X164973952Y-104435571D01*
X164805317Y-104266641D01*
X164584871Y-104175104D01*
X164346176Y-104174896D01*
X164125571Y-104266048D01*
X163956641Y-104434683D01*
X163865104Y-104655129D01*
X163864896Y-104893824D01*
X163956048Y-105114429D01*
X164040000Y-105198528D01*
X164040000Y-106503960D01*
X159208960Y-111335000D01*
X150947992Y-111335000D01*
X150944991Y-111319914D01*
X150695703Y-110946827D01*
X150322616Y-110697539D01*
X150014002Y-110636152D01*
X150014002Y-110517857D01*
X150238911Y-110627915D01*
X150748854Y-110375741D01*
X151123477Y-109947616D01*
X151267903Y-109598910D01*
X151156889Y-109374000D01*
X150014000Y-109374000D01*
X150014000Y-109394000D01*
X149706000Y-109394000D01*
X149706000Y-109374000D01*
X148563111Y-109374000D01*
X148452097Y-109598910D01*
X147695000Y-109598910D01*
X147695000Y-107058910D01*
X148452097Y-107058910D01*
X148596523Y-107407616D01*
X148971146Y-107835741D01*
X149202199Y-107950000D01*
X148971146Y-108064259D01*
X148596523Y-108492384D01*
X148452097Y-108841090D01*
X148563111Y-109066000D01*
X149706000Y-109066000D01*
X149706000Y-106834000D01*
X150014000Y-106834000D01*
X150014000Y-109066000D01*
X151156889Y-109066000D01*
X151267903Y-108841090D01*
X151123477Y-108492384D01*
X150748854Y-108064259D01*
X150517801Y-107950000D01*
X150748854Y-107835741D01*
X151123477Y-107407616D01*
X151267903Y-107058910D01*
X151156889Y-106834000D01*
X150014000Y-106834000D01*
X149706000Y-106834000D01*
X148563111Y-106834000D01*
X148452097Y-107058910D01*
X147695000Y-107058910D01*
X147695000Y-106301090D01*
X148452097Y-106301090D01*
X148563111Y-106526000D01*
X149706000Y-106526000D01*
X149706000Y-106506000D01*
X150014000Y-106506000D01*
X150014000Y-106526000D01*
X151156889Y-106526000D01*
X151267903Y-106301090D01*
X151123477Y-105952384D01*
X150748854Y-105524259D01*
X150238911Y-105272085D01*
X150014002Y-105382143D01*
X150014002Y-105263848D01*
X150322616Y-105202461D01*
X150695703Y-104953173D01*
X150944991Y-104580086D01*
X151032530Y-104140000D01*
X150944991Y-103699914D01*
X150695703Y-103326827D01*
X150322616Y-103077539D01*
X149882530Y-102990000D01*
X149837470Y-102990000D01*
X149397384Y-103077539D01*
X149024297Y-103326827D01*
X148775009Y-103699914D01*
X148687470Y-104140000D01*
X148775009Y-104580086D01*
X149024297Y-104953173D01*
X149397384Y-105202461D01*
X149705998Y-105263848D01*
X149705998Y-105382143D01*
X149481089Y-105272085D01*
X148971146Y-105524259D01*
X148596523Y-105952384D01*
X148452097Y-106301090D01*
X147695000Y-106301090D01*
X147695000Y-101600000D01*
X148687470Y-101600000D01*
X148775009Y-102040086D01*
X149024297Y-102413173D01*
X149397384Y-102662461D01*
X149837470Y-102750000D01*
X149882530Y-102750000D01*
X150322616Y-102662461D01*
X150695703Y-102413173D01*
X150944991Y-102040086D01*
X151032530Y-101600000D01*
X150944991Y-101159914D01*
X150894150Y-101083824D01*
X160689896Y-101083824D01*
X160781048Y-101304429D01*
X160865000Y-101388528D01*
X160865000Y-103081470D01*
X160781641Y-103164683D01*
X160690104Y-103385129D01*
X160689896Y-103623824D01*
X160781048Y-103844429D01*
X160949683Y-104013359D01*
X161170129Y-104104896D01*
X161408824Y-104105104D01*
X161629429Y-104013952D01*
X161798359Y-103845317D01*
X161889896Y-103624871D01*
X161890104Y-103386176D01*
X161798952Y-103165571D01*
X161715000Y-103081472D01*
X161715000Y-101388530D01*
X161798359Y-101305317D01*
X161889896Y-101084871D01*
X161890104Y-100846176D01*
X161798952Y-100625571D01*
X161630317Y-100456641D01*
X161409871Y-100365104D01*
X161171176Y-100364896D01*
X160950571Y-100456048D01*
X160781641Y-100624683D01*
X160690104Y-100845129D01*
X160689896Y-101083824D01*
X150894150Y-101083824D01*
X150695703Y-100786827D01*
X150322616Y-100537539D01*
X149882530Y-100450000D01*
X149837470Y-100450000D01*
X149397384Y-100537539D01*
X149024297Y-100786827D01*
X148775009Y-101159914D01*
X148687470Y-101600000D01*
X147695000Y-101600000D01*
X147695000Y-99060000D01*
X148687470Y-99060000D01*
X148775009Y-99500086D01*
X149024297Y-99873173D01*
X149397384Y-100122461D01*
X149837470Y-100210000D01*
X149882530Y-100210000D01*
X150322616Y-100122461D01*
X150695703Y-99873173D01*
X150944991Y-99500086D01*
X151032530Y-99060000D01*
X150944991Y-98619914D01*
X150695703Y-98246827D01*
X150322616Y-97997539D01*
X149882530Y-97910000D01*
X149837470Y-97910000D01*
X149397384Y-97997539D01*
X149024297Y-98246827D01*
X148775009Y-98619914D01*
X148687470Y-99060000D01*
X147695000Y-99060000D01*
X147695000Y-96520000D01*
X148687470Y-96520000D01*
X148775009Y-96960086D01*
X149024297Y-97333173D01*
X149397384Y-97582461D01*
X149837470Y-97670000D01*
X149882530Y-97670000D01*
X150322616Y-97582461D01*
X150695703Y-97333173D01*
X150735358Y-97273824D01*
X163229896Y-97273824D01*
X163321048Y-97494429D01*
X163405000Y-97578528D01*
X163405000Y-100541470D01*
X163321641Y-100624683D01*
X163230104Y-100845129D01*
X163229896Y-101083824D01*
X163321048Y-101304429D01*
X163489683Y-101473359D01*
X163710129Y-101564896D01*
X163948824Y-101565104D01*
X164169429Y-101473952D01*
X164338359Y-101305317D01*
X164429896Y-101084871D01*
X164430104Y-100846176D01*
X164338952Y-100625571D01*
X164255000Y-100541472D01*
X164255000Y-97578530D01*
X164338359Y-97495317D01*
X164429896Y-97274871D01*
X164430104Y-97036176D01*
X164338952Y-96815571D01*
X164170317Y-96646641D01*
X163949871Y-96555104D01*
X163711176Y-96554896D01*
X163490571Y-96646048D01*
X163321641Y-96814683D01*
X163230104Y-97035129D01*
X163229896Y-97273824D01*
X150735358Y-97273824D01*
X150944991Y-96960086D01*
X151032530Y-96520000D01*
X150944991Y-96079914D01*
X150695703Y-95706827D01*
X150322616Y-95457539D01*
X149882530Y-95370000D01*
X149837470Y-95370000D01*
X149397384Y-95457539D01*
X149024297Y-95706827D01*
X148775009Y-96079914D01*
X148687470Y-96520000D01*
X147695000Y-96520000D01*
X147695000Y-93980000D01*
X148687470Y-93980000D01*
X148775009Y-94420086D01*
X149024297Y-94793173D01*
X149397384Y-95042461D01*
X149837470Y-95130000D01*
X149882530Y-95130000D01*
X150322616Y-95042461D01*
X150695703Y-94793173D01*
X150944991Y-94420086D01*
X151008894Y-94098824D01*
X165134896Y-94098824D01*
X165226048Y-94319429D01*
X165310000Y-94403528D01*
X165310000Y-98636470D01*
X165226641Y-98719683D01*
X165135104Y-98940129D01*
X165134896Y-99178824D01*
X165226048Y-99399429D01*
X165394683Y-99568359D01*
X165615129Y-99659896D01*
X165853824Y-99660104D01*
X166074429Y-99568952D01*
X166243359Y-99400317D01*
X166334896Y-99179871D01*
X166335104Y-98941176D01*
X166243952Y-98720571D01*
X166160000Y-98636472D01*
X166160000Y-94403530D01*
X166243359Y-94320317D01*
X166334896Y-94099871D01*
X166335104Y-93861176D01*
X166243952Y-93640571D01*
X166075317Y-93471641D01*
X165854871Y-93380104D01*
X165616176Y-93379896D01*
X165395571Y-93471048D01*
X165226641Y-93639683D01*
X165135104Y-93860129D01*
X165134896Y-94098824D01*
X151008894Y-94098824D01*
X151032530Y-93980000D01*
X150944991Y-93539914D01*
X150695703Y-93166827D01*
X150322616Y-92917539D01*
X149882530Y-92830000D01*
X149837470Y-92830000D01*
X149397384Y-92917539D01*
X149024297Y-93166827D01*
X148775009Y-93539914D01*
X148687470Y-93980000D01*
X147695000Y-93980000D01*
X147695000Y-91440000D01*
X148687470Y-91440000D01*
X148775009Y-91880086D01*
X149024297Y-92253173D01*
X149397384Y-92502461D01*
X149837470Y-92590000D01*
X149882530Y-92590000D01*
X150322616Y-92502461D01*
X150695703Y-92253173D01*
X150944991Y-91880086D01*
X151032530Y-91440000D01*
X150944991Y-90999914D01*
X150695703Y-90626827D01*
X150322616Y-90377539D01*
X149882530Y-90290000D01*
X149837470Y-90290000D01*
X149397384Y-90377539D01*
X149024297Y-90626827D01*
X148775009Y-90999914D01*
X148687470Y-91440000D01*
X147695000Y-91440000D01*
X147695000Y-90288824D01*
X166404896Y-90288824D01*
X166496048Y-90509429D01*
X166664683Y-90678359D01*
X166885129Y-90769896D01*
X167003959Y-90770000D01*
X167074019Y-90840060D01*
X166886176Y-90839896D01*
X166665571Y-90931048D01*
X166496641Y-91099683D01*
X166405104Y-91320129D01*
X166404896Y-91558824D01*
X166496048Y-91779429D01*
X166580000Y-91863528D01*
X166580000Y-98001470D01*
X166496641Y-98084683D01*
X166405104Y-98305129D01*
X166404896Y-98543824D01*
X166496048Y-98764429D01*
X166664683Y-98933359D01*
X166885129Y-99024896D01*
X167123824Y-99025104D01*
X167344429Y-98933952D01*
X167513359Y-98765317D01*
X167604896Y-98544871D01*
X167605104Y-98306176D01*
X167513952Y-98085571D01*
X167430000Y-98001472D01*
X167430000Y-91863530D01*
X167513359Y-91780317D01*
X167604896Y-91559871D01*
X167605060Y-91371101D01*
X167850000Y-91616041D01*
X167850000Y-96096470D01*
X167766641Y-96179683D01*
X167675104Y-96400129D01*
X167674896Y-96638824D01*
X167766048Y-96859429D01*
X167934683Y-97028359D01*
X168155129Y-97119896D01*
X168393824Y-97120104D01*
X168614429Y-97028952D01*
X168783359Y-96860317D01*
X168874896Y-96639871D01*
X168875104Y-96401176D01*
X168783952Y-96180571D01*
X168700000Y-96096472D01*
X168700000Y-91440000D01*
X168667649Y-91277360D01*
X168637078Y-91231608D01*
X168575520Y-91139479D01*
X167605001Y-90168961D01*
X167605104Y-90051176D01*
X167513952Y-89830571D01*
X167345317Y-89661641D01*
X167124871Y-89570104D01*
X166886176Y-89569896D01*
X166665571Y-89661048D01*
X166496641Y-89829683D01*
X166405104Y-90050129D01*
X166404896Y-90288824D01*
X147695000Y-90288824D01*
X147695000Y-88900000D01*
X148687470Y-88900000D01*
X148775009Y-89340086D01*
X149024297Y-89713173D01*
X149397384Y-89962461D01*
X149837470Y-90050000D01*
X149882530Y-90050000D01*
X150322616Y-89962461D01*
X150695703Y-89713173D01*
X150944991Y-89340086D01*
X151032530Y-88900000D01*
X150944991Y-88459914D01*
X150695703Y-88086827D01*
X150322616Y-87837539D01*
X149882530Y-87750000D01*
X149837470Y-87750000D01*
X149397384Y-87837539D01*
X149024297Y-88086827D01*
X148775009Y-88459914D01*
X148687470Y-88900000D01*
X147695000Y-88900000D01*
X147695000Y-86360000D01*
X148687470Y-86360000D01*
X148775009Y-86800086D01*
X149024297Y-87173173D01*
X149397384Y-87422461D01*
X149837470Y-87510000D01*
X149882530Y-87510000D01*
X150322616Y-87422461D01*
X150695703Y-87173173D01*
X150944991Y-86800086D01*
X151032530Y-86360000D01*
X150944991Y-85919914D01*
X150695703Y-85546827D01*
X150322616Y-85297539D01*
X149882530Y-85210000D01*
X149837470Y-85210000D01*
X149397384Y-85297539D01*
X149024297Y-85546827D01*
X148775009Y-85919914D01*
X148687470Y-86360000D01*
X147695000Y-86360000D01*
X147695000Y-83820000D01*
X148687470Y-83820000D01*
X148775009Y-84260086D01*
X149024297Y-84633173D01*
X149397384Y-84882461D01*
X149837470Y-84970000D01*
X149882530Y-84970000D01*
X150322616Y-84882461D01*
X150695703Y-84633173D01*
X150944991Y-84260086D01*
X151032530Y-83820000D01*
X150944991Y-83379914D01*
X150695703Y-83006827D01*
X150322616Y-82757539D01*
X149882530Y-82670000D01*
X149837470Y-82670000D01*
X149397384Y-82757539D01*
X149024297Y-83006827D01*
X148775009Y-83379914D01*
X148687470Y-83820000D01*
X147695000Y-83820000D01*
X147695000Y-81280000D01*
X148687470Y-81280000D01*
X148775009Y-81720086D01*
X149024297Y-82093173D01*
X149397384Y-82342461D01*
X149837470Y-82430000D01*
X149882530Y-82430000D01*
X150322616Y-82342461D01*
X150695703Y-82093173D01*
X150944991Y-81720086D01*
X151032530Y-81280000D01*
X150944991Y-80839914D01*
X150695703Y-80466827D01*
X150322616Y-80217539D01*
X149882530Y-80130000D01*
X149837470Y-80130000D01*
X149397384Y-80217539D01*
X149024297Y-80466827D01*
X148775009Y-80839914D01*
X148687470Y-81280000D01*
X147695000Y-81280000D01*
X147695000Y-78740000D01*
X148687470Y-78740000D01*
X148775009Y-79180086D01*
X149024297Y-79553173D01*
X149397384Y-79802461D01*
X149837470Y-79890000D01*
X149882530Y-79890000D01*
X150322616Y-79802461D01*
X150695703Y-79553173D01*
X150944991Y-79180086D01*
X151032530Y-78740000D01*
X150944991Y-78299914D01*
X150695703Y-77926827D01*
X150322616Y-77677539D01*
X149882530Y-77590000D01*
X149837470Y-77590000D01*
X149397384Y-77677539D01*
X149024297Y-77926827D01*
X148775009Y-78299914D01*
X148687470Y-78740000D01*
X147695000Y-78740000D01*
X147695000Y-76200000D01*
X148687470Y-76200000D01*
X148775009Y-76640086D01*
X149024297Y-77013173D01*
X149397384Y-77262461D01*
X149837470Y-77350000D01*
X149882530Y-77350000D01*
X150322616Y-77262461D01*
X150695703Y-77013173D01*
X150944991Y-76640086D01*
X151032530Y-76200000D01*
X150944991Y-75759914D01*
X150695703Y-75386827D01*
X150322616Y-75137539D01*
X149882530Y-75050000D01*
X149837470Y-75050000D01*
X149397384Y-75137539D01*
X149024297Y-75386827D01*
X148775009Y-75759914D01*
X148687470Y-76200000D01*
X147695000Y-76200000D01*
X147695000Y-73660000D01*
X148687470Y-73660000D01*
X148775009Y-74100086D01*
X149024297Y-74473173D01*
X149397384Y-74722461D01*
X149837470Y-74810000D01*
X149882530Y-74810000D01*
X150322616Y-74722461D01*
X150695703Y-74473173D01*
X150944991Y-74100086D01*
X151032530Y-73660000D01*
X150944991Y-73219914D01*
X150695703Y-72846827D01*
X150322616Y-72597539D01*
X149882530Y-72510000D01*
X149837470Y-72510000D01*
X149397384Y-72597539D01*
X149024297Y-72846827D01*
X148775009Y-73219914D01*
X148687470Y-73660000D01*
X147695000Y-73660000D01*
X147695000Y-68886000D01*
X148402000Y-68886000D01*
X148402000Y-69550938D01*
X148494562Y-69774404D01*
X148665595Y-69945437D01*
X148889061Y-70038000D01*
X149495613Y-70038000D01*
X149397384Y-70057539D01*
X149024297Y-70306827D01*
X148775009Y-70679914D01*
X148687470Y-71120000D01*
X148775009Y-71560086D01*
X149024297Y-71933173D01*
X149397384Y-72182461D01*
X149837470Y-72270000D01*
X149882530Y-72270000D01*
X150322616Y-72182461D01*
X150695703Y-71933173D01*
X150944991Y-71560086D01*
X151032530Y-71120000D01*
X151005642Y-70984824D01*
X160486696Y-70984824D01*
X160577848Y-71205429D01*
X160746483Y-71374359D01*
X160966929Y-71465896D01*
X161085760Y-71466000D01*
X169831200Y-80211440D01*
X169831200Y-98882200D01*
X169858184Y-99017857D01*
X169863551Y-99044841D01*
X169955680Y-99182720D01*
X176183999Y-105411040D01*
X176183896Y-105528824D01*
X176275048Y-105749429D01*
X176443683Y-105918359D01*
X176664129Y-106009896D01*
X176902824Y-106010104D01*
X177123429Y-105918952D01*
X177292359Y-105750317D01*
X177383896Y-105529871D01*
X177384104Y-105291176D01*
X177292952Y-105070571D01*
X177124317Y-104901641D01*
X176903871Y-104810104D01*
X176785041Y-104810000D01*
X170681200Y-98706160D01*
X170681200Y-94581424D01*
X170697496Y-94581424D01*
X170788648Y-94802029D01*
X170957283Y-94970959D01*
X171177729Y-95062496D01*
X171416424Y-95062704D01*
X171637029Y-94971552D01*
X171805959Y-94802917D01*
X171897496Y-94582471D01*
X171897600Y-94463641D01*
X172706917Y-93654324D01*
X173173996Y-93654324D01*
X173265148Y-93874929D01*
X173433783Y-94043859D01*
X173654229Y-94135396D01*
X173892924Y-94135604D01*
X174113529Y-94044452D01*
X174282459Y-93875817D01*
X174373996Y-93655371D01*
X174374100Y-93536541D01*
X174455620Y-93455021D01*
X174547748Y-93317141D01*
X174547749Y-93317140D01*
X174580100Y-93154500D01*
X174580100Y-74096230D01*
X174663459Y-74013017D01*
X174754996Y-73792571D01*
X174755204Y-73553876D01*
X174664052Y-73333271D01*
X174495417Y-73164341D01*
X174274971Y-73072804D01*
X174036276Y-73072596D01*
X173815671Y-73163748D01*
X173646741Y-73332383D01*
X173555204Y-73552829D01*
X173554996Y-73791524D01*
X173646148Y-74012129D01*
X173730100Y-74096228D01*
X173730100Y-92935461D01*
X173655276Y-92935396D01*
X173434671Y-93026548D01*
X173265741Y-93195183D01*
X173174204Y-93415629D01*
X173173996Y-93654324D01*
X172706917Y-93654324D01*
X173223721Y-93137520D01*
X173315849Y-92999641D01*
X173348200Y-92837000D01*
X173348200Y-72864330D01*
X173431559Y-72781117D01*
X173523096Y-72560671D01*
X173523304Y-72321976D01*
X173432152Y-72101371D01*
X173263517Y-71932441D01*
X173043071Y-71840904D01*
X172804376Y-71840696D01*
X172583771Y-71931848D01*
X172414841Y-72100483D01*
X172323304Y-72320929D01*
X172323096Y-72559624D01*
X172414248Y-72780229D01*
X172498200Y-72864328D01*
X172498200Y-92660959D01*
X171296561Y-93862599D01*
X171178776Y-93862496D01*
X170958171Y-93953648D01*
X170789241Y-94122283D01*
X170697704Y-94342729D01*
X170697496Y-94581424D01*
X170681200Y-94581424D01*
X170681200Y-80035400D01*
X170648849Y-79872760D01*
X170648849Y-79872759D01*
X170556720Y-79734880D01*
X161686801Y-70864961D01*
X161686904Y-70747176D01*
X161595752Y-70526571D01*
X161427117Y-70357641D01*
X161206671Y-70266104D01*
X160967976Y-70265896D01*
X160747371Y-70357048D01*
X160578441Y-70525683D01*
X160486904Y-70746129D01*
X160486696Y-70984824D01*
X151005642Y-70984824D01*
X150944991Y-70679914D01*
X150695703Y-70306827D01*
X150322616Y-70057539D01*
X150224387Y-70038000D01*
X150830939Y-70038000D01*
X151054405Y-69945437D01*
X151107218Y-69892624D01*
X162163096Y-69892624D01*
X162254248Y-70113229D01*
X162422883Y-70282159D01*
X162643329Y-70373696D01*
X162882024Y-70373904D01*
X163102629Y-70282752D01*
X163186728Y-70198800D01*
X179782960Y-70198800D01*
X185525880Y-75941721D01*
X185525883Y-75941723D01*
X187801700Y-78217541D01*
X187801700Y-105181400D01*
X187823536Y-105291176D01*
X187834051Y-105344041D01*
X187926180Y-105481920D01*
X189377928Y-106933669D01*
X189415009Y-107120086D01*
X189664297Y-107493173D01*
X190037384Y-107742461D01*
X190075000Y-107749943D01*
X190075000Y-108150057D01*
X190037384Y-108157539D01*
X189664297Y-108406827D01*
X189415009Y-108779914D01*
X189327470Y-109220000D01*
X189415009Y-109660086D01*
X189432579Y-109686381D01*
X189155560Y-109963400D01*
X184345019Y-109963400D01*
X184312517Y-109930841D01*
X184092071Y-109839304D01*
X183853376Y-109839096D01*
X183632771Y-109930248D01*
X183463841Y-110098883D01*
X183372304Y-110319329D01*
X183372096Y-110558024D01*
X183463248Y-110778629D01*
X183631883Y-110947559D01*
X183852329Y-111039096D01*
X184091024Y-111039304D01*
X184311629Y-110948152D01*
X184446617Y-110813400D01*
X189331600Y-110813400D01*
X189467257Y-110786416D01*
X189494241Y-110781049D01*
X189632120Y-110688920D01*
X190038381Y-110282659D01*
X190477470Y-110370000D01*
X190522530Y-110370000D01*
X190962616Y-110282461D01*
X191335703Y-110033173D01*
X191584991Y-109660086D01*
X191672530Y-109220000D01*
X191584991Y-108779914D01*
X191335703Y-108406827D01*
X190962616Y-108157539D01*
X190925000Y-108150057D01*
X190925000Y-107749943D01*
X190962616Y-107742461D01*
X191335703Y-107493173D01*
X191584991Y-107120086D01*
X191672530Y-106680000D01*
X191584991Y-106239914D01*
X191335703Y-105866827D01*
X190962616Y-105617539D01*
X190654002Y-105556152D01*
X190654002Y-105437857D01*
X190878911Y-105547915D01*
X191388854Y-105295741D01*
X191763477Y-104867616D01*
X191907903Y-104518910D01*
X191796889Y-104294000D01*
X190654000Y-104294000D01*
X190654000Y-104314000D01*
X190346000Y-104314000D01*
X190346000Y-104294000D01*
X189203111Y-104294000D01*
X189092097Y-104518910D01*
X189236523Y-104867616D01*
X189611146Y-105295741D01*
X190121089Y-105547915D01*
X190345998Y-105437857D01*
X190345998Y-105556152D01*
X190037384Y-105617539D01*
X189664297Y-105866827D01*
X189603763Y-105957422D01*
X188651700Y-105005360D01*
X188651700Y-101978910D01*
X189092097Y-101978910D01*
X189236523Y-102327616D01*
X189611146Y-102755741D01*
X189842199Y-102870000D01*
X189611146Y-102984259D01*
X189236523Y-103412384D01*
X189092097Y-103761090D01*
X189203111Y-103986000D01*
X190346000Y-103986000D01*
X190346000Y-101754000D01*
X190654000Y-101754000D01*
X190654000Y-103986000D01*
X191796889Y-103986000D01*
X191907903Y-103761090D01*
X191763477Y-103412384D01*
X191388854Y-102984259D01*
X191157801Y-102870000D01*
X191388854Y-102755741D01*
X191763477Y-102327616D01*
X191907903Y-101978910D01*
X191796889Y-101754000D01*
X190654000Y-101754000D01*
X190346000Y-101754000D01*
X189203111Y-101754000D01*
X189092097Y-101978910D01*
X188651700Y-101978910D01*
X188651700Y-101221090D01*
X189092097Y-101221090D01*
X189203111Y-101446000D01*
X190346000Y-101446000D01*
X190346000Y-101426000D01*
X190654000Y-101426000D01*
X190654000Y-101446000D01*
X191796889Y-101446000D01*
X191907903Y-101221090D01*
X191763477Y-100872384D01*
X191388854Y-100444259D01*
X190878911Y-100192085D01*
X190654002Y-100302143D01*
X190654002Y-100183848D01*
X190962616Y-100122461D01*
X191335703Y-99873173D01*
X191584991Y-99500086D01*
X191672530Y-99060000D01*
X191584991Y-98619914D01*
X191335703Y-98246827D01*
X190962616Y-97997539D01*
X190522530Y-97910000D01*
X190477470Y-97910000D01*
X190037384Y-97997539D01*
X189664297Y-98246827D01*
X189415009Y-98619914D01*
X189327470Y-99060000D01*
X189415009Y-99500086D01*
X189664297Y-99873173D01*
X190037384Y-100122461D01*
X190345998Y-100183848D01*
X190345998Y-100302143D01*
X190121089Y-100192085D01*
X189611146Y-100444259D01*
X189236523Y-100872384D01*
X189092097Y-101221090D01*
X188651700Y-101221090D01*
X188651700Y-96520000D01*
X189327470Y-96520000D01*
X189415009Y-96960086D01*
X189664297Y-97333173D01*
X190037384Y-97582461D01*
X190477470Y-97670000D01*
X190522530Y-97670000D01*
X190962616Y-97582461D01*
X191335703Y-97333173D01*
X191584991Y-96960086D01*
X191672530Y-96520000D01*
X191584991Y-96079914D01*
X191335703Y-95706827D01*
X190962616Y-95457539D01*
X190522530Y-95370000D01*
X190477470Y-95370000D01*
X190037384Y-95457539D01*
X189664297Y-95706827D01*
X189415009Y-96079914D01*
X189327470Y-96520000D01*
X188651700Y-96520000D01*
X188651700Y-93980000D01*
X189327470Y-93980000D01*
X189415009Y-94420086D01*
X189664297Y-94793173D01*
X190037384Y-95042461D01*
X190477470Y-95130000D01*
X190522530Y-95130000D01*
X190962616Y-95042461D01*
X191335703Y-94793173D01*
X191584991Y-94420086D01*
X191672530Y-93980000D01*
X191584991Y-93539914D01*
X191335703Y-93166827D01*
X190962616Y-92917539D01*
X190522530Y-92830000D01*
X190477470Y-92830000D01*
X190037384Y-92917539D01*
X189664297Y-93166827D01*
X189415009Y-93539914D01*
X189327470Y-93980000D01*
X188651700Y-93980000D01*
X188651700Y-91440000D01*
X189327470Y-91440000D01*
X189415009Y-91880086D01*
X189664297Y-92253173D01*
X190037384Y-92502461D01*
X190477470Y-92590000D01*
X190522530Y-92590000D01*
X190962616Y-92502461D01*
X191335703Y-92253173D01*
X191584991Y-91880086D01*
X191672530Y-91440000D01*
X191584991Y-90999914D01*
X191335703Y-90626827D01*
X190962616Y-90377539D01*
X190522530Y-90290000D01*
X190477470Y-90290000D01*
X190037384Y-90377539D01*
X189664297Y-90626827D01*
X189415009Y-90999914D01*
X189327470Y-91440000D01*
X188651700Y-91440000D01*
X188651700Y-88900000D01*
X189327470Y-88900000D01*
X189415009Y-89340086D01*
X189664297Y-89713173D01*
X190037384Y-89962461D01*
X190477470Y-90050000D01*
X190522530Y-90050000D01*
X190962616Y-89962461D01*
X191335703Y-89713173D01*
X191584991Y-89340086D01*
X191672530Y-88900000D01*
X191584991Y-88459914D01*
X191335703Y-88086827D01*
X190962616Y-87837539D01*
X190522530Y-87750000D01*
X190477470Y-87750000D01*
X190037384Y-87837539D01*
X189664297Y-88086827D01*
X189415009Y-88459914D01*
X189327470Y-88900000D01*
X188651700Y-88900000D01*
X188651700Y-86360000D01*
X189327470Y-86360000D01*
X189415009Y-86800086D01*
X189664297Y-87173173D01*
X190037384Y-87422461D01*
X190477470Y-87510000D01*
X190522530Y-87510000D01*
X190962616Y-87422461D01*
X191335703Y-87173173D01*
X191584991Y-86800086D01*
X191672530Y-86360000D01*
X191584991Y-85919914D01*
X191335703Y-85546827D01*
X190962616Y-85297539D01*
X190522530Y-85210000D01*
X190477470Y-85210000D01*
X190037384Y-85297539D01*
X189664297Y-85546827D01*
X189415009Y-85919914D01*
X189327470Y-86360000D01*
X188651700Y-86360000D01*
X188651700Y-83820000D01*
X189327470Y-83820000D01*
X189415009Y-84260086D01*
X189664297Y-84633173D01*
X190037384Y-84882461D01*
X190477470Y-84970000D01*
X190522530Y-84970000D01*
X190962616Y-84882461D01*
X191335703Y-84633173D01*
X191584991Y-84260086D01*
X191672530Y-83820000D01*
X191584991Y-83379914D01*
X191335703Y-83006827D01*
X190962616Y-82757539D01*
X190522530Y-82670000D01*
X190477470Y-82670000D01*
X190037384Y-82757539D01*
X189664297Y-83006827D01*
X189415009Y-83379914D01*
X189327470Y-83820000D01*
X188651700Y-83820000D01*
X188651700Y-81280000D01*
X189327470Y-81280000D01*
X189415009Y-81720086D01*
X189664297Y-82093173D01*
X190037384Y-82342461D01*
X190477470Y-82430000D01*
X190522530Y-82430000D01*
X190962616Y-82342461D01*
X191335703Y-82093173D01*
X191584991Y-81720086D01*
X191672530Y-81280000D01*
X191584991Y-80839914D01*
X191335703Y-80466827D01*
X190962616Y-80217539D01*
X190522530Y-80130000D01*
X190477470Y-80130000D01*
X190037384Y-80217539D01*
X189664297Y-80466827D01*
X189415009Y-80839914D01*
X189327470Y-81280000D01*
X188651700Y-81280000D01*
X188651700Y-78740000D01*
X189327470Y-78740000D01*
X189415009Y-79180086D01*
X189664297Y-79553173D01*
X190037384Y-79802461D01*
X190477470Y-79890000D01*
X190522530Y-79890000D01*
X190962616Y-79802461D01*
X191335703Y-79553173D01*
X191584991Y-79180086D01*
X191672530Y-78740000D01*
X191584991Y-78299914D01*
X191335703Y-77926827D01*
X190962616Y-77677539D01*
X190522530Y-77590000D01*
X190477470Y-77590000D01*
X190037384Y-77677539D01*
X189664297Y-77926827D01*
X189415009Y-78299914D01*
X189327470Y-78740000D01*
X188651700Y-78740000D01*
X188651700Y-78041500D01*
X188619349Y-77878860D01*
X188619349Y-77878859D01*
X188527221Y-77740980D01*
X186986241Y-76200000D01*
X189327470Y-76200000D01*
X189415009Y-76640086D01*
X189664297Y-77013173D01*
X190037384Y-77262461D01*
X190477470Y-77350000D01*
X190522530Y-77350000D01*
X190962616Y-77262461D01*
X191335703Y-77013173D01*
X191584991Y-76640086D01*
X191672530Y-76200000D01*
X191584991Y-75759914D01*
X191335703Y-75386827D01*
X190962616Y-75137539D01*
X190522530Y-75050000D01*
X190477470Y-75050000D01*
X190037384Y-75137539D01*
X189664297Y-75386827D01*
X189415009Y-75759914D01*
X189327470Y-76200000D01*
X186986241Y-76200000D01*
X186503640Y-75717400D01*
X188561040Y-73660000D01*
X189327470Y-73660000D01*
X189415009Y-74100086D01*
X189664297Y-74473173D01*
X190037384Y-74722461D01*
X190477470Y-74810000D01*
X190522530Y-74810000D01*
X190962616Y-74722461D01*
X191335703Y-74473173D01*
X191584991Y-74100086D01*
X191672530Y-73660000D01*
X191584991Y-73219914D01*
X191335703Y-72846827D01*
X190962616Y-72597539D01*
X190522530Y-72510000D01*
X190477470Y-72510000D01*
X190037384Y-72597539D01*
X189664297Y-72846827D01*
X189415009Y-73219914D01*
X189327470Y-73660000D01*
X188561040Y-73660000D01*
X190038381Y-72182659D01*
X190477470Y-72270000D01*
X190522530Y-72270000D01*
X190962616Y-72182461D01*
X191335703Y-71933173D01*
X191584991Y-71560086D01*
X191672530Y-71120000D01*
X191584991Y-70679914D01*
X191335703Y-70306827D01*
X190962616Y-70057539D01*
X190864387Y-70038000D01*
X191470939Y-70038000D01*
X191694405Y-69945437D01*
X191865438Y-69774404D01*
X191958000Y-69550938D01*
X191958000Y-68886000D01*
X191806000Y-68734000D01*
X190654000Y-68734000D01*
X190654000Y-68754000D01*
X190346000Y-68754000D01*
X190346000Y-68734000D01*
X189194000Y-68734000D01*
X189042000Y-68886000D01*
X189042000Y-69550938D01*
X189134562Y-69774404D01*
X189305595Y-69945437D01*
X189529061Y-70038000D01*
X190135613Y-70038000D01*
X190037384Y-70057539D01*
X189664297Y-70306827D01*
X189415009Y-70679914D01*
X189327470Y-71120000D01*
X189415009Y-71560086D01*
X189432578Y-71586381D01*
X185902600Y-75116359D01*
X180259520Y-69473280D01*
X180121641Y-69381151D01*
X180094657Y-69375784D01*
X179959000Y-69348800D01*
X163186730Y-69348800D01*
X163103517Y-69265441D01*
X162883071Y-69173904D01*
X162644376Y-69173696D01*
X162423771Y-69264848D01*
X162254841Y-69433483D01*
X162163304Y-69653929D01*
X162163096Y-69892624D01*
X151107218Y-69892624D01*
X151225438Y-69774404D01*
X151318000Y-69550938D01*
X151318000Y-68886000D01*
X151166000Y-68734000D01*
X150014000Y-68734000D01*
X150014000Y-68754000D01*
X149706000Y-68754000D01*
X149706000Y-68734000D01*
X148554000Y-68734000D01*
X148402000Y-68886000D01*
X147695000Y-68886000D01*
X147695000Y-67609062D01*
X148402000Y-67609062D01*
X148402000Y-68274000D01*
X148554000Y-68426000D01*
X149706000Y-68426000D01*
X149706000Y-67274000D01*
X150014000Y-67274000D01*
X150014000Y-68426000D01*
X151166000Y-68426000D01*
X151318000Y-68274000D01*
X151318000Y-67609062D01*
X189042000Y-67609062D01*
X189042000Y-68274000D01*
X189194000Y-68426000D01*
X190346000Y-68426000D01*
X190346000Y-67274000D01*
X190654000Y-67274000D01*
X190654000Y-68426000D01*
X191806000Y-68426000D01*
X191958000Y-68274000D01*
X191958000Y-67609062D01*
X191865438Y-67385596D01*
X191694405Y-67214563D01*
X191470939Y-67122000D01*
X190806000Y-67122000D01*
X190654000Y-67274000D01*
X190346000Y-67274000D01*
X190194000Y-67122000D01*
X189529061Y-67122000D01*
X189305595Y-67214563D01*
X189134562Y-67385596D01*
X189042000Y-67609062D01*
X151318000Y-67609062D01*
X151225438Y-67385596D01*
X151054405Y-67214563D01*
X150830939Y-67122000D01*
X150166000Y-67122000D01*
X150014000Y-67274000D01*
X149706000Y-67274000D01*
X149554000Y-67122000D01*
X148889061Y-67122000D01*
X148665595Y-67214563D01*
X148494562Y-67385596D01*
X148402000Y-67609062D01*
X147695000Y-67609062D01*
X147695000Y-66775000D01*
X192665000Y-66775000D01*
X192665000Y-120613064D01*
X192665000Y-120613064D01*
G37*
X192665000Y-120613064D02*
X192590085Y-120989689D01*
X192397666Y-121277666D01*
X192109689Y-121470085D01*
X191733068Y-121545000D01*
X183482176Y-121545000D01*
X183529405Y-121525437D01*
X183700438Y-121354404D01*
X183793000Y-121130938D01*
X183793000Y-120666000D01*
X183641000Y-120514000D01*
X182564000Y-120514000D01*
X182564000Y-120534000D01*
X182256000Y-120534000D01*
X182256000Y-120514000D01*
X182236000Y-120514000D01*
X182236000Y-120206000D01*
X182256000Y-120206000D01*
X182256000Y-119254000D01*
X182564000Y-119254000D01*
X182564000Y-120206000D01*
X183641000Y-120206000D01*
X183793000Y-120054000D01*
X183793000Y-119589062D01*
X183700438Y-119365596D01*
X183529405Y-119194563D01*
X183305939Y-119102000D01*
X182716000Y-119102000D01*
X182564000Y-119254000D01*
X182256000Y-119254000D01*
X182104000Y-119102000D01*
X181514061Y-119102000D01*
X181290595Y-119194563D01*
X181119562Y-119365596D01*
X181027000Y-119589062D01*
X181027000Y-119768534D01*
X180912527Y-119745764D01*
X180882978Y-119745764D01*
X180854000Y-119740000D01*
X180766000Y-119740000D01*
X180737018Y-119745765D01*
X180707472Y-119745765D01*
X180561671Y-119774766D01*
X180523544Y-119790559D01*
X180453528Y-119819560D01*
X180329922Y-119902150D01*
X180329921Y-119902151D01*
X180329919Y-119902152D01*
X180247150Y-119984922D01*
X180164560Y-120108528D01*
X180159394Y-120121000D01*
X180119766Y-120216671D01*
X180090764Y-120362473D01*
X180090764Y-120392022D01*
X180085000Y-120421000D01*
X180085000Y-121545000D01*
X176785000Y-121545000D01*
X176785000Y-120421000D01*
X176779235Y-120392018D01*
X176779235Y-120362472D01*
X176750234Y-120216671D01*
X176710606Y-120121000D01*
X176705440Y-120108528D01*
X176622850Y-119984922D01*
X176622848Y-119984920D01*
X176622848Y-119984919D01*
X176540078Y-119902150D01*
X176416472Y-119819560D01*
X176346456Y-119790559D01*
X176308329Y-119774766D01*
X176162527Y-119745764D01*
X176132978Y-119745764D01*
X176104000Y-119740000D01*
X176016000Y-119740000D01*
X175987018Y-119745765D01*
X175957472Y-119745765D01*
X175843000Y-119768534D01*
X175843000Y-119589062D01*
X175750438Y-119365596D01*
X175579405Y-119194563D01*
X175355939Y-119102000D01*
X174766000Y-119102000D01*
X174614000Y-119254000D01*
X174614000Y-120206000D01*
X174634000Y-120206000D01*
X174634000Y-120514000D01*
X174614000Y-120514000D01*
X174614000Y-120534000D01*
X174306000Y-120534000D01*
X174306000Y-120514000D01*
X173229000Y-120514000D01*
X173077000Y-120666000D01*
X173077000Y-121130938D01*
X173169562Y-121354404D01*
X173340595Y-121525437D01*
X173387824Y-121545000D01*
X148626936Y-121545000D01*
X148250311Y-121470085D01*
X147962334Y-121277666D01*
X147769915Y-120989689D01*
X147695000Y-120613068D01*
X147695000Y-118110000D01*
X149535800Y-118110000D01*
X149709355Y-118982518D01*
X150203597Y-119722203D01*
X150943282Y-120216445D01*
X151815800Y-120390000D01*
X152688318Y-120216445D01*
X153428003Y-119722203D01*
X153516965Y-119589062D01*
X173077000Y-119589062D01*
X173077000Y-120054000D01*
X173229000Y-120206000D01*
X174306000Y-120206000D01*
X174306000Y-119254000D01*
X174154000Y-119102000D01*
X173564061Y-119102000D01*
X173340595Y-119194563D01*
X173169562Y-119365596D01*
X173077000Y-119589062D01*
X153516965Y-119589062D01*
X153922245Y-118982518D01*
X154095800Y-118110000D01*
X154083170Y-118046500D01*
X186403900Y-118046500D01*
X186577455Y-118919018D01*
X187071697Y-119658703D01*
X187811382Y-120152945D01*
X188683900Y-120326500D01*
X189556418Y-120152945D01*
X190296103Y-119658703D01*
X190790345Y-118919018D01*
X190963900Y-118046500D01*
X190790345Y-117173982D01*
X190296103Y-116434297D01*
X189556418Y-115940055D01*
X188683900Y-115766500D01*
X187811382Y-115940055D01*
X187071697Y-116434297D01*
X186577455Y-117173982D01*
X186403900Y-118046500D01*
X154083170Y-118046500D01*
X153922245Y-117237482D01*
X153428003Y-116497797D01*
X152688318Y-116003555D01*
X151815800Y-115830000D01*
X150943282Y-116003555D01*
X150203597Y-116497797D01*
X149709355Y-117237482D01*
X149535800Y-118110000D01*
X147695000Y-118110000D01*
X147695000Y-115210000D01*
X173379123Y-115210000D01*
X173379123Y-116510000D01*
X173400042Y-116621173D01*
X173465745Y-116723279D01*
X173565997Y-116791778D01*
X173685000Y-116815877D01*
X175235000Y-116815877D01*
X175346173Y-116794958D01*
X175448279Y-116729255D01*
X175516778Y-116629003D01*
X175540877Y-116510000D01*
X175540877Y-116285000D01*
X181329123Y-116285000D01*
X181329123Y-116510000D01*
X181350042Y-116621173D01*
X181415745Y-116723279D01*
X181515997Y-116791778D01*
X181635000Y-116815877D01*
X183185000Y-116815877D01*
X183296173Y-116794958D01*
X183398279Y-116729255D01*
X183466778Y-116629003D01*
X183490877Y-116510000D01*
X183490877Y-115210000D01*
X183469958Y-115098827D01*
X183404255Y-114996721D01*
X183304003Y-114928222D01*
X183185000Y-114904123D01*
X181635000Y-114904123D01*
X181523827Y-114925042D01*
X181421721Y-114990745D01*
X181353222Y-115090997D01*
X181329123Y-115210000D01*
X181329123Y-115435000D01*
X180765000Y-115435000D01*
X180765000Y-111760000D01*
X189327470Y-111760000D01*
X189415009Y-112200086D01*
X189664297Y-112573173D01*
X190037384Y-112822461D01*
X190477470Y-112910000D01*
X190522530Y-112910000D01*
X190962616Y-112822461D01*
X191335703Y-112573173D01*
X191584991Y-112200086D01*
X191672530Y-111760000D01*
X191584991Y-111319914D01*
X191335703Y-110946827D01*
X190962616Y-110697539D01*
X190522530Y-110610000D01*
X190477470Y-110610000D01*
X190037384Y-110697539D01*
X189664297Y-110946827D01*
X189415009Y-111319914D01*
X189327470Y-111760000D01*
X180765000Y-111760000D01*
X180765000Y-87418530D01*
X180848359Y-87335317D01*
X180939896Y-87114871D01*
X180940104Y-86876176D01*
X180848952Y-86655571D01*
X180680317Y-86486641D01*
X180459871Y-86395104D01*
X180221176Y-86394896D01*
X180000571Y-86486048D01*
X179831641Y-86654683D01*
X179740104Y-86875129D01*
X179739896Y-87113824D01*
X179831048Y-87334429D01*
X179915000Y-87418528D01*
X179915000Y-115435000D01*
X175540877Y-115435000D01*
X175540877Y-115210000D01*
X175519958Y-115098827D01*
X175454255Y-114996721D01*
X175354003Y-114928222D01*
X175235000Y-114904123D01*
X173685000Y-114904123D01*
X173573827Y-114925042D01*
X173471721Y-114990745D01*
X173403222Y-115090997D01*
X173379123Y-115210000D01*
X147695000Y-115210000D01*
X147695000Y-109598910D01*
X148452097Y-109598910D01*
X148596523Y-109947616D01*
X148971146Y-110375741D01*
X149481089Y-110627915D01*
X149705998Y-110517857D01*
X149705998Y-110636152D01*
X149397384Y-110697539D01*
X149024297Y-110946827D01*
X148775009Y-111319914D01*
X148687470Y-111760000D01*
X148775009Y-112200086D01*
X149024297Y-112573173D01*
X149397384Y-112822461D01*
X149837470Y-112910000D01*
X149882530Y-112910000D01*
X150322616Y-112822461D01*
X150695703Y-112573173D01*
X150944991Y-112200086D01*
X150947992Y-112185000D01*
X159385000Y-112185000D01*
X159520657Y-112158016D01*
X159547641Y-112152649D01*
X159685520Y-112060520D01*
X164641040Y-107105000D01*
X173813960Y-107105000D01*
X174659999Y-107951039D01*
X174659896Y-108068824D01*
X174751048Y-108289429D01*
X174919683Y-108458359D01*
X175140129Y-108549896D01*
X175378824Y-108550104D01*
X175599429Y-108458952D01*
X175768359Y-108290317D01*
X175859896Y-108069871D01*
X175860104Y-107831176D01*
X175768952Y-107610571D01*
X175600317Y-107441641D01*
X175379871Y-107350104D01*
X175261041Y-107350000D01*
X174290520Y-106379480D01*
X174152641Y-106287351D01*
X174125657Y-106281984D01*
X173990000Y-106255000D01*
X164890000Y-106255000D01*
X164890000Y-105198530D01*
X164973359Y-105115317D01*
X165064896Y-104894871D01*
X165065104Y-104656176D01*
X164973952Y-104435571D01*
X164805317Y-104266641D01*
X164584871Y-104175104D01*
X164346176Y-104174896D01*
X164125571Y-104266048D01*
X163956641Y-104434683D01*
X163865104Y-104655129D01*
X163864896Y-104893824D01*
X163956048Y-105114429D01*
X164040000Y-105198528D01*
X164040000Y-106503960D01*
X159208960Y-111335000D01*
X150947992Y-111335000D01*
X150944991Y-111319914D01*
X150695703Y-110946827D01*
X150322616Y-110697539D01*
X150014002Y-110636152D01*
X150014002Y-110517857D01*
X150238911Y-110627915D01*
X150748854Y-110375741D01*
X151123477Y-109947616D01*
X151267903Y-109598910D01*
X151156889Y-109374000D01*
X150014000Y-109374000D01*
X150014000Y-109394000D01*
X149706000Y-109394000D01*
X149706000Y-109374000D01*
X148563111Y-109374000D01*
X148452097Y-109598910D01*
X147695000Y-109598910D01*
X147695000Y-107058910D01*
X148452097Y-107058910D01*
X148596523Y-107407616D01*
X148971146Y-107835741D01*
X149202199Y-107950000D01*
X148971146Y-108064259D01*
X148596523Y-108492384D01*
X148452097Y-108841090D01*
X148563111Y-109066000D01*
X149706000Y-109066000D01*
X149706000Y-106834000D01*
X150014000Y-106834000D01*
X150014000Y-109066000D01*
X151156889Y-109066000D01*
X151267903Y-108841090D01*
X151123477Y-108492384D01*
X150748854Y-108064259D01*
X150517801Y-107950000D01*
X150748854Y-107835741D01*
X151123477Y-107407616D01*
X151267903Y-107058910D01*
X151156889Y-106834000D01*
X150014000Y-106834000D01*
X149706000Y-106834000D01*
X148563111Y-106834000D01*
X148452097Y-107058910D01*
X147695000Y-107058910D01*
X147695000Y-106301090D01*
X148452097Y-106301090D01*
X148563111Y-106526000D01*
X149706000Y-106526000D01*
X149706000Y-106506000D01*
X150014000Y-106506000D01*
X150014000Y-106526000D01*
X151156889Y-106526000D01*
X151267903Y-106301090D01*
X151123477Y-105952384D01*
X150748854Y-105524259D01*
X150238911Y-105272085D01*
X150014002Y-105382143D01*
X150014002Y-105263848D01*
X150322616Y-105202461D01*
X150695703Y-104953173D01*
X150944991Y-104580086D01*
X151032530Y-104140000D01*
X150944991Y-103699914D01*
X150695703Y-103326827D01*
X150322616Y-103077539D01*
X149882530Y-102990000D01*
X149837470Y-102990000D01*
X149397384Y-103077539D01*
X149024297Y-103326827D01*
X148775009Y-103699914D01*
X148687470Y-104140000D01*
X148775009Y-104580086D01*
X149024297Y-104953173D01*
X149397384Y-105202461D01*
X149705998Y-105263848D01*
X149705998Y-105382143D01*
X149481089Y-105272085D01*
X148971146Y-105524259D01*
X148596523Y-105952384D01*
X148452097Y-106301090D01*
X147695000Y-106301090D01*
X147695000Y-101600000D01*
X148687470Y-101600000D01*
X148775009Y-102040086D01*
X149024297Y-102413173D01*
X149397384Y-102662461D01*
X149837470Y-102750000D01*
X149882530Y-102750000D01*
X150322616Y-102662461D01*
X150695703Y-102413173D01*
X150944991Y-102040086D01*
X151032530Y-101600000D01*
X150944991Y-101159914D01*
X150894150Y-101083824D01*
X160689896Y-101083824D01*
X160781048Y-101304429D01*
X160865000Y-101388528D01*
X160865000Y-103081470D01*
X160781641Y-103164683D01*
X160690104Y-103385129D01*
X160689896Y-103623824D01*
X160781048Y-103844429D01*
X160949683Y-104013359D01*
X161170129Y-104104896D01*
X161408824Y-104105104D01*
X161629429Y-104013952D01*
X161798359Y-103845317D01*
X161889896Y-103624871D01*
X161890104Y-103386176D01*
X161798952Y-103165571D01*
X161715000Y-103081472D01*
X161715000Y-101388530D01*
X161798359Y-101305317D01*
X161889896Y-101084871D01*
X161890104Y-100846176D01*
X161798952Y-100625571D01*
X161630317Y-100456641D01*
X161409871Y-100365104D01*
X161171176Y-100364896D01*
X160950571Y-100456048D01*
X160781641Y-100624683D01*
X160690104Y-100845129D01*
X160689896Y-101083824D01*
X150894150Y-101083824D01*
X150695703Y-100786827D01*
X150322616Y-100537539D01*
X149882530Y-100450000D01*
X149837470Y-100450000D01*
X149397384Y-100537539D01*
X149024297Y-100786827D01*
X148775009Y-101159914D01*
X148687470Y-101600000D01*
X147695000Y-101600000D01*
X147695000Y-99060000D01*
X148687470Y-99060000D01*
X148775009Y-99500086D01*
X149024297Y-99873173D01*
X149397384Y-100122461D01*
X149837470Y-100210000D01*
X149882530Y-100210000D01*
X150322616Y-100122461D01*
X150695703Y-99873173D01*
X150944991Y-99500086D01*
X151032530Y-99060000D01*
X150944991Y-98619914D01*
X150695703Y-98246827D01*
X150322616Y-97997539D01*
X149882530Y-97910000D01*
X149837470Y-97910000D01*
X149397384Y-97997539D01*
X149024297Y-98246827D01*
X148775009Y-98619914D01*
X148687470Y-99060000D01*
X147695000Y-99060000D01*
X147695000Y-96520000D01*
X148687470Y-96520000D01*
X148775009Y-96960086D01*
X149024297Y-97333173D01*
X149397384Y-97582461D01*
X149837470Y-97670000D01*
X149882530Y-97670000D01*
X150322616Y-97582461D01*
X150695703Y-97333173D01*
X150735358Y-97273824D01*
X163229896Y-97273824D01*
X163321048Y-97494429D01*
X163405000Y-97578528D01*
X163405000Y-100541470D01*
X163321641Y-100624683D01*
X163230104Y-100845129D01*
X163229896Y-101083824D01*
X163321048Y-101304429D01*
X163489683Y-101473359D01*
X163710129Y-101564896D01*
X163948824Y-101565104D01*
X164169429Y-101473952D01*
X164338359Y-101305317D01*
X164429896Y-101084871D01*
X164430104Y-100846176D01*
X164338952Y-100625571D01*
X164255000Y-100541472D01*
X164255000Y-97578530D01*
X164338359Y-97495317D01*
X164429896Y-97274871D01*
X164430104Y-97036176D01*
X164338952Y-96815571D01*
X164170317Y-96646641D01*
X163949871Y-96555104D01*
X163711176Y-96554896D01*
X163490571Y-96646048D01*
X163321641Y-96814683D01*
X163230104Y-97035129D01*
X163229896Y-97273824D01*
X150735358Y-97273824D01*
X150944991Y-96960086D01*
X151032530Y-96520000D01*
X150944991Y-96079914D01*
X150695703Y-95706827D01*
X150322616Y-95457539D01*
X149882530Y-95370000D01*
X149837470Y-95370000D01*
X149397384Y-95457539D01*
X149024297Y-95706827D01*
X148775009Y-96079914D01*
X148687470Y-96520000D01*
X147695000Y-96520000D01*
X147695000Y-93980000D01*
X148687470Y-93980000D01*
X148775009Y-94420086D01*
X149024297Y-94793173D01*
X149397384Y-95042461D01*
X149837470Y-95130000D01*
X149882530Y-95130000D01*
X150322616Y-95042461D01*
X150695703Y-94793173D01*
X150944991Y-94420086D01*
X151008894Y-94098824D01*
X165134896Y-94098824D01*
X165226048Y-94319429D01*
X165310000Y-94403528D01*
X165310000Y-98636470D01*
X165226641Y-98719683D01*
X165135104Y-98940129D01*
X165134896Y-99178824D01*
X165226048Y-99399429D01*
X165394683Y-99568359D01*
X165615129Y-99659896D01*
X165853824Y-99660104D01*
X166074429Y-99568952D01*
X166243359Y-99400317D01*
X166334896Y-99179871D01*
X166335104Y-98941176D01*
X166243952Y-98720571D01*
X166160000Y-98636472D01*
X166160000Y-94403530D01*
X166243359Y-94320317D01*
X166334896Y-94099871D01*
X166335104Y-93861176D01*
X166243952Y-93640571D01*
X166075317Y-93471641D01*
X165854871Y-93380104D01*
X165616176Y-93379896D01*
X165395571Y-93471048D01*
X165226641Y-93639683D01*
X165135104Y-93860129D01*
X165134896Y-94098824D01*
X151008894Y-94098824D01*
X151032530Y-93980000D01*
X150944991Y-93539914D01*
X150695703Y-93166827D01*
X150322616Y-92917539D01*
X149882530Y-92830000D01*
X149837470Y-92830000D01*
X149397384Y-92917539D01*
X149024297Y-93166827D01*
X148775009Y-93539914D01*
X148687470Y-93980000D01*
X147695000Y-93980000D01*
X147695000Y-91440000D01*
X148687470Y-91440000D01*
X148775009Y-91880086D01*
X149024297Y-92253173D01*
X149397384Y-92502461D01*
X149837470Y-92590000D01*
X149882530Y-92590000D01*
X150322616Y-92502461D01*
X150695703Y-92253173D01*
X150944991Y-91880086D01*
X151032530Y-91440000D01*
X150944991Y-90999914D01*
X150695703Y-90626827D01*
X150322616Y-90377539D01*
X149882530Y-90290000D01*
X149837470Y-90290000D01*
X149397384Y-90377539D01*
X149024297Y-90626827D01*
X148775009Y-90999914D01*
X148687470Y-91440000D01*
X147695000Y-91440000D01*
X147695000Y-90288824D01*
X166404896Y-90288824D01*
X166496048Y-90509429D01*
X166664683Y-90678359D01*
X166885129Y-90769896D01*
X167003959Y-90770000D01*
X167074019Y-90840060D01*
X166886176Y-90839896D01*
X166665571Y-90931048D01*
X166496641Y-91099683D01*
X166405104Y-91320129D01*
X166404896Y-91558824D01*
X166496048Y-91779429D01*
X166580000Y-91863528D01*
X166580000Y-98001470D01*
X166496641Y-98084683D01*
X166405104Y-98305129D01*
X166404896Y-98543824D01*
X166496048Y-98764429D01*
X166664683Y-98933359D01*
X166885129Y-99024896D01*
X167123824Y-99025104D01*
X167344429Y-98933952D01*
X167513359Y-98765317D01*
X167604896Y-98544871D01*
X167605104Y-98306176D01*
X167513952Y-98085571D01*
X167430000Y-98001472D01*
X167430000Y-91863530D01*
X167513359Y-91780317D01*
X167604896Y-91559871D01*
X167605060Y-91371101D01*
X167850000Y-91616041D01*
X167850000Y-96096470D01*
X167766641Y-96179683D01*
X167675104Y-96400129D01*
X167674896Y-96638824D01*
X167766048Y-96859429D01*
X167934683Y-97028359D01*
X168155129Y-97119896D01*
X168393824Y-97120104D01*
X168614429Y-97028952D01*
X168783359Y-96860317D01*
X168874896Y-96639871D01*
X168875104Y-96401176D01*
X168783952Y-96180571D01*
X168700000Y-96096472D01*
X168700000Y-91440000D01*
X168667649Y-91277360D01*
X168637078Y-91231608D01*
X168575520Y-91139479D01*
X167605001Y-90168961D01*
X167605104Y-90051176D01*
X167513952Y-89830571D01*
X167345317Y-89661641D01*
X167124871Y-89570104D01*
X166886176Y-89569896D01*
X166665571Y-89661048D01*
X166496641Y-89829683D01*
X166405104Y-90050129D01*
X166404896Y-90288824D01*
X147695000Y-90288824D01*
X147695000Y-88900000D01*
X148687470Y-88900000D01*
X148775009Y-89340086D01*
X149024297Y-89713173D01*
X149397384Y-89962461D01*
X149837470Y-90050000D01*
X149882530Y-90050000D01*
X150322616Y-89962461D01*
X150695703Y-89713173D01*
X150944991Y-89340086D01*
X151032530Y-88900000D01*
X150944991Y-88459914D01*
X150695703Y-88086827D01*
X150322616Y-87837539D01*
X149882530Y-87750000D01*
X149837470Y-87750000D01*
X149397384Y-87837539D01*
X149024297Y-88086827D01*
X148775009Y-88459914D01*
X148687470Y-88900000D01*
X147695000Y-88900000D01*
X147695000Y-86360000D01*
X148687470Y-86360000D01*
X148775009Y-86800086D01*
X149024297Y-87173173D01*
X149397384Y-87422461D01*
X149837470Y-87510000D01*
X149882530Y-87510000D01*
X150322616Y-87422461D01*
X150695703Y-87173173D01*
X150944991Y-86800086D01*
X151032530Y-86360000D01*
X150944991Y-85919914D01*
X150695703Y-85546827D01*
X150322616Y-85297539D01*
X149882530Y-85210000D01*
X149837470Y-85210000D01*
X149397384Y-85297539D01*
X149024297Y-85546827D01*
X148775009Y-85919914D01*
X148687470Y-86360000D01*
X147695000Y-86360000D01*
X147695000Y-83820000D01*
X148687470Y-83820000D01*
X148775009Y-84260086D01*
X149024297Y-84633173D01*
X149397384Y-84882461D01*
X149837470Y-84970000D01*
X149882530Y-84970000D01*
X150322616Y-84882461D01*
X150695703Y-84633173D01*
X150944991Y-84260086D01*
X151032530Y-83820000D01*
X150944991Y-83379914D01*
X150695703Y-83006827D01*
X150322616Y-82757539D01*
X149882530Y-82670000D01*
X149837470Y-82670000D01*
X149397384Y-82757539D01*
X149024297Y-83006827D01*
X148775009Y-83379914D01*
X148687470Y-83820000D01*
X147695000Y-83820000D01*
X147695000Y-81280000D01*
X148687470Y-81280000D01*
X148775009Y-81720086D01*
X149024297Y-82093173D01*
X149397384Y-82342461D01*
X149837470Y-82430000D01*
X149882530Y-82430000D01*
X150322616Y-82342461D01*
X150695703Y-82093173D01*
X150944991Y-81720086D01*
X151032530Y-81280000D01*
X150944991Y-80839914D01*
X150695703Y-80466827D01*
X150322616Y-80217539D01*
X149882530Y-80130000D01*
X149837470Y-80130000D01*
X149397384Y-80217539D01*
X149024297Y-80466827D01*
X148775009Y-80839914D01*
X148687470Y-81280000D01*
X147695000Y-81280000D01*
X147695000Y-78740000D01*
X148687470Y-78740000D01*
X148775009Y-79180086D01*
X149024297Y-79553173D01*
X149397384Y-79802461D01*
X149837470Y-79890000D01*
X149882530Y-79890000D01*
X150322616Y-79802461D01*
X150695703Y-79553173D01*
X150944991Y-79180086D01*
X151032530Y-78740000D01*
X150944991Y-78299914D01*
X150695703Y-77926827D01*
X150322616Y-77677539D01*
X149882530Y-77590000D01*
X149837470Y-77590000D01*
X149397384Y-77677539D01*
X149024297Y-77926827D01*
X148775009Y-78299914D01*
X148687470Y-78740000D01*
X147695000Y-78740000D01*
X147695000Y-76200000D01*
X148687470Y-76200000D01*
X148775009Y-76640086D01*
X149024297Y-77013173D01*
X149397384Y-77262461D01*
X149837470Y-77350000D01*
X149882530Y-77350000D01*
X150322616Y-77262461D01*
X150695703Y-77013173D01*
X150944991Y-76640086D01*
X151032530Y-76200000D01*
X150944991Y-75759914D01*
X150695703Y-75386827D01*
X150322616Y-75137539D01*
X149882530Y-75050000D01*
X149837470Y-75050000D01*
X149397384Y-75137539D01*
X149024297Y-75386827D01*
X148775009Y-75759914D01*
X148687470Y-76200000D01*
X147695000Y-76200000D01*
X147695000Y-73660000D01*
X148687470Y-73660000D01*
X148775009Y-74100086D01*
X149024297Y-74473173D01*
X149397384Y-74722461D01*
X149837470Y-74810000D01*
X149882530Y-74810000D01*
X150322616Y-74722461D01*
X150695703Y-74473173D01*
X150944991Y-74100086D01*
X151032530Y-73660000D01*
X150944991Y-73219914D01*
X150695703Y-72846827D01*
X150322616Y-72597539D01*
X149882530Y-72510000D01*
X149837470Y-72510000D01*
X149397384Y-72597539D01*
X149024297Y-72846827D01*
X148775009Y-73219914D01*
X148687470Y-73660000D01*
X147695000Y-73660000D01*
X147695000Y-68886000D01*
X148402000Y-68886000D01*
X148402000Y-69550938D01*
X148494562Y-69774404D01*
X148665595Y-69945437D01*
X148889061Y-70038000D01*
X149495613Y-70038000D01*
X149397384Y-70057539D01*
X149024297Y-70306827D01*
X148775009Y-70679914D01*
X148687470Y-71120000D01*
X148775009Y-71560086D01*
X149024297Y-71933173D01*
X149397384Y-72182461D01*
X149837470Y-72270000D01*
X149882530Y-72270000D01*
X150322616Y-72182461D01*
X150695703Y-71933173D01*
X150944991Y-71560086D01*
X151032530Y-71120000D01*
X151005642Y-70984824D01*
X160486696Y-70984824D01*
X160577848Y-71205429D01*
X160746483Y-71374359D01*
X160966929Y-71465896D01*
X161085760Y-71466000D01*
X169831200Y-80211440D01*
X169831200Y-98882200D01*
X169858184Y-99017857D01*
X169863551Y-99044841D01*
X169955680Y-99182720D01*
X176183999Y-105411040D01*
X176183896Y-105528824D01*
X176275048Y-105749429D01*
X176443683Y-105918359D01*
X176664129Y-106009896D01*
X176902824Y-106010104D01*
X177123429Y-105918952D01*
X177292359Y-105750317D01*
X177383896Y-105529871D01*
X177384104Y-105291176D01*
X177292952Y-105070571D01*
X177124317Y-104901641D01*
X176903871Y-104810104D01*
X176785041Y-104810000D01*
X170681200Y-98706160D01*
X170681200Y-94581424D01*
X170697496Y-94581424D01*
X170788648Y-94802029D01*
X170957283Y-94970959D01*
X171177729Y-95062496D01*
X171416424Y-95062704D01*
X171637029Y-94971552D01*
X171805959Y-94802917D01*
X171897496Y-94582471D01*
X171897600Y-94463641D01*
X172706917Y-93654324D01*
X173173996Y-93654324D01*
X173265148Y-93874929D01*
X173433783Y-94043859D01*
X173654229Y-94135396D01*
X173892924Y-94135604D01*
X174113529Y-94044452D01*
X174282459Y-93875817D01*
X174373996Y-93655371D01*
X174374100Y-93536541D01*
X174455620Y-93455021D01*
X174547748Y-93317141D01*
X174547749Y-93317140D01*
X174580100Y-93154500D01*
X174580100Y-74096230D01*
X174663459Y-74013017D01*
X174754996Y-73792571D01*
X174755204Y-73553876D01*
X174664052Y-73333271D01*
X174495417Y-73164341D01*
X174274971Y-73072804D01*
X174036276Y-73072596D01*
X173815671Y-73163748D01*
X173646741Y-73332383D01*
X173555204Y-73552829D01*
X173554996Y-73791524D01*
X173646148Y-74012129D01*
X173730100Y-74096228D01*
X173730100Y-92935461D01*
X173655276Y-92935396D01*
X173434671Y-93026548D01*
X173265741Y-93195183D01*
X173174204Y-93415629D01*
X173173996Y-93654324D01*
X172706917Y-93654324D01*
X173223721Y-93137520D01*
X173315849Y-92999641D01*
X173348200Y-92837000D01*
X173348200Y-72864330D01*
X173431559Y-72781117D01*
X173523096Y-72560671D01*
X173523304Y-72321976D01*
X173432152Y-72101371D01*
X173263517Y-71932441D01*
X173043071Y-71840904D01*
X172804376Y-71840696D01*
X172583771Y-71931848D01*
X172414841Y-72100483D01*
X172323304Y-72320929D01*
X172323096Y-72559624D01*
X172414248Y-72780229D01*
X172498200Y-72864328D01*
X172498200Y-92660959D01*
X171296561Y-93862599D01*
X171178776Y-93862496D01*
X170958171Y-93953648D01*
X170789241Y-94122283D01*
X170697704Y-94342729D01*
X170697496Y-94581424D01*
X170681200Y-94581424D01*
X170681200Y-80035400D01*
X170648849Y-79872760D01*
X170648849Y-79872759D01*
X170556720Y-79734880D01*
X161686801Y-70864961D01*
X161686904Y-70747176D01*
X161595752Y-70526571D01*
X161427117Y-70357641D01*
X161206671Y-70266104D01*
X160967976Y-70265896D01*
X160747371Y-70357048D01*
X160578441Y-70525683D01*
X160486904Y-70746129D01*
X160486696Y-70984824D01*
X151005642Y-70984824D01*
X150944991Y-70679914D01*
X150695703Y-70306827D01*
X150322616Y-70057539D01*
X150224387Y-70038000D01*
X150830939Y-70038000D01*
X151054405Y-69945437D01*
X151107218Y-69892624D01*
X162163096Y-69892624D01*
X162254248Y-70113229D01*
X162422883Y-70282159D01*
X162643329Y-70373696D01*
X162882024Y-70373904D01*
X163102629Y-70282752D01*
X163186728Y-70198800D01*
X179782960Y-70198800D01*
X185525880Y-75941721D01*
X185525883Y-75941723D01*
X187801700Y-78217541D01*
X187801700Y-105181400D01*
X187823536Y-105291176D01*
X187834051Y-105344041D01*
X187926180Y-105481920D01*
X189377928Y-106933669D01*
X189415009Y-107120086D01*
X189664297Y-107493173D01*
X190037384Y-107742461D01*
X190075000Y-107749943D01*
X190075000Y-108150057D01*
X190037384Y-108157539D01*
X189664297Y-108406827D01*
X189415009Y-108779914D01*
X189327470Y-109220000D01*
X189415009Y-109660086D01*
X189432579Y-109686381D01*
X189155560Y-109963400D01*
X184345019Y-109963400D01*
X184312517Y-109930841D01*
X184092071Y-109839304D01*
X183853376Y-109839096D01*
X183632771Y-109930248D01*
X183463841Y-110098883D01*
X183372304Y-110319329D01*
X183372096Y-110558024D01*
X183463248Y-110778629D01*
X183631883Y-110947559D01*
X183852329Y-111039096D01*
X184091024Y-111039304D01*
X184311629Y-110948152D01*
X184446617Y-110813400D01*
X189331600Y-110813400D01*
X189467257Y-110786416D01*
X189494241Y-110781049D01*
X189632120Y-110688920D01*
X190038381Y-110282659D01*
X190477470Y-110370000D01*
X190522530Y-110370000D01*
X190962616Y-110282461D01*
X191335703Y-110033173D01*
X191584991Y-109660086D01*
X191672530Y-109220000D01*
X191584991Y-108779914D01*
X191335703Y-108406827D01*
X190962616Y-108157539D01*
X190925000Y-108150057D01*
X190925000Y-107749943D01*
X190962616Y-107742461D01*
X191335703Y-107493173D01*
X191584991Y-107120086D01*
X191672530Y-106680000D01*
X191584991Y-106239914D01*
X191335703Y-105866827D01*
X190962616Y-105617539D01*
X190654002Y-105556152D01*
X190654002Y-105437857D01*
X190878911Y-105547915D01*
X191388854Y-105295741D01*
X191763477Y-104867616D01*
X191907903Y-104518910D01*
X191796889Y-104294000D01*
X190654000Y-104294000D01*
X190654000Y-104314000D01*
X190346000Y-104314000D01*
X190346000Y-104294000D01*
X189203111Y-104294000D01*
X189092097Y-104518910D01*
X189236523Y-104867616D01*
X189611146Y-105295741D01*
X190121089Y-105547915D01*
X190345998Y-105437857D01*
X190345998Y-105556152D01*
X190037384Y-105617539D01*
X189664297Y-105866827D01*
X189603763Y-105957422D01*
X188651700Y-105005360D01*
X188651700Y-101978910D01*
X189092097Y-101978910D01*
X189236523Y-102327616D01*
X189611146Y-102755741D01*
X189842199Y-102870000D01*
X189611146Y-102984259D01*
X189236523Y-103412384D01*
X189092097Y-103761090D01*
X189203111Y-103986000D01*
X190346000Y-103986000D01*
X190346000Y-101754000D01*
X190654000Y-101754000D01*
X190654000Y-103986000D01*
X191796889Y-103986000D01*
X191907903Y-103761090D01*
X191763477Y-103412384D01*
X191388854Y-102984259D01*
X191157801Y-102870000D01*
X191388854Y-102755741D01*
X191763477Y-102327616D01*
X191907903Y-101978910D01*
X191796889Y-101754000D01*
X190654000Y-101754000D01*
X190346000Y-101754000D01*
X189203111Y-101754000D01*
X189092097Y-101978910D01*
X188651700Y-101978910D01*
X188651700Y-101221090D01*
X189092097Y-101221090D01*
X189203111Y-101446000D01*
X190346000Y-101446000D01*
X190346000Y-101426000D01*
X190654000Y-101426000D01*
X190654000Y-101446000D01*
X191796889Y-101446000D01*
X191907903Y-101221090D01*
X191763477Y-100872384D01*
X191388854Y-100444259D01*
X190878911Y-100192085D01*
X190654002Y-100302143D01*
X190654002Y-100183848D01*
X190962616Y-100122461D01*
X191335703Y-99873173D01*
X191584991Y-99500086D01*
X191672530Y-99060000D01*
X191584991Y-98619914D01*
X191335703Y-98246827D01*
X190962616Y-97997539D01*
X190522530Y-97910000D01*
X190477470Y-97910000D01*
X190037384Y-97997539D01*
X189664297Y-98246827D01*
X189415009Y-98619914D01*
X189327470Y-99060000D01*
X189415009Y-99500086D01*
X189664297Y-99873173D01*
X190037384Y-100122461D01*
X190345998Y-100183848D01*
X190345998Y-100302143D01*
X190121089Y-100192085D01*
X189611146Y-100444259D01*
X189236523Y-100872384D01*
X189092097Y-101221090D01*
X188651700Y-101221090D01*
X188651700Y-96520000D01*
X189327470Y-96520000D01*
X189415009Y-96960086D01*
X189664297Y-97333173D01*
X190037384Y-97582461D01*
X190477470Y-97670000D01*
X190522530Y-97670000D01*
X190962616Y-97582461D01*
X191335703Y-97333173D01*
X191584991Y-96960086D01*
X191672530Y-96520000D01*
X191584991Y-96079914D01*
X191335703Y-95706827D01*
X190962616Y-95457539D01*
X190522530Y-95370000D01*
X190477470Y-95370000D01*
X190037384Y-95457539D01*
X189664297Y-95706827D01*
X189415009Y-96079914D01*
X189327470Y-96520000D01*
X188651700Y-96520000D01*
X188651700Y-93980000D01*
X189327470Y-93980000D01*
X189415009Y-94420086D01*
X189664297Y-94793173D01*
X190037384Y-95042461D01*
X190477470Y-95130000D01*
X190522530Y-95130000D01*
X190962616Y-95042461D01*
X191335703Y-94793173D01*
X191584991Y-94420086D01*
X191672530Y-93980000D01*
X191584991Y-93539914D01*
X191335703Y-93166827D01*
X190962616Y-92917539D01*
X190522530Y-92830000D01*
X190477470Y-92830000D01*
X190037384Y-92917539D01*
X189664297Y-93166827D01*
X189415009Y-93539914D01*
X189327470Y-93980000D01*
X188651700Y-93980000D01*
X188651700Y-91440000D01*
X189327470Y-91440000D01*
X189415009Y-91880086D01*
X189664297Y-92253173D01*
X190037384Y-92502461D01*
X190477470Y-92590000D01*
X190522530Y-92590000D01*
X190962616Y-92502461D01*
X191335703Y-92253173D01*
X191584991Y-91880086D01*
X191672530Y-91440000D01*
X191584991Y-90999914D01*
X191335703Y-90626827D01*
X190962616Y-90377539D01*
X190522530Y-90290000D01*
X190477470Y-90290000D01*
X190037384Y-90377539D01*
X189664297Y-90626827D01*
X189415009Y-90999914D01*
X189327470Y-91440000D01*
X188651700Y-91440000D01*
X188651700Y-88900000D01*
X189327470Y-88900000D01*
X189415009Y-89340086D01*
X189664297Y-89713173D01*
X190037384Y-89962461D01*
X190477470Y-90050000D01*
X190522530Y-90050000D01*
X190962616Y-89962461D01*
X191335703Y-89713173D01*
X191584991Y-89340086D01*
X191672530Y-88900000D01*
X191584991Y-88459914D01*
X191335703Y-88086827D01*
X190962616Y-87837539D01*
X190522530Y-87750000D01*
X190477470Y-87750000D01*
X190037384Y-87837539D01*
X189664297Y-88086827D01*
X189415009Y-88459914D01*
X189327470Y-88900000D01*
X188651700Y-88900000D01*
X188651700Y-86360000D01*
X189327470Y-86360000D01*
X189415009Y-86800086D01*
X189664297Y-87173173D01*
X190037384Y-87422461D01*
X190477470Y-87510000D01*
X190522530Y-87510000D01*
X190962616Y-87422461D01*
X191335703Y-87173173D01*
X191584991Y-86800086D01*
X191672530Y-86360000D01*
X191584991Y-85919914D01*
X191335703Y-85546827D01*
X190962616Y-85297539D01*
X190522530Y-85210000D01*
X190477470Y-85210000D01*
X190037384Y-85297539D01*
X189664297Y-85546827D01*
X189415009Y-85919914D01*
X189327470Y-86360000D01*
X188651700Y-86360000D01*
X188651700Y-83820000D01*
X189327470Y-83820000D01*
X189415009Y-84260086D01*
X189664297Y-84633173D01*
X190037384Y-84882461D01*
X190477470Y-84970000D01*
X190522530Y-84970000D01*
X190962616Y-84882461D01*
X191335703Y-84633173D01*
X191584991Y-84260086D01*
X191672530Y-83820000D01*
X191584991Y-83379914D01*
X191335703Y-83006827D01*
X190962616Y-82757539D01*
X190522530Y-82670000D01*
X190477470Y-82670000D01*
X190037384Y-82757539D01*
X189664297Y-83006827D01*
X189415009Y-83379914D01*
X189327470Y-83820000D01*
X188651700Y-83820000D01*
X188651700Y-81280000D01*
X189327470Y-81280000D01*
X189415009Y-81720086D01*
X189664297Y-82093173D01*
X190037384Y-82342461D01*
X190477470Y-82430000D01*
X190522530Y-82430000D01*
X190962616Y-82342461D01*
X191335703Y-82093173D01*
X191584991Y-81720086D01*
X191672530Y-81280000D01*
X191584991Y-80839914D01*
X191335703Y-80466827D01*
X190962616Y-80217539D01*
X190522530Y-80130000D01*
X190477470Y-80130000D01*
X190037384Y-80217539D01*
X189664297Y-80466827D01*
X189415009Y-80839914D01*
X189327470Y-81280000D01*
X188651700Y-81280000D01*
X188651700Y-78740000D01*
X189327470Y-78740000D01*
X189415009Y-79180086D01*
X189664297Y-79553173D01*
X190037384Y-79802461D01*
X190477470Y-79890000D01*
X190522530Y-79890000D01*
X190962616Y-79802461D01*
X191335703Y-79553173D01*
X191584991Y-79180086D01*
X191672530Y-78740000D01*
X191584991Y-78299914D01*
X191335703Y-77926827D01*
X190962616Y-77677539D01*
X190522530Y-77590000D01*
X190477470Y-77590000D01*
X190037384Y-77677539D01*
X189664297Y-77926827D01*
X189415009Y-78299914D01*
X189327470Y-78740000D01*
X188651700Y-78740000D01*
X188651700Y-78041500D01*
X188619349Y-77878860D01*
X188619349Y-77878859D01*
X188527221Y-77740980D01*
X186986241Y-76200000D01*
X189327470Y-76200000D01*
X189415009Y-76640086D01*
X189664297Y-77013173D01*
X190037384Y-77262461D01*
X190477470Y-77350000D01*
X190522530Y-77350000D01*
X190962616Y-77262461D01*
X191335703Y-77013173D01*
X191584991Y-76640086D01*
X191672530Y-76200000D01*
X191584991Y-75759914D01*
X191335703Y-75386827D01*
X190962616Y-75137539D01*
X190522530Y-75050000D01*
X190477470Y-75050000D01*
X190037384Y-75137539D01*
X189664297Y-75386827D01*
X189415009Y-75759914D01*
X189327470Y-76200000D01*
X186986241Y-76200000D01*
X186503640Y-75717400D01*
X188561040Y-73660000D01*
X189327470Y-73660000D01*
X189415009Y-74100086D01*
X189664297Y-74473173D01*
X190037384Y-74722461D01*
X190477470Y-74810000D01*
X190522530Y-74810000D01*
X190962616Y-74722461D01*
X191335703Y-74473173D01*
X191584991Y-74100086D01*
X191672530Y-73660000D01*
X191584991Y-73219914D01*
X191335703Y-72846827D01*
X190962616Y-72597539D01*
X190522530Y-72510000D01*
X190477470Y-72510000D01*
X190037384Y-72597539D01*
X189664297Y-72846827D01*
X189415009Y-73219914D01*
X189327470Y-73660000D01*
X188561040Y-73660000D01*
X190038381Y-72182659D01*
X190477470Y-72270000D01*
X190522530Y-72270000D01*
X190962616Y-72182461D01*
X191335703Y-71933173D01*
X191584991Y-71560086D01*
X191672530Y-71120000D01*
X191584991Y-70679914D01*
X191335703Y-70306827D01*
X190962616Y-70057539D01*
X190864387Y-70038000D01*
X191470939Y-70038000D01*
X191694405Y-69945437D01*
X191865438Y-69774404D01*
X191958000Y-69550938D01*
X191958000Y-68886000D01*
X191806000Y-68734000D01*
X190654000Y-68734000D01*
X190654000Y-68754000D01*
X190346000Y-68754000D01*
X190346000Y-68734000D01*
X189194000Y-68734000D01*
X189042000Y-68886000D01*
X189042000Y-69550938D01*
X189134562Y-69774404D01*
X189305595Y-69945437D01*
X189529061Y-70038000D01*
X190135613Y-70038000D01*
X190037384Y-70057539D01*
X189664297Y-70306827D01*
X189415009Y-70679914D01*
X189327470Y-71120000D01*
X189415009Y-71560086D01*
X189432578Y-71586381D01*
X185902600Y-75116359D01*
X180259520Y-69473280D01*
X180121641Y-69381151D01*
X180094657Y-69375784D01*
X179959000Y-69348800D01*
X163186730Y-69348800D01*
X163103517Y-69265441D01*
X162883071Y-69173904D01*
X162644376Y-69173696D01*
X162423771Y-69264848D01*
X162254841Y-69433483D01*
X162163304Y-69653929D01*
X162163096Y-69892624D01*
X151107218Y-69892624D01*
X151225438Y-69774404D01*
X151318000Y-69550938D01*
X151318000Y-68886000D01*
X151166000Y-68734000D01*
X150014000Y-68734000D01*
X150014000Y-68754000D01*
X149706000Y-68754000D01*
X149706000Y-68734000D01*
X148554000Y-68734000D01*
X148402000Y-68886000D01*
X147695000Y-68886000D01*
X147695000Y-67609062D01*
X148402000Y-67609062D01*
X148402000Y-68274000D01*
X148554000Y-68426000D01*
X149706000Y-68426000D01*
X149706000Y-67274000D01*
X150014000Y-67274000D01*
X150014000Y-68426000D01*
X151166000Y-68426000D01*
X151318000Y-68274000D01*
X151318000Y-67609062D01*
X189042000Y-67609062D01*
X189042000Y-68274000D01*
X189194000Y-68426000D01*
X190346000Y-68426000D01*
X190346000Y-67274000D01*
X190654000Y-67274000D01*
X190654000Y-68426000D01*
X191806000Y-68426000D01*
X191958000Y-68274000D01*
X191958000Y-67609062D01*
X191865438Y-67385596D01*
X191694405Y-67214563D01*
X191470939Y-67122000D01*
X190806000Y-67122000D01*
X190654000Y-67274000D01*
X190346000Y-67274000D01*
X190194000Y-67122000D01*
X189529061Y-67122000D01*
X189305595Y-67214563D01*
X189134562Y-67385596D01*
X189042000Y-67609062D01*
X151318000Y-67609062D01*
X151225438Y-67385596D01*
X151054405Y-67214563D01*
X150830939Y-67122000D01*
X150166000Y-67122000D01*
X150014000Y-67274000D01*
X149706000Y-67274000D01*
X149554000Y-67122000D01*
X148889061Y-67122000D01*
X148665595Y-67214563D01*
X148494562Y-67385596D01*
X148402000Y-67609062D01*
X147695000Y-67609062D01*
X147695000Y-66775000D01*
X192665000Y-66775000D01*
X192665000Y-120613064D01*
M02*
