G04 #@! TF.FileFunction,Copper,L1,Top,Signal*
%FSLAX46Y46*%
G04 Gerber Fmt 4.6, Leading zero omitted, Abs format (unit mm)*
G04 Created by KiCad (PCBNEW 4.0.5-e0-6337~52~ubuntu16.10.1) date Sat Feb 25 17:17:48 2017*
%MOMM*%
%LPD*%
G01*
G04 APERTURE LIST*
%ADD10C,0.100000*%
%ADD11O,2.500000X0.900000*%
%ADD12O,0.900000X2.500000*%
%ADD13R,6.000000X6.000000*%
%ADD14R,0.800000X0.750000*%
%ADD15R,0.700000X1.200000*%
%ADD16R,1.000000X1.200000*%
%ADD17R,1.000000X0.800000*%
%ADD18R,1.000000X2.800000*%
%ADD19R,1.300000X1.900000*%
%ADD20R,0.900000X0.500000*%
%ADD21R,1.651000X3.048000*%
%ADD22R,6.096000X6.096000*%
%ADD23R,0.750000X0.800000*%
%ADD24R,0.900000X0.800000*%
%ADD25R,0.500000X0.900000*%
%ADD26R,0.400000X1.350000*%
%ADD27R,2.100000X2.000000*%
%ADD28R,1.600000X1.900000*%
%ADD29R,1.200000X1.900000*%
%ADD30R,0.800000X0.900000*%
%ADD31R,1.700000X1.700000*%
%ADD32O,1.700000X1.700000*%
%ADD33R,0.700000X0.248920*%
%ADD34R,0.250000X0.700000*%
%ADD35R,0.697840X0.248920*%
%ADD36C,0.600000*%
%ADD37C,0.250000*%
%ADD38C,0.200000*%
G04 APERTURE END LIST*
D10*
D11*
X175751000Y-68410000D03*
X175751000Y-69680000D03*
X175751000Y-70950000D03*
X175751000Y-72220000D03*
X175751000Y-73490000D03*
X175751000Y-74760000D03*
X175751000Y-76030000D03*
X175751000Y-77300000D03*
X175751000Y-78570000D03*
X175751000Y-79840000D03*
X175751000Y-81110000D03*
X175751000Y-82380000D03*
X175751000Y-83650000D03*
X175751000Y-84920000D03*
D12*
X172466000Y-86410000D03*
X171196000Y-86410000D03*
X169926000Y-86410000D03*
X168656000Y-86410000D03*
X167386000Y-86410000D03*
X166116000Y-86410000D03*
X164846000Y-86410000D03*
X163576000Y-86410000D03*
X162306000Y-86410000D03*
X161036000Y-86410000D03*
D11*
X157751000Y-84920000D03*
X157751000Y-83650000D03*
X157751000Y-82380000D03*
X157751000Y-81110000D03*
X157751000Y-79840000D03*
X157751000Y-78570000D03*
X157751000Y-77300000D03*
X157751000Y-76030000D03*
X157751000Y-74760000D03*
X157751000Y-73490000D03*
X157751000Y-72220000D03*
X157751000Y-70950000D03*
X157751000Y-69680000D03*
X157751000Y-68410000D03*
D13*
X166451000Y-76110000D03*
D14*
X180860000Y-107950000D03*
X182360000Y-107950000D03*
X180860000Y-105410000D03*
X182360000Y-105410000D03*
X186170000Y-107950000D03*
X184670000Y-107950000D03*
X186170000Y-105410000D03*
X184670000Y-105410000D03*
D15*
X159300000Y-102686000D03*
X160250000Y-102686000D03*
X167950000Y-102686000D03*
X166850000Y-102686000D03*
X165750000Y-102686000D03*
X164650000Y-102686000D03*
X163550000Y-102686000D03*
X162450000Y-102686000D03*
X161350000Y-102686000D03*
D16*
X169500000Y-102686000D03*
X158350000Y-106986000D03*
D17*
X158350000Y-113186000D03*
D18*
X158350000Y-117336000D03*
D19*
X171850000Y-117786000D03*
D20*
X176022000Y-100977000D03*
X176022000Y-102477000D03*
D21*
X180975000Y-101854000D03*
D22*
X183261000Y-95504000D03*
D21*
X185547000Y-101854000D03*
D23*
X178435000Y-102477000D03*
X178435000Y-100977000D03*
D24*
X171307000Y-98232000D03*
X171307000Y-96332000D03*
X169307000Y-97282000D03*
X171307000Y-93787000D03*
X171307000Y-91887000D03*
X169307000Y-92837000D03*
D20*
X178435000Y-90309000D03*
X178435000Y-91809000D03*
X173863000Y-90309000D03*
X173863000Y-91809000D03*
D25*
X182233000Y-110490000D03*
X180733000Y-110490000D03*
D20*
X173736000Y-100977000D03*
X173736000Y-102477000D03*
X176149000Y-91809000D03*
X176149000Y-90309000D03*
D25*
X180733000Y-113030000D03*
X182233000Y-113030000D03*
D26*
X178846000Y-116652000D03*
X178196000Y-116652000D03*
X177546000Y-116652000D03*
X176896000Y-116652000D03*
X176246000Y-116652000D03*
D27*
X180646000Y-116977000D03*
X174446000Y-116977000D03*
D28*
X173446000Y-119327000D03*
D29*
X176696000Y-119327000D03*
X178396000Y-119327000D03*
D28*
X181646000Y-119327000D03*
D30*
X186470000Y-110490000D03*
X184370000Y-110490000D03*
D31*
X190500000Y-71120000D03*
D32*
X190500000Y-73660000D03*
X190500000Y-76200000D03*
X190500000Y-78740000D03*
X190500000Y-81280000D03*
X190500000Y-83820000D03*
X190500000Y-86360000D03*
X190500000Y-88900000D03*
X190500000Y-91440000D03*
X190500000Y-93980000D03*
X190500000Y-96520000D03*
X190500000Y-99060000D03*
X190500000Y-101600000D03*
X190500000Y-104140000D03*
X190500000Y-106680000D03*
X190500000Y-109220000D03*
X190500000Y-111760000D03*
D31*
X152400000Y-71120000D03*
D32*
X152400000Y-73660000D03*
X152400000Y-76200000D03*
X152400000Y-78740000D03*
X152400000Y-81280000D03*
X152400000Y-83820000D03*
X152400000Y-86360000D03*
X152400000Y-88900000D03*
X152400000Y-91440000D03*
X152400000Y-93980000D03*
X152400000Y-96520000D03*
X152400000Y-99060000D03*
X152400000Y-101600000D03*
X152400000Y-104140000D03*
X152400000Y-106680000D03*
X152400000Y-109220000D03*
X152400000Y-111760000D03*
D25*
X175248000Y-114046000D03*
X173748000Y-114046000D03*
X175248000Y-112268000D03*
X173748000Y-112268000D03*
X175248000Y-110490000D03*
X173748000Y-110490000D03*
X175248000Y-108712000D03*
X173748000Y-108712000D03*
X175248000Y-106934000D03*
X173748000Y-106934000D03*
X175248000Y-105156000D03*
X173748000Y-105156000D03*
D33*
X173376920Y-94602300D03*
X173376920Y-95102680D03*
X173376920Y-95600520D03*
X173376920Y-96100900D03*
X173376920Y-96601280D03*
X173376920Y-97101660D03*
X173376920Y-97602040D03*
X173376920Y-98102420D03*
D34*
X173977300Y-98702800D03*
X174477680Y-98702800D03*
X174975520Y-98702800D03*
X175475900Y-98702800D03*
X175976280Y-98702800D03*
X176476660Y-98702800D03*
X176977040Y-98702800D03*
X177477420Y-98702800D03*
D35*
X178077800Y-98102420D03*
X178077800Y-97602040D03*
X178077800Y-97101660D03*
X178077800Y-96601280D03*
X178077800Y-96100900D03*
X178077800Y-95600520D03*
X178077800Y-95102680D03*
X178077800Y-94602300D03*
D34*
X177477420Y-94001920D03*
X176977040Y-94001920D03*
X176476660Y-94001920D03*
X175976280Y-94001920D03*
X175475900Y-94001920D03*
X174975520Y-94001920D03*
X174477680Y-94001920D03*
X173977300Y-94001920D03*
D36*
X164592000Y-101219000D03*
X155829000Y-109728000D03*
X189103000Y-101600000D03*
X187071000Y-99568000D03*
X164973000Y-69469000D03*
X180721000Y-104140000D03*
X174244000Y-103378000D03*
X176911000Y-106299000D03*
X179514500Y-106299000D03*
X183075000Y-119443500D03*
X179578000Y-101854000D03*
X182626000Y-101854000D03*
X172466000Y-97028000D03*
X159131000Y-100965000D03*
X162433000Y-100711000D03*
X161163000Y-93980000D03*
X186690000Y-104267000D03*
X185420000Y-97790000D03*
X168021000Y-100711000D03*
X163957000Y-92202000D03*
X164846000Y-91186000D03*
X166878000Y-97282000D03*
X166243000Y-94615000D03*
X166243000Y-89789000D03*
X163449000Y-97663000D03*
X163322000Y-94107000D03*
X161417000Y-99441000D03*
X161417000Y-97155000D03*
X183515000Y-109093000D03*
X178816000Y-97155000D03*
X172974000Y-74041000D03*
X172847000Y-89154000D03*
X178689000Y-73914000D03*
X178435000Y-88519000D03*
X176784000Y-115252500D03*
X168021000Y-95631000D03*
X161544000Y-80899000D03*
X159639000Y-75819000D03*
X159639000Y-77216000D03*
X159385000Y-78486000D03*
X159512000Y-79629000D03*
X159639000Y-81026000D03*
X178435000Y-103505000D03*
X178308000Y-98933000D03*
X172466000Y-95250000D03*
X172466000Y-93472000D03*
X175006000Y-100965000D03*
X174498000Y-95123000D03*
X172593000Y-92456000D03*
X175133000Y-102489000D03*
X171958000Y-99568000D03*
X171323000Y-92837000D03*
X175133000Y-90424000D03*
X175641000Y-86360000D03*
X169164000Y-91948000D03*
X171323000Y-100203000D03*
X179324000Y-111760000D03*
X179324000Y-113030000D03*
D37*
X149860000Y-109220000D02*
X149860000Y-106680000D01*
X149860000Y-106680000D02*
X149987000Y-106553000D01*
X174244000Y-103378000D02*
X174371000Y-103378000D01*
X175248000Y-104636000D02*
X175248000Y-106934000D01*
X174371000Y-103378000D02*
X175248000Y-104636000D01*
X175248000Y-106934000D02*
X175248000Y-108712000D01*
X175248000Y-108712000D02*
X175248000Y-110490000D01*
X175248000Y-110490000D02*
X175248000Y-112268000D01*
X175248000Y-112268000D02*
X175248000Y-114046000D01*
X152400000Y-111760000D02*
X153797000Y-111760000D01*
X164650000Y-101277000D02*
X164650000Y-102686000D01*
X164592000Y-101219000D02*
X164650000Y-101277000D01*
X153797000Y-111760000D02*
X155829000Y-109728000D01*
X187071000Y-99568000D02*
X183261000Y-99568000D01*
X183261000Y-99568000D02*
X180975000Y-101854000D01*
X187071000Y-99568000D02*
X189103000Y-101600000D01*
X157751000Y-69680000D02*
X164762000Y-69680000D01*
X164762000Y-69680000D02*
X164973000Y-69469000D01*
X180860000Y-107950000D02*
X180860000Y-110363000D01*
X180860000Y-110363000D02*
X180733000Y-110490000D01*
X180721000Y-104140000D02*
X180721000Y-105271000D01*
X180721000Y-105271000D02*
X180860000Y-105410000D01*
X180860000Y-105410000D02*
X180860000Y-107950000D01*
X173736000Y-102477000D02*
X174371000Y-103251000D01*
X180975000Y-103886000D02*
X180975000Y-101854000D01*
X180721000Y-104140000D02*
X180975000Y-103886000D01*
X174371000Y-103251000D02*
X174244000Y-103378000D01*
X157751000Y-69680000D02*
X156253000Y-69680000D01*
X153289000Y-73660000D02*
X152400000Y-73660000D01*
X154305000Y-72644000D02*
X153289000Y-73660000D01*
X154305000Y-71628000D02*
X154305000Y-72644000D01*
X156253000Y-69680000D02*
X154305000Y-71628000D01*
X179578000Y-101854000D02*
X179578000Y-106235500D01*
X179578000Y-106235500D02*
X179514500Y-106299000D01*
X181646000Y-119327000D02*
X182958500Y-119327000D01*
X182958500Y-119327000D02*
X183075000Y-119443500D01*
X176246000Y-116652000D02*
X176246000Y-118877000D01*
X176246000Y-118877000D02*
X176696000Y-119327000D01*
X174446000Y-116977000D02*
X174446000Y-118327000D01*
X174446000Y-118327000D02*
X173446000Y-119327000D01*
X173446000Y-119327000D02*
X176696000Y-119327000D01*
X176696000Y-119327000D02*
X178396000Y-119327000D01*
X178396000Y-119327000D02*
X181646000Y-119327000D01*
X181646000Y-119327000D02*
X180646000Y-118327000D01*
X180646000Y-118327000D02*
X180646000Y-116977000D01*
X177977800Y-96601280D02*
X178353720Y-96601280D01*
X177977800Y-94602300D02*
X179438300Y-94602300D01*
X179451000Y-94615000D02*
X179451000Y-95504000D01*
X179438300Y-94602300D02*
X179451000Y-94615000D01*
X179451000Y-95504000D02*
X179451000Y-98171000D01*
X185547000Y-101854000D02*
X182626000Y-101854000D01*
X179578000Y-101854000D02*
X178701000Y-100977000D01*
X178701000Y-100977000D02*
X178435000Y-100977000D01*
X177977800Y-98102420D02*
X179451000Y-98102420D01*
X179451000Y-98102420D02*
X179451000Y-98171000D01*
X179451000Y-99961000D02*
X178435000Y-100977000D01*
X179451000Y-98171000D02*
X179451000Y-99961000D01*
X172631100Y-96100900D02*
X173476920Y-96100900D01*
X172466000Y-96266000D02*
X172631100Y-96100900D01*
X172466000Y-97028000D02*
X172466000Y-96266000D01*
X159300000Y-101134000D02*
X159300000Y-102686000D01*
X159131000Y-100965000D02*
X159300000Y-101134000D01*
X162450000Y-100728000D02*
X162450000Y-102686000D01*
X162433000Y-100711000D02*
X162450000Y-100728000D01*
X161036000Y-93853000D02*
X161163000Y-93980000D01*
X161036000Y-86410000D02*
X161036000Y-93853000D01*
X183261000Y-112776000D02*
X183261000Y-110109000D01*
X182499000Y-109347000D02*
X182499000Y-108089000D01*
X183261000Y-110109000D02*
X182499000Y-109347000D01*
X182499000Y-108089000D02*
X182360000Y-107950000D01*
X183007000Y-113030000D02*
X182233000Y-113030000D01*
X183261000Y-112776000D02*
X183007000Y-113030000D01*
X152400000Y-109220000D02*
X152781000Y-109220000D01*
X152781000Y-109220000D02*
X157226000Y-104775000D01*
X157296000Y-102686000D02*
X159300000Y-102686000D01*
X157226000Y-102616000D02*
X157296000Y-102686000D01*
X157226000Y-104775000D02*
X157226000Y-102616000D01*
X161036000Y-84328000D02*
X161036000Y-86410000D01*
X166451000Y-76110000D02*
X166451000Y-68753000D01*
X166451000Y-68753000D02*
X166794000Y-68410000D01*
X175751000Y-68410000D02*
X166794000Y-68410000D01*
X166794000Y-68410000D02*
X157751000Y-68410000D01*
X157751000Y-68410000D02*
X157708000Y-68453000D01*
X157708000Y-68453000D02*
X155067000Y-68453000D01*
X155067000Y-68453000D02*
X152400000Y-71120000D01*
X175751000Y-68410000D02*
X186139000Y-68410000D01*
X188849000Y-71120000D02*
X190500000Y-71120000D01*
X186139000Y-68410000D02*
X188849000Y-71120000D01*
X190500000Y-106680000D02*
X190500000Y-104140000D01*
X190500000Y-104140000D02*
X188214000Y-101854000D01*
X188214000Y-101854000D02*
X185547000Y-101854000D01*
X185547000Y-101854000D02*
X185547000Y-104533000D01*
X185547000Y-104533000D02*
X184670000Y-105410000D01*
X184670000Y-105410000D02*
X184670000Y-107950000D01*
X184670000Y-107950000D02*
X182360000Y-107950000D01*
X182360000Y-107950000D02*
X182360000Y-105410000D01*
X176977040Y-95885000D02*
X176977040Y-96072960D01*
X176977040Y-96072960D02*
X176911000Y-96139000D01*
X177119280Y-96601280D02*
X177977800Y-96601280D01*
X176911000Y-96393000D02*
X177119280Y-96601280D01*
X176911000Y-96139000D02*
X176911000Y-96393000D01*
X173476920Y-96100900D02*
X176949100Y-96100900D01*
X176949100Y-96100900D02*
X176977040Y-96072960D01*
X176977040Y-95885000D02*
X176977040Y-94101920D01*
X166451000Y-76110000D02*
X166451000Y-78913000D01*
X167340000Y-76110000D02*
X167120400Y-76110000D01*
X166451000Y-78913000D02*
X161036000Y-84328000D01*
X186170000Y-107950000D02*
X186170000Y-105410000D01*
X186170000Y-105410000D02*
X186690000Y-104890000D01*
X186690000Y-104890000D02*
X186690000Y-104267000D01*
X185420000Y-97790000D02*
X183261000Y-95631000D01*
X183261000Y-95631000D02*
X183261000Y-95504000D01*
X190500000Y-111760000D02*
X187740000Y-111760000D01*
X187740000Y-111760000D02*
X186170000Y-110190000D01*
X186170000Y-110190000D02*
X186170000Y-105410000D01*
X160250000Y-102686000D02*
X160250000Y-103227000D01*
X160250000Y-103227000D02*
X163645002Y-106622002D01*
X172212000Y-112510000D02*
X173748000Y-114046000D01*
X172212000Y-110871000D02*
X172212000Y-112510000D01*
X167963002Y-106622002D02*
X172212000Y-110871000D01*
X163645002Y-106622002D02*
X167963002Y-106622002D01*
X169926000Y-86410000D02*
X169926000Y-89662000D01*
X160250000Y-99338000D02*
X160250000Y-102686000D01*
X169926000Y-89662000D02*
X160250000Y-99338000D01*
X167950000Y-102686000D02*
X167950000Y-103561000D01*
X172732000Y-104140000D02*
X173748000Y-105156000D01*
X168529000Y-104140000D02*
X172732000Y-104140000D01*
X167950000Y-103561000D02*
X168529000Y-104140000D01*
X163576000Y-86410000D02*
X163576000Y-91821000D01*
X167950000Y-100782000D02*
X167950000Y-102686000D01*
X168021000Y-100711000D02*
X167950000Y-100782000D01*
X163576000Y-91821000D02*
X163957000Y-92202000D01*
X168402000Y-104648000D02*
X168021000Y-104648000D01*
X171450000Y-104648000D02*
X168402000Y-104648000D01*
X173736000Y-106934000D02*
X171450000Y-104648000D01*
X166850000Y-103477000D02*
X166850000Y-102686000D01*
X168021000Y-104648000D02*
X166850000Y-103477000D01*
X173748000Y-106934000D02*
X173736000Y-106934000D01*
X164846000Y-86410000D02*
X164846000Y-91186000D01*
X166878000Y-97282000D02*
X166850000Y-97310000D01*
X166850000Y-97310000D02*
X166850000Y-102686000D01*
X165750000Y-102686000D02*
X165750000Y-103139000D01*
X165750000Y-103139000D02*
X167767000Y-105156000D01*
X170192000Y-105156000D02*
X173748000Y-108712000D01*
X167767000Y-105156000D02*
X170192000Y-105156000D01*
X166116000Y-86410000D02*
X166116000Y-89662000D01*
X165750000Y-95108000D02*
X165750000Y-102686000D01*
X166243000Y-94615000D02*
X165750000Y-95108000D01*
X166116000Y-89662000D02*
X166243000Y-89789000D01*
X163550000Y-102686000D02*
X163550000Y-103098000D01*
X163550000Y-103098000D02*
X166116000Y-105664000D01*
X172339000Y-109081000D02*
X173748000Y-110490000D01*
X172339000Y-108331000D02*
X172339000Y-109081000D01*
X169672000Y-105664000D02*
X172339000Y-108331000D01*
X166116000Y-105664000D02*
X169672000Y-105664000D01*
X167386000Y-86410000D02*
X167386000Y-89789000D01*
X163550000Y-97764000D02*
X163550000Y-102686000D01*
X163449000Y-97663000D02*
X163550000Y-97764000D01*
X163322000Y-93853000D02*
X163322000Y-94107000D01*
X167386000Y-89789000D02*
X163322000Y-93853000D01*
X161350000Y-102686000D02*
X161350000Y-103184000D01*
X161350000Y-103184000D02*
X164338000Y-106172000D01*
X172720000Y-111240000D02*
X173748000Y-112268000D01*
X172720000Y-110363000D02*
X172720000Y-111240000D01*
X168529000Y-106172000D02*
X172720000Y-110363000D01*
X164338000Y-106172000D02*
X168529000Y-106172000D01*
X168656000Y-86410000D02*
X168656000Y-89916000D01*
X161350000Y-99508000D02*
X161350000Y-102686000D01*
X161417000Y-99441000D02*
X161350000Y-99508000D01*
X168656000Y-89916000D02*
X161417000Y-97155000D01*
X178846000Y-116652000D02*
X178846000Y-115794000D01*
X184370000Y-112937000D02*
X184370000Y-110490000D01*
X182753000Y-114554000D02*
X184370000Y-112937000D01*
X180086000Y-114554000D02*
X182753000Y-114554000D01*
X178846000Y-115794000D02*
X180086000Y-114554000D01*
X177977800Y-97101660D02*
X178762660Y-97101660D01*
X184370000Y-109948000D02*
X184370000Y-110490000D01*
X183515000Y-109093000D02*
X184370000Y-109948000D01*
X178762660Y-97101660D02*
X178816000Y-97155000D01*
X175751000Y-72220000D02*
X174795000Y-72220000D01*
X174795000Y-72220000D02*
X172974000Y-74041000D01*
X172847000Y-89154000D02*
X173863000Y-90170000D01*
X173863000Y-90170000D02*
X173863000Y-90551000D01*
X173863000Y-90551000D02*
X173863000Y-90309000D01*
X176476660Y-98702800D02*
X176476660Y-99641660D01*
X177038000Y-100330000D02*
X177038000Y-104902000D01*
X177038000Y-104902000D02*
X177546000Y-105410000D01*
X177546000Y-105410000D02*
X177546000Y-116652000D01*
X177038000Y-100203000D02*
X177038000Y-100330000D01*
X176476660Y-99641660D02*
X177038000Y-100203000D01*
X176977040Y-98702800D02*
X176977040Y-99316540D01*
X178196000Y-105298000D02*
X178196000Y-116652000D01*
X177546000Y-104648000D02*
X178196000Y-105298000D01*
X177546000Y-99885500D02*
X177546000Y-104648000D01*
X176977040Y-99316540D02*
X177546000Y-99885500D01*
X178265000Y-73490000D02*
X175751000Y-73490000D01*
X178689000Y-73914000D02*
X178265000Y-73490000D01*
X178435000Y-90309000D02*
X178435000Y-88519000D01*
X174498000Y-115062000D02*
X174498000Y-115125500D01*
X172466000Y-100977000D02*
X172466000Y-102489000D01*
X174498000Y-104521000D02*
X174498000Y-115062000D01*
X172466000Y-102489000D02*
X174498000Y-104521000D01*
X174625000Y-115252500D02*
X176784000Y-115252500D01*
X174498000Y-115125500D02*
X174625000Y-115252500D01*
X157751000Y-70950000D02*
X159342000Y-70950000D01*
X168021000Y-95631000D02*
X169307000Y-96917000D01*
X161544000Y-73152000D02*
X161544000Y-80899000D01*
X159342000Y-70950000D02*
X161544000Y-73152000D01*
X169307000Y-96917000D02*
X169307000Y-97282000D01*
X173736000Y-100977000D02*
X172466000Y-100977000D01*
X172466000Y-100977000D02*
X170446000Y-100977000D01*
X169418000Y-99949000D02*
X169418000Y-97393000D01*
X170446000Y-100977000D02*
X169418000Y-99949000D01*
X169418000Y-97393000D02*
X169307000Y-97282000D01*
X157751000Y-70950000D02*
X156126000Y-70950000D01*
X155067000Y-73533000D02*
X152400000Y-76200000D01*
X155067000Y-72009000D02*
X155067000Y-73533000D01*
X156126000Y-70950000D02*
X155067000Y-72009000D01*
X157751000Y-72220000D02*
X156126000Y-72220000D01*
X154432000Y-76708000D02*
X152400000Y-78740000D01*
X154432000Y-74930000D02*
X154432000Y-76708000D01*
X155702000Y-73660000D02*
X154432000Y-74930000D01*
X155702000Y-72644000D02*
X155702000Y-73660000D01*
X156126000Y-72220000D02*
X155702000Y-72644000D01*
X157751000Y-73490000D02*
X156634000Y-73490000D01*
X156634000Y-73490000D02*
X155067000Y-75057000D01*
X154178000Y-79502000D02*
X152400000Y-81280000D01*
X154178000Y-78105000D02*
X154178000Y-79502000D01*
X155067000Y-77216000D02*
X154178000Y-78105000D01*
X155067000Y-75057000D02*
X155067000Y-77216000D01*
X157751000Y-73490000D02*
X156761000Y-73490000D01*
X157751000Y-74760000D02*
X156253000Y-74760000D01*
X154940000Y-81280000D02*
X152400000Y-83820000D01*
X154940000Y-78359000D02*
X154940000Y-81280000D01*
X155575000Y-77724000D02*
X154940000Y-78359000D01*
X155575000Y-75438000D02*
X155575000Y-77724000D01*
X156253000Y-74760000D02*
X155575000Y-75438000D01*
X159639000Y-75819000D02*
X159428000Y-76030000D01*
X159428000Y-76030000D02*
X157751000Y-76030000D01*
X157650000Y-76030000D02*
X157480000Y-76200000D01*
X157650000Y-76030000D02*
X157480000Y-76200000D01*
X159555000Y-77300000D02*
X157751000Y-77300000D01*
X159639000Y-77216000D02*
X159555000Y-77300000D01*
X157650000Y-77300000D02*
X157480000Y-77470000D01*
X157650000Y-77300000D02*
X157480000Y-77470000D01*
X159301000Y-78570000D02*
X157751000Y-78570000D01*
X159385000Y-78486000D02*
X159301000Y-78570000D01*
X157650000Y-78570000D02*
X157480000Y-78740000D01*
X157650000Y-78570000D02*
X157480000Y-78740000D01*
X159301000Y-79840000D02*
X157751000Y-79840000D01*
X159512000Y-79629000D02*
X159301000Y-79840000D01*
X159555000Y-81110000D02*
X157751000Y-81110000D01*
X159639000Y-81026000D02*
X159555000Y-81110000D01*
X157650000Y-81110000D02*
X157480000Y-81280000D01*
X157650000Y-81110000D02*
X157480000Y-81280000D01*
X152400000Y-99060000D02*
X153670000Y-99060000D01*
X154559000Y-84328000D02*
X156507000Y-82380000D01*
X154559000Y-98171000D02*
X154559000Y-84328000D01*
X153670000Y-99060000D02*
X154559000Y-98171000D01*
X156507000Y-82380000D02*
X157751000Y-82380000D01*
X157650000Y-82380000D02*
X157480000Y-82550000D01*
X157650000Y-82380000D02*
X157480000Y-82550000D01*
X152400000Y-101600000D02*
X152654000Y-101600000D01*
X152654000Y-101600000D02*
X155321000Y-98933000D01*
X155321000Y-98933000D02*
X155321000Y-84582000D01*
X155321000Y-84582000D02*
X156253000Y-83650000D01*
X156253000Y-83650000D02*
X157751000Y-83650000D01*
X157650000Y-83650000D02*
X157480000Y-83820000D01*
X157650000Y-83650000D02*
X157480000Y-83820000D01*
X152400000Y-104140000D02*
X152781000Y-104140000D01*
X152781000Y-104140000D02*
X155067000Y-101854000D01*
X155067000Y-101854000D02*
X155067000Y-100330000D01*
X155067000Y-100330000D02*
X157751000Y-97646000D01*
X157751000Y-97646000D02*
X157751000Y-84920000D01*
X162306000Y-86410000D02*
X162306000Y-94361000D01*
X155956000Y-103124000D02*
X152400000Y-106680000D01*
X155956000Y-100711000D02*
X155956000Y-103124000D01*
X162306000Y-94361000D02*
X155956000Y-100711000D01*
X175751000Y-69680000D02*
X183980000Y-69680000D01*
X183980000Y-69680000D02*
X190500000Y-76200000D01*
X175751000Y-70950000D02*
X182710000Y-70950000D01*
X182710000Y-70950000D02*
X190500000Y-78740000D01*
X175751000Y-74760000D02*
X183980000Y-74760000D01*
X183980000Y-74760000D02*
X190500000Y-81280000D01*
X175751000Y-77300000D02*
X183980000Y-77300000D01*
X183980000Y-77300000D02*
X190500000Y-83820000D01*
X175751000Y-78570000D02*
X182710000Y-78570000D01*
X182710000Y-78570000D02*
X190500000Y-86360000D01*
X175751000Y-79840000D02*
X181440000Y-79840000D01*
X181440000Y-79840000D02*
X190500000Y-88900000D01*
X175751000Y-81110000D02*
X180170000Y-81110000D01*
X180170000Y-81110000D02*
X190500000Y-91440000D01*
X175751000Y-82380000D02*
X180170000Y-82380000D01*
X188849000Y-92329000D02*
X190500000Y-93980000D01*
X188849000Y-91059000D02*
X188849000Y-92329000D01*
X180170000Y-82380000D02*
X188849000Y-91059000D01*
X175751000Y-83650000D02*
X180551000Y-83650000D01*
X189103000Y-95123000D02*
X190500000Y-96520000D01*
X189103000Y-93472000D02*
X189103000Y-95123000D01*
X188341000Y-92710000D02*
X189103000Y-93472000D01*
X188341000Y-91440000D02*
X188341000Y-92710000D01*
X180551000Y-83650000D02*
X188341000Y-91440000D01*
X174752000Y-86995000D02*
X183134000Y-86995000D01*
X183134000Y-86995000D02*
X187706000Y-91567000D01*
X187706000Y-91567000D02*
X187706000Y-96266000D01*
X187706000Y-96266000D02*
X190500000Y-99060000D01*
X172466000Y-86410000D02*
X174167000Y-86410000D01*
X174167000Y-86410000D02*
X174752000Y-86995000D01*
X171196000Y-86410000D02*
X171196000Y-88138000D01*
X171196000Y-88138000D02*
X171450000Y-88392000D01*
X177292000Y-87757000D02*
X183007000Y-87757000D01*
X176657000Y-88392000D02*
X177292000Y-87757000D01*
X171450000Y-88392000D02*
X176657000Y-88392000D01*
X186944000Y-98044000D02*
X190500000Y-101600000D01*
X186944000Y-91694000D02*
X186944000Y-98044000D01*
X183007000Y-87757000D02*
X186944000Y-91694000D01*
X177477420Y-98602800D02*
X177977800Y-98602800D01*
X178435000Y-103505000D02*
X178435000Y-102477000D01*
X177977800Y-98602800D02*
X178308000Y-98933000D01*
X177477420Y-98602800D02*
X177477420Y-98737420D01*
X173863000Y-91809000D02*
X173863000Y-92075000D01*
X172613320Y-95102680D02*
X173476920Y-95102680D01*
X172466000Y-95250000D02*
X172613320Y-95102680D01*
X173863000Y-92075000D02*
X172466000Y-93472000D01*
X174975520Y-94001920D02*
X174975520Y-93317482D01*
X178435000Y-92646500D02*
X178435000Y-91809000D01*
X177990500Y-93091000D02*
X178435000Y-92646500D01*
X175202002Y-93091000D02*
X177990500Y-93091000D01*
X174975520Y-93317482D02*
X175202002Y-93091000D01*
X175018000Y-100977000D02*
X176022000Y-100977000D01*
X175006000Y-100965000D02*
X175018000Y-100977000D01*
X171307000Y-91887000D02*
X172024000Y-91887000D01*
X174477680Y-95102680D02*
X174477680Y-94101920D01*
X174498000Y-95123000D02*
X174477680Y-95102680D01*
X172024000Y-91887000D02*
X172593000Y-92456000D01*
X171307000Y-96332000D02*
X171307000Y-95520000D01*
X172974000Y-93853000D02*
X173977300Y-93853000D01*
X171307000Y-95520000D02*
X172974000Y-93853000D01*
X173977300Y-93853000D02*
X173977300Y-94101920D01*
X173977300Y-94101920D02*
X173961513Y-93599896D01*
X176149000Y-92583000D02*
X176149000Y-91809000D01*
X174879000Y-92583000D02*
X176149000Y-92583000D01*
X173961513Y-93599896D02*
X174879000Y-92583000D01*
X171307000Y-98232000D02*
X171307000Y-98917000D01*
X175145000Y-102477000D02*
X176022000Y-102477000D01*
X175133000Y-102489000D02*
X175145000Y-102477000D01*
X171307000Y-98917000D02*
X171958000Y-99568000D01*
X176149000Y-90309000D02*
X175248000Y-90309000D01*
X171307000Y-92853000D02*
X171307000Y-93787000D01*
X171323000Y-92837000D02*
X171307000Y-92853000D01*
X175248000Y-90309000D02*
X175133000Y-90424000D01*
X176010000Y-90309000D02*
X176149000Y-90309000D01*
X175751000Y-84920000D02*
X175751000Y-86250000D01*
X175751000Y-86250000D02*
X175641000Y-86360000D01*
X169164000Y-91948000D02*
X169307000Y-92091000D01*
X169307000Y-92837000D02*
X169307000Y-94758000D01*
X169307000Y-94758000D02*
X170307000Y-95758000D01*
X170307000Y-95758000D02*
X170307000Y-99187000D01*
X170307000Y-99187000D02*
X171323000Y-100203000D01*
X182233000Y-110490000D02*
X182233000Y-110756000D01*
X182233000Y-110756000D02*
X181229000Y-111760000D01*
X181229000Y-111760000D02*
X179324000Y-111760000D01*
X169307000Y-92091000D02*
X169307000Y-92837000D01*
X180733000Y-113030000D02*
X179324000Y-113030000D01*
D38*
G36*
X155941246Y-68094151D02*
X156058184Y-68256000D01*
X157597000Y-68256000D01*
X157597000Y-68236000D01*
X157905000Y-68236000D01*
X157905000Y-68256000D01*
X159443816Y-68256000D01*
X159560754Y-68094151D01*
X159477552Y-67918000D01*
X174024448Y-67918000D01*
X173941246Y-68094151D01*
X174058184Y-68256000D01*
X175597000Y-68256000D01*
X175597000Y-68236000D01*
X175905000Y-68236000D01*
X175905000Y-68256000D01*
X177443816Y-68256000D01*
X177560754Y-68094151D01*
X177477552Y-67918000D01*
X192665000Y-67918000D01*
X192665000Y-120613064D01*
X192590085Y-120989689D01*
X192397666Y-121277666D01*
X192109689Y-121470085D01*
X191733068Y-121545000D01*
X184912000Y-121545000D01*
X184768494Y-121573545D01*
X184646835Y-121654835D01*
X184565545Y-121776494D01*
X184537000Y-121920000D01*
X184542371Y-121947000D01*
X182995629Y-121947000D01*
X183001000Y-121920000D01*
X182972455Y-121776493D01*
X182891165Y-121654835D01*
X182121330Y-120885000D01*
X182566939Y-120885000D01*
X182790405Y-120792437D01*
X182961438Y-120621404D01*
X183054000Y-120397938D01*
X183054000Y-119633000D01*
X182902000Y-119481000D01*
X181800000Y-119481000D01*
X181800000Y-119501000D01*
X181492000Y-119501000D01*
X181492000Y-119481000D01*
X180390000Y-119481000D01*
X180238000Y-119633000D01*
X180238000Y-120397938D01*
X180292287Y-120529000D01*
X179549713Y-120529000D01*
X179604000Y-120397938D01*
X179604000Y-119633000D01*
X179452000Y-119481000D01*
X178550000Y-119481000D01*
X178550000Y-119501000D01*
X178242000Y-119501000D01*
X178242000Y-119481000D01*
X176850000Y-119481000D01*
X176850000Y-119501000D01*
X176542000Y-119501000D01*
X176542000Y-119481000D01*
X175640000Y-119481000D01*
X175488000Y-119633000D01*
X175488000Y-120397938D01*
X175542287Y-120529000D01*
X174799713Y-120529000D01*
X174854000Y-120397938D01*
X174854000Y-119633000D01*
X174702000Y-119481000D01*
X173600000Y-119481000D01*
X173600000Y-119501000D01*
X173292000Y-119501000D01*
X173292000Y-119481000D01*
X172190000Y-119481000D01*
X172135665Y-119535335D01*
X171969165Y-119368835D01*
X171847507Y-119287545D01*
X171704000Y-119259000D01*
X163322000Y-119259000D01*
X163178493Y-119287545D01*
X163056835Y-119368835D01*
X160880670Y-121545000D01*
X151166936Y-121545000D01*
X150790311Y-121470085D01*
X150502334Y-121277666D01*
X150309915Y-120989689D01*
X150235000Y-120613068D01*
X150235000Y-118237000D01*
X151313800Y-118237000D01*
X151487355Y-119109518D01*
X151981597Y-119849203D01*
X152721282Y-120343445D01*
X153593800Y-120517000D01*
X154466318Y-120343445D01*
X155206003Y-119849203D01*
X155700245Y-119109518D01*
X155873800Y-118237000D01*
X155700245Y-117364482D01*
X155206003Y-116624797D01*
X154466318Y-116130555D01*
X153593800Y-115957000D01*
X152721282Y-116130555D01*
X151981597Y-116624797D01*
X151487355Y-117364482D01*
X151313800Y-118237000D01*
X150235000Y-118237000D01*
X150235000Y-115936000D01*
X157544123Y-115936000D01*
X157544123Y-118736000D01*
X157565042Y-118847173D01*
X157630745Y-118949279D01*
X157730997Y-119017778D01*
X157850000Y-119041877D01*
X158850000Y-119041877D01*
X158961173Y-119020958D01*
X159063279Y-118955255D01*
X159131778Y-118855003D01*
X159155877Y-118736000D01*
X159155877Y-115936000D01*
X159134958Y-115824827D01*
X159069255Y-115722721D01*
X158969003Y-115654222D01*
X158850000Y-115630123D01*
X157850000Y-115630123D01*
X157738827Y-115651042D01*
X157636721Y-115716745D01*
X157568222Y-115816997D01*
X157544123Y-115936000D01*
X150235000Y-115936000D01*
X150235000Y-109598910D01*
X150992097Y-109598910D01*
X151136523Y-109947616D01*
X151511146Y-110375741D01*
X152021089Y-110627915D01*
X152245998Y-110517857D01*
X152245998Y-110636152D01*
X151937384Y-110697539D01*
X151564297Y-110946827D01*
X151315009Y-111319914D01*
X151227470Y-111760000D01*
X151315009Y-112200086D01*
X151564297Y-112573173D01*
X151937384Y-112822461D01*
X152377470Y-112910000D01*
X152422530Y-112910000D01*
X152862616Y-112822461D01*
X152917183Y-112786000D01*
X157544123Y-112786000D01*
X157544123Y-113586000D01*
X157565042Y-113697173D01*
X157630745Y-113799279D01*
X157730997Y-113867778D01*
X157850000Y-113891877D01*
X158850000Y-113891877D01*
X158961173Y-113870958D01*
X159063279Y-113805255D01*
X159131778Y-113705003D01*
X159155877Y-113586000D01*
X159155877Y-112786000D01*
X159134958Y-112674827D01*
X159069255Y-112572721D01*
X158969003Y-112504222D01*
X158850000Y-112480123D01*
X157850000Y-112480123D01*
X157738827Y-112501042D01*
X157636721Y-112566745D01*
X157568222Y-112666997D01*
X157544123Y-112786000D01*
X152917183Y-112786000D01*
X153235703Y-112573173D01*
X153484991Y-112200086D01*
X153487992Y-112185000D01*
X153797000Y-112185000D01*
X153932657Y-112158016D01*
X153959641Y-112152649D01*
X154097520Y-112060520D01*
X155830039Y-110328001D01*
X155947824Y-110328104D01*
X156168429Y-110236952D01*
X156337359Y-110068317D01*
X156428896Y-109847871D01*
X156429104Y-109609176D01*
X156337952Y-109388571D01*
X156169317Y-109219641D01*
X155948871Y-109128104D01*
X155710176Y-109127896D01*
X155489571Y-109219048D01*
X155320641Y-109387683D01*
X155229104Y-109608129D01*
X155229000Y-109726960D01*
X153620960Y-111335000D01*
X153487992Y-111335000D01*
X153484991Y-111319914D01*
X153235703Y-110946827D01*
X152862616Y-110697539D01*
X152554002Y-110636152D01*
X152554002Y-110517857D01*
X152778911Y-110627915D01*
X153288854Y-110375741D01*
X153663477Y-109947616D01*
X153807903Y-109598910D01*
X153696889Y-109374000D01*
X152554000Y-109374000D01*
X152554000Y-109394000D01*
X152246000Y-109394000D01*
X152246000Y-109374000D01*
X151103111Y-109374000D01*
X150992097Y-109598910D01*
X150235000Y-109598910D01*
X150235000Y-109409053D01*
X150252649Y-109382640D01*
X150285000Y-109220000D01*
X150285000Y-108841090D01*
X150992097Y-108841090D01*
X151103111Y-109066000D01*
X152246000Y-109066000D01*
X152246000Y-109046000D01*
X152554000Y-109046000D01*
X152554000Y-109066000D01*
X153696889Y-109066000D01*
X153807903Y-108841090D01*
X153663477Y-108492384D01*
X153288854Y-108064259D01*
X152778911Y-107812085D01*
X152554002Y-107922143D01*
X152554002Y-107803848D01*
X152862616Y-107742461D01*
X153235703Y-107493173D01*
X153484991Y-107120086D01*
X153572530Y-106680000D01*
X153514050Y-106386000D01*
X157544123Y-106386000D01*
X157544123Y-107586000D01*
X157565042Y-107697173D01*
X157630745Y-107799279D01*
X157730997Y-107867778D01*
X157850000Y-107891877D01*
X158850000Y-107891877D01*
X158961173Y-107870958D01*
X159063279Y-107805255D01*
X159131778Y-107705003D01*
X159155877Y-107586000D01*
X159155877Y-106386000D01*
X159134958Y-106274827D01*
X159069255Y-106172721D01*
X158969003Y-106104222D01*
X158850000Y-106080123D01*
X157850000Y-106080123D01*
X157738827Y-106101042D01*
X157636721Y-106166745D01*
X157568222Y-106266997D01*
X157544123Y-106386000D01*
X153514050Y-106386000D01*
X153484991Y-106239914D01*
X153467421Y-106213619D01*
X156256520Y-103424521D01*
X156337492Y-103303337D01*
X156348649Y-103286640D01*
X156381000Y-103124000D01*
X156381000Y-102992000D01*
X158342000Y-102992000D01*
X158342000Y-103406938D01*
X158434562Y-103630404D01*
X158605595Y-103801437D01*
X158829061Y-103894000D01*
X158994000Y-103894000D01*
X159146000Y-103742000D01*
X159146000Y-102840000D01*
X158494000Y-102840000D01*
X158342000Y-102992000D01*
X156381000Y-102992000D01*
X156381000Y-101965062D01*
X158342000Y-101965062D01*
X158342000Y-102380000D01*
X158494000Y-102532000D01*
X159146000Y-102532000D01*
X159146000Y-101630000D01*
X158994000Y-101478000D01*
X158829061Y-101478000D01*
X158605595Y-101570563D01*
X158434562Y-101741596D01*
X158342000Y-101965062D01*
X156381000Y-101965062D01*
X156381000Y-100887040D01*
X162606520Y-94661520D01*
X162698649Y-94523641D01*
X162709135Y-94470923D01*
X162731000Y-94361000D01*
X162731000Y-94247857D01*
X162813048Y-94446429D01*
X162981683Y-94615359D01*
X163202129Y-94706896D01*
X163264010Y-94706950D01*
X161415961Y-96554999D01*
X161298176Y-96554896D01*
X161077571Y-96646048D01*
X160908641Y-96814683D01*
X160817104Y-97035129D01*
X160816896Y-97273824D01*
X160908048Y-97494429D01*
X161076683Y-97663359D01*
X161251154Y-97735806D01*
X159949480Y-99037480D01*
X159857351Y-99175359D01*
X159857351Y-99175360D01*
X159825000Y-99338000D01*
X159825000Y-101500393D01*
X159770939Y-101478000D01*
X159606000Y-101478000D01*
X159454000Y-101630000D01*
X159454000Y-102532000D01*
X159474000Y-102532000D01*
X159474000Y-102840000D01*
X159454000Y-102840000D01*
X159454000Y-103742000D01*
X159606000Y-103894000D01*
X159770939Y-103894000D01*
X159994405Y-103801437D01*
X160108901Y-103686941D01*
X163344482Y-106922522D01*
X163482361Y-107014651D01*
X163645002Y-107047002D01*
X167786962Y-107047002D01*
X171787000Y-111047041D01*
X171787000Y-112510000D01*
X171798641Y-112568521D01*
X171819351Y-112672641D01*
X171911480Y-112810520D01*
X173192123Y-114091163D01*
X173192123Y-114496000D01*
X173213042Y-114607173D01*
X173278745Y-114709279D01*
X173378997Y-114777778D01*
X173498000Y-114801877D01*
X173998000Y-114801877D01*
X174073000Y-114787765D01*
X174073000Y-115125500D01*
X174092720Y-115224640D01*
X174105351Y-115288141D01*
X174197480Y-115426020D01*
X174291998Y-115520538D01*
X174291998Y-115520998D01*
X174140000Y-115369000D01*
X173275061Y-115369000D01*
X173051595Y-115461563D01*
X172880562Y-115632596D01*
X172788000Y-115856062D01*
X172788000Y-116671000D01*
X172939998Y-116822998D01*
X172803430Y-116822998D01*
X172784958Y-116724827D01*
X172719255Y-116622721D01*
X172619003Y-116554222D01*
X172500000Y-116530123D01*
X171200000Y-116530123D01*
X171088827Y-116551042D01*
X170986721Y-116616745D01*
X170918222Y-116716997D01*
X170894123Y-116836000D01*
X170894123Y-118736000D01*
X170915042Y-118847173D01*
X170980745Y-118949279D01*
X171080997Y-119017778D01*
X171200000Y-119041877D01*
X172058877Y-119041877D01*
X172190000Y-119173000D01*
X173292000Y-119173000D01*
X173292000Y-119153000D01*
X173600000Y-119153000D01*
X173600000Y-119173000D01*
X174702000Y-119173000D01*
X174854000Y-119021000D01*
X174854000Y-118585000D01*
X175488000Y-118585000D01*
X175488000Y-119021000D01*
X175640000Y-119173000D01*
X176542000Y-119173000D01*
X176542000Y-119153000D01*
X176850000Y-119153000D01*
X176850000Y-119173000D01*
X178242000Y-119173000D01*
X178242000Y-117921000D01*
X178090000Y-117769000D01*
X177675061Y-117769000D01*
X177546000Y-117822459D01*
X177416939Y-117769000D01*
X177002000Y-117769000D01*
X176850002Y-117920998D01*
X176850002Y-117782840D01*
X176961438Y-117671404D01*
X176977396Y-117632877D01*
X177096000Y-117632877D01*
X177207173Y-117611958D01*
X177219779Y-117603846D01*
X177226997Y-117608778D01*
X177346000Y-117632877D01*
X177746000Y-117632877D01*
X177857173Y-117611958D01*
X177869779Y-117603846D01*
X177876997Y-117608778D01*
X177996000Y-117632877D01*
X178396000Y-117632877D01*
X178507173Y-117611958D01*
X178519779Y-117603846D01*
X178526997Y-117608778D01*
X178646000Y-117632877D01*
X178988000Y-117632877D01*
X178988000Y-117769000D01*
X178702000Y-117769000D01*
X178550000Y-117921000D01*
X178550000Y-119173000D01*
X179452000Y-119173000D01*
X179604000Y-119021000D01*
X179604000Y-118585000D01*
X180238000Y-118585000D01*
X180238000Y-119021000D01*
X180390000Y-119173000D01*
X181492000Y-119173000D01*
X181492000Y-119153000D01*
X181800000Y-119153000D01*
X181800000Y-119173000D01*
X182902000Y-119173000D01*
X183054000Y-119021000D01*
X183054000Y-118256062D01*
X183019802Y-118173500D01*
X187038900Y-118173500D01*
X187212455Y-119046018D01*
X187706697Y-119785703D01*
X188446382Y-120279945D01*
X189318900Y-120453500D01*
X190191418Y-120279945D01*
X190931103Y-119785703D01*
X191425345Y-119046018D01*
X191598900Y-118173500D01*
X191425345Y-117300982D01*
X190931103Y-116561297D01*
X190191418Y-116067055D01*
X189318900Y-115893500D01*
X188446382Y-116067055D01*
X187706697Y-116561297D01*
X187212455Y-117300982D01*
X187038900Y-118173500D01*
X183019802Y-118173500D01*
X182961438Y-118032596D01*
X182790405Y-117861563D01*
X182566939Y-117769000D01*
X182304000Y-117769000D01*
X182304000Y-117283000D01*
X182152000Y-117131000D01*
X180800000Y-117131000D01*
X180800000Y-117151000D01*
X180492000Y-117151000D01*
X180492000Y-117131000D01*
X180472000Y-117131000D01*
X180472000Y-116823000D01*
X180492000Y-116823000D01*
X180492000Y-115521000D01*
X180800000Y-115521000D01*
X180800000Y-116823000D01*
X182152000Y-116823000D01*
X182304000Y-116671000D01*
X182304000Y-115856062D01*
X182211438Y-115632596D01*
X182040405Y-115461563D01*
X181816939Y-115369000D01*
X180952000Y-115369000D01*
X180800000Y-115521000D01*
X180492000Y-115521000D01*
X180340000Y-115369000D01*
X179872041Y-115369000D01*
X180262041Y-114979000D01*
X182753000Y-114979000D01*
X182888839Y-114951980D01*
X182915641Y-114946649D01*
X183053520Y-114854520D01*
X184670520Y-113237521D01*
X184762648Y-113099641D01*
X184762649Y-113099640D01*
X184795000Y-112937000D01*
X184795000Y-111241173D01*
X184881173Y-111224958D01*
X184983279Y-111159255D01*
X185051778Y-111059003D01*
X185075877Y-110940000D01*
X185075877Y-110040000D01*
X185054958Y-109928827D01*
X184989255Y-109826721D01*
X184889003Y-109758222D01*
X184770000Y-109734123D01*
X184728414Y-109734123D01*
X184670521Y-109647480D01*
X184115001Y-109091961D01*
X184115104Y-108974176D01*
X184087565Y-108907528D01*
X184149061Y-108933000D01*
X184364000Y-108933000D01*
X184516000Y-108781000D01*
X184516000Y-108104000D01*
X183814000Y-108104000D01*
X183662000Y-108256000D01*
X183662000Y-108445938D01*
X183691230Y-108516506D01*
X183634871Y-108493104D01*
X183396176Y-108492896D01*
X183338715Y-108516638D01*
X183368000Y-108445938D01*
X183368000Y-108256000D01*
X183216000Y-108104000D01*
X182514000Y-108104000D01*
X182514000Y-108781000D01*
X182666000Y-108933000D01*
X182880939Y-108933000D01*
X182942325Y-108907573D01*
X182915104Y-108973129D01*
X182914896Y-109211824D01*
X183006048Y-109432429D01*
X183174683Y-109601359D01*
X183395129Y-109692896D01*
X183513959Y-109693000D01*
X183710034Y-109889074D01*
X183688222Y-109920997D01*
X183664123Y-110040000D01*
X183664123Y-110940000D01*
X183685042Y-111051173D01*
X183750745Y-111153279D01*
X183850997Y-111221778D01*
X183945000Y-111240814D01*
X183945000Y-112760959D01*
X183081085Y-113624874D01*
X183091000Y-113600938D01*
X183091000Y-113336000D01*
X182939000Y-113184000D01*
X182358000Y-113184000D01*
X182358000Y-113936000D01*
X182510000Y-114088000D01*
X182603939Y-114088000D01*
X182627874Y-114078086D01*
X182576960Y-114129000D01*
X180086000Y-114129000D01*
X179923359Y-114161351D01*
X179785480Y-114253479D01*
X178621000Y-115417960D01*
X178621000Y-113148824D01*
X178723896Y-113148824D01*
X178815048Y-113369429D01*
X178983683Y-113538359D01*
X179204129Y-113629896D01*
X179442824Y-113630104D01*
X179663429Y-113538952D01*
X179747528Y-113455000D01*
X180177123Y-113455000D01*
X180177123Y-113480000D01*
X180198042Y-113591173D01*
X180263745Y-113693279D01*
X180363997Y-113761778D01*
X180483000Y-113785877D01*
X180983000Y-113785877D01*
X181094173Y-113764958D01*
X181196279Y-113699255D01*
X181264778Y-113599003D01*
X181288877Y-113480000D01*
X181288877Y-113336000D01*
X181375000Y-113336000D01*
X181375000Y-113600938D01*
X181467562Y-113824404D01*
X181638595Y-113995437D01*
X181862061Y-114088000D01*
X181956000Y-114088000D01*
X182108000Y-113936000D01*
X182108000Y-113184000D01*
X181527000Y-113184000D01*
X181375000Y-113336000D01*
X181288877Y-113336000D01*
X181288877Y-112580000D01*
X181267958Y-112468827D01*
X181261675Y-112459062D01*
X181375000Y-112459062D01*
X181375000Y-112724000D01*
X181527000Y-112876000D01*
X182108000Y-112876000D01*
X182108000Y-112124000D01*
X182358000Y-112124000D01*
X182358000Y-112876000D01*
X182939000Y-112876000D01*
X183091000Y-112724000D01*
X183091000Y-112459062D01*
X182998438Y-112235596D01*
X182827405Y-112064563D01*
X182603939Y-111972000D01*
X182510000Y-111972000D01*
X182358000Y-112124000D01*
X182108000Y-112124000D01*
X181956000Y-111972000D01*
X181862061Y-111972000D01*
X181638595Y-112064563D01*
X181467562Y-112235596D01*
X181375000Y-112459062D01*
X181261675Y-112459062D01*
X181202255Y-112366721D01*
X181102003Y-112298222D01*
X180983000Y-112274123D01*
X180483000Y-112274123D01*
X180371827Y-112295042D01*
X180269721Y-112360745D01*
X180201222Y-112460997D01*
X180177123Y-112580000D01*
X180177123Y-112605000D01*
X179747530Y-112605000D01*
X179664317Y-112521641D01*
X179443871Y-112430104D01*
X179205176Y-112429896D01*
X178984571Y-112521048D01*
X178815641Y-112689683D01*
X178724104Y-112910129D01*
X178723896Y-113148824D01*
X178621000Y-113148824D01*
X178621000Y-111878824D01*
X178723896Y-111878824D01*
X178815048Y-112099429D01*
X178983683Y-112268359D01*
X179204129Y-112359896D01*
X179442824Y-112360104D01*
X179663429Y-112268952D01*
X179747528Y-112185000D01*
X181229000Y-112185000D01*
X181364657Y-112158016D01*
X181391641Y-112152649D01*
X181529520Y-112060520D01*
X182344164Y-111245877D01*
X182483000Y-111245877D01*
X182594173Y-111224958D01*
X182696279Y-111159255D01*
X182764778Y-111059003D01*
X182788877Y-110940000D01*
X182788877Y-110040000D01*
X182767958Y-109928827D01*
X182702255Y-109826721D01*
X182602003Y-109758222D01*
X182483000Y-109734123D01*
X181983000Y-109734123D01*
X181871827Y-109755042D01*
X181769721Y-109820745D01*
X181701222Y-109920997D01*
X181677123Y-110040000D01*
X181677123Y-110710836D01*
X181052960Y-111335000D01*
X179747530Y-111335000D01*
X179664317Y-111251641D01*
X179443871Y-111160104D01*
X179205176Y-111159896D01*
X178984571Y-111251048D01*
X178815641Y-111419683D01*
X178724104Y-111640129D01*
X178723896Y-111878824D01*
X178621000Y-111878824D01*
X178621000Y-105298000D01*
X178588649Y-105135360D01*
X178588649Y-105135359D01*
X178496521Y-104997480D01*
X177971000Y-104471960D01*
X177971000Y-103889460D01*
X178094683Y-104013359D01*
X178315129Y-104104896D01*
X178553824Y-104105104D01*
X178774429Y-104013952D01*
X178943359Y-103845317D01*
X179034896Y-103624871D01*
X179035104Y-103386176D01*
X178943952Y-103165571D01*
X178932847Y-103154446D01*
X179023279Y-103096255D01*
X179091778Y-102996003D01*
X179115877Y-102877000D01*
X179115877Y-102077000D01*
X179094958Y-101965827D01*
X179070182Y-101927324D01*
X179154404Y-101892438D01*
X179325437Y-101721405D01*
X179418000Y-101497939D01*
X179418000Y-101283000D01*
X179266000Y-101131000D01*
X178589000Y-101131000D01*
X178589000Y-101151000D01*
X178281000Y-101151000D01*
X178281000Y-101131000D01*
X178261000Y-101131000D01*
X178261000Y-100823000D01*
X178281000Y-100823000D01*
X178281000Y-100121000D01*
X178589000Y-100121000D01*
X178589000Y-100823000D01*
X179266000Y-100823000D01*
X179418000Y-100671000D01*
X179418000Y-100456061D01*
X179325437Y-100232595D01*
X179154404Y-100061562D01*
X178930938Y-99969000D01*
X178741000Y-99969000D01*
X178589000Y-100121000D01*
X178281000Y-100121000D01*
X178129000Y-99969000D01*
X177971000Y-99969000D01*
X177971000Y-99885500D01*
X177938649Y-99722860D01*
X177938649Y-99722859D01*
X177846520Y-99584980D01*
X177617399Y-99355859D01*
X177713593Y-99337758D01*
X177805333Y-99278725D01*
X177967683Y-99441359D01*
X178188129Y-99532896D01*
X178426824Y-99533104D01*
X178647429Y-99441952D01*
X178816359Y-99273317D01*
X178907896Y-99052871D01*
X178908104Y-98814176D01*
X178847044Y-98666398D01*
X178942158Y-98571284D01*
X179034720Y-98347818D01*
X179034720Y-98316650D01*
X178882720Y-98164650D01*
X178231800Y-98164650D01*
X178231800Y-98226880D01*
X178165477Y-98226880D01*
X178140441Y-98210151D01*
X178113457Y-98204784D01*
X177977800Y-98177800D01*
X177923800Y-98177800D01*
X177923800Y-98164650D01*
X177903800Y-98164650D01*
X177903800Y-98040190D01*
X177923800Y-98040190D01*
X177923800Y-98032377D01*
X178231800Y-98032377D01*
X178231800Y-98040190D01*
X178882720Y-98040190D01*
X179034720Y-97888190D01*
X179034720Y-97857022D01*
X178984075Y-97734754D01*
X179155429Y-97663952D01*
X179324359Y-97495317D01*
X179415896Y-97274871D01*
X179416104Y-97036176D01*
X179324952Y-96815571D01*
X179156317Y-96646641D01*
X179034720Y-96596150D01*
X179034720Y-96447278D01*
X178974492Y-96447278D01*
X179034720Y-96387050D01*
X179034720Y-96355882D01*
X178942158Y-96132416D01*
X178771125Y-95961383D01*
X178726268Y-95942802D01*
X178711678Y-95865267D01*
X178703082Y-95851909D01*
X178708498Y-95843983D01*
X178732597Y-95724980D01*
X178732597Y-95476060D01*
X178711678Y-95364887D01*
X178703924Y-95352837D01*
X178708498Y-95346143D01*
X178725741Y-95260996D01*
X178771125Y-95242197D01*
X178942158Y-95071164D01*
X179034720Y-94847698D01*
X179034720Y-94816530D01*
X178882720Y-94664530D01*
X178231800Y-94664530D01*
X178231800Y-94672343D01*
X177923800Y-94672343D01*
X177923800Y-94664530D01*
X177903800Y-94664530D01*
X177903800Y-94540070D01*
X177923800Y-94540070D01*
X177923800Y-94021840D01*
X178231800Y-94021840D01*
X178231800Y-94540070D01*
X178882720Y-94540070D01*
X179034720Y-94388070D01*
X179034720Y-94356902D01*
X178942158Y-94133436D01*
X178771125Y-93962403D01*
X178547659Y-93869840D01*
X178383800Y-93869840D01*
X178231800Y-94021840D01*
X177923800Y-94021840D01*
X177908297Y-94006337D01*
X177908297Y-93651920D01*
X177887378Y-93540747D01*
X177871454Y-93516000D01*
X177990500Y-93516000D01*
X178126157Y-93489016D01*
X178153141Y-93483649D01*
X178291020Y-93391520D01*
X178735520Y-92947020D01*
X178827649Y-92809141D01*
X178860000Y-92646500D01*
X178860000Y-92364877D01*
X178885000Y-92364877D01*
X178996173Y-92343958D01*
X179098279Y-92278255D01*
X179166778Y-92178003D01*
X179190877Y-92059000D01*
X179190877Y-91559000D01*
X179169958Y-91447827D01*
X179104255Y-91345721D01*
X179004003Y-91277222D01*
X178885000Y-91253123D01*
X177985000Y-91253123D01*
X177873827Y-91274042D01*
X177771721Y-91339745D01*
X177703222Y-91439997D01*
X177679123Y-91559000D01*
X177679123Y-92059000D01*
X177700042Y-92170173D01*
X177765745Y-92272279D01*
X177865997Y-92340778D01*
X177985000Y-92364877D01*
X178010000Y-92364877D01*
X178010000Y-92470460D01*
X177814460Y-92666000D01*
X176557490Y-92666000D01*
X176574000Y-92583000D01*
X176574000Y-92364877D01*
X176599000Y-92364877D01*
X176710173Y-92343958D01*
X176812279Y-92278255D01*
X176880778Y-92178003D01*
X176904877Y-92059000D01*
X176904877Y-91559000D01*
X176883958Y-91447827D01*
X176818255Y-91345721D01*
X176718003Y-91277222D01*
X176599000Y-91253123D01*
X175699000Y-91253123D01*
X175587827Y-91274042D01*
X175485721Y-91339745D01*
X175417222Y-91439997D01*
X175393123Y-91559000D01*
X175393123Y-92059000D01*
X175411751Y-92158000D01*
X174879000Y-92158000D01*
X174868140Y-92160160D01*
X174857188Y-92158561D01*
X174787192Y-92176262D01*
X174716360Y-92190351D01*
X174707155Y-92196502D01*
X174696421Y-92199216D01*
X174638508Y-92242370D01*
X174578480Y-92282480D01*
X174572331Y-92291683D01*
X174563452Y-92298299D01*
X173645965Y-93315195D01*
X173605613Y-93382865D01*
X173577465Y-93428000D01*
X173111040Y-93428000D01*
X174163520Y-92375521D01*
X174170632Y-92364877D01*
X174313000Y-92364877D01*
X174424173Y-92343958D01*
X174526279Y-92278255D01*
X174594778Y-92178003D01*
X174618877Y-92059000D01*
X174618877Y-91559000D01*
X174597958Y-91447827D01*
X174532255Y-91345721D01*
X174432003Y-91277222D01*
X174313000Y-91253123D01*
X173413000Y-91253123D01*
X173301827Y-91274042D01*
X173199721Y-91339745D01*
X173131222Y-91439997D01*
X173107123Y-91559000D01*
X173107123Y-92059000D01*
X173128042Y-92170173D01*
X173143212Y-92193748D01*
X173136581Y-92200379D01*
X173101952Y-92116571D01*
X172933317Y-91947641D01*
X172712871Y-91856104D01*
X172594041Y-91856000D01*
X172324520Y-91586480D01*
X172186641Y-91494351D01*
X172149684Y-91487000D01*
X172059502Y-91469062D01*
X172041958Y-91375827D01*
X171976255Y-91273721D01*
X171876003Y-91205222D01*
X171757000Y-91181123D01*
X170857000Y-91181123D01*
X170745827Y-91202042D01*
X170643721Y-91267745D01*
X170575222Y-91367997D01*
X170551123Y-91487000D01*
X170551123Y-92287000D01*
X170572042Y-92398173D01*
X170637745Y-92500279D01*
X170737997Y-92568778D01*
X170781082Y-92577503D01*
X170723104Y-92717129D01*
X170722896Y-92955824D01*
X170780608Y-93095497D01*
X170745827Y-93102042D01*
X170643721Y-93167745D01*
X170575222Y-93267997D01*
X170551123Y-93387000D01*
X170551123Y-94187000D01*
X170572042Y-94298173D01*
X170637745Y-94400279D01*
X170737997Y-94468778D01*
X170857000Y-94492877D01*
X171733083Y-94492877D01*
X171006480Y-95219480D01*
X170914351Y-95357359D01*
X170914351Y-95357360D01*
X170882000Y-95520000D01*
X170882000Y-95626123D01*
X170857000Y-95626123D01*
X170745827Y-95647042D01*
X170714003Y-95667520D01*
X170699649Y-95595360D01*
X170699649Y-95595359D01*
X170607521Y-95457480D01*
X169732000Y-94581960D01*
X169732000Y-93542877D01*
X169757000Y-93542877D01*
X169868173Y-93521958D01*
X169970279Y-93456255D01*
X170038778Y-93356003D01*
X170062877Y-93237000D01*
X170062877Y-92437000D01*
X170041958Y-92325827D01*
X169976255Y-92223721D01*
X169876003Y-92155222D01*
X169757000Y-92131123D01*
X169737632Y-92131123D01*
X169763896Y-92067871D01*
X169764104Y-91829176D01*
X169672952Y-91608571D01*
X169504317Y-91439641D01*
X169283871Y-91348104D01*
X169045176Y-91347896D01*
X168824571Y-91439048D01*
X168655641Y-91607683D01*
X168564104Y-91828129D01*
X168563896Y-92066824D01*
X168632837Y-92233674D01*
X168575222Y-92317997D01*
X168551123Y-92437000D01*
X168551123Y-93237000D01*
X168572042Y-93348173D01*
X168637745Y-93450279D01*
X168737997Y-93518778D01*
X168857000Y-93542877D01*
X168882000Y-93542877D01*
X168882000Y-94758000D01*
X168908984Y-94893657D01*
X168914351Y-94920641D01*
X169006480Y-95058520D01*
X169882000Y-95934041D01*
X169882000Y-96604320D01*
X169876003Y-96600222D01*
X169757000Y-96576123D01*
X169567164Y-96576123D01*
X168621001Y-95629961D01*
X168621104Y-95512176D01*
X168529952Y-95291571D01*
X168361317Y-95122641D01*
X168140871Y-95031104D01*
X167902176Y-95030896D01*
X167681571Y-95122048D01*
X167512641Y-95290683D01*
X167421104Y-95511129D01*
X167420896Y-95749824D01*
X167512048Y-95970429D01*
X167680683Y-96139359D01*
X167901129Y-96230896D01*
X168019959Y-96231000D01*
X168571304Y-96782345D01*
X168551123Y-96882000D01*
X168551123Y-97682000D01*
X168572042Y-97793173D01*
X168637745Y-97895279D01*
X168737997Y-97963778D01*
X168857000Y-97987877D01*
X168993000Y-97987877D01*
X168993000Y-99949000D01*
X169015390Y-100061562D01*
X169025351Y-100111641D01*
X169117480Y-100249520D01*
X170145480Y-101277521D01*
X170283359Y-101369649D01*
X170446000Y-101402000D01*
X172041000Y-101402000D01*
X172041000Y-102489000D01*
X172064844Y-102608871D01*
X172073351Y-102651641D01*
X172165480Y-102789520D01*
X173776083Y-104400123D01*
X173593163Y-104400123D01*
X173032520Y-103839480D01*
X172894641Y-103747351D01*
X172867657Y-103741984D01*
X172732000Y-103715000D01*
X168705041Y-103715000D01*
X168502337Y-103512296D01*
X168513279Y-103505255D01*
X168581778Y-103405003D01*
X168605877Y-103286000D01*
X168605877Y-102086000D01*
X168694123Y-102086000D01*
X168694123Y-103286000D01*
X168715042Y-103397173D01*
X168780745Y-103499279D01*
X168880997Y-103567778D01*
X169000000Y-103591877D01*
X170000000Y-103591877D01*
X170111173Y-103570958D01*
X170213279Y-103505255D01*
X170281778Y-103405003D01*
X170305877Y-103286000D01*
X170305877Y-102086000D01*
X170284958Y-101974827D01*
X170219255Y-101872721D01*
X170119003Y-101804222D01*
X170000000Y-101780123D01*
X169000000Y-101780123D01*
X168888827Y-101801042D01*
X168786721Y-101866745D01*
X168718222Y-101966997D01*
X168694123Y-102086000D01*
X168605877Y-102086000D01*
X168584958Y-101974827D01*
X168519255Y-101872721D01*
X168419003Y-101804222D01*
X168375000Y-101795311D01*
X168375000Y-101205406D01*
X168529359Y-101051317D01*
X168620896Y-100830871D01*
X168621104Y-100592176D01*
X168529952Y-100371571D01*
X168361317Y-100202641D01*
X168140871Y-100111104D01*
X167902176Y-100110896D01*
X167681571Y-100202048D01*
X167512641Y-100370683D01*
X167421104Y-100591129D01*
X167420896Y-100829824D01*
X167512048Y-101050429D01*
X167525000Y-101063404D01*
X167525000Y-101794235D01*
X167488827Y-101801042D01*
X167398972Y-101858862D01*
X167319003Y-101804222D01*
X167275000Y-101795311D01*
X167275000Y-97733482D01*
X167386359Y-97622317D01*
X167477896Y-97401871D01*
X167478104Y-97163176D01*
X167386952Y-96942571D01*
X167218317Y-96773641D01*
X166997871Y-96682104D01*
X166759176Y-96681896D01*
X166538571Y-96773048D01*
X166369641Y-96941683D01*
X166278104Y-97162129D01*
X166277896Y-97400824D01*
X166369048Y-97621429D01*
X166425000Y-97677479D01*
X166425000Y-101794235D01*
X166388827Y-101801042D01*
X166298972Y-101858862D01*
X166219003Y-101804222D01*
X166175000Y-101795311D01*
X166175000Y-95284040D01*
X166244039Y-95215001D01*
X166361824Y-95215104D01*
X166582429Y-95123952D01*
X166751359Y-94955317D01*
X166842896Y-94734871D01*
X166843104Y-94496176D01*
X166751952Y-94275571D01*
X166583317Y-94106641D01*
X166362871Y-94015104D01*
X166174101Y-94014940D01*
X170226520Y-89962521D01*
X170318648Y-89824641D01*
X170318649Y-89824640D01*
X170351000Y-89662000D01*
X170351000Y-87841076D01*
X170456330Y-87770696D01*
X170561000Y-87614047D01*
X170665670Y-87770696D01*
X170771000Y-87841076D01*
X170771000Y-88138000D01*
X170789173Y-88229360D01*
X170803351Y-88300641D01*
X170895480Y-88438520D01*
X171149479Y-88692520D01*
X171204077Y-88729001D01*
X171287360Y-88784649D01*
X171450000Y-88817000D01*
X172337264Y-88817000D01*
X172247104Y-89034129D01*
X172246896Y-89272824D01*
X172338048Y-89493429D01*
X172506683Y-89662359D01*
X172727129Y-89753896D01*
X172845960Y-89754000D01*
X173114505Y-90022545D01*
X173107123Y-90059000D01*
X173107123Y-90559000D01*
X173128042Y-90670173D01*
X173193745Y-90772279D01*
X173293997Y-90840778D01*
X173413000Y-90864877D01*
X173582470Y-90864877D01*
X173700360Y-90943649D01*
X173863000Y-90976000D01*
X174025640Y-90943649D01*
X174143530Y-90864877D01*
X174313000Y-90864877D01*
X174424173Y-90843958D01*
X174526279Y-90778255D01*
X174591022Y-90683500D01*
X174624048Y-90763429D01*
X174792683Y-90932359D01*
X175013129Y-91023896D01*
X175251824Y-91024104D01*
X175472429Y-90932952D01*
X175570954Y-90834599D01*
X175579997Y-90840778D01*
X175699000Y-90864877D01*
X176599000Y-90864877D01*
X176710173Y-90843958D01*
X176812279Y-90778255D01*
X176880778Y-90678003D01*
X176904877Y-90559000D01*
X176904877Y-90059000D01*
X176883958Y-89947827D01*
X176818255Y-89845721D01*
X176718003Y-89777222D01*
X176599000Y-89753123D01*
X175699000Y-89753123D01*
X175587827Y-89774042D01*
X175485721Y-89839745D01*
X175455483Y-89884000D01*
X175397117Y-89884000D01*
X175252871Y-89824104D01*
X175014176Y-89823896D01*
X174793571Y-89915048D01*
X174624641Y-90083683D01*
X174618877Y-90097564D01*
X174618877Y-90059000D01*
X174597958Y-89947827D01*
X174532255Y-89845721D01*
X174432003Y-89777222D01*
X174313000Y-89753123D01*
X174047163Y-89753123D01*
X173447001Y-89152961D01*
X173447104Y-89035176D01*
X173356956Y-88817000D01*
X176657000Y-88817000D01*
X176792657Y-88790016D01*
X176819641Y-88784649D01*
X176957520Y-88692520D01*
X177468041Y-88182000D01*
X177925264Y-88182000D01*
X177835104Y-88399129D01*
X177834896Y-88637824D01*
X177926048Y-88858429D01*
X178010000Y-88942528D01*
X178010000Y-89753123D01*
X177985000Y-89753123D01*
X177873827Y-89774042D01*
X177771721Y-89839745D01*
X177703222Y-89939997D01*
X177679123Y-90059000D01*
X177679123Y-90559000D01*
X177700042Y-90670173D01*
X177765745Y-90772279D01*
X177865997Y-90840778D01*
X177985000Y-90864877D01*
X178885000Y-90864877D01*
X178996173Y-90843958D01*
X179098279Y-90778255D01*
X179166778Y-90678003D01*
X179190877Y-90559000D01*
X179190877Y-90059000D01*
X179169958Y-89947827D01*
X179104255Y-89845721D01*
X179004003Y-89777222D01*
X178885000Y-89753123D01*
X178860000Y-89753123D01*
X178860000Y-88942530D01*
X178943359Y-88859317D01*
X179034896Y-88638871D01*
X179035104Y-88400176D01*
X178944956Y-88182000D01*
X182830960Y-88182000D01*
X186519000Y-91870041D01*
X186519000Y-92236397D01*
X186428003Y-92174222D01*
X186309000Y-92150123D01*
X180213000Y-92150123D01*
X180101827Y-92171042D01*
X179999721Y-92236745D01*
X179931222Y-92336997D01*
X179907123Y-92456000D01*
X179907123Y-98552000D01*
X179928042Y-98663173D01*
X179993745Y-98765279D01*
X180093997Y-98833778D01*
X180213000Y-98857877D01*
X186309000Y-98857877D01*
X186420173Y-98836958D01*
X186522279Y-98771255D01*
X186590778Y-98671003D01*
X186614877Y-98552000D01*
X186614877Y-98301713D01*
X186643480Y-98344520D01*
X187321168Y-99022208D01*
X187190871Y-98968104D01*
X186952176Y-98967896D01*
X186731571Y-99059048D01*
X186647472Y-99143000D01*
X183261000Y-99143000D01*
X183098360Y-99175351D01*
X183098347Y-99175360D01*
X182960479Y-99267480D01*
X182055574Y-100172385D01*
X182019755Y-100116721D01*
X181919503Y-100048222D01*
X181800500Y-100024123D01*
X180149500Y-100024123D01*
X180038327Y-100045042D01*
X179936221Y-100110745D01*
X179867722Y-100210997D01*
X179843623Y-100330000D01*
X179843623Y-103378000D01*
X179864542Y-103489173D01*
X179930245Y-103591279D01*
X180030497Y-103659778D01*
X180149500Y-103683877D01*
X180328650Y-103683877D01*
X180212641Y-103799683D01*
X180121104Y-104020129D01*
X180120896Y-104258824D01*
X180212048Y-104479429D01*
X180296000Y-104563528D01*
X180296000Y-104784035D01*
X180246721Y-104815745D01*
X180178222Y-104915997D01*
X180154123Y-105035000D01*
X180154123Y-105785000D01*
X180175042Y-105896173D01*
X180240745Y-105998279D01*
X180340997Y-106066778D01*
X180435000Y-106085814D01*
X180435000Y-107273827D01*
X180348827Y-107290042D01*
X180246721Y-107355745D01*
X180178222Y-107455997D01*
X180154123Y-107575000D01*
X180154123Y-108325000D01*
X180175042Y-108436173D01*
X180240745Y-108538279D01*
X180340997Y-108606778D01*
X180435000Y-108625814D01*
X180435000Y-109743155D01*
X180371827Y-109755042D01*
X180269721Y-109820745D01*
X180201222Y-109920997D01*
X180177123Y-110040000D01*
X180177123Y-110940000D01*
X180198042Y-111051173D01*
X180263745Y-111153279D01*
X180363997Y-111221778D01*
X180483000Y-111245877D01*
X180983000Y-111245877D01*
X181094173Y-111224958D01*
X181196279Y-111159255D01*
X181264778Y-111059003D01*
X181288877Y-110940000D01*
X181288877Y-110040000D01*
X181285000Y-110019396D01*
X181285000Y-108626173D01*
X181371173Y-108609958D01*
X181409676Y-108585182D01*
X181444562Y-108669404D01*
X181615595Y-108840437D01*
X181839061Y-108933000D01*
X182054000Y-108933000D01*
X182206000Y-108781000D01*
X182206000Y-108104000D01*
X182186000Y-108104000D01*
X182186000Y-107796000D01*
X182206000Y-107796000D01*
X182206000Y-107119000D01*
X182514000Y-107119000D01*
X182514000Y-107796000D01*
X183216000Y-107796000D01*
X183368000Y-107644000D01*
X183368000Y-107454062D01*
X183662000Y-107454062D01*
X183662000Y-107644000D01*
X183814000Y-107796000D01*
X184516000Y-107796000D01*
X184516000Y-107119000D01*
X184364000Y-106967000D01*
X184149061Y-106967000D01*
X183925595Y-107059563D01*
X183754562Y-107230596D01*
X183662000Y-107454062D01*
X183368000Y-107454062D01*
X183275438Y-107230596D01*
X183104405Y-107059563D01*
X182880939Y-106967000D01*
X182666000Y-106967000D01*
X182514000Y-107119000D01*
X182206000Y-107119000D01*
X182054000Y-106967000D01*
X181839061Y-106967000D01*
X181615595Y-107059563D01*
X181444562Y-107230596D01*
X181409882Y-107314321D01*
X181379003Y-107293222D01*
X181285000Y-107274186D01*
X181285000Y-106086173D01*
X181371173Y-106069958D01*
X181409676Y-106045182D01*
X181444562Y-106129404D01*
X181615595Y-106300437D01*
X181839061Y-106393000D01*
X182054000Y-106393000D01*
X182206000Y-106241000D01*
X182206000Y-105564000D01*
X182514000Y-105564000D01*
X182514000Y-106241000D01*
X182666000Y-106393000D01*
X182880939Y-106393000D01*
X183104405Y-106300437D01*
X183275438Y-106129404D01*
X183368000Y-105905938D01*
X183368000Y-105716000D01*
X183662000Y-105716000D01*
X183662000Y-105905938D01*
X183754562Y-106129404D01*
X183925595Y-106300437D01*
X184149061Y-106393000D01*
X184364000Y-106393000D01*
X184516000Y-106241000D01*
X184516000Y-105564000D01*
X183814000Y-105564000D01*
X183662000Y-105716000D01*
X183368000Y-105716000D01*
X183216000Y-105564000D01*
X182514000Y-105564000D01*
X182206000Y-105564000D01*
X182186000Y-105564000D01*
X182186000Y-105256000D01*
X182206000Y-105256000D01*
X182206000Y-104579000D01*
X182514000Y-104579000D01*
X182514000Y-105256000D01*
X183216000Y-105256000D01*
X183368000Y-105104000D01*
X183368000Y-104914062D01*
X183662000Y-104914062D01*
X183662000Y-105104000D01*
X183814000Y-105256000D01*
X184516000Y-105256000D01*
X184516000Y-104579000D01*
X184824000Y-104579000D01*
X184824000Y-105256000D01*
X184844000Y-105256000D01*
X184844000Y-105564000D01*
X184824000Y-105564000D01*
X184824000Y-106241000D01*
X184976000Y-106393000D01*
X185190939Y-106393000D01*
X185414405Y-106300437D01*
X185585438Y-106129404D01*
X185620118Y-106045679D01*
X185650997Y-106066778D01*
X185745000Y-106085814D01*
X185745000Y-107273827D01*
X185658827Y-107290042D01*
X185620324Y-107314818D01*
X185585438Y-107230596D01*
X185414405Y-107059563D01*
X185190939Y-106967000D01*
X184976000Y-106967000D01*
X184824000Y-107119000D01*
X184824000Y-107796000D01*
X184844000Y-107796000D01*
X184844000Y-108104000D01*
X184824000Y-108104000D01*
X184824000Y-108781000D01*
X184976000Y-108933000D01*
X185190939Y-108933000D01*
X185414405Y-108840437D01*
X185585438Y-108669404D01*
X185620118Y-108585679D01*
X185650997Y-108606778D01*
X185745000Y-108625814D01*
X185745000Y-110190000D01*
X185756641Y-110248521D01*
X185764123Y-110286137D01*
X185764123Y-110940000D01*
X185785042Y-111051173D01*
X185850745Y-111153279D01*
X185950997Y-111221778D01*
X186070000Y-111245877D01*
X186624837Y-111245877D01*
X187439479Y-112060520D01*
X187476118Y-112085001D01*
X187577360Y-112152649D01*
X187740000Y-112185000D01*
X189412008Y-112185000D01*
X189415009Y-112200086D01*
X189664297Y-112573173D01*
X190037384Y-112822461D01*
X190477470Y-112910000D01*
X190522530Y-112910000D01*
X190962616Y-112822461D01*
X191335703Y-112573173D01*
X191584991Y-112200086D01*
X191672530Y-111760000D01*
X191584991Y-111319914D01*
X191335703Y-110946827D01*
X190962616Y-110697539D01*
X190522530Y-110610000D01*
X190477470Y-110610000D01*
X190037384Y-110697539D01*
X189664297Y-110946827D01*
X189415009Y-111319914D01*
X189412008Y-111335000D01*
X187916041Y-111335000D01*
X187175877Y-110594837D01*
X187175877Y-110040000D01*
X187154958Y-109928827D01*
X187089255Y-109826721D01*
X186989003Y-109758222D01*
X186870000Y-109734123D01*
X186595000Y-109734123D01*
X186595000Y-108626173D01*
X186681173Y-108609958D01*
X186783279Y-108544255D01*
X186851778Y-108444003D01*
X186875877Y-108325000D01*
X186875877Y-107575000D01*
X186854958Y-107463827D01*
X186789255Y-107361721D01*
X186689003Y-107293222D01*
X186595000Y-107274186D01*
X186595000Y-107058910D01*
X189092097Y-107058910D01*
X189236523Y-107407616D01*
X189611146Y-107835741D01*
X190121089Y-108087915D01*
X190345998Y-107977857D01*
X190345998Y-108096152D01*
X190037384Y-108157539D01*
X189664297Y-108406827D01*
X189415009Y-108779914D01*
X189327470Y-109220000D01*
X189415009Y-109660086D01*
X189664297Y-110033173D01*
X190037384Y-110282461D01*
X190477470Y-110370000D01*
X190522530Y-110370000D01*
X190962616Y-110282461D01*
X191335703Y-110033173D01*
X191584991Y-109660086D01*
X191672530Y-109220000D01*
X191584991Y-108779914D01*
X191335703Y-108406827D01*
X190962616Y-108157539D01*
X190654002Y-108096152D01*
X190654002Y-107977857D01*
X190878911Y-108087915D01*
X191388854Y-107835741D01*
X191763477Y-107407616D01*
X191907903Y-107058910D01*
X191796889Y-106834000D01*
X190654000Y-106834000D01*
X190654000Y-106854000D01*
X190346000Y-106854000D01*
X190346000Y-106834000D01*
X189203111Y-106834000D01*
X189092097Y-107058910D01*
X186595000Y-107058910D01*
X186595000Y-106086173D01*
X186681173Y-106069958D01*
X186783279Y-106004255D01*
X186851778Y-105904003D01*
X186875877Y-105785000D01*
X186875877Y-105305163D01*
X186990520Y-105190520D01*
X187082649Y-105052641D01*
X187094440Y-104993360D01*
X187115000Y-104890000D01*
X187115000Y-104690530D01*
X187198359Y-104607317D01*
X187235068Y-104518910D01*
X189092097Y-104518910D01*
X189236523Y-104867616D01*
X189611146Y-105295741D01*
X189842199Y-105410000D01*
X189611146Y-105524259D01*
X189236523Y-105952384D01*
X189092097Y-106301090D01*
X189203111Y-106526000D01*
X190346000Y-106526000D01*
X190346000Y-104294000D01*
X190654000Y-104294000D01*
X190654000Y-106526000D01*
X191796889Y-106526000D01*
X191907903Y-106301090D01*
X191763477Y-105952384D01*
X191388854Y-105524259D01*
X191157801Y-105410000D01*
X191388854Y-105295741D01*
X191763477Y-104867616D01*
X191907903Y-104518910D01*
X191796889Y-104294000D01*
X190654000Y-104294000D01*
X190346000Y-104294000D01*
X189203111Y-104294000D01*
X189092097Y-104518910D01*
X187235068Y-104518910D01*
X187289896Y-104386871D01*
X187290104Y-104148176D01*
X187198952Y-103927571D01*
X187030317Y-103758641D01*
X186896026Y-103702878D01*
X186980500Y-103498938D01*
X186980500Y-102160000D01*
X186828500Y-102008000D01*
X185701000Y-102008000D01*
X185701000Y-103834000D01*
X185853000Y-103986000D01*
X186157010Y-103986000D01*
X186090104Y-104147129D01*
X186089896Y-104385824D01*
X186181048Y-104606429D01*
X186265000Y-104690528D01*
X186265000Y-104713960D01*
X186249837Y-104729123D01*
X185770000Y-104729123D01*
X185658827Y-104750042D01*
X185620324Y-104774818D01*
X185585438Y-104690596D01*
X185414405Y-104519563D01*
X185190939Y-104427000D01*
X184976000Y-104427000D01*
X184824000Y-104579000D01*
X184516000Y-104579000D01*
X184364000Y-104427000D01*
X184149061Y-104427000D01*
X183925595Y-104519563D01*
X183754562Y-104690596D01*
X183662000Y-104914062D01*
X183368000Y-104914062D01*
X183275438Y-104690596D01*
X183104405Y-104519563D01*
X182880939Y-104427000D01*
X182666000Y-104427000D01*
X182514000Y-104579000D01*
X182206000Y-104579000D01*
X182054000Y-104427000D01*
X181839061Y-104427000D01*
X181615595Y-104519563D01*
X181444562Y-104690596D01*
X181409882Y-104774321D01*
X181379003Y-104753222D01*
X181260000Y-104729123D01*
X181146000Y-104729123D01*
X181146000Y-104563530D01*
X181229359Y-104480317D01*
X181320896Y-104259871D01*
X181321019Y-104118426D01*
X181367648Y-104048641D01*
X181367649Y-104048640D01*
X181400000Y-103886000D01*
X181400000Y-103683877D01*
X181800500Y-103683877D01*
X181911673Y-103662958D01*
X182013779Y-103597255D01*
X182082278Y-103497003D01*
X182106377Y-103378000D01*
X182106377Y-102160000D01*
X184113500Y-102160000D01*
X184113500Y-103498938D01*
X184206062Y-103722404D01*
X184377095Y-103893437D01*
X184600561Y-103986000D01*
X185241000Y-103986000D01*
X185393000Y-103834000D01*
X185393000Y-102008000D01*
X184265500Y-102008000D01*
X184113500Y-102160000D01*
X182106377Y-102160000D01*
X182106377Y-101323663D01*
X183437041Y-99993000D01*
X184202995Y-99993000D01*
X184113500Y-100209062D01*
X184113500Y-101548000D01*
X184265500Y-101700000D01*
X185393000Y-101700000D01*
X185393000Y-101680000D01*
X185701000Y-101680000D01*
X185701000Y-101700000D01*
X186828500Y-101700000D01*
X186980500Y-101548000D01*
X186980500Y-100209062D01*
X186963453Y-100167907D01*
X187069960Y-100168000D01*
X188502999Y-101601039D01*
X188502896Y-101718824D01*
X188594048Y-101939429D01*
X188762683Y-102108359D01*
X188983129Y-102199896D01*
X189221824Y-102200104D01*
X189442429Y-102108952D01*
X189453583Y-102097817D01*
X189664297Y-102413173D01*
X190037384Y-102662461D01*
X190345998Y-102723848D01*
X190345998Y-102842143D01*
X190121089Y-102732085D01*
X189611146Y-102984259D01*
X189236523Y-103412384D01*
X189092097Y-103761090D01*
X189203111Y-103986000D01*
X190346000Y-103986000D01*
X190346000Y-103966000D01*
X190654000Y-103966000D01*
X190654000Y-103986000D01*
X191796889Y-103986000D01*
X191907903Y-103761090D01*
X191763477Y-103412384D01*
X191388854Y-102984259D01*
X190878911Y-102732085D01*
X190654002Y-102842143D01*
X190654002Y-102723848D01*
X190962616Y-102662461D01*
X191335703Y-102413173D01*
X191584991Y-102040086D01*
X191672530Y-101600000D01*
X191584991Y-101159914D01*
X191335703Y-100786827D01*
X190962616Y-100537539D01*
X190522530Y-100450000D01*
X190477470Y-100450000D01*
X190038381Y-100537341D01*
X187369000Y-97867960D01*
X187369000Y-96511925D01*
X187405480Y-96566520D01*
X189432579Y-98593619D01*
X189415009Y-98619914D01*
X189327470Y-99060000D01*
X189415009Y-99500086D01*
X189664297Y-99873173D01*
X190037384Y-100122461D01*
X190477470Y-100210000D01*
X190522530Y-100210000D01*
X190962616Y-100122461D01*
X191335703Y-99873173D01*
X191584991Y-99500086D01*
X191672530Y-99060000D01*
X191584991Y-98619914D01*
X191335703Y-98246827D01*
X190962616Y-97997539D01*
X190522530Y-97910000D01*
X190477470Y-97910000D01*
X190038381Y-97997341D01*
X188131000Y-96089960D01*
X188131000Y-93101040D01*
X188678000Y-93648041D01*
X188678000Y-95123000D01*
X188701710Y-95242197D01*
X188710351Y-95285641D01*
X188802480Y-95423520D01*
X189432579Y-96053619D01*
X189415009Y-96079914D01*
X189327470Y-96520000D01*
X189415009Y-96960086D01*
X189664297Y-97333173D01*
X190037384Y-97582461D01*
X190477470Y-97670000D01*
X190522530Y-97670000D01*
X190962616Y-97582461D01*
X191335703Y-97333173D01*
X191584991Y-96960086D01*
X191672530Y-96520000D01*
X191584991Y-96079914D01*
X191335703Y-95706827D01*
X190962616Y-95457539D01*
X190522530Y-95370000D01*
X190477470Y-95370000D01*
X190038381Y-95457341D01*
X189528000Y-94946960D01*
X189528000Y-94589189D01*
X189664297Y-94793173D01*
X190037384Y-95042461D01*
X190477470Y-95130000D01*
X190522530Y-95130000D01*
X190962616Y-95042461D01*
X191335703Y-94793173D01*
X191584991Y-94420086D01*
X191672530Y-93980000D01*
X191584991Y-93539914D01*
X191335703Y-93166827D01*
X190962616Y-92917539D01*
X190522530Y-92830000D01*
X190477470Y-92830000D01*
X190038381Y-92917341D01*
X189274000Y-92152960D01*
X189274000Y-91059000D01*
X189241649Y-90896360D01*
X189241649Y-90896359D01*
X189149521Y-90758480D01*
X180470520Y-82079480D01*
X180332641Y-81987351D01*
X180305657Y-81981984D01*
X180170000Y-81955000D01*
X177182076Y-81955000D01*
X177111696Y-81849670D01*
X176955047Y-81745000D01*
X177111696Y-81640330D01*
X177182076Y-81535000D01*
X179993960Y-81535000D01*
X189432579Y-90973619D01*
X189415009Y-90999914D01*
X189327470Y-91440000D01*
X189415009Y-91880086D01*
X189664297Y-92253173D01*
X190037384Y-92502461D01*
X190477470Y-92590000D01*
X190522530Y-92590000D01*
X190962616Y-92502461D01*
X191335703Y-92253173D01*
X191584991Y-91880086D01*
X191672530Y-91440000D01*
X191584991Y-90999914D01*
X191335703Y-90626827D01*
X190962616Y-90377539D01*
X190522530Y-90290000D01*
X190477470Y-90290000D01*
X190038381Y-90377341D01*
X180470520Y-80809480D01*
X180332641Y-80717351D01*
X180305657Y-80711984D01*
X180170000Y-80685000D01*
X177182076Y-80685000D01*
X177111696Y-80579670D01*
X176955047Y-80475000D01*
X177111696Y-80370330D01*
X177182076Y-80265000D01*
X181263960Y-80265000D01*
X189432579Y-88433619D01*
X189415009Y-88459914D01*
X189327470Y-88900000D01*
X189415009Y-89340086D01*
X189664297Y-89713173D01*
X190037384Y-89962461D01*
X190477470Y-90050000D01*
X190522530Y-90050000D01*
X190962616Y-89962461D01*
X191335703Y-89713173D01*
X191584991Y-89340086D01*
X191672530Y-88900000D01*
X191584991Y-88459914D01*
X191335703Y-88086827D01*
X190962616Y-87837539D01*
X190522530Y-87750000D01*
X190477470Y-87750000D01*
X190038381Y-87837341D01*
X181740520Y-79539480D01*
X181602641Y-79447351D01*
X181575657Y-79441984D01*
X181440000Y-79415000D01*
X177182076Y-79415000D01*
X177111696Y-79309670D01*
X176955047Y-79205000D01*
X177111696Y-79100330D01*
X177182076Y-78995000D01*
X182533960Y-78995000D01*
X189432578Y-85893619D01*
X189415009Y-85919914D01*
X189327470Y-86360000D01*
X189415009Y-86800086D01*
X189664297Y-87173173D01*
X190037384Y-87422461D01*
X190477470Y-87510000D01*
X190522530Y-87510000D01*
X190962616Y-87422461D01*
X191335703Y-87173173D01*
X191584991Y-86800086D01*
X191672530Y-86360000D01*
X191584991Y-85919914D01*
X191335703Y-85546827D01*
X190962616Y-85297539D01*
X190522530Y-85210000D01*
X190477470Y-85210000D01*
X190038381Y-85297341D01*
X183010520Y-78269480D01*
X182872641Y-78177351D01*
X182845657Y-78171984D01*
X182710000Y-78145000D01*
X177182076Y-78145000D01*
X177111696Y-78039670D01*
X176955047Y-77935000D01*
X177111696Y-77830330D01*
X177182076Y-77725000D01*
X183803960Y-77725000D01*
X189432578Y-83353619D01*
X189415009Y-83379914D01*
X189327470Y-83820000D01*
X189415009Y-84260086D01*
X189664297Y-84633173D01*
X190037384Y-84882461D01*
X190477470Y-84970000D01*
X190522530Y-84970000D01*
X190962616Y-84882461D01*
X191335703Y-84633173D01*
X191584991Y-84260086D01*
X191672530Y-83820000D01*
X191584991Y-83379914D01*
X191335703Y-83006827D01*
X190962616Y-82757539D01*
X190522530Y-82670000D01*
X190477470Y-82670000D01*
X190038381Y-82757341D01*
X184280520Y-76999480D01*
X184142641Y-76907351D01*
X184115657Y-76901984D01*
X183980000Y-76875000D01*
X177182076Y-76875000D01*
X177111696Y-76769670D01*
X176955047Y-76665000D01*
X177111696Y-76560330D01*
X177274276Y-76317013D01*
X177331366Y-76030000D01*
X177274276Y-75742987D01*
X177111696Y-75499670D01*
X176955047Y-75395000D01*
X177111696Y-75290330D01*
X177182076Y-75185000D01*
X183803960Y-75185000D01*
X189432578Y-80813619D01*
X189415009Y-80839914D01*
X189327470Y-81280000D01*
X189415009Y-81720086D01*
X189664297Y-82093173D01*
X190037384Y-82342461D01*
X190477470Y-82430000D01*
X190522530Y-82430000D01*
X190962616Y-82342461D01*
X191335703Y-82093173D01*
X191584991Y-81720086D01*
X191672530Y-81280000D01*
X191584991Y-80839914D01*
X191335703Y-80466827D01*
X190962616Y-80217539D01*
X190522530Y-80130000D01*
X190477470Y-80130000D01*
X190038381Y-80217341D01*
X184280520Y-74459480D01*
X184142641Y-74367351D01*
X184115657Y-74361984D01*
X183980000Y-74335000D01*
X179116535Y-74335000D01*
X179197359Y-74254317D01*
X179288896Y-74033871D01*
X179289104Y-73795176D01*
X179197952Y-73574571D01*
X179029317Y-73405641D01*
X178808871Y-73314104D01*
X178690041Y-73314000D01*
X178565520Y-73189480D01*
X178427641Y-73097351D01*
X178400657Y-73091984D01*
X178265000Y-73065000D01*
X177182076Y-73065000D01*
X177111696Y-72959670D01*
X176955047Y-72855000D01*
X177111696Y-72750330D01*
X177274276Y-72507013D01*
X177331366Y-72220000D01*
X177274276Y-71932987D01*
X177111696Y-71689670D01*
X176955047Y-71585000D01*
X177111696Y-71480330D01*
X177182076Y-71375000D01*
X182533960Y-71375000D01*
X189432578Y-78273619D01*
X189415009Y-78299914D01*
X189327470Y-78740000D01*
X189415009Y-79180086D01*
X189664297Y-79553173D01*
X190037384Y-79802461D01*
X190477470Y-79890000D01*
X190522530Y-79890000D01*
X190962616Y-79802461D01*
X191335703Y-79553173D01*
X191584991Y-79180086D01*
X191672530Y-78740000D01*
X191584991Y-78299914D01*
X191335703Y-77926827D01*
X190962616Y-77677539D01*
X190522530Y-77590000D01*
X190477470Y-77590000D01*
X190038381Y-77677341D01*
X183010520Y-70649480D01*
X182872641Y-70557351D01*
X182845657Y-70551984D01*
X182710000Y-70525000D01*
X177182076Y-70525000D01*
X177111696Y-70419670D01*
X176955047Y-70315000D01*
X177111696Y-70210330D01*
X177182076Y-70105000D01*
X183803960Y-70105000D01*
X189432578Y-75733619D01*
X189415009Y-75759914D01*
X189327470Y-76200000D01*
X189415009Y-76640086D01*
X189664297Y-77013173D01*
X190037384Y-77262461D01*
X190477470Y-77350000D01*
X190522530Y-77350000D01*
X190962616Y-77262461D01*
X191335703Y-77013173D01*
X191584991Y-76640086D01*
X191672530Y-76200000D01*
X191584991Y-75759914D01*
X191335703Y-75386827D01*
X190962616Y-75137539D01*
X190522530Y-75050000D01*
X190477470Y-75050000D01*
X190038381Y-75137341D01*
X186327040Y-71426000D01*
X189042000Y-71426000D01*
X189042000Y-72090938D01*
X189134562Y-72314404D01*
X189305595Y-72485437D01*
X189529061Y-72578000D01*
X190135613Y-72578000D01*
X190037384Y-72597539D01*
X189664297Y-72846827D01*
X189415009Y-73219914D01*
X189327470Y-73660000D01*
X189415009Y-74100086D01*
X189664297Y-74473173D01*
X190037384Y-74722461D01*
X190477470Y-74810000D01*
X190522530Y-74810000D01*
X190962616Y-74722461D01*
X191335703Y-74473173D01*
X191584991Y-74100086D01*
X191672530Y-73660000D01*
X191584991Y-73219914D01*
X191335703Y-72846827D01*
X190962616Y-72597539D01*
X190864387Y-72578000D01*
X191470939Y-72578000D01*
X191694405Y-72485437D01*
X191865438Y-72314404D01*
X191958000Y-72090938D01*
X191958000Y-71426000D01*
X191806000Y-71274000D01*
X190654000Y-71274000D01*
X190654000Y-71294000D01*
X190346000Y-71294000D01*
X190346000Y-71274000D01*
X189194000Y-71274000D01*
X189042000Y-71426000D01*
X186327040Y-71426000D01*
X185050102Y-70149062D01*
X189042000Y-70149062D01*
X189042000Y-70814000D01*
X189194000Y-70966000D01*
X190346000Y-70966000D01*
X190346000Y-69814000D01*
X190654000Y-69814000D01*
X190654000Y-70966000D01*
X191806000Y-70966000D01*
X191958000Y-70814000D01*
X191958000Y-70149062D01*
X191865438Y-69925596D01*
X191694405Y-69754563D01*
X191470939Y-69662000D01*
X190806000Y-69662000D01*
X190654000Y-69814000D01*
X190346000Y-69814000D01*
X190194000Y-69662000D01*
X189529061Y-69662000D01*
X189305595Y-69754563D01*
X189134562Y-69925596D01*
X189042000Y-70149062D01*
X185050102Y-70149062D01*
X184280520Y-69379480D01*
X184142641Y-69287351D01*
X184115657Y-69281984D01*
X183980000Y-69255000D01*
X177182076Y-69255000D01*
X177181194Y-69253681D01*
X177408014Y-69049224D01*
X177560754Y-68725849D01*
X177443816Y-68564000D01*
X175905000Y-68564000D01*
X175905000Y-68584000D01*
X175597000Y-68584000D01*
X175597000Y-68564000D01*
X174058184Y-68564000D01*
X173941246Y-68725849D01*
X174093986Y-69049224D01*
X174320806Y-69253681D01*
X174227724Y-69392987D01*
X174170634Y-69680000D01*
X174227724Y-69967013D01*
X174390304Y-70210330D01*
X174546953Y-70315000D01*
X174390304Y-70419670D01*
X174227724Y-70662987D01*
X174170634Y-70950000D01*
X174227724Y-71237013D01*
X174390304Y-71480330D01*
X174546953Y-71585000D01*
X174390304Y-71689670D01*
X174227724Y-71932987D01*
X174170634Y-72220000D01*
X174174504Y-72239456D01*
X172972961Y-73440999D01*
X172855176Y-73440896D01*
X172634571Y-73532048D01*
X172465641Y-73700683D01*
X172374104Y-73921129D01*
X172373896Y-74159824D01*
X172465048Y-74380429D01*
X172633683Y-74549359D01*
X172854129Y-74640896D01*
X173092824Y-74641104D01*
X173313429Y-74549952D01*
X173482359Y-74381317D01*
X173573896Y-74160871D01*
X173574000Y-74042040D01*
X174181707Y-73434333D01*
X174170634Y-73490000D01*
X174227724Y-73777013D01*
X174390304Y-74020330D01*
X174546953Y-74125000D01*
X174390304Y-74229670D01*
X174227724Y-74472987D01*
X174170634Y-74760000D01*
X174227724Y-75047013D01*
X174390304Y-75290330D01*
X174546953Y-75395000D01*
X174390304Y-75499670D01*
X174227724Y-75742987D01*
X174170634Y-76030000D01*
X174227724Y-76317013D01*
X174390304Y-76560330D01*
X174546953Y-76665000D01*
X174390304Y-76769670D01*
X174227724Y-77012987D01*
X174170634Y-77300000D01*
X174227724Y-77587013D01*
X174390304Y-77830330D01*
X174546953Y-77935000D01*
X174390304Y-78039670D01*
X174227724Y-78282987D01*
X174170634Y-78570000D01*
X174227724Y-78857013D01*
X174390304Y-79100330D01*
X174546953Y-79205000D01*
X174390304Y-79309670D01*
X174227724Y-79552987D01*
X174170634Y-79840000D01*
X174227724Y-80127013D01*
X174390304Y-80370330D01*
X174546953Y-80475000D01*
X174390304Y-80579670D01*
X174227724Y-80822987D01*
X174170634Y-81110000D01*
X174227724Y-81397013D01*
X174390304Y-81640330D01*
X174546953Y-81745000D01*
X174390304Y-81849670D01*
X174227724Y-82092987D01*
X174170634Y-82380000D01*
X174227724Y-82667013D01*
X174390304Y-82910330D01*
X174546953Y-83015000D01*
X174390304Y-83119670D01*
X174227724Y-83362987D01*
X174170634Y-83650000D01*
X174227724Y-83937013D01*
X174390304Y-84180330D01*
X174546953Y-84285000D01*
X174390304Y-84389670D01*
X174227724Y-84632987D01*
X174170634Y-84920000D01*
X174227724Y-85207013D01*
X174390304Y-85450330D01*
X174633621Y-85612910D01*
X174920634Y-85670000D01*
X175326000Y-85670000D01*
X175326000Y-85840954D01*
X175301571Y-85851048D01*
X175132641Y-86019683D01*
X175041104Y-86240129D01*
X175040896Y-86478824D01*
X175078569Y-86570000D01*
X174928040Y-86570000D01*
X174467520Y-86109480D01*
X174329641Y-86017351D01*
X174302657Y-86011984D01*
X174167000Y-85985000D01*
X173216000Y-85985000D01*
X173216000Y-85579634D01*
X173158910Y-85292621D01*
X172996330Y-85049304D01*
X172753013Y-84886724D01*
X172466000Y-84829634D01*
X172178987Y-84886724D01*
X171935670Y-85049304D01*
X171831000Y-85205953D01*
X171726330Y-85049304D01*
X171483013Y-84886724D01*
X171196000Y-84829634D01*
X170908987Y-84886724D01*
X170665670Y-85049304D01*
X170561000Y-85205953D01*
X170456330Y-85049304D01*
X170213013Y-84886724D01*
X169926000Y-84829634D01*
X169638987Y-84886724D01*
X169395670Y-85049304D01*
X169291000Y-85205953D01*
X169186330Y-85049304D01*
X168943013Y-84886724D01*
X168656000Y-84829634D01*
X168368987Y-84886724D01*
X168125670Y-85049304D01*
X168021000Y-85205953D01*
X167916330Y-85049304D01*
X167673013Y-84886724D01*
X167386000Y-84829634D01*
X167098987Y-84886724D01*
X166855670Y-85049304D01*
X166751000Y-85205953D01*
X166646330Y-85049304D01*
X166403013Y-84886724D01*
X166116000Y-84829634D01*
X165828987Y-84886724D01*
X165585670Y-85049304D01*
X165481000Y-85205953D01*
X165376330Y-85049304D01*
X165133013Y-84886724D01*
X164846000Y-84829634D01*
X164558987Y-84886724D01*
X164315670Y-85049304D01*
X164211000Y-85205953D01*
X164106330Y-85049304D01*
X163863013Y-84886724D01*
X163576000Y-84829634D01*
X163288987Y-84886724D01*
X163045670Y-85049304D01*
X162941000Y-85205953D01*
X162836330Y-85049304D01*
X162593013Y-84886724D01*
X162306000Y-84829634D01*
X162018987Y-84886724D01*
X161879681Y-84979806D01*
X161675224Y-84752986D01*
X161351849Y-84600246D01*
X161190000Y-84717184D01*
X161190000Y-86256000D01*
X161210000Y-86256000D01*
X161210000Y-86564000D01*
X161190000Y-86564000D01*
X161190000Y-88102816D01*
X161351849Y-88219754D01*
X161675224Y-88067014D01*
X161879681Y-87840194D01*
X161881000Y-87841076D01*
X161881000Y-94184960D01*
X155655480Y-100410480D01*
X155563351Y-100548359D01*
X155563351Y-100548360D01*
X155531000Y-100711000D01*
X155531000Y-102947959D01*
X152861619Y-105617341D01*
X152422530Y-105530000D01*
X152377470Y-105530000D01*
X151937384Y-105617539D01*
X151564297Y-105866827D01*
X151315009Y-106239914D01*
X151227470Y-106680000D01*
X151315009Y-107120086D01*
X151564297Y-107493173D01*
X151937384Y-107742461D01*
X152245998Y-107803848D01*
X152245998Y-107922143D01*
X152021089Y-107812085D01*
X151511146Y-108064259D01*
X151136523Y-108492384D01*
X150992097Y-108841090D01*
X150285000Y-108841090D01*
X150285000Y-106856040D01*
X150287520Y-106853520D01*
X150379649Y-106715641D01*
X150411999Y-106553000D01*
X150379649Y-106390359D01*
X150287520Y-106252480D01*
X150235000Y-106217387D01*
X150235000Y-96520000D01*
X151227470Y-96520000D01*
X151315009Y-96960086D01*
X151564297Y-97333173D01*
X151937384Y-97582461D01*
X152377470Y-97670000D01*
X152422530Y-97670000D01*
X152862616Y-97582461D01*
X153235703Y-97333173D01*
X153484991Y-96960086D01*
X153572530Y-96520000D01*
X153484991Y-96079914D01*
X153235703Y-95706827D01*
X152862616Y-95457539D01*
X152422530Y-95370000D01*
X152377470Y-95370000D01*
X151937384Y-95457539D01*
X151564297Y-95706827D01*
X151315009Y-96079914D01*
X151227470Y-96520000D01*
X150235000Y-96520000D01*
X150235000Y-93980000D01*
X151227470Y-93980000D01*
X151315009Y-94420086D01*
X151564297Y-94793173D01*
X151937384Y-95042461D01*
X152377470Y-95130000D01*
X152422530Y-95130000D01*
X152862616Y-95042461D01*
X153235703Y-94793173D01*
X153484991Y-94420086D01*
X153572530Y-93980000D01*
X153484991Y-93539914D01*
X153235703Y-93166827D01*
X152862616Y-92917539D01*
X152422530Y-92830000D01*
X152377470Y-92830000D01*
X151937384Y-92917539D01*
X151564297Y-93166827D01*
X151315009Y-93539914D01*
X151227470Y-93980000D01*
X150235000Y-93980000D01*
X150235000Y-91440000D01*
X151227470Y-91440000D01*
X151315009Y-91880086D01*
X151564297Y-92253173D01*
X151937384Y-92502461D01*
X152377470Y-92590000D01*
X152422530Y-92590000D01*
X152862616Y-92502461D01*
X153235703Y-92253173D01*
X153484991Y-91880086D01*
X153572530Y-91440000D01*
X153484991Y-90999914D01*
X153235703Y-90626827D01*
X152862616Y-90377539D01*
X152422530Y-90290000D01*
X152377470Y-90290000D01*
X151937384Y-90377539D01*
X151564297Y-90626827D01*
X151315009Y-90999914D01*
X151227470Y-91440000D01*
X150235000Y-91440000D01*
X150235000Y-88900000D01*
X151227470Y-88900000D01*
X151315009Y-89340086D01*
X151564297Y-89713173D01*
X151937384Y-89962461D01*
X152377470Y-90050000D01*
X152422530Y-90050000D01*
X152862616Y-89962461D01*
X153235703Y-89713173D01*
X153484991Y-89340086D01*
X153572530Y-88900000D01*
X153484991Y-88459914D01*
X153235703Y-88086827D01*
X152862616Y-87837539D01*
X152422530Y-87750000D01*
X152377470Y-87750000D01*
X151937384Y-87837539D01*
X151564297Y-88086827D01*
X151315009Y-88459914D01*
X151227470Y-88900000D01*
X150235000Y-88900000D01*
X150235000Y-86360000D01*
X151227470Y-86360000D01*
X151315009Y-86800086D01*
X151564297Y-87173173D01*
X151937384Y-87422461D01*
X152377470Y-87510000D01*
X152422530Y-87510000D01*
X152862616Y-87422461D01*
X153235703Y-87173173D01*
X153484991Y-86800086D01*
X153572530Y-86360000D01*
X153484991Y-85919914D01*
X153235703Y-85546827D01*
X152862616Y-85297539D01*
X152422530Y-85210000D01*
X152377470Y-85210000D01*
X151937384Y-85297539D01*
X151564297Y-85546827D01*
X151315009Y-85919914D01*
X151227470Y-86360000D01*
X150235000Y-86360000D01*
X150235000Y-71426000D01*
X150942000Y-71426000D01*
X150942000Y-72090938D01*
X151034562Y-72314404D01*
X151205595Y-72485437D01*
X151429061Y-72578000D01*
X152035613Y-72578000D01*
X151937384Y-72597539D01*
X151564297Y-72846827D01*
X151315009Y-73219914D01*
X151227470Y-73660000D01*
X151315009Y-74100086D01*
X151564297Y-74473173D01*
X151937384Y-74722461D01*
X152377470Y-74810000D01*
X152422530Y-74810000D01*
X152862616Y-74722461D01*
X153235703Y-74473173D01*
X153484991Y-74100086D01*
X153500985Y-74019678D01*
X153589520Y-73960520D01*
X154605520Y-72944520D01*
X154642000Y-72889925D01*
X154642000Y-73356959D01*
X152861619Y-75137341D01*
X152422530Y-75050000D01*
X152377470Y-75050000D01*
X151937384Y-75137539D01*
X151564297Y-75386827D01*
X151315009Y-75759914D01*
X151227470Y-76200000D01*
X151315009Y-76640086D01*
X151564297Y-77013173D01*
X151937384Y-77262461D01*
X152377470Y-77350000D01*
X152422530Y-77350000D01*
X152862616Y-77262461D01*
X153235703Y-77013173D01*
X153484991Y-76640086D01*
X153572530Y-76200000D01*
X153484991Y-75759914D01*
X153467421Y-75733619D01*
X154007000Y-75194040D01*
X154007000Y-76531960D01*
X152861619Y-77677341D01*
X152422530Y-77590000D01*
X152377470Y-77590000D01*
X151937384Y-77677539D01*
X151564297Y-77926827D01*
X151315009Y-78299914D01*
X151227470Y-78740000D01*
X151315009Y-79180086D01*
X151564297Y-79553173D01*
X151937384Y-79802461D01*
X152377470Y-79890000D01*
X152422530Y-79890000D01*
X152862616Y-79802461D01*
X153235703Y-79553173D01*
X153484991Y-79180086D01*
X153572530Y-78740000D01*
X153484991Y-78299914D01*
X153467421Y-78273619D01*
X153782041Y-77958999D01*
X153753000Y-78105000D01*
X153753000Y-79325959D01*
X152861619Y-80217341D01*
X152422530Y-80130000D01*
X152377470Y-80130000D01*
X151937384Y-80217539D01*
X151564297Y-80466827D01*
X151315009Y-80839914D01*
X151227470Y-81280000D01*
X151315009Y-81720086D01*
X151564297Y-82093173D01*
X151937384Y-82342461D01*
X152377470Y-82430000D01*
X152422530Y-82430000D01*
X152862616Y-82342461D01*
X153235703Y-82093173D01*
X153484991Y-81720086D01*
X153572530Y-81280000D01*
X153484991Y-80839914D01*
X153467421Y-80813619D01*
X154478521Y-79802520D01*
X154515000Y-79747925D01*
X154515000Y-81103959D01*
X152861619Y-82757341D01*
X152422530Y-82670000D01*
X152377470Y-82670000D01*
X151937384Y-82757539D01*
X151564297Y-83006827D01*
X151315009Y-83379914D01*
X151227470Y-83820000D01*
X151315009Y-84260086D01*
X151564297Y-84633173D01*
X151937384Y-84882461D01*
X152377470Y-84970000D01*
X152422530Y-84970000D01*
X152862616Y-84882461D01*
X153235703Y-84633173D01*
X153484991Y-84260086D01*
X153572530Y-83820000D01*
X153484991Y-83379914D01*
X153467421Y-83353619D01*
X155240520Y-81580521D01*
X155332648Y-81442641D01*
X155332649Y-81442640D01*
X155365000Y-81280000D01*
X155365000Y-78535040D01*
X155875521Y-78024520D01*
X155967649Y-77886641D01*
X156000000Y-77724000D01*
X156000000Y-75614040D01*
X156363630Y-75250410D01*
X156390304Y-75290330D01*
X156546953Y-75395000D01*
X156390304Y-75499670D01*
X156227724Y-75742987D01*
X156170634Y-76030000D01*
X156227724Y-76317013D01*
X156390304Y-76560330D01*
X156546953Y-76665000D01*
X156390304Y-76769670D01*
X156227724Y-77012987D01*
X156170634Y-77300000D01*
X156227724Y-77587013D01*
X156390304Y-77830330D01*
X156546953Y-77935000D01*
X156390304Y-78039670D01*
X156227724Y-78282987D01*
X156170634Y-78570000D01*
X156227724Y-78857013D01*
X156390304Y-79100330D01*
X156546953Y-79205000D01*
X156390304Y-79309670D01*
X156227724Y-79552987D01*
X156170634Y-79840000D01*
X156227724Y-80127013D01*
X156390304Y-80370330D01*
X156546953Y-80475000D01*
X156390304Y-80579670D01*
X156227724Y-80822987D01*
X156170634Y-81110000D01*
X156227724Y-81397013D01*
X156390304Y-81640330D01*
X156546953Y-81745000D01*
X156390304Y-81849670D01*
X156261164Y-82042941D01*
X156206480Y-82079480D01*
X154258480Y-84027480D01*
X154166351Y-84165359D01*
X154166351Y-84165360D01*
X154134000Y-84328000D01*
X154134000Y-97994960D01*
X153493960Y-98635000D01*
X153487992Y-98635000D01*
X153484991Y-98619914D01*
X153235703Y-98246827D01*
X152862616Y-97997539D01*
X152422530Y-97910000D01*
X152377470Y-97910000D01*
X151937384Y-97997539D01*
X151564297Y-98246827D01*
X151315009Y-98619914D01*
X151227470Y-99060000D01*
X151315009Y-99500086D01*
X151564297Y-99873173D01*
X151937384Y-100122461D01*
X152377470Y-100210000D01*
X152422530Y-100210000D01*
X152862616Y-100122461D01*
X153235703Y-99873173D01*
X153484991Y-99500086D01*
X153487992Y-99485000D01*
X153670000Y-99485000D01*
X153805657Y-99458016D01*
X153832641Y-99452649D01*
X153970520Y-99360520D01*
X154859520Y-98471520D01*
X154896000Y-98416925D01*
X154896000Y-98756959D01*
X153014162Y-100638798D01*
X152862616Y-100537539D01*
X152422530Y-100450000D01*
X152377470Y-100450000D01*
X151937384Y-100537539D01*
X151564297Y-100786827D01*
X151315009Y-101159914D01*
X151227470Y-101600000D01*
X151315009Y-102040086D01*
X151564297Y-102413173D01*
X151937384Y-102662461D01*
X152377470Y-102750000D01*
X152422530Y-102750000D01*
X152862616Y-102662461D01*
X153235703Y-102413173D01*
X153484991Y-102040086D01*
X153572530Y-101600000D01*
X153519855Y-101335185D01*
X154671041Y-100183999D01*
X154642000Y-100330000D01*
X154642000Y-101677959D01*
X153090293Y-103229667D01*
X152862616Y-103077539D01*
X152422530Y-102990000D01*
X152377470Y-102990000D01*
X151937384Y-103077539D01*
X151564297Y-103326827D01*
X151315009Y-103699914D01*
X151227470Y-104140000D01*
X151315009Y-104580086D01*
X151564297Y-104953173D01*
X151937384Y-105202461D01*
X152377470Y-105290000D01*
X152422530Y-105290000D01*
X152862616Y-105202461D01*
X153235703Y-104953173D01*
X153484991Y-104580086D01*
X153572530Y-104140000D01*
X153540926Y-103981115D01*
X155367520Y-102154521D01*
X155454063Y-102025000D01*
X155459649Y-102016640D01*
X155492000Y-101854000D01*
X155492000Y-100506040D01*
X158051520Y-97946521D01*
X158143648Y-97808641D01*
X158143649Y-97808640D01*
X158176000Y-97646000D01*
X158176000Y-86564000D01*
X159978000Y-86564000D01*
X159978000Y-87364000D01*
X160117469Y-87757157D01*
X160396776Y-88067014D01*
X160720151Y-88219754D01*
X160882000Y-88102816D01*
X160882000Y-86564000D01*
X159978000Y-86564000D01*
X158176000Y-86564000D01*
X158176000Y-85670000D01*
X158581366Y-85670000D01*
X158868379Y-85612910D01*
X159103210Y-85456000D01*
X159978000Y-85456000D01*
X159978000Y-86256000D01*
X160882000Y-86256000D01*
X160882000Y-84717184D01*
X160720151Y-84600246D01*
X160396776Y-84752986D01*
X160117469Y-85062843D01*
X159978000Y-85456000D01*
X159103210Y-85456000D01*
X159111696Y-85450330D01*
X159274276Y-85207013D01*
X159331366Y-84920000D01*
X159274276Y-84632987D01*
X159111696Y-84389670D01*
X158955047Y-84285000D01*
X159111696Y-84180330D01*
X159274276Y-83937013D01*
X159331366Y-83650000D01*
X159274276Y-83362987D01*
X159111696Y-83119670D01*
X158955047Y-83015000D01*
X159111696Y-82910330D01*
X159274276Y-82667013D01*
X159331366Y-82380000D01*
X159274276Y-82092987D01*
X159111696Y-81849670D01*
X158955047Y-81745000D01*
X159111696Y-81640330D01*
X159182076Y-81535000D01*
X159300227Y-81535000D01*
X159519129Y-81625896D01*
X159757824Y-81626104D01*
X159978429Y-81534952D01*
X160147359Y-81366317D01*
X160238896Y-81145871D01*
X160239104Y-80907176D01*
X160147952Y-80686571D01*
X159979317Y-80517641D01*
X159758871Y-80426104D01*
X159520176Y-80425896D01*
X159299571Y-80517048D01*
X159161769Y-80654609D01*
X159111696Y-80579670D01*
X158955047Y-80475000D01*
X159111696Y-80370330D01*
X159182076Y-80265000D01*
X159301000Y-80265000D01*
X159436657Y-80238016D01*
X159463641Y-80232649D01*
X159469157Y-80228963D01*
X159630824Y-80229104D01*
X159851429Y-80137952D01*
X160020359Y-79969317D01*
X160111896Y-79748871D01*
X160112104Y-79510176D01*
X160020952Y-79289571D01*
X159852317Y-79120641D01*
X159636811Y-79031155D01*
X159724429Y-78994952D01*
X159893359Y-78826317D01*
X159984896Y-78605871D01*
X159985104Y-78367176D01*
X159893952Y-78146571D01*
X159725317Y-77977641D01*
X159504871Y-77886104D01*
X159266176Y-77885896D01*
X159045571Y-77977048D01*
X159034506Y-77988093D01*
X158955047Y-77935000D01*
X159111696Y-77830330D01*
X159182076Y-77725000D01*
X159300227Y-77725000D01*
X159519129Y-77815896D01*
X159757824Y-77816104D01*
X159978429Y-77724952D01*
X160147359Y-77556317D01*
X160238896Y-77335871D01*
X160239104Y-77097176D01*
X160147952Y-76876571D01*
X159979317Y-76707641D01*
X159758871Y-76616104D01*
X159520176Y-76615896D01*
X159299571Y-76707048D01*
X159161769Y-76844609D01*
X159111696Y-76769670D01*
X158955047Y-76665000D01*
X159111696Y-76560330D01*
X159182076Y-76455000D01*
X159428000Y-76455000D01*
X159563657Y-76428016D01*
X159590641Y-76422649D01*
X159596157Y-76418963D01*
X159757824Y-76419104D01*
X159978429Y-76327952D01*
X160147359Y-76159317D01*
X160238896Y-75938871D01*
X160239104Y-75700176D01*
X160147952Y-75479571D01*
X159979317Y-75310641D01*
X159758871Y-75219104D01*
X159520176Y-75218896D01*
X159299571Y-75310048D01*
X159130641Y-75478683D01*
X159118005Y-75509113D01*
X159111696Y-75499670D01*
X158955047Y-75395000D01*
X159111696Y-75290330D01*
X159274276Y-75047013D01*
X159331366Y-74760000D01*
X159274276Y-74472987D01*
X159111696Y-74229670D01*
X158955047Y-74125000D01*
X159111696Y-74020330D01*
X159274276Y-73777013D01*
X159331366Y-73490000D01*
X159274276Y-73202987D01*
X159111696Y-72959670D01*
X158955047Y-72855000D01*
X159111696Y-72750330D01*
X159274276Y-72507013D01*
X159331366Y-72220000D01*
X159274276Y-71932987D01*
X159111696Y-71689670D01*
X158955047Y-71585000D01*
X159111696Y-71480330D01*
X159175621Y-71384661D01*
X161119000Y-73328041D01*
X161119000Y-80475470D01*
X161035641Y-80558683D01*
X160944104Y-80779129D01*
X160943896Y-81017824D01*
X161035048Y-81238429D01*
X161203683Y-81407359D01*
X161424129Y-81498896D01*
X161662824Y-81499104D01*
X161883429Y-81407952D01*
X162052359Y-81239317D01*
X162143896Y-81018871D01*
X162144104Y-80780176D01*
X162052952Y-80559571D01*
X161969000Y-80475472D01*
X161969000Y-76416000D01*
X162843000Y-76416000D01*
X162843000Y-79230938D01*
X162935562Y-79454404D01*
X163106595Y-79625437D01*
X163330061Y-79718000D01*
X166145000Y-79718000D01*
X166297000Y-79566000D01*
X166297000Y-76264000D01*
X166605000Y-76264000D01*
X166605000Y-79566000D01*
X166757000Y-79718000D01*
X169571939Y-79718000D01*
X169795405Y-79625437D01*
X169966438Y-79454404D01*
X170059000Y-79230938D01*
X170059000Y-76416000D01*
X169907000Y-76264000D01*
X166605000Y-76264000D01*
X166297000Y-76264000D01*
X162995000Y-76264000D01*
X162843000Y-76416000D01*
X161969000Y-76416000D01*
X161969000Y-73152000D01*
X161936649Y-72989360D01*
X161936450Y-72989062D01*
X162843000Y-72989062D01*
X162843000Y-75804000D01*
X162995000Y-75956000D01*
X166297000Y-75956000D01*
X166297000Y-72654000D01*
X166605000Y-72654000D01*
X166605000Y-75956000D01*
X169907000Y-75956000D01*
X170059000Y-75804000D01*
X170059000Y-72989062D01*
X169966438Y-72765596D01*
X169795405Y-72594563D01*
X169571939Y-72502000D01*
X166757000Y-72502000D01*
X166605000Y-72654000D01*
X166297000Y-72654000D01*
X166145000Y-72502000D01*
X163330061Y-72502000D01*
X163106595Y-72594563D01*
X162935562Y-72765596D01*
X162843000Y-72989062D01*
X161936450Y-72989062D01*
X161906078Y-72943608D01*
X161844520Y-72851479D01*
X159642520Y-70649480D01*
X159504641Y-70557351D01*
X159477657Y-70551984D01*
X159342000Y-70525000D01*
X159182076Y-70525000D01*
X159111696Y-70419670D01*
X158955047Y-70315000D01*
X159111696Y-70210330D01*
X159182076Y-70105000D01*
X164762000Y-70105000D01*
X164897657Y-70078016D01*
X164924641Y-70072649D01*
X164930157Y-70068963D01*
X165091824Y-70069104D01*
X165312429Y-69977952D01*
X165481359Y-69809317D01*
X165572896Y-69588871D01*
X165573104Y-69350176D01*
X165481952Y-69129571D01*
X165313317Y-68960641D01*
X165092871Y-68869104D01*
X164854176Y-68868896D01*
X164633571Y-68960048D01*
X164464641Y-69128683D01*
X164412190Y-69255000D01*
X159182076Y-69255000D01*
X159181194Y-69253681D01*
X159408014Y-69049224D01*
X159560754Y-68725849D01*
X159443816Y-68564000D01*
X157905000Y-68564000D01*
X157905000Y-68584000D01*
X157597000Y-68584000D01*
X157597000Y-68564000D01*
X156058184Y-68564000D01*
X155941246Y-68725849D01*
X156093986Y-69049224D01*
X156320806Y-69253681D01*
X156319924Y-69255000D01*
X156253000Y-69255000D01*
X156117343Y-69281984D01*
X156090359Y-69287351D01*
X155952480Y-69379480D01*
X154004480Y-71327480D01*
X153912351Y-71465359D01*
X153912351Y-71465360D01*
X153880000Y-71628000D01*
X153880000Y-72467960D01*
X153342019Y-73005941D01*
X153235703Y-72846827D01*
X152862616Y-72597539D01*
X152764387Y-72578000D01*
X153370939Y-72578000D01*
X153594405Y-72485437D01*
X153765438Y-72314404D01*
X153858000Y-72090938D01*
X153858000Y-71426000D01*
X153706000Y-71274000D01*
X152554000Y-71274000D01*
X152554000Y-71294000D01*
X152246000Y-71294000D01*
X152246000Y-71274000D01*
X151094000Y-71274000D01*
X150942000Y-71426000D01*
X150235000Y-71426000D01*
X150235000Y-70149062D01*
X150942000Y-70149062D01*
X150942000Y-70814000D01*
X151094000Y-70966000D01*
X152246000Y-70966000D01*
X152246000Y-69814000D01*
X152554000Y-69814000D01*
X152554000Y-70966000D01*
X153706000Y-70966000D01*
X153858000Y-70814000D01*
X153858000Y-70149062D01*
X153765438Y-69925596D01*
X153594405Y-69754563D01*
X153370939Y-69662000D01*
X152706000Y-69662000D01*
X152554000Y-69814000D01*
X152246000Y-69814000D01*
X152094000Y-69662000D01*
X151429061Y-69662000D01*
X151205595Y-69754563D01*
X151034562Y-69925596D01*
X150942000Y-70149062D01*
X150235000Y-70149062D01*
X150235000Y-67918000D01*
X156024448Y-67918000D01*
X155941246Y-68094151D01*
X155941246Y-68094151D01*
G37*
X155941246Y-68094151D02*
X156058184Y-68256000D01*
X157597000Y-68256000D01*
X157597000Y-68236000D01*
X157905000Y-68236000D01*
X157905000Y-68256000D01*
X159443816Y-68256000D01*
X159560754Y-68094151D01*
X159477552Y-67918000D01*
X174024448Y-67918000D01*
X173941246Y-68094151D01*
X174058184Y-68256000D01*
X175597000Y-68256000D01*
X175597000Y-68236000D01*
X175905000Y-68236000D01*
X175905000Y-68256000D01*
X177443816Y-68256000D01*
X177560754Y-68094151D01*
X177477552Y-67918000D01*
X192665000Y-67918000D01*
X192665000Y-120613064D01*
X192590085Y-120989689D01*
X192397666Y-121277666D01*
X192109689Y-121470085D01*
X191733068Y-121545000D01*
X184912000Y-121545000D01*
X184768494Y-121573545D01*
X184646835Y-121654835D01*
X184565545Y-121776494D01*
X184537000Y-121920000D01*
X184542371Y-121947000D01*
X182995629Y-121947000D01*
X183001000Y-121920000D01*
X182972455Y-121776493D01*
X182891165Y-121654835D01*
X182121330Y-120885000D01*
X182566939Y-120885000D01*
X182790405Y-120792437D01*
X182961438Y-120621404D01*
X183054000Y-120397938D01*
X183054000Y-119633000D01*
X182902000Y-119481000D01*
X181800000Y-119481000D01*
X181800000Y-119501000D01*
X181492000Y-119501000D01*
X181492000Y-119481000D01*
X180390000Y-119481000D01*
X180238000Y-119633000D01*
X180238000Y-120397938D01*
X180292287Y-120529000D01*
X179549713Y-120529000D01*
X179604000Y-120397938D01*
X179604000Y-119633000D01*
X179452000Y-119481000D01*
X178550000Y-119481000D01*
X178550000Y-119501000D01*
X178242000Y-119501000D01*
X178242000Y-119481000D01*
X176850000Y-119481000D01*
X176850000Y-119501000D01*
X176542000Y-119501000D01*
X176542000Y-119481000D01*
X175640000Y-119481000D01*
X175488000Y-119633000D01*
X175488000Y-120397938D01*
X175542287Y-120529000D01*
X174799713Y-120529000D01*
X174854000Y-120397938D01*
X174854000Y-119633000D01*
X174702000Y-119481000D01*
X173600000Y-119481000D01*
X173600000Y-119501000D01*
X173292000Y-119501000D01*
X173292000Y-119481000D01*
X172190000Y-119481000D01*
X172135665Y-119535335D01*
X171969165Y-119368835D01*
X171847507Y-119287545D01*
X171704000Y-119259000D01*
X163322000Y-119259000D01*
X163178493Y-119287545D01*
X163056835Y-119368835D01*
X160880670Y-121545000D01*
X151166936Y-121545000D01*
X150790311Y-121470085D01*
X150502334Y-121277666D01*
X150309915Y-120989689D01*
X150235000Y-120613068D01*
X150235000Y-118237000D01*
X151313800Y-118237000D01*
X151487355Y-119109518D01*
X151981597Y-119849203D01*
X152721282Y-120343445D01*
X153593800Y-120517000D01*
X154466318Y-120343445D01*
X155206003Y-119849203D01*
X155700245Y-119109518D01*
X155873800Y-118237000D01*
X155700245Y-117364482D01*
X155206003Y-116624797D01*
X154466318Y-116130555D01*
X153593800Y-115957000D01*
X152721282Y-116130555D01*
X151981597Y-116624797D01*
X151487355Y-117364482D01*
X151313800Y-118237000D01*
X150235000Y-118237000D01*
X150235000Y-115936000D01*
X157544123Y-115936000D01*
X157544123Y-118736000D01*
X157565042Y-118847173D01*
X157630745Y-118949279D01*
X157730997Y-119017778D01*
X157850000Y-119041877D01*
X158850000Y-119041877D01*
X158961173Y-119020958D01*
X159063279Y-118955255D01*
X159131778Y-118855003D01*
X159155877Y-118736000D01*
X159155877Y-115936000D01*
X159134958Y-115824827D01*
X159069255Y-115722721D01*
X158969003Y-115654222D01*
X158850000Y-115630123D01*
X157850000Y-115630123D01*
X157738827Y-115651042D01*
X157636721Y-115716745D01*
X157568222Y-115816997D01*
X157544123Y-115936000D01*
X150235000Y-115936000D01*
X150235000Y-109598910D01*
X150992097Y-109598910D01*
X151136523Y-109947616D01*
X151511146Y-110375741D01*
X152021089Y-110627915D01*
X152245998Y-110517857D01*
X152245998Y-110636152D01*
X151937384Y-110697539D01*
X151564297Y-110946827D01*
X151315009Y-111319914D01*
X151227470Y-111760000D01*
X151315009Y-112200086D01*
X151564297Y-112573173D01*
X151937384Y-112822461D01*
X152377470Y-112910000D01*
X152422530Y-112910000D01*
X152862616Y-112822461D01*
X152917183Y-112786000D01*
X157544123Y-112786000D01*
X157544123Y-113586000D01*
X157565042Y-113697173D01*
X157630745Y-113799279D01*
X157730997Y-113867778D01*
X157850000Y-113891877D01*
X158850000Y-113891877D01*
X158961173Y-113870958D01*
X159063279Y-113805255D01*
X159131778Y-113705003D01*
X159155877Y-113586000D01*
X159155877Y-112786000D01*
X159134958Y-112674827D01*
X159069255Y-112572721D01*
X158969003Y-112504222D01*
X158850000Y-112480123D01*
X157850000Y-112480123D01*
X157738827Y-112501042D01*
X157636721Y-112566745D01*
X157568222Y-112666997D01*
X157544123Y-112786000D01*
X152917183Y-112786000D01*
X153235703Y-112573173D01*
X153484991Y-112200086D01*
X153487992Y-112185000D01*
X153797000Y-112185000D01*
X153932657Y-112158016D01*
X153959641Y-112152649D01*
X154097520Y-112060520D01*
X155830039Y-110328001D01*
X155947824Y-110328104D01*
X156168429Y-110236952D01*
X156337359Y-110068317D01*
X156428896Y-109847871D01*
X156429104Y-109609176D01*
X156337952Y-109388571D01*
X156169317Y-109219641D01*
X155948871Y-109128104D01*
X155710176Y-109127896D01*
X155489571Y-109219048D01*
X155320641Y-109387683D01*
X155229104Y-109608129D01*
X155229000Y-109726960D01*
X153620960Y-111335000D01*
X153487992Y-111335000D01*
X153484991Y-111319914D01*
X153235703Y-110946827D01*
X152862616Y-110697539D01*
X152554002Y-110636152D01*
X152554002Y-110517857D01*
X152778911Y-110627915D01*
X153288854Y-110375741D01*
X153663477Y-109947616D01*
X153807903Y-109598910D01*
X153696889Y-109374000D01*
X152554000Y-109374000D01*
X152554000Y-109394000D01*
X152246000Y-109394000D01*
X152246000Y-109374000D01*
X151103111Y-109374000D01*
X150992097Y-109598910D01*
X150235000Y-109598910D01*
X150235000Y-109409053D01*
X150252649Y-109382640D01*
X150285000Y-109220000D01*
X150285000Y-108841090D01*
X150992097Y-108841090D01*
X151103111Y-109066000D01*
X152246000Y-109066000D01*
X152246000Y-109046000D01*
X152554000Y-109046000D01*
X152554000Y-109066000D01*
X153696889Y-109066000D01*
X153807903Y-108841090D01*
X153663477Y-108492384D01*
X153288854Y-108064259D01*
X152778911Y-107812085D01*
X152554002Y-107922143D01*
X152554002Y-107803848D01*
X152862616Y-107742461D01*
X153235703Y-107493173D01*
X153484991Y-107120086D01*
X153572530Y-106680000D01*
X153514050Y-106386000D01*
X157544123Y-106386000D01*
X157544123Y-107586000D01*
X157565042Y-107697173D01*
X157630745Y-107799279D01*
X157730997Y-107867778D01*
X157850000Y-107891877D01*
X158850000Y-107891877D01*
X158961173Y-107870958D01*
X159063279Y-107805255D01*
X159131778Y-107705003D01*
X159155877Y-107586000D01*
X159155877Y-106386000D01*
X159134958Y-106274827D01*
X159069255Y-106172721D01*
X158969003Y-106104222D01*
X158850000Y-106080123D01*
X157850000Y-106080123D01*
X157738827Y-106101042D01*
X157636721Y-106166745D01*
X157568222Y-106266997D01*
X157544123Y-106386000D01*
X153514050Y-106386000D01*
X153484991Y-106239914D01*
X153467421Y-106213619D01*
X156256520Y-103424521D01*
X156337492Y-103303337D01*
X156348649Y-103286640D01*
X156381000Y-103124000D01*
X156381000Y-102992000D01*
X158342000Y-102992000D01*
X158342000Y-103406938D01*
X158434562Y-103630404D01*
X158605595Y-103801437D01*
X158829061Y-103894000D01*
X158994000Y-103894000D01*
X159146000Y-103742000D01*
X159146000Y-102840000D01*
X158494000Y-102840000D01*
X158342000Y-102992000D01*
X156381000Y-102992000D01*
X156381000Y-101965062D01*
X158342000Y-101965062D01*
X158342000Y-102380000D01*
X158494000Y-102532000D01*
X159146000Y-102532000D01*
X159146000Y-101630000D01*
X158994000Y-101478000D01*
X158829061Y-101478000D01*
X158605595Y-101570563D01*
X158434562Y-101741596D01*
X158342000Y-101965062D01*
X156381000Y-101965062D01*
X156381000Y-100887040D01*
X162606520Y-94661520D01*
X162698649Y-94523641D01*
X162709135Y-94470923D01*
X162731000Y-94361000D01*
X162731000Y-94247857D01*
X162813048Y-94446429D01*
X162981683Y-94615359D01*
X163202129Y-94706896D01*
X163264010Y-94706950D01*
X161415961Y-96554999D01*
X161298176Y-96554896D01*
X161077571Y-96646048D01*
X160908641Y-96814683D01*
X160817104Y-97035129D01*
X160816896Y-97273824D01*
X160908048Y-97494429D01*
X161076683Y-97663359D01*
X161251154Y-97735806D01*
X159949480Y-99037480D01*
X159857351Y-99175359D01*
X159857351Y-99175360D01*
X159825000Y-99338000D01*
X159825000Y-101500393D01*
X159770939Y-101478000D01*
X159606000Y-101478000D01*
X159454000Y-101630000D01*
X159454000Y-102532000D01*
X159474000Y-102532000D01*
X159474000Y-102840000D01*
X159454000Y-102840000D01*
X159454000Y-103742000D01*
X159606000Y-103894000D01*
X159770939Y-103894000D01*
X159994405Y-103801437D01*
X160108901Y-103686941D01*
X163344482Y-106922522D01*
X163482361Y-107014651D01*
X163645002Y-107047002D01*
X167786962Y-107047002D01*
X171787000Y-111047041D01*
X171787000Y-112510000D01*
X171798641Y-112568521D01*
X171819351Y-112672641D01*
X171911480Y-112810520D01*
X173192123Y-114091163D01*
X173192123Y-114496000D01*
X173213042Y-114607173D01*
X173278745Y-114709279D01*
X173378997Y-114777778D01*
X173498000Y-114801877D01*
X173998000Y-114801877D01*
X174073000Y-114787765D01*
X174073000Y-115125500D01*
X174092720Y-115224640D01*
X174105351Y-115288141D01*
X174197480Y-115426020D01*
X174291998Y-115520538D01*
X174291998Y-115520998D01*
X174140000Y-115369000D01*
X173275061Y-115369000D01*
X173051595Y-115461563D01*
X172880562Y-115632596D01*
X172788000Y-115856062D01*
X172788000Y-116671000D01*
X172939998Y-116822998D01*
X172803430Y-116822998D01*
X172784958Y-116724827D01*
X172719255Y-116622721D01*
X172619003Y-116554222D01*
X172500000Y-116530123D01*
X171200000Y-116530123D01*
X171088827Y-116551042D01*
X170986721Y-116616745D01*
X170918222Y-116716997D01*
X170894123Y-116836000D01*
X170894123Y-118736000D01*
X170915042Y-118847173D01*
X170980745Y-118949279D01*
X171080997Y-119017778D01*
X171200000Y-119041877D01*
X172058877Y-119041877D01*
X172190000Y-119173000D01*
X173292000Y-119173000D01*
X173292000Y-119153000D01*
X173600000Y-119153000D01*
X173600000Y-119173000D01*
X174702000Y-119173000D01*
X174854000Y-119021000D01*
X174854000Y-118585000D01*
X175488000Y-118585000D01*
X175488000Y-119021000D01*
X175640000Y-119173000D01*
X176542000Y-119173000D01*
X176542000Y-119153000D01*
X176850000Y-119153000D01*
X176850000Y-119173000D01*
X178242000Y-119173000D01*
X178242000Y-117921000D01*
X178090000Y-117769000D01*
X177675061Y-117769000D01*
X177546000Y-117822459D01*
X177416939Y-117769000D01*
X177002000Y-117769000D01*
X176850002Y-117920998D01*
X176850002Y-117782840D01*
X176961438Y-117671404D01*
X176977396Y-117632877D01*
X177096000Y-117632877D01*
X177207173Y-117611958D01*
X177219779Y-117603846D01*
X177226997Y-117608778D01*
X177346000Y-117632877D01*
X177746000Y-117632877D01*
X177857173Y-117611958D01*
X177869779Y-117603846D01*
X177876997Y-117608778D01*
X177996000Y-117632877D01*
X178396000Y-117632877D01*
X178507173Y-117611958D01*
X178519779Y-117603846D01*
X178526997Y-117608778D01*
X178646000Y-117632877D01*
X178988000Y-117632877D01*
X178988000Y-117769000D01*
X178702000Y-117769000D01*
X178550000Y-117921000D01*
X178550000Y-119173000D01*
X179452000Y-119173000D01*
X179604000Y-119021000D01*
X179604000Y-118585000D01*
X180238000Y-118585000D01*
X180238000Y-119021000D01*
X180390000Y-119173000D01*
X181492000Y-119173000D01*
X181492000Y-119153000D01*
X181800000Y-119153000D01*
X181800000Y-119173000D01*
X182902000Y-119173000D01*
X183054000Y-119021000D01*
X183054000Y-118256062D01*
X183019802Y-118173500D01*
X187038900Y-118173500D01*
X187212455Y-119046018D01*
X187706697Y-119785703D01*
X188446382Y-120279945D01*
X189318900Y-120453500D01*
X190191418Y-120279945D01*
X190931103Y-119785703D01*
X191425345Y-119046018D01*
X191598900Y-118173500D01*
X191425345Y-117300982D01*
X190931103Y-116561297D01*
X190191418Y-116067055D01*
X189318900Y-115893500D01*
X188446382Y-116067055D01*
X187706697Y-116561297D01*
X187212455Y-117300982D01*
X187038900Y-118173500D01*
X183019802Y-118173500D01*
X182961438Y-118032596D01*
X182790405Y-117861563D01*
X182566939Y-117769000D01*
X182304000Y-117769000D01*
X182304000Y-117283000D01*
X182152000Y-117131000D01*
X180800000Y-117131000D01*
X180800000Y-117151000D01*
X180492000Y-117151000D01*
X180492000Y-117131000D01*
X180472000Y-117131000D01*
X180472000Y-116823000D01*
X180492000Y-116823000D01*
X180492000Y-115521000D01*
X180800000Y-115521000D01*
X180800000Y-116823000D01*
X182152000Y-116823000D01*
X182304000Y-116671000D01*
X182304000Y-115856062D01*
X182211438Y-115632596D01*
X182040405Y-115461563D01*
X181816939Y-115369000D01*
X180952000Y-115369000D01*
X180800000Y-115521000D01*
X180492000Y-115521000D01*
X180340000Y-115369000D01*
X179872041Y-115369000D01*
X180262041Y-114979000D01*
X182753000Y-114979000D01*
X182888839Y-114951980D01*
X182915641Y-114946649D01*
X183053520Y-114854520D01*
X184670520Y-113237521D01*
X184762648Y-113099641D01*
X184762649Y-113099640D01*
X184795000Y-112937000D01*
X184795000Y-111241173D01*
X184881173Y-111224958D01*
X184983279Y-111159255D01*
X185051778Y-111059003D01*
X185075877Y-110940000D01*
X185075877Y-110040000D01*
X185054958Y-109928827D01*
X184989255Y-109826721D01*
X184889003Y-109758222D01*
X184770000Y-109734123D01*
X184728414Y-109734123D01*
X184670521Y-109647480D01*
X184115001Y-109091961D01*
X184115104Y-108974176D01*
X184087565Y-108907528D01*
X184149061Y-108933000D01*
X184364000Y-108933000D01*
X184516000Y-108781000D01*
X184516000Y-108104000D01*
X183814000Y-108104000D01*
X183662000Y-108256000D01*
X183662000Y-108445938D01*
X183691230Y-108516506D01*
X183634871Y-108493104D01*
X183396176Y-108492896D01*
X183338715Y-108516638D01*
X183368000Y-108445938D01*
X183368000Y-108256000D01*
X183216000Y-108104000D01*
X182514000Y-108104000D01*
X182514000Y-108781000D01*
X182666000Y-108933000D01*
X182880939Y-108933000D01*
X182942325Y-108907573D01*
X182915104Y-108973129D01*
X182914896Y-109211824D01*
X183006048Y-109432429D01*
X183174683Y-109601359D01*
X183395129Y-109692896D01*
X183513959Y-109693000D01*
X183710034Y-109889074D01*
X183688222Y-109920997D01*
X183664123Y-110040000D01*
X183664123Y-110940000D01*
X183685042Y-111051173D01*
X183750745Y-111153279D01*
X183850997Y-111221778D01*
X183945000Y-111240814D01*
X183945000Y-112760959D01*
X183081085Y-113624874D01*
X183091000Y-113600938D01*
X183091000Y-113336000D01*
X182939000Y-113184000D01*
X182358000Y-113184000D01*
X182358000Y-113936000D01*
X182510000Y-114088000D01*
X182603939Y-114088000D01*
X182627874Y-114078086D01*
X182576960Y-114129000D01*
X180086000Y-114129000D01*
X179923359Y-114161351D01*
X179785480Y-114253479D01*
X178621000Y-115417960D01*
X178621000Y-113148824D01*
X178723896Y-113148824D01*
X178815048Y-113369429D01*
X178983683Y-113538359D01*
X179204129Y-113629896D01*
X179442824Y-113630104D01*
X179663429Y-113538952D01*
X179747528Y-113455000D01*
X180177123Y-113455000D01*
X180177123Y-113480000D01*
X180198042Y-113591173D01*
X180263745Y-113693279D01*
X180363997Y-113761778D01*
X180483000Y-113785877D01*
X180983000Y-113785877D01*
X181094173Y-113764958D01*
X181196279Y-113699255D01*
X181264778Y-113599003D01*
X181288877Y-113480000D01*
X181288877Y-113336000D01*
X181375000Y-113336000D01*
X181375000Y-113600938D01*
X181467562Y-113824404D01*
X181638595Y-113995437D01*
X181862061Y-114088000D01*
X181956000Y-114088000D01*
X182108000Y-113936000D01*
X182108000Y-113184000D01*
X181527000Y-113184000D01*
X181375000Y-113336000D01*
X181288877Y-113336000D01*
X181288877Y-112580000D01*
X181267958Y-112468827D01*
X181261675Y-112459062D01*
X181375000Y-112459062D01*
X181375000Y-112724000D01*
X181527000Y-112876000D01*
X182108000Y-112876000D01*
X182108000Y-112124000D01*
X182358000Y-112124000D01*
X182358000Y-112876000D01*
X182939000Y-112876000D01*
X183091000Y-112724000D01*
X183091000Y-112459062D01*
X182998438Y-112235596D01*
X182827405Y-112064563D01*
X182603939Y-111972000D01*
X182510000Y-111972000D01*
X182358000Y-112124000D01*
X182108000Y-112124000D01*
X181956000Y-111972000D01*
X181862061Y-111972000D01*
X181638595Y-112064563D01*
X181467562Y-112235596D01*
X181375000Y-112459062D01*
X181261675Y-112459062D01*
X181202255Y-112366721D01*
X181102003Y-112298222D01*
X180983000Y-112274123D01*
X180483000Y-112274123D01*
X180371827Y-112295042D01*
X180269721Y-112360745D01*
X180201222Y-112460997D01*
X180177123Y-112580000D01*
X180177123Y-112605000D01*
X179747530Y-112605000D01*
X179664317Y-112521641D01*
X179443871Y-112430104D01*
X179205176Y-112429896D01*
X178984571Y-112521048D01*
X178815641Y-112689683D01*
X178724104Y-112910129D01*
X178723896Y-113148824D01*
X178621000Y-113148824D01*
X178621000Y-111878824D01*
X178723896Y-111878824D01*
X178815048Y-112099429D01*
X178983683Y-112268359D01*
X179204129Y-112359896D01*
X179442824Y-112360104D01*
X179663429Y-112268952D01*
X179747528Y-112185000D01*
X181229000Y-112185000D01*
X181364657Y-112158016D01*
X181391641Y-112152649D01*
X181529520Y-112060520D01*
X182344164Y-111245877D01*
X182483000Y-111245877D01*
X182594173Y-111224958D01*
X182696279Y-111159255D01*
X182764778Y-111059003D01*
X182788877Y-110940000D01*
X182788877Y-110040000D01*
X182767958Y-109928827D01*
X182702255Y-109826721D01*
X182602003Y-109758222D01*
X182483000Y-109734123D01*
X181983000Y-109734123D01*
X181871827Y-109755042D01*
X181769721Y-109820745D01*
X181701222Y-109920997D01*
X181677123Y-110040000D01*
X181677123Y-110710836D01*
X181052960Y-111335000D01*
X179747530Y-111335000D01*
X179664317Y-111251641D01*
X179443871Y-111160104D01*
X179205176Y-111159896D01*
X178984571Y-111251048D01*
X178815641Y-111419683D01*
X178724104Y-111640129D01*
X178723896Y-111878824D01*
X178621000Y-111878824D01*
X178621000Y-105298000D01*
X178588649Y-105135360D01*
X178588649Y-105135359D01*
X178496521Y-104997480D01*
X177971000Y-104471960D01*
X177971000Y-103889460D01*
X178094683Y-104013359D01*
X178315129Y-104104896D01*
X178553824Y-104105104D01*
X178774429Y-104013952D01*
X178943359Y-103845317D01*
X179034896Y-103624871D01*
X179035104Y-103386176D01*
X178943952Y-103165571D01*
X178932847Y-103154446D01*
X179023279Y-103096255D01*
X179091778Y-102996003D01*
X179115877Y-102877000D01*
X179115877Y-102077000D01*
X179094958Y-101965827D01*
X179070182Y-101927324D01*
X179154404Y-101892438D01*
X179325437Y-101721405D01*
X179418000Y-101497939D01*
X179418000Y-101283000D01*
X179266000Y-101131000D01*
X178589000Y-101131000D01*
X178589000Y-101151000D01*
X178281000Y-101151000D01*
X178281000Y-101131000D01*
X178261000Y-101131000D01*
X178261000Y-100823000D01*
X178281000Y-100823000D01*
X178281000Y-100121000D01*
X178589000Y-100121000D01*
X178589000Y-100823000D01*
X179266000Y-100823000D01*
X179418000Y-100671000D01*
X179418000Y-100456061D01*
X179325437Y-100232595D01*
X179154404Y-100061562D01*
X178930938Y-99969000D01*
X178741000Y-99969000D01*
X178589000Y-100121000D01*
X178281000Y-100121000D01*
X178129000Y-99969000D01*
X177971000Y-99969000D01*
X177971000Y-99885500D01*
X177938649Y-99722860D01*
X177938649Y-99722859D01*
X177846520Y-99584980D01*
X177617399Y-99355859D01*
X177713593Y-99337758D01*
X177805333Y-99278725D01*
X177967683Y-99441359D01*
X178188129Y-99532896D01*
X178426824Y-99533104D01*
X178647429Y-99441952D01*
X178816359Y-99273317D01*
X178907896Y-99052871D01*
X178908104Y-98814176D01*
X178847044Y-98666398D01*
X178942158Y-98571284D01*
X179034720Y-98347818D01*
X179034720Y-98316650D01*
X178882720Y-98164650D01*
X178231800Y-98164650D01*
X178231800Y-98226880D01*
X178165477Y-98226880D01*
X178140441Y-98210151D01*
X178113457Y-98204784D01*
X177977800Y-98177800D01*
X177923800Y-98177800D01*
X177923800Y-98164650D01*
X177903800Y-98164650D01*
X177903800Y-98040190D01*
X177923800Y-98040190D01*
X177923800Y-98032377D01*
X178231800Y-98032377D01*
X178231800Y-98040190D01*
X178882720Y-98040190D01*
X179034720Y-97888190D01*
X179034720Y-97857022D01*
X178984075Y-97734754D01*
X179155429Y-97663952D01*
X179324359Y-97495317D01*
X179415896Y-97274871D01*
X179416104Y-97036176D01*
X179324952Y-96815571D01*
X179156317Y-96646641D01*
X179034720Y-96596150D01*
X179034720Y-96447278D01*
X178974492Y-96447278D01*
X179034720Y-96387050D01*
X179034720Y-96355882D01*
X178942158Y-96132416D01*
X178771125Y-95961383D01*
X178726268Y-95942802D01*
X178711678Y-95865267D01*
X178703082Y-95851909D01*
X178708498Y-95843983D01*
X178732597Y-95724980D01*
X178732597Y-95476060D01*
X178711678Y-95364887D01*
X178703924Y-95352837D01*
X178708498Y-95346143D01*
X178725741Y-95260996D01*
X178771125Y-95242197D01*
X178942158Y-95071164D01*
X179034720Y-94847698D01*
X179034720Y-94816530D01*
X178882720Y-94664530D01*
X178231800Y-94664530D01*
X178231800Y-94672343D01*
X177923800Y-94672343D01*
X177923800Y-94664530D01*
X177903800Y-94664530D01*
X177903800Y-94540070D01*
X177923800Y-94540070D01*
X177923800Y-94021840D01*
X178231800Y-94021840D01*
X178231800Y-94540070D01*
X178882720Y-94540070D01*
X179034720Y-94388070D01*
X179034720Y-94356902D01*
X178942158Y-94133436D01*
X178771125Y-93962403D01*
X178547659Y-93869840D01*
X178383800Y-93869840D01*
X178231800Y-94021840D01*
X177923800Y-94021840D01*
X177908297Y-94006337D01*
X177908297Y-93651920D01*
X177887378Y-93540747D01*
X177871454Y-93516000D01*
X177990500Y-93516000D01*
X178126157Y-93489016D01*
X178153141Y-93483649D01*
X178291020Y-93391520D01*
X178735520Y-92947020D01*
X178827649Y-92809141D01*
X178860000Y-92646500D01*
X178860000Y-92364877D01*
X178885000Y-92364877D01*
X178996173Y-92343958D01*
X179098279Y-92278255D01*
X179166778Y-92178003D01*
X179190877Y-92059000D01*
X179190877Y-91559000D01*
X179169958Y-91447827D01*
X179104255Y-91345721D01*
X179004003Y-91277222D01*
X178885000Y-91253123D01*
X177985000Y-91253123D01*
X177873827Y-91274042D01*
X177771721Y-91339745D01*
X177703222Y-91439997D01*
X177679123Y-91559000D01*
X177679123Y-92059000D01*
X177700042Y-92170173D01*
X177765745Y-92272279D01*
X177865997Y-92340778D01*
X177985000Y-92364877D01*
X178010000Y-92364877D01*
X178010000Y-92470460D01*
X177814460Y-92666000D01*
X176557490Y-92666000D01*
X176574000Y-92583000D01*
X176574000Y-92364877D01*
X176599000Y-92364877D01*
X176710173Y-92343958D01*
X176812279Y-92278255D01*
X176880778Y-92178003D01*
X176904877Y-92059000D01*
X176904877Y-91559000D01*
X176883958Y-91447827D01*
X176818255Y-91345721D01*
X176718003Y-91277222D01*
X176599000Y-91253123D01*
X175699000Y-91253123D01*
X175587827Y-91274042D01*
X175485721Y-91339745D01*
X175417222Y-91439997D01*
X175393123Y-91559000D01*
X175393123Y-92059000D01*
X175411751Y-92158000D01*
X174879000Y-92158000D01*
X174868140Y-92160160D01*
X174857188Y-92158561D01*
X174787192Y-92176262D01*
X174716360Y-92190351D01*
X174707155Y-92196502D01*
X174696421Y-92199216D01*
X174638508Y-92242370D01*
X174578480Y-92282480D01*
X174572331Y-92291683D01*
X174563452Y-92298299D01*
X173645965Y-93315195D01*
X173605613Y-93382865D01*
X173577465Y-93428000D01*
X173111040Y-93428000D01*
X174163520Y-92375521D01*
X174170632Y-92364877D01*
X174313000Y-92364877D01*
X174424173Y-92343958D01*
X174526279Y-92278255D01*
X174594778Y-92178003D01*
X174618877Y-92059000D01*
X174618877Y-91559000D01*
X174597958Y-91447827D01*
X174532255Y-91345721D01*
X174432003Y-91277222D01*
X174313000Y-91253123D01*
X173413000Y-91253123D01*
X173301827Y-91274042D01*
X173199721Y-91339745D01*
X173131222Y-91439997D01*
X173107123Y-91559000D01*
X173107123Y-92059000D01*
X173128042Y-92170173D01*
X173143212Y-92193748D01*
X173136581Y-92200379D01*
X173101952Y-92116571D01*
X172933317Y-91947641D01*
X172712871Y-91856104D01*
X172594041Y-91856000D01*
X172324520Y-91586480D01*
X172186641Y-91494351D01*
X172149684Y-91487000D01*
X172059502Y-91469062D01*
X172041958Y-91375827D01*
X171976255Y-91273721D01*
X171876003Y-91205222D01*
X171757000Y-91181123D01*
X170857000Y-91181123D01*
X170745827Y-91202042D01*
X170643721Y-91267745D01*
X170575222Y-91367997D01*
X170551123Y-91487000D01*
X170551123Y-92287000D01*
X170572042Y-92398173D01*
X170637745Y-92500279D01*
X170737997Y-92568778D01*
X170781082Y-92577503D01*
X170723104Y-92717129D01*
X170722896Y-92955824D01*
X170780608Y-93095497D01*
X170745827Y-93102042D01*
X170643721Y-93167745D01*
X170575222Y-93267997D01*
X170551123Y-93387000D01*
X170551123Y-94187000D01*
X170572042Y-94298173D01*
X170637745Y-94400279D01*
X170737997Y-94468778D01*
X170857000Y-94492877D01*
X171733083Y-94492877D01*
X171006480Y-95219480D01*
X170914351Y-95357359D01*
X170914351Y-95357360D01*
X170882000Y-95520000D01*
X170882000Y-95626123D01*
X170857000Y-95626123D01*
X170745827Y-95647042D01*
X170714003Y-95667520D01*
X170699649Y-95595360D01*
X170699649Y-95595359D01*
X170607521Y-95457480D01*
X169732000Y-94581960D01*
X169732000Y-93542877D01*
X169757000Y-93542877D01*
X169868173Y-93521958D01*
X169970279Y-93456255D01*
X170038778Y-93356003D01*
X170062877Y-93237000D01*
X170062877Y-92437000D01*
X170041958Y-92325827D01*
X169976255Y-92223721D01*
X169876003Y-92155222D01*
X169757000Y-92131123D01*
X169737632Y-92131123D01*
X169763896Y-92067871D01*
X169764104Y-91829176D01*
X169672952Y-91608571D01*
X169504317Y-91439641D01*
X169283871Y-91348104D01*
X169045176Y-91347896D01*
X168824571Y-91439048D01*
X168655641Y-91607683D01*
X168564104Y-91828129D01*
X168563896Y-92066824D01*
X168632837Y-92233674D01*
X168575222Y-92317997D01*
X168551123Y-92437000D01*
X168551123Y-93237000D01*
X168572042Y-93348173D01*
X168637745Y-93450279D01*
X168737997Y-93518778D01*
X168857000Y-93542877D01*
X168882000Y-93542877D01*
X168882000Y-94758000D01*
X168908984Y-94893657D01*
X168914351Y-94920641D01*
X169006480Y-95058520D01*
X169882000Y-95934041D01*
X169882000Y-96604320D01*
X169876003Y-96600222D01*
X169757000Y-96576123D01*
X169567164Y-96576123D01*
X168621001Y-95629961D01*
X168621104Y-95512176D01*
X168529952Y-95291571D01*
X168361317Y-95122641D01*
X168140871Y-95031104D01*
X167902176Y-95030896D01*
X167681571Y-95122048D01*
X167512641Y-95290683D01*
X167421104Y-95511129D01*
X167420896Y-95749824D01*
X167512048Y-95970429D01*
X167680683Y-96139359D01*
X167901129Y-96230896D01*
X168019959Y-96231000D01*
X168571304Y-96782345D01*
X168551123Y-96882000D01*
X168551123Y-97682000D01*
X168572042Y-97793173D01*
X168637745Y-97895279D01*
X168737997Y-97963778D01*
X168857000Y-97987877D01*
X168993000Y-97987877D01*
X168993000Y-99949000D01*
X169015390Y-100061562D01*
X169025351Y-100111641D01*
X169117480Y-100249520D01*
X170145480Y-101277521D01*
X170283359Y-101369649D01*
X170446000Y-101402000D01*
X172041000Y-101402000D01*
X172041000Y-102489000D01*
X172064844Y-102608871D01*
X172073351Y-102651641D01*
X172165480Y-102789520D01*
X173776083Y-104400123D01*
X173593163Y-104400123D01*
X173032520Y-103839480D01*
X172894641Y-103747351D01*
X172867657Y-103741984D01*
X172732000Y-103715000D01*
X168705041Y-103715000D01*
X168502337Y-103512296D01*
X168513279Y-103505255D01*
X168581778Y-103405003D01*
X168605877Y-103286000D01*
X168605877Y-102086000D01*
X168694123Y-102086000D01*
X168694123Y-103286000D01*
X168715042Y-103397173D01*
X168780745Y-103499279D01*
X168880997Y-103567778D01*
X169000000Y-103591877D01*
X170000000Y-103591877D01*
X170111173Y-103570958D01*
X170213279Y-103505255D01*
X170281778Y-103405003D01*
X170305877Y-103286000D01*
X170305877Y-102086000D01*
X170284958Y-101974827D01*
X170219255Y-101872721D01*
X170119003Y-101804222D01*
X170000000Y-101780123D01*
X169000000Y-101780123D01*
X168888827Y-101801042D01*
X168786721Y-101866745D01*
X168718222Y-101966997D01*
X168694123Y-102086000D01*
X168605877Y-102086000D01*
X168584958Y-101974827D01*
X168519255Y-101872721D01*
X168419003Y-101804222D01*
X168375000Y-101795311D01*
X168375000Y-101205406D01*
X168529359Y-101051317D01*
X168620896Y-100830871D01*
X168621104Y-100592176D01*
X168529952Y-100371571D01*
X168361317Y-100202641D01*
X168140871Y-100111104D01*
X167902176Y-100110896D01*
X167681571Y-100202048D01*
X167512641Y-100370683D01*
X167421104Y-100591129D01*
X167420896Y-100829824D01*
X167512048Y-101050429D01*
X167525000Y-101063404D01*
X167525000Y-101794235D01*
X167488827Y-101801042D01*
X167398972Y-101858862D01*
X167319003Y-101804222D01*
X167275000Y-101795311D01*
X167275000Y-97733482D01*
X167386359Y-97622317D01*
X167477896Y-97401871D01*
X167478104Y-97163176D01*
X167386952Y-96942571D01*
X167218317Y-96773641D01*
X166997871Y-96682104D01*
X166759176Y-96681896D01*
X166538571Y-96773048D01*
X166369641Y-96941683D01*
X166278104Y-97162129D01*
X166277896Y-97400824D01*
X166369048Y-97621429D01*
X166425000Y-97677479D01*
X166425000Y-101794235D01*
X166388827Y-101801042D01*
X166298972Y-101858862D01*
X166219003Y-101804222D01*
X166175000Y-101795311D01*
X166175000Y-95284040D01*
X166244039Y-95215001D01*
X166361824Y-95215104D01*
X166582429Y-95123952D01*
X166751359Y-94955317D01*
X166842896Y-94734871D01*
X166843104Y-94496176D01*
X166751952Y-94275571D01*
X166583317Y-94106641D01*
X166362871Y-94015104D01*
X166174101Y-94014940D01*
X170226520Y-89962521D01*
X170318648Y-89824641D01*
X170318649Y-89824640D01*
X170351000Y-89662000D01*
X170351000Y-87841076D01*
X170456330Y-87770696D01*
X170561000Y-87614047D01*
X170665670Y-87770696D01*
X170771000Y-87841076D01*
X170771000Y-88138000D01*
X170789173Y-88229360D01*
X170803351Y-88300641D01*
X170895480Y-88438520D01*
X171149479Y-88692520D01*
X171204077Y-88729001D01*
X171287360Y-88784649D01*
X171450000Y-88817000D01*
X172337264Y-88817000D01*
X172247104Y-89034129D01*
X172246896Y-89272824D01*
X172338048Y-89493429D01*
X172506683Y-89662359D01*
X172727129Y-89753896D01*
X172845960Y-89754000D01*
X173114505Y-90022545D01*
X173107123Y-90059000D01*
X173107123Y-90559000D01*
X173128042Y-90670173D01*
X173193745Y-90772279D01*
X173293997Y-90840778D01*
X173413000Y-90864877D01*
X173582470Y-90864877D01*
X173700360Y-90943649D01*
X173863000Y-90976000D01*
X174025640Y-90943649D01*
X174143530Y-90864877D01*
X174313000Y-90864877D01*
X174424173Y-90843958D01*
X174526279Y-90778255D01*
X174591022Y-90683500D01*
X174624048Y-90763429D01*
X174792683Y-90932359D01*
X175013129Y-91023896D01*
X175251824Y-91024104D01*
X175472429Y-90932952D01*
X175570954Y-90834599D01*
X175579997Y-90840778D01*
X175699000Y-90864877D01*
X176599000Y-90864877D01*
X176710173Y-90843958D01*
X176812279Y-90778255D01*
X176880778Y-90678003D01*
X176904877Y-90559000D01*
X176904877Y-90059000D01*
X176883958Y-89947827D01*
X176818255Y-89845721D01*
X176718003Y-89777222D01*
X176599000Y-89753123D01*
X175699000Y-89753123D01*
X175587827Y-89774042D01*
X175485721Y-89839745D01*
X175455483Y-89884000D01*
X175397117Y-89884000D01*
X175252871Y-89824104D01*
X175014176Y-89823896D01*
X174793571Y-89915048D01*
X174624641Y-90083683D01*
X174618877Y-90097564D01*
X174618877Y-90059000D01*
X174597958Y-89947827D01*
X174532255Y-89845721D01*
X174432003Y-89777222D01*
X174313000Y-89753123D01*
X174047163Y-89753123D01*
X173447001Y-89152961D01*
X173447104Y-89035176D01*
X173356956Y-88817000D01*
X176657000Y-88817000D01*
X176792657Y-88790016D01*
X176819641Y-88784649D01*
X176957520Y-88692520D01*
X177468041Y-88182000D01*
X177925264Y-88182000D01*
X177835104Y-88399129D01*
X177834896Y-88637824D01*
X177926048Y-88858429D01*
X178010000Y-88942528D01*
X178010000Y-89753123D01*
X177985000Y-89753123D01*
X177873827Y-89774042D01*
X177771721Y-89839745D01*
X177703222Y-89939997D01*
X177679123Y-90059000D01*
X177679123Y-90559000D01*
X177700042Y-90670173D01*
X177765745Y-90772279D01*
X177865997Y-90840778D01*
X177985000Y-90864877D01*
X178885000Y-90864877D01*
X178996173Y-90843958D01*
X179098279Y-90778255D01*
X179166778Y-90678003D01*
X179190877Y-90559000D01*
X179190877Y-90059000D01*
X179169958Y-89947827D01*
X179104255Y-89845721D01*
X179004003Y-89777222D01*
X178885000Y-89753123D01*
X178860000Y-89753123D01*
X178860000Y-88942530D01*
X178943359Y-88859317D01*
X179034896Y-88638871D01*
X179035104Y-88400176D01*
X178944956Y-88182000D01*
X182830960Y-88182000D01*
X186519000Y-91870041D01*
X186519000Y-92236397D01*
X186428003Y-92174222D01*
X186309000Y-92150123D01*
X180213000Y-92150123D01*
X180101827Y-92171042D01*
X179999721Y-92236745D01*
X179931222Y-92336997D01*
X179907123Y-92456000D01*
X179907123Y-98552000D01*
X179928042Y-98663173D01*
X179993745Y-98765279D01*
X180093997Y-98833778D01*
X180213000Y-98857877D01*
X186309000Y-98857877D01*
X186420173Y-98836958D01*
X186522279Y-98771255D01*
X186590778Y-98671003D01*
X186614877Y-98552000D01*
X186614877Y-98301713D01*
X186643480Y-98344520D01*
X187321168Y-99022208D01*
X187190871Y-98968104D01*
X186952176Y-98967896D01*
X186731571Y-99059048D01*
X186647472Y-99143000D01*
X183261000Y-99143000D01*
X183098360Y-99175351D01*
X183098347Y-99175360D01*
X182960479Y-99267480D01*
X182055574Y-100172385D01*
X182019755Y-100116721D01*
X181919503Y-100048222D01*
X181800500Y-100024123D01*
X180149500Y-100024123D01*
X180038327Y-100045042D01*
X179936221Y-100110745D01*
X179867722Y-100210997D01*
X179843623Y-100330000D01*
X179843623Y-103378000D01*
X179864542Y-103489173D01*
X179930245Y-103591279D01*
X180030497Y-103659778D01*
X180149500Y-103683877D01*
X180328650Y-103683877D01*
X180212641Y-103799683D01*
X180121104Y-104020129D01*
X180120896Y-104258824D01*
X180212048Y-104479429D01*
X180296000Y-104563528D01*
X180296000Y-104784035D01*
X180246721Y-104815745D01*
X180178222Y-104915997D01*
X180154123Y-105035000D01*
X180154123Y-105785000D01*
X180175042Y-105896173D01*
X180240745Y-105998279D01*
X180340997Y-106066778D01*
X180435000Y-106085814D01*
X180435000Y-107273827D01*
X180348827Y-107290042D01*
X180246721Y-107355745D01*
X180178222Y-107455997D01*
X180154123Y-107575000D01*
X180154123Y-108325000D01*
X180175042Y-108436173D01*
X180240745Y-108538279D01*
X180340997Y-108606778D01*
X180435000Y-108625814D01*
X180435000Y-109743155D01*
X180371827Y-109755042D01*
X180269721Y-109820745D01*
X180201222Y-109920997D01*
X180177123Y-110040000D01*
X180177123Y-110940000D01*
X180198042Y-111051173D01*
X180263745Y-111153279D01*
X180363997Y-111221778D01*
X180483000Y-111245877D01*
X180983000Y-111245877D01*
X181094173Y-111224958D01*
X181196279Y-111159255D01*
X181264778Y-111059003D01*
X181288877Y-110940000D01*
X181288877Y-110040000D01*
X181285000Y-110019396D01*
X181285000Y-108626173D01*
X181371173Y-108609958D01*
X181409676Y-108585182D01*
X181444562Y-108669404D01*
X181615595Y-108840437D01*
X181839061Y-108933000D01*
X182054000Y-108933000D01*
X182206000Y-108781000D01*
X182206000Y-108104000D01*
X182186000Y-108104000D01*
X182186000Y-107796000D01*
X182206000Y-107796000D01*
X182206000Y-107119000D01*
X182514000Y-107119000D01*
X182514000Y-107796000D01*
X183216000Y-107796000D01*
X183368000Y-107644000D01*
X183368000Y-107454062D01*
X183662000Y-107454062D01*
X183662000Y-107644000D01*
X183814000Y-107796000D01*
X184516000Y-107796000D01*
X184516000Y-107119000D01*
X184364000Y-106967000D01*
X184149061Y-106967000D01*
X183925595Y-107059563D01*
X183754562Y-107230596D01*
X183662000Y-107454062D01*
X183368000Y-107454062D01*
X183275438Y-107230596D01*
X183104405Y-107059563D01*
X182880939Y-106967000D01*
X182666000Y-106967000D01*
X182514000Y-107119000D01*
X182206000Y-107119000D01*
X182054000Y-106967000D01*
X181839061Y-106967000D01*
X181615595Y-107059563D01*
X181444562Y-107230596D01*
X181409882Y-107314321D01*
X181379003Y-107293222D01*
X181285000Y-107274186D01*
X181285000Y-106086173D01*
X181371173Y-106069958D01*
X181409676Y-106045182D01*
X181444562Y-106129404D01*
X181615595Y-106300437D01*
X181839061Y-106393000D01*
X182054000Y-106393000D01*
X182206000Y-106241000D01*
X182206000Y-105564000D01*
X182514000Y-105564000D01*
X182514000Y-106241000D01*
X182666000Y-106393000D01*
X182880939Y-106393000D01*
X183104405Y-106300437D01*
X183275438Y-106129404D01*
X183368000Y-105905938D01*
X183368000Y-105716000D01*
X183662000Y-105716000D01*
X183662000Y-105905938D01*
X183754562Y-106129404D01*
X183925595Y-106300437D01*
X184149061Y-106393000D01*
X184364000Y-106393000D01*
X184516000Y-106241000D01*
X184516000Y-105564000D01*
X183814000Y-105564000D01*
X183662000Y-105716000D01*
X183368000Y-105716000D01*
X183216000Y-105564000D01*
X182514000Y-105564000D01*
X182206000Y-105564000D01*
X182186000Y-105564000D01*
X182186000Y-105256000D01*
X182206000Y-105256000D01*
X182206000Y-104579000D01*
X182514000Y-104579000D01*
X182514000Y-105256000D01*
X183216000Y-105256000D01*
X183368000Y-105104000D01*
X183368000Y-104914062D01*
X183662000Y-104914062D01*
X183662000Y-105104000D01*
X183814000Y-105256000D01*
X184516000Y-105256000D01*
X184516000Y-104579000D01*
X184824000Y-104579000D01*
X184824000Y-105256000D01*
X184844000Y-105256000D01*
X184844000Y-105564000D01*
X184824000Y-105564000D01*
X184824000Y-106241000D01*
X184976000Y-106393000D01*
X185190939Y-106393000D01*
X185414405Y-106300437D01*
X185585438Y-106129404D01*
X185620118Y-106045679D01*
X185650997Y-106066778D01*
X185745000Y-106085814D01*
X185745000Y-107273827D01*
X185658827Y-107290042D01*
X185620324Y-107314818D01*
X185585438Y-107230596D01*
X185414405Y-107059563D01*
X185190939Y-106967000D01*
X184976000Y-106967000D01*
X184824000Y-107119000D01*
X184824000Y-107796000D01*
X184844000Y-107796000D01*
X184844000Y-108104000D01*
X184824000Y-108104000D01*
X184824000Y-108781000D01*
X184976000Y-108933000D01*
X185190939Y-108933000D01*
X185414405Y-108840437D01*
X185585438Y-108669404D01*
X185620118Y-108585679D01*
X185650997Y-108606778D01*
X185745000Y-108625814D01*
X185745000Y-110190000D01*
X185756641Y-110248521D01*
X185764123Y-110286137D01*
X185764123Y-110940000D01*
X185785042Y-111051173D01*
X185850745Y-111153279D01*
X185950997Y-111221778D01*
X186070000Y-111245877D01*
X186624837Y-111245877D01*
X187439479Y-112060520D01*
X187476118Y-112085001D01*
X187577360Y-112152649D01*
X187740000Y-112185000D01*
X189412008Y-112185000D01*
X189415009Y-112200086D01*
X189664297Y-112573173D01*
X190037384Y-112822461D01*
X190477470Y-112910000D01*
X190522530Y-112910000D01*
X190962616Y-112822461D01*
X191335703Y-112573173D01*
X191584991Y-112200086D01*
X191672530Y-111760000D01*
X191584991Y-111319914D01*
X191335703Y-110946827D01*
X190962616Y-110697539D01*
X190522530Y-110610000D01*
X190477470Y-110610000D01*
X190037384Y-110697539D01*
X189664297Y-110946827D01*
X189415009Y-111319914D01*
X189412008Y-111335000D01*
X187916041Y-111335000D01*
X187175877Y-110594837D01*
X187175877Y-110040000D01*
X187154958Y-109928827D01*
X187089255Y-109826721D01*
X186989003Y-109758222D01*
X186870000Y-109734123D01*
X186595000Y-109734123D01*
X186595000Y-108626173D01*
X186681173Y-108609958D01*
X186783279Y-108544255D01*
X186851778Y-108444003D01*
X186875877Y-108325000D01*
X186875877Y-107575000D01*
X186854958Y-107463827D01*
X186789255Y-107361721D01*
X186689003Y-107293222D01*
X186595000Y-107274186D01*
X186595000Y-107058910D01*
X189092097Y-107058910D01*
X189236523Y-107407616D01*
X189611146Y-107835741D01*
X190121089Y-108087915D01*
X190345998Y-107977857D01*
X190345998Y-108096152D01*
X190037384Y-108157539D01*
X189664297Y-108406827D01*
X189415009Y-108779914D01*
X189327470Y-109220000D01*
X189415009Y-109660086D01*
X189664297Y-110033173D01*
X190037384Y-110282461D01*
X190477470Y-110370000D01*
X190522530Y-110370000D01*
X190962616Y-110282461D01*
X191335703Y-110033173D01*
X191584991Y-109660086D01*
X191672530Y-109220000D01*
X191584991Y-108779914D01*
X191335703Y-108406827D01*
X190962616Y-108157539D01*
X190654002Y-108096152D01*
X190654002Y-107977857D01*
X190878911Y-108087915D01*
X191388854Y-107835741D01*
X191763477Y-107407616D01*
X191907903Y-107058910D01*
X191796889Y-106834000D01*
X190654000Y-106834000D01*
X190654000Y-106854000D01*
X190346000Y-106854000D01*
X190346000Y-106834000D01*
X189203111Y-106834000D01*
X189092097Y-107058910D01*
X186595000Y-107058910D01*
X186595000Y-106086173D01*
X186681173Y-106069958D01*
X186783279Y-106004255D01*
X186851778Y-105904003D01*
X186875877Y-105785000D01*
X186875877Y-105305163D01*
X186990520Y-105190520D01*
X187082649Y-105052641D01*
X187094440Y-104993360D01*
X187115000Y-104890000D01*
X187115000Y-104690530D01*
X187198359Y-104607317D01*
X187235068Y-104518910D01*
X189092097Y-104518910D01*
X189236523Y-104867616D01*
X189611146Y-105295741D01*
X189842199Y-105410000D01*
X189611146Y-105524259D01*
X189236523Y-105952384D01*
X189092097Y-106301090D01*
X189203111Y-106526000D01*
X190346000Y-106526000D01*
X190346000Y-104294000D01*
X190654000Y-104294000D01*
X190654000Y-106526000D01*
X191796889Y-106526000D01*
X191907903Y-106301090D01*
X191763477Y-105952384D01*
X191388854Y-105524259D01*
X191157801Y-105410000D01*
X191388854Y-105295741D01*
X191763477Y-104867616D01*
X191907903Y-104518910D01*
X191796889Y-104294000D01*
X190654000Y-104294000D01*
X190346000Y-104294000D01*
X189203111Y-104294000D01*
X189092097Y-104518910D01*
X187235068Y-104518910D01*
X187289896Y-104386871D01*
X187290104Y-104148176D01*
X187198952Y-103927571D01*
X187030317Y-103758641D01*
X186896026Y-103702878D01*
X186980500Y-103498938D01*
X186980500Y-102160000D01*
X186828500Y-102008000D01*
X185701000Y-102008000D01*
X185701000Y-103834000D01*
X185853000Y-103986000D01*
X186157010Y-103986000D01*
X186090104Y-104147129D01*
X186089896Y-104385824D01*
X186181048Y-104606429D01*
X186265000Y-104690528D01*
X186265000Y-104713960D01*
X186249837Y-104729123D01*
X185770000Y-104729123D01*
X185658827Y-104750042D01*
X185620324Y-104774818D01*
X185585438Y-104690596D01*
X185414405Y-104519563D01*
X185190939Y-104427000D01*
X184976000Y-104427000D01*
X184824000Y-104579000D01*
X184516000Y-104579000D01*
X184364000Y-104427000D01*
X184149061Y-104427000D01*
X183925595Y-104519563D01*
X183754562Y-104690596D01*
X183662000Y-104914062D01*
X183368000Y-104914062D01*
X183275438Y-104690596D01*
X183104405Y-104519563D01*
X182880939Y-104427000D01*
X182666000Y-104427000D01*
X182514000Y-104579000D01*
X182206000Y-104579000D01*
X182054000Y-104427000D01*
X181839061Y-104427000D01*
X181615595Y-104519563D01*
X181444562Y-104690596D01*
X181409882Y-104774321D01*
X181379003Y-104753222D01*
X181260000Y-104729123D01*
X181146000Y-104729123D01*
X181146000Y-104563530D01*
X181229359Y-104480317D01*
X181320896Y-104259871D01*
X181321019Y-104118426D01*
X181367648Y-104048641D01*
X181367649Y-104048640D01*
X181400000Y-103886000D01*
X181400000Y-103683877D01*
X181800500Y-103683877D01*
X181911673Y-103662958D01*
X182013779Y-103597255D01*
X182082278Y-103497003D01*
X182106377Y-103378000D01*
X182106377Y-102160000D01*
X184113500Y-102160000D01*
X184113500Y-103498938D01*
X184206062Y-103722404D01*
X184377095Y-103893437D01*
X184600561Y-103986000D01*
X185241000Y-103986000D01*
X185393000Y-103834000D01*
X185393000Y-102008000D01*
X184265500Y-102008000D01*
X184113500Y-102160000D01*
X182106377Y-102160000D01*
X182106377Y-101323663D01*
X183437041Y-99993000D01*
X184202995Y-99993000D01*
X184113500Y-100209062D01*
X184113500Y-101548000D01*
X184265500Y-101700000D01*
X185393000Y-101700000D01*
X185393000Y-101680000D01*
X185701000Y-101680000D01*
X185701000Y-101700000D01*
X186828500Y-101700000D01*
X186980500Y-101548000D01*
X186980500Y-100209062D01*
X186963453Y-100167907D01*
X187069960Y-100168000D01*
X188502999Y-101601039D01*
X188502896Y-101718824D01*
X188594048Y-101939429D01*
X188762683Y-102108359D01*
X188983129Y-102199896D01*
X189221824Y-102200104D01*
X189442429Y-102108952D01*
X189453583Y-102097817D01*
X189664297Y-102413173D01*
X190037384Y-102662461D01*
X190345998Y-102723848D01*
X190345998Y-102842143D01*
X190121089Y-102732085D01*
X189611146Y-102984259D01*
X189236523Y-103412384D01*
X189092097Y-103761090D01*
X189203111Y-103986000D01*
X190346000Y-103986000D01*
X190346000Y-103966000D01*
X190654000Y-103966000D01*
X190654000Y-103986000D01*
X191796889Y-103986000D01*
X191907903Y-103761090D01*
X191763477Y-103412384D01*
X191388854Y-102984259D01*
X190878911Y-102732085D01*
X190654002Y-102842143D01*
X190654002Y-102723848D01*
X190962616Y-102662461D01*
X191335703Y-102413173D01*
X191584991Y-102040086D01*
X191672530Y-101600000D01*
X191584991Y-101159914D01*
X191335703Y-100786827D01*
X190962616Y-100537539D01*
X190522530Y-100450000D01*
X190477470Y-100450000D01*
X190038381Y-100537341D01*
X187369000Y-97867960D01*
X187369000Y-96511925D01*
X187405480Y-96566520D01*
X189432579Y-98593619D01*
X189415009Y-98619914D01*
X189327470Y-99060000D01*
X189415009Y-99500086D01*
X189664297Y-99873173D01*
X190037384Y-100122461D01*
X190477470Y-100210000D01*
X190522530Y-100210000D01*
X190962616Y-100122461D01*
X191335703Y-99873173D01*
X191584991Y-99500086D01*
X191672530Y-99060000D01*
X191584991Y-98619914D01*
X191335703Y-98246827D01*
X190962616Y-97997539D01*
X190522530Y-97910000D01*
X190477470Y-97910000D01*
X190038381Y-97997341D01*
X188131000Y-96089960D01*
X188131000Y-93101040D01*
X188678000Y-93648041D01*
X188678000Y-95123000D01*
X188701710Y-95242197D01*
X188710351Y-95285641D01*
X188802480Y-95423520D01*
X189432579Y-96053619D01*
X189415009Y-96079914D01*
X189327470Y-96520000D01*
X189415009Y-96960086D01*
X189664297Y-97333173D01*
X190037384Y-97582461D01*
X190477470Y-97670000D01*
X190522530Y-97670000D01*
X190962616Y-97582461D01*
X191335703Y-97333173D01*
X191584991Y-96960086D01*
X191672530Y-96520000D01*
X191584991Y-96079914D01*
X191335703Y-95706827D01*
X190962616Y-95457539D01*
X190522530Y-95370000D01*
X190477470Y-95370000D01*
X190038381Y-95457341D01*
X189528000Y-94946960D01*
X189528000Y-94589189D01*
X189664297Y-94793173D01*
X190037384Y-95042461D01*
X190477470Y-95130000D01*
X190522530Y-95130000D01*
X190962616Y-95042461D01*
X191335703Y-94793173D01*
X191584991Y-94420086D01*
X191672530Y-93980000D01*
X191584991Y-93539914D01*
X191335703Y-93166827D01*
X190962616Y-92917539D01*
X190522530Y-92830000D01*
X190477470Y-92830000D01*
X190038381Y-92917341D01*
X189274000Y-92152960D01*
X189274000Y-91059000D01*
X189241649Y-90896360D01*
X189241649Y-90896359D01*
X189149521Y-90758480D01*
X180470520Y-82079480D01*
X180332641Y-81987351D01*
X180305657Y-81981984D01*
X180170000Y-81955000D01*
X177182076Y-81955000D01*
X177111696Y-81849670D01*
X176955047Y-81745000D01*
X177111696Y-81640330D01*
X177182076Y-81535000D01*
X179993960Y-81535000D01*
X189432579Y-90973619D01*
X189415009Y-90999914D01*
X189327470Y-91440000D01*
X189415009Y-91880086D01*
X189664297Y-92253173D01*
X190037384Y-92502461D01*
X190477470Y-92590000D01*
X190522530Y-92590000D01*
X190962616Y-92502461D01*
X191335703Y-92253173D01*
X191584991Y-91880086D01*
X191672530Y-91440000D01*
X191584991Y-90999914D01*
X191335703Y-90626827D01*
X190962616Y-90377539D01*
X190522530Y-90290000D01*
X190477470Y-90290000D01*
X190038381Y-90377341D01*
X180470520Y-80809480D01*
X180332641Y-80717351D01*
X180305657Y-80711984D01*
X180170000Y-80685000D01*
X177182076Y-80685000D01*
X177111696Y-80579670D01*
X176955047Y-80475000D01*
X177111696Y-80370330D01*
X177182076Y-80265000D01*
X181263960Y-80265000D01*
X189432579Y-88433619D01*
X189415009Y-88459914D01*
X189327470Y-88900000D01*
X189415009Y-89340086D01*
X189664297Y-89713173D01*
X190037384Y-89962461D01*
X190477470Y-90050000D01*
X190522530Y-90050000D01*
X190962616Y-89962461D01*
X191335703Y-89713173D01*
X191584991Y-89340086D01*
X191672530Y-88900000D01*
X191584991Y-88459914D01*
X191335703Y-88086827D01*
X190962616Y-87837539D01*
X190522530Y-87750000D01*
X190477470Y-87750000D01*
X190038381Y-87837341D01*
X181740520Y-79539480D01*
X181602641Y-79447351D01*
X181575657Y-79441984D01*
X181440000Y-79415000D01*
X177182076Y-79415000D01*
X177111696Y-79309670D01*
X176955047Y-79205000D01*
X177111696Y-79100330D01*
X177182076Y-78995000D01*
X182533960Y-78995000D01*
X189432578Y-85893619D01*
X189415009Y-85919914D01*
X189327470Y-86360000D01*
X189415009Y-86800086D01*
X189664297Y-87173173D01*
X190037384Y-87422461D01*
X190477470Y-87510000D01*
X190522530Y-87510000D01*
X190962616Y-87422461D01*
X191335703Y-87173173D01*
X191584991Y-86800086D01*
X191672530Y-86360000D01*
X191584991Y-85919914D01*
X191335703Y-85546827D01*
X190962616Y-85297539D01*
X190522530Y-85210000D01*
X190477470Y-85210000D01*
X190038381Y-85297341D01*
X183010520Y-78269480D01*
X182872641Y-78177351D01*
X182845657Y-78171984D01*
X182710000Y-78145000D01*
X177182076Y-78145000D01*
X177111696Y-78039670D01*
X176955047Y-77935000D01*
X177111696Y-77830330D01*
X177182076Y-77725000D01*
X183803960Y-77725000D01*
X189432578Y-83353619D01*
X189415009Y-83379914D01*
X189327470Y-83820000D01*
X189415009Y-84260086D01*
X189664297Y-84633173D01*
X190037384Y-84882461D01*
X190477470Y-84970000D01*
X190522530Y-84970000D01*
X190962616Y-84882461D01*
X191335703Y-84633173D01*
X191584991Y-84260086D01*
X191672530Y-83820000D01*
X191584991Y-83379914D01*
X191335703Y-83006827D01*
X190962616Y-82757539D01*
X190522530Y-82670000D01*
X190477470Y-82670000D01*
X190038381Y-82757341D01*
X184280520Y-76999480D01*
X184142641Y-76907351D01*
X184115657Y-76901984D01*
X183980000Y-76875000D01*
X177182076Y-76875000D01*
X177111696Y-76769670D01*
X176955047Y-76665000D01*
X177111696Y-76560330D01*
X177274276Y-76317013D01*
X177331366Y-76030000D01*
X177274276Y-75742987D01*
X177111696Y-75499670D01*
X176955047Y-75395000D01*
X177111696Y-75290330D01*
X177182076Y-75185000D01*
X183803960Y-75185000D01*
X189432578Y-80813619D01*
X189415009Y-80839914D01*
X189327470Y-81280000D01*
X189415009Y-81720086D01*
X189664297Y-82093173D01*
X190037384Y-82342461D01*
X190477470Y-82430000D01*
X190522530Y-82430000D01*
X190962616Y-82342461D01*
X191335703Y-82093173D01*
X191584991Y-81720086D01*
X191672530Y-81280000D01*
X191584991Y-80839914D01*
X191335703Y-80466827D01*
X190962616Y-80217539D01*
X190522530Y-80130000D01*
X190477470Y-80130000D01*
X190038381Y-80217341D01*
X184280520Y-74459480D01*
X184142641Y-74367351D01*
X184115657Y-74361984D01*
X183980000Y-74335000D01*
X179116535Y-74335000D01*
X179197359Y-74254317D01*
X179288896Y-74033871D01*
X179289104Y-73795176D01*
X179197952Y-73574571D01*
X179029317Y-73405641D01*
X178808871Y-73314104D01*
X178690041Y-73314000D01*
X178565520Y-73189480D01*
X178427641Y-73097351D01*
X178400657Y-73091984D01*
X178265000Y-73065000D01*
X177182076Y-73065000D01*
X177111696Y-72959670D01*
X176955047Y-72855000D01*
X177111696Y-72750330D01*
X177274276Y-72507013D01*
X177331366Y-72220000D01*
X177274276Y-71932987D01*
X177111696Y-71689670D01*
X176955047Y-71585000D01*
X177111696Y-71480330D01*
X177182076Y-71375000D01*
X182533960Y-71375000D01*
X189432578Y-78273619D01*
X189415009Y-78299914D01*
X189327470Y-78740000D01*
X189415009Y-79180086D01*
X189664297Y-79553173D01*
X190037384Y-79802461D01*
X190477470Y-79890000D01*
X190522530Y-79890000D01*
X190962616Y-79802461D01*
X191335703Y-79553173D01*
X191584991Y-79180086D01*
X191672530Y-78740000D01*
X191584991Y-78299914D01*
X191335703Y-77926827D01*
X190962616Y-77677539D01*
X190522530Y-77590000D01*
X190477470Y-77590000D01*
X190038381Y-77677341D01*
X183010520Y-70649480D01*
X182872641Y-70557351D01*
X182845657Y-70551984D01*
X182710000Y-70525000D01*
X177182076Y-70525000D01*
X177111696Y-70419670D01*
X176955047Y-70315000D01*
X177111696Y-70210330D01*
X177182076Y-70105000D01*
X183803960Y-70105000D01*
X189432578Y-75733619D01*
X189415009Y-75759914D01*
X189327470Y-76200000D01*
X189415009Y-76640086D01*
X189664297Y-77013173D01*
X190037384Y-77262461D01*
X190477470Y-77350000D01*
X190522530Y-77350000D01*
X190962616Y-77262461D01*
X191335703Y-77013173D01*
X191584991Y-76640086D01*
X191672530Y-76200000D01*
X191584991Y-75759914D01*
X191335703Y-75386827D01*
X190962616Y-75137539D01*
X190522530Y-75050000D01*
X190477470Y-75050000D01*
X190038381Y-75137341D01*
X186327040Y-71426000D01*
X189042000Y-71426000D01*
X189042000Y-72090938D01*
X189134562Y-72314404D01*
X189305595Y-72485437D01*
X189529061Y-72578000D01*
X190135613Y-72578000D01*
X190037384Y-72597539D01*
X189664297Y-72846827D01*
X189415009Y-73219914D01*
X189327470Y-73660000D01*
X189415009Y-74100086D01*
X189664297Y-74473173D01*
X190037384Y-74722461D01*
X190477470Y-74810000D01*
X190522530Y-74810000D01*
X190962616Y-74722461D01*
X191335703Y-74473173D01*
X191584991Y-74100086D01*
X191672530Y-73660000D01*
X191584991Y-73219914D01*
X191335703Y-72846827D01*
X190962616Y-72597539D01*
X190864387Y-72578000D01*
X191470939Y-72578000D01*
X191694405Y-72485437D01*
X191865438Y-72314404D01*
X191958000Y-72090938D01*
X191958000Y-71426000D01*
X191806000Y-71274000D01*
X190654000Y-71274000D01*
X190654000Y-71294000D01*
X190346000Y-71294000D01*
X190346000Y-71274000D01*
X189194000Y-71274000D01*
X189042000Y-71426000D01*
X186327040Y-71426000D01*
X185050102Y-70149062D01*
X189042000Y-70149062D01*
X189042000Y-70814000D01*
X189194000Y-70966000D01*
X190346000Y-70966000D01*
X190346000Y-69814000D01*
X190654000Y-69814000D01*
X190654000Y-70966000D01*
X191806000Y-70966000D01*
X191958000Y-70814000D01*
X191958000Y-70149062D01*
X191865438Y-69925596D01*
X191694405Y-69754563D01*
X191470939Y-69662000D01*
X190806000Y-69662000D01*
X190654000Y-69814000D01*
X190346000Y-69814000D01*
X190194000Y-69662000D01*
X189529061Y-69662000D01*
X189305595Y-69754563D01*
X189134562Y-69925596D01*
X189042000Y-70149062D01*
X185050102Y-70149062D01*
X184280520Y-69379480D01*
X184142641Y-69287351D01*
X184115657Y-69281984D01*
X183980000Y-69255000D01*
X177182076Y-69255000D01*
X177181194Y-69253681D01*
X177408014Y-69049224D01*
X177560754Y-68725849D01*
X177443816Y-68564000D01*
X175905000Y-68564000D01*
X175905000Y-68584000D01*
X175597000Y-68584000D01*
X175597000Y-68564000D01*
X174058184Y-68564000D01*
X173941246Y-68725849D01*
X174093986Y-69049224D01*
X174320806Y-69253681D01*
X174227724Y-69392987D01*
X174170634Y-69680000D01*
X174227724Y-69967013D01*
X174390304Y-70210330D01*
X174546953Y-70315000D01*
X174390304Y-70419670D01*
X174227724Y-70662987D01*
X174170634Y-70950000D01*
X174227724Y-71237013D01*
X174390304Y-71480330D01*
X174546953Y-71585000D01*
X174390304Y-71689670D01*
X174227724Y-71932987D01*
X174170634Y-72220000D01*
X174174504Y-72239456D01*
X172972961Y-73440999D01*
X172855176Y-73440896D01*
X172634571Y-73532048D01*
X172465641Y-73700683D01*
X172374104Y-73921129D01*
X172373896Y-74159824D01*
X172465048Y-74380429D01*
X172633683Y-74549359D01*
X172854129Y-74640896D01*
X173092824Y-74641104D01*
X173313429Y-74549952D01*
X173482359Y-74381317D01*
X173573896Y-74160871D01*
X173574000Y-74042040D01*
X174181707Y-73434333D01*
X174170634Y-73490000D01*
X174227724Y-73777013D01*
X174390304Y-74020330D01*
X174546953Y-74125000D01*
X174390304Y-74229670D01*
X174227724Y-74472987D01*
X174170634Y-74760000D01*
X174227724Y-75047013D01*
X174390304Y-75290330D01*
X174546953Y-75395000D01*
X174390304Y-75499670D01*
X174227724Y-75742987D01*
X174170634Y-76030000D01*
X174227724Y-76317013D01*
X174390304Y-76560330D01*
X174546953Y-76665000D01*
X174390304Y-76769670D01*
X174227724Y-77012987D01*
X174170634Y-77300000D01*
X174227724Y-77587013D01*
X174390304Y-77830330D01*
X174546953Y-77935000D01*
X174390304Y-78039670D01*
X174227724Y-78282987D01*
X174170634Y-78570000D01*
X174227724Y-78857013D01*
X174390304Y-79100330D01*
X174546953Y-79205000D01*
X174390304Y-79309670D01*
X174227724Y-79552987D01*
X174170634Y-79840000D01*
X174227724Y-80127013D01*
X174390304Y-80370330D01*
X174546953Y-80475000D01*
X174390304Y-80579670D01*
X174227724Y-80822987D01*
X174170634Y-81110000D01*
X174227724Y-81397013D01*
X174390304Y-81640330D01*
X174546953Y-81745000D01*
X174390304Y-81849670D01*
X174227724Y-82092987D01*
X174170634Y-82380000D01*
X174227724Y-82667013D01*
X174390304Y-82910330D01*
X174546953Y-83015000D01*
X174390304Y-83119670D01*
X174227724Y-83362987D01*
X174170634Y-83650000D01*
X174227724Y-83937013D01*
X174390304Y-84180330D01*
X174546953Y-84285000D01*
X174390304Y-84389670D01*
X174227724Y-84632987D01*
X174170634Y-84920000D01*
X174227724Y-85207013D01*
X174390304Y-85450330D01*
X174633621Y-85612910D01*
X174920634Y-85670000D01*
X175326000Y-85670000D01*
X175326000Y-85840954D01*
X175301571Y-85851048D01*
X175132641Y-86019683D01*
X175041104Y-86240129D01*
X175040896Y-86478824D01*
X175078569Y-86570000D01*
X174928040Y-86570000D01*
X174467520Y-86109480D01*
X174329641Y-86017351D01*
X174302657Y-86011984D01*
X174167000Y-85985000D01*
X173216000Y-85985000D01*
X173216000Y-85579634D01*
X173158910Y-85292621D01*
X172996330Y-85049304D01*
X172753013Y-84886724D01*
X172466000Y-84829634D01*
X172178987Y-84886724D01*
X171935670Y-85049304D01*
X171831000Y-85205953D01*
X171726330Y-85049304D01*
X171483013Y-84886724D01*
X171196000Y-84829634D01*
X170908987Y-84886724D01*
X170665670Y-85049304D01*
X170561000Y-85205953D01*
X170456330Y-85049304D01*
X170213013Y-84886724D01*
X169926000Y-84829634D01*
X169638987Y-84886724D01*
X169395670Y-85049304D01*
X169291000Y-85205953D01*
X169186330Y-85049304D01*
X168943013Y-84886724D01*
X168656000Y-84829634D01*
X168368987Y-84886724D01*
X168125670Y-85049304D01*
X168021000Y-85205953D01*
X167916330Y-85049304D01*
X167673013Y-84886724D01*
X167386000Y-84829634D01*
X167098987Y-84886724D01*
X166855670Y-85049304D01*
X166751000Y-85205953D01*
X166646330Y-85049304D01*
X166403013Y-84886724D01*
X166116000Y-84829634D01*
X165828987Y-84886724D01*
X165585670Y-85049304D01*
X165481000Y-85205953D01*
X165376330Y-85049304D01*
X165133013Y-84886724D01*
X164846000Y-84829634D01*
X164558987Y-84886724D01*
X164315670Y-85049304D01*
X164211000Y-85205953D01*
X164106330Y-85049304D01*
X163863013Y-84886724D01*
X163576000Y-84829634D01*
X163288987Y-84886724D01*
X163045670Y-85049304D01*
X162941000Y-85205953D01*
X162836330Y-85049304D01*
X162593013Y-84886724D01*
X162306000Y-84829634D01*
X162018987Y-84886724D01*
X161879681Y-84979806D01*
X161675224Y-84752986D01*
X161351849Y-84600246D01*
X161190000Y-84717184D01*
X161190000Y-86256000D01*
X161210000Y-86256000D01*
X161210000Y-86564000D01*
X161190000Y-86564000D01*
X161190000Y-88102816D01*
X161351849Y-88219754D01*
X161675224Y-88067014D01*
X161879681Y-87840194D01*
X161881000Y-87841076D01*
X161881000Y-94184960D01*
X155655480Y-100410480D01*
X155563351Y-100548359D01*
X155563351Y-100548360D01*
X155531000Y-100711000D01*
X155531000Y-102947959D01*
X152861619Y-105617341D01*
X152422530Y-105530000D01*
X152377470Y-105530000D01*
X151937384Y-105617539D01*
X151564297Y-105866827D01*
X151315009Y-106239914D01*
X151227470Y-106680000D01*
X151315009Y-107120086D01*
X151564297Y-107493173D01*
X151937384Y-107742461D01*
X152245998Y-107803848D01*
X152245998Y-107922143D01*
X152021089Y-107812085D01*
X151511146Y-108064259D01*
X151136523Y-108492384D01*
X150992097Y-108841090D01*
X150285000Y-108841090D01*
X150285000Y-106856040D01*
X150287520Y-106853520D01*
X150379649Y-106715641D01*
X150411999Y-106553000D01*
X150379649Y-106390359D01*
X150287520Y-106252480D01*
X150235000Y-106217387D01*
X150235000Y-96520000D01*
X151227470Y-96520000D01*
X151315009Y-96960086D01*
X151564297Y-97333173D01*
X151937384Y-97582461D01*
X152377470Y-97670000D01*
X152422530Y-97670000D01*
X152862616Y-97582461D01*
X153235703Y-97333173D01*
X153484991Y-96960086D01*
X153572530Y-96520000D01*
X153484991Y-96079914D01*
X153235703Y-95706827D01*
X152862616Y-95457539D01*
X152422530Y-95370000D01*
X152377470Y-95370000D01*
X151937384Y-95457539D01*
X151564297Y-95706827D01*
X151315009Y-96079914D01*
X151227470Y-96520000D01*
X150235000Y-96520000D01*
X150235000Y-93980000D01*
X151227470Y-93980000D01*
X151315009Y-94420086D01*
X151564297Y-94793173D01*
X151937384Y-95042461D01*
X152377470Y-95130000D01*
X152422530Y-95130000D01*
X152862616Y-95042461D01*
X153235703Y-94793173D01*
X153484991Y-94420086D01*
X153572530Y-93980000D01*
X153484991Y-93539914D01*
X153235703Y-93166827D01*
X152862616Y-92917539D01*
X152422530Y-92830000D01*
X152377470Y-92830000D01*
X151937384Y-92917539D01*
X151564297Y-93166827D01*
X151315009Y-93539914D01*
X151227470Y-93980000D01*
X150235000Y-93980000D01*
X150235000Y-91440000D01*
X151227470Y-91440000D01*
X151315009Y-91880086D01*
X151564297Y-92253173D01*
X151937384Y-92502461D01*
X152377470Y-92590000D01*
X152422530Y-92590000D01*
X152862616Y-92502461D01*
X153235703Y-92253173D01*
X153484991Y-91880086D01*
X153572530Y-91440000D01*
X153484991Y-90999914D01*
X153235703Y-90626827D01*
X152862616Y-90377539D01*
X152422530Y-90290000D01*
X152377470Y-90290000D01*
X151937384Y-90377539D01*
X151564297Y-90626827D01*
X151315009Y-90999914D01*
X151227470Y-91440000D01*
X150235000Y-91440000D01*
X150235000Y-88900000D01*
X151227470Y-88900000D01*
X151315009Y-89340086D01*
X151564297Y-89713173D01*
X151937384Y-89962461D01*
X152377470Y-90050000D01*
X152422530Y-90050000D01*
X152862616Y-89962461D01*
X153235703Y-89713173D01*
X153484991Y-89340086D01*
X153572530Y-88900000D01*
X153484991Y-88459914D01*
X153235703Y-88086827D01*
X152862616Y-87837539D01*
X152422530Y-87750000D01*
X152377470Y-87750000D01*
X151937384Y-87837539D01*
X151564297Y-88086827D01*
X151315009Y-88459914D01*
X151227470Y-88900000D01*
X150235000Y-88900000D01*
X150235000Y-86360000D01*
X151227470Y-86360000D01*
X151315009Y-86800086D01*
X151564297Y-87173173D01*
X151937384Y-87422461D01*
X152377470Y-87510000D01*
X152422530Y-87510000D01*
X152862616Y-87422461D01*
X153235703Y-87173173D01*
X153484991Y-86800086D01*
X153572530Y-86360000D01*
X153484991Y-85919914D01*
X153235703Y-85546827D01*
X152862616Y-85297539D01*
X152422530Y-85210000D01*
X152377470Y-85210000D01*
X151937384Y-85297539D01*
X151564297Y-85546827D01*
X151315009Y-85919914D01*
X151227470Y-86360000D01*
X150235000Y-86360000D01*
X150235000Y-71426000D01*
X150942000Y-71426000D01*
X150942000Y-72090938D01*
X151034562Y-72314404D01*
X151205595Y-72485437D01*
X151429061Y-72578000D01*
X152035613Y-72578000D01*
X151937384Y-72597539D01*
X151564297Y-72846827D01*
X151315009Y-73219914D01*
X151227470Y-73660000D01*
X151315009Y-74100086D01*
X151564297Y-74473173D01*
X151937384Y-74722461D01*
X152377470Y-74810000D01*
X152422530Y-74810000D01*
X152862616Y-74722461D01*
X153235703Y-74473173D01*
X153484991Y-74100086D01*
X153500985Y-74019678D01*
X153589520Y-73960520D01*
X154605520Y-72944520D01*
X154642000Y-72889925D01*
X154642000Y-73356959D01*
X152861619Y-75137341D01*
X152422530Y-75050000D01*
X152377470Y-75050000D01*
X151937384Y-75137539D01*
X151564297Y-75386827D01*
X151315009Y-75759914D01*
X151227470Y-76200000D01*
X151315009Y-76640086D01*
X151564297Y-77013173D01*
X151937384Y-77262461D01*
X152377470Y-77350000D01*
X152422530Y-77350000D01*
X152862616Y-77262461D01*
X153235703Y-77013173D01*
X153484991Y-76640086D01*
X153572530Y-76200000D01*
X153484991Y-75759914D01*
X153467421Y-75733619D01*
X154007000Y-75194040D01*
X154007000Y-76531960D01*
X152861619Y-77677341D01*
X152422530Y-77590000D01*
X152377470Y-77590000D01*
X151937384Y-77677539D01*
X151564297Y-77926827D01*
X151315009Y-78299914D01*
X151227470Y-78740000D01*
X151315009Y-79180086D01*
X151564297Y-79553173D01*
X151937384Y-79802461D01*
X152377470Y-79890000D01*
X152422530Y-79890000D01*
X152862616Y-79802461D01*
X153235703Y-79553173D01*
X153484991Y-79180086D01*
X153572530Y-78740000D01*
X153484991Y-78299914D01*
X153467421Y-78273619D01*
X153782041Y-77958999D01*
X153753000Y-78105000D01*
X153753000Y-79325959D01*
X152861619Y-80217341D01*
X152422530Y-80130000D01*
X152377470Y-80130000D01*
X151937384Y-80217539D01*
X151564297Y-80466827D01*
X151315009Y-80839914D01*
X151227470Y-81280000D01*
X151315009Y-81720086D01*
X151564297Y-82093173D01*
X151937384Y-82342461D01*
X152377470Y-82430000D01*
X152422530Y-82430000D01*
X152862616Y-82342461D01*
X153235703Y-82093173D01*
X153484991Y-81720086D01*
X153572530Y-81280000D01*
X153484991Y-80839914D01*
X153467421Y-80813619D01*
X154478521Y-79802520D01*
X154515000Y-79747925D01*
X154515000Y-81103959D01*
X152861619Y-82757341D01*
X152422530Y-82670000D01*
X152377470Y-82670000D01*
X151937384Y-82757539D01*
X151564297Y-83006827D01*
X151315009Y-83379914D01*
X151227470Y-83820000D01*
X151315009Y-84260086D01*
X151564297Y-84633173D01*
X151937384Y-84882461D01*
X152377470Y-84970000D01*
X152422530Y-84970000D01*
X152862616Y-84882461D01*
X153235703Y-84633173D01*
X153484991Y-84260086D01*
X153572530Y-83820000D01*
X153484991Y-83379914D01*
X153467421Y-83353619D01*
X155240520Y-81580521D01*
X155332648Y-81442641D01*
X155332649Y-81442640D01*
X155365000Y-81280000D01*
X155365000Y-78535040D01*
X155875521Y-78024520D01*
X155967649Y-77886641D01*
X156000000Y-77724000D01*
X156000000Y-75614040D01*
X156363630Y-75250410D01*
X156390304Y-75290330D01*
X156546953Y-75395000D01*
X156390304Y-75499670D01*
X156227724Y-75742987D01*
X156170634Y-76030000D01*
X156227724Y-76317013D01*
X156390304Y-76560330D01*
X156546953Y-76665000D01*
X156390304Y-76769670D01*
X156227724Y-77012987D01*
X156170634Y-77300000D01*
X156227724Y-77587013D01*
X156390304Y-77830330D01*
X156546953Y-77935000D01*
X156390304Y-78039670D01*
X156227724Y-78282987D01*
X156170634Y-78570000D01*
X156227724Y-78857013D01*
X156390304Y-79100330D01*
X156546953Y-79205000D01*
X156390304Y-79309670D01*
X156227724Y-79552987D01*
X156170634Y-79840000D01*
X156227724Y-80127013D01*
X156390304Y-80370330D01*
X156546953Y-80475000D01*
X156390304Y-80579670D01*
X156227724Y-80822987D01*
X156170634Y-81110000D01*
X156227724Y-81397013D01*
X156390304Y-81640330D01*
X156546953Y-81745000D01*
X156390304Y-81849670D01*
X156261164Y-82042941D01*
X156206480Y-82079480D01*
X154258480Y-84027480D01*
X154166351Y-84165359D01*
X154166351Y-84165360D01*
X154134000Y-84328000D01*
X154134000Y-97994960D01*
X153493960Y-98635000D01*
X153487992Y-98635000D01*
X153484991Y-98619914D01*
X153235703Y-98246827D01*
X152862616Y-97997539D01*
X152422530Y-97910000D01*
X152377470Y-97910000D01*
X151937384Y-97997539D01*
X151564297Y-98246827D01*
X151315009Y-98619914D01*
X151227470Y-99060000D01*
X151315009Y-99500086D01*
X151564297Y-99873173D01*
X151937384Y-100122461D01*
X152377470Y-100210000D01*
X152422530Y-100210000D01*
X152862616Y-100122461D01*
X153235703Y-99873173D01*
X153484991Y-99500086D01*
X153487992Y-99485000D01*
X153670000Y-99485000D01*
X153805657Y-99458016D01*
X153832641Y-99452649D01*
X153970520Y-99360520D01*
X154859520Y-98471520D01*
X154896000Y-98416925D01*
X154896000Y-98756959D01*
X153014162Y-100638798D01*
X152862616Y-100537539D01*
X152422530Y-100450000D01*
X152377470Y-100450000D01*
X151937384Y-100537539D01*
X151564297Y-100786827D01*
X151315009Y-101159914D01*
X151227470Y-101600000D01*
X151315009Y-102040086D01*
X151564297Y-102413173D01*
X151937384Y-102662461D01*
X152377470Y-102750000D01*
X152422530Y-102750000D01*
X152862616Y-102662461D01*
X153235703Y-102413173D01*
X153484991Y-102040086D01*
X153572530Y-101600000D01*
X153519855Y-101335185D01*
X154671041Y-100183999D01*
X154642000Y-100330000D01*
X154642000Y-101677959D01*
X153090293Y-103229667D01*
X152862616Y-103077539D01*
X152422530Y-102990000D01*
X152377470Y-102990000D01*
X151937384Y-103077539D01*
X151564297Y-103326827D01*
X151315009Y-103699914D01*
X151227470Y-104140000D01*
X151315009Y-104580086D01*
X151564297Y-104953173D01*
X151937384Y-105202461D01*
X152377470Y-105290000D01*
X152422530Y-105290000D01*
X152862616Y-105202461D01*
X153235703Y-104953173D01*
X153484991Y-104580086D01*
X153572530Y-104140000D01*
X153540926Y-103981115D01*
X155367520Y-102154521D01*
X155454063Y-102025000D01*
X155459649Y-102016640D01*
X155492000Y-101854000D01*
X155492000Y-100506040D01*
X158051520Y-97946521D01*
X158143648Y-97808641D01*
X158143649Y-97808640D01*
X158176000Y-97646000D01*
X158176000Y-86564000D01*
X159978000Y-86564000D01*
X159978000Y-87364000D01*
X160117469Y-87757157D01*
X160396776Y-88067014D01*
X160720151Y-88219754D01*
X160882000Y-88102816D01*
X160882000Y-86564000D01*
X159978000Y-86564000D01*
X158176000Y-86564000D01*
X158176000Y-85670000D01*
X158581366Y-85670000D01*
X158868379Y-85612910D01*
X159103210Y-85456000D01*
X159978000Y-85456000D01*
X159978000Y-86256000D01*
X160882000Y-86256000D01*
X160882000Y-84717184D01*
X160720151Y-84600246D01*
X160396776Y-84752986D01*
X160117469Y-85062843D01*
X159978000Y-85456000D01*
X159103210Y-85456000D01*
X159111696Y-85450330D01*
X159274276Y-85207013D01*
X159331366Y-84920000D01*
X159274276Y-84632987D01*
X159111696Y-84389670D01*
X158955047Y-84285000D01*
X159111696Y-84180330D01*
X159274276Y-83937013D01*
X159331366Y-83650000D01*
X159274276Y-83362987D01*
X159111696Y-83119670D01*
X158955047Y-83015000D01*
X159111696Y-82910330D01*
X159274276Y-82667013D01*
X159331366Y-82380000D01*
X159274276Y-82092987D01*
X159111696Y-81849670D01*
X158955047Y-81745000D01*
X159111696Y-81640330D01*
X159182076Y-81535000D01*
X159300227Y-81535000D01*
X159519129Y-81625896D01*
X159757824Y-81626104D01*
X159978429Y-81534952D01*
X160147359Y-81366317D01*
X160238896Y-81145871D01*
X160239104Y-80907176D01*
X160147952Y-80686571D01*
X159979317Y-80517641D01*
X159758871Y-80426104D01*
X159520176Y-80425896D01*
X159299571Y-80517048D01*
X159161769Y-80654609D01*
X159111696Y-80579670D01*
X158955047Y-80475000D01*
X159111696Y-80370330D01*
X159182076Y-80265000D01*
X159301000Y-80265000D01*
X159436657Y-80238016D01*
X159463641Y-80232649D01*
X159469157Y-80228963D01*
X159630824Y-80229104D01*
X159851429Y-80137952D01*
X160020359Y-79969317D01*
X160111896Y-79748871D01*
X160112104Y-79510176D01*
X160020952Y-79289571D01*
X159852317Y-79120641D01*
X159636811Y-79031155D01*
X159724429Y-78994952D01*
X159893359Y-78826317D01*
X159984896Y-78605871D01*
X159985104Y-78367176D01*
X159893952Y-78146571D01*
X159725317Y-77977641D01*
X159504871Y-77886104D01*
X159266176Y-77885896D01*
X159045571Y-77977048D01*
X159034506Y-77988093D01*
X158955047Y-77935000D01*
X159111696Y-77830330D01*
X159182076Y-77725000D01*
X159300227Y-77725000D01*
X159519129Y-77815896D01*
X159757824Y-77816104D01*
X159978429Y-77724952D01*
X160147359Y-77556317D01*
X160238896Y-77335871D01*
X160239104Y-77097176D01*
X160147952Y-76876571D01*
X159979317Y-76707641D01*
X159758871Y-76616104D01*
X159520176Y-76615896D01*
X159299571Y-76707048D01*
X159161769Y-76844609D01*
X159111696Y-76769670D01*
X158955047Y-76665000D01*
X159111696Y-76560330D01*
X159182076Y-76455000D01*
X159428000Y-76455000D01*
X159563657Y-76428016D01*
X159590641Y-76422649D01*
X159596157Y-76418963D01*
X159757824Y-76419104D01*
X159978429Y-76327952D01*
X160147359Y-76159317D01*
X160238896Y-75938871D01*
X160239104Y-75700176D01*
X160147952Y-75479571D01*
X159979317Y-75310641D01*
X159758871Y-75219104D01*
X159520176Y-75218896D01*
X159299571Y-75310048D01*
X159130641Y-75478683D01*
X159118005Y-75509113D01*
X159111696Y-75499670D01*
X158955047Y-75395000D01*
X159111696Y-75290330D01*
X159274276Y-75047013D01*
X159331366Y-74760000D01*
X159274276Y-74472987D01*
X159111696Y-74229670D01*
X158955047Y-74125000D01*
X159111696Y-74020330D01*
X159274276Y-73777013D01*
X159331366Y-73490000D01*
X159274276Y-73202987D01*
X159111696Y-72959670D01*
X158955047Y-72855000D01*
X159111696Y-72750330D01*
X159274276Y-72507013D01*
X159331366Y-72220000D01*
X159274276Y-71932987D01*
X159111696Y-71689670D01*
X158955047Y-71585000D01*
X159111696Y-71480330D01*
X159175621Y-71384661D01*
X161119000Y-73328041D01*
X161119000Y-80475470D01*
X161035641Y-80558683D01*
X160944104Y-80779129D01*
X160943896Y-81017824D01*
X161035048Y-81238429D01*
X161203683Y-81407359D01*
X161424129Y-81498896D01*
X161662824Y-81499104D01*
X161883429Y-81407952D01*
X162052359Y-81239317D01*
X162143896Y-81018871D01*
X162144104Y-80780176D01*
X162052952Y-80559571D01*
X161969000Y-80475472D01*
X161969000Y-76416000D01*
X162843000Y-76416000D01*
X162843000Y-79230938D01*
X162935562Y-79454404D01*
X163106595Y-79625437D01*
X163330061Y-79718000D01*
X166145000Y-79718000D01*
X166297000Y-79566000D01*
X166297000Y-76264000D01*
X166605000Y-76264000D01*
X166605000Y-79566000D01*
X166757000Y-79718000D01*
X169571939Y-79718000D01*
X169795405Y-79625437D01*
X169966438Y-79454404D01*
X170059000Y-79230938D01*
X170059000Y-76416000D01*
X169907000Y-76264000D01*
X166605000Y-76264000D01*
X166297000Y-76264000D01*
X162995000Y-76264000D01*
X162843000Y-76416000D01*
X161969000Y-76416000D01*
X161969000Y-73152000D01*
X161936649Y-72989360D01*
X161936450Y-72989062D01*
X162843000Y-72989062D01*
X162843000Y-75804000D01*
X162995000Y-75956000D01*
X166297000Y-75956000D01*
X166297000Y-72654000D01*
X166605000Y-72654000D01*
X166605000Y-75956000D01*
X169907000Y-75956000D01*
X170059000Y-75804000D01*
X170059000Y-72989062D01*
X169966438Y-72765596D01*
X169795405Y-72594563D01*
X169571939Y-72502000D01*
X166757000Y-72502000D01*
X166605000Y-72654000D01*
X166297000Y-72654000D01*
X166145000Y-72502000D01*
X163330061Y-72502000D01*
X163106595Y-72594563D01*
X162935562Y-72765596D01*
X162843000Y-72989062D01*
X161936450Y-72989062D01*
X161906078Y-72943608D01*
X161844520Y-72851479D01*
X159642520Y-70649480D01*
X159504641Y-70557351D01*
X159477657Y-70551984D01*
X159342000Y-70525000D01*
X159182076Y-70525000D01*
X159111696Y-70419670D01*
X158955047Y-70315000D01*
X159111696Y-70210330D01*
X159182076Y-70105000D01*
X164762000Y-70105000D01*
X164897657Y-70078016D01*
X164924641Y-70072649D01*
X164930157Y-70068963D01*
X165091824Y-70069104D01*
X165312429Y-69977952D01*
X165481359Y-69809317D01*
X165572896Y-69588871D01*
X165573104Y-69350176D01*
X165481952Y-69129571D01*
X165313317Y-68960641D01*
X165092871Y-68869104D01*
X164854176Y-68868896D01*
X164633571Y-68960048D01*
X164464641Y-69128683D01*
X164412190Y-69255000D01*
X159182076Y-69255000D01*
X159181194Y-69253681D01*
X159408014Y-69049224D01*
X159560754Y-68725849D01*
X159443816Y-68564000D01*
X157905000Y-68564000D01*
X157905000Y-68584000D01*
X157597000Y-68584000D01*
X157597000Y-68564000D01*
X156058184Y-68564000D01*
X155941246Y-68725849D01*
X156093986Y-69049224D01*
X156320806Y-69253681D01*
X156319924Y-69255000D01*
X156253000Y-69255000D01*
X156117343Y-69281984D01*
X156090359Y-69287351D01*
X155952480Y-69379480D01*
X154004480Y-71327480D01*
X153912351Y-71465359D01*
X153912351Y-71465360D01*
X153880000Y-71628000D01*
X153880000Y-72467960D01*
X153342019Y-73005941D01*
X153235703Y-72846827D01*
X152862616Y-72597539D01*
X152764387Y-72578000D01*
X153370939Y-72578000D01*
X153594405Y-72485437D01*
X153765438Y-72314404D01*
X153858000Y-72090938D01*
X153858000Y-71426000D01*
X153706000Y-71274000D01*
X152554000Y-71274000D01*
X152554000Y-71294000D01*
X152246000Y-71294000D01*
X152246000Y-71274000D01*
X151094000Y-71274000D01*
X150942000Y-71426000D01*
X150235000Y-71426000D01*
X150235000Y-70149062D01*
X150942000Y-70149062D01*
X150942000Y-70814000D01*
X151094000Y-70966000D01*
X152246000Y-70966000D01*
X152246000Y-69814000D01*
X152554000Y-69814000D01*
X152554000Y-70966000D01*
X153706000Y-70966000D01*
X153858000Y-70814000D01*
X153858000Y-70149062D01*
X153765438Y-69925596D01*
X153594405Y-69754563D01*
X153370939Y-69662000D01*
X152706000Y-69662000D01*
X152554000Y-69814000D01*
X152246000Y-69814000D01*
X152094000Y-69662000D01*
X151429061Y-69662000D01*
X151205595Y-69754563D01*
X151034562Y-69925596D01*
X150942000Y-70149062D01*
X150235000Y-70149062D01*
X150235000Y-67918000D01*
X156024448Y-67918000D01*
X155941246Y-68094151D01*
G36*
X174600000Y-116823000D02*
X174620000Y-116823000D01*
X174620000Y-117131000D01*
X174600000Y-117131000D01*
X174600000Y-117151000D01*
X174292000Y-117151000D01*
X174292000Y-117131000D01*
X174272000Y-117131000D01*
X174272000Y-116823000D01*
X174292000Y-116823000D01*
X174292000Y-116803000D01*
X174600000Y-116803000D01*
X174600000Y-116823000D01*
X174600000Y-116823000D01*
G37*
X174600000Y-116823000D02*
X174620000Y-116823000D01*
X174620000Y-117131000D01*
X174600000Y-117131000D01*
X174600000Y-117151000D01*
X174292000Y-117151000D01*
X174292000Y-117131000D01*
X174272000Y-117131000D01*
X174272000Y-116823000D01*
X174292000Y-116823000D01*
X174292000Y-116803000D01*
X174600000Y-116803000D01*
X174600000Y-116823000D01*
G36*
X176346000Y-116498000D02*
X176390123Y-116498000D01*
X176390123Y-116806000D01*
X176346000Y-116806000D01*
X176346000Y-116826000D01*
X176146000Y-116826000D01*
X176146000Y-116806000D01*
X176072000Y-116806000D01*
X176072000Y-116703000D01*
X176104000Y-116671000D01*
X176104000Y-116498000D01*
X176146000Y-116498000D01*
X176146000Y-116478000D01*
X176346000Y-116478000D01*
X176346000Y-116498000D01*
X176346000Y-116498000D01*
G37*
X176346000Y-116498000D02*
X176390123Y-116498000D01*
X176390123Y-116806000D01*
X176346000Y-116806000D01*
X176346000Y-116826000D01*
X176146000Y-116826000D01*
X176146000Y-116806000D01*
X176072000Y-116806000D01*
X176072000Y-116703000D01*
X176104000Y-116671000D01*
X176104000Y-116498000D01*
X176146000Y-116498000D01*
X176146000Y-116478000D01*
X176346000Y-116478000D01*
X176346000Y-116498000D01*
G36*
X174497048Y-101304429D02*
X174665683Y-101473359D01*
X174886129Y-101564896D01*
X175124824Y-101565104D01*
X175345429Y-101473952D01*
X175368427Y-101450994D01*
X175452997Y-101508778D01*
X175572000Y-101532877D01*
X176472000Y-101532877D01*
X176583173Y-101511958D01*
X176613000Y-101492765D01*
X176613000Y-101960252D01*
X176591003Y-101945222D01*
X176472000Y-101921123D01*
X175572000Y-101921123D01*
X175460827Y-101942042D01*
X175429267Y-101962350D01*
X175252871Y-101889104D01*
X175014176Y-101888896D01*
X174793571Y-101980048D01*
X174624641Y-102148683D01*
X174533104Y-102369129D01*
X174532896Y-102607824D01*
X174624048Y-102828429D01*
X174792683Y-102997359D01*
X175013129Y-103088896D01*
X175251824Y-103089104D01*
X175450446Y-103007035D01*
X175452997Y-103008778D01*
X175572000Y-103032877D01*
X176472000Y-103032877D01*
X176583173Y-103011958D01*
X176613000Y-102992765D01*
X176613000Y-104902000D01*
X176631173Y-104993360D01*
X176645351Y-105064641D01*
X176737480Y-105202520D01*
X177121000Y-105586041D01*
X177121000Y-114742764D01*
X176903871Y-114652604D01*
X176665176Y-114652396D01*
X176444571Y-114743548D01*
X176360472Y-114827500D01*
X174923000Y-114827500D01*
X174923000Y-114786689D01*
X174998000Y-114801877D01*
X175498000Y-114801877D01*
X175609173Y-114780958D01*
X175711279Y-114715255D01*
X175779778Y-114615003D01*
X175803877Y-114496000D01*
X175803877Y-113596000D01*
X175782958Y-113484827D01*
X175717255Y-113382721D01*
X175673000Y-113352483D01*
X175673000Y-112961887D01*
X175711279Y-112937255D01*
X175779778Y-112837003D01*
X175803877Y-112718000D01*
X175803877Y-111818000D01*
X175782958Y-111706827D01*
X175717255Y-111604721D01*
X175673000Y-111574483D01*
X175673000Y-111183887D01*
X175711279Y-111159255D01*
X175779778Y-111059003D01*
X175803877Y-110940000D01*
X175803877Y-110040000D01*
X175782958Y-109928827D01*
X175717255Y-109826721D01*
X175673000Y-109796483D01*
X175673000Y-109405887D01*
X175711279Y-109381255D01*
X175779778Y-109281003D01*
X175803877Y-109162000D01*
X175803877Y-108262000D01*
X175782958Y-108150827D01*
X175717255Y-108048721D01*
X175673000Y-108018483D01*
X175673000Y-107627887D01*
X175711279Y-107603255D01*
X175779778Y-107503003D01*
X175803877Y-107384000D01*
X175803877Y-106484000D01*
X175782958Y-106372827D01*
X175717255Y-106270721D01*
X175673000Y-106240483D01*
X175673000Y-105849887D01*
X175711279Y-105825255D01*
X175779778Y-105725003D01*
X175803877Y-105606000D01*
X175803877Y-104706000D01*
X175782958Y-104594827D01*
X175717255Y-104492721D01*
X175617003Y-104424222D01*
X175609677Y-104422738D01*
X175596642Y-104392948D01*
X174844057Y-103313414D01*
X174844104Y-103259176D01*
X174752952Y-103038571D01*
X174703783Y-102989316D01*
X174699572Y-102981435D01*
X174491670Y-102728023D01*
X174491877Y-102727000D01*
X174491877Y-102227000D01*
X174470958Y-102115827D01*
X174405255Y-102013721D01*
X174305003Y-101945222D01*
X174186000Y-101921123D01*
X173286000Y-101921123D01*
X173174827Y-101942042D01*
X173072721Y-102007745D01*
X173004222Y-102107997D01*
X172980123Y-102227000D01*
X172980123Y-102402083D01*
X172891000Y-102312960D01*
X172891000Y-101402000D01*
X173042113Y-101402000D01*
X173066745Y-101440279D01*
X173166997Y-101508778D01*
X173286000Y-101532877D01*
X174186000Y-101532877D01*
X174297173Y-101511958D01*
X174399279Y-101446255D01*
X174467778Y-101346003D01*
X174483055Y-101270563D01*
X174497048Y-101304429D01*
X174497048Y-101304429D01*
G37*
X174497048Y-101304429D02*
X174665683Y-101473359D01*
X174886129Y-101564896D01*
X175124824Y-101565104D01*
X175345429Y-101473952D01*
X175368427Y-101450994D01*
X175452997Y-101508778D01*
X175572000Y-101532877D01*
X176472000Y-101532877D01*
X176583173Y-101511958D01*
X176613000Y-101492765D01*
X176613000Y-101960252D01*
X176591003Y-101945222D01*
X176472000Y-101921123D01*
X175572000Y-101921123D01*
X175460827Y-101942042D01*
X175429267Y-101962350D01*
X175252871Y-101889104D01*
X175014176Y-101888896D01*
X174793571Y-101980048D01*
X174624641Y-102148683D01*
X174533104Y-102369129D01*
X174532896Y-102607824D01*
X174624048Y-102828429D01*
X174792683Y-102997359D01*
X175013129Y-103088896D01*
X175251824Y-103089104D01*
X175450446Y-103007035D01*
X175452997Y-103008778D01*
X175572000Y-103032877D01*
X176472000Y-103032877D01*
X176583173Y-103011958D01*
X176613000Y-102992765D01*
X176613000Y-104902000D01*
X176631173Y-104993360D01*
X176645351Y-105064641D01*
X176737480Y-105202520D01*
X177121000Y-105586041D01*
X177121000Y-114742764D01*
X176903871Y-114652604D01*
X176665176Y-114652396D01*
X176444571Y-114743548D01*
X176360472Y-114827500D01*
X174923000Y-114827500D01*
X174923000Y-114786689D01*
X174998000Y-114801877D01*
X175498000Y-114801877D01*
X175609173Y-114780958D01*
X175711279Y-114715255D01*
X175779778Y-114615003D01*
X175803877Y-114496000D01*
X175803877Y-113596000D01*
X175782958Y-113484827D01*
X175717255Y-113382721D01*
X175673000Y-113352483D01*
X175673000Y-112961887D01*
X175711279Y-112937255D01*
X175779778Y-112837003D01*
X175803877Y-112718000D01*
X175803877Y-111818000D01*
X175782958Y-111706827D01*
X175717255Y-111604721D01*
X175673000Y-111574483D01*
X175673000Y-111183887D01*
X175711279Y-111159255D01*
X175779778Y-111059003D01*
X175803877Y-110940000D01*
X175803877Y-110040000D01*
X175782958Y-109928827D01*
X175717255Y-109826721D01*
X175673000Y-109796483D01*
X175673000Y-109405887D01*
X175711279Y-109381255D01*
X175779778Y-109281003D01*
X175803877Y-109162000D01*
X175803877Y-108262000D01*
X175782958Y-108150827D01*
X175717255Y-108048721D01*
X175673000Y-108018483D01*
X175673000Y-107627887D01*
X175711279Y-107603255D01*
X175779778Y-107503003D01*
X175803877Y-107384000D01*
X175803877Y-106484000D01*
X175782958Y-106372827D01*
X175717255Y-106270721D01*
X175673000Y-106240483D01*
X175673000Y-105849887D01*
X175711279Y-105825255D01*
X175779778Y-105725003D01*
X175803877Y-105606000D01*
X175803877Y-104706000D01*
X175782958Y-104594827D01*
X175717255Y-104492721D01*
X175617003Y-104424222D01*
X175609677Y-104422738D01*
X175596642Y-104392948D01*
X174844057Y-103313414D01*
X174844104Y-103259176D01*
X174752952Y-103038571D01*
X174703783Y-102989316D01*
X174699572Y-102981435D01*
X174491670Y-102728023D01*
X174491877Y-102727000D01*
X174491877Y-102227000D01*
X174470958Y-102115827D01*
X174405255Y-102013721D01*
X174305003Y-101945222D01*
X174186000Y-101921123D01*
X173286000Y-101921123D01*
X173174827Y-101942042D01*
X173072721Y-102007745D01*
X173004222Y-102107997D01*
X172980123Y-102227000D01*
X172980123Y-102402083D01*
X172891000Y-102312960D01*
X172891000Y-101402000D01*
X173042113Y-101402000D01*
X173066745Y-101440279D01*
X173166997Y-101508778D01*
X173286000Y-101532877D01*
X174186000Y-101532877D01*
X174297173Y-101511958D01*
X174399279Y-101446255D01*
X174467778Y-101346003D01*
X174483055Y-101270563D01*
X174497048Y-101304429D01*
G36*
X165643000Y-94613959D02*
X165449480Y-94807480D01*
X165357351Y-94945359D01*
X165351984Y-94972343D01*
X165325000Y-95108000D01*
X165325000Y-101794235D01*
X165288827Y-101801042D01*
X165198972Y-101858862D01*
X165119003Y-101804222D01*
X165075000Y-101795311D01*
X165075000Y-101584632D01*
X165100359Y-101559317D01*
X165191896Y-101338871D01*
X165192104Y-101100176D01*
X165100952Y-100879571D01*
X164932317Y-100710641D01*
X164711871Y-100619104D01*
X164473176Y-100618896D01*
X164252571Y-100710048D01*
X164083641Y-100878683D01*
X163992104Y-101099129D01*
X163991896Y-101337824D01*
X164083048Y-101558429D01*
X164225000Y-101700629D01*
X164225000Y-101794235D01*
X164188827Y-101801042D01*
X164098972Y-101858862D01*
X164019003Y-101804222D01*
X163975000Y-101795311D01*
X163975000Y-97960833D01*
X164048896Y-97782871D01*
X164049104Y-97544176D01*
X163957952Y-97323571D01*
X163789317Y-97154641D01*
X163568871Y-97063104D01*
X163330176Y-97062896D01*
X163109571Y-97154048D01*
X162940641Y-97322683D01*
X162849104Y-97543129D01*
X162848896Y-97781824D01*
X162940048Y-98002429D01*
X163108683Y-98171359D01*
X163125000Y-98178134D01*
X163125000Y-101562525D01*
X162920939Y-101478000D01*
X162756000Y-101478000D01*
X162604000Y-101630000D01*
X162604000Y-102532000D01*
X162624000Y-102532000D01*
X162624000Y-102840000D01*
X162604000Y-102840000D01*
X162604000Y-102860000D01*
X162296000Y-102860000D01*
X162296000Y-102840000D01*
X162276000Y-102840000D01*
X162276000Y-102532000D01*
X162296000Y-102532000D01*
X162296000Y-101630000D01*
X162144000Y-101478000D01*
X161979061Y-101478000D01*
X161775000Y-101562525D01*
X161775000Y-99931413D01*
X161925359Y-99781317D01*
X162016896Y-99560871D01*
X162017104Y-99322176D01*
X161925952Y-99101571D01*
X161757317Y-98932641D01*
X161536871Y-98841104D01*
X161348101Y-98840940D01*
X165643060Y-94545981D01*
X165643000Y-94613959D01*
X165643000Y-94613959D01*
G37*
X165643000Y-94613959D02*
X165449480Y-94807480D01*
X165357351Y-94945359D01*
X165351984Y-94972343D01*
X165325000Y-95108000D01*
X165325000Y-101794235D01*
X165288827Y-101801042D01*
X165198972Y-101858862D01*
X165119003Y-101804222D01*
X165075000Y-101795311D01*
X165075000Y-101584632D01*
X165100359Y-101559317D01*
X165191896Y-101338871D01*
X165192104Y-101100176D01*
X165100952Y-100879571D01*
X164932317Y-100710641D01*
X164711871Y-100619104D01*
X164473176Y-100618896D01*
X164252571Y-100710048D01*
X164083641Y-100878683D01*
X163992104Y-101099129D01*
X163991896Y-101337824D01*
X164083048Y-101558429D01*
X164225000Y-101700629D01*
X164225000Y-101794235D01*
X164188827Y-101801042D01*
X164098972Y-101858862D01*
X164019003Y-101804222D01*
X163975000Y-101795311D01*
X163975000Y-97960833D01*
X164048896Y-97782871D01*
X164049104Y-97544176D01*
X163957952Y-97323571D01*
X163789317Y-97154641D01*
X163568871Y-97063104D01*
X163330176Y-97062896D01*
X163109571Y-97154048D01*
X162940641Y-97322683D01*
X162849104Y-97543129D01*
X162848896Y-97781824D01*
X162940048Y-98002429D01*
X163108683Y-98171359D01*
X163125000Y-98178134D01*
X163125000Y-101562525D01*
X162920939Y-101478000D01*
X162756000Y-101478000D01*
X162604000Y-101630000D01*
X162604000Y-102532000D01*
X162624000Y-102532000D01*
X162624000Y-102840000D01*
X162604000Y-102840000D01*
X162604000Y-102860000D01*
X162296000Y-102860000D01*
X162296000Y-102840000D01*
X162276000Y-102840000D01*
X162276000Y-102532000D01*
X162296000Y-102532000D01*
X162296000Y-101630000D01*
X162144000Y-101478000D01*
X161979061Y-101478000D01*
X161775000Y-101562525D01*
X161775000Y-99931413D01*
X161925359Y-99781317D01*
X162016896Y-99560871D01*
X162017104Y-99322176D01*
X161925952Y-99101571D01*
X161757317Y-98932641D01*
X161536871Y-98841104D01*
X161348101Y-98840940D01*
X165643060Y-94545981D01*
X165643000Y-94613959D01*
G36*
X177039540Y-93847920D02*
X177046543Y-93847920D01*
X177046543Y-94155920D01*
X177039540Y-94155920D01*
X177039540Y-94807920D01*
X177150268Y-94918648D01*
X177213442Y-95071164D01*
X177384475Y-95242197D01*
X177429332Y-95260778D01*
X177443922Y-95338313D01*
X177451676Y-95350363D01*
X177447102Y-95357057D01*
X177423003Y-95476060D01*
X177423003Y-95724980D01*
X177443922Y-95836153D01*
X177452518Y-95849511D01*
X177447102Y-95857437D01*
X177429859Y-95942584D01*
X177384475Y-95961383D01*
X177213442Y-96132416D01*
X177120880Y-96355882D01*
X177120880Y-96387050D01*
X177272880Y-96539050D01*
X177923800Y-96539050D01*
X177923800Y-96531237D01*
X178231800Y-96531237D01*
X178231800Y-96539050D01*
X178251800Y-96539050D01*
X178251800Y-96663510D01*
X178231800Y-96663510D01*
X178231800Y-96671323D01*
X177923800Y-96671323D01*
X177923800Y-96663510D01*
X177272880Y-96663510D01*
X177120880Y-96815510D01*
X177120880Y-96846678D01*
X177213442Y-97070144D01*
X177384475Y-97241177D01*
X177429332Y-97259758D01*
X177443922Y-97337293D01*
X177452518Y-97350651D01*
X177447102Y-97358577D01*
X177429859Y-97443724D01*
X177384475Y-97462523D01*
X177213442Y-97633556D01*
X177120880Y-97857022D01*
X177120880Y-97888190D01*
X177181108Y-97948418D01*
X177120880Y-97948418D01*
X177120880Y-98050738D01*
X177102040Y-98046923D01*
X176852040Y-98046923D01*
X176740867Y-98067842D01*
X176728065Y-98076080D01*
X176720663Y-98071022D01*
X176601660Y-98046923D01*
X176351660Y-98046923D01*
X176240487Y-98067842D01*
X176227685Y-98076080D01*
X176220283Y-98071022D01*
X176101280Y-98046923D01*
X175851280Y-98046923D01*
X175740107Y-98067842D01*
X175727305Y-98076080D01*
X175719903Y-98071022D01*
X175600900Y-98046923D01*
X175350900Y-98046923D01*
X175239727Y-98067842D01*
X175226925Y-98076080D01*
X175219523Y-98071022D01*
X175100520Y-98046923D01*
X174850520Y-98046923D01*
X174739347Y-98067842D01*
X174727853Y-98075238D01*
X174721683Y-98071022D01*
X174602680Y-98046923D01*
X174352680Y-98046923D01*
X174241507Y-98067842D01*
X174228705Y-98076080D01*
X174221303Y-98071022D01*
X174102300Y-98046923D01*
X174032797Y-98046923D01*
X174032797Y-97977960D01*
X174011878Y-97866787D01*
X174003282Y-97853429D01*
X174008698Y-97845503D01*
X174032797Y-97726500D01*
X174032797Y-97477580D01*
X174011878Y-97366407D01*
X174003282Y-97353049D01*
X174008698Y-97345123D01*
X174032797Y-97226120D01*
X174032797Y-96977200D01*
X174011878Y-96866027D01*
X174003282Y-96852669D01*
X174008698Y-96844743D01*
X174025941Y-96759596D01*
X174071325Y-96740797D01*
X174242358Y-96569764D01*
X174334920Y-96346298D01*
X174334920Y-96315130D01*
X174182920Y-96163130D01*
X173530920Y-96163130D01*
X173530920Y-96170943D01*
X173222920Y-96170943D01*
X173222920Y-96163130D01*
X172570920Y-96163130D01*
X172418920Y-96315130D01*
X172418920Y-96346298D01*
X172511482Y-96569764D01*
X172682515Y-96740797D01*
X172727372Y-96759378D01*
X172741962Y-96836913D01*
X172750558Y-96850271D01*
X172745142Y-96858197D01*
X172721043Y-96977200D01*
X172721043Y-97226120D01*
X172741962Y-97337293D01*
X172750558Y-97350651D01*
X172745142Y-97358577D01*
X172721043Y-97477580D01*
X172721043Y-97726500D01*
X172741962Y-97837673D01*
X172750558Y-97851031D01*
X172745142Y-97858957D01*
X172721043Y-97977960D01*
X172721043Y-98226880D01*
X172741962Y-98338053D01*
X172807665Y-98440159D01*
X172907917Y-98508658D01*
X173026920Y-98532757D01*
X173546423Y-98532757D01*
X173546423Y-99052800D01*
X173567342Y-99163973D01*
X173633045Y-99266079D01*
X173733297Y-99334578D01*
X173852300Y-99358677D01*
X174102300Y-99358677D01*
X174213473Y-99337758D01*
X174226275Y-99329520D01*
X174233677Y-99334578D01*
X174352680Y-99358677D01*
X174602680Y-99358677D01*
X174713853Y-99337758D01*
X174725347Y-99330362D01*
X174731517Y-99334578D01*
X174850520Y-99358677D01*
X175100520Y-99358677D01*
X175211693Y-99337758D01*
X175224495Y-99329520D01*
X175231897Y-99334578D01*
X175350900Y-99358677D01*
X175600900Y-99358677D01*
X175712073Y-99337758D01*
X175724875Y-99329520D01*
X175732277Y-99334578D01*
X175851280Y-99358677D01*
X176051660Y-99358677D01*
X176051660Y-99641660D01*
X176075796Y-99762999D01*
X176084011Y-99804301D01*
X176176140Y-99942180D01*
X176613000Y-100379041D01*
X176613000Y-100460252D01*
X176591003Y-100445222D01*
X176472000Y-100421123D01*
X175572000Y-100421123D01*
X175460827Y-100442042D01*
X175382230Y-100492617D01*
X175346317Y-100456641D01*
X175125871Y-100365104D01*
X174887176Y-100364896D01*
X174666571Y-100456048D01*
X174497641Y-100624683D01*
X174480426Y-100666142D01*
X174470958Y-100615827D01*
X174405255Y-100513721D01*
X174305003Y-100445222D01*
X174186000Y-100421123D01*
X173286000Y-100421123D01*
X173174827Y-100442042D01*
X173072721Y-100507745D01*
X173042483Y-100552000D01*
X171822661Y-100552000D01*
X171831359Y-100543317D01*
X171922896Y-100322871D01*
X171923031Y-100167970D01*
X172076824Y-100168104D01*
X172297429Y-100076952D01*
X172466359Y-99908317D01*
X172557896Y-99687871D01*
X172558104Y-99449176D01*
X172466952Y-99228571D01*
X172298317Y-99059641D01*
X172077871Y-98968104D01*
X171959040Y-98968000D01*
X171892405Y-98901365D01*
X171970279Y-98851255D01*
X172038778Y-98751003D01*
X172062877Y-98632000D01*
X172062877Y-97832000D01*
X172041958Y-97720827D01*
X171976255Y-97618721D01*
X171876003Y-97550222D01*
X171757000Y-97526123D01*
X170857000Y-97526123D01*
X170745827Y-97547042D01*
X170732000Y-97555939D01*
X170732000Y-97009680D01*
X170737997Y-97013778D01*
X170857000Y-97037877D01*
X171757000Y-97037877D01*
X171868173Y-97016958D01*
X171970279Y-96951255D01*
X172038778Y-96851003D01*
X172062877Y-96732000D01*
X172062877Y-95932000D01*
X172041958Y-95820827D01*
X171976255Y-95718721D01*
X171876003Y-95650222D01*
X171794353Y-95633687D01*
X171922419Y-95505621D01*
X171957048Y-95589429D01*
X172125683Y-95758359D01*
X172346129Y-95849896D01*
X172421215Y-95849961D01*
X172418920Y-95855502D01*
X172418920Y-95886670D01*
X172570920Y-96038670D01*
X173222920Y-96038670D01*
X173222920Y-96030857D01*
X173530920Y-96030857D01*
X173530920Y-96038670D01*
X174182920Y-96038670D01*
X174334920Y-95886670D01*
X174334920Y-95855502D01*
X174259608Y-95673682D01*
X174378129Y-95722896D01*
X174616824Y-95723104D01*
X174837429Y-95631952D01*
X175006359Y-95463317D01*
X175097896Y-95242871D01*
X175098104Y-95004176D01*
X175006952Y-94783571D01*
X174902680Y-94679117D01*
X174902680Y-94657797D01*
X175100520Y-94657797D01*
X175211693Y-94636878D01*
X175224495Y-94628640D01*
X175231897Y-94633698D01*
X175350900Y-94657797D01*
X175600900Y-94657797D01*
X175712073Y-94636878D01*
X175724875Y-94628640D01*
X175732277Y-94633698D01*
X175851280Y-94657797D01*
X176101280Y-94657797D01*
X176212453Y-94636878D01*
X176225255Y-94628640D01*
X176232657Y-94633698D01*
X176317804Y-94650941D01*
X176336602Y-94696324D01*
X176507635Y-94867357D01*
X176731101Y-94959920D01*
X176762540Y-94959920D01*
X176914540Y-94807920D01*
X176914540Y-94155920D01*
X176907537Y-94155920D01*
X176907537Y-93847920D01*
X176914540Y-93847920D01*
X176914540Y-93827920D01*
X177039540Y-93827920D01*
X177039540Y-93847920D01*
X177039540Y-93847920D01*
G37*
X177039540Y-93847920D02*
X177046543Y-93847920D01*
X177046543Y-94155920D01*
X177039540Y-94155920D01*
X177039540Y-94807920D01*
X177150268Y-94918648D01*
X177213442Y-95071164D01*
X177384475Y-95242197D01*
X177429332Y-95260778D01*
X177443922Y-95338313D01*
X177451676Y-95350363D01*
X177447102Y-95357057D01*
X177423003Y-95476060D01*
X177423003Y-95724980D01*
X177443922Y-95836153D01*
X177452518Y-95849511D01*
X177447102Y-95857437D01*
X177429859Y-95942584D01*
X177384475Y-95961383D01*
X177213442Y-96132416D01*
X177120880Y-96355882D01*
X177120880Y-96387050D01*
X177272880Y-96539050D01*
X177923800Y-96539050D01*
X177923800Y-96531237D01*
X178231800Y-96531237D01*
X178231800Y-96539050D01*
X178251800Y-96539050D01*
X178251800Y-96663510D01*
X178231800Y-96663510D01*
X178231800Y-96671323D01*
X177923800Y-96671323D01*
X177923800Y-96663510D01*
X177272880Y-96663510D01*
X177120880Y-96815510D01*
X177120880Y-96846678D01*
X177213442Y-97070144D01*
X177384475Y-97241177D01*
X177429332Y-97259758D01*
X177443922Y-97337293D01*
X177452518Y-97350651D01*
X177447102Y-97358577D01*
X177429859Y-97443724D01*
X177384475Y-97462523D01*
X177213442Y-97633556D01*
X177120880Y-97857022D01*
X177120880Y-97888190D01*
X177181108Y-97948418D01*
X177120880Y-97948418D01*
X177120880Y-98050738D01*
X177102040Y-98046923D01*
X176852040Y-98046923D01*
X176740867Y-98067842D01*
X176728065Y-98076080D01*
X176720663Y-98071022D01*
X176601660Y-98046923D01*
X176351660Y-98046923D01*
X176240487Y-98067842D01*
X176227685Y-98076080D01*
X176220283Y-98071022D01*
X176101280Y-98046923D01*
X175851280Y-98046923D01*
X175740107Y-98067842D01*
X175727305Y-98076080D01*
X175719903Y-98071022D01*
X175600900Y-98046923D01*
X175350900Y-98046923D01*
X175239727Y-98067842D01*
X175226925Y-98076080D01*
X175219523Y-98071022D01*
X175100520Y-98046923D01*
X174850520Y-98046923D01*
X174739347Y-98067842D01*
X174727853Y-98075238D01*
X174721683Y-98071022D01*
X174602680Y-98046923D01*
X174352680Y-98046923D01*
X174241507Y-98067842D01*
X174228705Y-98076080D01*
X174221303Y-98071022D01*
X174102300Y-98046923D01*
X174032797Y-98046923D01*
X174032797Y-97977960D01*
X174011878Y-97866787D01*
X174003282Y-97853429D01*
X174008698Y-97845503D01*
X174032797Y-97726500D01*
X174032797Y-97477580D01*
X174011878Y-97366407D01*
X174003282Y-97353049D01*
X174008698Y-97345123D01*
X174032797Y-97226120D01*
X174032797Y-96977200D01*
X174011878Y-96866027D01*
X174003282Y-96852669D01*
X174008698Y-96844743D01*
X174025941Y-96759596D01*
X174071325Y-96740797D01*
X174242358Y-96569764D01*
X174334920Y-96346298D01*
X174334920Y-96315130D01*
X174182920Y-96163130D01*
X173530920Y-96163130D01*
X173530920Y-96170943D01*
X173222920Y-96170943D01*
X173222920Y-96163130D01*
X172570920Y-96163130D01*
X172418920Y-96315130D01*
X172418920Y-96346298D01*
X172511482Y-96569764D01*
X172682515Y-96740797D01*
X172727372Y-96759378D01*
X172741962Y-96836913D01*
X172750558Y-96850271D01*
X172745142Y-96858197D01*
X172721043Y-96977200D01*
X172721043Y-97226120D01*
X172741962Y-97337293D01*
X172750558Y-97350651D01*
X172745142Y-97358577D01*
X172721043Y-97477580D01*
X172721043Y-97726500D01*
X172741962Y-97837673D01*
X172750558Y-97851031D01*
X172745142Y-97858957D01*
X172721043Y-97977960D01*
X172721043Y-98226880D01*
X172741962Y-98338053D01*
X172807665Y-98440159D01*
X172907917Y-98508658D01*
X173026920Y-98532757D01*
X173546423Y-98532757D01*
X173546423Y-99052800D01*
X173567342Y-99163973D01*
X173633045Y-99266079D01*
X173733297Y-99334578D01*
X173852300Y-99358677D01*
X174102300Y-99358677D01*
X174213473Y-99337758D01*
X174226275Y-99329520D01*
X174233677Y-99334578D01*
X174352680Y-99358677D01*
X174602680Y-99358677D01*
X174713853Y-99337758D01*
X174725347Y-99330362D01*
X174731517Y-99334578D01*
X174850520Y-99358677D01*
X175100520Y-99358677D01*
X175211693Y-99337758D01*
X175224495Y-99329520D01*
X175231897Y-99334578D01*
X175350900Y-99358677D01*
X175600900Y-99358677D01*
X175712073Y-99337758D01*
X175724875Y-99329520D01*
X175732277Y-99334578D01*
X175851280Y-99358677D01*
X176051660Y-99358677D01*
X176051660Y-99641660D01*
X176075796Y-99762999D01*
X176084011Y-99804301D01*
X176176140Y-99942180D01*
X176613000Y-100379041D01*
X176613000Y-100460252D01*
X176591003Y-100445222D01*
X176472000Y-100421123D01*
X175572000Y-100421123D01*
X175460827Y-100442042D01*
X175382230Y-100492617D01*
X175346317Y-100456641D01*
X175125871Y-100365104D01*
X174887176Y-100364896D01*
X174666571Y-100456048D01*
X174497641Y-100624683D01*
X174480426Y-100666142D01*
X174470958Y-100615827D01*
X174405255Y-100513721D01*
X174305003Y-100445222D01*
X174186000Y-100421123D01*
X173286000Y-100421123D01*
X173174827Y-100442042D01*
X173072721Y-100507745D01*
X173042483Y-100552000D01*
X171822661Y-100552000D01*
X171831359Y-100543317D01*
X171922896Y-100322871D01*
X171923031Y-100167970D01*
X172076824Y-100168104D01*
X172297429Y-100076952D01*
X172466359Y-99908317D01*
X172557896Y-99687871D01*
X172558104Y-99449176D01*
X172466952Y-99228571D01*
X172298317Y-99059641D01*
X172077871Y-98968104D01*
X171959040Y-98968000D01*
X171892405Y-98901365D01*
X171970279Y-98851255D01*
X172038778Y-98751003D01*
X172062877Y-98632000D01*
X172062877Y-97832000D01*
X172041958Y-97720827D01*
X171976255Y-97618721D01*
X171876003Y-97550222D01*
X171757000Y-97526123D01*
X170857000Y-97526123D01*
X170745827Y-97547042D01*
X170732000Y-97555939D01*
X170732000Y-97009680D01*
X170737997Y-97013778D01*
X170857000Y-97037877D01*
X171757000Y-97037877D01*
X171868173Y-97016958D01*
X171970279Y-96951255D01*
X172038778Y-96851003D01*
X172062877Y-96732000D01*
X172062877Y-95932000D01*
X172041958Y-95820827D01*
X171976255Y-95718721D01*
X171876003Y-95650222D01*
X171794353Y-95633687D01*
X171922419Y-95505621D01*
X171957048Y-95589429D01*
X172125683Y-95758359D01*
X172346129Y-95849896D01*
X172421215Y-95849961D01*
X172418920Y-95855502D01*
X172418920Y-95886670D01*
X172570920Y-96038670D01*
X173222920Y-96038670D01*
X173222920Y-96030857D01*
X173530920Y-96030857D01*
X173530920Y-96038670D01*
X174182920Y-96038670D01*
X174334920Y-95886670D01*
X174334920Y-95855502D01*
X174259608Y-95673682D01*
X174378129Y-95722896D01*
X174616824Y-95723104D01*
X174837429Y-95631952D01*
X175006359Y-95463317D01*
X175097896Y-95242871D01*
X175098104Y-95004176D01*
X175006952Y-94783571D01*
X174902680Y-94679117D01*
X174902680Y-94657797D01*
X175100520Y-94657797D01*
X175211693Y-94636878D01*
X175224495Y-94628640D01*
X175231897Y-94633698D01*
X175350900Y-94657797D01*
X175600900Y-94657797D01*
X175712073Y-94636878D01*
X175724875Y-94628640D01*
X175732277Y-94633698D01*
X175851280Y-94657797D01*
X176101280Y-94657797D01*
X176212453Y-94636878D01*
X176225255Y-94628640D01*
X176232657Y-94633698D01*
X176317804Y-94650941D01*
X176336602Y-94696324D01*
X176507635Y-94867357D01*
X176731101Y-94959920D01*
X176762540Y-94959920D01*
X176914540Y-94807920D01*
X176914540Y-94155920D01*
X176907537Y-94155920D01*
X176907537Y-93847920D01*
X176914540Y-93847920D01*
X176914540Y-93827920D01*
X177039540Y-93827920D01*
X177039540Y-93847920D01*
M02*
