G04 #@! TF.FileFunction,Legend,Bot*
%FSLAX46Y46*%
G04 Gerber Fmt 4.6, Leading zero omitted, Abs format (unit mm)*
G04 Created by KiCad (PCBNEW 4.0.5-e0-6337~52~ubuntu16.10.1) date Tue Feb 21 00:37:24 2017*
%MOMM*%
%LPD*%
G01*
G04 APERTURE LIST*
%ADD10C,0.100000*%
%ADD11C,0.175000*%
%ADD12C,0.200000*%
%ADD13C,0.400000*%
%ADD14C,0.010000*%
%ADD15C,0.120000*%
%ADD16R,1.050000X1.450000*%
%ADD17R,1.200000X1.200000*%
%ADD18R,2.100000X2.100000*%
%ADD19O,2.100000X2.100000*%
G04 APERTURE END LIST*
D10*
D11*
X150178333Y-99910000D02*
X150878333Y-99910000D01*
X150878333Y-99743334D01*
X150845000Y-99643334D01*
X150778333Y-99576667D01*
X150711667Y-99543334D01*
X150578333Y-99510000D01*
X150478333Y-99510000D01*
X150345000Y-99543334D01*
X150278333Y-99576667D01*
X150211667Y-99643334D01*
X150178333Y-99743334D01*
X150178333Y-99910000D01*
X150811667Y-99243334D02*
X150845000Y-99210000D01*
X150878333Y-99143334D01*
X150878333Y-98976667D01*
X150845000Y-98910000D01*
X150811667Y-98876667D01*
X150745000Y-98843334D01*
X150678333Y-98843334D01*
X150578333Y-98876667D01*
X150178333Y-99276667D01*
X150178333Y-98843334D01*
X150878333Y-98610000D02*
X150878333Y-98143333D01*
X150178333Y-98443333D01*
X171792000Y-117410667D02*
X171792000Y-116710667D01*
X171625334Y-116710667D01*
X171525334Y-116744000D01*
X171458667Y-116810667D01*
X171425334Y-116877333D01*
X171392000Y-117010667D01*
X171392000Y-117110667D01*
X171425334Y-117244000D01*
X171458667Y-117310667D01*
X171525334Y-117377333D01*
X171625334Y-117410667D01*
X171792000Y-117410667D01*
X170958667Y-116710667D02*
X170892000Y-116710667D01*
X170825334Y-116744000D01*
X170792000Y-116777333D01*
X170758667Y-116844000D01*
X170725334Y-116977333D01*
X170725334Y-117144000D01*
X170758667Y-117277333D01*
X170792000Y-117344000D01*
X170825334Y-117377333D01*
X170892000Y-117410667D01*
X170958667Y-117410667D01*
X171025334Y-117377333D01*
X171058667Y-117344000D01*
X171092000Y-117277333D01*
X171125334Y-117144000D01*
X171125334Y-116977333D01*
X171092000Y-116844000D01*
X171058667Y-116777333D01*
X171025334Y-116744000D01*
X170958667Y-116710667D01*
X170458667Y-116777333D02*
X170425333Y-116744000D01*
X170358667Y-116710667D01*
X170192000Y-116710667D01*
X170125333Y-116744000D01*
X170092000Y-116777333D01*
X170058667Y-116844000D01*
X170058667Y-116910667D01*
X170092000Y-117010667D01*
X170492000Y-117410667D01*
X170058667Y-117410667D01*
X192004200Y-70586667D02*
X191970867Y-70520001D01*
X191970867Y-70420001D01*
X192004200Y-70320001D01*
X192070867Y-70253334D01*
X192137533Y-70220001D01*
X192270867Y-70186667D01*
X192370867Y-70186667D01*
X192504200Y-70220001D01*
X192570867Y-70253334D01*
X192637533Y-70320001D01*
X192670867Y-70420001D01*
X192670867Y-70486667D01*
X192637533Y-70586667D01*
X192604200Y-70620001D01*
X192370867Y-70620001D01*
X192370867Y-70486667D01*
X192670867Y-70920001D02*
X191970867Y-70920001D01*
X192670867Y-71320001D01*
X191970867Y-71320001D01*
X192670867Y-71653334D02*
X191970867Y-71653334D01*
X191970867Y-71820000D01*
X192004200Y-71920000D01*
X192070867Y-71986667D01*
X192137533Y-72020000D01*
X192270867Y-72053334D01*
X192370867Y-72053334D01*
X192504200Y-72020000D01*
X192570867Y-71986667D01*
X192637533Y-71920000D01*
X192670867Y-71820000D01*
X192670867Y-71653334D01*
D12*
X178728428Y-120213381D02*
X179061762Y-119737190D01*
X179299857Y-120213381D02*
X179299857Y-119213381D01*
X178918904Y-119213381D01*
X178823666Y-119261000D01*
X178776047Y-119308619D01*
X178728428Y-119403857D01*
X178728428Y-119546714D01*
X178776047Y-119641952D01*
X178823666Y-119689571D01*
X178918904Y-119737190D01*
X179299857Y-119737190D01*
X177918904Y-120165762D02*
X178014142Y-120213381D01*
X178204619Y-120213381D01*
X178299857Y-120165762D01*
X178347476Y-120070524D01*
X178347476Y-119689571D01*
X178299857Y-119594333D01*
X178204619Y-119546714D01*
X178014142Y-119546714D01*
X177918904Y-119594333D01*
X177871285Y-119689571D01*
X177871285Y-119784810D01*
X178347476Y-119880048D01*
X177537952Y-119546714D02*
X177299857Y-120213381D01*
X177061761Y-119546714D01*
X175395094Y-120213381D02*
X175966523Y-120213381D01*
X175680809Y-120213381D02*
X175680809Y-119213381D01*
X175776047Y-119356238D01*
X175871285Y-119451476D01*
X175966523Y-119499095D01*
X174966523Y-120118143D02*
X174918904Y-120165762D01*
X174966523Y-120213381D01*
X175014142Y-120165762D01*
X174966523Y-120118143D01*
X174966523Y-120213381D01*
X173966523Y-120213381D02*
X174537952Y-120213381D01*
X174252238Y-120213381D02*
X174252238Y-119213381D01*
X174347476Y-119356238D01*
X174442714Y-119451476D01*
X174537952Y-119499095D01*
D13*
X185489143Y-117600429D02*
X184889143Y-117600429D01*
X184632000Y-118543286D02*
X185489143Y-118543286D01*
X185489143Y-116743286D01*
X184632000Y-116743286D01*
X183946286Y-118457571D02*
X183689143Y-118543286D01*
X183260572Y-118543286D01*
X183089143Y-118457571D01*
X183003429Y-118371857D01*
X182917714Y-118200429D01*
X182917714Y-118029000D01*
X183003429Y-117857571D01*
X183089143Y-117771857D01*
X183260572Y-117686143D01*
X183603429Y-117600429D01*
X183774857Y-117514714D01*
X183860572Y-117429000D01*
X183946286Y-117257571D01*
X183946286Y-117086143D01*
X183860572Y-116914714D01*
X183774857Y-116829000D01*
X183603429Y-116743286D01*
X183174857Y-116743286D01*
X182917714Y-116829000D01*
X182146286Y-118543286D02*
X182146286Y-116743286D01*
X181460571Y-116743286D01*
X181289143Y-116829000D01*
X181203428Y-116914714D01*
X181117714Y-117086143D01*
X181117714Y-117343286D01*
X181203428Y-117514714D01*
X181289143Y-117600429D01*
X181460571Y-117686143D01*
X182146286Y-117686143D01*
X180517714Y-116743286D02*
X179403428Y-116743286D01*
X180003428Y-117429000D01*
X179746286Y-117429000D01*
X179574857Y-117514714D01*
X179489143Y-117600429D01*
X179403428Y-117771857D01*
X179403428Y-118200429D01*
X179489143Y-118371857D01*
X179574857Y-118457571D01*
X179746286Y-118543286D01*
X180260571Y-118543286D01*
X180432000Y-118457571D01*
X180517714Y-118371857D01*
X178717714Y-116914714D02*
X178632000Y-116829000D01*
X178460571Y-116743286D01*
X178032000Y-116743286D01*
X177860571Y-116829000D01*
X177774857Y-116914714D01*
X177689142Y-117086143D01*
X177689142Y-117257571D01*
X177774857Y-117514714D01*
X178803428Y-118543286D01*
X177689142Y-118543286D01*
X176317714Y-117600429D02*
X176060571Y-117686143D01*
X175974856Y-117771857D01*
X175889142Y-117943286D01*
X175889142Y-118200429D01*
X175974856Y-118371857D01*
X176060571Y-118457571D01*
X176231999Y-118543286D01*
X176917714Y-118543286D01*
X176917714Y-116743286D01*
X176317714Y-116743286D01*
X176146285Y-116829000D01*
X176060571Y-116914714D01*
X175974856Y-117086143D01*
X175974856Y-117257571D01*
X176060571Y-117429000D01*
X176146285Y-117514714D01*
X176317714Y-117600429D01*
X176917714Y-117600429D01*
X174517714Y-117600429D02*
X174260571Y-117686143D01*
X174174856Y-117771857D01*
X174089142Y-117943286D01*
X174089142Y-118200429D01*
X174174856Y-118371857D01*
X174260571Y-118457571D01*
X174431999Y-118543286D01*
X175117714Y-118543286D01*
X175117714Y-116743286D01*
X174517714Y-116743286D01*
X174346285Y-116829000D01*
X174260571Y-116914714D01*
X174174856Y-117086143D01*
X174174856Y-117257571D01*
X174260571Y-117429000D01*
X174346285Y-117514714D01*
X174517714Y-117600429D01*
X175117714Y-117600429D01*
D11*
X164426000Y-117560167D02*
X164426000Y-116860167D01*
X164259334Y-116860167D01*
X164159334Y-116893500D01*
X164092667Y-116960167D01*
X164059334Y-117026833D01*
X164026000Y-117160167D01*
X164026000Y-117260167D01*
X164059334Y-117393500D01*
X164092667Y-117460167D01*
X164159334Y-117526833D01*
X164259334Y-117560167D01*
X164426000Y-117560167D01*
X163592667Y-116860167D02*
X163526000Y-116860167D01*
X163459334Y-116893500D01*
X163426000Y-116926833D01*
X163392667Y-116993500D01*
X163359334Y-117126833D01*
X163359334Y-117293500D01*
X163392667Y-117426833D01*
X163426000Y-117493500D01*
X163459334Y-117526833D01*
X163526000Y-117560167D01*
X163592667Y-117560167D01*
X163659334Y-117526833D01*
X163692667Y-117493500D01*
X163726000Y-117426833D01*
X163759334Y-117293500D01*
X163759334Y-117126833D01*
X163726000Y-116993500D01*
X163692667Y-116926833D01*
X163659334Y-116893500D01*
X163592667Y-116860167D01*
X162692667Y-117560167D02*
X163092667Y-117560167D01*
X162892667Y-117560167D02*
X162892667Y-116860167D01*
X162959333Y-116960167D01*
X163026000Y-117026833D01*
X163092667Y-117060167D01*
X165409333Y-118785167D02*
X165409333Y-118085167D01*
X165142667Y-118085167D01*
X165076000Y-118118500D01*
X165042667Y-118151833D01*
X165009333Y-118218500D01*
X165009333Y-118318500D01*
X165042667Y-118385167D01*
X165076000Y-118418500D01*
X165142667Y-118451833D01*
X165409333Y-118451833D01*
X164709333Y-118085167D02*
X164709333Y-118651833D01*
X164676000Y-118718500D01*
X164642667Y-118751833D01*
X164576000Y-118785167D01*
X164442667Y-118785167D01*
X164376000Y-118751833D01*
X164342667Y-118718500D01*
X164309333Y-118651833D01*
X164309333Y-118085167D01*
X163642667Y-118785167D02*
X163976000Y-118785167D01*
X163976000Y-118085167D01*
X163076000Y-118785167D02*
X163409333Y-118785167D01*
X163409333Y-118085167D01*
X162842666Y-118085167D02*
X162842666Y-118651833D01*
X162809333Y-118718500D01*
X162776000Y-118751833D01*
X162709333Y-118785167D01*
X162576000Y-118785167D01*
X162509333Y-118751833D01*
X162476000Y-118718500D01*
X162442666Y-118651833D01*
X162442666Y-118085167D01*
X162109333Y-118785167D02*
X162109333Y-118085167D01*
X161842667Y-118085167D01*
X161776000Y-118118500D01*
X161742667Y-118151833D01*
X161709333Y-118218500D01*
X161709333Y-118318500D01*
X161742667Y-118385167D01*
X161776000Y-118418500D01*
X161842667Y-118451833D01*
X162109333Y-118451833D01*
X192021667Y-72793333D02*
X192021667Y-73226666D01*
X192288333Y-72993333D01*
X192288333Y-73093333D01*
X192321667Y-73160000D01*
X192355000Y-73193333D01*
X192421667Y-73226666D01*
X192588333Y-73226666D01*
X192655000Y-73193333D01*
X192688333Y-73160000D01*
X192721667Y-73093333D01*
X192721667Y-72893333D01*
X192688333Y-72826666D01*
X192655000Y-72793333D01*
X192021667Y-73426667D02*
X192721667Y-73660000D01*
X192021667Y-73893333D01*
X192021667Y-74060000D02*
X192021667Y-74493333D01*
X192288333Y-74260000D01*
X192288333Y-74360000D01*
X192321667Y-74426667D01*
X192355000Y-74460000D01*
X192421667Y-74493333D01*
X192588333Y-74493333D01*
X192655000Y-74460000D01*
X192688333Y-74426667D01*
X192721667Y-74360000D01*
X192721667Y-74160000D01*
X192688333Y-74093333D01*
X192655000Y-74060000D01*
X192721667Y-75350000D02*
X192021667Y-75350000D01*
X192021667Y-75516666D01*
X192055000Y-75616666D01*
X192121667Y-75683333D01*
X192188333Y-75716666D01*
X192321667Y-75750000D01*
X192421667Y-75750000D01*
X192555000Y-75716666D01*
X192621667Y-75683333D01*
X192688333Y-75616666D01*
X192721667Y-75516666D01*
X192721667Y-75350000D01*
X192088333Y-76016666D02*
X192055000Y-76050000D01*
X192021667Y-76116666D01*
X192021667Y-76283333D01*
X192055000Y-76350000D01*
X192088333Y-76383333D01*
X192155000Y-76416666D01*
X192221667Y-76416666D01*
X192321667Y-76383333D01*
X192721667Y-75983333D01*
X192721667Y-76416666D01*
X192021667Y-76650000D02*
X192021667Y-77083333D01*
X192288333Y-76850000D01*
X192288333Y-76950000D01*
X192321667Y-77016667D01*
X192355000Y-77050000D01*
X192421667Y-77083333D01*
X192588333Y-77083333D01*
X192655000Y-77050000D01*
X192688333Y-77016667D01*
X192721667Y-76950000D01*
X192721667Y-76750000D01*
X192688333Y-76683333D01*
X192655000Y-76650000D01*
X192721667Y-77890000D02*
X192021667Y-77890000D01*
X192021667Y-78056666D01*
X192055000Y-78156666D01*
X192121667Y-78223333D01*
X192188333Y-78256666D01*
X192321667Y-78290000D01*
X192421667Y-78290000D01*
X192555000Y-78256666D01*
X192621667Y-78223333D01*
X192688333Y-78156666D01*
X192721667Y-78056666D01*
X192721667Y-77890000D01*
X192088333Y-78556666D02*
X192055000Y-78590000D01*
X192021667Y-78656666D01*
X192021667Y-78823333D01*
X192055000Y-78890000D01*
X192088333Y-78923333D01*
X192155000Y-78956666D01*
X192221667Y-78956666D01*
X192321667Y-78923333D01*
X192721667Y-78523333D01*
X192721667Y-78956666D01*
X192088333Y-79223333D02*
X192055000Y-79256667D01*
X192021667Y-79323333D01*
X192021667Y-79490000D01*
X192055000Y-79556667D01*
X192088333Y-79590000D01*
X192155000Y-79623333D01*
X192221667Y-79623333D01*
X192321667Y-79590000D01*
X192721667Y-79190000D01*
X192721667Y-79623333D01*
X192721667Y-80430000D02*
X192021667Y-80430000D01*
X192021667Y-80596666D01*
X192055000Y-80696666D01*
X192121667Y-80763333D01*
X192188333Y-80796666D01*
X192321667Y-80830000D01*
X192421667Y-80830000D01*
X192555000Y-80796666D01*
X192621667Y-80763333D01*
X192688333Y-80696666D01*
X192721667Y-80596666D01*
X192721667Y-80430000D01*
X192088333Y-81096666D02*
X192055000Y-81130000D01*
X192021667Y-81196666D01*
X192021667Y-81363333D01*
X192055000Y-81430000D01*
X192088333Y-81463333D01*
X192155000Y-81496666D01*
X192221667Y-81496666D01*
X192321667Y-81463333D01*
X192721667Y-81063333D01*
X192721667Y-81496666D01*
X192721667Y-82163333D02*
X192721667Y-81763333D01*
X192721667Y-81963333D02*
X192021667Y-81963333D01*
X192121667Y-81896667D01*
X192188333Y-81830000D01*
X192221667Y-81763333D01*
X192721667Y-82970000D02*
X192021667Y-82970000D01*
X192021667Y-83136666D01*
X192055000Y-83236666D01*
X192121667Y-83303333D01*
X192188333Y-83336666D01*
X192321667Y-83370000D01*
X192421667Y-83370000D01*
X192555000Y-83336666D01*
X192621667Y-83303333D01*
X192688333Y-83236666D01*
X192721667Y-83136666D01*
X192721667Y-82970000D01*
X192721667Y-84036666D02*
X192721667Y-83636666D01*
X192721667Y-83836666D02*
X192021667Y-83836666D01*
X192121667Y-83770000D01*
X192188333Y-83703333D01*
X192221667Y-83636666D01*
X192721667Y-84370000D02*
X192721667Y-84503333D01*
X192688333Y-84570000D01*
X192655000Y-84603333D01*
X192555000Y-84670000D01*
X192421667Y-84703333D01*
X192155000Y-84703333D01*
X192088333Y-84670000D01*
X192055000Y-84636667D01*
X192021667Y-84570000D01*
X192021667Y-84436667D01*
X192055000Y-84370000D01*
X192088333Y-84336667D01*
X192155000Y-84303333D01*
X192321667Y-84303333D01*
X192388333Y-84336667D01*
X192421667Y-84370000D01*
X192455000Y-84436667D01*
X192455000Y-84570000D01*
X192421667Y-84636667D01*
X192388333Y-84670000D01*
X192321667Y-84703333D01*
X192721667Y-85510000D02*
X192021667Y-85510000D01*
X192021667Y-85676666D01*
X192055000Y-85776666D01*
X192121667Y-85843333D01*
X192188333Y-85876666D01*
X192321667Y-85910000D01*
X192421667Y-85910000D01*
X192555000Y-85876666D01*
X192621667Y-85843333D01*
X192688333Y-85776666D01*
X192721667Y-85676666D01*
X192721667Y-85510000D01*
X192721667Y-86576666D02*
X192721667Y-86176666D01*
X192721667Y-86376666D02*
X192021667Y-86376666D01*
X192121667Y-86310000D01*
X192188333Y-86243333D01*
X192221667Y-86176666D01*
X192321667Y-86976667D02*
X192288333Y-86910000D01*
X192255000Y-86876667D01*
X192188333Y-86843333D01*
X192155000Y-86843333D01*
X192088333Y-86876667D01*
X192055000Y-86910000D01*
X192021667Y-86976667D01*
X192021667Y-87110000D01*
X192055000Y-87176667D01*
X192088333Y-87210000D01*
X192155000Y-87243333D01*
X192188333Y-87243333D01*
X192255000Y-87210000D01*
X192288333Y-87176667D01*
X192321667Y-87110000D01*
X192321667Y-86976667D01*
X192355000Y-86910000D01*
X192388333Y-86876667D01*
X192455000Y-86843333D01*
X192588333Y-86843333D01*
X192655000Y-86876667D01*
X192688333Y-86910000D01*
X192721667Y-86976667D01*
X192721667Y-87110000D01*
X192688333Y-87176667D01*
X192655000Y-87210000D01*
X192588333Y-87243333D01*
X192455000Y-87243333D01*
X192388333Y-87210000D01*
X192355000Y-87176667D01*
X192321667Y-87110000D01*
X192721667Y-88050000D02*
X192021667Y-88050000D01*
X192021667Y-88216666D01*
X192055000Y-88316666D01*
X192121667Y-88383333D01*
X192188333Y-88416666D01*
X192321667Y-88450000D01*
X192421667Y-88450000D01*
X192555000Y-88416666D01*
X192621667Y-88383333D01*
X192688333Y-88316666D01*
X192721667Y-88216666D01*
X192721667Y-88050000D01*
X192021667Y-88883333D02*
X192021667Y-88950000D01*
X192055000Y-89016666D01*
X192088333Y-89050000D01*
X192155000Y-89083333D01*
X192288333Y-89116666D01*
X192455000Y-89116666D01*
X192588333Y-89083333D01*
X192655000Y-89050000D01*
X192688333Y-89016666D01*
X192721667Y-88950000D01*
X192721667Y-88883333D01*
X192688333Y-88816666D01*
X192655000Y-88783333D01*
X192588333Y-88750000D01*
X192455000Y-88716666D01*
X192288333Y-88716666D01*
X192155000Y-88750000D01*
X192088333Y-88783333D01*
X192055000Y-88816666D01*
X192021667Y-88883333D01*
X192021667Y-89750000D02*
X192021667Y-89416667D01*
X192355000Y-89383333D01*
X192321667Y-89416667D01*
X192288333Y-89483333D01*
X192288333Y-89650000D01*
X192321667Y-89716667D01*
X192355000Y-89750000D01*
X192421667Y-89783333D01*
X192588333Y-89783333D01*
X192655000Y-89750000D01*
X192688333Y-89716667D01*
X192721667Y-89650000D01*
X192721667Y-89483333D01*
X192688333Y-89416667D01*
X192655000Y-89383333D01*
X192721667Y-90590000D02*
X192021667Y-90590000D01*
X192021667Y-90756666D01*
X192055000Y-90856666D01*
X192121667Y-90923333D01*
X192188333Y-90956666D01*
X192321667Y-90990000D01*
X192421667Y-90990000D01*
X192555000Y-90956666D01*
X192621667Y-90923333D01*
X192688333Y-90856666D01*
X192721667Y-90756666D01*
X192721667Y-90590000D01*
X192721667Y-91656666D02*
X192721667Y-91256666D01*
X192721667Y-91456666D02*
X192021667Y-91456666D01*
X192121667Y-91390000D01*
X192188333Y-91323333D01*
X192221667Y-91256666D01*
X192021667Y-91890000D02*
X192021667Y-92356667D01*
X192721667Y-92056667D01*
X192721667Y-93130000D02*
X192021667Y-93130000D01*
X192021667Y-93296666D01*
X192055000Y-93396666D01*
X192121667Y-93463333D01*
X192188333Y-93496666D01*
X192321667Y-93530000D01*
X192421667Y-93530000D01*
X192555000Y-93496666D01*
X192621667Y-93463333D01*
X192688333Y-93396666D01*
X192721667Y-93296666D01*
X192721667Y-93130000D01*
X192721667Y-94196666D02*
X192721667Y-93796666D01*
X192721667Y-93996666D02*
X192021667Y-93996666D01*
X192121667Y-93930000D01*
X192188333Y-93863333D01*
X192221667Y-93796666D01*
X192021667Y-94796667D02*
X192021667Y-94663333D01*
X192055000Y-94596667D01*
X192088333Y-94563333D01*
X192188333Y-94496667D01*
X192321667Y-94463333D01*
X192588333Y-94463333D01*
X192655000Y-94496667D01*
X192688333Y-94530000D01*
X192721667Y-94596667D01*
X192721667Y-94730000D01*
X192688333Y-94796667D01*
X192655000Y-94830000D01*
X192588333Y-94863333D01*
X192421667Y-94863333D01*
X192355000Y-94830000D01*
X192321667Y-94796667D01*
X192288333Y-94730000D01*
X192288333Y-94596667D01*
X192321667Y-94530000D01*
X192355000Y-94496667D01*
X192421667Y-94463333D01*
X192721667Y-95670000D02*
X192021667Y-95670000D01*
X192021667Y-95836666D01*
X192055000Y-95936666D01*
X192121667Y-96003333D01*
X192188333Y-96036666D01*
X192321667Y-96070000D01*
X192421667Y-96070000D01*
X192555000Y-96036666D01*
X192621667Y-96003333D01*
X192688333Y-95936666D01*
X192721667Y-95836666D01*
X192721667Y-95670000D01*
X192021667Y-96503333D02*
X192021667Y-96570000D01*
X192055000Y-96636666D01*
X192088333Y-96670000D01*
X192155000Y-96703333D01*
X192288333Y-96736666D01*
X192455000Y-96736666D01*
X192588333Y-96703333D01*
X192655000Y-96670000D01*
X192688333Y-96636666D01*
X192721667Y-96570000D01*
X192721667Y-96503333D01*
X192688333Y-96436666D01*
X192655000Y-96403333D01*
X192588333Y-96370000D01*
X192455000Y-96336666D01*
X192288333Y-96336666D01*
X192155000Y-96370000D01*
X192088333Y-96403333D01*
X192055000Y-96436666D01*
X192021667Y-96503333D01*
X192255000Y-97336667D02*
X192721667Y-97336667D01*
X191988333Y-97170000D02*
X192488333Y-97003333D01*
X192488333Y-97436667D01*
X192721667Y-98210000D02*
X192021667Y-98210000D01*
X192021667Y-98376666D01*
X192055000Y-98476666D01*
X192121667Y-98543333D01*
X192188333Y-98576666D01*
X192321667Y-98610000D01*
X192421667Y-98610000D01*
X192555000Y-98576666D01*
X192621667Y-98543333D01*
X192688333Y-98476666D01*
X192721667Y-98376666D01*
X192721667Y-98210000D01*
X192021667Y-99043333D02*
X192021667Y-99110000D01*
X192055000Y-99176666D01*
X192088333Y-99210000D01*
X192155000Y-99243333D01*
X192288333Y-99276666D01*
X192455000Y-99276666D01*
X192588333Y-99243333D01*
X192655000Y-99210000D01*
X192688333Y-99176666D01*
X192721667Y-99110000D01*
X192721667Y-99043333D01*
X192688333Y-98976666D01*
X192655000Y-98943333D01*
X192588333Y-98910000D01*
X192455000Y-98876666D01*
X192288333Y-98876666D01*
X192155000Y-98910000D01*
X192088333Y-98943333D01*
X192055000Y-98976666D01*
X192021667Y-99043333D01*
X192088333Y-99543333D02*
X192055000Y-99576667D01*
X192021667Y-99643333D01*
X192021667Y-99810000D01*
X192055000Y-99876667D01*
X192088333Y-99910000D01*
X192155000Y-99943333D01*
X192221667Y-99943333D01*
X192321667Y-99910000D01*
X192721667Y-99510000D01*
X192721667Y-99943333D01*
X192721667Y-100750000D02*
X192021667Y-100750000D01*
X192021667Y-100916666D01*
X192055000Y-101016666D01*
X192121667Y-101083333D01*
X192188333Y-101116666D01*
X192321667Y-101150000D01*
X192421667Y-101150000D01*
X192555000Y-101116666D01*
X192621667Y-101083333D01*
X192688333Y-101016666D01*
X192721667Y-100916666D01*
X192721667Y-100750000D01*
X192721667Y-101816666D02*
X192721667Y-101416666D01*
X192721667Y-101616666D02*
X192021667Y-101616666D01*
X192121667Y-101550000D01*
X192188333Y-101483333D01*
X192221667Y-101416666D01*
X192021667Y-102450000D02*
X192021667Y-102116667D01*
X192355000Y-102083333D01*
X192321667Y-102116667D01*
X192288333Y-102183333D01*
X192288333Y-102350000D01*
X192321667Y-102416667D01*
X192355000Y-102450000D01*
X192421667Y-102483333D01*
X192588333Y-102483333D01*
X192655000Y-102450000D01*
X192688333Y-102416667D01*
X192721667Y-102350000D01*
X192721667Y-102183333D01*
X192688333Y-102116667D01*
X192655000Y-102083333D01*
X192055000Y-103606667D02*
X192021667Y-103540001D01*
X192021667Y-103440001D01*
X192055000Y-103340001D01*
X192121667Y-103273334D01*
X192188333Y-103240001D01*
X192321667Y-103206667D01*
X192421667Y-103206667D01*
X192555000Y-103240001D01*
X192621667Y-103273334D01*
X192688333Y-103340001D01*
X192721667Y-103440001D01*
X192721667Y-103506667D01*
X192688333Y-103606667D01*
X192655000Y-103640001D01*
X192421667Y-103640001D01*
X192421667Y-103506667D01*
X192721667Y-103940001D02*
X192021667Y-103940001D01*
X192721667Y-104340001D01*
X192021667Y-104340001D01*
X192721667Y-104673334D02*
X192021667Y-104673334D01*
X192021667Y-104840000D01*
X192055000Y-104940000D01*
X192121667Y-105006667D01*
X192188333Y-105040000D01*
X192321667Y-105073334D01*
X192421667Y-105073334D01*
X192555000Y-105040000D01*
X192621667Y-105006667D01*
X192688333Y-104940000D01*
X192721667Y-104840000D01*
X192721667Y-104673334D01*
X192055000Y-106146667D02*
X192021667Y-106080001D01*
X192021667Y-105980001D01*
X192055000Y-105880001D01*
X192121667Y-105813334D01*
X192188333Y-105780001D01*
X192321667Y-105746667D01*
X192421667Y-105746667D01*
X192555000Y-105780001D01*
X192621667Y-105813334D01*
X192688333Y-105880001D01*
X192721667Y-105980001D01*
X192721667Y-106046667D01*
X192688333Y-106146667D01*
X192655000Y-106180001D01*
X192421667Y-106180001D01*
X192421667Y-106046667D01*
X192721667Y-106480001D02*
X192021667Y-106480001D01*
X192721667Y-106880001D01*
X192021667Y-106880001D01*
X192721667Y-107213334D02*
X192021667Y-107213334D01*
X192021667Y-107380000D01*
X192055000Y-107480000D01*
X192121667Y-107546667D01*
X192188333Y-107580000D01*
X192321667Y-107613334D01*
X192421667Y-107613334D01*
X192555000Y-107580000D01*
X192621667Y-107546667D01*
X192688333Y-107480000D01*
X192721667Y-107380000D01*
X192721667Y-107213334D01*
X192021667Y-110826667D02*
X192721667Y-111060000D01*
X192021667Y-111293333D01*
X192655000Y-111926667D02*
X192688333Y-111893333D01*
X192721667Y-111793333D01*
X192721667Y-111726667D01*
X192688333Y-111626667D01*
X192621667Y-111560000D01*
X192555000Y-111526667D01*
X192421667Y-111493333D01*
X192321667Y-111493333D01*
X192188333Y-111526667D01*
X192121667Y-111560000D01*
X192055000Y-111626667D01*
X192021667Y-111726667D01*
X192021667Y-111793333D01*
X192055000Y-111893333D01*
X192088333Y-111926667D01*
X192655000Y-112626667D02*
X192688333Y-112593333D01*
X192721667Y-112493333D01*
X192721667Y-112426667D01*
X192688333Y-112326667D01*
X192621667Y-112260000D01*
X192555000Y-112226667D01*
X192421667Y-112193333D01*
X192321667Y-112193333D01*
X192188333Y-112226667D01*
X192121667Y-112260000D01*
X192055000Y-112326667D01*
X192021667Y-112426667D01*
X192021667Y-112493333D01*
X192055000Y-112593333D01*
X192088333Y-112626667D01*
X192021667Y-108353333D02*
X192021667Y-108786666D01*
X192288333Y-108553333D01*
X192288333Y-108653333D01*
X192321667Y-108720000D01*
X192355000Y-108753333D01*
X192421667Y-108786666D01*
X192588333Y-108786666D01*
X192655000Y-108753333D01*
X192688333Y-108720000D01*
X192721667Y-108653333D01*
X192721667Y-108453333D01*
X192688333Y-108386666D01*
X192655000Y-108353333D01*
X192021667Y-108986667D02*
X192721667Y-109220000D01*
X192021667Y-109453333D01*
X192021667Y-109620000D02*
X192021667Y-110053333D01*
X192288333Y-109820000D01*
X192288333Y-109920000D01*
X192321667Y-109986667D01*
X192355000Y-110020000D01*
X192421667Y-110053333D01*
X192588333Y-110053333D01*
X192655000Y-110020000D01*
X192688333Y-109986667D01*
X192721667Y-109920000D01*
X192721667Y-109720000D01*
X192688333Y-109653333D01*
X192655000Y-109620000D01*
X150878333Y-112626667D02*
X150878333Y-112193334D01*
X150611667Y-112426667D01*
X150611667Y-112326667D01*
X150578333Y-112260000D01*
X150545000Y-112226667D01*
X150478333Y-112193334D01*
X150311667Y-112193334D01*
X150245000Y-112226667D01*
X150211667Y-112260000D01*
X150178333Y-112326667D01*
X150178333Y-112526667D01*
X150211667Y-112593334D01*
X150245000Y-112626667D01*
X150878333Y-111993333D02*
X150178333Y-111760000D01*
X150878333Y-111526667D01*
X150878333Y-111360000D02*
X150878333Y-110926667D01*
X150611667Y-111160000D01*
X150611667Y-111060000D01*
X150578333Y-110993333D01*
X150545000Y-110960000D01*
X150478333Y-110926667D01*
X150311667Y-110926667D01*
X150245000Y-110960000D01*
X150211667Y-110993333D01*
X150178333Y-111060000D01*
X150178333Y-111260000D01*
X150211667Y-111326667D01*
X150245000Y-111360000D01*
X150845000Y-109753333D02*
X150878333Y-109819999D01*
X150878333Y-109919999D01*
X150845000Y-110019999D01*
X150778333Y-110086666D01*
X150711667Y-110119999D01*
X150578333Y-110153333D01*
X150478333Y-110153333D01*
X150345000Y-110119999D01*
X150278333Y-110086666D01*
X150211667Y-110019999D01*
X150178333Y-109919999D01*
X150178333Y-109853333D01*
X150211667Y-109753333D01*
X150245000Y-109719999D01*
X150478333Y-109719999D01*
X150478333Y-109853333D01*
X150178333Y-109419999D02*
X150878333Y-109419999D01*
X150178333Y-109019999D01*
X150878333Y-109019999D01*
X150178333Y-108686666D02*
X150878333Y-108686666D01*
X150878333Y-108520000D01*
X150845000Y-108420000D01*
X150778333Y-108353333D01*
X150711667Y-108320000D01*
X150578333Y-108286666D01*
X150478333Y-108286666D01*
X150345000Y-108320000D01*
X150278333Y-108353333D01*
X150211667Y-108420000D01*
X150178333Y-108520000D01*
X150178333Y-108686666D01*
X150178333Y-107530000D02*
X150878333Y-107530000D01*
X150878333Y-107363334D01*
X150845000Y-107263334D01*
X150778333Y-107196667D01*
X150711667Y-107163334D01*
X150578333Y-107130000D01*
X150478333Y-107130000D01*
X150345000Y-107163334D01*
X150278333Y-107196667D01*
X150211667Y-107263334D01*
X150178333Y-107363334D01*
X150178333Y-107530000D01*
X150178333Y-106463334D02*
X150178333Y-106863334D01*
X150178333Y-106663334D02*
X150878333Y-106663334D01*
X150778333Y-106730000D01*
X150711667Y-106796667D01*
X150678333Y-106863334D01*
X150878333Y-106230000D02*
X150878333Y-105796667D01*
X150611667Y-106030000D01*
X150611667Y-105930000D01*
X150578333Y-105863333D01*
X150545000Y-105830000D01*
X150478333Y-105796667D01*
X150311667Y-105796667D01*
X150245000Y-105830000D01*
X150211667Y-105863333D01*
X150178333Y-105930000D01*
X150178333Y-106130000D01*
X150211667Y-106196667D01*
X150245000Y-106230000D01*
X150178333Y-104990000D02*
X150878333Y-104990000D01*
X150878333Y-104823334D01*
X150845000Y-104723334D01*
X150778333Y-104656667D01*
X150711667Y-104623334D01*
X150578333Y-104590000D01*
X150478333Y-104590000D01*
X150345000Y-104623334D01*
X150278333Y-104656667D01*
X150211667Y-104723334D01*
X150178333Y-104823334D01*
X150178333Y-104990000D01*
X150178333Y-103923334D02*
X150178333Y-104323334D01*
X150178333Y-104123334D02*
X150878333Y-104123334D01*
X150778333Y-104190000D01*
X150711667Y-104256667D01*
X150678333Y-104323334D01*
X150811667Y-103656667D02*
X150845000Y-103623333D01*
X150878333Y-103556667D01*
X150878333Y-103390000D01*
X150845000Y-103323333D01*
X150811667Y-103290000D01*
X150745000Y-103256667D01*
X150678333Y-103256667D01*
X150578333Y-103290000D01*
X150178333Y-103690000D01*
X150178333Y-103256667D01*
X150178333Y-102450000D02*
X150878333Y-102450000D01*
X150878333Y-102283334D01*
X150845000Y-102183334D01*
X150778333Y-102116667D01*
X150711667Y-102083334D01*
X150578333Y-102050000D01*
X150478333Y-102050000D01*
X150345000Y-102083334D01*
X150278333Y-102116667D01*
X150211667Y-102183334D01*
X150178333Y-102283334D01*
X150178333Y-102450000D01*
X150178333Y-101383334D02*
X150178333Y-101783334D01*
X150178333Y-101583334D02*
X150878333Y-101583334D01*
X150778333Y-101650000D01*
X150711667Y-101716667D01*
X150678333Y-101783334D01*
X150645000Y-100783333D02*
X150178333Y-100783333D01*
X150911667Y-100950000D02*
X150411667Y-101116667D01*
X150411667Y-100683333D01*
X150178333Y-97370000D02*
X150878333Y-97370000D01*
X150878333Y-97203334D01*
X150845000Y-97103334D01*
X150778333Y-97036667D01*
X150711667Y-97003334D01*
X150578333Y-96970000D01*
X150478333Y-96970000D01*
X150345000Y-97003334D01*
X150278333Y-97036667D01*
X150211667Y-97103334D01*
X150178333Y-97203334D01*
X150178333Y-97370000D01*
X150811667Y-96703334D02*
X150845000Y-96670000D01*
X150878333Y-96603334D01*
X150878333Y-96436667D01*
X150845000Y-96370000D01*
X150811667Y-96336667D01*
X150745000Y-96303334D01*
X150678333Y-96303334D01*
X150578333Y-96336667D01*
X150178333Y-96736667D01*
X150178333Y-96303334D01*
X150878333Y-95703333D02*
X150878333Y-95836667D01*
X150845000Y-95903333D01*
X150811667Y-95936667D01*
X150711667Y-96003333D01*
X150578333Y-96036667D01*
X150311667Y-96036667D01*
X150245000Y-96003333D01*
X150211667Y-95970000D01*
X150178333Y-95903333D01*
X150178333Y-95770000D01*
X150211667Y-95703333D01*
X150245000Y-95670000D01*
X150311667Y-95636667D01*
X150478333Y-95636667D01*
X150545000Y-95670000D01*
X150578333Y-95703333D01*
X150611667Y-95770000D01*
X150611667Y-95903333D01*
X150578333Y-95970000D01*
X150545000Y-96003333D01*
X150478333Y-96036667D01*
X150178333Y-94830000D02*
X150878333Y-94830000D01*
X150878333Y-94663334D01*
X150845000Y-94563334D01*
X150778333Y-94496667D01*
X150711667Y-94463334D01*
X150578333Y-94430000D01*
X150478333Y-94430000D01*
X150345000Y-94463334D01*
X150278333Y-94496667D01*
X150211667Y-94563334D01*
X150178333Y-94663334D01*
X150178333Y-94830000D01*
X150811667Y-94163334D02*
X150845000Y-94130000D01*
X150878333Y-94063334D01*
X150878333Y-93896667D01*
X150845000Y-93830000D01*
X150811667Y-93796667D01*
X150745000Y-93763334D01*
X150678333Y-93763334D01*
X150578333Y-93796667D01*
X150178333Y-94196667D01*
X150178333Y-93763334D01*
X150878333Y-93130000D02*
X150878333Y-93463333D01*
X150545000Y-93496667D01*
X150578333Y-93463333D01*
X150611667Y-93396667D01*
X150611667Y-93230000D01*
X150578333Y-93163333D01*
X150545000Y-93130000D01*
X150478333Y-93096667D01*
X150311667Y-93096667D01*
X150245000Y-93130000D01*
X150211667Y-93163333D01*
X150178333Y-93230000D01*
X150178333Y-93396667D01*
X150211667Y-93463333D01*
X150245000Y-93496667D01*
X150178333Y-92290000D02*
X150878333Y-92290000D01*
X150878333Y-92123334D01*
X150845000Y-92023334D01*
X150778333Y-91956667D01*
X150711667Y-91923334D01*
X150578333Y-91890000D01*
X150478333Y-91890000D01*
X150345000Y-91923334D01*
X150278333Y-91956667D01*
X150211667Y-92023334D01*
X150178333Y-92123334D01*
X150178333Y-92290000D01*
X150878333Y-91656667D02*
X150878333Y-91223334D01*
X150611667Y-91456667D01*
X150611667Y-91356667D01*
X150578333Y-91290000D01*
X150545000Y-91256667D01*
X150478333Y-91223334D01*
X150311667Y-91223334D01*
X150245000Y-91256667D01*
X150211667Y-91290000D01*
X150178333Y-91356667D01*
X150178333Y-91556667D01*
X150211667Y-91623334D01*
X150245000Y-91656667D01*
X150878333Y-90990000D02*
X150878333Y-90556667D01*
X150611667Y-90790000D01*
X150611667Y-90690000D01*
X150578333Y-90623333D01*
X150545000Y-90590000D01*
X150478333Y-90556667D01*
X150311667Y-90556667D01*
X150245000Y-90590000D01*
X150211667Y-90623333D01*
X150178333Y-90690000D01*
X150178333Y-90890000D01*
X150211667Y-90956667D01*
X150245000Y-90990000D01*
X150178333Y-89750000D02*
X150878333Y-89750000D01*
X150878333Y-89583334D01*
X150845000Y-89483334D01*
X150778333Y-89416667D01*
X150711667Y-89383334D01*
X150578333Y-89350000D01*
X150478333Y-89350000D01*
X150345000Y-89383334D01*
X150278333Y-89416667D01*
X150211667Y-89483334D01*
X150178333Y-89583334D01*
X150178333Y-89750000D01*
X150878333Y-89116667D02*
X150878333Y-88683334D01*
X150611667Y-88916667D01*
X150611667Y-88816667D01*
X150578333Y-88750000D01*
X150545000Y-88716667D01*
X150478333Y-88683334D01*
X150311667Y-88683334D01*
X150245000Y-88716667D01*
X150211667Y-88750000D01*
X150178333Y-88816667D01*
X150178333Y-89016667D01*
X150211667Y-89083334D01*
X150245000Y-89116667D01*
X150811667Y-88416667D02*
X150845000Y-88383333D01*
X150878333Y-88316667D01*
X150878333Y-88150000D01*
X150845000Y-88083333D01*
X150811667Y-88050000D01*
X150745000Y-88016667D01*
X150678333Y-88016667D01*
X150578333Y-88050000D01*
X150178333Y-88450000D01*
X150178333Y-88016667D01*
X150178333Y-87210000D02*
X150878333Y-87210000D01*
X150878333Y-87043334D01*
X150845000Y-86943334D01*
X150778333Y-86876667D01*
X150711667Y-86843334D01*
X150578333Y-86810000D01*
X150478333Y-86810000D01*
X150345000Y-86843334D01*
X150278333Y-86876667D01*
X150211667Y-86943334D01*
X150178333Y-87043334D01*
X150178333Y-87210000D01*
X150878333Y-86576667D02*
X150878333Y-86143334D01*
X150611667Y-86376667D01*
X150611667Y-86276667D01*
X150578333Y-86210000D01*
X150545000Y-86176667D01*
X150478333Y-86143334D01*
X150311667Y-86143334D01*
X150245000Y-86176667D01*
X150211667Y-86210000D01*
X150178333Y-86276667D01*
X150178333Y-86476667D01*
X150211667Y-86543334D01*
X150245000Y-86576667D01*
X150878333Y-85510000D02*
X150878333Y-85843333D01*
X150545000Y-85876667D01*
X150578333Y-85843333D01*
X150611667Y-85776667D01*
X150611667Y-85610000D01*
X150578333Y-85543333D01*
X150545000Y-85510000D01*
X150478333Y-85476667D01*
X150311667Y-85476667D01*
X150245000Y-85510000D01*
X150211667Y-85543333D01*
X150178333Y-85610000D01*
X150178333Y-85776667D01*
X150211667Y-85843333D01*
X150245000Y-85876667D01*
X150178333Y-84670000D02*
X150878333Y-84670000D01*
X150878333Y-84503334D01*
X150845000Y-84403334D01*
X150778333Y-84336667D01*
X150711667Y-84303334D01*
X150578333Y-84270000D01*
X150478333Y-84270000D01*
X150345000Y-84303334D01*
X150278333Y-84336667D01*
X150211667Y-84403334D01*
X150178333Y-84503334D01*
X150178333Y-84670000D01*
X150878333Y-84036667D02*
X150878333Y-83603334D01*
X150611667Y-83836667D01*
X150611667Y-83736667D01*
X150578333Y-83670000D01*
X150545000Y-83636667D01*
X150478333Y-83603334D01*
X150311667Y-83603334D01*
X150245000Y-83636667D01*
X150211667Y-83670000D01*
X150178333Y-83736667D01*
X150178333Y-83936667D01*
X150211667Y-84003334D01*
X150245000Y-84036667D01*
X150645000Y-83003333D02*
X150178333Y-83003333D01*
X150911667Y-83170000D02*
X150411667Y-83336667D01*
X150411667Y-82903333D01*
X150211667Y-82146667D02*
X150178333Y-82046667D01*
X150178333Y-81880000D01*
X150211667Y-81813333D01*
X150245000Y-81780000D01*
X150311667Y-81746667D01*
X150378333Y-81746667D01*
X150445000Y-81780000D01*
X150478333Y-81813333D01*
X150511667Y-81880000D01*
X150545000Y-82013333D01*
X150578333Y-82080000D01*
X150611667Y-82113333D01*
X150678333Y-82146667D01*
X150745000Y-82146667D01*
X150811667Y-82113333D01*
X150845000Y-82080000D01*
X150878333Y-82013333D01*
X150878333Y-81846667D01*
X150845000Y-81746667D01*
X150878333Y-81546666D02*
X150178333Y-81313333D01*
X150878333Y-81080000D01*
X150178333Y-80846666D02*
X150878333Y-80846666D01*
X150178333Y-80446666D01*
X150878333Y-80446666D01*
X150211667Y-79590000D02*
X150178333Y-79490000D01*
X150178333Y-79323333D01*
X150211667Y-79256666D01*
X150245000Y-79223333D01*
X150311667Y-79190000D01*
X150378333Y-79190000D01*
X150445000Y-79223333D01*
X150478333Y-79256666D01*
X150511667Y-79323333D01*
X150545000Y-79456666D01*
X150578333Y-79523333D01*
X150611667Y-79556666D01*
X150678333Y-79590000D01*
X150745000Y-79590000D01*
X150811667Y-79556666D01*
X150845000Y-79523333D01*
X150878333Y-79456666D01*
X150878333Y-79290000D01*
X150845000Y-79190000D01*
X150878333Y-78989999D02*
X150178333Y-78756666D01*
X150878333Y-78523333D01*
X150178333Y-78289999D02*
X150878333Y-78289999D01*
X150878333Y-78023333D01*
X150845000Y-77956666D01*
X150811667Y-77923333D01*
X150745000Y-77889999D01*
X150645000Y-77889999D01*
X150578333Y-77923333D01*
X150545000Y-77956666D01*
X150511667Y-78023333D01*
X150511667Y-78289999D01*
X150545000Y-76716666D02*
X150545000Y-76483333D01*
X150178333Y-76383333D02*
X150178333Y-76716666D01*
X150878333Y-76716666D01*
X150878333Y-76383333D01*
X150178333Y-76083333D02*
X150878333Y-76083333D01*
X150178333Y-75683333D01*
X150878333Y-75683333D01*
X150878333Y-74526667D02*
X150878333Y-74093334D01*
X150611667Y-74326667D01*
X150611667Y-74226667D01*
X150578333Y-74160000D01*
X150545000Y-74126667D01*
X150478333Y-74093334D01*
X150311667Y-74093334D01*
X150245000Y-74126667D01*
X150211667Y-74160000D01*
X150178333Y-74226667D01*
X150178333Y-74426667D01*
X150211667Y-74493334D01*
X150245000Y-74526667D01*
X150878333Y-73893333D02*
X150178333Y-73660000D01*
X150878333Y-73426667D01*
X150878333Y-73260000D02*
X150878333Y-72826667D01*
X150611667Y-73060000D01*
X150611667Y-72960000D01*
X150578333Y-72893333D01*
X150545000Y-72860000D01*
X150478333Y-72826667D01*
X150311667Y-72826667D01*
X150245000Y-72860000D01*
X150211667Y-72893333D01*
X150178333Y-72960000D01*
X150178333Y-73160000D01*
X150211667Y-73226667D01*
X150245000Y-73260000D01*
X150845000Y-71653333D02*
X150878333Y-71719999D01*
X150878333Y-71819999D01*
X150845000Y-71919999D01*
X150778333Y-71986666D01*
X150711667Y-72019999D01*
X150578333Y-72053333D01*
X150478333Y-72053333D01*
X150345000Y-72019999D01*
X150278333Y-71986666D01*
X150211667Y-71919999D01*
X150178333Y-71819999D01*
X150178333Y-71753333D01*
X150211667Y-71653333D01*
X150245000Y-71619999D01*
X150478333Y-71619999D01*
X150478333Y-71753333D01*
X150178333Y-71319999D02*
X150878333Y-71319999D01*
X150178333Y-70919999D01*
X150878333Y-70919999D01*
X150178333Y-70586666D02*
X150878333Y-70586666D01*
X150878333Y-70420000D01*
X150845000Y-70320000D01*
X150778333Y-70253333D01*
X150711667Y-70220000D01*
X150578333Y-70186666D01*
X150478333Y-70186666D01*
X150345000Y-70220000D01*
X150278333Y-70253333D01*
X150211667Y-70320000D01*
X150178333Y-70420000D01*
X150178333Y-70586666D01*
D14*
G36*
X165713375Y-63237717D02*
X165701230Y-63302771D01*
X165689765Y-63361076D01*
X165679773Y-63408836D01*
X165672045Y-63442252D01*
X165667521Y-63457261D01*
X165654026Y-63468072D01*
X165624366Y-63484089D01*
X165583173Y-63503429D01*
X165535082Y-63524206D01*
X165484727Y-63544538D01*
X165436741Y-63562541D01*
X165395758Y-63576329D01*
X165366412Y-63584021D01*
X165354472Y-63584535D01*
X165340486Y-63576498D01*
X165311609Y-63558008D01*
X165271093Y-63531212D01*
X165222188Y-63498255D01*
X165174997Y-63466003D01*
X165121521Y-63429466D01*
X165073698Y-63397244D01*
X165034747Y-63371471D01*
X165007888Y-63354281D01*
X164996812Y-63347947D01*
X164984669Y-63353589D01*
X164960394Y-63372535D01*
X164926895Y-63401910D01*
X164887079Y-63438843D01*
X164843852Y-63480460D01*
X164800123Y-63523888D01*
X164758798Y-63566255D01*
X164722785Y-63604686D01*
X164694991Y-63636310D01*
X164678322Y-63658253D01*
X164674826Y-63666144D01*
X164680820Y-63680421D01*
X164697483Y-63709613D01*
X164722838Y-63750530D01*
X164754910Y-63799978D01*
X164790782Y-63853391D01*
X164827445Y-63907818D01*
X164859340Y-63956524D01*
X164884498Y-63996391D01*
X164900953Y-64024304D01*
X164906739Y-64037073D01*
X164902489Y-64052036D01*
X164891053Y-64082488D01*
X164874408Y-64123816D01*
X164854525Y-64171411D01*
X164833381Y-64220661D01*
X164812947Y-64266956D01*
X164795200Y-64305685D01*
X164782112Y-64332238D01*
X164776371Y-64341568D01*
X164764321Y-64345341D01*
X164734641Y-64352365D01*
X164691409Y-64361822D01*
X164638703Y-64372892D01*
X164580603Y-64384756D01*
X164521185Y-64396596D01*
X164464529Y-64407593D01*
X164414712Y-64416928D01*
X164375815Y-64423782D01*
X164351913Y-64427336D01*
X164347599Y-64427652D01*
X164345285Y-64438028D01*
X164343736Y-64466522D01*
X164342890Y-64509178D01*
X164342688Y-64562041D01*
X164343070Y-64621158D01*
X164343977Y-64682573D01*
X164345348Y-64742331D01*
X164347125Y-64796478D01*
X164349247Y-64841059D01*
X164351655Y-64872120D01*
X164354288Y-64885706D01*
X164354520Y-64885929D01*
X164368485Y-64890079D01*
X164400473Y-64897411D01*
X164446778Y-64907144D01*
X164503694Y-64918495D01*
X164559645Y-64929208D01*
X164624124Y-64942013D01*
X164680923Y-64954601D01*
X164726360Y-64966055D01*
X164756756Y-64975459D01*
X164767913Y-64981040D01*
X164776949Y-64996596D01*
X164791682Y-65028066D01*
X164810217Y-65070756D01*
X164830664Y-65119971D01*
X164851128Y-65171013D01*
X164869718Y-65219188D01*
X164884541Y-65259801D01*
X164893704Y-65288154D01*
X164895737Y-65298171D01*
X164889705Y-65311653D01*
X164872999Y-65339962D01*
X164847665Y-65379866D01*
X164815744Y-65428133D01*
X164785261Y-65472883D01*
X164749317Y-65526002D01*
X164718265Y-65573845D01*
X164694160Y-65613085D01*
X164679055Y-65640397D01*
X164674826Y-65651643D01*
X164682271Y-65664040D01*
X164702665Y-65688761D01*
X164733100Y-65722816D01*
X164770664Y-65763211D01*
X164812449Y-65806955D01*
X164855545Y-65851056D01*
X164897041Y-65892522D01*
X164934028Y-65928360D01*
X164963597Y-65955578D01*
X164982837Y-65971185D01*
X164988065Y-65973739D01*
X164999818Y-65967779D01*
X165026511Y-65951276D01*
X165064951Y-65926296D01*
X165111945Y-65894906D01*
X165150707Y-65868520D01*
X165202816Y-65833082D01*
X165249516Y-65801899D01*
X165287379Y-65777216D01*
X165312977Y-65761275D01*
X165321860Y-65756483D01*
X165340055Y-65757741D01*
X165371531Y-65767497D01*
X165410113Y-65783790D01*
X165414739Y-65786000D01*
X165452926Y-65802809D01*
X165484646Y-65813758D01*
X165503801Y-65816793D01*
X165505185Y-65816450D01*
X165511810Y-65805714D01*
X165525652Y-65777404D01*
X165545495Y-65734358D01*
X165570123Y-65679415D01*
X165598322Y-65615416D01*
X165628874Y-65545199D01*
X165660565Y-65471604D01*
X165692179Y-65397469D01*
X165722500Y-65325635D01*
X165750313Y-65258940D01*
X165774402Y-65200224D01*
X165793551Y-65152325D01*
X165806545Y-65118084D01*
X165812169Y-65100339D01*
X165812304Y-65099135D01*
X165804031Y-65089950D01*
X165781940Y-65071233D01*
X165750123Y-65046380D01*
X165735427Y-65035360D01*
X165658463Y-64966235D01*
X165599876Y-64888168D01*
X165559846Y-64803651D01*
X165538553Y-64715175D01*
X165536177Y-64625232D01*
X165552896Y-64536313D01*
X165588892Y-64450909D01*
X165644342Y-64371513D01*
X165684579Y-64330032D01*
X165760740Y-64273386D01*
X165842552Y-64236195D01*
X165927552Y-64217372D01*
X166013274Y-64215829D01*
X166097256Y-64230478D01*
X166177033Y-64260233D01*
X166250141Y-64304006D01*
X166314116Y-64360710D01*
X166366494Y-64429257D01*
X166404811Y-64508561D01*
X166426602Y-64597534D01*
X166430739Y-64659289D01*
X166420299Y-64758212D01*
X166389193Y-64849644D01*
X166337741Y-64932983D01*
X166266263Y-65007624D01*
X166231529Y-65035360D01*
X166196941Y-65061731D01*
X166170424Y-65083338D01*
X166156071Y-65096786D01*
X166154652Y-65099135D01*
X166158854Y-65113753D01*
X166170647Y-65145358D01*
X166188817Y-65191111D01*
X166212145Y-65248172D01*
X166239415Y-65313702D01*
X166269411Y-65384862D01*
X166300915Y-65458812D01*
X166332712Y-65532714D01*
X166363584Y-65603727D01*
X166392315Y-65669012D01*
X166417689Y-65725731D01*
X166438487Y-65771043D01*
X166453495Y-65802109D01*
X166461495Y-65816091D01*
X166462076Y-65816567D01*
X166478823Y-65814762D01*
X166509157Y-65804581D01*
X166547196Y-65788080D01*
X166556380Y-65783625D01*
X166635043Y-65744681D01*
X166802446Y-65859210D01*
X166856123Y-65895597D01*
X166903703Y-65927215D01*
X166942142Y-65952092D01*
X166968391Y-65968254D01*
X166979290Y-65973739D01*
X166989664Y-65966268D01*
X167012989Y-65945454D01*
X167046724Y-65913694D01*
X167088326Y-65873387D01*
X167135253Y-65826930D01*
X167140430Y-65821748D01*
X167187454Y-65773723D01*
X167228547Y-65730016D01*
X167261291Y-65693340D01*
X167283271Y-65666412D01*
X167292068Y-65651945D01*
X167292130Y-65651352D01*
X167286091Y-65636609D01*
X167269342Y-65607160D01*
X167243938Y-65566322D01*
X167211933Y-65517415D01*
X167181695Y-65472883D01*
X167145814Y-65420082D01*
X167114798Y-65372922D01*
X167090691Y-65334635D01*
X167075536Y-65308454D01*
X167071220Y-65298171D01*
X167075318Y-65281138D01*
X167086396Y-65248573D01*
X167102560Y-65205173D01*
X167121918Y-65155633D01*
X167142577Y-65104649D01*
X167162644Y-65056916D01*
X167180227Y-65017130D01*
X167193434Y-64989986D01*
X167199043Y-64981040D01*
X167214203Y-64974026D01*
X167247452Y-64964203D01*
X167295109Y-64952488D01*
X167353493Y-64939798D01*
X167407311Y-64929208D01*
X167470503Y-64917079D01*
X167526345Y-64905879D01*
X167571134Y-64896393D01*
X167601162Y-64889400D01*
X167612436Y-64885929D01*
X167615086Y-64874011D01*
X167617515Y-64844282D01*
X167619663Y-64800696D01*
X167621472Y-64747209D01*
X167622880Y-64687774D01*
X167623829Y-64626346D01*
X167624258Y-64566881D01*
X167624108Y-64513332D01*
X167623319Y-64469654D01*
X167621831Y-64439802D01*
X167619585Y-64427731D01*
X167619358Y-64427652D01*
X167602257Y-64425573D01*
X167568603Y-64419882D01*
X167522473Y-64411397D01*
X167467947Y-64400938D01*
X167409102Y-64389323D01*
X167350017Y-64377372D01*
X167294771Y-64365902D01*
X167247441Y-64355733D01*
X167212106Y-64347683D01*
X167192845Y-64342572D01*
X167190585Y-64341568D01*
X167182564Y-64327870D01*
X167168327Y-64298359D01*
X167149847Y-64257646D01*
X167129099Y-64210342D01*
X167108056Y-64161057D01*
X167088694Y-64114403D01*
X167072985Y-64074989D01*
X167062904Y-64047427D01*
X167060217Y-64037073D01*
X167066192Y-64023959D01*
X167082806Y-63995825D01*
X167108090Y-63955788D01*
X167140079Y-63906963D01*
X167176174Y-63853391D01*
X167212892Y-63798696D01*
X167244824Y-63749418D01*
X167269991Y-63708749D01*
X167286418Y-63679882D01*
X167292130Y-63666144D01*
X167284617Y-63652361D01*
X167264015Y-63626958D01*
X167233231Y-63592808D01*
X167195174Y-63552783D01*
X167152749Y-63509756D01*
X167108864Y-63466602D01*
X167066427Y-63426191D01*
X167028344Y-63391399D01*
X166997523Y-63365097D01*
X166976871Y-63350158D01*
X166970144Y-63347947D01*
X166956591Y-63355820D01*
X166928111Y-63374152D01*
X166887926Y-63400811D01*
X166839255Y-63433663D01*
X166791960Y-63466003D01*
X166738375Y-63502592D01*
X166690332Y-63534903D01*
X166651079Y-63560789D01*
X166623868Y-63578102D01*
X166612484Y-63584535D01*
X166595679Y-63583028D01*
X166563558Y-63573927D01*
X166520754Y-63559116D01*
X166471901Y-63540480D01*
X166421633Y-63519902D01*
X166374584Y-63499267D01*
X166335387Y-63480457D01*
X166308677Y-63465358D01*
X166299435Y-63457261D01*
X166294600Y-63441018D01*
X166286744Y-63406818D01*
X166276662Y-63358458D01*
X166265145Y-63299737D01*
X166253581Y-63237717D01*
X166216912Y-63036174D01*
X165750044Y-63036174D01*
X165713375Y-63237717D01*
X165713375Y-63237717D01*
G37*
X165713375Y-63237717D02*
X165701230Y-63302771D01*
X165689765Y-63361076D01*
X165679773Y-63408836D01*
X165672045Y-63442252D01*
X165667521Y-63457261D01*
X165654026Y-63468072D01*
X165624366Y-63484089D01*
X165583173Y-63503429D01*
X165535082Y-63524206D01*
X165484727Y-63544538D01*
X165436741Y-63562541D01*
X165395758Y-63576329D01*
X165366412Y-63584021D01*
X165354472Y-63584535D01*
X165340486Y-63576498D01*
X165311609Y-63558008D01*
X165271093Y-63531212D01*
X165222188Y-63498255D01*
X165174997Y-63466003D01*
X165121521Y-63429466D01*
X165073698Y-63397244D01*
X165034747Y-63371471D01*
X165007888Y-63354281D01*
X164996812Y-63347947D01*
X164984669Y-63353589D01*
X164960394Y-63372535D01*
X164926895Y-63401910D01*
X164887079Y-63438843D01*
X164843852Y-63480460D01*
X164800123Y-63523888D01*
X164758798Y-63566255D01*
X164722785Y-63604686D01*
X164694991Y-63636310D01*
X164678322Y-63658253D01*
X164674826Y-63666144D01*
X164680820Y-63680421D01*
X164697483Y-63709613D01*
X164722838Y-63750530D01*
X164754910Y-63799978D01*
X164790782Y-63853391D01*
X164827445Y-63907818D01*
X164859340Y-63956524D01*
X164884498Y-63996391D01*
X164900953Y-64024304D01*
X164906739Y-64037073D01*
X164902489Y-64052036D01*
X164891053Y-64082488D01*
X164874408Y-64123816D01*
X164854525Y-64171411D01*
X164833381Y-64220661D01*
X164812947Y-64266956D01*
X164795200Y-64305685D01*
X164782112Y-64332238D01*
X164776371Y-64341568D01*
X164764321Y-64345341D01*
X164734641Y-64352365D01*
X164691409Y-64361822D01*
X164638703Y-64372892D01*
X164580603Y-64384756D01*
X164521185Y-64396596D01*
X164464529Y-64407593D01*
X164414712Y-64416928D01*
X164375815Y-64423782D01*
X164351913Y-64427336D01*
X164347599Y-64427652D01*
X164345285Y-64438028D01*
X164343736Y-64466522D01*
X164342890Y-64509178D01*
X164342688Y-64562041D01*
X164343070Y-64621158D01*
X164343977Y-64682573D01*
X164345348Y-64742331D01*
X164347125Y-64796478D01*
X164349247Y-64841059D01*
X164351655Y-64872120D01*
X164354288Y-64885706D01*
X164354520Y-64885929D01*
X164368485Y-64890079D01*
X164400473Y-64897411D01*
X164446778Y-64907144D01*
X164503694Y-64918495D01*
X164559645Y-64929208D01*
X164624124Y-64942013D01*
X164680923Y-64954601D01*
X164726360Y-64966055D01*
X164756756Y-64975459D01*
X164767913Y-64981040D01*
X164776949Y-64996596D01*
X164791682Y-65028066D01*
X164810217Y-65070756D01*
X164830664Y-65119971D01*
X164851128Y-65171013D01*
X164869718Y-65219188D01*
X164884541Y-65259801D01*
X164893704Y-65288154D01*
X164895737Y-65298171D01*
X164889705Y-65311653D01*
X164872999Y-65339962D01*
X164847665Y-65379866D01*
X164815744Y-65428133D01*
X164785261Y-65472883D01*
X164749317Y-65526002D01*
X164718265Y-65573845D01*
X164694160Y-65613085D01*
X164679055Y-65640397D01*
X164674826Y-65651643D01*
X164682271Y-65664040D01*
X164702665Y-65688761D01*
X164733100Y-65722816D01*
X164770664Y-65763211D01*
X164812449Y-65806955D01*
X164855545Y-65851056D01*
X164897041Y-65892522D01*
X164934028Y-65928360D01*
X164963597Y-65955578D01*
X164982837Y-65971185D01*
X164988065Y-65973739D01*
X164999818Y-65967779D01*
X165026511Y-65951276D01*
X165064951Y-65926296D01*
X165111945Y-65894906D01*
X165150707Y-65868520D01*
X165202816Y-65833082D01*
X165249516Y-65801899D01*
X165287379Y-65777216D01*
X165312977Y-65761275D01*
X165321860Y-65756483D01*
X165340055Y-65757741D01*
X165371531Y-65767497D01*
X165410113Y-65783790D01*
X165414739Y-65786000D01*
X165452926Y-65802809D01*
X165484646Y-65813758D01*
X165503801Y-65816793D01*
X165505185Y-65816450D01*
X165511810Y-65805714D01*
X165525652Y-65777404D01*
X165545495Y-65734358D01*
X165570123Y-65679415D01*
X165598322Y-65615416D01*
X165628874Y-65545199D01*
X165660565Y-65471604D01*
X165692179Y-65397469D01*
X165722500Y-65325635D01*
X165750313Y-65258940D01*
X165774402Y-65200224D01*
X165793551Y-65152325D01*
X165806545Y-65118084D01*
X165812169Y-65100339D01*
X165812304Y-65099135D01*
X165804031Y-65089950D01*
X165781940Y-65071233D01*
X165750123Y-65046380D01*
X165735427Y-65035360D01*
X165658463Y-64966235D01*
X165599876Y-64888168D01*
X165559846Y-64803651D01*
X165538553Y-64715175D01*
X165536177Y-64625232D01*
X165552896Y-64536313D01*
X165588892Y-64450909D01*
X165644342Y-64371513D01*
X165684579Y-64330032D01*
X165760740Y-64273386D01*
X165842552Y-64236195D01*
X165927552Y-64217372D01*
X166013274Y-64215829D01*
X166097256Y-64230478D01*
X166177033Y-64260233D01*
X166250141Y-64304006D01*
X166314116Y-64360710D01*
X166366494Y-64429257D01*
X166404811Y-64508561D01*
X166426602Y-64597534D01*
X166430739Y-64659289D01*
X166420299Y-64758212D01*
X166389193Y-64849644D01*
X166337741Y-64932983D01*
X166266263Y-65007624D01*
X166231529Y-65035360D01*
X166196941Y-65061731D01*
X166170424Y-65083338D01*
X166156071Y-65096786D01*
X166154652Y-65099135D01*
X166158854Y-65113753D01*
X166170647Y-65145358D01*
X166188817Y-65191111D01*
X166212145Y-65248172D01*
X166239415Y-65313702D01*
X166269411Y-65384862D01*
X166300915Y-65458812D01*
X166332712Y-65532714D01*
X166363584Y-65603727D01*
X166392315Y-65669012D01*
X166417689Y-65725731D01*
X166438487Y-65771043D01*
X166453495Y-65802109D01*
X166461495Y-65816091D01*
X166462076Y-65816567D01*
X166478823Y-65814762D01*
X166509157Y-65804581D01*
X166547196Y-65788080D01*
X166556380Y-65783625D01*
X166635043Y-65744681D01*
X166802446Y-65859210D01*
X166856123Y-65895597D01*
X166903703Y-65927215D01*
X166942142Y-65952092D01*
X166968391Y-65968254D01*
X166979290Y-65973739D01*
X166989664Y-65966268D01*
X167012989Y-65945454D01*
X167046724Y-65913694D01*
X167088326Y-65873387D01*
X167135253Y-65826930D01*
X167140430Y-65821748D01*
X167187454Y-65773723D01*
X167228547Y-65730016D01*
X167261291Y-65693340D01*
X167283271Y-65666412D01*
X167292068Y-65651945D01*
X167292130Y-65651352D01*
X167286091Y-65636609D01*
X167269342Y-65607160D01*
X167243938Y-65566322D01*
X167211933Y-65517415D01*
X167181695Y-65472883D01*
X167145814Y-65420082D01*
X167114798Y-65372922D01*
X167090691Y-65334635D01*
X167075536Y-65308454D01*
X167071220Y-65298171D01*
X167075318Y-65281138D01*
X167086396Y-65248573D01*
X167102560Y-65205173D01*
X167121918Y-65155633D01*
X167142577Y-65104649D01*
X167162644Y-65056916D01*
X167180227Y-65017130D01*
X167193434Y-64989986D01*
X167199043Y-64981040D01*
X167214203Y-64974026D01*
X167247452Y-64964203D01*
X167295109Y-64952488D01*
X167353493Y-64939798D01*
X167407311Y-64929208D01*
X167470503Y-64917079D01*
X167526345Y-64905879D01*
X167571134Y-64896393D01*
X167601162Y-64889400D01*
X167612436Y-64885929D01*
X167615086Y-64874011D01*
X167617515Y-64844282D01*
X167619663Y-64800696D01*
X167621472Y-64747209D01*
X167622880Y-64687774D01*
X167623829Y-64626346D01*
X167624258Y-64566881D01*
X167624108Y-64513332D01*
X167623319Y-64469654D01*
X167621831Y-64439802D01*
X167619585Y-64427731D01*
X167619358Y-64427652D01*
X167602257Y-64425573D01*
X167568603Y-64419882D01*
X167522473Y-64411397D01*
X167467947Y-64400938D01*
X167409102Y-64389323D01*
X167350017Y-64377372D01*
X167294771Y-64365902D01*
X167247441Y-64355733D01*
X167212106Y-64347683D01*
X167192845Y-64342572D01*
X167190585Y-64341568D01*
X167182564Y-64327870D01*
X167168327Y-64298359D01*
X167149847Y-64257646D01*
X167129099Y-64210342D01*
X167108056Y-64161057D01*
X167088694Y-64114403D01*
X167072985Y-64074989D01*
X167062904Y-64047427D01*
X167060217Y-64037073D01*
X167066192Y-64023959D01*
X167082806Y-63995825D01*
X167108090Y-63955788D01*
X167140079Y-63906963D01*
X167176174Y-63853391D01*
X167212892Y-63798696D01*
X167244824Y-63749418D01*
X167269991Y-63708749D01*
X167286418Y-63679882D01*
X167292130Y-63666144D01*
X167284617Y-63652361D01*
X167264015Y-63626958D01*
X167233231Y-63592808D01*
X167195174Y-63552783D01*
X167152749Y-63509756D01*
X167108864Y-63466602D01*
X167066427Y-63426191D01*
X167028344Y-63391399D01*
X166997523Y-63365097D01*
X166976871Y-63350158D01*
X166970144Y-63347947D01*
X166956591Y-63355820D01*
X166928111Y-63374152D01*
X166887926Y-63400811D01*
X166839255Y-63433663D01*
X166791960Y-63466003D01*
X166738375Y-63502592D01*
X166690332Y-63534903D01*
X166651079Y-63560789D01*
X166623868Y-63578102D01*
X166612484Y-63584535D01*
X166595679Y-63583028D01*
X166563558Y-63573927D01*
X166520754Y-63559116D01*
X166471901Y-63540480D01*
X166421633Y-63519902D01*
X166374584Y-63499267D01*
X166335387Y-63480457D01*
X166308677Y-63465358D01*
X166299435Y-63457261D01*
X166294600Y-63441018D01*
X166286744Y-63406818D01*
X166276662Y-63358458D01*
X166265145Y-63299737D01*
X166253581Y-63237717D01*
X166216912Y-63036174D01*
X165750044Y-63036174D01*
X165713375Y-63237717D01*
D12*
X159708000Y-116772000D02*
X158808000Y-116772000D01*
X158808000Y-120972000D02*
X159708000Y-120972000D01*
X157658000Y-120972000D02*
X157658000Y-116772000D01*
X160858000Y-120972000D02*
X160858000Y-116772000D01*
D15*
X169388000Y-118864000D02*
X169388000Y-117864000D01*
D10*
X170538000Y-118364000D02*
X170838000Y-118564000D01*
X170838000Y-118164000D02*
X170538000Y-118364000D01*
X170838000Y-118564000D02*
X170838000Y-118164000D01*
D15*
X169388000Y-117864000D02*
X171488000Y-117864000D01*
X169388000Y-118864000D02*
X171488000Y-118864000D01*
%LPC*%
D16*
X160333000Y-120947000D03*
X160333000Y-116797000D03*
X158183000Y-120947000D03*
X158183000Y-116797000D03*
D17*
X171488000Y-118364000D03*
X169888000Y-118364000D03*
D18*
X190500000Y-71120000D03*
D19*
X190500000Y-73660000D03*
X190500000Y-76200000D03*
X190500000Y-78740000D03*
X190500000Y-81280000D03*
X190500000Y-83820000D03*
X190500000Y-86360000D03*
X190500000Y-88900000D03*
X190500000Y-91440000D03*
X190500000Y-93980000D03*
X190500000Y-96520000D03*
X190500000Y-99060000D03*
X190500000Y-101600000D03*
X190500000Y-104140000D03*
X190500000Y-106680000D03*
X190500000Y-109220000D03*
X190500000Y-111760000D03*
D18*
X152400000Y-71120000D03*
D19*
X152400000Y-73660000D03*
X152400000Y-76200000D03*
X152400000Y-78740000D03*
X152400000Y-81280000D03*
X152400000Y-83820000D03*
X152400000Y-86360000D03*
X152400000Y-88900000D03*
X152400000Y-91440000D03*
X152400000Y-93980000D03*
X152400000Y-96520000D03*
X152400000Y-99060000D03*
X152400000Y-101600000D03*
X152400000Y-104140000D03*
X152400000Y-106680000D03*
X152400000Y-109220000D03*
X152400000Y-111760000D03*
M02*
