G04 #@! TF.FileFunction,Profile,NP*
%FSLAX46Y46*%
G04 Gerber Fmt 4.6, Leading zero omitted, Abs format (unit mm)*
G04 Created by KiCad (PCBNEW 4.0.5-e0-6337~52~ubuntu16.10.1) date Tue Feb  7 00:40:12 2017*
%MOMM*%
%LPD*%
G01*
G04 APERTURE LIST*
%ADD10C,0.100000*%
%ADD11C,0.150000*%
G04 APERTURE END LIST*
D10*
D11*
X191770000Y-121920000D02*
X148590000Y-121920000D01*
X148590000Y-60960000D02*
X191770000Y-60960000D01*
X190588900Y-118046500D02*
G75*
G03X190588900Y-118046500I-1905000J0D01*
G01*
X153720800Y-118110000D02*
G75*
G03X153720800Y-118110000I-1905000J0D01*
G01*
X157480000Y-64135000D02*
G75*
G03X157480000Y-64135000I-1905000J0D01*
G01*
X186690000Y-64135000D02*
G75*
G03X186690000Y-64135000I-1905000J0D01*
G01*
X191770000Y-121920000D02*
G75*
G03X193040000Y-120650000I0J1270000D01*
G01*
X147320000Y-120650000D02*
G75*
G03X148590000Y-121920000I1270000J0D01*
G01*
X193040000Y-62230000D02*
G75*
G03X191770000Y-60960000I-1270000J0D01*
G01*
X148590000Y-60960000D02*
G75*
G03X147320000Y-62230000I0J-1270000D01*
G01*
X193040000Y-120650000D02*
X193040000Y-62230000D01*
X147320000Y-62230000D02*
X147320000Y-120650000D01*
D10*
X173355000Y-121920000D02*
X175635000Y-121920000D01*
X175635000Y-121920000D02*
X175635000Y-120421000D01*
X176016000Y-120040000D02*
G75*
G03X175635000Y-120421000I0J-381000D01*
G01*
X176016000Y-120040000D02*
X176104000Y-120040000D01*
X176485000Y-120421000D02*
G75*
G03X176104000Y-120040000I-381000J0D01*
G01*
X176485000Y-120421000D02*
X176485000Y-121920000D01*
X176485000Y-121920000D02*
X180385000Y-121920000D01*
X180385000Y-121920000D02*
X180385000Y-120421000D01*
X180766000Y-120040000D02*
G75*
G03X180385000Y-120421000I0J-381000D01*
G01*
X180766000Y-120040000D02*
X180854000Y-120040000D01*
X181235000Y-120421000D02*
G75*
G03X180854000Y-120040000I-381000J0D01*
G01*
X181235000Y-120421000D02*
X181235000Y-121920000D01*
X181235000Y-121920000D02*
X183515000Y-121920000D01*
M02*
