M48
;DRILL file {KiCad 4.0.5-e0-6337~52~ubuntu16.10.1} date Sat Feb 25 17:17:54 2017
;FORMAT={-:-/ absolute / metric / decimal}
FMAT,2
METRIC,TZ
T1C0.400
T2C1.000
%
G90
G05
M71
T1
X155.829Y-109.728
X159.131Y-100.965
X159.385Y-78.486
X159.512Y-79.629
X159.639Y-75.819
X159.639Y-77.216
X159.639Y-81.026
X161.163Y-93.98
X161.417Y-97.155
X161.417Y-99.441
X161.544Y-80.899
X162.433Y-100.711
X163.322Y-94.107
X163.449Y-97.663
X163.957Y-92.202
X164.592Y-101.219
X164.846Y-91.186
X164.973Y-69.469
X166.243Y-89.789
X166.243Y-94.615
X166.878Y-97.282
X168.021Y-95.631
X168.021Y-100.711
X169.164Y-91.948
X171.323Y-92.837
X171.323Y-100.203
X171.958Y-99.568
X172.466Y-93.472
X172.466Y-95.25
X172.466Y-97.028
X172.593Y-92.456
X172.847Y-89.154
X172.974Y-74.041
X174.244Y-103.378
X174.498Y-95.123
X175.006Y-100.965
X175.133Y-90.424
X175.133Y-102.489
X175.641Y-86.36
X176.784Y-115.252
X176.911Y-106.299
X178.308Y-98.933
X178.435Y-88.519
X178.435Y-103.505
X178.689Y-73.914
X178.816Y-97.155
X179.324Y-111.76
X179.324Y-113.03
X179.514Y-106.299
X179.578Y-101.854
X180.721Y-104.14
X182.626Y-101.854
X183.075Y-119.444
X183.515Y-109.093
X185.42Y-97.79
X186.69Y-104.267
X187.071Y-99.568
X189.103Y-101.6
T2
X152.4Y-71.12
X152.4Y-73.66
X152.4Y-76.2
X152.4Y-78.74
X152.4Y-81.28
X152.4Y-83.82
X152.4Y-86.36
X152.4Y-88.9
X152.4Y-91.44
X152.4Y-93.98
X152.4Y-96.52
X152.4Y-99.06
X152.4Y-101.6
X152.4Y-104.14
X152.4Y-106.68
X152.4Y-109.22
X152.4Y-111.76
X190.5Y-71.12
X190.5Y-73.66
X190.5Y-76.2
X190.5Y-78.74
X190.5Y-81.28
X190.5Y-83.82
X190.5Y-86.36
X190.5Y-88.9
X190.5Y-91.44
X190.5Y-93.98
X190.5Y-96.52
X190.5Y-99.06
X190.5Y-101.6
X190.5Y-104.14
X190.5Y-106.68
X190.5Y-109.22
X190.5Y-111.76
T0
M30
