M48
;DRILL file {KiCad 4.0.5-e0-6337~52~ubuntu16.10.1} date Tue Feb  7 00:38:39 2017
;FORMAT={-:-/ absolute / metric / decimal}
FMAT,2
METRIC,TZ
T1C0.400
T2C1.000
%
G90
G05
M71
T1
X151.765Y-70.485
X152.4Y-72.39
X152.4Y-74.93
X152.4Y-77.47
X152.4Y-80.01
X152.4Y-85.09
X152.4Y-87.63
X152.4Y-90.17
X152.4Y-92.71
X152.4Y-95.25
X152.4Y-97.79
X152.4Y-100.33
X159.3Y-105.48
X161.087Y-70.866
X161.29Y-100.965
X161.29Y-103.505
X162.56Y-105.41
X162.763Y-69.774
X163.83Y-97.155
X163.83Y-100.965
X164.465Y-104.775
X165.735Y-93.98
X165.735Y-99.06
X167.005Y-90.17
X167.005Y-91.44
X167.005Y-98.425
X168.275Y-96.52
X169.545Y-99.06
X171.298Y-94.463
X172.923Y-72.441
X173.774Y-93.535
X174.155Y-73.673
X174.335Y-120.47
X175.26Y-107.95
X175.26Y-113.665
X176.784Y-105.41
X177.165Y-83.82
X177.165Y-87.63
X177.165Y-110.49
X180.34Y-86.995
X182.22Y-81.915
X182.22Y-84.455
X182.22Y-88.671
X182.245Y-73.66
X182.535Y-120.47
X183.871Y-104.076
X183.972Y-110.439
X184.15Y-81.28
X185.42Y-72.39
X185.42Y-80.01
X186.69Y-71.12
X186.69Y-78.74
X187.363Y-104.191
T2
X149.86Y-68.58
X149.86Y-71.12
X149.86Y-73.66
X149.86Y-76.2
X149.86Y-78.74
X149.86Y-81.28
X149.86Y-83.82
X149.86Y-86.36
X149.86Y-88.9
X149.86Y-91.44
X149.86Y-93.98
X149.86Y-96.52
X149.86Y-99.06
X149.86Y-101.6
X149.86Y-104.14
X149.86Y-106.68
X149.86Y-109.22
X149.86Y-111.76
X190.5Y-68.58
X190.5Y-71.12
X190.5Y-73.66
X190.5Y-76.2
X190.5Y-78.74
X190.5Y-81.28
X190.5Y-83.82
X190.5Y-86.36
X190.5Y-88.9
X190.5Y-91.44
X190.5Y-93.98
X190.5Y-96.52
X190.5Y-99.06
X190.5Y-101.6
X190.5Y-104.14
X190.5Y-106.68
X190.5Y-109.22
X190.5Y-111.76
T0
M30
