G04 #@! TF.FileFunction,Soldermask,Top*
%FSLAX46Y46*%
G04 Gerber Fmt 4.6, Leading zero omitted, Abs format (unit mm)*
G04 Created by KiCad (PCBNEW 4.0.5-e0-6337~52~ubuntu16.10.1) date Tue Feb 21 00:37:24 2017*
%MOMM*%
%LPD*%
G01*
G04 APERTURE LIST*
%ADD10C,0.100000*%
%ADD11O,2.900000X1.300000*%
%ADD12O,1.300000X2.900000*%
%ADD13R,6.400000X6.400000*%
%ADD14R,1.200000X1.150000*%
%ADD15R,1.100000X1.600000*%
%ADD16R,1.400000X1.600000*%
%ADD17R,1.400000X1.200000*%
%ADD18R,1.400000X3.200000*%
%ADD19R,1.700000X2.300000*%
%ADD20R,1.300000X0.900000*%
%ADD21R,2.051000X3.448000*%
%ADD22R,6.496000X6.496000*%
%ADD23R,0.897840X0.648920*%
%ADD24R,0.650000X0.900000*%
%ADD25R,1.150000X1.200000*%
%ADD26R,1.300000X1.200000*%
%ADD27R,0.900000X1.300000*%
%ADD28R,0.800000X1.750000*%
%ADD29R,2.500000X2.400000*%
%ADD30R,2.000000X2.300000*%
%ADD31R,1.600000X2.300000*%
%ADD32R,1.200000X1.300000*%
%ADD33R,2.100000X2.100000*%
%ADD34O,2.100000X2.100000*%
G04 APERTURE END LIST*
D10*
D11*
X175751000Y-68410000D03*
X175751000Y-69680000D03*
X175751000Y-70950000D03*
X175751000Y-72220000D03*
X175751000Y-73490000D03*
X175751000Y-74760000D03*
X175751000Y-76030000D03*
X175751000Y-77300000D03*
X175751000Y-78570000D03*
X175751000Y-79840000D03*
X175751000Y-81110000D03*
X175751000Y-82380000D03*
X175751000Y-83650000D03*
X175751000Y-84920000D03*
D12*
X172466000Y-86410000D03*
X171196000Y-86410000D03*
X169926000Y-86410000D03*
X168656000Y-86410000D03*
X167386000Y-86410000D03*
X166116000Y-86410000D03*
X164846000Y-86410000D03*
X163576000Y-86410000D03*
X162306000Y-86410000D03*
X161036000Y-86410000D03*
D11*
X157751000Y-84920000D03*
X157751000Y-83650000D03*
X157751000Y-82380000D03*
X157751000Y-81110000D03*
X157751000Y-79840000D03*
X157751000Y-78570000D03*
X157751000Y-77300000D03*
X157751000Y-76030000D03*
X157751000Y-74760000D03*
X157751000Y-73490000D03*
X157751000Y-72220000D03*
X157751000Y-70950000D03*
X157751000Y-69680000D03*
X157751000Y-68410000D03*
D13*
X166451000Y-76110000D03*
D14*
X180860000Y-107950000D03*
X182360000Y-107950000D03*
X180860000Y-105410000D03*
X182360000Y-105410000D03*
X186170000Y-107950000D03*
X184670000Y-107950000D03*
X186170000Y-105410000D03*
X184670000Y-105410000D03*
D15*
X159300000Y-102686000D03*
X160250000Y-102686000D03*
X167950000Y-102686000D03*
X166850000Y-102686000D03*
X165750000Y-102686000D03*
X164650000Y-102686000D03*
X163550000Y-102686000D03*
X162450000Y-102686000D03*
X161350000Y-102686000D03*
D16*
X169500000Y-102686000D03*
X158350000Y-106986000D03*
D17*
X158350000Y-113186000D03*
D18*
X158350000Y-117336000D03*
D19*
X171850000Y-117786000D03*
D20*
X176022000Y-100977000D03*
X176022000Y-102477000D03*
D21*
X180975000Y-101854000D03*
D22*
X183261000Y-95504000D03*
D21*
X185547000Y-101854000D03*
D23*
X173476920Y-94602300D03*
X173476920Y-95102680D03*
X173476920Y-95600520D03*
X173476920Y-96100900D03*
X173476920Y-96601280D03*
X173476920Y-97101660D03*
X173476920Y-97602040D03*
X173476920Y-98102420D03*
D24*
X173977300Y-98602800D03*
X174477680Y-98602800D03*
X174975520Y-98602800D03*
X175475900Y-98602800D03*
X175976280Y-98602800D03*
X176476660Y-98602800D03*
X176977040Y-98602800D03*
X177477420Y-98602800D03*
D23*
X177977800Y-98102420D03*
X177977800Y-97602040D03*
X177977800Y-97101660D03*
X177977800Y-96601280D03*
X177977800Y-96100900D03*
X177977800Y-95600520D03*
X177977800Y-95102680D03*
X177977800Y-94602300D03*
D24*
X177477420Y-94101920D03*
X176977040Y-94101920D03*
X176476660Y-94101920D03*
X175976280Y-94101920D03*
X175475900Y-94101920D03*
X174975520Y-94101920D03*
X174477680Y-94101920D03*
X173977300Y-94101920D03*
D25*
X178435000Y-102477000D03*
X178435000Y-100977000D03*
D26*
X171307000Y-98232000D03*
X171307000Y-96332000D03*
X169307000Y-97282000D03*
X171307000Y-93787000D03*
X171307000Y-91887000D03*
X169307000Y-92837000D03*
D20*
X178435000Y-90309000D03*
X178435000Y-91809000D03*
X173863000Y-90309000D03*
X173863000Y-91809000D03*
D27*
X182233000Y-110490000D03*
X180733000Y-110490000D03*
D20*
X173736000Y-100977000D03*
X173736000Y-102477000D03*
X176149000Y-91809000D03*
X176149000Y-90309000D03*
D27*
X180733000Y-113030000D03*
X182233000Y-113030000D03*
D28*
X181132000Y-116652000D03*
X180482000Y-116652000D03*
X179832000Y-116652000D03*
X179182000Y-116652000D03*
X178532000Y-116652000D03*
D29*
X182932000Y-116977000D03*
X176732000Y-116977000D03*
D30*
X175732000Y-119327000D03*
D31*
X178982000Y-119327000D03*
X180682000Y-119327000D03*
D30*
X183932000Y-119327000D03*
D32*
X186470000Y-110490000D03*
X184370000Y-110490000D03*
D33*
X190500000Y-71120000D03*
D34*
X190500000Y-73660000D03*
X190500000Y-76200000D03*
X190500000Y-78740000D03*
X190500000Y-81280000D03*
X190500000Y-83820000D03*
X190500000Y-86360000D03*
X190500000Y-88900000D03*
X190500000Y-91440000D03*
X190500000Y-93980000D03*
X190500000Y-96520000D03*
X190500000Y-99060000D03*
X190500000Y-101600000D03*
X190500000Y-104140000D03*
X190500000Y-106680000D03*
X190500000Y-109220000D03*
X190500000Y-111760000D03*
D33*
X152400000Y-71120000D03*
D34*
X152400000Y-73660000D03*
X152400000Y-76200000D03*
X152400000Y-78740000D03*
X152400000Y-81280000D03*
X152400000Y-83820000D03*
X152400000Y-86360000D03*
X152400000Y-88900000D03*
X152400000Y-91440000D03*
X152400000Y-93980000D03*
X152400000Y-96520000D03*
X152400000Y-99060000D03*
X152400000Y-101600000D03*
X152400000Y-104140000D03*
X152400000Y-106680000D03*
X152400000Y-109220000D03*
X152400000Y-111760000D03*
M02*
