G04 #@! TF.FileFunction,Soldermask,Top*
%FSLAX46Y46*%
G04 Gerber Fmt 4.6, Leading zero omitted, Abs format (unit mm)*
G04 Created by KiCad (PCBNEW 4.0.6-e0-6349~52~ubuntu16.10.1) date Mon Mar  6 23:37:34 2017*
%MOMM*%
%LPD*%
G01*
G04 APERTURE LIST*
%ADD10C,0.100000*%
%ADD11R,0.900000X1.300000*%
%ADD12O,2.900000X1.300000*%
%ADD13O,1.300000X2.900000*%
%ADD14R,6.400000X6.400000*%
%ADD15R,1.200000X1.150000*%
%ADD16R,1.100000X1.600000*%
%ADD17R,1.400000X1.600000*%
%ADD18R,1.400000X1.200000*%
%ADD19R,1.400000X3.200000*%
%ADD20R,1.700000X2.300000*%
%ADD21R,2.051000X3.448000*%
%ADD22R,6.496000X6.496000*%
%ADD23R,1.150000X1.200000*%
%ADD24R,1.300000X1.200000*%
%ADD25R,1.300000X0.900000*%
%ADD26R,0.800000X1.750000*%
%ADD27R,2.500000X2.400000*%
%ADD28R,2.000000X2.300000*%
%ADD29R,1.600000X2.300000*%
%ADD30R,1.200000X1.300000*%
%ADD31R,2.100000X2.100000*%
%ADD32O,2.100000X2.100000*%
%ADD33R,1.100000X0.648920*%
%ADD34R,0.650000X1.100000*%
%ADD35R,1.097840X0.648920*%
G04 APERTURE END LIST*
D10*
D11*
X173684500Y-102806500D03*
X175184500Y-102806500D03*
D12*
X175751000Y-68410000D03*
X175751000Y-69680000D03*
X175751000Y-70950000D03*
X175751000Y-72220000D03*
X175751000Y-73490000D03*
X175751000Y-74760000D03*
X175751000Y-76030000D03*
X175751000Y-77300000D03*
X175751000Y-78570000D03*
X175751000Y-79840000D03*
X175751000Y-81110000D03*
X175751000Y-82380000D03*
X175751000Y-83650000D03*
X175751000Y-84920000D03*
D13*
X172466000Y-86410000D03*
X171196000Y-86410000D03*
X169926000Y-86410000D03*
X168656000Y-86410000D03*
X167386000Y-86410000D03*
X166116000Y-86410000D03*
X164846000Y-86410000D03*
X163576000Y-86410000D03*
X162306000Y-86410000D03*
X161036000Y-86410000D03*
D12*
X157751000Y-84920000D03*
X157751000Y-83650000D03*
X157751000Y-82380000D03*
X157751000Y-81110000D03*
X157751000Y-79840000D03*
X157751000Y-78570000D03*
X157751000Y-77300000D03*
X157751000Y-76030000D03*
X157751000Y-74760000D03*
X157751000Y-73490000D03*
X157751000Y-72220000D03*
X157751000Y-70950000D03*
X157751000Y-69680000D03*
X157751000Y-68410000D03*
D14*
X166451000Y-76110000D03*
D15*
X180860000Y-107950000D03*
X182360000Y-107950000D03*
X180860000Y-105410000D03*
X182360000Y-105410000D03*
X186170000Y-107950000D03*
X184670000Y-107950000D03*
X186170000Y-105410000D03*
X184670000Y-105410000D03*
D16*
X159300000Y-102686000D03*
X160250000Y-102686000D03*
X167950000Y-102686000D03*
X166850000Y-102686000D03*
X165750000Y-102686000D03*
X164650000Y-102686000D03*
X163550000Y-102686000D03*
X162450000Y-102686000D03*
X161350000Y-102686000D03*
D17*
X169500000Y-102686000D03*
X158350000Y-106986000D03*
D18*
X158350000Y-113186000D03*
D19*
X158350000Y-117336000D03*
D20*
X171850000Y-117786000D03*
D11*
X175184500Y-101219000D03*
X173684500Y-101219000D03*
D21*
X180975000Y-101854000D03*
D22*
X183261000Y-95504000D03*
D21*
X185547000Y-101854000D03*
D23*
X178435000Y-100977000D03*
X178435000Y-102477000D03*
D24*
X171307000Y-98232000D03*
X171307000Y-96332000D03*
X169307000Y-97282000D03*
X171307000Y-93787000D03*
X171307000Y-91887000D03*
X169307000Y-92837000D03*
D25*
X178435000Y-90309000D03*
X178435000Y-91809000D03*
X173863000Y-90309000D03*
X173863000Y-91809000D03*
D11*
X182233000Y-110490000D03*
X180733000Y-110490000D03*
D25*
X176149000Y-91809000D03*
X176149000Y-90309000D03*
D11*
X186106500Y-110490000D03*
X184606500Y-110490000D03*
D26*
X178846000Y-116652000D03*
X178196000Y-116652000D03*
X177546000Y-116652000D03*
X176896000Y-116652000D03*
X176246000Y-116652000D03*
D27*
X180646000Y-116977000D03*
X174446000Y-116977000D03*
D28*
X173446000Y-119327000D03*
D29*
X176696000Y-119327000D03*
X178396000Y-119327000D03*
D28*
X181646000Y-119327000D03*
D30*
X186470000Y-113030000D03*
X184370000Y-113030000D03*
D31*
X152400000Y-71120000D03*
D32*
X152400000Y-73660000D03*
X152400000Y-76200000D03*
X152400000Y-78740000D03*
X152400000Y-81280000D03*
X152400000Y-83820000D03*
X152400000Y-86360000D03*
X152400000Y-88900000D03*
X152400000Y-91440000D03*
X152400000Y-93980000D03*
X152400000Y-96520000D03*
X152400000Y-99060000D03*
X152400000Y-101600000D03*
X152400000Y-104140000D03*
X152400000Y-106680000D03*
X152400000Y-109220000D03*
X152400000Y-111760000D03*
D11*
X175184500Y-112395000D03*
X173684500Y-112395000D03*
X175184500Y-110807500D03*
X173684500Y-110807500D03*
X175184500Y-109220000D03*
X173684500Y-109220000D03*
X175184500Y-107632500D03*
X173684500Y-107632500D03*
X175184500Y-106045000D03*
X173684500Y-106045000D03*
X175184500Y-104394000D03*
X173684500Y-104394000D03*
D33*
X173376920Y-94602300D03*
X173376920Y-95102680D03*
X173376920Y-95600520D03*
X173376920Y-96100900D03*
X173376920Y-96601280D03*
X173376920Y-97101660D03*
X173376920Y-97602040D03*
X173376920Y-98102420D03*
D34*
X173977300Y-98702800D03*
X174477680Y-98702800D03*
X174975520Y-98702800D03*
X175475900Y-98702800D03*
X175976280Y-98702800D03*
X176476660Y-98702800D03*
X176977040Y-98702800D03*
X177477420Y-98702800D03*
D35*
X178077800Y-98102420D03*
X178077800Y-97602040D03*
X178077800Y-97101660D03*
X178077800Y-96601280D03*
X178077800Y-96100900D03*
X178077800Y-95600520D03*
X178077800Y-95102680D03*
X178077800Y-94602300D03*
D34*
X177477420Y-94001920D03*
X176977040Y-94001920D03*
X176476660Y-94001920D03*
X175976280Y-94001920D03*
X175475900Y-94001920D03*
X174975520Y-94001920D03*
X174477680Y-94001920D03*
X173977300Y-94001920D03*
D31*
X190500000Y-71120000D03*
D32*
X190500000Y-73660000D03*
X190500000Y-76200000D03*
X190500000Y-78740000D03*
X190500000Y-81280000D03*
X190500000Y-83820000D03*
X190500000Y-86360000D03*
X190500000Y-88900000D03*
X190500000Y-91440000D03*
X190500000Y-93980000D03*
X190500000Y-96520000D03*
X190500000Y-99060000D03*
X190500000Y-101600000D03*
X190500000Y-104140000D03*
X190500000Y-106680000D03*
X190500000Y-109220000D03*
X190500000Y-111760000D03*
X190500000Y-114300000D03*
M02*
