G04 #@! TF.FileFunction,Legend,Top*
%FSLAX46Y46*%
G04 Gerber Fmt 4.6, Leading zero omitted, Abs format (unit mm)*
G04 Created by KiCad (PCBNEW 4.0.6-e0-6349~52~ubuntu16.10.1) date Tue Mar  7 21:07:10 2017*
%MOMM*%
%LPD*%
G01*
G04 APERTURE LIST*
%ADD10C,0.100000*%
%ADD11C,0.175000*%
%ADD12C,0.500000*%
%ADD13C,0.200000*%
%ADD14C,0.150000*%
%ADD15C,0.120000*%
%ADD16C,0.010000*%
%ADD17C,0.127000*%
%ADD18C,0.063500*%
%ADD19C,0.125000*%
%ADD20R,0.900000X1.300000*%
%ADD21O,2.900000X1.300000*%
%ADD22O,1.300000X2.900000*%
%ADD23R,6.400000X6.400000*%
%ADD24R,1.200000X1.150000*%
%ADD25R,1.100000X1.600000*%
%ADD26R,1.400000X1.600000*%
%ADD27R,1.400000X1.200000*%
%ADD28R,1.400000X3.200000*%
%ADD29R,1.700000X2.300000*%
%ADD30R,2.051000X3.448000*%
%ADD31R,6.496000X6.496000*%
%ADD32R,1.150000X1.200000*%
%ADD33R,1.300000X1.200000*%
%ADD34R,1.300000X0.900000*%
%ADD35R,0.800000X1.750000*%
%ADD36R,2.500000X2.400000*%
%ADD37R,2.000000X2.300000*%
%ADD38R,1.600000X2.300000*%
%ADD39R,1.200000X1.300000*%
%ADD40R,2.100000X2.100000*%
%ADD41O,2.100000X2.100000*%
%ADD42R,1.100000X0.648920*%
%ADD43R,0.650000X1.100000*%
%ADD44R,1.097840X0.648920*%
G04 APERTURE END LIST*
D10*
D11*
X192721667Y-84000166D02*
X192388333Y-84233500D01*
X192721667Y-84400166D02*
X192021667Y-84400166D01*
X192021667Y-84133500D01*
X192055000Y-84066833D01*
X192088333Y-84033500D01*
X192155000Y-84000166D01*
X192255000Y-84000166D01*
X192321667Y-84033500D01*
X192355000Y-84066833D01*
X192388333Y-84133500D01*
X192388333Y-84400166D01*
X192021667Y-83766833D02*
X192721667Y-83300166D01*
X192021667Y-83300166D02*
X192721667Y-83766833D01*
X150878333Y-110893333D02*
X150878333Y-111326666D01*
X150611667Y-111093333D01*
X150611667Y-111193333D01*
X150578333Y-111260000D01*
X150545000Y-111293333D01*
X150478333Y-111326666D01*
X150311667Y-111326666D01*
X150245000Y-111293333D01*
X150211667Y-111260000D01*
X150178333Y-111193333D01*
X150178333Y-110993333D01*
X150211667Y-110926666D01*
X150245000Y-110893333D01*
X150878333Y-111526667D02*
X150178333Y-111760000D01*
X150878333Y-111993333D01*
X150878333Y-112160000D02*
X150878333Y-112593333D01*
X150611667Y-112360000D01*
X150611667Y-112460000D01*
X150578333Y-112526667D01*
X150545000Y-112560000D01*
X150478333Y-112593333D01*
X150311667Y-112593333D01*
X150245000Y-112560000D01*
X150211667Y-112526667D01*
X150178333Y-112460000D01*
X150178333Y-112260000D01*
X150211667Y-112193333D01*
X150245000Y-112160000D01*
X150845000Y-108686667D02*
X150878333Y-108620001D01*
X150878333Y-108520001D01*
X150845000Y-108420001D01*
X150778333Y-108353334D01*
X150711667Y-108320001D01*
X150578333Y-108286667D01*
X150478333Y-108286667D01*
X150345000Y-108320001D01*
X150278333Y-108353334D01*
X150211667Y-108420001D01*
X150178333Y-108520001D01*
X150178333Y-108586667D01*
X150211667Y-108686667D01*
X150245000Y-108720001D01*
X150478333Y-108720001D01*
X150478333Y-108586667D01*
X150178333Y-109020001D02*
X150878333Y-109020001D01*
X150178333Y-109420001D01*
X150878333Y-109420001D01*
X150178333Y-109753334D02*
X150878333Y-109753334D01*
X150878333Y-109920000D01*
X150845000Y-110020000D01*
X150778333Y-110086667D01*
X150711667Y-110120000D01*
X150578333Y-110153334D01*
X150478333Y-110153334D01*
X150345000Y-110120000D01*
X150278333Y-110086667D01*
X150211667Y-110020000D01*
X150178333Y-109920000D01*
X150178333Y-109753334D01*
X150178333Y-105830000D02*
X150878333Y-105830000D01*
X150878333Y-105996666D01*
X150845000Y-106096666D01*
X150778333Y-106163333D01*
X150711667Y-106196666D01*
X150578333Y-106230000D01*
X150478333Y-106230000D01*
X150345000Y-106196666D01*
X150278333Y-106163333D01*
X150211667Y-106096666D01*
X150178333Y-105996666D01*
X150178333Y-105830000D01*
X150178333Y-106896666D02*
X150178333Y-106496666D01*
X150178333Y-106696666D02*
X150878333Y-106696666D01*
X150778333Y-106630000D01*
X150711667Y-106563333D01*
X150678333Y-106496666D01*
X150878333Y-107130000D02*
X150878333Y-107563333D01*
X150611667Y-107330000D01*
X150611667Y-107430000D01*
X150578333Y-107496667D01*
X150545000Y-107530000D01*
X150478333Y-107563333D01*
X150311667Y-107563333D01*
X150245000Y-107530000D01*
X150211667Y-107496667D01*
X150178333Y-107430000D01*
X150178333Y-107230000D01*
X150211667Y-107163333D01*
X150245000Y-107130000D01*
X150178333Y-103290000D02*
X150878333Y-103290000D01*
X150878333Y-103456666D01*
X150845000Y-103556666D01*
X150778333Y-103623333D01*
X150711667Y-103656666D01*
X150578333Y-103690000D01*
X150478333Y-103690000D01*
X150345000Y-103656666D01*
X150278333Y-103623333D01*
X150211667Y-103556666D01*
X150178333Y-103456666D01*
X150178333Y-103290000D01*
X150178333Y-104356666D02*
X150178333Y-103956666D01*
X150178333Y-104156666D02*
X150878333Y-104156666D01*
X150778333Y-104090000D01*
X150711667Y-104023333D01*
X150678333Y-103956666D01*
X150811667Y-104623333D02*
X150845000Y-104656667D01*
X150878333Y-104723333D01*
X150878333Y-104890000D01*
X150845000Y-104956667D01*
X150811667Y-104990000D01*
X150745000Y-105023333D01*
X150678333Y-105023333D01*
X150578333Y-104990000D01*
X150178333Y-104590000D01*
X150178333Y-105023333D01*
X150178333Y-100750000D02*
X150878333Y-100750000D01*
X150878333Y-100916666D01*
X150845000Y-101016666D01*
X150778333Y-101083333D01*
X150711667Y-101116666D01*
X150578333Y-101150000D01*
X150478333Y-101150000D01*
X150345000Y-101116666D01*
X150278333Y-101083333D01*
X150211667Y-101016666D01*
X150178333Y-100916666D01*
X150178333Y-100750000D01*
X150178333Y-101816666D02*
X150178333Y-101416666D01*
X150178333Y-101616666D02*
X150878333Y-101616666D01*
X150778333Y-101550000D01*
X150711667Y-101483333D01*
X150678333Y-101416666D01*
X150645000Y-102416667D02*
X150178333Y-102416667D01*
X150911667Y-102250000D02*
X150411667Y-102083333D01*
X150411667Y-102516667D01*
X150178333Y-95670000D02*
X150878333Y-95670000D01*
X150878333Y-95836666D01*
X150845000Y-95936666D01*
X150778333Y-96003333D01*
X150711667Y-96036666D01*
X150578333Y-96070000D01*
X150478333Y-96070000D01*
X150345000Y-96036666D01*
X150278333Y-96003333D01*
X150211667Y-95936666D01*
X150178333Y-95836666D01*
X150178333Y-95670000D01*
X150811667Y-96336666D02*
X150845000Y-96370000D01*
X150878333Y-96436666D01*
X150878333Y-96603333D01*
X150845000Y-96670000D01*
X150811667Y-96703333D01*
X150745000Y-96736666D01*
X150678333Y-96736666D01*
X150578333Y-96703333D01*
X150178333Y-96303333D01*
X150178333Y-96736666D01*
X150878333Y-97336667D02*
X150878333Y-97203333D01*
X150845000Y-97136667D01*
X150811667Y-97103333D01*
X150711667Y-97036667D01*
X150578333Y-97003333D01*
X150311667Y-97003333D01*
X150245000Y-97036667D01*
X150211667Y-97070000D01*
X150178333Y-97136667D01*
X150178333Y-97270000D01*
X150211667Y-97336667D01*
X150245000Y-97370000D01*
X150311667Y-97403333D01*
X150478333Y-97403333D01*
X150545000Y-97370000D01*
X150578333Y-97336667D01*
X150611667Y-97270000D01*
X150611667Y-97136667D01*
X150578333Y-97070000D01*
X150545000Y-97036667D01*
X150478333Y-97003333D01*
X150178333Y-93130000D02*
X150878333Y-93130000D01*
X150878333Y-93296666D01*
X150845000Y-93396666D01*
X150778333Y-93463333D01*
X150711667Y-93496666D01*
X150578333Y-93530000D01*
X150478333Y-93530000D01*
X150345000Y-93496666D01*
X150278333Y-93463333D01*
X150211667Y-93396666D01*
X150178333Y-93296666D01*
X150178333Y-93130000D01*
X150811667Y-93796666D02*
X150845000Y-93830000D01*
X150878333Y-93896666D01*
X150878333Y-94063333D01*
X150845000Y-94130000D01*
X150811667Y-94163333D01*
X150745000Y-94196666D01*
X150678333Y-94196666D01*
X150578333Y-94163333D01*
X150178333Y-93763333D01*
X150178333Y-94196666D01*
X150878333Y-94830000D02*
X150878333Y-94496667D01*
X150545000Y-94463333D01*
X150578333Y-94496667D01*
X150611667Y-94563333D01*
X150611667Y-94730000D01*
X150578333Y-94796667D01*
X150545000Y-94830000D01*
X150478333Y-94863333D01*
X150311667Y-94863333D01*
X150245000Y-94830000D01*
X150211667Y-94796667D01*
X150178333Y-94730000D01*
X150178333Y-94563333D01*
X150211667Y-94496667D01*
X150245000Y-94463333D01*
X150178333Y-90590000D02*
X150878333Y-90590000D01*
X150878333Y-90756666D01*
X150845000Y-90856666D01*
X150778333Y-90923333D01*
X150711667Y-90956666D01*
X150578333Y-90990000D01*
X150478333Y-90990000D01*
X150345000Y-90956666D01*
X150278333Y-90923333D01*
X150211667Y-90856666D01*
X150178333Y-90756666D01*
X150178333Y-90590000D01*
X150878333Y-91223333D02*
X150878333Y-91656666D01*
X150611667Y-91423333D01*
X150611667Y-91523333D01*
X150578333Y-91590000D01*
X150545000Y-91623333D01*
X150478333Y-91656666D01*
X150311667Y-91656666D01*
X150245000Y-91623333D01*
X150211667Y-91590000D01*
X150178333Y-91523333D01*
X150178333Y-91323333D01*
X150211667Y-91256666D01*
X150245000Y-91223333D01*
X150878333Y-91890000D02*
X150878333Y-92323333D01*
X150611667Y-92090000D01*
X150611667Y-92190000D01*
X150578333Y-92256667D01*
X150545000Y-92290000D01*
X150478333Y-92323333D01*
X150311667Y-92323333D01*
X150245000Y-92290000D01*
X150211667Y-92256667D01*
X150178333Y-92190000D01*
X150178333Y-91990000D01*
X150211667Y-91923333D01*
X150245000Y-91890000D01*
X150178333Y-88050000D02*
X150878333Y-88050000D01*
X150878333Y-88216666D01*
X150845000Y-88316666D01*
X150778333Y-88383333D01*
X150711667Y-88416666D01*
X150578333Y-88450000D01*
X150478333Y-88450000D01*
X150345000Y-88416666D01*
X150278333Y-88383333D01*
X150211667Y-88316666D01*
X150178333Y-88216666D01*
X150178333Y-88050000D01*
X150878333Y-88683333D02*
X150878333Y-89116666D01*
X150611667Y-88883333D01*
X150611667Y-88983333D01*
X150578333Y-89050000D01*
X150545000Y-89083333D01*
X150478333Y-89116666D01*
X150311667Y-89116666D01*
X150245000Y-89083333D01*
X150211667Y-89050000D01*
X150178333Y-88983333D01*
X150178333Y-88783333D01*
X150211667Y-88716666D01*
X150245000Y-88683333D01*
X150811667Y-89383333D02*
X150845000Y-89416667D01*
X150878333Y-89483333D01*
X150878333Y-89650000D01*
X150845000Y-89716667D01*
X150811667Y-89750000D01*
X150745000Y-89783333D01*
X150678333Y-89783333D01*
X150578333Y-89750000D01*
X150178333Y-89350000D01*
X150178333Y-89783333D01*
X150178333Y-85510000D02*
X150878333Y-85510000D01*
X150878333Y-85676666D01*
X150845000Y-85776666D01*
X150778333Y-85843333D01*
X150711667Y-85876666D01*
X150578333Y-85910000D01*
X150478333Y-85910000D01*
X150345000Y-85876666D01*
X150278333Y-85843333D01*
X150211667Y-85776666D01*
X150178333Y-85676666D01*
X150178333Y-85510000D01*
X150878333Y-86143333D02*
X150878333Y-86576666D01*
X150611667Y-86343333D01*
X150611667Y-86443333D01*
X150578333Y-86510000D01*
X150545000Y-86543333D01*
X150478333Y-86576666D01*
X150311667Y-86576666D01*
X150245000Y-86543333D01*
X150211667Y-86510000D01*
X150178333Y-86443333D01*
X150178333Y-86243333D01*
X150211667Y-86176666D01*
X150245000Y-86143333D01*
X150878333Y-87210000D02*
X150878333Y-86876667D01*
X150545000Y-86843333D01*
X150578333Y-86876667D01*
X150611667Y-86943333D01*
X150611667Y-87110000D01*
X150578333Y-87176667D01*
X150545000Y-87210000D01*
X150478333Y-87243333D01*
X150311667Y-87243333D01*
X150245000Y-87210000D01*
X150211667Y-87176667D01*
X150178333Y-87110000D01*
X150178333Y-86943333D01*
X150211667Y-86876667D01*
X150245000Y-86843333D01*
X150178333Y-82970000D02*
X150878333Y-82970000D01*
X150878333Y-83136666D01*
X150845000Y-83236666D01*
X150778333Y-83303333D01*
X150711667Y-83336666D01*
X150578333Y-83370000D01*
X150478333Y-83370000D01*
X150345000Y-83336666D01*
X150278333Y-83303333D01*
X150211667Y-83236666D01*
X150178333Y-83136666D01*
X150178333Y-82970000D01*
X150878333Y-83603333D02*
X150878333Y-84036666D01*
X150611667Y-83803333D01*
X150611667Y-83903333D01*
X150578333Y-83970000D01*
X150545000Y-84003333D01*
X150478333Y-84036666D01*
X150311667Y-84036666D01*
X150245000Y-84003333D01*
X150211667Y-83970000D01*
X150178333Y-83903333D01*
X150178333Y-83703333D01*
X150211667Y-83636666D01*
X150245000Y-83603333D01*
X150645000Y-84636667D02*
X150178333Y-84636667D01*
X150911667Y-84470000D02*
X150411667Y-84303333D01*
X150411667Y-84736667D01*
X150211667Y-80413333D02*
X150178333Y-80513333D01*
X150178333Y-80680000D01*
X150211667Y-80746667D01*
X150245000Y-80780000D01*
X150311667Y-80813333D01*
X150378333Y-80813333D01*
X150445000Y-80780000D01*
X150478333Y-80746667D01*
X150511667Y-80680000D01*
X150545000Y-80546667D01*
X150578333Y-80480000D01*
X150611667Y-80446667D01*
X150678333Y-80413333D01*
X150745000Y-80413333D01*
X150811667Y-80446667D01*
X150845000Y-80480000D01*
X150878333Y-80546667D01*
X150878333Y-80713333D01*
X150845000Y-80813333D01*
X150878333Y-81013334D02*
X150178333Y-81246667D01*
X150878333Y-81480000D01*
X150178333Y-81713334D02*
X150878333Y-81713334D01*
X150178333Y-82113334D01*
X150878333Y-82113334D01*
X150211667Y-77890000D02*
X150178333Y-77990000D01*
X150178333Y-78156667D01*
X150211667Y-78223334D01*
X150245000Y-78256667D01*
X150311667Y-78290000D01*
X150378333Y-78290000D01*
X150445000Y-78256667D01*
X150478333Y-78223334D01*
X150511667Y-78156667D01*
X150545000Y-78023334D01*
X150578333Y-77956667D01*
X150611667Y-77923334D01*
X150678333Y-77890000D01*
X150745000Y-77890000D01*
X150811667Y-77923334D01*
X150845000Y-77956667D01*
X150878333Y-78023334D01*
X150878333Y-78190000D01*
X150845000Y-78290000D01*
X150878333Y-78490001D02*
X150178333Y-78723334D01*
X150878333Y-78956667D01*
X150178333Y-79190001D02*
X150878333Y-79190001D01*
X150878333Y-79456667D01*
X150845000Y-79523334D01*
X150811667Y-79556667D01*
X150745000Y-79590001D01*
X150645000Y-79590001D01*
X150578333Y-79556667D01*
X150545000Y-79523334D01*
X150511667Y-79456667D01*
X150511667Y-79190001D01*
X150545000Y-75683334D02*
X150545000Y-75916667D01*
X150178333Y-76016667D02*
X150178333Y-75683334D01*
X150878333Y-75683334D01*
X150878333Y-76016667D01*
X150178333Y-76316667D02*
X150878333Y-76316667D01*
X150178333Y-76716667D01*
X150878333Y-76716667D01*
X150878333Y-72793333D02*
X150878333Y-73226666D01*
X150611667Y-72993333D01*
X150611667Y-73093333D01*
X150578333Y-73160000D01*
X150545000Y-73193333D01*
X150478333Y-73226666D01*
X150311667Y-73226666D01*
X150245000Y-73193333D01*
X150211667Y-73160000D01*
X150178333Y-73093333D01*
X150178333Y-72893333D01*
X150211667Y-72826666D01*
X150245000Y-72793333D01*
X150878333Y-73426667D02*
X150178333Y-73660000D01*
X150878333Y-73893333D01*
X150878333Y-74060000D02*
X150878333Y-74493333D01*
X150611667Y-74260000D01*
X150611667Y-74360000D01*
X150578333Y-74426667D01*
X150545000Y-74460000D01*
X150478333Y-74493333D01*
X150311667Y-74493333D01*
X150245000Y-74460000D01*
X150211667Y-74426667D01*
X150178333Y-74360000D01*
X150178333Y-74160000D01*
X150211667Y-74093333D01*
X150245000Y-74060000D01*
X150845000Y-70586667D02*
X150878333Y-70520001D01*
X150878333Y-70420001D01*
X150845000Y-70320001D01*
X150778333Y-70253334D01*
X150711667Y-70220001D01*
X150578333Y-70186667D01*
X150478333Y-70186667D01*
X150345000Y-70220001D01*
X150278333Y-70253334D01*
X150211667Y-70320001D01*
X150178333Y-70420001D01*
X150178333Y-70486667D01*
X150211667Y-70586667D01*
X150245000Y-70620001D01*
X150478333Y-70620001D01*
X150478333Y-70486667D01*
X150178333Y-70920001D02*
X150878333Y-70920001D01*
X150178333Y-71320001D01*
X150878333Y-71320001D01*
X150178333Y-71653334D02*
X150878333Y-71653334D01*
X150878333Y-71820000D01*
X150845000Y-71920000D01*
X150778333Y-71986667D01*
X150711667Y-72020000D01*
X150578333Y-72053334D01*
X150478333Y-72053334D01*
X150345000Y-72020000D01*
X150278333Y-71986667D01*
X150211667Y-71920000D01*
X150178333Y-71820000D01*
X150178333Y-71653334D01*
X192021667Y-115233333D02*
X192721667Y-115000000D01*
X192021667Y-114766667D01*
X192655000Y-114133333D02*
X192688333Y-114166667D01*
X192721667Y-114266667D01*
X192721667Y-114333333D01*
X192688333Y-114433333D01*
X192621667Y-114500000D01*
X192555000Y-114533333D01*
X192421667Y-114566667D01*
X192321667Y-114566667D01*
X192188333Y-114533333D01*
X192121667Y-114500000D01*
X192055000Y-114433333D01*
X192021667Y-114333333D01*
X192021667Y-114266667D01*
X192055000Y-114166667D01*
X192088333Y-114133333D01*
X192655000Y-113433333D02*
X192688333Y-113466667D01*
X192721667Y-113566667D01*
X192721667Y-113633333D01*
X192688333Y-113733333D01*
X192621667Y-113800000D01*
X192555000Y-113833333D01*
X192421667Y-113866667D01*
X192321667Y-113866667D01*
X192188333Y-113833333D01*
X192121667Y-113800000D01*
X192055000Y-113733333D01*
X192021667Y-113633333D01*
X192021667Y-113566667D01*
X192055000Y-113466667D01*
X192088333Y-113433333D01*
X192021667Y-112626667D02*
X192021667Y-112193334D01*
X192288333Y-112426667D01*
X192288333Y-112326667D01*
X192321667Y-112260000D01*
X192355000Y-112226667D01*
X192421667Y-112193334D01*
X192588333Y-112193334D01*
X192655000Y-112226667D01*
X192688333Y-112260000D01*
X192721667Y-112326667D01*
X192721667Y-112526667D01*
X192688333Y-112593334D01*
X192655000Y-112626667D01*
X192021667Y-111993333D02*
X192721667Y-111760000D01*
X192021667Y-111526667D01*
X192021667Y-111360000D02*
X192021667Y-110926667D01*
X192288333Y-111160000D01*
X192288333Y-111060000D01*
X192321667Y-110993333D01*
X192355000Y-110960000D01*
X192421667Y-110926667D01*
X192588333Y-110926667D01*
X192655000Y-110960000D01*
X192688333Y-110993333D01*
X192721667Y-111060000D01*
X192721667Y-111260000D01*
X192688333Y-111326667D01*
X192655000Y-111360000D01*
X192055000Y-109753333D02*
X192021667Y-109819999D01*
X192021667Y-109919999D01*
X192055000Y-110019999D01*
X192121667Y-110086666D01*
X192188333Y-110119999D01*
X192321667Y-110153333D01*
X192421667Y-110153333D01*
X192555000Y-110119999D01*
X192621667Y-110086666D01*
X192688333Y-110019999D01*
X192721667Y-109919999D01*
X192721667Y-109853333D01*
X192688333Y-109753333D01*
X192655000Y-109719999D01*
X192421667Y-109719999D01*
X192421667Y-109853333D01*
X192721667Y-109419999D02*
X192021667Y-109419999D01*
X192721667Y-109019999D01*
X192021667Y-109019999D01*
X192721667Y-108686666D02*
X192021667Y-108686666D01*
X192021667Y-108520000D01*
X192055000Y-108420000D01*
X192121667Y-108353333D01*
X192188333Y-108320000D01*
X192321667Y-108286666D01*
X192421667Y-108286666D01*
X192555000Y-108320000D01*
X192621667Y-108353333D01*
X192688333Y-108420000D01*
X192721667Y-108520000D01*
X192721667Y-108686666D01*
X192021667Y-81749833D02*
X192021667Y-81349833D01*
X192721667Y-81549833D02*
X192021667Y-81549833D01*
X192021667Y-81183167D02*
X192721667Y-80716500D01*
X192021667Y-80716500D02*
X192721667Y-81183167D01*
X192721667Y-107530000D02*
X192021667Y-107530000D01*
X192021667Y-107363334D01*
X192055000Y-107263334D01*
X192121667Y-107196667D01*
X192188333Y-107163334D01*
X192321667Y-107130000D01*
X192421667Y-107130000D01*
X192555000Y-107163334D01*
X192621667Y-107196667D01*
X192688333Y-107263334D01*
X192721667Y-107363334D01*
X192721667Y-107530000D01*
X192721667Y-106463334D02*
X192721667Y-106863334D01*
X192721667Y-106663334D02*
X192021667Y-106663334D01*
X192121667Y-106730000D01*
X192188333Y-106796667D01*
X192221667Y-106863334D01*
X192021667Y-105830000D02*
X192021667Y-106163333D01*
X192355000Y-106196667D01*
X192321667Y-106163333D01*
X192288333Y-106096667D01*
X192288333Y-105930000D01*
X192321667Y-105863333D01*
X192355000Y-105830000D01*
X192421667Y-105796667D01*
X192588333Y-105796667D01*
X192655000Y-105830000D01*
X192688333Y-105863333D01*
X192721667Y-105930000D01*
X192721667Y-106096667D01*
X192688333Y-106163333D01*
X192655000Y-106196667D01*
X192721667Y-104990000D02*
X192021667Y-104990000D01*
X192021667Y-104823334D01*
X192055000Y-104723334D01*
X192121667Y-104656667D01*
X192188333Y-104623334D01*
X192321667Y-104590000D01*
X192421667Y-104590000D01*
X192555000Y-104623334D01*
X192621667Y-104656667D01*
X192688333Y-104723334D01*
X192721667Y-104823334D01*
X192721667Y-104990000D01*
X192021667Y-104156667D02*
X192021667Y-104090000D01*
X192055000Y-104023334D01*
X192088333Y-103990000D01*
X192155000Y-103956667D01*
X192288333Y-103923334D01*
X192455000Y-103923334D01*
X192588333Y-103956667D01*
X192655000Y-103990000D01*
X192688333Y-104023334D01*
X192721667Y-104090000D01*
X192721667Y-104156667D01*
X192688333Y-104223334D01*
X192655000Y-104256667D01*
X192588333Y-104290000D01*
X192455000Y-104323334D01*
X192288333Y-104323334D01*
X192155000Y-104290000D01*
X192088333Y-104256667D01*
X192055000Y-104223334D01*
X192021667Y-104156667D01*
X192088333Y-103656667D02*
X192055000Y-103623333D01*
X192021667Y-103556667D01*
X192021667Y-103390000D01*
X192055000Y-103323333D01*
X192088333Y-103290000D01*
X192155000Y-103256667D01*
X192221667Y-103256667D01*
X192321667Y-103290000D01*
X192721667Y-103690000D01*
X192721667Y-103256667D01*
X192721667Y-102450000D02*
X192021667Y-102450000D01*
X192021667Y-102283334D01*
X192055000Y-102183334D01*
X192121667Y-102116667D01*
X192188333Y-102083334D01*
X192321667Y-102050000D01*
X192421667Y-102050000D01*
X192555000Y-102083334D01*
X192621667Y-102116667D01*
X192688333Y-102183334D01*
X192721667Y-102283334D01*
X192721667Y-102450000D01*
X192021667Y-101616667D02*
X192021667Y-101550000D01*
X192055000Y-101483334D01*
X192088333Y-101450000D01*
X192155000Y-101416667D01*
X192288333Y-101383334D01*
X192455000Y-101383334D01*
X192588333Y-101416667D01*
X192655000Y-101450000D01*
X192688333Y-101483334D01*
X192721667Y-101550000D01*
X192721667Y-101616667D01*
X192688333Y-101683334D01*
X192655000Y-101716667D01*
X192588333Y-101750000D01*
X192455000Y-101783334D01*
X192288333Y-101783334D01*
X192155000Y-101750000D01*
X192088333Y-101716667D01*
X192055000Y-101683334D01*
X192021667Y-101616667D01*
X192255000Y-100783333D02*
X192721667Y-100783333D01*
X191988333Y-100950000D02*
X192488333Y-101116667D01*
X192488333Y-100683333D01*
X192721667Y-99910000D02*
X192021667Y-99910000D01*
X192021667Y-99743334D01*
X192055000Y-99643334D01*
X192121667Y-99576667D01*
X192188333Y-99543334D01*
X192321667Y-99510000D01*
X192421667Y-99510000D01*
X192555000Y-99543334D01*
X192621667Y-99576667D01*
X192688333Y-99643334D01*
X192721667Y-99743334D01*
X192721667Y-99910000D01*
X192721667Y-98843334D02*
X192721667Y-99243334D01*
X192721667Y-99043334D02*
X192021667Y-99043334D01*
X192121667Y-99110000D01*
X192188333Y-99176667D01*
X192221667Y-99243334D01*
X192021667Y-98243333D02*
X192021667Y-98376667D01*
X192055000Y-98443333D01*
X192088333Y-98476667D01*
X192188333Y-98543333D01*
X192321667Y-98576667D01*
X192588333Y-98576667D01*
X192655000Y-98543333D01*
X192688333Y-98510000D01*
X192721667Y-98443333D01*
X192721667Y-98310000D01*
X192688333Y-98243333D01*
X192655000Y-98210000D01*
X192588333Y-98176667D01*
X192421667Y-98176667D01*
X192355000Y-98210000D01*
X192321667Y-98243333D01*
X192288333Y-98310000D01*
X192288333Y-98443333D01*
X192321667Y-98510000D01*
X192355000Y-98543333D01*
X192421667Y-98576667D01*
X192721667Y-97370000D02*
X192021667Y-97370000D01*
X192021667Y-97203334D01*
X192055000Y-97103334D01*
X192121667Y-97036667D01*
X192188333Y-97003334D01*
X192321667Y-96970000D01*
X192421667Y-96970000D01*
X192555000Y-97003334D01*
X192621667Y-97036667D01*
X192688333Y-97103334D01*
X192721667Y-97203334D01*
X192721667Y-97370000D01*
X192721667Y-96303334D02*
X192721667Y-96703334D01*
X192721667Y-96503334D02*
X192021667Y-96503334D01*
X192121667Y-96570000D01*
X192188333Y-96636667D01*
X192221667Y-96703334D01*
X192021667Y-96070000D02*
X192021667Y-95603333D01*
X192721667Y-95903333D01*
X192721667Y-94830000D02*
X192021667Y-94830000D01*
X192021667Y-94663334D01*
X192055000Y-94563334D01*
X192121667Y-94496667D01*
X192188333Y-94463334D01*
X192321667Y-94430000D01*
X192421667Y-94430000D01*
X192555000Y-94463334D01*
X192621667Y-94496667D01*
X192688333Y-94563334D01*
X192721667Y-94663334D01*
X192721667Y-94830000D01*
X192021667Y-93996667D02*
X192021667Y-93930000D01*
X192055000Y-93863334D01*
X192088333Y-93830000D01*
X192155000Y-93796667D01*
X192288333Y-93763334D01*
X192455000Y-93763334D01*
X192588333Y-93796667D01*
X192655000Y-93830000D01*
X192688333Y-93863334D01*
X192721667Y-93930000D01*
X192721667Y-93996667D01*
X192688333Y-94063334D01*
X192655000Y-94096667D01*
X192588333Y-94130000D01*
X192455000Y-94163334D01*
X192288333Y-94163334D01*
X192155000Y-94130000D01*
X192088333Y-94096667D01*
X192055000Y-94063334D01*
X192021667Y-93996667D01*
X192021667Y-93130000D02*
X192021667Y-93463333D01*
X192355000Y-93496667D01*
X192321667Y-93463333D01*
X192288333Y-93396667D01*
X192288333Y-93230000D01*
X192321667Y-93163333D01*
X192355000Y-93130000D01*
X192421667Y-93096667D01*
X192588333Y-93096667D01*
X192655000Y-93130000D01*
X192688333Y-93163333D01*
X192721667Y-93230000D01*
X192721667Y-93396667D01*
X192688333Y-93463333D01*
X192655000Y-93496667D01*
X192721667Y-92290000D02*
X192021667Y-92290000D01*
X192021667Y-92123334D01*
X192055000Y-92023334D01*
X192121667Y-91956667D01*
X192188333Y-91923334D01*
X192321667Y-91890000D01*
X192421667Y-91890000D01*
X192555000Y-91923334D01*
X192621667Y-91956667D01*
X192688333Y-92023334D01*
X192721667Y-92123334D01*
X192721667Y-92290000D01*
X192721667Y-91223334D02*
X192721667Y-91623334D01*
X192721667Y-91423334D02*
X192021667Y-91423334D01*
X192121667Y-91490000D01*
X192188333Y-91556667D01*
X192221667Y-91623334D01*
X192321667Y-90823333D02*
X192288333Y-90890000D01*
X192255000Y-90923333D01*
X192188333Y-90956667D01*
X192155000Y-90956667D01*
X192088333Y-90923333D01*
X192055000Y-90890000D01*
X192021667Y-90823333D01*
X192021667Y-90690000D01*
X192055000Y-90623333D01*
X192088333Y-90590000D01*
X192155000Y-90556667D01*
X192188333Y-90556667D01*
X192255000Y-90590000D01*
X192288333Y-90623333D01*
X192321667Y-90690000D01*
X192321667Y-90823333D01*
X192355000Y-90890000D01*
X192388333Y-90923333D01*
X192455000Y-90956667D01*
X192588333Y-90956667D01*
X192655000Y-90923333D01*
X192688333Y-90890000D01*
X192721667Y-90823333D01*
X192721667Y-90690000D01*
X192688333Y-90623333D01*
X192655000Y-90590000D01*
X192588333Y-90556667D01*
X192455000Y-90556667D01*
X192388333Y-90590000D01*
X192355000Y-90623333D01*
X192321667Y-90690000D01*
X192721667Y-89750000D02*
X192021667Y-89750000D01*
X192021667Y-89583334D01*
X192055000Y-89483334D01*
X192121667Y-89416667D01*
X192188333Y-89383334D01*
X192321667Y-89350000D01*
X192421667Y-89350000D01*
X192555000Y-89383334D01*
X192621667Y-89416667D01*
X192688333Y-89483334D01*
X192721667Y-89583334D01*
X192721667Y-89750000D01*
X192721667Y-88683334D02*
X192721667Y-89083334D01*
X192721667Y-88883334D02*
X192021667Y-88883334D01*
X192121667Y-88950000D01*
X192188333Y-89016667D01*
X192221667Y-89083334D01*
X192721667Y-88350000D02*
X192721667Y-88216667D01*
X192688333Y-88150000D01*
X192655000Y-88116667D01*
X192555000Y-88050000D01*
X192421667Y-88016667D01*
X192155000Y-88016667D01*
X192088333Y-88050000D01*
X192055000Y-88083333D01*
X192021667Y-88150000D01*
X192021667Y-88283333D01*
X192055000Y-88350000D01*
X192088333Y-88383333D01*
X192155000Y-88416667D01*
X192321667Y-88416667D01*
X192388333Y-88383333D01*
X192421667Y-88350000D01*
X192455000Y-88283333D01*
X192455000Y-88150000D01*
X192421667Y-88083333D01*
X192388333Y-88050000D01*
X192321667Y-88016667D01*
X192721667Y-87210000D02*
X192021667Y-87210000D01*
X192021667Y-87043334D01*
X192055000Y-86943334D01*
X192121667Y-86876667D01*
X192188333Y-86843334D01*
X192321667Y-86810000D01*
X192421667Y-86810000D01*
X192555000Y-86843334D01*
X192621667Y-86876667D01*
X192688333Y-86943334D01*
X192721667Y-87043334D01*
X192721667Y-87210000D01*
X192088333Y-86543334D02*
X192055000Y-86510000D01*
X192021667Y-86443334D01*
X192021667Y-86276667D01*
X192055000Y-86210000D01*
X192088333Y-86176667D01*
X192155000Y-86143334D01*
X192221667Y-86143334D01*
X192321667Y-86176667D01*
X192721667Y-86576667D01*
X192721667Y-86143334D01*
X192721667Y-85476667D02*
X192721667Y-85876667D01*
X192721667Y-85676667D02*
X192021667Y-85676667D01*
X192121667Y-85743333D01*
X192188333Y-85810000D01*
X192221667Y-85876667D01*
X192721667Y-79590000D02*
X192021667Y-79590000D01*
X192021667Y-79423334D01*
X192055000Y-79323334D01*
X192121667Y-79256667D01*
X192188333Y-79223334D01*
X192321667Y-79190000D01*
X192421667Y-79190000D01*
X192555000Y-79223334D01*
X192621667Y-79256667D01*
X192688333Y-79323334D01*
X192721667Y-79423334D01*
X192721667Y-79590000D01*
X192088333Y-78923334D02*
X192055000Y-78890000D01*
X192021667Y-78823334D01*
X192021667Y-78656667D01*
X192055000Y-78590000D01*
X192088333Y-78556667D01*
X192155000Y-78523334D01*
X192221667Y-78523334D01*
X192321667Y-78556667D01*
X192721667Y-78956667D01*
X192721667Y-78523334D01*
X192088333Y-78256667D02*
X192055000Y-78223333D01*
X192021667Y-78156667D01*
X192021667Y-77990000D01*
X192055000Y-77923333D01*
X192088333Y-77890000D01*
X192155000Y-77856667D01*
X192221667Y-77856667D01*
X192321667Y-77890000D01*
X192721667Y-78290000D01*
X192721667Y-77856667D01*
X192721667Y-77050000D02*
X192021667Y-77050000D01*
X192021667Y-76883334D01*
X192055000Y-76783334D01*
X192121667Y-76716667D01*
X192188333Y-76683334D01*
X192321667Y-76650000D01*
X192421667Y-76650000D01*
X192555000Y-76683334D01*
X192621667Y-76716667D01*
X192688333Y-76783334D01*
X192721667Y-76883334D01*
X192721667Y-77050000D01*
X192088333Y-76383334D02*
X192055000Y-76350000D01*
X192021667Y-76283334D01*
X192021667Y-76116667D01*
X192055000Y-76050000D01*
X192088333Y-76016667D01*
X192155000Y-75983334D01*
X192221667Y-75983334D01*
X192321667Y-76016667D01*
X192721667Y-76416667D01*
X192721667Y-75983334D01*
X192021667Y-75750000D02*
X192021667Y-75316667D01*
X192288333Y-75550000D01*
X192288333Y-75450000D01*
X192321667Y-75383333D01*
X192355000Y-75350000D01*
X192421667Y-75316667D01*
X192588333Y-75316667D01*
X192655000Y-75350000D01*
X192688333Y-75383333D01*
X192721667Y-75450000D01*
X192721667Y-75650000D01*
X192688333Y-75716667D01*
X192655000Y-75750000D01*
X192021667Y-74526667D02*
X192021667Y-74093334D01*
X192288333Y-74326667D01*
X192288333Y-74226667D01*
X192321667Y-74160000D01*
X192355000Y-74126667D01*
X192421667Y-74093334D01*
X192588333Y-74093334D01*
X192655000Y-74126667D01*
X192688333Y-74160000D01*
X192721667Y-74226667D01*
X192721667Y-74426667D01*
X192688333Y-74493334D01*
X192655000Y-74526667D01*
X192021667Y-73893333D02*
X192721667Y-73660000D01*
X192021667Y-73426667D01*
X192021667Y-73260000D02*
X192021667Y-72826667D01*
X192288333Y-73060000D01*
X192288333Y-72960000D01*
X192321667Y-72893333D01*
X192355000Y-72860000D01*
X192421667Y-72826667D01*
X192588333Y-72826667D01*
X192655000Y-72860000D01*
X192688333Y-72893333D01*
X192721667Y-72960000D01*
X192721667Y-73160000D01*
X192688333Y-73226667D01*
X192655000Y-73260000D01*
X192055000Y-71653333D02*
X192021667Y-71719999D01*
X192021667Y-71819999D01*
X192055000Y-71919999D01*
X192121667Y-71986666D01*
X192188333Y-72019999D01*
X192321667Y-72053333D01*
X192421667Y-72053333D01*
X192555000Y-72019999D01*
X192621667Y-71986666D01*
X192688333Y-71919999D01*
X192721667Y-71819999D01*
X192721667Y-71753333D01*
X192688333Y-71653333D01*
X192655000Y-71619999D01*
X192421667Y-71619999D01*
X192421667Y-71753333D01*
X192721667Y-71319999D02*
X192021667Y-71319999D01*
X192721667Y-70919999D01*
X192021667Y-70919999D01*
X192721667Y-70586666D02*
X192021667Y-70586666D01*
X192021667Y-70420000D01*
X192055000Y-70320000D01*
X192121667Y-70253333D01*
X192188333Y-70220000D01*
X192321667Y-70186666D01*
X192421667Y-70186666D01*
X192555000Y-70220000D01*
X192621667Y-70253333D01*
X192688333Y-70320000D01*
X192721667Y-70420000D01*
X192721667Y-70586666D01*
D12*
X179490714Y-87533571D02*
X179490714Y-86533571D01*
X181062143Y-86105000D02*
X181062143Y-87533571D01*
X178062143Y-87533571D01*
X178062143Y-86105000D01*
X180919286Y-84962142D02*
X181062143Y-84533571D01*
X181062143Y-83819285D01*
X180919286Y-83533571D01*
X180776429Y-83390714D01*
X180490714Y-83247857D01*
X180205000Y-83247857D01*
X179919286Y-83390714D01*
X179776429Y-83533571D01*
X179633571Y-83819285D01*
X179490714Y-84390714D01*
X179347857Y-84676428D01*
X179205000Y-84819285D01*
X178919286Y-84962142D01*
X178633571Y-84962142D01*
X178347857Y-84819285D01*
X178205000Y-84676428D01*
X178062143Y-84390714D01*
X178062143Y-83676428D01*
X178205000Y-83247857D01*
X181062143Y-81962142D02*
X178062143Y-81962142D01*
X178062143Y-80819285D01*
X178205000Y-80533571D01*
X178347857Y-80390714D01*
X178633571Y-80247857D01*
X179062143Y-80247857D01*
X179347857Y-80390714D01*
X179490714Y-80533571D01*
X179633571Y-80819285D01*
X179633571Y-81962142D01*
X178062143Y-79247857D02*
X178062143Y-77390714D01*
X179205000Y-78390714D01*
X179205000Y-77962142D01*
X179347857Y-77676428D01*
X179490714Y-77533571D01*
X179776429Y-77390714D01*
X180490714Y-77390714D01*
X180776429Y-77533571D01*
X180919286Y-77676428D01*
X181062143Y-77962142D01*
X181062143Y-78819285D01*
X180919286Y-79104999D01*
X180776429Y-79247857D01*
X178347857Y-76247856D02*
X178205000Y-76104999D01*
X178062143Y-75819285D01*
X178062143Y-75104999D01*
X178205000Y-74819285D01*
X178347857Y-74676428D01*
X178633571Y-74533571D01*
X178919286Y-74533571D01*
X179347857Y-74676428D01*
X181062143Y-76390714D01*
X181062143Y-74533571D01*
X179490714Y-72247856D02*
X179633571Y-71819285D01*
X179776429Y-71676428D01*
X180062143Y-71533571D01*
X180490714Y-71533571D01*
X180776429Y-71676428D01*
X180919286Y-71819285D01*
X181062143Y-72104999D01*
X181062143Y-73247856D01*
X178062143Y-73247856D01*
X178062143Y-72247856D01*
X178205000Y-71962142D01*
X178347857Y-71819285D01*
X178633571Y-71676428D01*
X178919286Y-71676428D01*
X179205000Y-71819285D01*
X179347857Y-71962142D01*
X179490714Y-72247856D01*
X179490714Y-73247856D01*
X179490714Y-69247856D02*
X179633571Y-68819285D01*
X179776429Y-68676428D01*
X180062143Y-68533571D01*
X180490714Y-68533571D01*
X180776429Y-68676428D01*
X180919286Y-68819285D01*
X181062143Y-69104999D01*
X181062143Y-70247856D01*
X178062143Y-70247856D01*
X178062143Y-69247856D01*
X178205000Y-68962142D01*
X178347857Y-68819285D01*
X178633571Y-68676428D01*
X178919286Y-68676428D01*
X179205000Y-68819285D01*
X179347857Y-68962142D01*
X179490714Y-69247856D01*
X179490714Y-70247856D01*
D13*
X183078381Y-73191428D02*
X182602190Y-73524762D01*
X183078381Y-73762857D02*
X182078381Y-73762857D01*
X182078381Y-73381904D01*
X182126000Y-73286666D01*
X182173619Y-73239047D01*
X182268857Y-73191428D01*
X182411714Y-73191428D01*
X182506952Y-73239047D01*
X182554571Y-73286666D01*
X182602190Y-73381904D01*
X182602190Y-73762857D01*
X183030762Y-72381904D02*
X183078381Y-72477142D01*
X183078381Y-72667619D01*
X183030762Y-72762857D01*
X182935524Y-72810476D01*
X182554571Y-72810476D01*
X182459333Y-72762857D01*
X182411714Y-72667619D01*
X182411714Y-72477142D01*
X182459333Y-72381904D01*
X182554571Y-72334285D01*
X182649810Y-72334285D01*
X182745048Y-72810476D01*
X182411714Y-72000952D02*
X183078381Y-71762857D01*
X182411714Y-71524761D01*
X183078381Y-69858094D02*
X183078381Y-70429523D01*
X183078381Y-70143809D02*
X182078381Y-70143809D01*
X182221238Y-70239047D01*
X182316476Y-70334285D01*
X182364095Y-70429523D01*
X182983143Y-69429523D02*
X183030762Y-69381904D01*
X183078381Y-69429523D01*
X183030762Y-69477142D01*
X182983143Y-69429523D01*
X183078381Y-69429523D01*
X182411714Y-68524761D02*
X183078381Y-68524761D01*
X182030762Y-68762857D02*
X182745048Y-69000952D01*
X182745048Y-68381904D01*
X184295286Y-88654019D02*
X185185762Y-88654019D01*
X185290524Y-88706400D01*
X185342905Y-88758781D01*
X185395286Y-88863542D01*
X185395286Y-89020685D01*
X185342905Y-89125447D01*
X184976238Y-88654019D02*
X185028619Y-88758781D01*
X185028619Y-88968304D01*
X184976238Y-89073066D01*
X184923857Y-89125447D01*
X184819095Y-89177828D01*
X184504810Y-89177828D01*
X184400048Y-89125447D01*
X184347667Y-89073066D01*
X184295286Y-88968304D01*
X184295286Y-88758781D01*
X184347667Y-88654019D01*
X185028619Y-88130209D02*
X184295286Y-88130209D01*
X183928619Y-88130209D02*
X183981000Y-88182590D01*
X184033381Y-88130209D01*
X183981000Y-88077828D01*
X183928619Y-88130209D01*
X184033381Y-88130209D01*
X184295286Y-87763542D02*
X184295286Y-87344494D01*
X183928619Y-87606399D02*
X184871476Y-87606399D01*
X184976238Y-87554018D01*
X185028619Y-87449256D01*
X185028619Y-87344494D01*
X185028619Y-86977828D02*
X183928619Y-86977828D01*
X185028619Y-86506400D02*
X184452429Y-86506400D01*
X184347667Y-86558781D01*
X184295286Y-86663543D01*
X184295286Y-86820685D01*
X184347667Y-86925447D01*
X184400048Y-86977828D01*
X184295286Y-85511162D02*
X185028619Y-85511162D01*
X184295286Y-85982590D02*
X184871476Y-85982590D01*
X184976238Y-85930209D01*
X185028619Y-85825447D01*
X185028619Y-85668305D01*
X184976238Y-85563543D01*
X184923857Y-85511162D01*
X185028619Y-84987352D02*
X183928619Y-84987352D01*
X184347667Y-84987352D02*
X184295286Y-84882590D01*
X184295286Y-84673067D01*
X184347667Y-84568305D01*
X184400048Y-84515924D01*
X184504810Y-84463543D01*
X184819095Y-84463543D01*
X184923857Y-84515924D01*
X184976238Y-84568305D01*
X185028619Y-84673067D01*
X185028619Y-84882590D01*
X184976238Y-84987352D01*
X184923857Y-83992114D02*
X184976238Y-83939733D01*
X185028619Y-83992114D01*
X184976238Y-84044495D01*
X184923857Y-83992114D01*
X185028619Y-83992114D01*
X184976238Y-82996876D02*
X185028619Y-83101638D01*
X185028619Y-83311161D01*
X184976238Y-83415923D01*
X184923857Y-83468304D01*
X184819095Y-83520685D01*
X184504810Y-83520685D01*
X184400048Y-83468304D01*
X184347667Y-83415923D01*
X184295286Y-83311161D01*
X184295286Y-83101638D01*
X184347667Y-82996876D01*
X185028619Y-82368304D02*
X184976238Y-82473066D01*
X184923857Y-82525447D01*
X184819095Y-82577828D01*
X184504810Y-82577828D01*
X184400048Y-82525447D01*
X184347667Y-82473066D01*
X184295286Y-82368304D01*
X184295286Y-82211162D01*
X184347667Y-82106400D01*
X184400048Y-82054019D01*
X184504810Y-82001638D01*
X184819095Y-82001638D01*
X184923857Y-82054019D01*
X184976238Y-82106400D01*
X185028619Y-82211162D01*
X185028619Y-82368304D01*
X185028619Y-81530209D02*
X184295286Y-81530209D01*
X184400048Y-81530209D02*
X184347667Y-81477828D01*
X184295286Y-81373066D01*
X184295286Y-81215924D01*
X184347667Y-81111162D01*
X184452429Y-81058781D01*
X185028619Y-81058781D01*
X184452429Y-81058781D02*
X184347667Y-81006400D01*
X184295286Y-80901638D01*
X184295286Y-80744495D01*
X184347667Y-80639733D01*
X184452429Y-80587352D01*
X185028619Y-80587352D01*
X183876238Y-79277828D02*
X185290524Y-80220685D01*
X185028619Y-78439733D02*
X184452429Y-78439733D01*
X184347667Y-78492114D01*
X184295286Y-78596876D01*
X184295286Y-78806399D01*
X184347667Y-78911161D01*
X184976238Y-78439733D02*
X185028619Y-78544495D01*
X185028619Y-78806399D01*
X184976238Y-78911161D01*
X184871476Y-78963542D01*
X184766714Y-78963542D01*
X184661952Y-78911161D01*
X184609571Y-78806399D01*
X184609571Y-78544495D01*
X184557190Y-78439733D01*
X184976238Y-77968304D02*
X185028619Y-77863542D01*
X185028619Y-77654018D01*
X184976238Y-77549257D01*
X184871476Y-77496876D01*
X184819095Y-77496876D01*
X184714333Y-77549257D01*
X184661952Y-77654018D01*
X184661952Y-77811161D01*
X184609571Y-77915923D01*
X184504810Y-77968304D01*
X184452429Y-77968304D01*
X184347667Y-77915923D01*
X184295286Y-77811161D01*
X184295286Y-77654018D01*
X184347667Y-77549257D01*
X184295286Y-76554019D02*
X185028619Y-76554019D01*
X184295286Y-77025447D02*
X184871476Y-77025447D01*
X184976238Y-76973066D01*
X185028619Y-76868304D01*
X185028619Y-76711162D01*
X184976238Y-76606400D01*
X184923857Y-76554019D01*
X185028619Y-76030209D02*
X183928619Y-76030209D01*
X184609571Y-75925447D02*
X185028619Y-75611162D01*
X184295286Y-75611162D02*
X184714333Y-76030209D01*
X185028619Y-75139733D02*
X184295286Y-75139733D01*
X183928619Y-75139733D02*
X183981000Y-75192114D01*
X184033381Y-75139733D01*
X183981000Y-75087352D01*
X183928619Y-75139733D01*
X184033381Y-75139733D01*
X185028619Y-74144495D02*
X184452429Y-74144495D01*
X184347667Y-74196876D01*
X184295286Y-74301638D01*
X184295286Y-74511161D01*
X184347667Y-74615923D01*
X184976238Y-74144495D02*
X185028619Y-74249257D01*
X185028619Y-74511161D01*
X184976238Y-74615923D01*
X184871476Y-74668304D01*
X184766714Y-74668304D01*
X184661952Y-74615923D01*
X184609571Y-74511161D01*
X184609571Y-74249257D01*
X184557190Y-74144495D01*
X185028619Y-73149257D02*
X184452429Y-73149257D01*
X184347667Y-73201638D01*
X184295286Y-73306400D01*
X184295286Y-73515923D01*
X184347667Y-73620685D01*
X184976238Y-73149257D02*
X185028619Y-73254019D01*
X185028619Y-73515923D01*
X184976238Y-73620685D01*
X184871476Y-73673066D01*
X184766714Y-73673066D01*
X184661952Y-73620685D01*
X184609571Y-73515923D01*
X184609571Y-73254019D01*
X184557190Y-73149257D01*
X185028619Y-72154019D02*
X184452429Y-72154019D01*
X184347667Y-72206400D01*
X184295286Y-72311162D01*
X184295286Y-72520685D01*
X184347667Y-72625447D01*
X184976238Y-72154019D02*
X185028619Y-72258781D01*
X185028619Y-72520685D01*
X184976238Y-72625447D01*
X184871476Y-72677828D01*
X184766714Y-72677828D01*
X184661952Y-72625447D01*
X184609571Y-72520685D01*
X184609571Y-72258781D01*
X184557190Y-72154019D01*
X183876238Y-70844495D02*
X185290524Y-71787352D01*
X184976238Y-70058781D02*
X185028619Y-70163543D01*
X185028619Y-70373066D01*
X184976238Y-70477828D01*
X184871476Y-70530209D01*
X184452429Y-70530209D01*
X184347667Y-70477828D01*
X184295286Y-70373066D01*
X184295286Y-70163543D01*
X184347667Y-70058781D01*
X184452429Y-70006400D01*
X184557190Y-70006400D01*
X184661952Y-70530209D01*
X184976238Y-69587352D02*
X185028619Y-69482590D01*
X185028619Y-69273066D01*
X184976238Y-69168305D01*
X184871476Y-69115924D01*
X184819095Y-69115924D01*
X184714333Y-69168305D01*
X184661952Y-69273066D01*
X184661952Y-69430209D01*
X184609571Y-69534971D01*
X184504810Y-69587352D01*
X184452429Y-69587352D01*
X184347667Y-69534971D01*
X184295286Y-69430209D01*
X184295286Y-69273066D01*
X184347667Y-69168305D01*
X184295286Y-68644495D02*
X185395286Y-68644495D01*
X184347667Y-68644495D02*
X184295286Y-68539733D01*
X184295286Y-68330210D01*
X184347667Y-68225448D01*
X184400048Y-68173067D01*
X184504810Y-68120686D01*
X184819095Y-68120686D01*
X184923857Y-68173067D01*
X184976238Y-68225448D01*
X185028619Y-68330210D01*
X185028619Y-68539733D01*
X184976238Y-68644495D01*
X183928619Y-67754019D02*
X183928619Y-67073067D01*
X184347667Y-67439733D01*
X184347667Y-67282591D01*
X184400048Y-67177829D01*
X184452429Y-67125448D01*
X184557190Y-67073067D01*
X184819095Y-67073067D01*
X184923857Y-67125448D01*
X184976238Y-67177829D01*
X185028619Y-67282591D01*
X185028619Y-67596876D01*
X184976238Y-67701638D01*
X184923857Y-67754019D01*
X184033381Y-66654019D02*
X183981000Y-66601638D01*
X183928619Y-66496876D01*
X183928619Y-66234972D01*
X183981000Y-66130210D01*
X184033381Y-66077829D01*
X184138143Y-66025448D01*
X184242905Y-66025448D01*
X184400048Y-66077829D01*
X185028619Y-66706400D01*
X185028619Y-66025448D01*
X185028619Y-65554019D02*
X183928619Y-65554019D01*
X184347667Y-65554019D02*
X184295286Y-65449257D01*
X184295286Y-65239734D01*
X184347667Y-65134972D01*
X184400048Y-65082591D01*
X184504810Y-65030210D01*
X184819095Y-65030210D01*
X184923857Y-65082591D01*
X184976238Y-65134972D01*
X185028619Y-65239734D01*
X185028619Y-65449257D01*
X184976238Y-65554019D01*
X185028619Y-64558781D02*
X183928619Y-64558781D01*
X184347667Y-64558781D02*
X184295286Y-64454019D01*
X184295286Y-64244496D01*
X184347667Y-64139734D01*
X184400048Y-64087353D01*
X184504810Y-64034972D01*
X184819095Y-64034972D01*
X184923857Y-64087353D01*
X184976238Y-64139734D01*
X185028619Y-64244496D01*
X185028619Y-64454019D01*
X184976238Y-64558781D01*
D11*
X150178333Y-98210000D02*
X150878333Y-98210000D01*
X150878333Y-98376666D01*
X150845000Y-98476666D01*
X150778333Y-98543333D01*
X150711667Y-98576666D01*
X150578333Y-98610000D01*
X150478333Y-98610000D01*
X150345000Y-98576666D01*
X150278333Y-98543333D01*
X150211667Y-98476666D01*
X150178333Y-98376666D01*
X150178333Y-98210000D01*
X150811667Y-98876666D02*
X150845000Y-98910000D01*
X150878333Y-98976666D01*
X150878333Y-99143333D01*
X150845000Y-99210000D01*
X150811667Y-99243333D01*
X150745000Y-99276666D01*
X150678333Y-99276666D01*
X150578333Y-99243333D01*
X150178333Y-98843333D01*
X150178333Y-99276666D01*
X150878333Y-99510000D02*
X150878333Y-99976667D01*
X150178333Y-99676667D01*
D14*
X174934500Y-103481500D02*
X173934500Y-103481500D01*
X173934500Y-102131500D02*
X174934500Y-102131500D01*
D12*
X157128981Y-67056000D02*
G75*
G03X157128981Y-67056000I-283981J0D01*
G01*
D14*
X175751000Y-66910000D02*
X157751000Y-66910000D01*
X157751000Y-60910000D02*
X157751000Y-86410000D01*
X175751000Y-60910000D02*
X175751000Y-86410000D01*
X175751000Y-86410000D02*
X157751000Y-86410000D01*
X175751000Y-60910000D02*
X157751000Y-60910000D01*
D15*
X181260000Y-107350000D02*
X181960000Y-107350000D01*
X181960000Y-108550000D02*
X181260000Y-108550000D01*
X181260000Y-104810000D02*
X181960000Y-104810000D01*
X181960000Y-106010000D02*
X181260000Y-106010000D01*
X185770000Y-108550000D02*
X185070000Y-108550000D01*
X185070000Y-107350000D02*
X185770000Y-107350000D01*
X185770000Y-106010000D02*
X185070000Y-106010000D01*
X185070000Y-104810000D02*
X185770000Y-104810000D01*
X159230000Y-118916000D02*
X161070000Y-118916000D01*
X170470000Y-118916000D02*
X168240000Y-118916000D01*
X158080000Y-102406000D02*
X158080000Y-102916000D01*
X158400000Y-102406000D02*
X158080000Y-102406000D01*
X172310000Y-102406000D02*
X172310000Y-104316000D01*
X170780000Y-102406000D02*
X172310000Y-102406000D01*
D14*
X173934500Y-100544000D02*
X174934500Y-100544000D01*
X174934500Y-101894000D02*
X173934500Y-101894000D01*
X184658000Y-100330000D02*
X184658000Y-103505000D01*
X184658000Y-103505000D02*
X186436000Y-103505000D01*
X186436000Y-103505000D02*
X186436000Y-100330000D01*
X180086000Y-100330000D02*
X180086000Y-103505000D01*
X180086000Y-103505000D02*
X181864000Y-103505000D01*
X181864000Y-103505000D02*
X181864000Y-100330000D01*
X186690000Y-94234000D02*
X186690000Y-100330000D01*
X186690000Y-100330000D02*
X179832000Y-100330000D01*
X179832000Y-100330000D02*
X179832000Y-92456000D01*
X179832000Y-92329000D02*
X186690000Y-92329000D01*
X186690000Y-92456000D02*
X186690000Y-94234000D01*
D15*
X179035000Y-101377000D02*
X179035000Y-102077000D01*
X177835000Y-102077000D02*
X177835000Y-101377000D01*
D16*
G36*
X160600184Y-93856759D02*
X160613282Y-93830247D01*
X160636106Y-93797553D01*
X160660996Y-93773725D01*
X160692249Y-93757406D01*
X160734166Y-93747240D01*
X160791044Y-93741872D01*
X160867184Y-93739944D01*
X160899917Y-93739831D01*
X160971656Y-93740161D01*
X161022927Y-93741527D01*
X161058404Y-93744500D01*
X161082763Y-93749649D01*
X161100680Y-93757543D01*
X161112902Y-93765757D01*
X161164905Y-93818187D01*
X161196184Y-93879930D01*
X161205592Y-93946536D01*
X161191980Y-94013558D01*
X161182354Y-94034792D01*
X161155859Y-94085624D01*
X161571052Y-94085624D01*
X161551868Y-94048525D01*
X161537025Y-93999643D01*
X161533222Y-93939561D01*
X161540243Y-93879564D01*
X161556013Y-93834256D01*
X161586047Y-93796675D01*
X161629024Y-93764564D01*
X161633436Y-93762150D01*
X161654221Y-93751967D01*
X161675170Y-93744530D01*
X161700548Y-93739411D01*
X161734618Y-93736181D01*
X161781641Y-93734413D01*
X161845882Y-93733677D01*
X161918176Y-93733544D01*
X162148822Y-93733544D01*
X162148822Y-93871861D01*
X161723533Y-93871861D01*
X161690979Y-93910549D01*
X161664940Y-93950738D01*
X161660205Y-93988797D01*
X161672389Y-94027066D01*
X161684320Y-94047462D01*
X161701313Y-94062642D01*
X161726995Y-94073438D01*
X161764991Y-94080683D01*
X161818926Y-94085208D01*
X161892425Y-94087844D01*
X161941347Y-94088772D01*
X162142535Y-94091911D01*
X162146336Y-94157926D01*
X162150136Y-94223940D01*
X160901650Y-94223940D01*
X160901650Y-94085624D01*
X160971254Y-94082097D01*
X161019569Y-94070215D01*
X161049631Y-94048020D01*
X161064471Y-94013559D01*
X161067436Y-93978742D01*
X161064028Y-93939329D01*
X161050617Y-93913171D01*
X161032896Y-93896814D01*
X161013835Y-93883937D01*
X160992601Y-93876272D01*
X160962849Y-93872861D01*
X160918236Y-93872749D01*
X160880880Y-93873897D01*
X160824604Y-93876532D01*
X160787658Y-93880456D01*
X160764223Y-93887063D01*
X160748480Y-93897749D01*
X160739380Y-93907833D01*
X160719537Y-93949970D01*
X160716332Y-93999840D01*
X160723168Y-94028476D01*
X160747464Y-94056828D01*
X160794728Y-94075609D01*
X160864624Y-94084712D01*
X160901650Y-94085624D01*
X160901650Y-94223940D01*
X160589614Y-94223940D01*
X160589614Y-94154782D01*
X160591256Y-94113260D01*
X160597087Y-94091838D01*
X160608461Y-94085626D01*
X160608798Y-94085624D01*
X160619938Y-94082742D01*
X160618673Y-94070030D01*
X160606433Y-94044757D01*
X160587707Y-93985869D01*
X160585739Y-93919615D01*
X160600184Y-93856759D01*
X160600184Y-93856759D01*
G37*
X160600184Y-93856759D02*
X160613282Y-93830247D01*
X160636106Y-93797553D01*
X160660996Y-93773725D01*
X160692249Y-93757406D01*
X160734166Y-93747240D01*
X160791044Y-93741872D01*
X160867184Y-93739944D01*
X160899917Y-93739831D01*
X160971656Y-93740161D01*
X161022927Y-93741527D01*
X161058404Y-93744500D01*
X161082763Y-93749649D01*
X161100680Y-93757543D01*
X161112902Y-93765757D01*
X161164905Y-93818187D01*
X161196184Y-93879930D01*
X161205592Y-93946536D01*
X161191980Y-94013558D01*
X161182354Y-94034792D01*
X161155859Y-94085624D01*
X161571052Y-94085624D01*
X161551868Y-94048525D01*
X161537025Y-93999643D01*
X161533222Y-93939561D01*
X161540243Y-93879564D01*
X161556013Y-93834256D01*
X161586047Y-93796675D01*
X161629024Y-93764564D01*
X161633436Y-93762150D01*
X161654221Y-93751967D01*
X161675170Y-93744530D01*
X161700548Y-93739411D01*
X161734618Y-93736181D01*
X161781641Y-93734413D01*
X161845882Y-93733677D01*
X161918176Y-93733544D01*
X162148822Y-93733544D01*
X162148822Y-93871861D01*
X161723533Y-93871861D01*
X161690979Y-93910549D01*
X161664940Y-93950738D01*
X161660205Y-93988797D01*
X161672389Y-94027066D01*
X161684320Y-94047462D01*
X161701313Y-94062642D01*
X161726995Y-94073438D01*
X161764991Y-94080683D01*
X161818926Y-94085208D01*
X161892425Y-94087844D01*
X161941347Y-94088772D01*
X162142535Y-94091911D01*
X162146336Y-94157926D01*
X162150136Y-94223940D01*
X160901650Y-94223940D01*
X160901650Y-94085624D01*
X160971254Y-94082097D01*
X161019569Y-94070215D01*
X161049631Y-94048020D01*
X161064471Y-94013559D01*
X161067436Y-93978742D01*
X161064028Y-93939329D01*
X161050617Y-93913171D01*
X161032896Y-93896814D01*
X161013835Y-93883937D01*
X160992601Y-93876272D01*
X160962849Y-93872861D01*
X160918236Y-93872749D01*
X160880880Y-93873897D01*
X160824604Y-93876532D01*
X160787658Y-93880456D01*
X160764223Y-93887063D01*
X160748480Y-93897749D01*
X160739380Y-93907833D01*
X160719537Y-93949970D01*
X160716332Y-93999840D01*
X160723168Y-94028476D01*
X160747464Y-94056828D01*
X160794728Y-94075609D01*
X160864624Y-94084712D01*
X160901650Y-94085624D01*
X160901650Y-94223940D01*
X160589614Y-94223940D01*
X160589614Y-94154782D01*
X160591256Y-94113260D01*
X160597087Y-94091838D01*
X160608461Y-94085626D01*
X160608798Y-94085624D01*
X160619938Y-94082742D01*
X160618673Y-94070030D01*
X160606433Y-94044757D01*
X160587707Y-93985869D01*
X160585739Y-93919615D01*
X160600184Y-93856759D01*
G36*
X161537555Y-93332210D02*
X161553339Y-93273055D01*
X161581948Y-93228023D01*
X161619419Y-93196246D01*
X161635411Y-93186366D01*
X161652163Y-93179073D01*
X161673592Y-93173974D01*
X161703616Y-93170679D01*
X161746154Y-93168797D01*
X161805122Y-93167937D01*
X161884440Y-93167707D01*
X161905484Y-93167703D01*
X162148822Y-93167703D01*
X162148822Y-93228059D01*
X162146126Y-93266557D01*
X162139295Y-93295023D01*
X162135083Y-93302155D01*
X162127813Y-93321652D01*
X162135083Y-93341566D01*
X162144160Y-93374353D01*
X162147813Y-93421978D01*
X162146228Y-93474764D01*
X162139589Y-93523036D01*
X162131072Y-93551218D01*
X162096063Y-93605753D01*
X162047479Y-93639835D01*
X161982882Y-93655157D01*
X161981223Y-93655299D01*
X161952566Y-93653955D01*
X161952566Y-93532356D01*
X161985161Y-93521726D01*
X162003505Y-93504410D01*
X162017379Y-93469652D01*
X162022917Y-93423773D01*
X162020191Y-93376988D01*
X162009274Y-93339514D01*
X162002269Y-93329015D01*
X161969904Y-93310668D01*
X161933111Y-93306020D01*
X161884763Y-93306020D01*
X161884763Y-93375582D01*
X161889850Y-93441667D01*
X161904263Y-93491764D01*
X161926729Y-93522929D01*
X161952566Y-93532356D01*
X161952566Y-93653955D01*
X161910647Y-93651987D01*
X161854845Y-93628710D01*
X161812647Y-93584948D01*
X161808808Y-93578899D01*
X161796309Y-93552907D01*
X161788740Y-93520735D01*
X161785061Y-93475760D01*
X161784216Y-93422331D01*
X161784169Y-93306020D01*
X161735411Y-93306020D01*
X161697581Y-93310953D01*
X161672236Y-93323543D01*
X161670887Y-93325017D01*
X161659800Y-93353034D01*
X161655503Y-93395326D01*
X161657615Y-93442064D01*
X161665756Y-93483418D01*
X161677965Y-93507957D01*
X161687746Y-93521253D01*
X161689613Y-93535294D01*
X161681600Y-93554671D01*
X161661739Y-93583976D01*
X161628063Y-93627803D01*
X161624909Y-93631825D01*
X161613236Y-93629764D01*
X161593822Y-93612568D01*
X161572248Y-93586433D01*
X161554096Y-93557552D01*
X161549809Y-93548478D01*
X161541256Y-93515380D01*
X161535155Y-93466880D01*
X161532708Y-93412695D01*
X161532703Y-93410161D01*
X161537555Y-93332210D01*
X161537555Y-93332210D01*
G37*
X161537555Y-93332210D02*
X161553339Y-93273055D01*
X161581948Y-93228023D01*
X161619419Y-93196246D01*
X161635411Y-93186366D01*
X161652163Y-93179073D01*
X161673592Y-93173974D01*
X161703616Y-93170679D01*
X161746154Y-93168797D01*
X161805122Y-93167937D01*
X161884440Y-93167707D01*
X161905484Y-93167703D01*
X162148822Y-93167703D01*
X162148822Y-93228059D01*
X162146126Y-93266557D01*
X162139295Y-93295023D01*
X162135083Y-93302155D01*
X162127813Y-93321652D01*
X162135083Y-93341566D01*
X162144160Y-93374353D01*
X162147813Y-93421978D01*
X162146228Y-93474764D01*
X162139589Y-93523036D01*
X162131072Y-93551218D01*
X162096063Y-93605753D01*
X162047479Y-93639835D01*
X161982882Y-93655157D01*
X161981223Y-93655299D01*
X161952566Y-93653955D01*
X161952566Y-93532356D01*
X161985161Y-93521726D01*
X162003505Y-93504410D01*
X162017379Y-93469652D01*
X162022917Y-93423773D01*
X162020191Y-93376988D01*
X162009274Y-93339514D01*
X162002269Y-93329015D01*
X161969904Y-93310668D01*
X161933111Y-93306020D01*
X161884763Y-93306020D01*
X161884763Y-93375582D01*
X161889850Y-93441667D01*
X161904263Y-93491764D01*
X161926729Y-93522929D01*
X161952566Y-93532356D01*
X161952566Y-93653955D01*
X161910647Y-93651987D01*
X161854845Y-93628710D01*
X161812647Y-93584948D01*
X161808808Y-93578899D01*
X161796309Y-93552907D01*
X161788740Y-93520735D01*
X161785061Y-93475760D01*
X161784216Y-93422331D01*
X161784169Y-93306020D01*
X161735411Y-93306020D01*
X161697581Y-93310953D01*
X161672236Y-93323543D01*
X161670887Y-93325017D01*
X161659800Y-93353034D01*
X161655503Y-93395326D01*
X161657615Y-93442064D01*
X161665756Y-93483418D01*
X161677965Y-93507957D01*
X161687746Y-93521253D01*
X161689613Y-93535294D01*
X161681600Y-93554671D01*
X161661739Y-93583976D01*
X161628063Y-93627803D01*
X161624909Y-93631825D01*
X161613236Y-93629764D01*
X161593822Y-93612568D01*
X161572248Y-93586433D01*
X161554096Y-93557552D01*
X161549809Y-93548478D01*
X161541256Y-93515380D01*
X161535155Y-93466880D01*
X161532708Y-93412695D01*
X161532703Y-93410161D01*
X161537555Y-93332210D01*
G36*
X161534020Y-92941356D02*
X161539660Y-92922539D01*
X161552053Y-92916473D01*
X161557647Y-92916218D01*
X161573230Y-92915129D01*
X161575676Y-92907632D01*
X161564993Y-92887381D01*
X161557694Y-92875351D01*
X161542063Y-92837400D01*
X161534334Y-92792072D01*
X161533740Y-92744544D01*
X161539513Y-92699995D01*
X161550884Y-92663602D01*
X161567088Y-92640543D01*
X161587355Y-92635996D01*
X161592843Y-92638291D01*
X161615626Y-92655020D01*
X161643647Y-92680963D01*
X161648177Y-92685655D01*
X161669005Y-92710383D01*
X161675735Y-92731718D01*
X161671038Y-92761555D01*
X161667917Y-92773508D01*
X161660421Y-92810705D01*
X161663792Y-92836859D01*
X161675681Y-92858946D01*
X161691635Y-92879178D01*
X161711700Y-92894079D01*
X161739702Y-92904434D01*
X161779467Y-92911029D01*
X161834823Y-92914649D01*
X161909594Y-92916078D01*
X161954740Y-92916218D01*
X162148822Y-92916218D01*
X162148822Y-93041960D01*
X161532683Y-93041960D01*
X161532683Y-92979089D01*
X161534020Y-92941356D01*
X161534020Y-92941356D01*
G37*
X161534020Y-92941356D02*
X161539660Y-92922539D01*
X161552053Y-92916473D01*
X161557647Y-92916218D01*
X161573230Y-92915129D01*
X161575676Y-92907632D01*
X161564993Y-92887381D01*
X161557694Y-92875351D01*
X161542063Y-92837400D01*
X161534334Y-92792072D01*
X161533740Y-92744544D01*
X161539513Y-92699995D01*
X161550884Y-92663602D01*
X161567088Y-92640543D01*
X161587355Y-92635996D01*
X161592843Y-92638291D01*
X161615626Y-92655020D01*
X161643647Y-92680963D01*
X161648177Y-92685655D01*
X161669005Y-92710383D01*
X161675735Y-92731718D01*
X161671038Y-92761555D01*
X161667917Y-92773508D01*
X161660421Y-92810705D01*
X161663792Y-92836859D01*
X161675681Y-92858946D01*
X161691635Y-92879178D01*
X161711700Y-92894079D01*
X161739702Y-92904434D01*
X161779467Y-92911029D01*
X161834823Y-92914649D01*
X161909594Y-92916078D01*
X161954740Y-92916218D01*
X162148822Y-92916218D01*
X162148822Y-93041960D01*
X161532683Y-93041960D01*
X161532683Y-92979089D01*
X161534020Y-92941356D01*
G36*
X162148822Y-92149188D02*
X162148822Y-92218346D01*
X162147645Y-92258488D01*
X162142772Y-92279394D01*
X162132186Y-92286922D01*
X162125029Y-92287505D01*
X162110676Y-92288774D01*
X162107923Y-92296779D01*
X162116771Y-92317815D01*
X162125029Y-92334173D01*
X162144597Y-92396977D01*
X162145729Y-92465248D01*
X162131135Y-92520752D01*
X162095877Y-92572438D01*
X162043835Y-92611838D01*
X161982450Y-92633413D01*
X161979018Y-92633962D01*
X161941571Y-92637167D01*
X161887813Y-92638761D01*
X161847155Y-92638633D01*
X161847155Y-92501279D01*
X161901194Y-92498097D01*
X161945735Y-92490859D01*
X161970888Y-92481060D01*
X162005260Y-92443989D01*
X162017582Y-92399974D01*
X162007618Y-92354584D01*
X161977895Y-92315797D01*
X161957905Y-92301108D01*
X161934050Y-92292519D01*
X161899230Y-92288496D01*
X161846930Y-92287505D01*
X161795139Y-92289278D01*
X161749634Y-92293963D01*
X161719181Y-92300603D01*
X161716452Y-92301710D01*
X161684000Y-92328491D01*
X161666183Y-92367579D01*
X161663306Y-92411315D01*
X161675674Y-92452038D01*
X161703593Y-92482087D01*
X161709148Y-92485204D01*
X161743022Y-92494961D01*
X161791728Y-92500277D01*
X161847155Y-92501279D01*
X161847155Y-92638633D01*
X161826540Y-92638568D01*
X161793563Y-92637664D01*
X161711981Y-92631514D01*
X161650730Y-92618733D01*
X161605449Y-92597471D01*
X161571779Y-92565878D01*
X161552014Y-92535207D01*
X161538120Y-92492354D01*
X161533354Y-92439056D01*
X161537236Y-92384480D01*
X161549282Y-92337792D01*
X161563693Y-92313124D01*
X161586878Y-92287505D01*
X161293773Y-92287505D01*
X161293773Y-92149188D01*
X162148822Y-92149188D01*
X162148822Y-92149188D01*
G37*
X162148822Y-92149188D02*
X162148822Y-92218346D01*
X162147645Y-92258488D01*
X162142772Y-92279394D01*
X162132186Y-92286922D01*
X162125029Y-92287505D01*
X162110676Y-92288774D01*
X162107923Y-92296779D01*
X162116771Y-92317815D01*
X162125029Y-92334173D01*
X162144597Y-92396977D01*
X162145729Y-92465248D01*
X162131135Y-92520752D01*
X162095877Y-92572438D01*
X162043835Y-92611838D01*
X161982450Y-92633413D01*
X161979018Y-92633962D01*
X161941571Y-92637167D01*
X161887813Y-92638761D01*
X161847155Y-92638633D01*
X161847155Y-92501279D01*
X161901194Y-92498097D01*
X161945735Y-92490859D01*
X161970888Y-92481060D01*
X162005260Y-92443989D01*
X162017582Y-92399974D01*
X162007618Y-92354584D01*
X161977895Y-92315797D01*
X161957905Y-92301108D01*
X161934050Y-92292519D01*
X161899230Y-92288496D01*
X161846930Y-92287505D01*
X161795139Y-92289278D01*
X161749634Y-92293963D01*
X161719181Y-92300603D01*
X161716452Y-92301710D01*
X161684000Y-92328491D01*
X161666183Y-92367579D01*
X161663306Y-92411315D01*
X161675674Y-92452038D01*
X161703593Y-92482087D01*
X161709148Y-92485204D01*
X161743022Y-92494961D01*
X161791728Y-92500277D01*
X161847155Y-92501279D01*
X161847155Y-92638633D01*
X161826540Y-92638568D01*
X161793563Y-92637664D01*
X161711981Y-92631514D01*
X161650730Y-92618733D01*
X161605449Y-92597471D01*
X161571779Y-92565878D01*
X161552014Y-92535207D01*
X161538120Y-92492354D01*
X161533354Y-92439056D01*
X161537236Y-92384480D01*
X161549282Y-92337792D01*
X161563693Y-92313124D01*
X161586878Y-92287505D01*
X161293773Y-92287505D01*
X161293773Y-92149188D01*
X162148822Y-92149188D01*
G36*
X161535237Y-91666476D02*
X161538971Y-91616745D01*
X161928773Y-91486709D01*
X161859614Y-91466322D01*
X161816874Y-91454054D01*
X161759115Y-91437915D01*
X161695625Y-91420488D01*
X161661570Y-91411274D01*
X161532683Y-91376612D01*
X161532683Y-91233609D01*
X161667857Y-91276354D01*
X161734342Y-91297404D01*
X161814539Y-91322833D01*
X161898193Y-91349390D01*
X161972782Y-91373098D01*
X162142535Y-91427098D01*
X162146328Y-91485402D01*
X162150122Y-91543705D01*
X162045734Y-91575321D01*
X161980889Y-91594818D01*
X161909400Y-91616096D01*
X161846263Y-91634692D01*
X161843750Y-91635426D01*
X161800969Y-91649316D01*
X161771779Y-91661571D01*
X161760741Y-91670154D01*
X161762018Y-91671918D01*
X161779130Y-91678109D01*
X161815787Y-91689872D01*
X161867378Y-91705775D01*
X161929294Y-91724386D01*
X161963352Y-91734457D01*
X162148822Y-91788993D01*
X162148822Y-91904736D01*
X161856471Y-91997263D01*
X161774462Y-92023256D01*
X161699987Y-92046934D01*
X161636544Y-92067180D01*
X161587632Y-92082874D01*
X161556749Y-92092898D01*
X161547726Y-92095945D01*
X161538487Y-92093533D01*
X161534441Y-92074592D01*
X161534846Y-92035177D01*
X161535152Y-92029007D01*
X161538971Y-91955914D01*
X161715010Y-91908043D01*
X161779211Y-91890447D01*
X161835649Y-91874723D01*
X161879422Y-91862254D01*
X161905630Y-91854426D01*
X161909903Y-91852980D01*
X161904990Y-91846986D01*
X161879532Y-91834899D01*
X161836997Y-91818107D01*
X161780850Y-91797997D01*
X161730130Y-91780997D01*
X161531504Y-91716206D01*
X161535237Y-91666476D01*
X161535237Y-91666476D01*
G37*
X161535237Y-91666476D02*
X161538971Y-91616745D01*
X161928773Y-91486709D01*
X161859614Y-91466322D01*
X161816874Y-91454054D01*
X161759115Y-91437915D01*
X161695625Y-91420488D01*
X161661570Y-91411274D01*
X161532683Y-91376612D01*
X161532683Y-91233609D01*
X161667857Y-91276354D01*
X161734342Y-91297404D01*
X161814539Y-91322833D01*
X161898193Y-91349390D01*
X161972782Y-91373098D01*
X162142535Y-91427098D01*
X162146328Y-91485402D01*
X162150122Y-91543705D01*
X162045734Y-91575321D01*
X161980889Y-91594818D01*
X161909400Y-91616096D01*
X161846263Y-91634692D01*
X161843750Y-91635426D01*
X161800969Y-91649316D01*
X161771779Y-91661571D01*
X161760741Y-91670154D01*
X161762018Y-91671918D01*
X161779130Y-91678109D01*
X161815787Y-91689872D01*
X161867378Y-91705775D01*
X161929294Y-91724386D01*
X161963352Y-91734457D01*
X162148822Y-91788993D01*
X162148822Y-91904736D01*
X161856471Y-91997263D01*
X161774462Y-92023256D01*
X161699987Y-92046934D01*
X161636544Y-92067180D01*
X161587632Y-92082874D01*
X161556749Y-92092898D01*
X161547726Y-92095945D01*
X161538487Y-92093533D01*
X161534441Y-92074592D01*
X161534846Y-92035177D01*
X161535152Y-92029007D01*
X161538971Y-91955914D01*
X161715010Y-91908043D01*
X161779211Y-91890447D01*
X161835649Y-91874723D01*
X161879422Y-91862254D01*
X161905630Y-91854426D01*
X161909903Y-91852980D01*
X161904990Y-91846986D01*
X161879532Y-91834899D01*
X161836997Y-91818107D01*
X161780850Y-91797997D01*
X161730130Y-91780997D01*
X161531504Y-91716206D01*
X161535237Y-91666476D01*
G36*
X161536417Y-90909589D02*
X161549290Y-90856589D01*
X161556110Y-90841269D01*
X161573974Y-90811572D01*
X161594093Y-90788780D01*
X161619962Y-90771917D01*
X161655073Y-90760002D01*
X161702920Y-90752058D01*
X161766996Y-90747106D01*
X161850794Y-90744169D01*
X161906768Y-90743053D01*
X162148822Y-90738948D01*
X162148822Y-90809068D01*
X162147038Y-90851607D01*
X162140942Y-90873524D01*
X162130706Y-90879188D01*
X162119637Y-90882179D01*
X162121754Y-90895549D01*
X162130629Y-90913767D01*
X162144233Y-90959376D01*
X162147899Y-91017993D01*
X162141903Y-91079646D01*
X162126521Y-91134362D01*
X162124386Y-91139270D01*
X162089255Y-91189277D01*
X162040419Y-91222244D01*
X161983333Y-91237413D01*
X161962824Y-91236254D01*
X161962824Y-91112492D01*
X161990425Y-91101587D01*
X162010204Y-91069255D01*
X162020819Y-91017090D01*
X162022228Y-90989213D01*
X162018620Y-90942753D01*
X162004597Y-90911871D01*
X161997931Y-90904336D01*
X161961666Y-90883924D01*
X161928773Y-90879188D01*
X161884763Y-90879188D01*
X161884763Y-90940487D01*
X161888395Y-91011744D01*
X161899818Y-91061724D01*
X161919824Y-91093304D01*
X161928743Y-91100374D01*
X161962824Y-91112492D01*
X161962824Y-91236254D01*
X161923456Y-91234029D01*
X161866244Y-91211337D01*
X161827580Y-91180376D01*
X161810864Y-91161624D01*
X161799878Y-91143267D01*
X161793180Y-91119381D01*
X161789326Y-91084043D01*
X161786873Y-91031331D01*
X161786168Y-91010423D01*
X161781879Y-90879188D01*
X161742158Y-90879380D01*
X161700405Y-90884463D01*
X161675158Y-90902838D01*
X161659030Y-90939961D01*
X161658742Y-90940957D01*
X161652400Y-90993590D01*
X161660684Y-91045094D01*
X161680827Y-91083370D01*
X161690773Y-91098728D01*
X161689397Y-91115270D01*
X161674987Y-91140725D01*
X161664817Y-91155672D01*
X161643088Y-91184909D01*
X161626800Y-91203020D01*
X161622137Y-91205926D01*
X161598005Y-91193960D01*
X161569185Y-91158604D01*
X161559461Y-91143247D01*
X161542714Y-91099099D01*
X161533227Y-91039602D01*
X161531095Y-90973513D01*
X161536417Y-90909589D01*
X161536417Y-90909589D01*
G37*
X161536417Y-90909589D02*
X161549290Y-90856589D01*
X161556110Y-90841269D01*
X161573974Y-90811572D01*
X161594093Y-90788780D01*
X161619962Y-90771917D01*
X161655073Y-90760002D01*
X161702920Y-90752058D01*
X161766996Y-90747106D01*
X161850794Y-90744169D01*
X161906768Y-90743053D01*
X162148822Y-90738948D01*
X162148822Y-90809068D01*
X162147038Y-90851607D01*
X162140942Y-90873524D01*
X162130706Y-90879188D01*
X162119637Y-90882179D01*
X162121754Y-90895549D01*
X162130629Y-90913767D01*
X162144233Y-90959376D01*
X162147899Y-91017993D01*
X162141903Y-91079646D01*
X162126521Y-91134362D01*
X162124386Y-91139270D01*
X162089255Y-91189277D01*
X162040419Y-91222244D01*
X161983333Y-91237413D01*
X161962824Y-91236254D01*
X161962824Y-91112492D01*
X161990425Y-91101587D01*
X162010204Y-91069255D01*
X162020819Y-91017090D01*
X162022228Y-90989213D01*
X162018620Y-90942753D01*
X162004597Y-90911871D01*
X161997931Y-90904336D01*
X161961666Y-90883924D01*
X161928773Y-90879188D01*
X161884763Y-90879188D01*
X161884763Y-90940487D01*
X161888395Y-91011744D01*
X161899818Y-91061724D01*
X161919824Y-91093304D01*
X161928743Y-91100374D01*
X161962824Y-91112492D01*
X161962824Y-91236254D01*
X161923456Y-91234029D01*
X161866244Y-91211337D01*
X161827580Y-91180376D01*
X161810864Y-91161624D01*
X161799878Y-91143267D01*
X161793180Y-91119381D01*
X161789326Y-91084043D01*
X161786873Y-91031331D01*
X161786168Y-91010423D01*
X161781879Y-90879188D01*
X161742158Y-90879380D01*
X161700405Y-90884463D01*
X161675158Y-90902838D01*
X161659030Y-90939961D01*
X161658742Y-90940957D01*
X161652400Y-90993590D01*
X161660684Y-91045094D01*
X161680827Y-91083370D01*
X161690773Y-91098728D01*
X161689397Y-91115270D01*
X161674987Y-91140725D01*
X161664817Y-91155672D01*
X161643088Y-91184909D01*
X161626800Y-91203020D01*
X161622137Y-91205926D01*
X161598005Y-91193960D01*
X161569185Y-91158604D01*
X161559461Y-91143247D01*
X161542714Y-91099099D01*
X161533227Y-91039602D01*
X161531095Y-90973513D01*
X161536417Y-90909589D01*
G36*
X161532486Y-90312745D02*
X161542015Y-90264405D01*
X161556125Y-90236886D01*
X161579568Y-90207936D01*
X161631571Y-90249124D01*
X161663064Y-90274518D01*
X161678428Y-90291762D01*
X161680776Y-90308898D01*
X161673217Y-90333973D01*
X161668941Y-90345743D01*
X161662631Y-90393730D01*
X161676156Y-90437676D01*
X161706710Y-90469940D01*
X161716452Y-90475181D01*
X161742258Y-90480888D01*
X161789817Y-90485294D01*
X161855758Y-90488189D01*
X161936710Y-90489369D01*
X161948226Y-90489386D01*
X162148822Y-90489386D01*
X162148822Y-90627703D01*
X161532683Y-90627703D01*
X161532683Y-90558544D01*
X161533725Y-90518667D01*
X161538358Y-90497893D01*
X161548849Y-90490211D01*
X161558745Y-90489386D01*
X161584806Y-90489386D01*
X161558745Y-90456255D01*
X161540965Y-90418265D01*
X161532174Y-90367230D01*
X161532486Y-90312745D01*
X161532486Y-90312745D01*
G37*
X161532486Y-90312745D02*
X161542015Y-90264405D01*
X161556125Y-90236886D01*
X161579568Y-90207936D01*
X161631571Y-90249124D01*
X161663064Y-90274518D01*
X161678428Y-90291762D01*
X161680776Y-90308898D01*
X161673217Y-90333973D01*
X161668941Y-90345743D01*
X161662631Y-90393730D01*
X161676156Y-90437676D01*
X161706710Y-90469940D01*
X161716452Y-90475181D01*
X161742258Y-90480888D01*
X161789817Y-90485294D01*
X161855758Y-90488189D01*
X161936710Y-90489369D01*
X161948226Y-90489386D01*
X162148822Y-90489386D01*
X162148822Y-90627703D01*
X161532683Y-90627703D01*
X161532683Y-90558544D01*
X161533725Y-90518667D01*
X161538358Y-90497893D01*
X161548849Y-90490211D01*
X161558745Y-90489386D01*
X161584806Y-90489386D01*
X161558745Y-90456255D01*
X161540965Y-90418265D01*
X161532174Y-90367230D01*
X161532486Y-90312745D01*
G36*
X161535970Y-89915419D02*
X161551597Y-89855315D01*
X161583848Y-89804979D01*
X161607940Y-89780607D01*
X161664895Y-89740655D01*
X161730965Y-89717758D01*
X161812182Y-89709892D01*
X161818748Y-89709852D01*
X161884763Y-89709782D01*
X161884763Y-90089736D01*
X161919342Y-90081637D01*
X161950659Y-90067013D01*
X161983291Y-90041419D01*
X161988500Y-90036065D01*
X162016694Y-89990057D01*
X162021475Y-89937590D01*
X162002926Y-89877197D01*
X161997931Y-89866960D01*
X161982745Y-89835561D01*
X161974094Y-89814530D01*
X161973293Y-89810861D01*
X161981063Y-89798052D01*
X162000072Y-89773622D01*
X162010460Y-89761221D01*
X162034321Y-89735524D01*
X162050077Y-89727085D01*
X162064571Y-89732942D01*
X162068534Y-89736072D01*
X162085879Y-89757275D01*
X162106959Y-89792262D01*
X162119265Y-89816663D01*
X162140946Y-89885928D01*
X162147971Y-89962612D01*
X162139647Y-90035235D01*
X162133686Y-90055574D01*
X162099952Y-90118524D01*
X162048045Y-90165185D01*
X161977459Y-90195827D01*
X161887692Y-90210718D01*
X161840753Y-90212353D01*
X161772413Y-90207579D01*
X161772413Y-90087010D01*
X161777465Y-90075348D01*
X161781429Y-90044002D01*
X161783768Y-89998429D01*
X161784169Y-89967554D01*
X161783783Y-89912019D01*
X161781975Y-89876967D01*
X161777773Y-89857738D01*
X161770203Y-89849670D01*
X161759218Y-89848099D01*
X161725381Y-89858879D01*
X161691940Y-89886020D01*
X161666272Y-89921723D01*
X161655772Y-89957440D01*
X161665086Y-90005952D01*
X161692013Y-90047947D01*
X161730827Y-90077064D01*
X161772413Y-90087010D01*
X161772413Y-90207579D01*
X161741236Y-90205401D01*
X161661949Y-90183945D01*
X161602263Y-90147530D01*
X161561549Y-90095703D01*
X161539179Y-90028010D01*
X161534871Y-89991338D01*
X161535970Y-89915419D01*
X161535970Y-89915419D01*
G37*
X161535970Y-89915419D02*
X161551597Y-89855315D01*
X161583848Y-89804979D01*
X161607940Y-89780607D01*
X161664895Y-89740655D01*
X161730965Y-89717758D01*
X161812182Y-89709892D01*
X161818748Y-89709852D01*
X161884763Y-89709782D01*
X161884763Y-90089736D01*
X161919342Y-90081637D01*
X161950659Y-90067013D01*
X161983291Y-90041419D01*
X161988500Y-90036065D01*
X162016694Y-89990057D01*
X162021475Y-89937590D01*
X162002926Y-89877197D01*
X161997931Y-89866960D01*
X161982745Y-89835561D01*
X161974094Y-89814530D01*
X161973293Y-89810861D01*
X161981063Y-89798052D01*
X162000072Y-89773622D01*
X162010460Y-89761221D01*
X162034321Y-89735524D01*
X162050077Y-89727085D01*
X162064571Y-89732942D01*
X162068534Y-89736072D01*
X162085879Y-89757275D01*
X162106959Y-89792262D01*
X162119265Y-89816663D01*
X162140946Y-89885928D01*
X162147971Y-89962612D01*
X162139647Y-90035235D01*
X162133686Y-90055574D01*
X162099952Y-90118524D01*
X162048045Y-90165185D01*
X161977459Y-90195827D01*
X161887692Y-90210718D01*
X161840753Y-90212353D01*
X161772413Y-90207579D01*
X161772413Y-90087010D01*
X161777465Y-90075348D01*
X161781429Y-90044002D01*
X161783768Y-89998429D01*
X161784169Y-89967554D01*
X161783783Y-89912019D01*
X161781975Y-89876967D01*
X161777773Y-89857738D01*
X161770203Y-89849670D01*
X161759218Y-89848099D01*
X161725381Y-89858879D01*
X161691940Y-89886020D01*
X161666272Y-89921723D01*
X161655772Y-89957440D01*
X161665086Y-90005952D01*
X161692013Y-90047947D01*
X161730827Y-90077064D01*
X161772413Y-90087010D01*
X161772413Y-90207579D01*
X161741236Y-90205401D01*
X161661949Y-90183945D01*
X161602263Y-90147530D01*
X161561549Y-90095703D01*
X161539179Y-90028010D01*
X161534871Y-89991338D01*
X161535970Y-89915419D01*
G36*
X160596148Y-94486261D02*
X160625231Y-94420479D01*
X160673793Y-94370540D01*
X160741908Y-94336374D01*
X160829651Y-94317907D01*
X160843351Y-94316583D01*
X160939939Y-94315546D01*
X161024602Y-94328993D01*
X161093221Y-94356108D01*
X161115294Y-94370627D01*
X161162011Y-94421201D01*
X161192268Y-94485609D01*
X161204824Y-94557666D01*
X161198439Y-94631185D01*
X161178772Y-94687072D01*
X161145629Y-94735132D01*
X161102175Y-94774412D01*
X161101158Y-94775092D01*
X161074338Y-94791044D01*
X161047368Y-94801410D01*
X161013332Y-94807688D01*
X160965310Y-94811373D01*
X160925931Y-94812997D01*
X160890219Y-94813672D01*
X160890219Y-94687955D01*
X160925770Y-94686726D01*
X160973094Y-94682266D01*
X161003465Y-94674397D01*
X161025072Y-94660207D01*
X161037694Y-94646917D01*
X161064122Y-94599802D01*
X161067653Y-94550505D01*
X161048639Y-94504593D01*
X161027331Y-94481638D01*
X161005859Y-94465096D01*
X160985313Y-94455421D01*
X160958574Y-94451174D01*
X160918523Y-94450920D01*
X160881638Y-94452228D01*
X160828947Y-94455043D01*
X160794772Y-94459505D01*
X160772480Y-94467548D01*
X160755442Y-94481103D01*
X160745703Y-94491845D01*
X160720123Y-94536777D01*
X160718847Y-94585249D01*
X160733999Y-94625894D01*
X160765642Y-94660567D01*
X160817620Y-94681224D01*
X160890219Y-94687955D01*
X160890219Y-94813672D01*
X160847621Y-94814479D01*
X160789056Y-94811948D01*
X160745007Y-94804362D01*
X160710248Y-94790681D01*
X160679551Y-94769865D01*
X160670436Y-94762147D01*
X160625021Y-94713889D01*
X160598493Y-94662128D01*
X160587379Y-94598828D01*
X160586471Y-94567961D01*
X160596148Y-94486261D01*
X160596148Y-94486261D01*
G37*
X160596148Y-94486261D02*
X160625231Y-94420479D01*
X160673793Y-94370540D01*
X160741908Y-94336374D01*
X160829651Y-94317907D01*
X160843351Y-94316583D01*
X160939939Y-94315546D01*
X161024602Y-94328993D01*
X161093221Y-94356108D01*
X161115294Y-94370627D01*
X161162011Y-94421201D01*
X161192268Y-94485609D01*
X161204824Y-94557666D01*
X161198439Y-94631185D01*
X161178772Y-94687072D01*
X161145629Y-94735132D01*
X161102175Y-94774412D01*
X161101158Y-94775092D01*
X161074338Y-94791044D01*
X161047368Y-94801410D01*
X161013332Y-94807688D01*
X160965310Y-94811373D01*
X160925931Y-94812997D01*
X160890219Y-94813672D01*
X160890219Y-94687955D01*
X160925770Y-94686726D01*
X160973094Y-94682266D01*
X161003465Y-94674397D01*
X161025072Y-94660207D01*
X161037694Y-94646917D01*
X161064122Y-94599802D01*
X161067653Y-94550505D01*
X161048639Y-94504593D01*
X161027331Y-94481638D01*
X161005859Y-94465096D01*
X160985313Y-94455421D01*
X160958574Y-94451174D01*
X160918523Y-94450920D01*
X160881638Y-94452228D01*
X160828947Y-94455043D01*
X160794772Y-94459505D01*
X160772480Y-94467548D01*
X160755442Y-94481103D01*
X160745703Y-94491845D01*
X160720123Y-94536777D01*
X160718847Y-94585249D01*
X160733999Y-94625894D01*
X160765642Y-94660567D01*
X160817620Y-94681224D01*
X160890219Y-94687955D01*
X160890219Y-94813672D01*
X160847621Y-94814479D01*
X160789056Y-94811948D01*
X160745007Y-94804362D01*
X160710248Y-94790681D01*
X160679551Y-94769865D01*
X160670436Y-94762147D01*
X160625021Y-94713889D01*
X160598493Y-94662128D01*
X160587379Y-94598828D01*
X160586471Y-94567961D01*
X160596148Y-94486261D01*
G36*
X160603614Y-93304699D02*
X160609514Y-93292168D01*
X160641283Y-93248799D01*
X160687646Y-93207790D01*
X160738696Y-93177168D01*
X160762166Y-93168459D01*
X160804091Y-93160512D01*
X160854757Y-93155774D01*
X160875679Y-93155199D01*
X160941693Y-93155129D01*
X160941693Y-93535083D01*
X160976273Y-93526983D01*
X161017170Y-93507104D01*
X161052514Y-93472347D01*
X161075282Y-93430998D01*
X161080010Y-93404649D01*
X161074273Y-93368916D01*
X161059882Y-93326282D01*
X161053262Y-93311799D01*
X161026513Y-93258240D01*
X161061376Y-93212533D01*
X161084955Y-93186158D01*
X161104417Y-93172124D01*
X161110129Y-93171414D01*
X161123973Y-93183951D01*
X161145012Y-93211428D01*
X161161425Y-93236366D01*
X161190930Y-93303664D01*
X161204284Y-93379110D01*
X161200812Y-93453888D01*
X161182663Y-93513495D01*
X161143784Y-93574941D01*
X161092595Y-93618608D01*
X161026367Y-93645926D01*
X160942371Y-93658322D01*
X160903936Y-93659421D01*
X160815861Y-93655022D01*
X160813299Y-93654482D01*
X160813299Y-93528582D01*
X160821558Y-93525115D01*
X160826113Y-93510863D01*
X160828065Y-93481470D01*
X160828517Y-93432575D01*
X160828525Y-93413748D01*
X160827843Y-93356467D01*
X160825364Y-93320141D01*
X160820443Y-93300604D01*
X160812434Y-93293690D01*
X160809862Y-93293445D01*
X160789423Y-93301336D01*
X160760789Y-93321085D01*
X160750763Y-93329575D01*
X160722408Y-93361094D01*
X160711259Y-93393949D01*
X160710327Y-93411651D01*
X160721981Y-93459539D01*
X160753285Y-93499699D01*
X160798752Y-93525173D01*
X160800233Y-93525625D01*
X160813299Y-93528582D01*
X160813299Y-93654482D01*
X160746510Y-93640392D01*
X160691025Y-93614038D01*
X160651639Y-93581807D01*
X160608931Y-93522217D01*
X160586109Y-93452168D01*
X160584046Y-93377661D01*
X160603614Y-93304699D01*
X160603614Y-93304699D01*
G37*
X160603614Y-93304699D02*
X160609514Y-93292168D01*
X160641283Y-93248799D01*
X160687646Y-93207790D01*
X160738696Y-93177168D01*
X160762166Y-93168459D01*
X160804091Y-93160512D01*
X160854757Y-93155774D01*
X160875679Y-93155199D01*
X160941693Y-93155129D01*
X160941693Y-93535083D01*
X160976273Y-93526983D01*
X161017170Y-93507104D01*
X161052514Y-93472347D01*
X161075282Y-93430998D01*
X161080010Y-93404649D01*
X161074273Y-93368916D01*
X161059882Y-93326282D01*
X161053262Y-93311799D01*
X161026513Y-93258240D01*
X161061376Y-93212533D01*
X161084955Y-93186158D01*
X161104417Y-93172124D01*
X161110129Y-93171414D01*
X161123973Y-93183951D01*
X161145012Y-93211428D01*
X161161425Y-93236366D01*
X161190930Y-93303664D01*
X161204284Y-93379110D01*
X161200812Y-93453888D01*
X161182663Y-93513495D01*
X161143784Y-93574941D01*
X161092595Y-93618608D01*
X161026367Y-93645926D01*
X160942371Y-93658322D01*
X160903936Y-93659421D01*
X160815861Y-93655022D01*
X160813299Y-93654482D01*
X160813299Y-93528582D01*
X160821558Y-93525115D01*
X160826113Y-93510863D01*
X160828065Y-93481470D01*
X160828517Y-93432575D01*
X160828525Y-93413748D01*
X160827843Y-93356467D01*
X160825364Y-93320141D01*
X160820443Y-93300604D01*
X160812434Y-93293690D01*
X160809862Y-93293445D01*
X160789423Y-93301336D01*
X160760789Y-93321085D01*
X160750763Y-93329575D01*
X160722408Y-93361094D01*
X160711259Y-93393949D01*
X160710327Y-93411651D01*
X160721981Y-93459539D01*
X160753285Y-93499699D01*
X160798752Y-93525173D01*
X160800233Y-93525625D01*
X160813299Y-93528582D01*
X160813299Y-93654482D01*
X160746510Y-93640392D01*
X160691025Y-93614038D01*
X160651639Y-93581807D01*
X160608931Y-93522217D01*
X160586109Y-93452168D01*
X160584046Y-93377661D01*
X160603614Y-93304699D01*
G36*
X160587452Y-91933983D02*
X160596482Y-91886366D01*
X160615370Y-91836966D01*
X160617777Y-91831688D01*
X160637476Y-91794226D01*
X160655781Y-91768283D01*
X160667508Y-91759897D01*
X160686632Y-91767883D01*
X160714850Y-91787280D01*
X160725384Y-91795890D01*
X160766847Y-91831372D01*
X160739858Y-91877115D01*
X160721878Y-91920650D01*
X160712267Y-91970950D01*
X160711660Y-92019188D01*
X160720691Y-92056533D01*
X160726327Y-92065495D01*
X160752171Y-92082563D01*
X160781941Y-92084637D01*
X160805197Y-92071866D01*
X160809708Y-92064312D01*
X160815309Y-92041675D01*
X160821892Y-92001885D01*
X160828183Y-91952834D01*
X160829170Y-91943785D01*
X160842798Y-91865004D01*
X160865946Y-91807864D01*
X160900752Y-91769970D01*
X160949354Y-91748921D01*
X161008718Y-91742365D01*
X161076198Y-91751423D01*
X161129188Y-91780836D01*
X161167783Y-91830722D01*
X161192081Y-91901200D01*
X161201667Y-91979435D01*
X161201552Y-92043234D01*
X161192845Y-92094984D01*
X161180825Y-92130327D01*
X161159880Y-92174983D01*
X161135574Y-92216253D01*
X161124876Y-92230921D01*
X161094084Y-92268643D01*
X161048049Y-92223148D01*
X161002013Y-92177653D01*
X161036243Y-92125928D01*
X161061952Y-92074048D01*
X161075399Y-92018649D01*
X161076818Y-91965395D01*
X161066443Y-91919951D01*
X161044507Y-91887984D01*
X161025998Y-91877662D01*
X160996314Y-91879211D01*
X160973615Y-91904860D01*
X160957940Y-91954540D01*
X160950695Y-92008969D01*
X160936873Y-92092736D01*
X160910796Y-92154967D01*
X160871699Y-92196493D01*
X160818820Y-92218147D01*
X160756126Y-92221147D01*
X160690642Y-92206329D01*
X160641144Y-92172546D01*
X160607408Y-92119495D01*
X160589207Y-92046874D01*
X160585639Y-91993072D01*
X160587452Y-91933983D01*
X160587452Y-91933983D01*
G37*
X160587452Y-91933983D02*
X160596482Y-91886366D01*
X160615370Y-91836966D01*
X160617777Y-91831688D01*
X160637476Y-91794226D01*
X160655781Y-91768283D01*
X160667508Y-91759897D01*
X160686632Y-91767883D01*
X160714850Y-91787280D01*
X160725384Y-91795890D01*
X160766847Y-91831372D01*
X160739858Y-91877115D01*
X160721878Y-91920650D01*
X160712267Y-91970950D01*
X160711660Y-92019188D01*
X160720691Y-92056533D01*
X160726327Y-92065495D01*
X160752171Y-92082563D01*
X160781941Y-92084637D01*
X160805197Y-92071866D01*
X160809708Y-92064312D01*
X160815309Y-92041675D01*
X160821892Y-92001885D01*
X160828183Y-91952834D01*
X160829170Y-91943785D01*
X160842798Y-91865004D01*
X160865946Y-91807864D01*
X160900752Y-91769970D01*
X160949354Y-91748921D01*
X161008718Y-91742365D01*
X161076198Y-91751423D01*
X161129188Y-91780836D01*
X161167783Y-91830722D01*
X161192081Y-91901200D01*
X161201667Y-91979435D01*
X161201552Y-92043234D01*
X161192845Y-92094984D01*
X161180825Y-92130327D01*
X161159880Y-92174983D01*
X161135574Y-92216253D01*
X161124876Y-92230921D01*
X161094084Y-92268643D01*
X161048049Y-92223148D01*
X161002013Y-92177653D01*
X161036243Y-92125928D01*
X161061952Y-92074048D01*
X161075399Y-92018649D01*
X161076818Y-91965395D01*
X161066443Y-91919951D01*
X161044507Y-91887984D01*
X161025998Y-91877662D01*
X160996314Y-91879211D01*
X160973615Y-91904860D01*
X160957940Y-91954540D01*
X160950695Y-92008969D01*
X160936873Y-92092736D01*
X160910796Y-92154967D01*
X160871699Y-92196493D01*
X160818820Y-92218147D01*
X160756126Y-92221147D01*
X160690642Y-92206329D01*
X160641144Y-92172546D01*
X160607408Y-92119495D01*
X160589207Y-92046874D01*
X160585639Y-91993072D01*
X160587452Y-91933983D01*
G36*
X160597055Y-91337238D02*
X160631692Y-91273637D01*
X160686372Y-91223877D01*
X160730842Y-91200432D01*
X160770121Y-91190366D01*
X160826116Y-91183844D01*
X160890621Y-91181049D01*
X160955429Y-91182164D01*
X161012334Y-91187374D01*
X161042727Y-91193459D01*
X161084306Y-91213986D01*
X161128468Y-91249537D01*
X161167087Y-91292381D01*
X161192034Y-91334789D01*
X161192430Y-91335823D01*
X161203331Y-91388447D01*
X161203601Y-91450812D01*
X161193676Y-91510076D01*
X161185722Y-91532960D01*
X161152300Y-91591898D01*
X161108511Y-91634110D01*
X161050538Y-91661844D01*
X160974565Y-91677349D01*
X160934771Y-91680857D01*
X160884766Y-91680410D01*
X160884766Y-91545624D01*
X160957732Y-91541083D01*
X161013334Y-91528014D01*
X161048861Y-91507244D01*
X161059020Y-91492448D01*
X161066104Y-91454536D01*
X161064007Y-91409473D01*
X161053812Y-91370513D01*
X161048204Y-91360296D01*
X161015538Y-91333341D01*
X160965545Y-91315549D01*
X160904705Y-91307976D01*
X160839497Y-91311675D01*
X160800253Y-91319943D01*
X160754805Y-91343680D01*
X160726396Y-91381151D01*
X160716573Y-91426280D01*
X160726887Y-91472989D01*
X160752112Y-91508868D01*
X160772925Y-91527723D01*
X160793439Y-91538728D01*
X160821203Y-91543974D01*
X160863762Y-91545551D01*
X160884766Y-91545624D01*
X160884766Y-91680410D01*
X160828580Y-91679906D01*
X160741501Y-91662612D01*
X160673530Y-91628971D01*
X160624664Y-91578982D01*
X160594899Y-91512644D01*
X160591448Y-91498399D01*
X160583345Y-91412790D01*
X160597055Y-91337238D01*
X160597055Y-91337238D01*
G37*
X160597055Y-91337238D02*
X160631692Y-91273637D01*
X160686372Y-91223877D01*
X160730842Y-91200432D01*
X160770121Y-91190366D01*
X160826116Y-91183844D01*
X160890621Y-91181049D01*
X160955429Y-91182164D01*
X161012334Y-91187374D01*
X161042727Y-91193459D01*
X161084306Y-91213986D01*
X161128468Y-91249537D01*
X161167087Y-91292381D01*
X161192034Y-91334789D01*
X161192430Y-91335823D01*
X161203331Y-91388447D01*
X161203601Y-91450812D01*
X161193676Y-91510076D01*
X161185722Y-91532960D01*
X161152300Y-91591898D01*
X161108511Y-91634110D01*
X161050538Y-91661844D01*
X160974565Y-91677349D01*
X160934771Y-91680857D01*
X160884766Y-91680410D01*
X160884766Y-91545624D01*
X160957732Y-91541083D01*
X161013334Y-91528014D01*
X161048861Y-91507244D01*
X161059020Y-91492448D01*
X161066104Y-91454536D01*
X161064007Y-91409473D01*
X161053812Y-91370513D01*
X161048204Y-91360296D01*
X161015538Y-91333341D01*
X160965545Y-91315549D01*
X160904705Y-91307976D01*
X160839497Y-91311675D01*
X160800253Y-91319943D01*
X160754805Y-91343680D01*
X160726396Y-91381151D01*
X160716573Y-91426280D01*
X160726887Y-91472989D01*
X160752112Y-91508868D01*
X160772925Y-91527723D01*
X160793439Y-91538728D01*
X160821203Y-91543974D01*
X160863762Y-91545551D01*
X160884766Y-91545624D01*
X160884766Y-91680410D01*
X160828580Y-91679906D01*
X160741501Y-91662612D01*
X160673530Y-91628971D01*
X160624664Y-91578982D01*
X160594899Y-91512644D01*
X160591448Y-91498399D01*
X160583345Y-91412790D01*
X160597055Y-91337238D01*
G36*
X160785342Y-90954633D02*
X160877563Y-90953445D01*
X160947610Y-90949103D01*
X160998381Y-90940442D01*
X161032772Y-90926296D01*
X161053679Y-90905500D01*
X161064000Y-90876890D01*
X161066636Y-90841465D01*
X161063682Y-90804364D01*
X161052889Y-90776182D01*
X161031360Y-90755757D01*
X160996199Y-90741921D01*
X160944510Y-90733509D01*
X160873394Y-90729357D01*
X160785342Y-90728297D01*
X160589614Y-90728297D01*
X160589614Y-90589980D01*
X161193179Y-90589980D01*
X161193179Y-90659138D01*
X161191489Y-90700830D01*
X161185556Y-90722299D01*
X161174293Y-90728297D01*
X161164261Y-90731909D01*
X161166383Y-90746286D01*
X161180580Y-90775264D01*
X161202480Y-90841681D01*
X161200928Y-90912125D01*
X161177147Y-90979623D01*
X161158362Y-91011767D01*
X161138022Y-91036285D01*
X161112573Y-91054196D01*
X161078458Y-91066521D01*
X161032121Y-91074277D01*
X160970007Y-91078484D01*
X160888561Y-91080160D01*
X160825578Y-91080376D01*
X160589614Y-91080376D01*
X160589614Y-90954633D01*
X160785342Y-90954633D01*
X160785342Y-90954633D01*
G37*
X160785342Y-90954633D02*
X160877563Y-90953445D01*
X160947610Y-90949103D01*
X160998381Y-90940442D01*
X161032772Y-90926296D01*
X161053679Y-90905500D01*
X161064000Y-90876890D01*
X161066636Y-90841465D01*
X161063682Y-90804364D01*
X161052889Y-90776182D01*
X161031360Y-90755757D01*
X160996199Y-90741921D01*
X160944510Y-90733509D01*
X160873394Y-90729357D01*
X160785342Y-90728297D01*
X160589614Y-90728297D01*
X160589614Y-90589980D01*
X161193179Y-90589980D01*
X161193179Y-90659138D01*
X161191489Y-90700830D01*
X161185556Y-90722299D01*
X161174293Y-90728297D01*
X161164261Y-90731909D01*
X161166383Y-90746286D01*
X161180580Y-90775264D01*
X161202480Y-90841681D01*
X161200928Y-90912125D01*
X161177147Y-90979623D01*
X161158362Y-91011767D01*
X161138022Y-91036285D01*
X161112573Y-91054196D01*
X161078458Y-91066521D01*
X161032121Y-91074277D01*
X160970007Y-91078484D01*
X160888561Y-91080160D01*
X160825578Y-91080376D01*
X160589614Y-91080376D01*
X160589614Y-90954633D01*
X160785342Y-90954633D01*
G36*
X160594880Y-89730774D02*
X160625830Y-89657920D01*
X160640895Y-89634973D01*
X160664048Y-89605646D01*
X160682253Y-89587236D01*
X160688183Y-89584039D01*
X160701340Y-89593065D01*
X160723667Y-89616163D01*
X160739250Y-89634656D01*
X160779926Y-89685272D01*
X160746295Y-89725240D01*
X160724584Y-89756126D01*
X160717090Y-89786241D01*
X160718920Y-89820708D01*
X160732528Y-89875439D01*
X160760772Y-89913114D01*
X160806433Y-89936009D01*
X160872289Y-89946403D01*
X160872331Y-89946405D01*
X160945939Y-89945506D01*
X160999946Y-89931537D01*
X161036716Y-89903672D01*
X161049168Y-89884675D01*
X161064673Y-89834224D01*
X161064683Y-89780337D01*
X161049638Y-89733454D01*
X161042287Y-89722356D01*
X161023511Y-89694524D01*
X161020434Y-89672764D01*
X161034409Y-89649296D01*
X161059510Y-89623351D01*
X161101880Y-89582284D01*
X161139464Y-89627879D01*
X161181882Y-89698326D01*
X161202785Y-89777767D01*
X161201272Y-89860785D01*
X161187411Y-89915306D01*
X161153135Y-89979030D01*
X161099212Y-90029995D01*
X161061149Y-90053149D01*
X161006536Y-90071901D01*
X160937369Y-90081285D01*
X160862407Y-90081357D01*
X160790409Y-90072176D01*
X160730137Y-90053801D01*
X160723958Y-90050907D01*
X160663351Y-90008048D01*
X160619224Y-89950021D01*
X160592493Y-89881409D01*
X160584073Y-89806799D01*
X160594880Y-89730774D01*
X160594880Y-89730774D01*
G37*
X160594880Y-89730774D02*
X160625830Y-89657920D01*
X160640895Y-89634973D01*
X160664048Y-89605646D01*
X160682253Y-89587236D01*
X160688183Y-89584039D01*
X160701340Y-89593065D01*
X160723667Y-89616163D01*
X160739250Y-89634656D01*
X160779926Y-89685272D01*
X160746295Y-89725240D01*
X160724584Y-89756126D01*
X160717090Y-89786241D01*
X160718920Y-89820708D01*
X160732528Y-89875439D01*
X160760772Y-89913114D01*
X160806433Y-89936009D01*
X160872289Y-89946403D01*
X160872331Y-89946405D01*
X160945939Y-89945506D01*
X160999946Y-89931537D01*
X161036716Y-89903672D01*
X161049168Y-89884675D01*
X161064673Y-89834224D01*
X161064683Y-89780337D01*
X161049638Y-89733454D01*
X161042287Y-89722356D01*
X161023511Y-89694524D01*
X161020434Y-89672764D01*
X161034409Y-89649296D01*
X161059510Y-89623351D01*
X161101880Y-89582284D01*
X161139464Y-89627879D01*
X161181882Y-89698326D01*
X161202785Y-89777767D01*
X161201272Y-89860785D01*
X161187411Y-89915306D01*
X161153135Y-89979030D01*
X161099212Y-90029995D01*
X161061149Y-90053149D01*
X161006536Y-90071901D01*
X160937369Y-90081285D01*
X160862407Y-90081357D01*
X160790409Y-90072176D01*
X160730137Y-90053801D01*
X160723958Y-90050907D01*
X160663351Y-90008048D01*
X160619224Y-89950021D01*
X160592493Y-89881409D01*
X160584073Y-89806799D01*
X160594880Y-89730774D01*
G36*
X160587457Y-89270102D02*
X160595279Y-89237904D01*
X160623921Y-89176175D01*
X160667667Y-89123390D01*
X160720117Y-89086859D01*
X160731893Y-89081840D01*
X160762740Y-89074955D01*
X160808371Y-89070136D01*
X160854492Y-89068495D01*
X160941693Y-89068495D01*
X160941693Y-89250822D01*
X160941978Y-89326021D01*
X160943704Y-89378997D01*
X160948181Y-89412675D01*
X160956720Y-89429980D01*
X160970630Y-89433837D01*
X160991222Y-89427171D01*
X161015315Y-89415230D01*
X161055525Y-89381920D01*
X161075558Y-89335632D01*
X161074905Y-89279056D01*
X161053101Y-89214969D01*
X161026193Y-89159583D01*
X161062532Y-89113625D01*
X161098872Y-89067667D01*
X161138819Y-89110904D01*
X161176563Y-89168626D01*
X161199320Y-89239614D01*
X161205688Y-89315971D01*
X161194268Y-89389801D01*
X161190393Y-89401713D01*
X161156506Y-89466601D01*
X161105986Y-89514870D01*
X161037325Y-89547535D01*
X160949014Y-89565615D01*
X160947121Y-89565825D01*
X160850878Y-89567444D01*
X160816542Y-89560900D01*
X160816542Y-89433148D01*
X160821822Y-89421416D01*
X160825867Y-89389562D01*
X160828176Y-89342603D01*
X160828525Y-89312846D01*
X160828306Y-89257352D01*
X160826916Y-89222654D01*
X160823251Y-89204399D01*
X160816210Y-89198234D01*
X160804690Y-89199805D01*
X160800233Y-89201122D01*
X160758355Y-89223618D01*
X160724604Y-89258997D01*
X160709773Y-89290220D01*
X160710668Y-89331699D01*
X160729164Y-89373731D01*
X160759786Y-89408988D01*
X160797062Y-89430146D01*
X160816542Y-89433148D01*
X160816542Y-89560900D01*
X160766229Y-89551310D01*
X160695191Y-89519302D01*
X160639779Y-89473299D01*
X160602009Y-89415179D01*
X160583896Y-89346820D01*
X160587457Y-89270102D01*
X160587457Y-89270102D01*
G37*
X160587457Y-89270102D02*
X160595279Y-89237904D01*
X160623921Y-89176175D01*
X160667667Y-89123390D01*
X160720117Y-89086859D01*
X160731893Y-89081840D01*
X160762740Y-89074955D01*
X160808371Y-89070136D01*
X160854492Y-89068495D01*
X160941693Y-89068495D01*
X160941693Y-89250822D01*
X160941978Y-89326021D01*
X160943704Y-89378997D01*
X160948181Y-89412675D01*
X160956720Y-89429980D01*
X160970630Y-89433837D01*
X160991222Y-89427171D01*
X161015315Y-89415230D01*
X161055525Y-89381920D01*
X161075558Y-89335632D01*
X161074905Y-89279056D01*
X161053101Y-89214969D01*
X161026193Y-89159583D01*
X161062532Y-89113625D01*
X161098872Y-89067667D01*
X161138819Y-89110904D01*
X161176563Y-89168626D01*
X161199320Y-89239614D01*
X161205688Y-89315971D01*
X161194268Y-89389801D01*
X161190393Y-89401713D01*
X161156506Y-89466601D01*
X161105986Y-89514870D01*
X161037325Y-89547535D01*
X160949014Y-89565615D01*
X160947121Y-89565825D01*
X160850878Y-89567444D01*
X160816542Y-89560900D01*
X160816542Y-89433148D01*
X160821822Y-89421416D01*
X160825867Y-89389562D01*
X160828176Y-89342603D01*
X160828525Y-89312846D01*
X160828306Y-89257352D01*
X160826916Y-89222654D01*
X160823251Y-89204399D01*
X160816210Y-89198234D01*
X160804690Y-89199805D01*
X160800233Y-89201122D01*
X160758355Y-89223618D01*
X160724604Y-89258997D01*
X160709773Y-89290220D01*
X160710668Y-89331699D01*
X160729164Y-89373731D01*
X160759786Y-89408988D01*
X160797062Y-89430146D01*
X160816542Y-89433148D01*
X160816542Y-89560900D01*
X160766229Y-89551310D01*
X160695191Y-89519302D01*
X160639779Y-89473299D01*
X160602009Y-89415179D01*
X160583896Y-89346820D01*
X160587457Y-89270102D01*
G36*
X160600002Y-92702012D02*
X160614950Y-92670717D01*
X160636541Y-92640409D01*
X160661391Y-92617318D01*
X160693087Y-92600500D01*
X160735214Y-92589006D01*
X160791358Y-92581891D01*
X160865106Y-92578207D01*
X160960044Y-92577008D01*
X160969985Y-92576989D01*
X161193179Y-92576713D01*
X161193179Y-92715030D01*
X160987418Y-92715030D01*
X160911189Y-92715128D01*
X160855939Y-92715809D01*
X160817501Y-92717651D01*
X160791706Y-92721233D01*
X160774384Y-92727132D01*
X160761368Y-92735927D01*
X160748507Y-92748180D01*
X160720873Y-92791047D01*
X160715745Y-92837843D01*
X160733217Y-92882424D01*
X160746221Y-92897928D01*
X160758447Y-92909310D01*
X160771540Y-92917481D01*
X160789615Y-92922974D01*
X160816787Y-92926320D01*
X160857170Y-92928051D01*
X160914879Y-92928697D01*
X160985132Y-92928792D01*
X161193179Y-92928792D01*
X161193179Y-93067109D01*
X160589614Y-93067109D01*
X160589614Y-92997950D01*
X160591256Y-92956428D01*
X160597087Y-92935006D01*
X160608461Y-92928795D01*
X160608798Y-92928792D01*
X160619938Y-92925910D01*
X160618674Y-92913199D01*
X160606434Y-92887926D01*
X160588424Y-92830605D01*
X160586421Y-92765037D01*
X160600002Y-92702012D01*
X160600002Y-92702012D01*
G37*
X160600002Y-92702012D02*
X160614950Y-92670717D01*
X160636541Y-92640409D01*
X160661391Y-92617318D01*
X160693087Y-92600500D01*
X160735214Y-92589006D01*
X160791358Y-92581891D01*
X160865106Y-92578207D01*
X160960044Y-92577008D01*
X160969985Y-92576989D01*
X161193179Y-92576713D01*
X161193179Y-92715030D01*
X160987418Y-92715030D01*
X160911189Y-92715128D01*
X160855939Y-92715809D01*
X160817501Y-92717651D01*
X160791706Y-92721233D01*
X160774384Y-92727132D01*
X160761368Y-92735927D01*
X160748507Y-92748180D01*
X160720873Y-92791047D01*
X160715745Y-92837843D01*
X160733217Y-92882424D01*
X160746221Y-92897928D01*
X160758447Y-92909310D01*
X160771540Y-92917481D01*
X160789615Y-92922974D01*
X160816787Y-92926320D01*
X160857170Y-92928051D01*
X160914879Y-92928697D01*
X160985132Y-92928792D01*
X161193179Y-92928792D01*
X161193179Y-93067109D01*
X160589614Y-93067109D01*
X160589614Y-92997950D01*
X160591256Y-92956428D01*
X160597087Y-92935006D01*
X160608461Y-92928795D01*
X160608798Y-92928792D01*
X160619938Y-92925910D01*
X160618674Y-92913199D01*
X160606434Y-92887926D01*
X160588424Y-92830605D01*
X160586421Y-92765037D01*
X160600002Y-92702012D01*
G36*
X160589030Y-90148540D02*
X160602245Y-90105289D01*
X160618941Y-90077442D01*
X160632145Y-90068371D01*
X160647797Y-90070868D01*
X160672385Y-90087069D01*
X160689800Y-90100768D01*
X160721283Y-90129008D01*
X160734529Y-90150225D01*
X160733664Y-90168312D01*
X160720010Y-90221965D01*
X160720630Y-90261370D01*
X160736104Y-90293368D01*
X160745161Y-90304110D01*
X160777027Y-90338495D01*
X161193179Y-90338495D01*
X161193179Y-90476812D01*
X160589614Y-90476812D01*
X160589614Y-90407653D01*
X160591256Y-90366131D01*
X160597087Y-90344709D01*
X160608461Y-90338498D01*
X160608798Y-90338495D01*
X160620713Y-90335561D01*
X160619159Y-90322296D01*
X160610563Y-90303916D01*
X160594568Y-90265954D01*
X160584945Y-90235128D01*
X160582478Y-90195464D01*
X160589030Y-90148540D01*
X160589030Y-90148540D01*
G37*
X160589030Y-90148540D02*
X160602245Y-90105289D01*
X160618941Y-90077442D01*
X160632145Y-90068371D01*
X160647797Y-90070868D01*
X160672385Y-90087069D01*
X160689800Y-90100768D01*
X160721283Y-90129008D01*
X160734529Y-90150225D01*
X160733664Y-90168312D01*
X160720010Y-90221965D01*
X160720630Y-90261370D01*
X160736104Y-90293368D01*
X160745161Y-90304110D01*
X160777027Y-90338495D01*
X161193179Y-90338495D01*
X161193179Y-90476812D01*
X160589614Y-90476812D01*
X160589614Y-90407653D01*
X160591256Y-90366131D01*
X160597087Y-90344709D01*
X160608461Y-90338498D01*
X160608798Y-90338495D01*
X160620713Y-90335561D01*
X160619159Y-90322296D01*
X160610563Y-90303916D01*
X160594568Y-90265954D01*
X160584945Y-90235128D01*
X160582478Y-90195464D01*
X160589030Y-90148540D01*
G36*
X156421018Y-91571036D02*
X156722570Y-91514188D01*
X156895512Y-91094662D01*
X156724395Y-90843016D01*
X156676750Y-90772542D01*
X156634210Y-90708837D01*
X156598715Y-90654874D01*
X156572210Y-90613627D01*
X156556636Y-90588066D01*
X156553278Y-90581105D01*
X156561914Y-90568565D01*
X156585792Y-90541769D01*
X156621859Y-90503720D01*
X156667067Y-90457421D01*
X156718364Y-90405877D01*
X156772701Y-90352091D01*
X156827028Y-90299065D01*
X156878295Y-90249805D01*
X156923451Y-90207313D01*
X156959446Y-90174593D01*
X156983230Y-90154649D01*
X156991190Y-90149881D01*
X157005865Y-90156743D01*
X157038014Y-90175980D01*
X157084492Y-90205570D01*
X157142156Y-90243490D01*
X157207860Y-90287718D01*
X157245336Y-90313346D01*
X157313768Y-90360059D01*
X157375520Y-90401568D01*
X157427519Y-90435860D01*
X157466692Y-90460920D01*
X157489965Y-90474736D01*
X157494855Y-90476812D01*
X157508755Y-90472105D01*
X157541150Y-90459277D01*
X157587485Y-90440262D01*
X157643206Y-90416997D01*
X157703758Y-90391416D01*
X157764586Y-90365455D01*
X157821136Y-90341050D01*
X157868852Y-90320137D01*
X157903181Y-90304651D01*
X157919568Y-90296528D01*
X157920212Y-90296048D01*
X157923341Y-90283293D01*
X157930321Y-90249323D01*
X157940467Y-90197660D01*
X157953092Y-90131824D01*
X157967509Y-90055336D01*
X157975823Y-90010710D01*
X157991384Y-89928979D01*
X158006192Y-89855157D01*
X158019436Y-89792979D01*
X158030305Y-89746178D01*
X158037989Y-89718491D01*
X158040427Y-89712926D01*
X158056930Y-89707474D01*
X158094200Y-89703076D01*
X158147880Y-89699728D01*
X158213612Y-89697426D01*
X158287037Y-89696168D01*
X158363796Y-89695952D01*
X158439532Y-89696773D01*
X158509886Y-89698629D01*
X158570500Y-89701518D01*
X158617016Y-89705435D01*
X158645075Y-89710378D01*
X158650916Y-89713343D01*
X158657917Y-89731066D01*
X158667927Y-89768619D01*
X158679769Y-89821036D01*
X158692267Y-89883348D01*
X158696310Y-89905100D01*
X158715520Y-90009976D01*
X158730991Y-90092820D01*
X158743337Y-90156370D01*
X158753173Y-90203363D01*
X158761114Y-90236537D01*
X158767776Y-90258629D01*
X158773773Y-90272376D01*
X158779719Y-90280516D01*
X158780894Y-90281655D01*
X158799826Y-90293023D01*
X158836669Y-90310365D01*
X158886913Y-90331950D01*
X158946046Y-90356046D01*
X159009556Y-90380921D01*
X159072932Y-90404843D01*
X159131662Y-90426081D01*
X159181235Y-90442903D01*
X159217139Y-90453578D01*
X159234862Y-90456373D01*
X159235483Y-90456140D01*
X159249970Y-90446669D01*
X159281844Y-90425182D01*
X159327789Y-90393937D01*
X159384485Y-90355193D01*
X159448617Y-90311207D01*
X159466842Y-90298681D01*
X159532914Y-90254016D01*
X159593200Y-90214712D01*
X159644235Y-90182912D01*
X159682560Y-90160755D01*
X159704711Y-90150383D01*
X159707432Y-90149881D01*
X159721736Y-90158595D01*
X159750072Y-90182675D01*
X159789396Y-90219024D01*
X159836661Y-90264547D01*
X159888823Y-90316148D01*
X159942835Y-90370733D01*
X159995653Y-90425206D01*
X160044231Y-90476471D01*
X160085523Y-90521433D01*
X160116485Y-90556996D01*
X160134070Y-90580065D01*
X160136941Y-90586446D01*
X160130178Y-90601301D01*
X160111939Y-90631714D01*
X160085297Y-90672732D01*
X160063852Y-90704291D01*
X160024503Y-90761475D01*
X159978171Y-90829194D01*
X159931913Y-90897120D01*
X159907155Y-90933639D01*
X159823547Y-91057248D01*
X159879650Y-91161009D01*
X159904228Y-91208280D01*
X159923331Y-91248477D01*
X159934227Y-91275674D01*
X159935743Y-91282598D01*
X159924549Y-91290923D01*
X159892917Y-91307346D01*
X159843765Y-91330643D01*
X159780010Y-91359586D01*
X159704571Y-91392950D01*
X159620364Y-91429509D01*
X159530308Y-91468036D01*
X159437321Y-91507306D01*
X159344320Y-91546092D01*
X159254223Y-91583170D01*
X159169948Y-91617311D01*
X159094413Y-91647292D01*
X159030534Y-91671884D01*
X158981231Y-91689864D01*
X158949421Y-91700003D01*
X158938496Y-91701634D01*
X158924561Y-91688709D01*
X158901940Y-91660411D01*
X158875333Y-91622654D01*
X158873228Y-91619485D01*
X158795114Y-91521900D01*
X158703982Y-91443214D01*
X158602745Y-91384109D01*
X158494318Y-91345268D01*
X158381614Y-91327372D01*
X158267548Y-91331103D01*
X158155034Y-91357143D01*
X158046985Y-91406175D01*
X158023345Y-91420600D01*
X157927887Y-91495631D01*
X157851232Y-91584270D01*
X157793780Y-91683451D01*
X157755929Y-91790105D01*
X157738078Y-91901164D01*
X157740625Y-92013561D01*
X157763970Y-92124227D01*
X157808510Y-92230094D01*
X157874645Y-92328095D01*
X157901487Y-92358410D01*
X157985512Y-92435562D01*
X158073966Y-92491782D01*
X158173115Y-92530347D01*
X158271303Y-92551826D01*
X158381697Y-92557128D01*
X158492640Y-92539448D01*
X158600381Y-92500581D01*
X158701169Y-92442323D01*
X158791256Y-92366469D01*
X158866892Y-92274817D01*
X158874864Y-92262772D01*
X158900974Y-92224611D01*
X158923595Y-92195601D01*
X158938039Y-92181732D01*
X158938496Y-92181531D01*
X158954121Y-92184508D01*
X158989582Y-92196311D01*
X159041962Y-92215714D01*
X159108345Y-92241488D01*
X159185814Y-92272409D01*
X159271450Y-92307249D01*
X159362337Y-92344783D01*
X159455559Y-92383783D01*
X159548197Y-92423023D01*
X159637335Y-92461276D01*
X159720055Y-92497317D01*
X159793441Y-92529917D01*
X159854575Y-92557852D01*
X159900541Y-92579895D01*
X159928421Y-92594818D01*
X159935743Y-92600828D01*
X159930041Y-92619191D01*
X159914749Y-92653552D01*
X159892599Y-92697984D01*
X159879650Y-92722417D01*
X159823547Y-92826178D01*
X159907155Y-92949787D01*
X159949987Y-93012886D01*
X159997122Y-93081970D01*
X160041503Y-93146707D01*
X160063852Y-93179134D01*
X160094477Y-93224741D01*
X160118747Y-93263360D01*
X160133587Y-93289952D01*
X160136724Y-93298590D01*
X160128261Y-93311161D01*
X160104636Y-93338984D01*
X160068302Y-93379361D01*
X160021711Y-93429595D01*
X159967317Y-93486988D01*
X159932392Y-93523286D01*
X159869996Y-93586790D01*
X159814188Y-93641673D01*
X159767354Y-93685714D01*
X159731882Y-93716695D01*
X159710161Y-93732398D01*
X159705752Y-93733905D01*
X159688985Y-93726914D01*
X159655082Y-93707594D01*
X159607476Y-93678091D01*
X159549599Y-93640545D01*
X159484884Y-93597100D01*
X159466842Y-93584745D01*
X159401267Y-93539727D01*
X159342228Y-93499340D01*
X159293042Y-93465840D01*
X159257028Y-93441486D01*
X159237502Y-93428536D01*
X159235483Y-93427285D01*
X159219922Y-93429156D01*
X159185709Y-93439087D01*
X159137355Y-93455347D01*
X159079371Y-93476205D01*
X159016270Y-93499927D01*
X158952563Y-93524784D01*
X158892761Y-93549042D01*
X158841376Y-93570971D01*
X158802919Y-93588838D01*
X158781902Y-93600913D01*
X158780894Y-93601771D01*
X158774888Y-93609154D01*
X158768948Y-93621625D01*
X158762460Y-93641920D01*
X158754809Y-93672778D01*
X158745380Y-93716934D01*
X158733559Y-93777126D01*
X158718729Y-93856093D01*
X158700277Y-93956570D01*
X158696310Y-93978325D01*
X158683853Y-94042802D01*
X158671666Y-94099011D01*
X158660926Y-94141987D01*
X158652809Y-94166760D01*
X158650916Y-94170082D01*
X158634138Y-94175556D01*
X158596645Y-94180006D01*
X158542794Y-94183428D01*
X158476944Y-94185819D01*
X158403453Y-94187177D01*
X158326680Y-94187499D01*
X158250983Y-94186781D01*
X158180720Y-94185021D01*
X158120250Y-94182216D01*
X158073930Y-94178362D01*
X158046119Y-94173457D01*
X158040427Y-94170500D01*
X158034686Y-94154037D01*
X158025345Y-94116551D01*
X158013215Y-94061775D01*
X157999107Y-93993445D01*
X157983830Y-93915294D01*
X157975823Y-93872716D01*
X157960721Y-93791929D01*
X157947040Y-93719887D01*
X157935467Y-93660111D01*
X157926687Y-93616121D01*
X157921387Y-93591439D01*
X157920212Y-93587377D01*
X157906965Y-93580511D01*
X157875057Y-93565998D01*
X157829047Y-93545771D01*
X157773492Y-93521766D01*
X157712953Y-93495918D01*
X157651986Y-93470160D01*
X157595151Y-93446427D01*
X157547006Y-93426654D01*
X157512110Y-93412776D01*
X157495021Y-93406726D01*
X157494274Y-93406614D01*
X157480793Y-93413472D01*
X157449770Y-93432698D01*
X157404289Y-93462272D01*
X157347432Y-93500173D01*
X157282283Y-93544380D01*
X157244862Y-93570079D01*
X157176247Y-93616907D01*
X157113952Y-93658499D01*
X157061129Y-93692825D01*
X157020927Y-93717857D01*
X156996500Y-93731565D01*
X156991024Y-93733544D01*
X156978278Y-93725034D01*
X156951063Y-93701507D01*
X156912428Y-93665968D01*
X156865423Y-93621423D01*
X156813095Y-93570877D01*
X156758495Y-93517336D01*
X156704670Y-93463805D01*
X156654670Y-93413289D01*
X156611543Y-93368794D01*
X156578339Y-93333325D01*
X156558106Y-93309887D01*
X156553278Y-93302046D01*
X156560067Y-93289280D01*
X156579142Y-93258744D01*
X156608561Y-93213410D01*
X156646381Y-93156244D01*
X156690661Y-93090216D01*
X156724395Y-93040410D01*
X156895512Y-92788764D01*
X156809041Y-92579001D01*
X156722570Y-92369237D01*
X156421018Y-92312389D01*
X156119466Y-92255540D01*
X156119466Y-91627885D01*
X156421018Y-91571036D01*
X156421018Y-91571036D01*
G37*
X156421018Y-91571036D02*
X156722570Y-91514188D01*
X156895512Y-91094662D01*
X156724395Y-90843016D01*
X156676750Y-90772542D01*
X156634210Y-90708837D01*
X156598715Y-90654874D01*
X156572210Y-90613627D01*
X156556636Y-90588066D01*
X156553278Y-90581105D01*
X156561914Y-90568565D01*
X156585792Y-90541769D01*
X156621859Y-90503720D01*
X156667067Y-90457421D01*
X156718364Y-90405877D01*
X156772701Y-90352091D01*
X156827028Y-90299065D01*
X156878295Y-90249805D01*
X156923451Y-90207313D01*
X156959446Y-90174593D01*
X156983230Y-90154649D01*
X156991190Y-90149881D01*
X157005865Y-90156743D01*
X157038014Y-90175980D01*
X157084492Y-90205570D01*
X157142156Y-90243490D01*
X157207860Y-90287718D01*
X157245336Y-90313346D01*
X157313768Y-90360059D01*
X157375520Y-90401568D01*
X157427519Y-90435860D01*
X157466692Y-90460920D01*
X157489965Y-90474736D01*
X157494855Y-90476812D01*
X157508755Y-90472105D01*
X157541150Y-90459277D01*
X157587485Y-90440262D01*
X157643206Y-90416997D01*
X157703758Y-90391416D01*
X157764586Y-90365455D01*
X157821136Y-90341050D01*
X157868852Y-90320137D01*
X157903181Y-90304651D01*
X157919568Y-90296528D01*
X157920212Y-90296048D01*
X157923341Y-90283293D01*
X157930321Y-90249323D01*
X157940467Y-90197660D01*
X157953092Y-90131824D01*
X157967509Y-90055336D01*
X157975823Y-90010710D01*
X157991384Y-89928979D01*
X158006192Y-89855157D01*
X158019436Y-89792979D01*
X158030305Y-89746178D01*
X158037989Y-89718491D01*
X158040427Y-89712926D01*
X158056930Y-89707474D01*
X158094200Y-89703076D01*
X158147880Y-89699728D01*
X158213612Y-89697426D01*
X158287037Y-89696168D01*
X158363796Y-89695952D01*
X158439532Y-89696773D01*
X158509886Y-89698629D01*
X158570500Y-89701518D01*
X158617016Y-89705435D01*
X158645075Y-89710378D01*
X158650916Y-89713343D01*
X158657917Y-89731066D01*
X158667927Y-89768619D01*
X158679769Y-89821036D01*
X158692267Y-89883348D01*
X158696310Y-89905100D01*
X158715520Y-90009976D01*
X158730991Y-90092820D01*
X158743337Y-90156370D01*
X158753173Y-90203363D01*
X158761114Y-90236537D01*
X158767776Y-90258629D01*
X158773773Y-90272376D01*
X158779719Y-90280516D01*
X158780894Y-90281655D01*
X158799826Y-90293023D01*
X158836669Y-90310365D01*
X158886913Y-90331950D01*
X158946046Y-90356046D01*
X159009556Y-90380921D01*
X159072932Y-90404843D01*
X159131662Y-90426081D01*
X159181235Y-90442903D01*
X159217139Y-90453578D01*
X159234862Y-90456373D01*
X159235483Y-90456140D01*
X159249970Y-90446669D01*
X159281844Y-90425182D01*
X159327789Y-90393937D01*
X159384485Y-90355193D01*
X159448617Y-90311207D01*
X159466842Y-90298681D01*
X159532914Y-90254016D01*
X159593200Y-90214712D01*
X159644235Y-90182912D01*
X159682560Y-90160755D01*
X159704711Y-90150383D01*
X159707432Y-90149881D01*
X159721736Y-90158595D01*
X159750072Y-90182675D01*
X159789396Y-90219024D01*
X159836661Y-90264547D01*
X159888823Y-90316148D01*
X159942835Y-90370733D01*
X159995653Y-90425206D01*
X160044231Y-90476471D01*
X160085523Y-90521433D01*
X160116485Y-90556996D01*
X160134070Y-90580065D01*
X160136941Y-90586446D01*
X160130178Y-90601301D01*
X160111939Y-90631714D01*
X160085297Y-90672732D01*
X160063852Y-90704291D01*
X160024503Y-90761475D01*
X159978171Y-90829194D01*
X159931913Y-90897120D01*
X159907155Y-90933639D01*
X159823547Y-91057248D01*
X159879650Y-91161009D01*
X159904228Y-91208280D01*
X159923331Y-91248477D01*
X159934227Y-91275674D01*
X159935743Y-91282598D01*
X159924549Y-91290923D01*
X159892917Y-91307346D01*
X159843765Y-91330643D01*
X159780010Y-91359586D01*
X159704571Y-91392950D01*
X159620364Y-91429509D01*
X159530308Y-91468036D01*
X159437321Y-91507306D01*
X159344320Y-91546092D01*
X159254223Y-91583170D01*
X159169948Y-91617311D01*
X159094413Y-91647292D01*
X159030534Y-91671884D01*
X158981231Y-91689864D01*
X158949421Y-91700003D01*
X158938496Y-91701634D01*
X158924561Y-91688709D01*
X158901940Y-91660411D01*
X158875333Y-91622654D01*
X158873228Y-91619485D01*
X158795114Y-91521900D01*
X158703982Y-91443214D01*
X158602745Y-91384109D01*
X158494318Y-91345268D01*
X158381614Y-91327372D01*
X158267548Y-91331103D01*
X158155034Y-91357143D01*
X158046985Y-91406175D01*
X158023345Y-91420600D01*
X157927887Y-91495631D01*
X157851232Y-91584270D01*
X157793780Y-91683451D01*
X157755929Y-91790105D01*
X157738078Y-91901164D01*
X157740625Y-92013561D01*
X157763970Y-92124227D01*
X157808510Y-92230094D01*
X157874645Y-92328095D01*
X157901487Y-92358410D01*
X157985512Y-92435562D01*
X158073966Y-92491782D01*
X158173115Y-92530347D01*
X158271303Y-92551826D01*
X158381697Y-92557128D01*
X158492640Y-92539448D01*
X158600381Y-92500581D01*
X158701169Y-92442323D01*
X158791256Y-92366469D01*
X158866892Y-92274817D01*
X158874864Y-92262772D01*
X158900974Y-92224611D01*
X158923595Y-92195601D01*
X158938039Y-92181732D01*
X158938496Y-92181531D01*
X158954121Y-92184508D01*
X158989582Y-92196311D01*
X159041962Y-92215714D01*
X159108345Y-92241488D01*
X159185814Y-92272409D01*
X159271450Y-92307249D01*
X159362337Y-92344783D01*
X159455559Y-92383783D01*
X159548197Y-92423023D01*
X159637335Y-92461276D01*
X159720055Y-92497317D01*
X159793441Y-92529917D01*
X159854575Y-92557852D01*
X159900541Y-92579895D01*
X159928421Y-92594818D01*
X159935743Y-92600828D01*
X159930041Y-92619191D01*
X159914749Y-92653552D01*
X159892599Y-92697984D01*
X159879650Y-92722417D01*
X159823547Y-92826178D01*
X159907155Y-92949787D01*
X159949987Y-93012886D01*
X159997122Y-93081970D01*
X160041503Y-93146707D01*
X160063852Y-93179134D01*
X160094477Y-93224741D01*
X160118747Y-93263360D01*
X160133587Y-93289952D01*
X160136724Y-93298590D01*
X160128261Y-93311161D01*
X160104636Y-93338984D01*
X160068302Y-93379361D01*
X160021711Y-93429595D01*
X159967317Y-93486988D01*
X159932392Y-93523286D01*
X159869996Y-93586790D01*
X159814188Y-93641673D01*
X159767354Y-93685714D01*
X159731882Y-93716695D01*
X159710161Y-93732398D01*
X159705752Y-93733905D01*
X159688985Y-93726914D01*
X159655082Y-93707594D01*
X159607476Y-93678091D01*
X159549599Y-93640545D01*
X159484884Y-93597100D01*
X159466842Y-93584745D01*
X159401267Y-93539727D01*
X159342228Y-93499340D01*
X159293042Y-93465840D01*
X159257028Y-93441486D01*
X159237502Y-93428536D01*
X159235483Y-93427285D01*
X159219922Y-93429156D01*
X159185709Y-93439087D01*
X159137355Y-93455347D01*
X159079371Y-93476205D01*
X159016270Y-93499927D01*
X158952563Y-93524784D01*
X158892761Y-93549042D01*
X158841376Y-93570971D01*
X158802919Y-93588838D01*
X158781902Y-93600913D01*
X158780894Y-93601771D01*
X158774888Y-93609154D01*
X158768948Y-93621625D01*
X158762460Y-93641920D01*
X158754809Y-93672778D01*
X158745380Y-93716934D01*
X158733559Y-93777126D01*
X158718729Y-93856093D01*
X158700277Y-93956570D01*
X158696310Y-93978325D01*
X158683853Y-94042802D01*
X158671666Y-94099011D01*
X158660926Y-94141987D01*
X158652809Y-94166760D01*
X158650916Y-94170082D01*
X158634138Y-94175556D01*
X158596645Y-94180006D01*
X158542794Y-94183428D01*
X158476944Y-94185819D01*
X158403453Y-94187177D01*
X158326680Y-94187499D01*
X158250983Y-94186781D01*
X158180720Y-94185021D01*
X158120250Y-94182216D01*
X158073930Y-94178362D01*
X158046119Y-94173457D01*
X158040427Y-94170500D01*
X158034686Y-94154037D01*
X158025345Y-94116551D01*
X158013215Y-94061775D01*
X157999107Y-93993445D01*
X157983830Y-93915294D01*
X157975823Y-93872716D01*
X157960721Y-93791929D01*
X157947040Y-93719887D01*
X157935467Y-93660111D01*
X157926687Y-93616121D01*
X157921387Y-93591439D01*
X157920212Y-93587377D01*
X157906965Y-93580511D01*
X157875057Y-93565998D01*
X157829047Y-93545771D01*
X157773492Y-93521766D01*
X157712953Y-93495918D01*
X157651986Y-93470160D01*
X157595151Y-93446427D01*
X157547006Y-93426654D01*
X157512110Y-93412776D01*
X157495021Y-93406726D01*
X157494274Y-93406614D01*
X157480793Y-93413472D01*
X157449770Y-93432698D01*
X157404289Y-93462272D01*
X157347432Y-93500173D01*
X157282283Y-93544380D01*
X157244862Y-93570079D01*
X157176247Y-93616907D01*
X157113952Y-93658499D01*
X157061129Y-93692825D01*
X157020927Y-93717857D01*
X156996500Y-93731565D01*
X156991024Y-93733544D01*
X156978278Y-93725034D01*
X156951063Y-93701507D01*
X156912428Y-93665968D01*
X156865423Y-93621423D01*
X156813095Y-93570877D01*
X156758495Y-93517336D01*
X156704670Y-93463805D01*
X156654670Y-93413289D01*
X156611543Y-93368794D01*
X156578339Y-93333325D01*
X156558106Y-93309887D01*
X156553278Y-93302046D01*
X156560067Y-93289280D01*
X156579142Y-93258744D01*
X156608561Y-93213410D01*
X156646381Y-93156244D01*
X156690661Y-93090216D01*
X156724395Y-93040410D01*
X156895512Y-92788764D01*
X156809041Y-92579001D01*
X156722570Y-92369237D01*
X156421018Y-92312389D01*
X156119466Y-92255540D01*
X156119466Y-91627885D01*
X156421018Y-91571036D01*
D15*
X169547000Y-95702000D02*
X169547000Y-96632000D01*
X169547000Y-98862000D02*
X169547000Y-97932000D01*
X169547000Y-98862000D02*
X171707000Y-98862000D01*
X169547000Y-95702000D02*
X171007000Y-95702000D01*
X169547000Y-91257000D02*
X169547000Y-92187000D01*
X169547000Y-94417000D02*
X169547000Y-93487000D01*
X169547000Y-94417000D02*
X171707000Y-94417000D01*
X169547000Y-91257000D02*
X171007000Y-91257000D01*
D14*
X177760000Y-91559000D02*
X177760000Y-90559000D01*
X179110000Y-90559000D02*
X179110000Y-91559000D01*
X173188000Y-91559000D02*
X173188000Y-90559000D01*
X174538000Y-90559000D02*
X174538000Y-91559000D01*
X180983000Y-109815000D02*
X181983000Y-109815000D01*
X181983000Y-111165000D02*
X180983000Y-111165000D01*
X176824000Y-90559000D02*
X176824000Y-91559000D01*
X175474000Y-91559000D02*
X175474000Y-90559000D01*
X184856500Y-109815000D02*
X185856500Y-109815000D01*
X185856500Y-111165000D02*
X184856500Y-111165000D01*
D17*
X173796000Y-121377000D02*
X173796000Y-116377000D01*
X173796000Y-116377000D02*
X181296000Y-116377000D01*
X181296000Y-116377000D02*
X181296000Y-121377000D01*
X173796000Y-121377000D02*
X173846000Y-121377000D01*
X173846000Y-121377000D02*
X181246000Y-121377000D01*
X181246000Y-121377000D02*
X181296000Y-121377000D01*
X173846000Y-121377000D02*
X173446000Y-121877000D01*
X181246000Y-121377000D02*
X181646000Y-121877000D01*
D15*
X187020000Y-113830000D02*
X187020000Y-112230000D01*
D10*
X185370000Y-113010000D02*
X185170000Y-113010000D01*
X185370000Y-112810000D02*
X185370000Y-113210000D01*
X185670000Y-113010000D02*
X185370000Y-112810000D01*
X185370000Y-113210000D02*
X185670000Y-113010000D01*
D15*
X187020000Y-112230000D02*
X184420000Y-112230000D01*
X187020000Y-113830000D02*
X184420000Y-113830000D01*
D14*
X173934500Y-111720000D02*
X174934500Y-111720000D01*
X174934500Y-113070000D02*
X173934500Y-113070000D01*
X173934500Y-110132500D02*
X174934500Y-110132500D01*
X174934500Y-111482500D02*
X173934500Y-111482500D01*
X173934500Y-108545000D02*
X174934500Y-108545000D01*
X174934500Y-109895000D02*
X173934500Y-109895000D01*
X173934500Y-106957500D02*
X174934500Y-106957500D01*
X174934500Y-108307500D02*
X173934500Y-108307500D01*
X173934500Y-105370000D02*
X174934500Y-105370000D01*
X174934500Y-106720000D02*
X173934500Y-106720000D01*
X173934500Y-103719000D02*
X174934500Y-103719000D01*
X174934500Y-105069000D02*
X173934500Y-105069000D01*
D17*
X173228000Y-93853000D02*
X178226720Y-93853000D01*
X178226720Y-93853000D02*
X178226720Y-98851720D01*
X178226720Y-98851720D02*
X173228000Y-98851720D01*
X173228000Y-98851720D02*
X173228000Y-93853000D01*
D18*
X174335932Y-94800840D02*
G75*
G03X174335932Y-94800840I-140092J0D01*
G01*
D14*
X173537571Y-81120430D02*
X173537571Y-80787096D01*
X174061381Y-80644239D02*
X174061381Y-81120430D01*
X173061381Y-81120430D01*
X173061381Y-80644239D01*
X174013762Y-80263287D02*
X174061381Y-80168049D01*
X174061381Y-79977573D01*
X174013762Y-79882334D01*
X173918524Y-79834715D01*
X173870905Y-79834715D01*
X173775667Y-79882334D01*
X173728048Y-79977573D01*
X173728048Y-80120430D01*
X173680429Y-80215668D01*
X173585190Y-80263287D01*
X173537571Y-80263287D01*
X173442333Y-80215668D01*
X173394714Y-80120430D01*
X173394714Y-79977573D01*
X173442333Y-79882334D01*
X173394714Y-79406144D02*
X174394714Y-79406144D01*
X173442333Y-79406144D02*
X173394714Y-79310906D01*
X173394714Y-79120429D01*
X173442333Y-79025191D01*
X173489952Y-78977572D01*
X173585190Y-78929953D01*
X173870905Y-78929953D01*
X173966143Y-78977572D01*
X174013762Y-79025191D01*
X174061381Y-79120429D01*
X174061381Y-79310906D01*
X174013762Y-79406144D01*
X174061381Y-78501382D02*
X173394714Y-78501382D01*
X173585190Y-78501382D02*
X173489952Y-78453763D01*
X173442333Y-78406144D01*
X173394714Y-78310906D01*
X173394714Y-78215667D01*
X174013762Y-77501381D02*
X174061381Y-77596619D01*
X174061381Y-77787096D01*
X174013762Y-77882334D01*
X173918524Y-77929953D01*
X173537571Y-77929953D01*
X173442333Y-77882334D01*
X173394714Y-77787096D01*
X173394714Y-77596619D01*
X173442333Y-77501381D01*
X173537571Y-77453762D01*
X173632810Y-77453762D01*
X173728048Y-77929953D01*
X174013762Y-77072810D02*
X174061381Y-76977572D01*
X174061381Y-76787096D01*
X174013762Y-76691857D01*
X173918524Y-76644238D01*
X173870905Y-76644238D01*
X173775667Y-76691857D01*
X173728048Y-76787096D01*
X173728048Y-76929953D01*
X173680429Y-77025191D01*
X173585190Y-77072810D01*
X173537571Y-77072810D01*
X173442333Y-77025191D01*
X173394714Y-76929953D01*
X173394714Y-76787096D01*
X173442333Y-76691857D01*
X174013762Y-76263286D02*
X174061381Y-76168048D01*
X174061381Y-75977572D01*
X174013762Y-75882333D01*
X173918524Y-75834714D01*
X173870905Y-75834714D01*
X173775667Y-75882333D01*
X173728048Y-75977572D01*
X173728048Y-76120429D01*
X173680429Y-76215667D01*
X173585190Y-76263286D01*
X173537571Y-76263286D01*
X173442333Y-76215667D01*
X173394714Y-76120429D01*
X173394714Y-75977572D01*
X173442333Y-75882333D01*
X174061381Y-75406143D02*
X173394714Y-75406143D01*
X173061381Y-75406143D02*
X173109000Y-75453762D01*
X173156619Y-75406143D01*
X173109000Y-75358524D01*
X173061381Y-75406143D01*
X173156619Y-75406143D01*
X173394714Y-75072810D02*
X173394714Y-74691858D01*
X174061381Y-74929953D02*
X173204238Y-74929953D01*
X173109000Y-74882334D01*
X173061381Y-74787096D01*
X173061381Y-74691858D01*
X174013762Y-73644238D02*
X174061381Y-73501381D01*
X174061381Y-73263285D01*
X174013762Y-73168047D01*
X173966143Y-73120428D01*
X173870905Y-73072809D01*
X173775667Y-73072809D01*
X173680429Y-73120428D01*
X173632810Y-73168047D01*
X173585190Y-73263285D01*
X173537571Y-73453762D01*
X173489952Y-73549000D01*
X173442333Y-73596619D01*
X173347095Y-73644238D01*
X173251857Y-73644238D01*
X173156619Y-73596619D01*
X173109000Y-73549000D01*
X173061381Y-73453762D01*
X173061381Y-73215666D01*
X173109000Y-73072809D01*
X173394714Y-72739476D02*
X174061381Y-72501381D01*
X173394714Y-72263285D02*
X174061381Y-72501381D01*
X174299476Y-72596619D01*
X174347095Y-72644238D01*
X174394714Y-72739476D01*
X174013762Y-71929952D02*
X174061381Y-71834714D01*
X174061381Y-71644238D01*
X174013762Y-71548999D01*
X173918524Y-71501380D01*
X173870905Y-71501380D01*
X173775667Y-71548999D01*
X173728048Y-71644238D01*
X173728048Y-71787095D01*
X173680429Y-71882333D01*
X173585190Y-71929952D01*
X173537571Y-71929952D01*
X173442333Y-71882333D01*
X173394714Y-71787095D01*
X173394714Y-71644238D01*
X173442333Y-71548999D01*
X173394714Y-71215666D02*
X173394714Y-70834714D01*
X173061381Y-71072809D02*
X173918524Y-71072809D01*
X174013762Y-71025190D01*
X174061381Y-70929952D01*
X174061381Y-70834714D01*
X174013762Y-70120427D02*
X174061381Y-70215665D01*
X174061381Y-70406142D01*
X174013762Y-70501380D01*
X173918524Y-70548999D01*
X173537571Y-70548999D01*
X173442333Y-70501380D01*
X173394714Y-70406142D01*
X173394714Y-70215665D01*
X173442333Y-70120427D01*
X173537571Y-70072808D01*
X173632810Y-70072808D01*
X173728048Y-70548999D01*
X174061381Y-69644237D02*
X173394714Y-69644237D01*
X173489952Y-69644237D02*
X173442333Y-69596618D01*
X173394714Y-69501380D01*
X173394714Y-69358522D01*
X173442333Y-69263284D01*
X173537571Y-69215665D01*
X174061381Y-69215665D01*
X173537571Y-69215665D02*
X173442333Y-69168046D01*
X173394714Y-69072808D01*
X173394714Y-68929951D01*
X173442333Y-68834713D01*
X173537571Y-68787094D01*
X174061381Y-68787094D01*
X174013762Y-68358523D02*
X174061381Y-68263285D01*
X174061381Y-68072809D01*
X174013762Y-67977570D01*
X173918524Y-67929951D01*
X173870905Y-67929951D01*
X173775667Y-67977570D01*
X173728048Y-68072809D01*
X173728048Y-68215666D01*
X173680429Y-68310904D01*
X173585190Y-68358523D01*
X173537571Y-68358523D01*
X173442333Y-68310904D01*
X173394714Y-68215666D01*
X173394714Y-68072809D01*
X173442333Y-67977570D01*
X171886571Y-78858381D02*
X171886571Y-78525047D01*
X172410381Y-78382190D02*
X172410381Y-78858381D01*
X171410381Y-78858381D01*
X171410381Y-78382190D01*
X172362762Y-78001238D02*
X172410381Y-77858381D01*
X172410381Y-77620285D01*
X172362762Y-77525047D01*
X172315143Y-77477428D01*
X172219905Y-77429809D01*
X172124667Y-77429809D01*
X172029429Y-77477428D01*
X171981810Y-77525047D01*
X171934190Y-77620285D01*
X171886571Y-77810762D01*
X171838952Y-77906000D01*
X171791333Y-77953619D01*
X171696095Y-78001238D01*
X171600857Y-78001238D01*
X171505619Y-77953619D01*
X171458000Y-77906000D01*
X171410381Y-77810762D01*
X171410381Y-77572666D01*
X171458000Y-77429809D01*
X172410381Y-77001238D02*
X171410381Y-77001238D01*
X171410381Y-76620285D01*
X171458000Y-76525047D01*
X171505619Y-76477428D01*
X171600857Y-76429809D01*
X171743714Y-76429809D01*
X171838952Y-76477428D01*
X171886571Y-76525047D01*
X171934190Y-76620285D01*
X171934190Y-77001238D01*
X171410381Y-76096476D02*
X171410381Y-75477428D01*
X171791333Y-75810762D01*
X171791333Y-75667904D01*
X171838952Y-75572666D01*
X171886571Y-75525047D01*
X171981810Y-75477428D01*
X172219905Y-75477428D01*
X172315143Y-75525047D01*
X172362762Y-75572666D01*
X172410381Y-75667904D01*
X172410381Y-75953619D01*
X172362762Y-76048857D01*
X172315143Y-76096476D01*
X171505619Y-75096476D02*
X171458000Y-75048857D01*
X171410381Y-74953619D01*
X171410381Y-74715523D01*
X171458000Y-74620285D01*
X171505619Y-74572666D01*
X171600857Y-74525047D01*
X171696095Y-74525047D01*
X171838952Y-74572666D01*
X172410381Y-75144095D01*
X172410381Y-74525047D01*
X172029429Y-74096476D02*
X172029429Y-73334571D01*
X171410381Y-72953619D02*
X172410381Y-72715524D01*
X171696095Y-72525047D01*
X172410381Y-72334571D01*
X171410381Y-72096476D01*
X172410381Y-71144095D02*
X171934190Y-71477429D01*
X172410381Y-71715524D02*
X171410381Y-71715524D01*
X171410381Y-71334571D01*
X171458000Y-71239333D01*
X171505619Y-71191714D01*
X171600857Y-71144095D01*
X171743714Y-71144095D01*
X171838952Y-71191714D01*
X171886571Y-71239333D01*
X171934190Y-71334571D01*
X171934190Y-71715524D01*
X171410381Y-70525048D02*
X171410381Y-70334571D01*
X171458000Y-70239333D01*
X171553238Y-70144095D01*
X171743714Y-70096476D01*
X172077048Y-70096476D01*
X172267524Y-70144095D01*
X172362762Y-70239333D01*
X172410381Y-70334571D01*
X172410381Y-70525048D01*
X172362762Y-70620286D01*
X172267524Y-70715524D01*
X172077048Y-70763143D01*
X171743714Y-70763143D01*
X171553238Y-70715524D01*
X171458000Y-70620286D01*
X171410381Y-70525048D01*
X171410381Y-69477429D02*
X171410381Y-69286952D01*
X171458000Y-69191714D01*
X171553238Y-69096476D01*
X171743714Y-69048857D01*
X172077048Y-69048857D01*
X172267524Y-69096476D01*
X172362762Y-69191714D01*
X172410381Y-69286952D01*
X172410381Y-69477429D01*
X172362762Y-69572667D01*
X172267524Y-69667905D01*
X172077048Y-69715524D01*
X171743714Y-69715524D01*
X171553238Y-69667905D01*
X171458000Y-69572667D01*
X171410381Y-69477429D01*
X172410381Y-68620286D02*
X171410381Y-68620286D01*
X172124667Y-68286952D01*
X171410381Y-67953619D01*
X172410381Y-67953619D01*
D19*
X180885401Y-106583990D02*
X180933020Y-106583990D01*
X180980639Y-106607800D01*
X181004448Y-106631610D01*
X181028258Y-106679229D01*
X181052067Y-106774467D01*
X181052067Y-106893514D01*
X181028258Y-106988752D01*
X181004448Y-107036371D01*
X180980639Y-107060181D01*
X180933020Y-107083990D01*
X180885401Y-107083990D01*
X180837782Y-107060181D01*
X180813972Y-107036371D01*
X180790163Y-106988752D01*
X180766353Y-106893514D01*
X180766353Y-106774467D01*
X180790163Y-106679229D01*
X180813972Y-106631610D01*
X180837782Y-106607800D01*
X180885401Y-106583990D01*
X181266353Y-107036371D02*
X181290162Y-107060181D01*
X181266353Y-107083990D01*
X181242543Y-107060181D01*
X181266353Y-107036371D01*
X181266353Y-107083990D01*
X181766352Y-107083990D02*
X181480638Y-107083990D01*
X181623495Y-107083990D02*
X181623495Y-106583990D01*
X181575876Y-106655419D01*
X181528257Y-106703038D01*
X181480638Y-106726848D01*
X182194923Y-106750657D02*
X182194923Y-107083990D01*
X181980638Y-106750657D02*
X181980638Y-107012562D01*
X182004447Y-107060181D01*
X182052066Y-107083990D01*
X182123495Y-107083990D01*
X182171114Y-107060181D01*
X182194923Y-107036371D01*
X182361590Y-106750657D02*
X182552066Y-106750657D01*
X182433019Y-107083990D02*
X182433019Y-106655419D01*
X182456828Y-106607800D01*
X182504447Y-106583990D01*
X182552066Y-106583990D01*
X181145715Y-104569390D02*
X180860001Y-104569390D01*
X181002858Y-104569390D02*
X181002858Y-104069390D01*
X180955239Y-104140819D01*
X180907620Y-104188438D01*
X180860001Y-104212248D01*
X181455239Y-104069390D02*
X181502858Y-104069390D01*
X181550477Y-104093200D01*
X181574286Y-104117010D01*
X181598096Y-104164629D01*
X181621905Y-104259867D01*
X181621905Y-104378914D01*
X181598096Y-104474152D01*
X181574286Y-104521771D01*
X181550477Y-104545581D01*
X181502858Y-104569390D01*
X181455239Y-104569390D01*
X181407620Y-104545581D01*
X181383810Y-104521771D01*
X181360001Y-104474152D01*
X181336191Y-104378914D01*
X181336191Y-104259867D01*
X181360001Y-104164629D01*
X181383810Y-104117010D01*
X181407620Y-104093200D01*
X181455239Y-104069390D01*
X182050476Y-104236057D02*
X182050476Y-104569390D01*
X181836191Y-104236057D02*
X181836191Y-104497962D01*
X181860000Y-104545581D01*
X181907619Y-104569390D01*
X181979048Y-104569390D01*
X182026667Y-104545581D01*
X182050476Y-104521771D01*
X182217143Y-104236057D02*
X182407619Y-104236057D01*
X182288572Y-104569390D02*
X182288572Y-104140819D01*
X182312381Y-104093200D01*
X182360000Y-104069390D01*
X182407619Y-104069390D01*
X184670001Y-106558590D02*
X184717620Y-106558590D01*
X184765239Y-106582400D01*
X184789048Y-106606210D01*
X184812858Y-106653829D01*
X184836667Y-106749067D01*
X184836667Y-106868114D01*
X184812858Y-106963352D01*
X184789048Y-107010971D01*
X184765239Y-107034781D01*
X184717620Y-107058590D01*
X184670001Y-107058590D01*
X184622382Y-107034781D01*
X184598572Y-107010971D01*
X184574763Y-106963352D01*
X184550953Y-106868114D01*
X184550953Y-106749067D01*
X184574763Y-106653829D01*
X184598572Y-106606210D01*
X184622382Y-106582400D01*
X184670001Y-106558590D01*
X185050953Y-107010971D02*
X185074762Y-107034781D01*
X185050953Y-107058590D01*
X185027143Y-107034781D01*
X185050953Y-107010971D01*
X185050953Y-107058590D01*
X185550952Y-107058590D02*
X185265238Y-107058590D01*
X185408095Y-107058590D02*
X185408095Y-106558590D01*
X185360476Y-106630019D01*
X185312857Y-106677638D01*
X185265238Y-106701448D01*
X185979523Y-106725257D02*
X185979523Y-107058590D01*
X185765238Y-106725257D02*
X185765238Y-106987162D01*
X185789047Y-107034781D01*
X185836666Y-107058590D01*
X185908095Y-107058590D01*
X185955714Y-107034781D01*
X185979523Y-107010971D01*
X186146190Y-106725257D02*
X186336666Y-106725257D01*
X186217619Y-107058590D02*
X186217619Y-106630019D01*
X186241428Y-106582400D01*
X186289047Y-106558590D01*
X186336666Y-106558590D01*
X184955715Y-104543990D02*
X184670001Y-104543990D01*
X184812858Y-104543990D02*
X184812858Y-104043990D01*
X184765239Y-104115419D01*
X184717620Y-104163038D01*
X184670001Y-104186848D01*
X185265239Y-104043990D02*
X185312858Y-104043990D01*
X185360477Y-104067800D01*
X185384286Y-104091610D01*
X185408096Y-104139229D01*
X185431905Y-104234467D01*
X185431905Y-104353514D01*
X185408096Y-104448752D01*
X185384286Y-104496371D01*
X185360477Y-104520181D01*
X185312858Y-104543990D01*
X185265239Y-104543990D01*
X185217620Y-104520181D01*
X185193810Y-104496371D01*
X185170001Y-104448752D01*
X185146191Y-104353514D01*
X185146191Y-104234467D01*
X185170001Y-104139229D01*
X185193810Y-104091610D01*
X185217620Y-104067800D01*
X185265239Y-104043990D01*
X185860476Y-104210657D02*
X185860476Y-104543990D01*
X185646191Y-104210657D02*
X185646191Y-104472562D01*
X185670000Y-104520181D01*
X185717619Y-104543990D01*
X185789048Y-104543990D01*
X185836667Y-104520181D01*
X185860476Y-104496371D01*
X186027143Y-104210657D02*
X186217619Y-104210657D01*
X186098572Y-104543990D02*
X186098572Y-104115419D01*
X186122381Y-104067800D01*
X186170000Y-104043990D01*
X186217619Y-104043990D01*
X174089262Y-100302190D02*
X173803548Y-100302190D01*
X173946405Y-100302190D02*
X173946405Y-99802190D01*
X173898786Y-99873619D01*
X173851167Y-99921238D01*
X173803548Y-99945048D01*
X174398786Y-99802190D02*
X174446405Y-99802190D01*
X174494024Y-99826000D01*
X174517833Y-99849810D01*
X174541643Y-99897429D01*
X174565452Y-99992667D01*
X174565452Y-100111714D01*
X174541643Y-100206952D01*
X174517833Y-100254571D01*
X174494024Y-100278381D01*
X174446405Y-100302190D01*
X174398786Y-100302190D01*
X174351167Y-100278381D01*
X174327357Y-100254571D01*
X174303548Y-100206952D01*
X174279738Y-100111714D01*
X174279738Y-99992667D01*
X174303548Y-99897429D01*
X174327357Y-99849810D01*
X174351167Y-99826000D01*
X174398786Y-99802190D01*
X174779738Y-100302190D02*
X174779738Y-99802190D01*
X175065452Y-100302190D02*
X174851166Y-100016476D01*
X175065452Y-99802190D02*
X174779738Y-100087905D01*
D10*
X180237192Y-99667190D02*
X180237192Y-99167190D01*
X180522906Y-99667190D01*
X180522906Y-99167190D01*
X180903859Y-99167190D02*
X180903859Y-99524333D01*
X180880049Y-99595762D01*
X180832430Y-99643381D01*
X180761002Y-99667190D01*
X180713383Y-99667190D01*
X181141954Y-99167190D02*
X181141954Y-99571952D01*
X181165763Y-99619571D01*
X181189573Y-99643381D01*
X181237192Y-99667190D01*
X181332430Y-99667190D01*
X181380049Y-99643381D01*
X181403858Y-99619571D01*
X181427668Y-99571952D01*
X181427668Y-99167190D01*
X181618145Y-99167190D02*
X181951478Y-99167190D01*
X181737192Y-99667190D01*
X182118144Y-99214810D02*
X182141954Y-99191000D01*
X182189573Y-99167190D01*
X182308620Y-99167190D01*
X182356239Y-99191000D01*
X182380049Y-99214810D01*
X182403858Y-99262429D01*
X182403858Y-99310048D01*
X182380049Y-99381476D01*
X182094335Y-99667190D01*
X182403858Y-99667190D01*
X182594334Y-99214810D02*
X182618144Y-99191000D01*
X182665763Y-99167190D01*
X182784810Y-99167190D01*
X182832429Y-99191000D01*
X182856239Y-99214810D01*
X182880048Y-99262429D01*
X182880048Y-99310048D01*
X182856239Y-99381476D01*
X182570525Y-99667190D01*
X182880048Y-99667190D01*
X183046715Y-99167190D02*
X183356238Y-99167190D01*
X183189572Y-99357667D01*
X183261000Y-99357667D01*
X183308619Y-99381476D01*
X183332429Y-99405286D01*
X183356238Y-99452905D01*
X183356238Y-99571952D01*
X183332429Y-99619571D01*
X183308619Y-99643381D01*
X183261000Y-99667190D01*
X183118143Y-99667190D01*
X183070524Y-99643381D01*
X183046715Y-99619571D01*
X183570524Y-99667190D02*
X183570524Y-99167190D01*
X183689571Y-99167190D01*
X183761000Y-99191000D01*
X183808619Y-99238619D01*
X183832428Y-99286238D01*
X183856238Y-99381476D01*
X183856238Y-99452905D01*
X183832428Y-99548143D01*
X183808619Y-99595762D01*
X183761000Y-99643381D01*
X183689571Y-99667190D01*
X183570524Y-99667190D01*
X184308619Y-99667190D02*
X184070524Y-99667190D01*
X184070524Y-99167190D01*
X184737190Y-99667190D02*
X184451476Y-99667190D01*
X184594333Y-99667190D02*
X184594333Y-99167190D01*
X184546714Y-99238619D01*
X184499095Y-99286238D01*
X184451476Y-99310048D01*
X184951476Y-99476714D02*
X185332428Y-99476714D01*
X185522905Y-99167190D02*
X185832428Y-99167190D01*
X185665762Y-99357667D01*
X185737190Y-99357667D01*
X185784809Y-99381476D01*
X185808619Y-99405286D01*
X185832428Y-99452905D01*
X185832428Y-99571952D01*
X185808619Y-99619571D01*
X185784809Y-99643381D01*
X185737190Y-99667190D01*
X185594333Y-99667190D01*
X185546714Y-99643381D01*
X185522905Y-99619571D01*
X185999095Y-99167190D02*
X186308618Y-99167190D01*
X186141952Y-99357667D01*
X186213380Y-99357667D01*
X186260999Y-99381476D01*
X186284809Y-99405286D01*
X186308618Y-99452905D01*
X186308618Y-99571952D01*
X186284809Y-99619571D01*
X186260999Y-99643381D01*
X186213380Y-99667190D01*
X186070523Y-99667190D01*
X186022904Y-99643381D01*
X185999095Y-99619571D01*
D19*
X177685001Y-99611690D02*
X177732620Y-99611690D01*
X177780239Y-99635500D01*
X177804048Y-99659310D01*
X177827858Y-99706929D01*
X177851667Y-99802167D01*
X177851667Y-99921214D01*
X177827858Y-100016452D01*
X177804048Y-100064071D01*
X177780239Y-100087881D01*
X177732620Y-100111690D01*
X177685001Y-100111690D01*
X177637382Y-100087881D01*
X177613572Y-100064071D01*
X177589763Y-100016452D01*
X177565953Y-99921214D01*
X177565953Y-99802167D01*
X177589763Y-99706929D01*
X177613572Y-99659310D01*
X177637382Y-99635500D01*
X177685001Y-99611690D01*
X178065953Y-100064071D02*
X178089762Y-100087881D01*
X178065953Y-100111690D01*
X178042143Y-100087881D01*
X178065953Y-100064071D01*
X178065953Y-100111690D01*
X178565952Y-100111690D02*
X178280238Y-100111690D01*
X178423095Y-100111690D02*
X178423095Y-99611690D01*
X178375476Y-99683119D01*
X178327857Y-99730738D01*
X178280238Y-99754548D01*
X178994523Y-99778357D02*
X178994523Y-100111690D01*
X178780238Y-99778357D02*
X178780238Y-100040262D01*
X178804047Y-100087881D01*
X178851666Y-100111690D01*
X178923095Y-100111690D01*
X178970714Y-100087881D01*
X178994523Y-100064071D01*
X179161190Y-99778357D02*
X179351666Y-99778357D01*
X179232619Y-100111690D02*
X179232619Y-99683119D01*
X179256428Y-99635500D01*
X179304047Y-99611690D01*
X179351666Y-99611690D01*
X178101667Y-89507190D02*
X177815953Y-89507190D01*
X177958810Y-89507190D02*
X177958810Y-89007190D01*
X177911191Y-89078619D01*
X177863572Y-89126238D01*
X177815953Y-89150048D01*
X178411191Y-89007190D02*
X178458810Y-89007190D01*
X178506429Y-89031000D01*
X178530238Y-89054810D01*
X178554048Y-89102429D01*
X178577857Y-89197667D01*
X178577857Y-89316714D01*
X178554048Y-89411952D01*
X178530238Y-89459571D01*
X178506429Y-89483381D01*
X178458810Y-89507190D01*
X178411191Y-89507190D01*
X178363572Y-89483381D01*
X178339762Y-89459571D01*
X178315953Y-89411952D01*
X178292143Y-89316714D01*
X178292143Y-89197667D01*
X178315953Y-89102429D01*
X178339762Y-89054810D01*
X178363572Y-89031000D01*
X178411191Y-89007190D01*
X178887381Y-89007190D02*
X178935000Y-89007190D01*
X178982619Y-89031000D01*
X179006428Y-89054810D01*
X179030238Y-89102429D01*
X179054047Y-89197667D01*
X179054047Y-89316714D01*
X179030238Y-89411952D01*
X179006428Y-89459571D01*
X178982619Y-89483381D01*
X178935000Y-89507190D01*
X178887381Y-89507190D01*
X178839762Y-89483381D01*
X178815952Y-89459571D01*
X178792143Y-89411952D01*
X178768333Y-89316714D01*
X178768333Y-89197667D01*
X178792143Y-89102429D01*
X178815952Y-89054810D01*
X178839762Y-89031000D01*
X178887381Y-89007190D01*
X173529667Y-89507190D02*
X173243953Y-89507190D01*
X173386810Y-89507190D02*
X173386810Y-89007190D01*
X173339191Y-89078619D01*
X173291572Y-89126238D01*
X173243953Y-89150048D01*
X173839191Y-89007190D02*
X173886810Y-89007190D01*
X173934429Y-89031000D01*
X173958238Y-89054810D01*
X173982048Y-89102429D01*
X174005857Y-89197667D01*
X174005857Y-89316714D01*
X173982048Y-89411952D01*
X173958238Y-89459571D01*
X173934429Y-89483381D01*
X173886810Y-89507190D01*
X173839191Y-89507190D01*
X173791572Y-89483381D01*
X173767762Y-89459571D01*
X173743953Y-89411952D01*
X173720143Y-89316714D01*
X173720143Y-89197667D01*
X173743953Y-89102429D01*
X173767762Y-89054810D01*
X173791572Y-89031000D01*
X173839191Y-89007190D01*
X174315381Y-89007190D02*
X174363000Y-89007190D01*
X174410619Y-89031000D01*
X174434428Y-89054810D01*
X174458238Y-89102429D01*
X174482047Y-89197667D01*
X174482047Y-89316714D01*
X174458238Y-89411952D01*
X174434428Y-89459571D01*
X174410619Y-89483381D01*
X174363000Y-89507190D01*
X174315381Y-89507190D01*
X174267762Y-89483381D01*
X174243952Y-89459571D01*
X174220143Y-89411952D01*
X174196333Y-89316714D01*
X174196333Y-89197667D01*
X174220143Y-89102429D01*
X174243952Y-89054810D01*
X174267762Y-89031000D01*
X174315381Y-89007190D01*
X181137762Y-109573190D02*
X180852048Y-109573190D01*
X180994905Y-109573190D02*
X180994905Y-109073190D01*
X180947286Y-109144619D01*
X180899667Y-109192238D01*
X180852048Y-109216048D01*
X181447286Y-109073190D02*
X181494905Y-109073190D01*
X181542524Y-109097000D01*
X181566333Y-109120810D01*
X181590143Y-109168429D01*
X181613952Y-109263667D01*
X181613952Y-109382714D01*
X181590143Y-109477952D01*
X181566333Y-109525571D01*
X181542524Y-109549381D01*
X181494905Y-109573190D01*
X181447286Y-109573190D01*
X181399667Y-109549381D01*
X181375857Y-109525571D01*
X181352048Y-109477952D01*
X181328238Y-109382714D01*
X181328238Y-109263667D01*
X181352048Y-109168429D01*
X181375857Y-109120810D01*
X181399667Y-109097000D01*
X181447286Y-109073190D01*
X181828238Y-109573190D02*
X181828238Y-109073190D01*
X182113952Y-109573190D02*
X181899666Y-109287476D01*
X182113952Y-109073190D02*
X181828238Y-109358905D01*
X175803762Y-89507190D02*
X175518048Y-89507190D01*
X175660905Y-89507190D02*
X175660905Y-89007190D01*
X175613286Y-89078619D01*
X175565667Y-89126238D01*
X175518048Y-89150048D01*
X176113286Y-89007190D02*
X176160905Y-89007190D01*
X176208524Y-89031000D01*
X176232333Y-89054810D01*
X176256143Y-89102429D01*
X176279952Y-89197667D01*
X176279952Y-89316714D01*
X176256143Y-89411952D01*
X176232333Y-89459571D01*
X176208524Y-89483381D01*
X176160905Y-89507190D01*
X176113286Y-89507190D01*
X176065667Y-89483381D01*
X176041857Y-89459571D01*
X176018048Y-89411952D01*
X175994238Y-89316714D01*
X175994238Y-89197667D01*
X176018048Y-89102429D01*
X176041857Y-89054810D01*
X176065667Y-89031000D01*
X176113286Y-89007190D01*
X176494238Y-89507190D02*
X176494238Y-89007190D01*
X176779952Y-89507190D02*
X176565666Y-89221476D01*
X176779952Y-89007190D02*
X176494238Y-89292905D01*
X185011262Y-109573190D02*
X184725548Y-109573190D01*
X184868405Y-109573190D02*
X184868405Y-109073190D01*
X184820786Y-109144619D01*
X184773167Y-109192238D01*
X184725548Y-109216048D01*
X185320786Y-109073190D02*
X185368405Y-109073190D01*
X185416024Y-109097000D01*
X185439833Y-109120810D01*
X185463643Y-109168429D01*
X185487452Y-109263667D01*
X185487452Y-109382714D01*
X185463643Y-109477952D01*
X185439833Y-109525571D01*
X185416024Y-109549381D01*
X185368405Y-109573190D01*
X185320786Y-109573190D01*
X185273167Y-109549381D01*
X185249357Y-109525571D01*
X185225548Y-109477952D01*
X185201738Y-109382714D01*
X185201738Y-109263667D01*
X185225548Y-109168429D01*
X185249357Y-109120810D01*
X185273167Y-109097000D01*
X185320786Y-109073190D01*
X185701738Y-109573190D02*
X185701738Y-109073190D01*
X185987452Y-109573190D02*
X185773166Y-109287476D01*
X185987452Y-109073190D02*
X185701738Y-109358905D01*
X185289048Y-112011590D02*
X185289048Y-111511590D01*
X185408095Y-111511590D01*
X185479524Y-111535400D01*
X185527143Y-111583019D01*
X185550952Y-111630638D01*
X185574762Y-111725876D01*
X185574762Y-111797305D01*
X185550952Y-111892543D01*
X185527143Y-111940162D01*
X185479524Y-111987781D01*
X185408095Y-112011590D01*
X185289048Y-112011590D01*
X174359263Y-95870785D02*
X174192597Y-95870785D01*
X174192597Y-96132689D02*
X174192597Y-95632689D01*
X174430692Y-95632689D01*
X174549739Y-95632689D02*
X174835453Y-95632689D01*
X174692596Y-96132689D02*
X174692596Y-95632689D01*
X174978310Y-95680309D02*
X175002120Y-95656499D01*
X175049739Y-95632689D01*
X175168786Y-95632689D01*
X175216405Y-95656499D01*
X175240215Y-95680309D01*
X175264024Y-95727928D01*
X175264024Y-95775547D01*
X175240215Y-95846975D01*
X174954501Y-96132689D01*
X175264024Y-96132689D01*
X175430691Y-95632689D02*
X175740214Y-95632689D01*
X175573548Y-95823166D01*
X175644976Y-95823166D01*
X175692595Y-95846975D01*
X175716405Y-95870785D01*
X175740214Y-95918404D01*
X175740214Y-96037451D01*
X175716405Y-96085070D01*
X175692595Y-96108880D01*
X175644976Y-96132689D01*
X175502119Y-96132689D01*
X175454500Y-96108880D01*
X175430691Y-96085070D01*
X175930690Y-95680309D02*
X175954500Y-95656499D01*
X176002119Y-95632689D01*
X176121166Y-95632689D01*
X176168785Y-95656499D01*
X176192595Y-95680309D01*
X176216404Y-95727928D01*
X176216404Y-95775547D01*
X176192595Y-95846975D01*
X175906881Y-96132689D01*
X176216404Y-96132689D01*
X176716404Y-96132689D02*
X176549737Y-95894594D01*
X176430690Y-96132689D02*
X176430690Y-95632689D01*
X176621166Y-95632689D01*
X176668785Y-95656499D01*
X176692594Y-95680309D01*
X176716404Y-95727928D01*
X176716404Y-95799356D01*
X176692594Y-95846975D01*
X176668785Y-95870785D01*
X176621166Y-95894594D01*
X176430690Y-95894594D01*
X177264023Y-96180309D02*
X177216404Y-96156499D01*
X177168785Y-96108880D01*
X177097356Y-96037451D01*
X177049737Y-96013642D01*
X177002118Y-96013642D01*
X177025928Y-96132689D02*
X176978309Y-96108880D01*
X176930690Y-96061261D01*
X176906880Y-95966023D01*
X176906880Y-95799356D01*
X176930690Y-95704118D01*
X176978309Y-95656499D01*
X177025928Y-95632689D01*
X177121166Y-95632689D01*
X177168785Y-95656499D01*
X177216404Y-95704118D01*
X177240213Y-95799356D01*
X177240213Y-95966023D01*
X177216404Y-96061261D01*
X177168785Y-96108880D01*
X177121166Y-96132689D01*
X177025928Y-96132689D01*
%LPC*%
D20*
X173684500Y-102806500D03*
X175184500Y-102806500D03*
D21*
X175751000Y-68410000D03*
X175751000Y-69680000D03*
X175751000Y-70950000D03*
X175751000Y-72220000D03*
X175751000Y-73490000D03*
X175751000Y-74760000D03*
X175751000Y-76030000D03*
X175751000Y-77300000D03*
X175751000Y-78570000D03*
X175751000Y-79840000D03*
X175751000Y-81110000D03*
X175751000Y-82380000D03*
X175751000Y-83650000D03*
X175751000Y-84920000D03*
D22*
X172466000Y-86410000D03*
X171196000Y-86410000D03*
X169926000Y-86410000D03*
X168656000Y-86410000D03*
X167386000Y-86410000D03*
X166116000Y-86410000D03*
X164846000Y-86410000D03*
X163576000Y-86410000D03*
X162306000Y-86410000D03*
X161036000Y-86410000D03*
D21*
X157751000Y-84920000D03*
X157751000Y-83650000D03*
X157751000Y-82380000D03*
X157751000Y-81110000D03*
X157751000Y-79840000D03*
X157751000Y-78570000D03*
X157751000Y-77300000D03*
X157751000Y-76030000D03*
X157751000Y-74760000D03*
X157751000Y-73490000D03*
X157751000Y-72220000D03*
X157751000Y-70950000D03*
X157751000Y-69680000D03*
X157751000Y-68410000D03*
D23*
X166451000Y-76110000D03*
D24*
X180860000Y-107950000D03*
X182360000Y-107950000D03*
X180860000Y-105410000D03*
X182360000Y-105410000D03*
X186170000Y-107950000D03*
X184670000Y-107950000D03*
X186170000Y-105410000D03*
X184670000Y-105410000D03*
D25*
X159300000Y-102686000D03*
X160250000Y-102686000D03*
X167950000Y-102686000D03*
X166850000Y-102686000D03*
X165750000Y-102686000D03*
X164650000Y-102686000D03*
X163550000Y-102686000D03*
X162450000Y-102686000D03*
X161350000Y-102686000D03*
D26*
X169500000Y-102686000D03*
X158350000Y-106986000D03*
D27*
X158350000Y-113186000D03*
D28*
X158350000Y-117336000D03*
D29*
X171850000Y-117786000D03*
D20*
X175184500Y-101219000D03*
X173684500Y-101219000D03*
D30*
X180975000Y-101854000D03*
D31*
X183261000Y-95504000D03*
D30*
X185547000Y-101854000D03*
D32*
X178435000Y-100977000D03*
X178435000Y-102477000D03*
D33*
X171307000Y-98232000D03*
X171307000Y-96332000D03*
X169307000Y-97282000D03*
X171307000Y-93787000D03*
X171307000Y-91887000D03*
X169307000Y-92837000D03*
D34*
X178435000Y-90309000D03*
X178435000Y-91809000D03*
X173863000Y-90309000D03*
X173863000Y-91809000D03*
D20*
X182233000Y-110490000D03*
X180733000Y-110490000D03*
D34*
X176149000Y-91809000D03*
X176149000Y-90309000D03*
D20*
X186106500Y-110490000D03*
X184606500Y-110490000D03*
D35*
X178846000Y-116652000D03*
X178196000Y-116652000D03*
X177546000Y-116652000D03*
X176896000Y-116652000D03*
X176246000Y-116652000D03*
D36*
X180646000Y-116977000D03*
X174446000Y-116977000D03*
D37*
X173446000Y-119327000D03*
D38*
X176696000Y-119327000D03*
X178396000Y-119327000D03*
D37*
X181646000Y-119327000D03*
D39*
X186470000Y-113030000D03*
X184370000Y-113030000D03*
D40*
X152400000Y-71120000D03*
D41*
X152400000Y-73660000D03*
X152400000Y-76200000D03*
X152400000Y-78740000D03*
X152400000Y-81280000D03*
X152400000Y-83820000D03*
X152400000Y-86360000D03*
X152400000Y-88900000D03*
X152400000Y-91440000D03*
X152400000Y-93980000D03*
X152400000Y-96520000D03*
X152400000Y-99060000D03*
X152400000Y-101600000D03*
X152400000Y-104140000D03*
X152400000Y-106680000D03*
X152400000Y-109220000D03*
X152400000Y-111760000D03*
D20*
X175184500Y-112395000D03*
X173684500Y-112395000D03*
X175184500Y-110807500D03*
X173684500Y-110807500D03*
X175184500Y-109220000D03*
X173684500Y-109220000D03*
X175184500Y-107632500D03*
X173684500Y-107632500D03*
X175184500Y-106045000D03*
X173684500Y-106045000D03*
X175184500Y-104394000D03*
X173684500Y-104394000D03*
D42*
X173376920Y-94602300D03*
X173376920Y-95102680D03*
X173376920Y-95600520D03*
X173376920Y-96100900D03*
X173376920Y-96601280D03*
X173376920Y-97101660D03*
X173376920Y-97602040D03*
X173376920Y-98102420D03*
D43*
X173977300Y-98702800D03*
X174477680Y-98702800D03*
X174975520Y-98702800D03*
X175475900Y-98702800D03*
X175976280Y-98702800D03*
X176476660Y-98702800D03*
X176977040Y-98702800D03*
X177477420Y-98702800D03*
D44*
X178077800Y-98102420D03*
X178077800Y-97602040D03*
X178077800Y-97101660D03*
X178077800Y-96601280D03*
X178077800Y-96100900D03*
X178077800Y-95600520D03*
X178077800Y-95102680D03*
X178077800Y-94602300D03*
D43*
X177477420Y-94001920D03*
X176977040Y-94001920D03*
X176476660Y-94001920D03*
X175976280Y-94001920D03*
X175475900Y-94001920D03*
X174975520Y-94001920D03*
X174477680Y-94001920D03*
X173977300Y-94001920D03*
D40*
X190500000Y-71120000D03*
D41*
X190500000Y-73660000D03*
X190500000Y-76200000D03*
X190500000Y-78740000D03*
X190500000Y-81280000D03*
X190500000Y-83820000D03*
X190500000Y-86360000D03*
X190500000Y-88900000D03*
X190500000Y-91440000D03*
X190500000Y-93980000D03*
X190500000Y-96520000D03*
X190500000Y-99060000D03*
X190500000Y-101600000D03*
X190500000Y-104140000D03*
X190500000Y-106680000D03*
X190500000Y-109220000D03*
X190500000Y-111760000D03*
X190500000Y-114300000D03*
M02*
