G04 #@! TF.FileFunction,Copper,L1,Top,Signal*
%FSLAX46Y46*%
G04 Gerber Fmt 4.6, Leading zero omitted, Abs format (unit mm)*
G04 Created by KiCad (PCBNEW 4.0.6-e0-6349~52~ubuntu16.10.1) date Wed Mar 29 09:33:53 2017*
%MOMM*%
%LPD*%
G01*
G04 APERTURE LIST*
%ADD10C,0.100000*%
%ADD11R,0.400000X1.350000*%
%ADD12R,2.100000X2.000000*%
%ADD13R,1.600000X1.900000*%
%ADD14R,1.200000X1.900000*%
%ADD15O,2.500000X0.900000*%
%ADD16O,0.900000X2.500000*%
%ADD17R,6.000000X6.000000*%
%ADD18R,0.800000X0.750000*%
%ADD19R,0.900000X0.800000*%
%ADD20R,0.900000X0.500000*%
%ADD21R,0.500000X0.900000*%
%ADD22R,0.800000X0.900000*%
%ADD23R,1.700000X1.700000*%
%ADD24O,1.700000X1.700000*%
%ADD25R,0.750000X0.800000*%
%ADD26R,1.000000X1.600000*%
%ADD27O,0.850000X0.300000*%
%ADD28O,0.300000X0.850000*%
%ADD29R,1.675000X1.675000*%
%ADD30R,2.000000X3.800000*%
%ADD31R,2.000000X1.500000*%
%ADD32C,0.600000*%
%ADD33C,0.250000*%
%ADD34C,0.200000*%
G04 APERTURE END LIST*
D10*
D11*
X168863800Y-111140200D03*
X168213800Y-111140200D03*
X167563800Y-111140200D03*
X166913800Y-111140200D03*
X166263800Y-111140200D03*
D12*
X170663800Y-111465200D03*
X164463800Y-111465200D03*
D13*
X163463800Y-113815200D03*
D14*
X166713800Y-113815200D03*
X168413800Y-113815200D03*
D13*
X171663800Y-113815200D03*
D15*
X180627800Y-71204000D03*
X180627800Y-72474000D03*
X180627800Y-73744000D03*
X180627800Y-75014000D03*
X180627800Y-76284000D03*
X180627800Y-77554000D03*
X180627800Y-78824000D03*
X180627800Y-80094000D03*
X180627800Y-81364000D03*
X180627800Y-82634000D03*
X180627800Y-83904000D03*
X180627800Y-85174000D03*
X180627800Y-86444000D03*
X180627800Y-87714000D03*
D16*
X177342800Y-89204000D03*
X176072800Y-89204000D03*
X174802800Y-89204000D03*
X173532800Y-89204000D03*
X172262800Y-89204000D03*
X170992800Y-89204000D03*
X169722800Y-89204000D03*
X168452800Y-89204000D03*
X167182800Y-89204000D03*
X165912800Y-89204000D03*
D15*
X162627800Y-87714000D03*
X162627800Y-86444000D03*
X162627800Y-85174000D03*
X162627800Y-83904000D03*
X162627800Y-82634000D03*
X162627800Y-81364000D03*
X162627800Y-80094000D03*
X162627800Y-78824000D03*
X162627800Y-77554000D03*
X162627800Y-76284000D03*
X162627800Y-75014000D03*
X162627800Y-73744000D03*
X162627800Y-72474000D03*
X162627800Y-71204000D03*
D17*
X171327800Y-78904000D03*
D18*
X166129400Y-106273600D03*
X164629400Y-106273600D03*
X166180200Y-103733600D03*
X164680200Y-103733600D03*
X162751200Y-106273600D03*
X161251200Y-106273600D03*
X162751200Y-103733600D03*
X161251200Y-103733600D03*
X178701000Y-106222800D03*
X180201000Y-106222800D03*
D19*
X175472600Y-102702400D03*
X175472600Y-100802400D03*
X173472600Y-101752400D03*
X175472600Y-95488800D03*
X175472600Y-93588800D03*
X173472600Y-94538800D03*
D20*
X178892200Y-94601600D03*
X178892200Y-96101600D03*
X180771800Y-94601600D03*
X180771800Y-96101600D03*
X173659800Y-98844800D03*
X173659800Y-97344800D03*
D21*
X183299800Y-106273600D03*
X181799800Y-106273600D03*
D11*
X178668200Y-116525000D03*
X178018200Y-116525000D03*
X177368200Y-116525000D03*
X176718200Y-116525000D03*
X176068200Y-116525000D03*
D12*
X180468200Y-116850000D03*
X174268200Y-116850000D03*
D13*
X173268200Y-119200000D03*
D14*
X176518200Y-119200000D03*
X178218200Y-119200000D03*
D13*
X181468200Y-119200000D03*
D22*
X173422600Y-106324400D03*
X175522600Y-106324400D03*
D23*
X152400000Y-71120000D03*
D24*
X152400000Y-73660000D03*
X152400000Y-76200000D03*
X152400000Y-78740000D03*
X152400000Y-81280000D03*
X152400000Y-83820000D03*
X152400000Y-86360000D03*
X152400000Y-88900000D03*
X152400000Y-91440000D03*
X152400000Y-93980000D03*
X152400000Y-96520000D03*
X152400000Y-99060000D03*
X152400000Y-101600000D03*
X152400000Y-104140000D03*
X152400000Y-106680000D03*
X152400000Y-109220000D03*
X152400000Y-111760000D03*
D25*
X171780200Y-102553200D03*
X171780200Y-101053200D03*
X171780200Y-93890400D03*
X171780200Y-95390400D03*
D26*
X168299000Y-106273600D03*
X171299000Y-106273600D03*
D20*
X175488600Y-97344800D03*
X175488600Y-98844800D03*
X171831000Y-98844800D03*
X171831000Y-97344800D03*
D27*
X178271000Y-98931600D03*
X178271000Y-99431600D03*
X178271000Y-99931600D03*
X178271000Y-100431600D03*
X178271000Y-100931600D03*
X178271000Y-101431600D03*
X178271000Y-101931600D03*
D28*
X179221000Y-102881600D03*
X179721000Y-102881600D03*
X180221000Y-102881600D03*
X180721000Y-102881600D03*
X181221000Y-102881600D03*
X181721000Y-102881600D03*
X182221000Y-102881600D03*
D27*
X183171000Y-101931600D03*
X183171000Y-101431600D03*
X183171000Y-100931600D03*
X183171000Y-100431600D03*
X183171000Y-99931600D03*
X183171000Y-99431600D03*
X183171000Y-98931600D03*
D28*
X182221000Y-97981600D03*
X181721000Y-97981600D03*
X181221000Y-97981600D03*
X180721000Y-97981600D03*
X180221000Y-97981600D03*
X179721000Y-97981600D03*
X179221000Y-97981600D03*
D29*
X181558500Y-101269100D03*
X181558500Y-99594100D03*
X179883500Y-101269100D03*
X179883500Y-99594100D03*
D30*
X167259400Y-98196400D03*
D31*
X160959400Y-98196400D03*
X160959400Y-100496400D03*
X160959400Y-95896400D03*
D23*
X190474600Y-71120000D03*
D24*
X190474600Y-73660000D03*
X190474600Y-76200000D03*
X190474600Y-78740000D03*
X190474600Y-81280000D03*
X190474600Y-83820000D03*
X190474600Y-86360000D03*
X190474600Y-88900000D03*
X190474600Y-91440000D03*
X190474600Y-93980000D03*
X190474600Y-96520000D03*
X190474600Y-99060000D03*
X190474600Y-101600000D03*
X190474600Y-104140000D03*
X190474600Y-106680000D03*
X190474600Y-109220000D03*
X190474600Y-111760000D03*
D32*
X182346600Y-73101200D03*
X182245000Y-75641200D03*
X182295800Y-79451200D03*
X182295800Y-76962000D03*
X182346600Y-74371200D03*
X179451000Y-107899200D03*
X169799000Y-106476800D03*
X165328600Y-72593200D03*
X164871400Y-94843600D03*
X178282600Y-103987600D03*
X184277000Y-120802400D03*
X159385000Y-120802400D03*
X162026600Y-120751600D03*
X186613800Y-120904000D03*
X167106600Y-105460800D03*
X166903400Y-106984800D03*
X157556200Y-90728800D03*
X158267400Y-92506800D03*
X160705800Y-78181200D03*
X160705800Y-79502000D03*
X160705800Y-75641200D03*
X160705800Y-73101200D03*
X160705800Y-74371200D03*
X160705800Y-76911200D03*
X185140600Y-89103200D03*
X184124600Y-93014800D03*
X184581800Y-90932000D03*
X180822600Y-104394000D03*
X180873400Y-100838000D03*
X171729400Y-99974400D03*
X163855400Y-109423200D03*
X163855400Y-104749600D03*
X160909000Y-93929200D03*
X163398200Y-89458800D03*
X177977800Y-105003600D03*
X175488600Y-105156000D03*
X183464200Y-75014000D03*
X180771800Y-92760800D03*
X177317400Y-109016800D03*
X168681400Y-108813600D03*
X178028600Y-109829600D03*
X168681400Y-109728000D03*
X182753000Y-76301600D03*
X178993800Y-92710000D03*
X166039800Y-75336400D03*
X170713400Y-99263200D03*
X171729400Y-103530400D03*
X184327800Y-97637600D03*
X166751000Y-109728000D03*
X176453800Y-115214400D03*
X181483000Y-97078800D03*
X175641000Y-99923600D03*
X173405800Y-93268800D03*
X178841400Y-87782400D03*
X180771800Y-107594400D03*
D33*
X149860000Y-109220000D02*
X149860000Y-106680000D01*
X149860000Y-106680000D02*
X149987000Y-106553000D01*
X182346600Y-74371200D02*
X182295800Y-74371200D01*
X179451000Y-107899200D02*
X179501800Y-107899200D01*
X169595800Y-106273600D02*
X169799000Y-106476800D01*
X168299000Y-106273600D02*
X169595800Y-106273600D01*
X183362600Y-111760000D02*
X190474600Y-111760000D01*
X179501800Y-107899200D02*
X183362600Y-111760000D01*
X160959400Y-98196400D02*
X161518600Y-98196400D01*
X161518600Y-98196400D02*
X164871400Y-94843600D01*
X165209400Y-72474000D02*
X162627800Y-72474000D01*
X165328600Y-72593200D02*
X165209400Y-72474000D01*
X162627800Y-72474000D02*
X153586000Y-72474000D01*
X153586000Y-72474000D02*
X152400000Y-73660000D01*
X171831000Y-97344800D02*
X171463400Y-97344800D01*
X171463400Y-97344800D02*
X169138600Y-99669600D01*
X169138600Y-99669600D02*
X169138600Y-101295200D01*
X169138600Y-101295200D02*
X168122600Y-102311200D01*
X168122600Y-102311200D02*
X166180200Y-102311200D01*
X166180200Y-103733600D02*
X166180200Y-106222800D01*
X166180200Y-106222800D02*
X166231000Y-106273600D01*
X166231000Y-106273600D02*
X168299000Y-106273600D01*
X160959400Y-98196400D02*
X162128200Y-98196400D01*
X166180200Y-102248400D02*
X166180200Y-102311200D01*
X166180200Y-102311200D02*
X166180200Y-103733600D01*
X162128200Y-98196400D02*
X166180200Y-102248400D01*
X166293800Y-106412600D02*
X166154800Y-106273600D01*
X181468200Y-119200000D02*
X182674600Y-119200000D01*
X182674600Y-119200000D02*
X184277000Y-120802400D01*
X162026600Y-120751600D02*
X159435800Y-120751600D01*
X159435800Y-120751600D02*
X159385000Y-120802400D01*
X173268200Y-119200000D02*
X163578200Y-119200000D01*
X163578200Y-119200000D02*
X162026600Y-120751600D01*
X181468200Y-119200000D02*
X184909800Y-119200000D01*
X184909800Y-119200000D02*
X186613800Y-120904000D01*
X167106600Y-105460800D02*
X167106600Y-105664000D01*
X166903400Y-106984800D02*
X166903400Y-107086400D01*
X160909000Y-93929200D02*
X159689800Y-93929200D01*
X157556200Y-90728800D02*
X157556200Y-90627200D01*
X159689800Y-93929200D02*
X158267400Y-92506800D01*
X160705800Y-76911200D02*
X160705800Y-76860400D01*
X181558500Y-99594100D02*
X179883500Y-99594100D01*
X179883500Y-99594100D02*
X179883500Y-101269100D01*
X179883500Y-101269100D02*
X181558500Y-101269100D01*
X184581800Y-90932000D02*
X184581800Y-90830400D01*
X171663800Y-113815200D02*
X171663800Y-114245600D01*
X171663800Y-114245600D02*
X174268200Y-116850000D01*
X171780200Y-101053200D02*
X171780200Y-101142800D01*
X171780200Y-101142800D02*
X170662600Y-102260400D01*
X170662600Y-105637200D02*
X171299000Y-106273600D01*
X170662600Y-102260400D02*
X170662600Y-105637200D01*
X174268200Y-116850000D02*
X175743200Y-116850000D01*
X175743200Y-116850000D02*
X176068200Y-116525000D01*
X176518200Y-119200000D02*
X176518200Y-118377600D01*
X176518200Y-118377600D02*
X176068200Y-117927600D01*
X176068200Y-117927600D02*
X176068200Y-116525000D01*
X174268200Y-116850000D02*
X174268200Y-118200000D01*
X174268200Y-118200000D02*
X173268200Y-119200000D01*
X173268200Y-119200000D02*
X176518200Y-119200000D01*
X176518200Y-119200000D02*
X178218200Y-119200000D01*
X178218200Y-119200000D02*
X181468200Y-119200000D01*
X181468200Y-119200000D02*
X180468200Y-118200000D01*
X180468200Y-118200000D02*
X180468200Y-116850000D01*
X178271000Y-99931600D02*
X179546000Y-99931600D01*
X179546000Y-99931600D02*
X179883500Y-99594100D01*
X180873400Y-100838000D02*
X181304500Y-101269100D01*
X181304500Y-101269100D02*
X181558500Y-101269100D01*
X179546000Y-99931600D02*
X179883500Y-99594100D01*
X171780200Y-100025200D02*
X171780200Y-101053200D01*
X171729400Y-99974400D02*
X171780200Y-100025200D01*
X160909000Y-93929200D02*
X170319000Y-93929200D01*
X170319000Y-93929200D02*
X171780200Y-95390400D01*
X164463800Y-111465200D02*
X165938800Y-111465200D01*
X165938800Y-111465200D02*
X166263800Y-111140200D01*
X166263800Y-111140200D02*
X166263800Y-113365200D01*
X166263800Y-113365200D02*
X166713800Y-113815200D01*
X164463800Y-111465200D02*
X164463800Y-112815200D01*
X164463800Y-112815200D02*
X163463800Y-113815200D01*
X170663800Y-111465200D02*
X170663800Y-112815200D01*
X170663800Y-112815200D02*
X171663800Y-113815200D01*
X163463800Y-113815200D02*
X166713800Y-113815200D01*
X166713800Y-113815200D02*
X168413800Y-113815200D01*
X168413800Y-113815200D02*
X171663800Y-113815200D01*
X164463800Y-110031600D02*
X164463800Y-111465200D01*
X163855400Y-109423200D02*
X164463800Y-110031600D01*
X163855400Y-104749600D02*
X164680200Y-104749600D01*
X164680200Y-104749600D02*
X164668200Y-104749600D01*
X164668200Y-104749600D02*
X164680200Y-104749600D01*
X160959400Y-95896400D02*
X160567400Y-95896400D01*
X160567400Y-95896400D02*
X159334200Y-97129600D01*
X159334200Y-101816600D02*
X161251200Y-103733600D01*
X159334200Y-97129600D02*
X159334200Y-101816600D01*
X165912800Y-89204000D02*
X163653000Y-89204000D01*
X160959400Y-93979600D02*
X160959400Y-95896400D01*
X160909000Y-93929200D02*
X160959400Y-93979600D01*
X163653000Y-89204000D02*
X163398200Y-89458800D01*
X171327800Y-78904000D02*
X171327800Y-80970400D01*
X171327800Y-80970400D02*
X166243000Y-86055200D01*
X166243000Y-86055200D02*
X166243000Y-88873800D01*
X166243000Y-88873800D02*
X165912800Y-89204000D01*
X152400000Y-109220000D02*
X158304800Y-109220000D01*
X158304800Y-109220000D02*
X161251200Y-106273600D01*
X171327800Y-78904000D02*
X171327800Y-71292800D01*
X171327800Y-71292800D02*
X171239000Y-71204000D01*
X152400000Y-71120000D02*
X162543800Y-71120000D01*
X162543800Y-71120000D02*
X162627800Y-71204000D01*
X162627800Y-71204000D02*
X171239000Y-71204000D01*
X171239000Y-71204000D02*
X180627800Y-71204000D01*
X180627800Y-71204000D02*
X190390600Y-71204000D01*
X190390600Y-71204000D02*
X190474600Y-71120000D01*
X164680200Y-103733600D02*
X164680200Y-104749600D01*
X164680200Y-104749600D02*
X164680200Y-106222800D01*
X164680200Y-106222800D02*
X164629400Y-106273600D01*
X161251200Y-106273600D02*
X161251200Y-103733600D01*
X152400000Y-109220000D02*
X152781000Y-109220000D01*
X161251200Y-103975600D02*
X161251200Y-103733600D01*
X180201000Y-106222800D02*
X180201000Y-105015600D01*
X180201000Y-105015600D02*
X180822600Y-104394000D01*
X173422600Y-106324400D02*
X173422600Y-106358400D01*
X173422600Y-106358400D02*
X172034200Y-107746800D01*
X172034200Y-107746800D02*
X164224400Y-107746800D01*
X164224400Y-107746800D02*
X162751200Y-106273600D01*
X152400000Y-111760000D02*
X157264800Y-111760000D01*
X157264800Y-111760000D02*
X162751200Y-106273600D01*
X173778200Y-106324400D02*
X173778200Y-106714000D01*
X162751200Y-106273600D02*
X162751200Y-103733600D01*
X162751200Y-103733600D02*
X160959400Y-101941800D01*
X160959400Y-101941800D02*
X160959400Y-100496400D01*
X177977800Y-105003600D02*
X177927000Y-105054400D01*
X177927000Y-105054400D02*
X177825400Y-105054400D01*
X177977800Y-105003600D02*
X178485800Y-105003600D01*
X178701000Y-105218800D02*
X178485800Y-105003600D01*
X178485800Y-105003600D02*
X178638200Y-105003600D01*
X178638200Y-105003600D02*
X179221000Y-104420800D01*
X179221000Y-104420800D02*
X179221000Y-102881600D01*
X178701000Y-106222800D02*
X178701000Y-105218800D01*
X178271000Y-101931600D02*
X178271000Y-102858400D01*
X178294200Y-102881600D02*
X179221000Y-102881600D01*
X178271000Y-102858400D02*
X178294200Y-102881600D01*
X178668200Y-116525000D02*
X178668200Y-106255600D01*
X178668200Y-106255600D02*
X178701000Y-106222800D01*
X175522600Y-106324400D02*
X175522600Y-105190000D01*
X175522600Y-105190000D02*
X175488600Y-105156000D01*
X168863800Y-111140200D02*
X168863800Y-110612400D01*
X168863800Y-110612400D02*
X170967400Y-108508800D01*
X173338200Y-108508800D02*
X175522600Y-106324400D01*
X170967400Y-108508800D02*
X173338200Y-108508800D01*
X179221000Y-102881600D02*
X179221000Y-102947600D01*
X168863800Y-111140200D02*
X168863800Y-110663200D01*
X178271000Y-101931600D02*
X178282600Y-101943200D01*
X180771800Y-94601600D02*
X180771800Y-92760800D01*
X180627800Y-75014000D02*
X183464200Y-75014000D01*
X183464200Y-75014000D02*
X184208600Y-75014000D01*
X184208600Y-75014000D02*
X190474600Y-81280000D01*
X167563800Y-111140200D02*
X167563800Y-109931200D01*
X177419000Y-109118400D02*
X177368200Y-109118400D01*
X177368200Y-109067600D02*
X177419000Y-109118400D01*
X177317400Y-109016800D02*
X177368200Y-109067600D01*
X167563800Y-109931200D02*
X168681400Y-108813600D01*
X177368200Y-116525000D02*
X177368200Y-109118400D01*
X177368200Y-109118400D02*
X177368200Y-107797600D01*
X177469800Y-100431600D02*
X178271000Y-100431600D01*
X176860200Y-101041200D02*
X177469800Y-100431600D01*
X176860200Y-107289600D02*
X176860200Y-101041200D01*
X177368200Y-107797600D02*
X176860200Y-107289600D01*
X168213800Y-111140200D02*
X168213800Y-110195600D01*
X168213800Y-110195600D02*
X168681400Y-109728000D01*
X178028600Y-109829600D02*
X178018200Y-109829600D01*
X178018200Y-109829600D02*
X178028600Y-109829600D01*
X178028600Y-109829600D02*
X178018200Y-109829600D01*
X178018200Y-116525000D02*
X178018200Y-109829600D01*
X178018200Y-109829600D02*
X178018200Y-107736400D01*
X177731800Y-100931600D02*
X178271000Y-100931600D01*
X177317400Y-101346000D02*
X177731800Y-100931600D01*
X177317400Y-107035600D02*
X177317400Y-101346000D01*
X178018200Y-107736400D02*
X177317400Y-107035600D01*
X178892200Y-94601600D02*
X178892200Y-92811600D01*
X178892200Y-92811600D02*
X178993800Y-92710000D01*
X182753000Y-76301600D02*
X182753000Y-76284000D01*
X182753000Y-76284000D02*
X182753000Y-76301600D01*
X182753000Y-76301600D02*
X182753000Y-76284000D01*
X180627800Y-76284000D02*
X182753000Y-76284000D01*
X182753000Y-76284000D02*
X182938600Y-76284000D01*
X182938600Y-76284000D02*
X190474600Y-83820000D01*
X171831000Y-98844800D02*
X171131800Y-98844800D01*
X164447400Y-73744000D02*
X162627800Y-73744000D01*
X166039800Y-75336400D02*
X164447400Y-73744000D01*
X171131800Y-98844800D02*
X170713400Y-99263200D01*
X171831000Y-98844800D02*
X171831000Y-98856800D01*
X171831000Y-98856800D02*
X173625000Y-100650800D01*
X173625000Y-100650800D02*
X173625000Y-101752400D01*
X171780200Y-102553200D02*
X171780200Y-103479600D01*
X171780200Y-103479600D02*
X171729400Y-103530400D01*
X173625000Y-101752400D02*
X173625000Y-101990400D01*
X173625000Y-101990400D02*
X173062200Y-102553200D01*
X173062200Y-102553200D02*
X171780200Y-102553200D01*
X162627800Y-73744000D02*
X154856000Y-73744000D01*
X154856000Y-73744000D02*
X152400000Y-76200000D01*
X173675800Y-101387400D02*
X173675800Y-101752400D01*
X173786800Y-101863400D02*
X173675800Y-101752400D01*
X162627800Y-75014000D02*
X156126000Y-75014000D01*
X156126000Y-75014000D02*
X152400000Y-78740000D01*
X162627800Y-76284000D02*
X157396000Y-76284000D01*
X157396000Y-76284000D02*
X152400000Y-81280000D01*
X162627800Y-77554000D02*
X158666000Y-77554000D01*
X158666000Y-77554000D02*
X152400000Y-83820000D01*
X162627800Y-78824000D02*
X159936000Y-78824000D01*
X159936000Y-78824000D02*
X152400000Y-86360000D01*
X162627800Y-80094000D02*
X161206000Y-80094000D01*
X161206000Y-80094000D02*
X152400000Y-88900000D01*
X162627800Y-81364000D02*
X160572398Y-81364000D01*
X154152600Y-89687400D02*
X152400000Y-91440000D01*
X154152600Y-87783798D02*
X154152600Y-89687400D01*
X160572398Y-81364000D02*
X154152600Y-87783798D01*
X162627800Y-82634000D02*
X159938796Y-82634000D01*
X154609800Y-91770200D02*
X152400000Y-93980000D01*
X154609800Y-87962996D02*
X154609800Y-91770200D01*
X159938796Y-82634000D02*
X154609800Y-87962996D01*
X162627800Y-83904000D02*
X159402600Y-83904000D01*
X155117800Y-93802200D02*
X152400000Y-96520000D01*
X155117800Y-88188800D02*
X155117800Y-93802200D01*
X159402600Y-83904000D02*
X155117800Y-88188800D01*
X162627800Y-85174000D02*
X158945400Y-85174000D01*
X155676600Y-95783400D02*
X152400000Y-99060000D01*
X155676600Y-88442800D02*
X155676600Y-95783400D01*
X158945400Y-85174000D02*
X155676600Y-88442800D01*
X162627800Y-86444000D02*
X158539000Y-86444000D01*
X156133800Y-97866200D02*
X152400000Y-101600000D01*
X156133800Y-88849200D02*
X156133800Y-97866200D01*
X158539000Y-86444000D02*
X156133800Y-88849200D01*
X152400000Y-101600000D02*
X152654000Y-101600000D01*
X162627800Y-87714000D02*
X158132600Y-87714000D01*
X156692600Y-99847400D02*
X152400000Y-104140000D01*
X156692600Y-89154000D02*
X156692600Y-99847400D01*
X158132600Y-87714000D02*
X156692600Y-89154000D01*
X152400000Y-104140000D02*
X152781000Y-104140000D01*
X167182800Y-89204000D02*
X167182800Y-90754200D01*
X157251400Y-101828600D02*
X152400000Y-106680000D01*
X157251400Y-92202000D02*
X157251400Y-101828600D01*
X158013400Y-91440000D02*
X157251400Y-92202000D01*
X166497000Y-91440000D02*
X158013400Y-91440000D01*
X167182800Y-90754200D02*
X166497000Y-91440000D01*
X180627800Y-72474000D02*
X186748600Y-72474000D01*
X186748600Y-72474000D02*
X190474600Y-76200000D01*
X180627800Y-73744000D02*
X185478600Y-73744000D01*
X185478600Y-73744000D02*
X190474600Y-78740000D01*
X180627800Y-77554000D02*
X181668600Y-77554000D01*
X181668600Y-77554000D02*
X190474600Y-86360000D01*
X180627800Y-80094000D02*
X181668600Y-80094000D01*
X181668600Y-80094000D02*
X190474600Y-88900000D01*
X180627800Y-81364000D02*
X182024200Y-81364000D01*
X188899800Y-89865200D02*
X190474600Y-91440000D01*
X188899800Y-88239600D02*
X188899800Y-89865200D01*
X182024200Y-81364000D02*
X188899800Y-88239600D01*
X184378600Y-105194800D02*
X183299800Y-106273600D01*
X184378600Y-97688400D02*
X184378600Y-105194800D01*
X184327800Y-97637600D02*
X184378600Y-97688400D01*
X180627800Y-82634000D02*
X182640998Y-82634000D01*
X188341000Y-91846400D02*
X190474600Y-93980000D01*
X188341000Y-88334002D02*
X188341000Y-91846400D01*
X182640998Y-82634000D02*
X188341000Y-88334002D01*
X180627800Y-83904000D02*
X183192600Y-83904000D01*
X187782200Y-93827600D02*
X190474600Y-96520000D01*
X187782200Y-88493600D02*
X187782200Y-93827600D01*
X183192600Y-83904000D02*
X187782200Y-88493600D01*
X180627800Y-85174000D02*
X183707798Y-85174000D01*
X187172600Y-95758000D02*
X190474600Y-99060000D01*
X187172600Y-88638802D02*
X187172600Y-95758000D01*
X183707798Y-85174000D02*
X187172600Y-88638802D01*
X180627800Y-86444000D02*
X184215798Y-86444000D01*
X186613800Y-97739200D02*
X190474600Y-101600000D01*
X186613800Y-88842002D02*
X186613800Y-97739200D01*
X184215798Y-86444000D02*
X186613800Y-88842002D01*
X177342800Y-89204000D02*
X184232598Y-89204000D01*
X185597800Y-101803200D02*
X190474600Y-106680000D01*
X185597800Y-90569202D02*
X185597800Y-101803200D01*
X184232598Y-89204000D02*
X185597800Y-90569202D01*
X190246000Y-106680000D02*
X190500000Y-106680000D01*
X176072800Y-89204000D02*
X176072800Y-90144600D01*
X176072800Y-90144600D02*
X177876200Y-91948000D01*
X177876200Y-91948000D02*
X184378600Y-91948000D01*
X184378600Y-91948000D02*
X185089800Y-92659200D01*
X185089800Y-92659200D02*
X185089800Y-103835200D01*
X185089800Y-103835200D02*
X190474600Y-109220000D01*
X190500000Y-109220000D02*
X190500000Y-108966000D01*
X176718200Y-116525000D02*
X176718200Y-115478800D01*
X166913800Y-109890800D02*
X166913800Y-111140200D01*
X166751000Y-109728000D02*
X166913800Y-109890800D01*
X176718200Y-115478800D02*
X176453800Y-115214400D01*
X176606200Y-96367600D02*
X176606200Y-96418400D01*
X178169400Y-97981600D02*
X179221000Y-97981600D01*
X176606200Y-96418400D02*
X178169400Y-97981600D01*
X175641000Y-97344800D02*
X175641000Y-97332800D01*
X175641000Y-97332800D02*
X176606200Y-96367600D01*
X176606200Y-96367600D02*
X176606200Y-94620800D01*
X176606200Y-94620800D02*
X175574200Y-93588800D01*
X175625000Y-100802400D02*
X175625000Y-99939600D01*
X181221000Y-97340800D02*
X181221000Y-97981600D01*
X181483000Y-97078800D02*
X181221000Y-97340800D01*
X175625000Y-99939600D02*
X175641000Y-99923600D01*
X173761400Y-98844800D02*
X173761400Y-98938800D01*
X173761400Y-98938800D02*
X175625000Y-100802400D01*
X175472600Y-102702400D02*
X175859400Y-102702400D01*
X175859400Y-102702400D02*
X176352200Y-102209600D01*
X176352200Y-102209600D02*
X176352200Y-99708400D01*
X176352200Y-99708400D02*
X175488600Y-98844800D01*
X173761400Y-97344800D02*
X173761400Y-97301600D01*
X173761400Y-97301600D02*
X175574200Y-95488800D01*
X171780200Y-93890400D02*
X172925800Y-93890400D01*
X172925800Y-93890400D02*
X173574200Y-94538800D01*
X180627800Y-87714000D02*
X178909800Y-87714000D01*
X173574200Y-93437200D02*
X173574200Y-94538800D01*
X173405800Y-93268800D02*
X173574200Y-93437200D01*
X178909800Y-87714000D02*
X178841400Y-87782400D01*
X180627800Y-87714000D02*
X184825398Y-87714000D01*
X186105800Y-99771200D02*
X190474600Y-104140000D01*
X186105800Y-88994402D02*
X186105800Y-99771200D01*
X184825398Y-87714000D02*
X186105800Y-88994402D01*
X181799800Y-106273600D02*
X181799800Y-106566400D01*
X181799800Y-106566400D02*
X180771800Y-107594400D01*
X181799800Y-106273600D02*
X181799800Y-106668000D01*
X181799800Y-106273600D02*
X181799800Y-106718800D01*
X181799800Y-106273600D02*
X181799800Y-106515600D01*
X178892200Y-96101600D02*
X179185000Y-96101600D01*
X179185000Y-96101600D02*
X180221000Y-97137600D01*
X180221000Y-97137600D02*
X180221000Y-97981600D01*
X180721000Y-97981600D02*
X180721000Y-96152400D01*
X180721000Y-96152400D02*
X180771800Y-96101600D01*
D34*
G36*
X151034562Y-69925596D02*
X150942000Y-70149062D01*
X150942000Y-70814000D01*
X151094000Y-70966000D01*
X152246000Y-70966000D01*
X152246000Y-70946000D01*
X152554000Y-70946000D01*
X152554000Y-70966000D01*
X153706000Y-70966000D01*
X153783849Y-70888151D01*
X160818046Y-70888151D01*
X160934984Y-71050000D01*
X162473800Y-71050000D01*
X162473800Y-70146000D01*
X162781800Y-70146000D01*
X162781800Y-71050000D01*
X164320616Y-71050000D01*
X164437554Y-70888151D01*
X178818046Y-70888151D01*
X178934984Y-71050000D01*
X180473800Y-71050000D01*
X180473800Y-70146000D01*
X180781800Y-70146000D01*
X180781800Y-71050000D01*
X182320616Y-71050000D01*
X182437554Y-70888151D01*
X182284814Y-70564776D01*
X181974957Y-70285469D01*
X181581800Y-70146000D01*
X180781800Y-70146000D01*
X180473800Y-70146000D01*
X179673800Y-70146000D01*
X179280643Y-70285469D01*
X178970786Y-70564776D01*
X178818046Y-70888151D01*
X164437554Y-70888151D01*
X164284814Y-70564776D01*
X163974957Y-70285469D01*
X163581800Y-70146000D01*
X162781800Y-70146000D01*
X162473800Y-70146000D01*
X161673800Y-70146000D01*
X161280643Y-70285469D01*
X160970786Y-70564776D01*
X160818046Y-70888151D01*
X153783849Y-70888151D01*
X153858000Y-70814000D01*
X153858000Y-70149062D01*
X153765438Y-69925596D01*
X153688242Y-69848400D01*
X189186358Y-69848400D01*
X189109162Y-69925596D01*
X189016600Y-70149062D01*
X189016600Y-70814000D01*
X189168600Y-70966000D01*
X190320600Y-70966000D01*
X190320600Y-70946000D01*
X190628600Y-70946000D01*
X190628600Y-70966000D01*
X191780600Y-70966000D01*
X191932600Y-70814000D01*
X191932600Y-70149062D01*
X191840038Y-69925596D01*
X191762842Y-69848400D01*
X192665000Y-69848400D01*
X192665000Y-120613064D01*
X192590085Y-120989689D01*
X192397666Y-121277666D01*
X192109689Y-121470085D01*
X191801676Y-121531353D01*
X191744600Y-121520000D01*
X182756330Y-121520000D01*
X181994330Y-120758000D01*
X182389139Y-120758000D01*
X182612605Y-120665437D01*
X182783638Y-120494404D01*
X182876200Y-120270938D01*
X182876200Y-119506000D01*
X182724200Y-119354000D01*
X181622200Y-119354000D01*
X181622200Y-119374000D01*
X181314200Y-119374000D01*
X181314200Y-119354000D01*
X180212200Y-119354000D01*
X180060200Y-119506000D01*
X180060200Y-120270938D01*
X180152762Y-120494404D01*
X180187358Y-120529000D01*
X179299042Y-120529000D01*
X179333638Y-120494404D01*
X179426200Y-120270938D01*
X179426200Y-119506000D01*
X179274200Y-119354000D01*
X178372200Y-119354000D01*
X178372200Y-119374000D01*
X178064200Y-119374000D01*
X178064200Y-119354000D01*
X176672200Y-119354000D01*
X176672200Y-119374000D01*
X176364200Y-119374000D01*
X176364200Y-119354000D01*
X175462200Y-119354000D01*
X175310200Y-119506000D01*
X175310200Y-120270938D01*
X175402762Y-120494404D01*
X175437358Y-120529000D01*
X174549042Y-120529000D01*
X174583638Y-120494404D01*
X174676200Y-120270938D01*
X174676200Y-119506000D01*
X174524200Y-119354000D01*
X173422200Y-119354000D01*
X173422200Y-119374000D01*
X173114200Y-119374000D01*
X173114200Y-119354000D01*
X172012200Y-119354000D01*
X171860200Y-119506000D01*
X171860200Y-120270938D01*
X171952762Y-120494404D01*
X172123795Y-120665437D01*
X172347261Y-120758000D01*
X172528914Y-120758000D01*
X171766914Y-121520000D01*
X151155400Y-121520000D01*
X151098326Y-121531353D01*
X150790311Y-121470085D01*
X150502334Y-121277666D01*
X150309915Y-120989689D01*
X150235000Y-120613068D01*
X150235000Y-118414800D01*
X151107476Y-118414800D01*
X151277402Y-119269073D01*
X151761309Y-119993291D01*
X152485527Y-120477198D01*
X153339800Y-120647124D01*
X154194073Y-120477198D01*
X154918291Y-119993291D01*
X155402198Y-119269073D01*
X155572124Y-118414800D01*
X155515287Y-118129062D01*
X171860200Y-118129062D01*
X171860200Y-118894000D01*
X172012200Y-119046000D01*
X173114200Y-119046000D01*
X173114200Y-119026000D01*
X173422200Y-119026000D01*
X173422200Y-119046000D01*
X174524200Y-119046000D01*
X174676200Y-118894000D01*
X174676200Y-118458000D01*
X175310200Y-118458000D01*
X175310200Y-118894000D01*
X175462200Y-119046000D01*
X176364200Y-119046000D01*
X176364200Y-119026000D01*
X176672200Y-119026000D01*
X176672200Y-119046000D01*
X178064200Y-119046000D01*
X178064200Y-117794000D01*
X177912200Y-117642000D01*
X177497261Y-117642000D01*
X177368200Y-117695459D01*
X177239139Y-117642000D01*
X176824200Y-117642000D01*
X176672202Y-117793998D01*
X176672202Y-117655840D01*
X176783638Y-117544404D01*
X176799596Y-117505877D01*
X176918200Y-117505877D01*
X177029373Y-117484958D01*
X177041979Y-117476846D01*
X177049197Y-117481778D01*
X177168200Y-117505877D01*
X177568200Y-117505877D01*
X177679373Y-117484958D01*
X177691979Y-117476846D01*
X177699197Y-117481778D01*
X177818200Y-117505877D01*
X178218200Y-117505877D01*
X178329373Y-117484958D01*
X178341979Y-117476846D01*
X178349197Y-117481778D01*
X178468200Y-117505877D01*
X178810200Y-117505877D01*
X178810200Y-117642000D01*
X178524200Y-117642000D01*
X178372200Y-117794000D01*
X178372200Y-119046000D01*
X179274200Y-119046000D01*
X179426200Y-118894000D01*
X179426200Y-118458000D01*
X180060200Y-118458000D01*
X180060200Y-118894000D01*
X180212200Y-119046000D01*
X181314200Y-119046000D01*
X181314200Y-119026000D01*
X181622200Y-119026000D01*
X181622200Y-119046000D01*
X182724200Y-119046000D01*
X182876200Y-118894000D01*
X182876200Y-118364000D01*
X187277076Y-118364000D01*
X187447002Y-119218273D01*
X187930909Y-119942491D01*
X188655127Y-120426398D01*
X189509400Y-120596324D01*
X190363673Y-120426398D01*
X191087891Y-119942491D01*
X191571798Y-119218273D01*
X191741724Y-118364000D01*
X191571798Y-117509727D01*
X191087891Y-116785509D01*
X190363673Y-116301602D01*
X189509400Y-116131676D01*
X188655127Y-116301602D01*
X187930909Y-116785509D01*
X187447002Y-117509727D01*
X187277076Y-118364000D01*
X182876200Y-118364000D01*
X182876200Y-118129062D01*
X182783638Y-117905596D01*
X182612605Y-117734563D01*
X182389139Y-117642000D01*
X182126200Y-117642000D01*
X182126200Y-117156000D01*
X181974200Y-117004000D01*
X180622200Y-117004000D01*
X180622200Y-117024000D01*
X180314200Y-117024000D01*
X180314200Y-117004000D01*
X180294200Y-117004000D01*
X180294200Y-116696000D01*
X180314200Y-116696000D01*
X180314200Y-115394000D01*
X180622200Y-115394000D01*
X180622200Y-116696000D01*
X181974200Y-116696000D01*
X182126200Y-116544000D01*
X182126200Y-115729062D01*
X182033638Y-115505596D01*
X181862605Y-115334563D01*
X181639139Y-115242000D01*
X180774200Y-115242000D01*
X180622200Y-115394000D01*
X180314200Y-115394000D01*
X180162200Y-115242000D01*
X179297261Y-115242000D01*
X179093200Y-115326525D01*
X179093200Y-108390045D01*
X179110683Y-108407559D01*
X179331129Y-108499096D01*
X179500804Y-108499244D01*
X183062080Y-112060521D01*
X183199959Y-112152649D01*
X183362600Y-112185000D01*
X189386608Y-112185000D01*
X189389609Y-112200086D01*
X189638897Y-112573173D01*
X190011984Y-112822461D01*
X190452070Y-112910000D01*
X190497130Y-112910000D01*
X190937216Y-112822461D01*
X191310303Y-112573173D01*
X191559591Y-112200086D01*
X191647130Y-111760000D01*
X191559591Y-111319914D01*
X191310303Y-110946827D01*
X190937216Y-110697539D01*
X190497130Y-110610000D01*
X190452070Y-110610000D01*
X190011984Y-110697539D01*
X189638897Y-110946827D01*
X189389609Y-111319914D01*
X189386608Y-111335000D01*
X183538641Y-111335000D01*
X180051046Y-107847406D01*
X180051104Y-107780376D01*
X180023358Y-107713224D01*
X180171696Y-107713224D01*
X180262848Y-107933829D01*
X180431483Y-108102759D01*
X180651929Y-108194296D01*
X180890624Y-108194504D01*
X181111229Y-108103352D01*
X181280159Y-107934717D01*
X181371696Y-107714271D01*
X181371800Y-107595441D01*
X181829311Y-107137930D01*
X181962440Y-107111449D01*
X182098964Y-107020226D01*
X182160973Y-107008558D01*
X182263079Y-106942855D01*
X182331578Y-106842603D01*
X182355677Y-106723600D01*
X182355677Y-105823600D01*
X182334758Y-105712427D01*
X182269055Y-105610321D01*
X182168803Y-105541822D01*
X182049800Y-105517723D01*
X181549800Y-105517723D01*
X181438627Y-105538642D01*
X181336521Y-105604345D01*
X181268022Y-105704597D01*
X181243923Y-105823600D01*
X181243923Y-106521236D01*
X181209000Y-106556159D01*
X181209000Y-106528800D01*
X181057000Y-106376800D01*
X180355000Y-106376800D01*
X180355000Y-107053800D01*
X180409490Y-107108290D01*
X180263441Y-107254083D01*
X180171904Y-107474529D01*
X180171696Y-107713224D01*
X180023358Y-107713224D01*
X179959952Y-107559771D01*
X179791317Y-107390841D01*
X179570871Y-107299304D01*
X179332176Y-107299096D01*
X179111571Y-107390248D01*
X179093200Y-107408587D01*
X179093200Y-106903677D01*
X179101000Y-106903677D01*
X179212173Y-106882758D01*
X179250676Y-106857982D01*
X179285562Y-106942204D01*
X179456595Y-107113237D01*
X179680061Y-107205800D01*
X179895000Y-107205800D01*
X180047000Y-107053800D01*
X180047000Y-106376800D01*
X180027000Y-106376800D01*
X180027000Y-106068800D01*
X180047000Y-106068800D01*
X180047000Y-105391800D01*
X180355000Y-105391800D01*
X180355000Y-106068800D01*
X181057000Y-106068800D01*
X181209000Y-105916800D01*
X181209000Y-105726862D01*
X181116438Y-105503396D01*
X180945405Y-105332363D01*
X180721939Y-105239800D01*
X180507000Y-105239800D01*
X180355000Y-105391800D01*
X180047000Y-105391800D01*
X179895000Y-105239800D01*
X179680061Y-105239800D01*
X179456595Y-105332363D01*
X179285562Y-105503396D01*
X179250882Y-105587121D01*
X179220003Y-105566022D01*
X179126000Y-105546986D01*
X179126000Y-105218800D01*
X179109084Y-105133756D01*
X179521521Y-104721320D01*
X179613649Y-104583441D01*
X179646000Y-104420800D01*
X179646000Y-103605886D01*
X179721000Y-103620804D01*
X179893208Y-103586550D01*
X179971000Y-103534571D01*
X180048792Y-103586550D01*
X180221000Y-103620804D01*
X180393208Y-103586550D01*
X180471000Y-103534571D01*
X180548792Y-103586550D01*
X180721000Y-103620804D01*
X180893208Y-103586550D01*
X180971000Y-103534571D01*
X181048792Y-103586550D01*
X181221000Y-103620804D01*
X181393208Y-103586550D01*
X181471000Y-103534571D01*
X181548792Y-103586550D01*
X181721000Y-103620804D01*
X181893208Y-103586550D01*
X181971000Y-103534571D01*
X182048792Y-103586550D01*
X182221000Y-103620804D01*
X182393208Y-103586550D01*
X182539198Y-103489002D01*
X182636746Y-103343012D01*
X182671000Y-103170804D01*
X182671000Y-102650786D01*
X182740405Y-102622037D01*
X182911438Y-102451004D01*
X182940186Y-102381600D01*
X183460204Y-102381600D01*
X183632412Y-102347346D01*
X183778402Y-102249798D01*
X183875950Y-102103808D01*
X183910204Y-101931600D01*
X183875950Y-101759392D01*
X183823971Y-101681600D01*
X183875950Y-101603808D01*
X183910204Y-101431600D01*
X183875950Y-101259392D01*
X183823971Y-101181600D01*
X183875950Y-101103808D01*
X183910204Y-100931600D01*
X183875950Y-100759392D01*
X183823971Y-100681600D01*
X183875950Y-100603808D01*
X183910204Y-100431600D01*
X183875950Y-100259392D01*
X183823971Y-100181600D01*
X183875950Y-100103808D01*
X183910204Y-99931600D01*
X183875950Y-99759392D01*
X183823971Y-99681600D01*
X183875950Y-99603808D01*
X183910204Y-99431600D01*
X183875950Y-99259392D01*
X183823971Y-99181600D01*
X183875950Y-99103808D01*
X183910204Y-98931600D01*
X183875950Y-98759392D01*
X183778402Y-98613402D01*
X183632412Y-98515854D01*
X183460204Y-98481600D01*
X182940186Y-98481600D01*
X182911438Y-98412196D01*
X182740405Y-98241163D01*
X182671000Y-98212414D01*
X182671000Y-97692396D01*
X182636746Y-97520188D01*
X182539198Y-97374198D01*
X182393208Y-97276650D01*
X182221000Y-97242396D01*
X182050672Y-97276276D01*
X182082896Y-97198671D01*
X182083104Y-96959976D01*
X181991952Y-96739371D01*
X181823317Y-96570441D01*
X181602871Y-96478904D01*
X181497969Y-96478813D01*
X181503578Y-96470603D01*
X181527677Y-96351600D01*
X181527677Y-95851600D01*
X181506758Y-95740427D01*
X181441055Y-95638321D01*
X181340803Y-95569822D01*
X181221800Y-95545723D01*
X180321800Y-95545723D01*
X180210627Y-95566642D01*
X180108521Y-95632345D01*
X180040022Y-95732597D01*
X180015923Y-95851600D01*
X180015923Y-96331482D01*
X179648077Y-95963637D01*
X179648077Y-95851600D01*
X179627158Y-95740427D01*
X179561455Y-95638321D01*
X179461203Y-95569822D01*
X179342200Y-95545723D01*
X178442200Y-95545723D01*
X178331027Y-95566642D01*
X178228921Y-95632345D01*
X178160422Y-95732597D01*
X178136323Y-95851600D01*
X178136323Y-96351600D01*
X178157242Y-96462773D01*
X178222945Y-96564879D01*
X178323197Y-96633378D01*
X178442200Y-96657477D01*
X179139837Y-96657477D01*
X179725688Y-97243328D01*
X179721000Y-97242396D01*
X179548792Y-97276650D01*
X179471000Y-97328629D01*
X179393208Y-97276650D01*
X179221000Y-97242396D01*
X179048792Y-97276650D01*
X178902802Y-97374198D01*
X178805254Y-97520188D01*
X178798011Y-97556600D01*
X178345441Y-97556600D01*
X177031200Y-96242360D01*
X177031200Y-94620800D01*
X176998849Y-94458160D01*
X176961039Y-94401573D01*
X176906720Y-94320279D01*
X176228477Y-93642037D01*
X176228477Y-93188800D01*
X176207558Y-93077627D01*
X176141855Y-92975521D01*
X176041603Y-92907022D01*
X175922600Y-92882923D01*
X175022600Y-92882923D01*
X174911427Y-92903842D01*
X174809321Y-92969545D01*
X174740822Y-93069797D01*
X174716723Y-93188800D01*
X174716723Y-93988800D01*
X174737642Y-94099973D01*
X174803345Y-94202079D01*
X174903597Y-94270578D01*
X175022600Y-94294677D01*
X175679037Y-94294677D01*
X176181200Y-94796841D01*
X176181200Y-94936665D01*
X176141855Y-94875521D01*
X176041603Y-94807022D01*
X175922600Y-94782923D01*
X175022600Y-94782923D01*
X174911427Y-94803842D01*
X174809321Y-94869545D01*
X174740822Y-94969797D01*
X174716723Y-95088800D01*
X174716723Y-95745236D01*
X173673037Y-96788923D01*
X173209800Y-96788923D01*
X173098627Y-96809842D01*
X172996521Y-96875545D01*
X172928022Y-96975797D01*
X172903923Y-97094800D01*
X172903923Y-97594800D01*
X172924842Y-97705973D01*
X172990545Y-97808079D01*
X173090797Y-97876578D01*
X173209800Y-97900677D01*
X174109800Y-97900677D01*
X174220973Y-97879758D01*
X174323079Y-97814055D01*
X174391578Y-97713803D01*
X174415677Y-97594800D01*
X174415677Y-97248363D01*
X175469364Y-96194677D01*
X175922600Y-96194677D01*
X176033773Y-96173758D01*
X176135879Y-96108055D01*
X176181200Y-96041725D01*
X176181200Y-96191560D01*
X175583837Y-96788923D01*
X175038600Y-96788923D01*
X174927427Y-96809842D01*
X174825321Y-96875545D01*
X174756822Y-96975797D01*
X174732723Y-97094800D01*
X174732723Y-97594800D01*
X174753642Y-97705973D01*
X174819345Y-97808079D01*
X174919597Y-97876578D01*
X175038600Y-97900677D01*
X175938600Y-97900677D01*
X176049773Y-97879758D01*
X176151879Y-97814055D01*
X176220378Y-97713803D01*
X176244477Y-97594800D01*
X176244477Y-97330363D01*
X176580800Y-96994040D01*
X177868880Y-98282121D01*
X178006759Y-98374249D01*
X178169400Y-98406600D01*
X178536158Y-98406600D01*
X178530562Y-98412196D01*
X178501814Y-98481600D01*
X177981796Y-98481600D01*
X177809588Y-98515854D01*
X177663598Y-98613402D01*
X177566050Y-98759392D01*
X177531796Y-98931600D01*
X177566050Y-99103808D01*
X177618029Y-99181600D01*
X177566050Y-99259392D01*
X177556899Y-99305395D01*
X177444037Y-99381011D01*
X177275351Y-99634149D01*
X177262739Y-99739528D01*
X177394659Y-99856600D01*
X177856111Y-99856600D01*
X177981796Y-99881600D01*
X178445000Y-99881600D01*
X178445000Y-99893100D01*
X178438000Y-99900100D01*
X178438000Y-99981600D01*
X177981796Y-99981600D01*
X177856111Y-100006600D01*
X177394659Y-100006600D01*
X177372952Y-100025864D01*
X177307159Y-100038951D01*
X177169280Y-100131079D01*
X176777200Y-100523160D01*
X176777200Y-99708400D01*
X176766747Y-99655849D01*
X176744849Y-99545759D01*
X176652721Y-99407880D01*
X176244477Y-98999636D01*
X176244477Y-98594800D01*
X176223558Y-98483627D01*
X176157855Y-98381521D01*
X176057603Y-98313022D01*
X175938600Y-98288923D01*
X175038600Y-98288923D01*
X174927427Y-98309842D01*
X174825321Y-98375545D01*
X174756822Y-98475797D01*
X174732723Y-98594800D01*
X174732723Y-99094800D01*
X174753642Y-99205973D01*
X174819345Y-99308079D01*
X174919597Y-99376578D01*
X175038600Y-99400677D01*
X175335383Y-99400677D01*
X175301571Y-99414648D01*
X175132641Y-99583283D01*
X175095755Y-99672114D01*
X174415677Y-98992037D01*
X174415677Y-98594800D01*
X174394758Y-98483627D01*
X174329055Y-98381521D01*
X174228803Y-98313022D01*
X174109800Y-98288923D01*
X173209800Y-98288923D01*
X173098627Y-98309842D01*
X172996521Y-98375545D01*
X172928022Y-98475797D01*
X172903923Y-98594800D01*
X172903923Y-99094800D01*
X172924842Y-99205973D01*
X172990545Y-99308079D01*
X173090797Y-99376578D01*
X173209800Y-99400677D01*
X173622237Y-99400677D01*
X174716723Y-100495164D01*
X174716723Y-101202400D01*
X174737642Y-101313573D01*
X174803345Y-101415679D01*
X174903597Y-101484178D01*
X175022600Y-101508277D01*
X175922600Y-101508277D01*
X175927200Y-101507411D01*
X175927200Y-101997455D01*
X175922600Y-101996523D01*
X175022600Y-101996523D01*
X174911427Y-102017442D01*
X174809321Y-102083145D01*
X174740822Y-102183397D01*
X174716723Y-102302400D01*
X174716723Y-103102400D01*
X174737642Y-103213573D01*
X174803345Y-103315679D01*
X174903597Y-103384178D01*
X175022600Y-103408277D01*
X175922600Y-103408277D01*
X176033773Y-103387358D01*
X176135879Y-103321655D01*
X176204378Y-103221403D01*
X176228477Y-103102400D01*
X176228477Y-102934363D01*
X176435200Y-102727641D01*
X176435200Y-107289600D01*
X176448917Y-107358558D01*
X176467551Y-107452241D01*
X176559680Y-107590120D01*
X176943200Y-107973641D01*
X176943200Y-108542558D01*
X176809041Y-108676483D01*
X176717504Y-108896929D01*
X176717296Y-109135624D01*
X176808448Y-109356229D01*
X176943200Y-109491217D01*
X176943200Y-114855385D01*
X176794117Y-114706041D01*
X176573671Y-114614504D01*
X176334976Y-114614296D01*
X176114371Y-114705448D01*
X175945441Y-114874083D01*
X175853904Y-115094529D01*
X175853743Y-115279543D01*
X175816200Y-115242000D01*
X175747261Y-115242000D01*
X175593200Y-115305814D01*
X175439139Y-115242000D01*
X174574200Y-115242000D01*
X174422200Y-115394000D01*
X174422200Y-116696000D01*
X174442200Y-116696000D01*
X174442200Y-117004000D01*
X174422200Y-117004000D01*
X174422200Y-117024000D01*
X174114200Y-117024000D01*
X174114200Y-117004000D01*
X172762200Y-117004000D01*
X172610200Y-117156000D01*
X172610200Y-117642000D01*
X172347261Y-117642000D01*
X172123795Y-117734563D01*
X171952762Y-117905596D01*
X171860200Y-118129062D01*
X155515287Y-118129062D01*
X155402198Y-117560527D01*
X154918291Y-116836309D01*
X154194073Y-116352402D01*
X153339800Y-116182476D01*
X152485527Y-116352402D01*
X151761309Y-116836309D01*
X151277402Y-117560527D01*
X151107476Y-118414800D01*
X150235000Y-118414800D01*
X150235000Y-115729062D01*
X172610200Y-115729062D01*
X172610200Y-116544000D01*
X172762200Y-116696000D01*
X174114200Y-116696000D01*
X174114200Y-115394000D01*
X173962200Y-115242000D01*
X173097261Y-115242000D01*
X172873795Y-115334563D01*
X172702762Y-115505596D01*
X172610200Y-115729062D01*
X150235000Y-115729062D01*
X150235000Y-114121200D01*
X162055800Y-114121200D01*
X162055800Y-114886138D01*
X162148362Y-115109604D01*
X162319395Y-115280637D01*
X162542861Y-115373200D01*
X163157800Y-115373200D01*
X163309800Y-115221200D01*
X163309800Y-113969200D01*
X163617800Y-113969200D01*
X163617800Y-115221200D01*
X163769800Y-115373200D01*
X164384739Y-115373200D01*
X164608205Y-115280637D01*
X164779238Y-115109604D01*
X164871800Y-114886138D01*
X164871800Y-114121200D01*
X165505800Y-114121200D01*
X165505800Y-114886138D01*
X165598362Y-115109604D01*
X165769395Y-115280637D01*
X165992861Y-115373200D01*
X166407800Y-115373200D01*
X166559800Y-115221200D01*
X166559800Y-113969200D01*
X166867800Y-113969200D01*
X166867800Y-115221200D01*
X167019800Y-115373200D01*
X167434739Y-115373200D01*
X167563800Y-115319741D01*
X167692861Y-115373200D01*
X168107800Y-115373200D01*
X168259800Y-115221200D01*
X168259800Y-113969200D01*
X168567800Y-113969200D01*
X168567800Y-115221200D01*
X168719800Y-115373200D01*
X169134739Y-115373200D01*
X169358205Y-115280637D01*
X169529238Y-115109604D01*
X169621800Y-114886138D01*
X169621800Y-114121200D01*
X170255800Y-114121200D01*
X170255800Y-114886138D01*
X170348362Y-115109604D01*
X170519395Y-115280637D01*
X170742861Y-115373200D01*
X171357800Y-115373200D01*
X171509800Y-115221200D01*
X171509800Y-113969200D01*
X171817800Y-113969200D01*
X171817800Y-115221200D01*
X171969800Y-115373200D01*
X172584739Y-115373200D01*
X172808205Y-115280637D01*
X172979238Y-115109604D01*
X173071800Y-114886138D01*
X173071800Y-114121200D01*
X172919800Y-113969200D01*
X171817800Y-113969200D01*
X171509800Y-113969200D01*
X170407800Y-113969200D01*
X170255800Y-114121200D01*
X169621800Y-114121200D01*
X169469800Y-113969200D01*
X168567800Y-113969200D01*
X168259800Y-113969200D01*
X166867800Y-113969200D01*
X166559800Y-113969200D01*
X165657800Y-113969200D01*
X165505800Y-114121200D01*
X164871800Y-114121200D01*
X164719800Y-113969200D01*
X163617800Y-113969200D01*
X163309800Y-113969200D01*
X162207800Y-113969200D01*
X162055800Y-114121200D01*
X150235000Y-114121200D01*
X150235000Y-109598910D01*
X150992097Y-109598910D01*
X151136523Y-109947616D01*
X151511146Y-110375741D01*
X152021089Y-110627915D01*
X152245998Y-110517857D01*
X152245998Y-110636152D01*
X151937384Y-110697539D01*
X151564297Y-110946827D01*
X151315009Y-111319914D01*
X151227470Y-111760000D01*
X151315009Y-112200086D01*
X151564297Y-112573173D01*
X151937384Y-112822461D01*
X152377470Y-112910000D01*
X152422530Y-112910000D01*
X152862616Y-112822461D01*
X153235703Y-112573173D01*
X153484991Y-112200086D01*
X153487992Y-112185000D01*
X157264800Y-112185000D01*
X157400457Y-112158016D01*
X157427441Y-112152649D01*
X157565320Y-112060520D01*
X159281578Y-110344262D01*
X162805800Y-110344262D01*
X162805800Y-111159200D01*
X162957800Y-111311200D01*
X164309800Y-111311200D01*
X164309800Y-110009200D01*
X164157800Y-109857200D01*
X163292861Y-109857200D01*
X163069395Y-109949763D01*
X162898362Y-110120796D01*
X162805800Y-110344262D01*
X159281578Y-110344262D01*
X162671364Y-106954477D01*
X162831037Y-106954477D01*
X163923879Y-108047320D01*
X163999907Y-108098120D01*
X164061760Y-108139449D01*
X164224400Y-108171800D01*
X170721475Y-108171800D01*
X170666880Y-108208279D01*
X169276966Y-109598194D01*
X169190352Y-109388571D01*
X169072729Y-109270742D01*
X169189759Y-109153917D01*
X169281296Y-108933471D01*
X169281504Y-108694776D01*
X169190352Y-108474171D01*
X169021717Y-108305241D01*
X168801271Y-108213704D01*
X168562576Y-108213496D01*
X168341971Y-108304648D01*
X168173041Y-108473283D01*
X168081504Y-108693729D01*
X168081400Y-108812560D01*
X167331713Y-109562247D01*
X167259952Y-109388571D01*
X167091317Y-109219641D01*
X166870871Y-109128104D01*
X166632176Y-109127896D01*
X166411571Y-109219048D01*
X166242641Y-109387683D01*
X166151104Y-109608129D01*
X166150896Y-109846824D01*
X166155183Y-109857200D01*
X166109798Y-109857200D01*
X166109798Y-109955198D01*
X166011800Y-109857200D01*
X165942861Y-109857200D01*
X165788800Y-109921014D01*
X165634739Y-109857200D01*
X164769800Y-109857200D01*
X164617800Y-110009200D01*
X164617800Y-111311200D01*
X164637800Y-111311200D01*
X164637800Y-111619200D01*
X164617800Y-111619200D01*
X164617800Y-111639200D01*
X164309800Y-111639200D01*
X164309800Y-111619200D01*
X162957800Y-111619200D01*
X162805800Y-111771200D01*
X162805800Y-112257200D01*
X162542861Y-112257200D01*
X162319395Y-112349763D01*
X162148362Y-112520796D01*
X162055800Y-112744262D01*
X162055800Y-113509200D01*
X162207800Y-113661200D01*
X163309800Y-113661200D01*
X163309800Y-113641200D01*
X163617800Y-113641200D01*
X163617800Y-113661200D01*
X164719800Y-113661200D01*
X164871800Y-113509200D01*
X164871800Y-113073200D01*
X165505800Y-113073200D01*
X165505800Y-113509200D01*
X165657800Y-113661200D01*
X166559800Y-113661200D01*
X166559800Y-113641200D01*
X166867800Y-113641200D01*
X166867800Y-113661200D01*
X168259800Y-113661200D01*
X168259800Y-112409200D01*
X168107800Y-112257200D01*
X167692861Y-112257200D01*
X167563800Y-112310659D01*
X167434739Y-112257200D01*
X167019800Y-112257200D01*
X166867802Y-112409198D01*
X166867802Y-112271040D01*
X166979238Y-112159604D01*
X166995196Y-112121077D01*
X167113800Y-112121077D01*
X167224973Y-112100158D01*
X167237579Y-112092046D01*
X167244797Y-112096978D01*
X167363800Y-112121077D01*
X167763800Y-112121077D01*
X167874973Y-112100158D01*
X167887579Y-112092046D01*
X167894797Y-112096978D01*
X168013800Y-112121077D01*
X168413800Y-112121077D01*
X168524973Y-112100158D01*
X168537579Y-112092046D01*
X168544797Y-112096978D01*
X168663800Y-112121077D01*
X169005800Y-112121077D01*
X169005800Y-112257200D01*
X168719800Y-112257200D01*
X168567800Y-112409200D01*
X168567800Y-113661200D01*
X169469800Y-113661200D01*
X169621800Y-113509200D01*
X169621800Y-113073200D01*
X170255800Y-113073200D01*
X170255800Y-113509200D01*
X170407800Y-113661200D01*
X171509800Y-113661200D01*
X171509800Y-113641200D01*
X171817800Y-113641200D01*
X171817800Y-113661200D01*
X172919800Y-113661200D01*
X173071800Y-113509200D01*
X173071800Y-112744262D01*
X172979238Y-112520796D01*
X172808205Y-112349763D01*
X172584739Y-112257200D01*
X172321800Y-112257200D01*
X172321800Y-111771200D01*
X172169800Y-111619200D01*
X170817800Y-111619200D01*
X170817800Y-111639200D01*
X170509800Y-111639200D01*
X170509800Y-111619200D01*
X170489800Y-111619200D01*
X170489800Y-111311200D01*
X170509800Y-111311200D01*
X170509800Y-110009200D01*
X170817800Y-110009200D01*
X170817800Y-111311200D01*
X172169800Y-111311200D01*
X172321800Y-111159200D01*
X172321800Y-110344262D01*
X172229238Y-110120796D01*
X172058205Y-109949763D01*
X171834739Y-109857200D01*
X170969800Y-109857200D01*
X170817800Y-110009200D01*
X170509800Y-110009200D01*
X170357800Y-109857200D01*
X170220041Y-109857200D01*
X171143441Y-108933800D01*
X173338200Y-108933800D01*
X173483194Y-108904959D01*
X173500841Y-108901449D01*
X173638720Y-108809320D01*
X175367763Y-107080277D01*
X175922600Y-107080277D01*
X176033773Y-107059358D01*
X176135879Y-106993655D01*
X176204378Y-106893403D01*
X176228477Y-106774400D01*
X176228477Y-105874400D01*
X176207558Y-105763227D01*
X176141855Y-105661121D01*
X176041603Y-105592622D01*
X175947600Y-105573586D01*
X175947600Y-105545590D01*
X175996959Y-105496317D01*
X176088496Y-105275871D01*
X176088704Y-105037176D01*
X175997552Y-104816571D01*
X175828917Y-104647641D01*
X175608471Y-104556104D01*
X175369776Y-104555896D01*
X175149171Y-104647048D01*
X174980241Y-104815683D01*
X174888704Y-105036129D01*
X174888496Y-105274824D01*
X174979648Y-105495429D01*
X175063681Y-105579609D01*
X175011427Y-105589442D01*
X174909321Y-105655145D01*
X174840822Y-105755397D01*
X174816723Y-105874400D01*
X174816723Y-106429237D01*
X173162160Y-108083800D01*
X172280125Y-108083800D01*
X172334720Y-108047320D01*
X173301763Y-107080277D01*
X173576092Y-107080277D01*
X173615560Y-107106649D01*
X173778200Y-107139000D01*
X173940840Y-107106649D01*
X174078720Y-107014520D01*
X174170849Y-106876640D01*
X174203200Y-106714000D01*
X174203200Y-106324400D01*
X174170849Y-106161760D01*
X174128477Y-106098346D01*
X174128477Y-105874400D01*
X174107558Y-105763227D01*
X174041855Y-105661121D01*
X173941603Y-105592622D01*
X173822600Y-105568523D01*
X173022600Y-105568523D01*
X172911427Y-105589442D01*
X172809321Y-105655145D01*
X172740822Y-105755397D01*
X172716723Y-105874400D01*
X172716723Y-106463237D01*
X172407000Y-106772960D01*
X172407000Y-106579600D01*
X172255000Y-106427600D01*
X171453000Y-106427600D01*
X171453000Y-106447600D01*
X171145000Y-106447600D01*
X171145000Y-106427600D01*
X171125000Y-106427600D01*
X171125000Y-106119600D01*
X171145000Y-106119600D01*
X171145000Y-105017600D01*
X171453000Y-105017600D01*
X171453000Y-106119600D01*
X172255000Y-106119600D01*
X172407000Y-105967600D01*
X172407000Y-105352662D01*
X172314438Y-105129196D01*
X172143405Y-104958163D01*
X171919939Y-104865600D01*
X171605000Y-104865600D01*
X171453000Y-105017600D01*
X171145000Y-105017600D01*
X170993000Y-104865600D01*
X170678061Y-104865600D01*
X170454595Y-104958163D01*
X170283562Y-105129196D01*
X170191000Y-105352662D01*
X170191000Y-105967600D01*
X170342998Y-106119598D01*
X170290210Y-106119598D01*
X170139317Y-105968441D01*
X169918871Y-105876904D01*
X169737299Y-105876746D01*
X169725506Y-105874400D01*
X169595800Y-105848600D01*
X169104877Y-105848600D01*
X169104877Y-105473600D01*
X169083958Y-105362427D01*
X169018255Y-105260321D01*
X168918003Y-105191822D01*
X168799000Y-105167723D01*
X167799000Y-105167723D01*
X167687827Y-105188642D01*
X167585721Y-105254345D01*
X167517222Y-105354597D01*
X167493123Y-105473600D01*
X167493123Y-105848600D01*
X166825869Y-105848600D01*
X166814358Y-105787427D01*
X166748655Y-105685321D01*
X166648403Y-105616822D01*
X166605200Y-105608073D01*
X166605200Y-104409773D01*
X166691373Y-104393558D01*
X166793479Y-104327855D01*
X166861978Y-104227603D01*
X166886077Y-104108600D01*
X166886077Y-103358600D01*
X166865158Y-103247427D01*
X166799455Y-103145321D01*
X166699203Y-103076822D01*
X166605200Y-103057786D01*
X166605200Y-102736200D01*
X168122600Y-102736200D01*
X168258257Y-102709216D01*
X168285241Y-102703849D01*
X168423120Y-102611720D01*
X169439120Y-101595720D01*
X169531249Y-101457841D01*
X169547090Y-101378201D01*
X169563600Y-101295200D01*
X169563600Y-100532261D01*
X170797200Y-100532261D01*
X170797200Y-100747200D01*
X170949200Y-100899200D01*
X171626200Y-100899200D01*
X171626200Y-100197200D01*
X171934200Y-100197200D01*
X171934200Y-100899200D01*
X172611200Y-100899200D01*
X172763200Y-100747200D01*
X172763200Y-100532261D01*
X172670637Y-100308795D01*
X172499604Y-100137762D01*
X172276138Y-100045200D01*
X172086200Y-100045200D01*
X171934200Y-100197200D01*
X171626200Y-100197200D01*
X171474200Y-100045200D01*
X171284262Y-100045200D01*
X171060796Y-100137762D01*
X170889763Y-100308795D01*
X170797200Y-100532261D01*
X169563600Y-100532261D01*
X169563600Y-99845640D01*
X170113371Y-99295869D01*
X170113296Y-99382024D01*
X170204448Y-99602629D01*
X170373083Y-99771559D01*
X170593529Y-99863096D01*
X170832224Y-99863304D01*
X171052829Y-99772152D01*
X171221759Y-99603517D01*
X171311804Y-99386664D01*
X171381000Y-99400677D01*
X171773837Y-99400677D01*
X173200000Y-100826840D01*
X173200000Y-101046523D01*
X173022600Y-101046523D01*
X172911427Y-101067442D01*
X172809321Y-101133145D01*
X172740822Y-101233397D01*
X172723405Y-101319405D01*
X172611200Y-101207200D01*
X171934200Y-101207200D01*
X171934200Y-101227200D01*
X171626200Y-101227200D01*
X171626200Y-101207200D01*
X170949200Y-101207200D01*
X170797200Y-101359200D01*
X170797200Y-101574139D01*
X170889763Y-101797605D01*
X171060796Y-101968638D01*
X171144521Y-102003318D01*
X171123422Y-102034197D01*
X171099323Y-102153200D01*
X171099323Y-102953200D01*
X171120242Y-103064373D01*
X171185945Y-103166479D01*
X171220919Y-103190376D01*
X171129504Y-103410529D01*
X171129296Y-103649224D01*
X171220448Y-103869829D01*
X171389083Y-104038759D01*
X171609529Y-104130296D01*
X171848224Y-104130504D01*
X172068829Y-104039352D01*
X172237759Y-103870717D01*
X172329296Y-103650271D01*
X172329504Y-103411576D01*
X172258464Y-103239646D01*
X172266373Y-103238158D01*
X172368479Y-103172455D01*
X172436978Y-103072203D01*
X172456014Y-102978200D01*
X173062200Y-102978200D01*
X173197857Y-102951216D01*
X173224841Y-102945849D01*
X173362720Y-102853720D01*
X173758164Y-102458277D01*
X173922600Y-102458277D01*
X174033773Y-102437358D01*
X174135879Y-102371655D01*
X174204378Y-102271403D01*
X174228477Y-102152400D01*
X174228477Y-101352400D01*
X174207558Y-101241227D01*
X174141855Y-101139121D01*
X174050000Y-101076359D01*
X174050000Y-100650800D01*
X174017649Y-100488160D01*
X174017649Y-100488159D01*
X173925520Y-100350280D01*
X172586877Y-99011637D01*
X172586877Y-98594800D01*
X172565958Y-98483627D01*
X172500255Y-98381521D01*
X172400003Y-98313022D01*
X172281000Y-98288923D01*
X171381000Y-98288923D01*
X171269827Y-98309842D01*
X171167721Y-98375545D01*
X171137483Y-98419800D01*
X171131800Y-98419800D01*
X170996143Y-98446784D01*
X170969159Y-98452151D01*
X170932785Y-98476456D01*
X171508564Y-97900677D01*
X172281000Y-97900677D01*
X172392173Y-97879758D01*
X172494279Y-97814055D01*
X172562778Y-97713803D01*
X172586877Y-97594800D01*
X172586877Y-97094800D01*
X172565958Y-96983627D01*
X172500255Y-96881521D01*
X172400003Y-96813022D01*
X172281000Y-96788923D01*
X171381000Y-96788923D01*
X171269827Y-96809842D01*
X171167721Y-96875545D01*
X171099222Y-96975797D01*
X171075123Y-97094800D01*
X171075123Y-97132036D01*
X168838080Y-99369080D01*
X168745951Y-99506959D01*
X168745951Y-99506960D01*
X168713600Y-99669600D01*
X168713600Y-101119160D01*
X167946560Y-101886200D01*
X166419041Y-101886200D01*
X162428720Y-97895880D01*
X162423589Y-97892451D01*
X164019640Y-96296400D01*
X165953523Y-96296400D01*
X165953523Y-100096400D01*
X165974442Y-100207573D01*
X166040145Y-100309679D01*
X166140397Y-100378178D01*
X166259400Y-100402277D01*
X168259400Y-100402277D01*
X168370573Y-100381358D01*
X168472679Y-100315655D01*
X168541178Y-100215403D01*
X168565277Y-100096400D01*
X168565277Y-96296400D01*
X168544358Y-96185227D01*
X168478655Y-96083121D01*
X168378403Y-96014622D01*
X168259400Y-95990523D01*
X166259400Y-95990523D01*
X166148227Y-96011442D01*
X166046121Y-96077145D01*
X165977622Y-96177397D01*
X165953523Y-96296400D01*
X164019640Y-96296400D01*
X164619640Y-95696400D01*
X170797200Y-95696400D01*
X170797200Y-95911339D01*
X170889763Y-96134805D01*
X171060796Y-96305838D01*
X171284262Y-96398400D01*
X171474200Y-96398400D01*
X171626200Y-96246400D01*
X171626200Y-95544400D01*
X171934200Y-95544400D01*
X171934200Y-96246400D01*
X172086200Y-96398400D01*
X172276138Y-96398400D01*
X172499604Y-96305838D01*
X172670637Y-96134805D01*
X172763200Y-95911339D01*
X172763200Y-95696400D01*
X172611200Y-95544400D01*
X171934200Y-95544400D01*
X171626200Y-95544400D01*
X170949200Y-95544400D01*
X170797200Y-95696400D01*
X164619640Y-95696400D01*
X164872440Y-95443601D01*
X164990224Y-95443704D01*
X165210829Y-95352552D01*
X165379759Y-95183917D01*
X165471296Y-94963471D01*
X165471377Y-94869461D01*
X170797200Y-94869461D01*
X170797200Y-95084400D01*
X170949200Y-95236400D01*
X171626200Y-95236400D01*
X171626200Y-95216400D01*
X171934200Y-95216400D01*
X171934200Y-95236400D01*
X172611200Y-95236400D01*
X172761128Y-95086472D01*
X172803345Y-95152079D01*
X172903597Y-95220578D01*
X173022600Y-95244677D01*
X173922600Y-95244677D01*
X174033773Y-95223758D01*
X174135879Y-95158055D01*
X174204378Y-95057803D01*
X174228477Y-94938800D01*
X174228477Y-94138800D01*
X174207558Y-94027627D01*
X174141855Y-93925521D01*
X174041603Y-93857022D01*
X173999200Y-93848435D01*
X173999200Y-93437200D01*
X173994777Y-93414966D01*
X174005696Y-93388671D01*
X174005904Y-93149976D01*
X173914752Y-92929371D01*
X173746117Y-92760441D01*
X173525671Y-92668904D01*
X173286976Y-92668696D01*
X173066371Y-92759848D01*
X172897441Y-92928483D01*
X172805904Y-93148929D01*
X172805696Y-93387624D01*
X172837832Y-93465400D01*
X172456373Y-93465400D01*
X172440158Y-93379227D01*
X172374455Y-93277121D01*
X172274203Y-93208622D01*
X172155200Y-93184523D01*
X171405200Y-93184523D01*
X171294027Y-93205442D01*
X171191921Y-93271145D01*
X171123422Y-93371397D01*
X171099323Y-93490400D01*
X171099323Y-94290400D01*
X171120242Y-94401573D01*
X171145018Y-94440076D01*
X171060796Y-94474962D01*
X170889763Y-94645995D01*
X170797200Y-94869461D01*
X165471377Y-94869461D01*
X165471504Y-94724776D01*
X165380352Y-94504171D01*
X165211717Y-94335241D01*
X164991271Y-94243704D01*
X164752576Y-94243496D01*
X164531971Y-94334648D01*
X164363041Y-94503283D01*
X164271504Y-94723729D01*
X164271400Y-94842559D01*
X162567400Y-96546560D01*
X162567400Y-96202400D01*
X162415400Y-96050400D01*
X161113400Y-96050400D01*
X161113400Y-96070400D01*
X160805400Y-96070400D01*
X160805400Y-96050400D01*
X159503400Y-96050400D01*
X159351400Y-96202400D01*
X159351400Y-96767338D01*
X159443962Y-96990804D01*
X159614995Y-97161837D01*
X159756515Y-97220457D01*
X159746121Y-97227145D01*
X159677622Y-97327397D01*
X159653523Y-97446400D01*
X159653523Y-98946400D01*
X159674442Y-99057573D01*
X159740145Y-99159679D01*
X159840397Y-99228178D01*
X159959400Y-99252277D01*
X161959400Y-99252277D01*
X162070573Y-99231358D01*
X162172679Y-99165655D01*
X162241178Y-99065403D01*
X162265277Y-98946400D01*
X162265277Y-98934517D01*
X165755200Y-102424441D01*
X165755200Y-103057427D01*
X165669027Y-103073642D01*
X165630524Y-103098418D01*
X165595638Y-103014196D01*
X165424605Y-102843163D01*
X165201139Y-102750600D01*
X164986200Y-102750600D01*
X164834200Y-102902600D01*
X164834200Y-103579600D01*
X164854200Y-103579600D01*
X164854200Y-103887600D01*
X164834200Y-103887600D01*
X164834200Y-104564600D01*
X164986200Y-104716600D01*
X165201139Y-104716600D01*
X165424605Y-104624037D01*
X165595638Y-104453004D01*
X165630318Y-104369279D01*
X165661197Y-104390378D01*
X165755200Y-104409414D01*
X165755200Y-105592723D01*
X165729400Y-105592723D01*
X165618227Y-105613642D01*
X165579724Y-105638418D01*
X165544838Y-105554196D01*
X165373805Y-105383163D01*
X165150339Y-105290600D01*
X164935400Y-105290600D01*
X164783400Y-105442600D01*
X164783400Y-106119600D01*
X164803400Y-106119600D01*
X164803400Y-106427600D01*
X164783400Y-106427600D01*
X164783400Y-107104600D01*
X164935400Y-107256600D01*
X165150339Y-107256600D01*
X165373805Y-107164037D01*
X165544838Y-106993004D01*
X165579518Y-106909279D01*
X165610397Y-106930378D01*
X165729400Y-106954477D01*
X166529400Y-106954477D01*
X166640573Y-106933558D01*
X166742679Y-106867855D01*
X166811178Y-106767603D01*
X166825152Y-106698600D01*
X167493123Y-106698600D01*
X167493123Y-107073600D01*
X167514042Y-107184773D01*
X167579745Y-107286879D01*
X167630854Y-107321800D01*
X164400441Y-107321800D01*
X164329320Y-107250680D01*
X164475400Y-107104600D01*
X164475400Y-106427600D01*
X163773400Y-106427600D01*
X163639820Y-106561180D01*
X163457077Y-106378437D01*
X163457077Y-105898600D01*
X163436158Y-105787427D01*
X163429875Y-105777662D01*
X163621400Y-105777662D01*
X163621400Y-105967600D01*
X163773400Y-106119600D01*
X164475400Y-106119600D01*
X164475400Y-105442600D01*
X164323400Y-105290600D01*
X164108461Y-105290600D01*
X163884995Y-105383163D01*
X163713962Y-105554196D01*
X163621400Y-105777662D01*
X163429875Y-105777662D01*
X163370455Y-105685321D01*
X163270203Y-105616822D01*
X163176200Y-105597786D01*
X163176200Y-104409773D01*
X163262373Y-104393558D01*
X163364479Y-104327855D01*
X163432978Y-104227603D01*
X163457077Y-104108600D01*
X163457077Y-104039600D01*
X163672200Y-104039600D01*
X163672200Y-104229538D01*
X163764762Y-104453004D01*
X163935795Y-104624037D01*
X164159261Y-104716600D01*
X164374200Y-104716600D01*
X164526200Y-104564600D01*
X164526200Y-103887600D01*
X163824200Y-103887600D01*
X163672200Y-104039600D01*
X163457077Y-104039600D01*
X163457077Y-103358600D01*
X163436158Y-103247427D01*
X163429875Y-103237662D01*
X163672200Y-103237662D01*
X163672200Y-103427600D01*
X163824200Y-103579600D01*
X164526200Y-103579600D01*
X164526200Y-102902600D01*
X164374200Y-102750600D01*
X164159261Y-102750600D01*
X163935795Y-102843163D01*
X163764762Y-103014196D01*
X163672200Y-103237662D01*
X163429875Y-103237662D01*
X163370455Y-103145321D01*
X163270203Y-103076822D01*
X163151200Y-103052723D01*
X162671363Y-103052723D01*
X161384400Y-101765760D01*
X161384400Y-101552277D01*
X161959400Y-101552277D01*
X162070573Y-101531358D01*
X162172679Y-101465655D01*
X162241178Y-101365403D01*
X162265277Y-101246400D01*
X162265277Y-99746400D01*
X162244358Y-99635227D01*
X162178655Y-99533121D01*
X162078403Y-99464622D01*
X161959400Y-99440523D01*
X159959400Y-99440523D01*
X159848227Y-99461442D01*
X159746121Y-99527145D01*
X159677622Y-99627397D01*
X159653523Y-99746400D01*
X159653523Y-101246400D01*
X159674442Y-101357573D01*
X159740145Y-101459679D01*
X159840397Y-101528178D01*
X159959400Y-101552277D01*
X160534400Y-101552277D01*
X160534400Y-101941800D01*
X160556503Y-102052920D01*
X160566751Y-102104441D01*
X160658880Y-102242320D01*
X161167160Y-102750600D01*
X161097198Y-102750600D01*
X161097198Y-102902598D01*
X160945200Y-102750600D01*
X160730261Y-102750600D01*
X160506795Y-102843163D01*
X160335762Y-103014196D01*
X160243200Y-103237662D01*
X160243200Y-103427600D01*
X160395200Y-103579600D01*
X161097200Y-103579600D01*
X161097200Y-103559600D01*
X161405200Y-103559600D01*
X161405200Y-103579600D01*
X161425200Y-103579600D01*
X161425200Y-103887600D01*
X161405200Y-103887600D01*
X161405200Y-104564600D01*
X161557200Y-104716600D01*
X161772139Y-104716600D01*
X161995605Y-104624037D01*
X162166638Y-104453004D01*
X162201318Y-104369279D01*
X162232197Y-104390378D01*
X162326200Y-104409414D01*
X162326200Y-105597427D01*
X162240027Y-105613642D01*
X162201524Y-105638418D01*
X162166638Y-105554196D01*
X161995605Y-105383163D01*
X161772139Y-105290600D01*
X161557200Y-105290600D01*
X161405200Y-105442600D01*
X161405200Y-106119600D01*
X161425200Y-106119600D01*
X161425200Y-106427600D01*
X161405200Y-106427600D01*
X161405200Y-106447600D01*
X161097200Y-106447600D01*
X161097200Y-106427600D01*
X160395200Y-106427600D01*
X160243200Y-106579600D01*
X160243200Y-106769538D01*
X160335762Y-106993004D01*
X160506795Y-107164037D01*
X160730261Y-107256600D01*
X160945200Y-107256600D01*
X161097198Y-107104602D01*
X161097198Y-107256600D01*
X161167159Y-107256600D01*
X157088760Y-111335000D01*
X153487992Y-111335000D01*
X153484991Y-111319914D01*
X153235703Y-110946827D01*
X152862616Y-110697539D01*
X152554002Y-110636152D01*
X152554002Y-110517857D01*
X152778911Y-110627915D01*
X153288854Y-110375741D01*
X153663477Y-109947616D01*
X153807903Y-109598910D01*
X153696889Y-109374000D01*
X152554000Y-109374000D01*
X152554000Y-109394000D01*
X152246000Y-109394000D01*
X152246000Y-109374000D01*
X151103111Y-109374000D01*
X150992097Y-109598910D01*
X150235000Y-109598910D01*
X150235000Y-109409053D01*
X150252649Y-109382640D01*
X150285000Y-109220000D01*
X150285000Y-106856040D01*
X150287520Y-106853520D01*
X150379649Y-106715641D01*
X150411999Y-106553000D01*
X150379649Y-106390359D01*
X150287520Y-106252480D01*
X150235000Y-106217387D01*
X150235000Y-71426000D01*
X150942000Y-71426000D01*
X150942000Y-72090938D01*
X151034562Y-72314404D01*
X151205595Y-72485437D01*
X151429061Y-72578000D01*
X152035613Y-72578000D01*
X151937384Y-72597539D01*
X151564297Y-72846827D01*
X151315009Y-73219914D01*
X151227470Y-73660000D01*
X151315009Y-74100086D01*
X151564297Y-74473173D01*
X151937384Y-74722461D01*
X152377470Y-74810000D01*
X152422530Y-74810000D01*
X152862616Y-74722461D01*
X153235703Y-74473173D01*
X153484991Y-74100086D01*
X153572530Y-73660000D01*
X153484991Y-73219914D01*
X153467421Y-73193619D01*
X153762041Y-72899000D01*
X161196724Y-72899000D01*
X161267104Y-73004330D01*
X161423753Y-73109000D01*
X161267104Y-73213670D01*
X161196724Y-73319000D01*
X154856000Y-73319000D01*
X154693359Y-73351351D01*
X154555480Y-73443479D01*
X152861619Y-75137341D01*
X152422530Y-75050000D01*
X152377470Y-75050000D01*
X151937384Y-75137539D01*
X151564297Y-75386827D01*
X151315009Y-75759914D01*
X151227470Y-76200000D01*
X151315009Y-76640086D01*
X151564297Y-77013173D01*
X151937384Y-77262461D01*
X152377470Y-77350000D01*
X152422530Y-77350000D01*
X152862616Y-77262461D01*
X153235703Y-77013173D01*
X153484991Y-76640086D01*
X153572530Y-76200000D01*
X153484991Y-75759914D01*
X153467421Y-75733619D01*
X155032041Y-74169000D01*
X161196724Y-74169000D01*
X161267104Y-74274330D01*
X161423753Y-74379000D01*
X161267104Y-74483670D01*
X161196724Y-74589000D01*
X156126000Y-74589000D01*
X155963359Y-74621351D01*
X155825480Y-74713479D01*
X152861619Y-77677341D01*
X152422530Y-77590000D01*
X152377470Y-77590000D01*
X151937384Y-77677539D01*
X151564297Y-77926827D01*
X151315009Y-78299914D01*
X151227470Y-78740000D01*
X151315009Y-79180086D01*
X151564297Y-79553173D01*
X151937384Y-79802461D01*
X152377470Y-79890000D01*
X152422530Y-79890000D01*
X152862616Y-79802461D01*
X153235703Y-79553173D01*
X153484991Y-79180086D01*
X153572530Y-78740000D01*
X153484991Y-78299914D01*
X153467421Y-78273619D01*
X156302041Y-75439000D01*
X161196724Y-75439000D01*
X161267104Y-75544330D01*
X161423753Y-75649000D01*
X161267104Y-75753670D01*
X161196724Y-75859000D01*
X157396000Y-75859000D01*
X157260343Y-75885984D01*
X157233359Y-75891351D01*
X157095480Y-75983480D01*
X152861619Y-80217341D01*
X152422530Y-80130000D01*
X152377470Y-80130000D01*
X151937384Y-80217539D01*
X151564297Y-80466827D01*
X151315009Y-80839914D01*
X151227470Y-81280000D01*
X151315009Y-81720086D01*
X151564297Y-82093173D01*
X151937384Y-82342461D01*
X152377470Y-82430000D01*
X152422530Y-82430000D01*
X152862616Y-82342461D01*
X153235703Y-82093173D01*
X153484991Y-81720086D01*
X153572530Y-81280000D01*
X153484991Y-80839914D01*
X153467421Y-80813619D01*
X157572040Y-76709000D01*
X161196724Y-76709000D01*
X161267104Y-76814330D01*
X161423753Y-76919000D01*
X161267104Y-77023670D01*
X161196724Y-77129000D01*
X158666000Y-77129000D01*
X158503360Y-77161351D01*
X158503358Y-77161352D01*
X158503359Y-77161352D01*
X158365479Y-77253480D01*
X152861619Y-82757341D01*
X152422530Y-82670000D01*
X152377470Y-82670000D01*
X151937384Y-82757539D01*
X151564297Y-83006827D01*
X151315009Y-83379914D01*
X151227470Y-83820000D01*
X151315009Y-84260086D01*
X151564297Y-84633173D01*
X151937384Y-84882461D01*
X152377470Y-84970000D01*
X152422530Y-84970000D01*
X152862616Y-84882461D01*
X153235703Y-84633173D01*
X153484991Y-84260086D01*
X153572530Y-83820000D01*
X153484991Y-83379914D01*
X153467421Y-83353619D01*
X158842041Y-77979000D01*
X161196724Y-77979000D01*
X161267104Y-78084330D01*
X161423753Y-78189000D01*
X161267104Y-78293670D01*
X161196724Y-78399000D01*
X159936000Y-78399000D01*
X159773360Y-78431351D01*
X159727608Y-78461922D01*
X159635479Y-78523480D01*
X152861619Y-85297341D01*
X152422530Y-85210000D01*
X152377470Y-85210000D01*
X151937384Y-85297539D01*
X151564297Y-85546827D01*
X151315009Y-85919914D01*
X151227470Y-86360000D01*
X151315009Y-86800086D01*
X151564297Y-87173173D01*
X151937384Y-87422461D01*
X152377470Y-87510000D01*
X152422530Y-87510000D01*
X152862616Y-87422461D01*
X153235703Y-87173173D01*
X153484991Y-86800086D01*
X153572530Y-86360000D01*
X153484991Y-85919914D01*
X153467421Y-85893619D01*
X160112041Y-79249000D01*
X161196724Y-79249000D01*
X161267104Y-79354330D01*
X161423753Y-79459000D01*
X161267104Y-79563670D01*
X161195303Y-79671128D01*
X161043359Y-79701351D01*
X160905480Y-79793479D01*
X152861619Y-87837341D01*
X152422530Y-87750000D01*
X152377470Y-87750000D01*
X151937384Y-87837539D01*
X151564297Y-88086827D01*
X151315009Y-88459914D01*
X151227470Y-88900000D01*
X151315009Y-89340086D01*
X151564297Y-89713173D01*
X151937384Y-89962461D01*
X152377470Y-90050000D01*
X152422530Y-90050000D01*
X152862616Y-89962461D01*
X153235703Y-89713173D01*
X153484991Y-89340086D01*
X153572530Y-88900000D01*
X153484991Y-88459914D01*
X153467421Y-88433619D01*
X153727600Y-88173440D01*
X153727600Y-89511359D01*
X152861619Y-90377341D01*
X152422530Y-90290000D01*
X152377470Y-90290000D01*
X151937384Y-90377539D01*
X151564297Y-90626827D01*
X151315009Y-90999914D01*
X151227470Y-91440000D01*
X151315009Y-91880086D01*
X151564297Y-92253173D01*
X151937384Y-92502461D01*
X152377470Y-92590000D01*
X152422530Y-92590000D01*
X152862616Y-92502461D01*
X153235703Y-92253173D01*
X153484991Y-91880086D01*
X153572530Y-91440000D01*
X153484991Y-90999914D01*
X153467421Y-90973619D01*
X154184800Y-90256241D01*
X154184800Y-91594160D01*
X152861619Y-92917341D01*
X152422530Y-92830000D01*
X152377470Y-92830000D01*
X151937384Y-92917539D01*
X151564297Y-93166827D01*
X151315009Y-93539914D01*
X151227470Y-93980000D01*
X151315009Y-94420086D01*
X151564297Y-94793173D01*
X151937384Y-95042461D01*
X152377470Y-95130000D01*
X152422530Y-95130000D01*
X152862616Y-95042461D01*
X153235703Y-94793173D01*
X153484991Y-94420086D01*
X153572530Y-93980000D01*
X153484991Y-93539914D01*
X153467421Y-93513619D01*
X154692800Y-92288240D01*
X154692800Y-93626159D01*
X152861619Y-95457341D01*
X152422530Y-95370000D01*
X152377470Y-95370000D01*
X151937384Y-95457539D01*
X151564297Y-95706827D01*
X151315009Y-96079914D01*
X151227470Y-96520000D01*
X151315009Y-96960086D01*
X151564297Y-97333173D01*
X151937384Y-97582461D01*
X152377470Y-97670000D01*
X152422530Y-97670000D01*
X152862616Y-97582461D01*
X153235703Y-97333173D01*
X153484991Y-96960086D01*
X153572530Y-96520000D01*
X153484991Y-96079914D01*
X153467421Y-96053619D01*
X155251600Y-94269441D01*
X155251600Y-95607360D01*
X152861619Y-97997341D01*
X152422530Y-97910000D01*
X152377470Y-97910000D01*
X151937384Y-97997539D01*
X151564297Y-98246827D01*
X151315009Y-98619914D01*
X151227470Y-99060000D01*
X151315009Y-99500086D01*
X151564297Y-99873173D01*
X151937384Y-100122461D01*
X152377470Y-100210000D01*
X152422530Y-100210000D01*
X152862616Y-100122461D01*
X153235703Y-99873173D01*
X153484991Y-99500086D01*
X153572530Y-99060000D01*
X153484991Y-98619914D01*
X153467421Y-98593619D01*
X155708800Y-96352240D01*
X155708800Y-97690159D01*
X152861619Y-100537341D01*
X152422530Y-100450000D01*
X152377470Y-100450000D01*
X151937384Y-100537539D01*
X151564297Y-100786827D01*
X151315009Y-101159914D01*
X151227470Y-101600000D01*
X151315009Y-102040086D01*
X151564297Y-102413173D01*
X151937384Y-102662461D01*
X152377470Y-102750000D01*
X152422530Y-102750000D01*
X152862616Y-102662461D01*
X153235703Y-102413173D01*
X153484991Y-102040086D01*
X153572530Y-101600000D01*
X153484991Y-101159914D01*
X153467421Y-101133619D01*
X156267600Y-98333441D01*
X156267600Y-99671360D01*
X152861619Y-103077341D01*
X152422530Y-102990000D01*
X152377470Y-102990000D01*
X151937384Y-103077539D01*
X151564297Y-103326827D01*
X151315009Y-103699914D01*
X151227470Y-104140000D01*
X151315009Y-104580086D01*
X151564297Y-104953173D01*
X151937384Y-105202461D01*
X152377470Y-105290000D01*
X152422530Y-105290000D01*
X152862616Y-105202461D01*
X153235703Y-104953173D01*
X153484991Y-104580086D01*
X153572530Y-104140000D01*
X153484991Y-103699914D01*
X153467421Y-103673619D01*
X156826400Y-100314640D01*
X156826400Y-101652559D01*
X152861619Y-105617341D01*
X152422530Y-105530000D01*
X152377470Y-105530000D01*
X151937384Y-105617539D01*
X151564297Y-105866827D01*
X151315009Y-106239914D01*
X151227470Y-106680000D01*
X151315009Y-107120086D01*
X151564297Y-107493173D01*
X151937384Y-107742461D01*
X152245998Y-107803848D01*
X152245998Y-107922143D01*
X152021089Y-107812085D01*
X151511146Y-108064259D01*
X151136523Y-108492384D01*
X150992097Y-108841090D01*
X151103111Y-109066000D01*
X152246000Y-109066000D01*
X152246000Y-109046000D01*
X152554000Y-109046000D01*
X152554000Y-109066000D01*
X153696889Y-109066000D01*
X153807903Y-108841090D01*
X153663477Y-108492384D01*
X153288854Y-108064259D01*
X152778911Y-107812085D01*
X152554002Y-107922143D01*
X152554002Y-107803848D01*
X152862616Y-107742461D01*
X153235703Y-107493173D01*
X153484991Y-107120086D01*
X153572530Y-106680000D01*
X153484991Y-106239914D01*
X153467421Y-106213619D01*
X153903378Y-105777662D01*
X160243200Y-105777662D01*
X160243200Y-105967600D01*
X160395200Y-106119600D01*
X161097200Y-106119600D01*
X161097200Y-105442600D01*
X160945200Y-105290600D01*
X160730261Y-105290600D01*
X160506795Y-105383163D01*
X160335762Y-105554196D01*
X160243200Y-105777662D01*
X153903378Y-105777662D01*
X155641440Y-104039600D01*
X160243200Y-104039600D01*
X160243200Y-104229538D01*
X160335762Y-104453004D01*
X160506795Y-104624037D01*
X160730261Y-104716600D01*
X160945200Y-104716600D01*
X161097200Y-104564600D01*
X161097200Y-103887600D01*
X160395200Y-103887600D01*
X160243200Y-104039600D01*
X155641440Y-104039600D01*
X157551921Y-102129120D01*
X157644049Y-101991241D01*
X157676400Y-101828600D01*
X157676400Y-95025462D01*
X159351400Y-95025462D01*
X159351400Y-95590400D01*
X159503400Y-95742400D01*
X160805400Y-95742400D01*
X160805400Y-94690400D01*
X161113400Y-94690400D01*
X161113400Y-95742400D01*
X162415400Y-95742400D01*
X162567400Y-95590400D01*
X162567400Y-95025462D01*
X162474838Y-94801996D01*
X162303805Y-94630963D01*
X162080339Y-94538400D01*
X161265400Y-94538400D01*
X161113400Y-94690400D01*
X160805400Y-94690400D01*
X160653400Y-94538400D01*
X159838461Y-94538400D01*
X159614995Y-94630963D01*
X159443962Y-94801996D01*
X159351400Y-95025462D01*
X157676400Y-95025462D01*
X157676400Y-92378040D01*
X158189441Y-91865000D01*
X166497000Y-91865000D01*
X166632657Y-91838016D01*
X166659641Y-91832649D01*
X166797520Y-91740520D01*
X167483321Y-91054720D01*
X167575449Y-90916841D01*
X167607800Y-90754200D01*
X167607800Y-90635076D01*
X167713130Y-90564696D01*
X167817800Y-90408047D01*
X167922470Y-90564696D01*
X168165787Y-90727276D01*
X168452800Y-90784366D01*
X168739813Y-90727276D01*
X168983130Y-90564696D01*
X169087800Y-90408047D01*
X169192470Y-90564696D01*
X169435787Y-90727276D01*
X169722800Y-90784366D01*
X170009813Y-90727276D01*
X170253130Y-90564696D01*
X170357800Y-90408047D01*
X170462470Y-90564696D01*
X170705787Y-90727276D01*
X170992800Y-90784366D01*
X171279813Y-90727276D01*
X171523130Y-90564696D01*
X171627800Y-90408047D01*
X171732470Y-90564696D01*
X171975787Y-90727276D01*
X172262800Y-90784366D01*
X172549813Y-90727276D01*
X172793130Y-90564696D01*
X172897800Y-90408047D01*
X173002470Y-90564696D01*
X173245787Y-90727276D01*
X173532800Y-90784366D01*
X173819813Y-90727276D01*
X174063130Y-90564696D01*
X174167800Y-90408047D01*
X174272470Y-90564696D01*
X174515787Y-90727276D01*
X174802800Y-90784366D01*
X175089813Y-90727276D01*
X175333130Y-90564696D01*
X175437800Y-90408047D01*
X175542470Y-90564696D01*
X175785787Y-90727276D01*
X176072800Y-90784366D01*
X176105101Y-90777941D01*
X177575680Y-92248521D01*
X177713559Y-92340649D01*
X177876200Y-92373000D01*
X178484064Y-92373000D01*
X178393904Y-92590129D01*
X178393696Y-92828824D01*
X178467200Y-93006718D01*
X178467200Y-94045723D01*
X178442200Y-94045723D01*
X178331027Y-94066642D01*
X178228921Y-94132345D01*
X178160422Y-94232597D01*
X178136323Y-94351600D01*
X178136323Y-94851600D01*
X178157242Y-94962773D01*
X178222945Y-95064879D01*
X178323197Y-95133378D01*
X178442200Y-95157477D01*
X179342200Y-95157477D01*
X179453373Y-95136558D01*
X179555479Y-95070855D01*
X179623978Y-94970603D01*
X179648077Y-94851600D01*
X179648077Y-94351600D01*
X179627158Y-94240427D01*
X179561455Y-94138321D01*
X179461203Y-94069822D01*
X179342200Y-94045723D01*
X179317200Y-94045723D01*
X179317200Y-93225575D01*
X179333229Y-93218952D01*
X179502159Y-93050317D01*
X179593696Y-92829871D01*
X179593904Y-92591176D01*
X179503756Y-92373000D01*
X180311007Y-92373000D01*
X180263441Y-92420483D01*
X180171904Y-92640929D01*
X180171696Y-92879624D01*
X180262848Y-93100229D01*
X180346800Y-93184328D01*
X180346800Y-94045723D01*
X180321800Y-94045723D01*
X180210627Y-94066642D01*
X180108521Y-94132345D01*
X180040022Y-94232597D01*
X180015923Y-94351600D01*
X180015923Y-94851600D01*
X180036842Y-94962773D01*
X180102545Y-95064879D01*
X180202797Y-95133378D01*
X180321800Y-95157477D01*
X181221800Y-95157477D01*
X181332973Y-95136558D01*
X181435079Y-95070855D01*
X181503578Y-94970603D01*
X181527677Y-94851600D01*
X181527677Y-94351600D01*
X181506758Y-94240427D01*
X181441055Y-94138321D01*
X181340803Y-94069822D01*
X181221800Y-94045723D01*
X181196800Y-94045723D01*
X181196800Y-93184330D01*
X181280159Y-93101117D01*
X181371696Y-92880671D01*
X181371904Y-92641976D01*
X181280752Y-92421371D01*
X181232465Y-92373000D01*
X184202560Y-92373000D01*
X184664800Y-92835241D01*
X184664800Y-97127864D01*
X184447671Y-97037704D01*
X184208976Y-97037496D01*
X183988371Y-97128648D01*
X183819441Y-97297283D01*
X183727904Y-97517729D01*
X183727696Y-97756424D01*
X183818848Y-97977029D01*
X183953600Y-98112017D01*
X183953600Y-105018759D01*
X183454637Y-105517723D01*
X183049800Y-105517723D01*
X182938627Y-105538642D01*
X182836521Y-105604345D01*
X182768022Y-105704597D01*
X182743923Y-105823600D01*
X182743923Y-106723600D01*
X182764842Y-106834773D01*
X182830545Y-106936879D01*
X182930797Y-107005378D01*
X183049800Y-107029477D01*
X183549800Y-107029477D01*
X183660973Y-107008558D01*
X183763079Y-106942855D01*
X183831578Y-106842603D01*
X183855677Y-106723600D01*
X183855677Y-106318763D01*
X184679121Y-105495320D01*
X184771249Y-105357441D01*
X184803600Y-105194800D01*
X184803600Y-104150040D01*
X189407178Y-108753619D01*
X189389609Y-108779914D01*
X189302070Y-109220000D01*
X189389609Y-109660086D01*
X189638897Y-110033173D01*
X190011984Y-110282461D01*
X190452070Y-110370000D01*
X190497130Y-110370000D01*
X190937216Y-110282461D01*
X191310303Y-110033173D01*
X191559591Y-109660086D01*
X191647130Y-109220000D01*
X191559591Y-108779914D01*
X191310303Y-108406827D01*
X190937216Y-108157539D01*
X190497130Y-108070000D01*
X190452070Y-108070000D01*
X190012981Y-108157341D01*
X185514800Y-103659160D01*
X185514800Y-102321240D01*
X189407178Y-106213619D01*
X189389609Y-106239914D01*
X189302070Y-106680000D01*
X189389609Y-107120086D01*
X189638897Y-107493173D01*
X190011984Y-107742461D01*
X190452070Y-107830000D01*
X190497130Y-107830000D01*
X190937216Y-107742461D01*
X191310303Y-107493173D01*
X191559591Y-107120086D01*
X191647130Y-106680000D01*
X191559591Y-106239914D01*
X191310303Y-105866827D01*
X190937216Y-105617539D01*
X190497130Y-105530000D01*
X190452070Y-105530000D01*
X190012981Y-105617341D01*
X186022800Y-101627160D01*
X186022800Y-100289240D01*
X189407178Y-103673619D01*
X189389609Y-103699914D01*
X189302070Y-104140000D01*
X189389609Y-104580086D01*
X189638897Y-104953173D01*
X190011984Y-105202461D01*
X190452070Y-105290000D01*
X190497130Y-105290000D01*
X190937216Y-105202461D01*
X191310303Y-104953173D01*
X191559591Y-104580086D01*
X191647130Y-104140000D01*
X191559591Y-103699914D01*
X191310303Y-103326827D01*
X190937216Y-103077539D01*
X190497130Y-102990000D01*
X190452070Y-102990000D01*
X190012981Y-103077341D01*
X186530800Y-99595160D01*
X186530800Y-98257240D01*
X189407179Y-101133619D01*
X189389609Y-101159914D01*
X189302070Y-101600000D01*
X189389609Y-102040086D01*
X189638897Y-102413173D01*
X190011984Y-102662461D01*
X190452070Y-102750000D01*
X190497130Y-102750000D01*
X190937216Y-102662461D01*
X191310303Y-102413173D01*
X191559591Y-102040086D01*
X191647130Y-101600000D01*
X191559591Y-101159914D01*
X191310303Y-100786827D01*
X190937216Y-100537539D01*
X190497130Y-100450000D01*
X190452070Y-100450000D01*
X190012981Y-100537341D01*
X187038800Y-97563160D01*
X187038800Y-96225240D01*
X189407179Y-98593619D01*
X189389609Y-98619914D01*
X189302070Y-99060000D01*
X189389609Y-99500086D01*
X189638897Y-99873173D01*
X190011984Y-100122461D01*
X190452070Y-100210000D01*
X190497130Y-100210000D01*
X190937216Y-100122461D01*
X191310303Y-99873173D01*
X191559591Y-99500086D01*
X191647130Y-99060000D01*
X191559591Y-98619914D01*
X191310303Y-98246827D01*
X190937216Y-97997539D01*
X190497130Y-97910000D01*
X190452070Y-97910000D01*
X190012981Y-97997341D01*
X187597600Y-95581960D01*
X187597600Y-94244040D01*
X189407179Y-96053619D01*
X189389609Y-96079914D01*
X189302070Y-96520000D01*
X189389609Y-96960086D01*
X189638897Y-97333173D01*
X190011984Y-97582461D01*
X190452070Y-97670000D01*
X190497130Y-97670000D01*
X190937216Y-97582461D01*
X191310303Y-97333173D01*
X191559591Y-96960086D01*
X191647130Y-96520000D01*
X191559591Y-96079914D01*
X191310303Y-95706827D01*
X190937216Y-95457539D01*
X190497130Y-95370000D01*
X190452070Y-95370000D01*
X190012981Y-95457341D01*
X188207200Y-93651560D01*
X188207200Y-92313640D01*
X189407179Y-93513619D01*
X189389609Y-93539914D01*
X189302070Y-93980000D01*
X189389609Y-94420086D01*
X189638897Y-94793173D01*
X190011984Y-95042461D01*
X190452070Y-95130000D01*
X190497130Y-95130000D01*
X190937216Y-95042461D01*
X191310303Y-94793173D01*
X191559591Y-94420086D01*
X191647130Y-93980000D01*
X191559591Y-93539914D01*
X191310303Y-93166827D01*
X190937216Y-92917539D01*
X190497130Y-92830000D01*
X190452070Y-92830000D01*
X190012981Y-92917341D01*
X188766000Y-91670360D01*
X188766000Y-90332440D01*
X189407179Y-90973619D01*
X189389609Y-90999914D01*
X189302070Y-91440000D01*
X189389609Y-91880086D01*
X189638897Y-92253173D01*
X190011984Y-92502461D01*
X190452070Y-92590000D01*
X190497130Y-92590000D01*
X190937216Y-92502461D01*
X191310303Y-92253173D01*
X191559591Y-91880086D01*
X191647130Y-91440000D01*
X191559591Y-90999914D01*
X191310303Y-90626827D01*
X190937216Y-90377539D01*
X190497130Y-90290000D01*
X190452070Y-90290000D01*
X190012981Y-90377341D01*
X189324800Y-89689160D01*
X189324800Y-89014271D01*
X189389609Y-89340086D01*
X189638897Y-89713173D01*
X190011984Y-89962461D01*
X190452070Y-90050000D01*
X190497130Y-90050000D01*
X190937216Y-89962461D01*
X191310303Y-89713173D01*
X191559591Y-89340086D01*
X191647130Y-88900000D01*
X191559591Y-88459914D01*
X191310303Y-88086827D01*
X190937216Y-87837539D01*
X190497130Y-87750000D01*
X190452070Y-87750000D01*
X190012981Y-87837341D01*
X182226780Y-80051140D01*
X182414624Y-80051304D01*
X182635229Y-79960152D01*
X182804159Y-79791517D01*
X182895696Y-79571071D01*
X182895860Y-79382301D01*
X189407178Y-85893619D01*
X189389609Y-85919914D01*
X189302070Y-86360000D01*
X189389609Y-86800086D01*
X189638897Y-87173173D01*
X190011984Y-87422461D01*
X190452070Y-87510000D01*
X190497130Y-87510000D01*
X190937216Y-87422461D01*
X191310303Y-87173173D01*
X191559591Y-86800086D01*
X191647130Y-86360000D01*
X191559591Y-85919914D01*
X191310303Y-85546827D01*
X190937216Y-85297539D01*
X190497130Y-85210000D01*
X190452070Y-85210000D01*
X190012981Y-85297341D01*
X182277625Y-77561985D01*
X182414624Y-77562104D01*
X182635229Y-77470952D01*
X182804159Y-77302317D01*
X182895696Y-77081871D01*
X182895862Y-76891772D01*
X182930868Y-76877308D01*
X189407178Y-83353619D01*
X189389609Y-83379914D01*
X189302070Y-83820000D01*
X189389609Y-84260086D01*
X189638897Y-84633173D01*
X190011984Y-84882461D01*
X190452070Y-84970000D01*
X190497130Y-84970000D01*
X190937216Y-84882461D01*
X191310303Y-84633173D01*
X191559591Y-84260086D01*
X191647130Y-83820000D01*
X191559591Y-83379914D01*
X191310303Y-83006827D01*
X190937216Y-82757539D01*
X190497130Y-82670000D01*
X190452070Y-82670000D01*
X190012981Y-82757341D01*
X183293033Y-76037393D01*
X183261952Y-75962171D01*
X183093317Y-75793241D01*
X182872871Y-75701704D01*
X182844948Y-75701680D01*
X182845104Y-75522376D01*
X182810654Y-75439000D01*
X183040670Y-75439000D01*
X183123883Y-75522359D01*
X183344329Y-75613896D01*
X183583024Y-75614104D01*
X183803629Y-75522952D01*
X183887728Y-75439000D01*
X184032560Y-75439000D01*
X189407178Y-80813619D01*
X189389609Y-80839914D01*
X189302070Y-81280000D01*
X189389609Y-81720086D01*
X189638897Y-82093173D01*
X190011984Y-82342461D01*
X190452070Y-82430000D01*
X190497130Y-82430000D01*
X190937216Y-82342461D01*
X191310303Y-82093173D01*
X191559591Y-81720086D01*
X191647130Y-81280000D01*
X191559591Y-80839914D01*
X191310303Y-80466827D01*
X190937216Y-80217539D01*
X190497130Y-80130000D01*
X190452070Y-80130000D01*
X190012981Y-80217341D01*
X184509120Y-74713480D01*
X184371241Y-74621351D01*
X184344257Y-74615984D01*
X184208600Y-74589000D01*
X183887730Y-74589000D01*
X183804517Y-74505641D01*
X183584071Y-74414104D01*
X183345376Y-74413896D01*
X183124771Y-74505048D01*
X183040672Y-74589000D01*
X182905832Y-74589000D01*
X182946496Y-74491071D01*
X182946704Y-74252376D01*
X182912254Y-74169000D01*
X185302560Y-74169000D01*
X189407179Y-78273619D01*
X189389609Y-78299914D01*
X189302070Y-78740000D01*
X189389609Y-79180086D01*
X189638897Y-79553173D01*
X190011984Y-79802461D01*
X190452070Y-79890000D01*
X190497130Y-79890000D01*
X190937216Y-79802461D01*
X191310303Y-79553173D01*
X191559591Y-79180086D01*
X191647130Y-78740000D01*
X191559591Y-78299914D01*
X191310303Y-77926827D01*
X190937216Y-77677539D01*
X190497130Y-77590000D01*
X190452070Y-77590000D01*
X190012981Y-77677341D01*
X185779120Y-73443480D01*
X185641241Y-73351351D01*
X185614257Y-73345984D01*
X185478600Y-73319000D01*
X182905832Y-73319000D01*
X182946496Y-73221071D01*
X182946704Y-72982376D01*
X182912254Y-72899000D01*
X186572560Y-72899000D01*
X189407179Y-75733619D01*
X189389609Y-75759914D01*
X189302070Y-76200000D01*
X189389609Y-76640086D01*
X189638897Y-77013173D01*
X190011984Y-77262461D01*
X190452070Y-77350000D01*
X190497130Y-77350000D01*
X190937216Y-77262461D01*
X191310303Y-77013173D01*
X191559591Y-76640086D01*
X191647130Y-76200000D01*
X191559591Y-75759914D01*
X191310303Y-75386827D01*
X190937216Y-75137539D01*
X190497130Y-75050000D01*
X190452070Y-75050000D01*
X190012981Y-75137341D01*
X187049120Y-72173480D01*
X186911241Y-72081351D01*
X186884257Y-72075984D01*
X186748600Y-72049000D01*
X182058876Y-72049000D01*
X182057994Y-72047681D01*
X182284814Y-71843224D01*
X182437554Y-71519849D01*
X182369747Y-71426000D01*
X189016600Y-71426000D01*
X189016600Y-72090938D01*
X189109162Y-72314404D01*
X189280195Y-72485437D01*
X189503661Y-72578000D01*
X190110213Y-72578000D01*
X190011984Y-72597539D01*
X189638897Y-72846827D01*
X189389609Y-73219914D01*
X189302070Y-73660000D01*
X189389609Y-74100086D01*
X189638897Y-74473173D01*
X190011984Y-74722461D01*
X190452070Y-74810000D01*
X190497130Y-74810000D01*
X190937216Y-74722461D01*
X191310303Y-74473173D01*
X191559591Y-74100086D01*
X191647130Y-73660000D01*
X191559591Y-73219914D01*
X191310303Y-72846827D01*
X190937216Y-72597539D01*
X190838987Y-72578000D01*
X191445539Y-72578000D01*
X191669005Y-72485437D01*
X191840038Y-72314404D01*
X191932600Y-72090938D01*
X191932600Y-71426000D01*
X191780600Y-71274000D01*
X190628600Y-71274000D01*
X190628600Y-71294000D01*
X190320600Y-71294000D01*
X190320600Y-71274000D01*
X189168600Y-71274000D01*
X189016600Y-71426000D01*
X182369747Y-71426000D01*
X182320616Y-71358000D01*
X180781800Y-71358000D01*
X180781800Y-71378000D01*
X180473800Y-71378000D01*
X180473800Y-71358000D01*
X178934984Y-71358000D01*
X178818046Y-71519849D01*
X178970786Y-71843224D01*
X179197606Y-72047681D01*
X179104524Y-72186987D01*
X179047434Y-72474000D01*
X179104524Y-72761013D01*
X179267104Y-73004330D01*
X179423753Y-73109000D01*
X179267104Y-73213670D01*
X179104524Y-73456987D01*
X179047434Y-73744000D01*
X179104524Y-74031013D01*
X179267104Y-74274330D01*
X179423753Y-74379000D01*
X179267104Y-74483670D01*
X179104524Y-74726987D01*
X179047434Y-75014000D01*
X179104524Y-75301013D01*
X179267104Y-75544330D01*
X179423753Y-75649000D01*
X179267104Y-75753670D01*
X179104524Y-75996987D01*
X179047434Y-76284000D01*
X179104524Y-76571013D01*
X179267104Y-76814330D01*
X179423753Y-76919000D01*
X179267104Y-77023670D01*
X179104524Y-77266987D01*
X179047434Y-77554000D01*
X179104524Y-77841013D01*
X179267104Y-78084330D01*
X179423753Y-78189000D01*
X179267104Y-78293670D01*
X179104524Y-78536987D01*
X179047434Y-78824000D01*
X179104524Y-79111013D01*
X179267104Y-79354330D01*
X179423753Y-79459000D01*
X179267104Y-79563670D01*
X179104524Y-79806987D01*
X179047434Y-80094000D01*
X179104524Y-80381013D01*
X179267104Y-80624330D01*
X179423753Y-80729000D01*
X179267104Y-80833670D01*
X179104524Y-81076987D01*
X179047434Y-81364000D01*
X179104524Y-81651013D01*
X179267104Y-81894330D01*
X179423753Y-81999000D01*
X179267104Y-82103670D01*
X179104524Y-82346987D01*
X179047434Y-82634000D01*
X179104524Y-82921013D01*
X179267104Y-83164330D01*
X179423753Y-83269000D01*
X179267104Y-83373670D01*
X179104524Y-83616987D01*
X179047434Y-83904000D01*
X179104524Y-84191013D01*
X179267104Y-84434330D01*
X179423753Y-84539000D01*
X179267104Y-84643670D01*
X179104524Y-84886987D01*
X179047434Y-85174000D01*
X179104524Y-85461013D01*
X179267104Y-85704330D01*
X179423753Y-85809000D01*
X179267104Y-85913670D01*
X179104524Y-86156987D01*
X179047434Y-86444000D01*
X179104524Y-86731013D01*
X179267104Y-86974330D01*
X179423753Y-87079000D01*
X179267104Y-87183670D01*
X179196724Y-87289000D01*
X179196650Y-87289000D01*
X179181717Y-87274041D01*
X178961271Y-87182504D01*
X178722576Y-87182296D01*
X178501971Y-87273448D01*
X178333041Y-87442083D01*
X178241504Y-87662529D01*
X178241296Y-87901224D01*
X178332448Y-88121829D01*
X178501083Y-88290759D01*
X178721529Y-88382296D01*
X178960224Y-88382504D01*
X179180829Y-88291352D01*
X179251431Y-88220873D01*
X179267104Y-88244330D01*
X179510421Y-88406910D01*
X179797434Y-88464000D01*
X181458166Y-88464000D01*
X181745179Y-88406910D01*
X181988496Y-88244330D01*
X182058876Y-88139000D01*
X184649358Y-88139000D01*
X185680800Y-89170442D01*
X185680800Y-90051161D01*
X184533118Y-88903480D01*
X184395239Y-88811351D01*
X184368255Y-88805984D01*
X184232598Y-88779000D01*
X178092800Y-88779000D01*
X178092800Y-88373634D01*
X178035710Y-88086621D01*
X177873130Y-87843304D01*
X177629813Y-87680724D01*
X177342800Y-87623634D01*
X177055787Y-87680724D01*
X176812470Y-87843304D01*
X176707800Y-87999953D01*
X176603130Y-87843304D01*
X176359813Y-87680724D01*
X176072800Y-87623634D01*
X175785787Y-87680724D01*
X175542470Y-87843304D01*
X175437800Y-87999953D01*
X175333130Y-87843304D01*
X175089813Y-87680724D01*
X174802800Y-87623634D01*
X174515787Y-87680724D01*
X174272470Y-87843304D01*
X174167800Y-87999953D01*
X174063130Y-87843304D01*
X173819813Y-87680724D01*
X173532800Y-87623634D01*
X173245787Y-87680724D01*
X173002470Y-87843304D01*
X172897800Y-87999953D01*
X172793130Y-87843304D01*
X172549813Y-87680724D01*
X172262800Y-87623634D01*
X171975787Y-87680724D01*
X171732470Y-87843304D01*
X171627800Y-87999953D01*
X171523130Y-87843304D01*
X171279813Y-87680724D01*
X170992800Y-87623634D01*
X170705787Y-87680724D01*
X170462470Y-87843304D01*
X170357800Y-87999953D01*
X170253130Y-87843304D01*
X170009813Y-87680724D01*
X169722800Y-87623634D01*
X169435787Y-87680724D01*
X169192470Y-87843304D01*
X169087800Y-87999953D01*
X168983130Y-87843304D01*
X168739813Y-87680724D01*
X168452800Y-87623634D01*
X168165787Y-87680724D01*
X167922470Y-87843304D01*
X167817800Y-87999953D01*
X167713130Y-87843304D01*
X167469813Y-87680724D01*
X167182800Y-87623634D01*
X166895787Y-87680724D01*
X166756481Y-87773806D01*
X166552024Y-87546986D01*
X166228649Y-87394246D01*
X166066800Y-87511184D01*
X166066800Y-89050000D01*
X166086800Y-89050000D01*
X166086800Y-89358000D01*
X166066800Y-89358000D01*
X166066800Y-89378000D01*
X165758800Y-89378000D01*
X165758800Y-89358000D01*
X164854800Y-89358000D01*
X164854800Y-90158000D01*
X164994269Y-90551157D01*
X165273576Y-90861014D01*
X165596951Y-91013754D01*
X165758798Y-90896817D01*
X165758798Y-91015000D01*
X158013400Y-91015000D01*
X157850759Y-91047351D01*
X157712880Y-91139479D01*
X157117600Y-91734760D01*
X157117600Y-89330040D01*
X158308641Y-88139000D01*
X161196724Y-88139000D01*
X161267104Y-88244330D01*
X161510421Y-88406910D01*
X161797434Y-88464000D01*
X163458166Y-88464000D01*
X163745179Y-88406910D01*
X163980010Y-88250000D01*
X164854800Y-88250000D01*
X164854800Y-89050000D01*
X165758800Y-89050000D01*
X165758800Y-87511184D01*
X165596951Y-87394246D01*
X165273576Y-87546986D01*
X164994269Y-87856843D01*
X164854800Y-88250000D01*
X163980010Y-88250000D01*
X163988496Y-88244330D01*
X164151076Y-88001013D01*
X164208166Y-87714000D01*
X164151076Y-87426987D01*
X163988496Y-87183670D01*
X163831847Y-87079000D01*
X163988496Y-86974330D01*
X164151076Y-86731013D01*
X164208166Y-86444000D01*
X164151076Y-86156987D01*
X163988496Y-85913670D01*
X163831847Y-85809000D01*
X163988496Y-85704330D01*
X164151076Y-85461013D01*
X164208166Y-85174000D01*
X164151076Y-84886987D01*
X163988496Y-84643670D01*
X163831847Y-84539000D01*
X163988496Y-84434330D01*
X164151076Y-84191013D01*
X164208166Y-83904000D01*
X164151076Y-83616987D01*
X163988496Y-83373670D01*
X163831847Y-83269000D01*
X163988496Y-83164330D01*
X164151076Y-82921013D01*
X164208166Y-82634000D01*
X164151076Y-82346987D01*
X163988496Y-82103670D01*
X163831847Y-81999000D01*
X163988496Y-81894330D01*
X164151076Y-81651013D01*
X164208166Y-81364000D01*
X164151076Y-81076987D01*
X163988496Y-80833670D01*
X163831847Y-80729000D01*
X163988496Y-80624330D01*
X164151076Y-80381013D01*
X164208166Y-80094000D01*
X164151076Y-79806987D01*
X163988496Y-79563670D01*
X163831847Y-79459000D01*
X163988496Y-79354330D01*
X164084934Y-79210000D01*
X167719800Y-79210000D01*
X167719800Y-82024938D01*
X167812362Y-82248404D01*
X167983395Y-82419437D01*
X168206861Y-82512000D01*
X171021800Y-82512000D01*
X171173800Y-82360000D01*
X171173800Y-79058000D01*
X171481800Y-79058000D01*
X171481800Y-82360000D01*
X171633800Y-82512000D01*
X174448739Y-82512000D01*
X174672205Y-82419437D01*
X174843238Y-82248404D01*
X174935800Y-82024938D01*
X174935800Y-79210000D01*
X174783800Y-79058000D01*
X171481800Y-79058000D01*
X171173800Y-79058000D01*
X167871800Y-79058000D01*
X167719800Y-79210000D01*
X164084934Y-79210000D01*
X164151076Y-79111013D01*
X164208166Y-78824000D01*
X164151076Y-78536987D01*
X163988496Y-78293670D01*
X163831847Y-78189000D01*
X163988496Y-78084330D01*
X164151076Y-77841013D01*
X164208166Y-77554000D01*
X164151076Y-77266987D01*
X163988496Y-77023670D01*
X163831847Y-76919000D01*
X163988496Y-76814330D01*
X164151076Y-76571013D01*
X164208166Y-76284000D01*
X164151076Y-75996987D01*
X163988496Y-75753670D01*
X163831847Y-75649000D01*
X163988496Y-75544330D01*
X164151076Y-75301013D01*
X164208166Y-75014000D01*
X164151076Y-74726987D01*
X163988496Y-74483670D01*
X163831847Y-74379000D01*
X163988496Y-74274330D01*
X164058876Y-74169000D01*
X164271360Y-74169000D01*
X165439799Y-75337439D01*
X165439696Y-75455224D01*
X165530848Y-75675829D01*
X165699483Y-75844759D01*
X165919929Y-75936296D01*
X166158624Y-75936504D01*
X166379229Y-75845352D01*
X166441627Y-75783062D01*
X167719800Y-75783062D01*
X167719800Y-78598000D01*
X167871800Y-78750000D01*
X171173800Y-78750000D01*
X171173800Y-75448000D01*
X171481800Y-75448000D01*
X171481800Y-78750000D01*
X174783800Y-78750000D01*
X174935800Y-78598000D01*
X174935800Y-75783062D01*
X174843238Y-75559596D01*
X174672205Y-75388563D01*
X174448739Y-75296000D01*
X171633800Y-75296000D01*
X171481800Y-75448000D01*
X171173800Y-75448000D01*
X171021800Y-75296000D01*
X168206861Y-75296000D01*
X167983395Y-75388563D01*
X167812362Y-75559596D01*
X167719800Y-75783062D01*
X166441627Y-75783062D01*
X166548159Y-75676717D01*
X166639696Y-75456271D01*
X166639904Y-75217576D01*
X166548752Y-74996971D01*
X166380117Y-74828041D01*
X166159671Y-74736504D01*
X166040841Y-74736400D01*
X164747920Y-73443480D01*
X164610041Y-73351351D01*
X164583057Y-73345984D01*
X164447400Y-73319000D01*
X164058876Y-73319000D01*
X163988496Y-73213670D01*
X163831847Y-73109000D01*
X163988496Y-73004330D01*
X164058876Y-72899000D01*
X164805753Y-72899000D01*
X164819648Y-72932629D01*
X164988283Y-73101559D01*
X165208729Y-73193096D01*
X165447424Y-73193304D01*
X165668029Y-73102152D01*
X165836959Y-72933517D01*
X165928496Y-72713071D01*
X165928704Y-72474376D01*
X165837552Y-72253771D01*
X165668917Y-72084841D01*
X165448471Y-71993304D01*
X165209776Y-71993096D01*
X165074478Y-72049000D01*
X164058876Y-72049000D01*
X164057994Y-72047681D01*
X164284814Y-71843224D01*
X164437554Y-71519849D01*
X164320616Y-71358000D01*
X162781800Y-71358000D01*
X162781800Y-71378000D01*
X162473800Y-71378000D01*
X162473800Y-71358000D01*
X160934984Y-71358000D01*
X160818046Y-71519849D01*
X160970786Y-71843224D01*
X161197606Y-72047681D01*
X161196724Y-72049000D01*
X153858000Y-72049000D01*
X153858000Y-71426000D01*
X153706000Y-71274000D01*
X152554000Y-71274000D01*
X152554000Y-71294000D01*
X152246000Y-71294000D01*
X152246000Y-71274000D01*
X151094000Y-71274000D01*
X150942000Y-71426000D01*
X150235000Y-71426000D01*
X150235000Y-69848400D01*
X151111758Y-69848400D01*
X151034562Y-69925596D01*
X151034562Y-69925596D01*
G37*
X151034562Y-69925596D02*
X150942000Y-70149062D01*
X150942000Y-70814000D01*
X151094000Y-70966000D01*
X152246000Y-70966000D01*
X152246000Y-70946000D01*
X152554000Y-70946000D01*
X152554000Y-70966000D01*
X153706000Y-70966000D01*
X153783849Y-70888151D01*
X160818046Y-70888151D01*
X160934984Y-71050000D01*
X162473800Y-71050000D01*
X162473800Y-70146000D01*
X162781800Y-70146000D01*
X162781800Y-71050000D01*
X164320616Y-71050000D01*
X164437554Y-70888151D01*
X178818046Y-70888151D01*
X178934984Y-71050000D01*
X180473800Y-71050000D01*
X180473800Y-70146000D01*
X180781800Y-70146000D01*
X180781800Y-71050000D01*
X182320616Y-71050000D01*
X182437554Y-70888151D01*
X182284814Y-70564776D01*
X181974957Y-70285469D01*
X181581800Y-70146000D01*
X180781800Y-70146000D01*
X180473800Y-70146000D01*
X179673800Y-70146000D01*
X179280643Y-70285469D01*
X178970786Y-70564776D01*
X178818046Y-70888151D01*
X164437554Y-70888151D01*
X164284814Y-70564776D01*
X163974957Y-70285469D01*
X163581800Y-70146000D01*
X162781800Y-70146000D01*
X162473800Y-70146000D01*
X161673800Y-70146000D01*
X161280643Y-70285469D01*
X160970786Y-70564776D01*
X160818046Y-70888151D01*
X153783849Y-70888151D01*
X153858000Y-70814000D01*
X153858000Y-70149062D01*
X153765438Y-69925596D01*
X153688242Y-69848400D01*
X189186358Y-69848400D01*
X189109162Y-69925596D01*
X189016600Y-70149062D01*
X189016600Y-70814000D01*
X189168600Y-70966000D01*
X190320600Y-70966000D01*
X190320600Y-70946000D01*
X190628600Y-70946000D01*
X190628600Y-70966000D01*
X191780600Y-70966000D01*
X191932600Y-70814000D01*
X191932600Y-70149062D01*
X191840038Y-69925596D01*
X191762842Y-69848400D01*
X192665000Y-69848400D01*
X192665000Y-120613064D01*
X192590085Y-120989689D01*
X192397666Y-121277666D01*
X192109689Y-121470085D01*
X191801676Y-121531353D01*
X191744600Y-121520000D01*
X182756330Y-121520000D01*
X181994330Y-120758000D01*
X182389139Y-120758000D01*
X182612605Y-120665437D01*
X182783638Y-120494404D01*
X182876200Y-120270938D01*
X182876200Y-119506000D01*
X182724200Y-119354000D01*
X181622200Y-119354000D01*
X181622200Y-119374000D01*
X181314200Y-119374000D01*
X181314200Y-119354000D01*
X180212200Y-119354000D01*
X180060200Y-119506000D01*
X180060200Y-120270938D01*
X180152762Y-120494404D01*
X180187358Y-120529000D01*
X179299042Y-120529000D01*
X179333638Y-120494404D01*
X179426200Y-120270938D01*
X179426200Y-119506000D01*
X179274200Y-119354000D01*
X178372200Y-119354000D01*
X178372200Y-119374000D01*
X178064200Y-119374000D01*
X178064200Y-119354000D01*
X176672200Y-119354000D01*
X176672200Y-119374000D01*
X176364200Y-119374000D01*
X176364200Y-119354000D01*
X175462200Y-119354000D01*
X175310200Y-119506000D01*
X175310200Y-120270938D01*
X175402762Y-120494404D01*
X175437358Y-120529000D01*
X174549042Y-120529000D01*
X174583638Y-120494404D01*
X174676200Y-120270938D01*
X174676200Y-119506000D01*
X174524200Y-119354000D01*
X173422200Y-119354000D01*
X173422200Y-119374000D01*
X173114200Y-119374000D01*
X173114200Y-119354000D01*
X172012200Y-119354000D01*
X171860200Y-119506000D01*
X171860200Y-120270938D01*
X171952762Y-120494404D01*
X172123795Y-120665437D01*
X172347261Y-120758000D01*
X172528914Y-120758000D01*
X171766914Y-121520000D01*
X151155400Y-121520000D01*
X151098326Y-121531353D01*
X150790311Y-121470085D01*
X150502334Y-121277666D01*
X150309915Y-120989689D01*
X150235000Y-120613068D01*
X150235000Y-118414800D01*
X151107476Y-118414800D01*
X151277402Y-119269073D01*
X151761309Y-119993291D01*
X152485527Y-120477198D01*
X153339800Y-120647124D01*
X154194073Y-120477198D01*
X154918291Y-119993291D01*
X155402198Y-119269073D01*
X155572124Y-118414800D01*
X155515287Y-118129062D01*
X171860200Y-118129062D01*
X171860200Y-118894000D01*
X172012200Y-119046000D01*
X173114200Y-119046000D01*
X173114200Y-119026000D01*
X173422200Y-119026000D01*
X173422200Y-119046000D01*
X174524200Y-119046000D01*
X174676200Y-118894000D01*
X174676200Y-118458000D01*
X175310200Y-118458000D01*
X175310200Y-118894000D01*
X175462200Y-119046000D01*
X176364200Y-119046000D01*
X176364200Y-119026000D01*
X176672200Y-119026000D01*
X176672200Y-119046000D01*
X178064200Y-119046000D01*
X178064200Y-117794000D01*
X177912200Y-117642000D01*
X177497261Y-117642000D01*
X177368200Y-117695459D01*
X177239139Y-117642000D01*
X176824200Y-117642000D01*
X176672202Y-117793998D01*
X176672202Y-117655840D01*
X176783638Y-117544404D01*
X176799596Y-117505877D01*
X176918200Y-117505877D01*
X177029373Y-117484958D01*
X177041979Y-117476846D01*
X177049197Y-117481778D01*
X177168200Y-117505877D01*
X177568200Y-117505877D01*
X177679373Y-117484958D01*
X177691979Y-117476846D01*
X177699197Y-117481778D01*
X177818200Y-117505877D01*
X178218200Y-117505877D01*
X178329373Y-117484958D01*
X178341979Y-117476846D01*
X178349197Y-117481778D01*
X178468200Y-117505877D01*
X178810200Y-117505877D01*
X178810200Y-117642000D01*
X178524200Y-117642000D01*
X178372200Y-117794000D01*
X178372200Y-119046000D01*
X179274200Y-119046000D01*
X179426200Y-118894000D01*
X179426200Y-118458000D01*
X180060200Y-118458000D01*
X180060200Y-118894000D01*
X180212200Y-119046000D01*
X181314200Y-119046000D01*
X181314200Y-119026000D01*
X181622200Y-119026000D01*
X181622200Y-119046000D01*
X182724200Y-119046000D01*
X182876200Y-118894000D01*
X182876200Y-118364000D01*
X187277076Y-118364000D01*
X187447002Y-119218273D01*
X187930909Y-119942491D01*
X188655127Y-120426398D01*
X189509400Y-120596324D01*
X190363673Y-120426398D01*
X191087891Y-119942491D01*
X191571798Y-119218273D01*
X191741724Y-118364000D01*
X191571798Y-117509727D01*
X191087891Y-116785509D01*
X190363673Y-116301602D01*
X189509400Y-116131676D01*
X188655127Y-116301602D01*
X187930909Y-116785509D01*
X187447002Y-117509727D01*
X187277076Y-118364000D01*
X182876200Y-118364000D01*
X182876200Y-118129062D01*
X182783638Y-117905596D01*
X182612605Y-117734563D01*
X182389139Y-117642000D01*
X182126200Y-117642000D01*
X182126200Y-117156000D01*
X181974200Y-117004000D01*
X180622200Y-117004000D01*
X180622200Y-117024000D01*
X180314200Y-117024000D01*
X180314200Y-117004000D01*
X180294200Y-117004000D01*
X180294200Y-116696000D01*
X180314200Y-116696000D01*
X180314200Y-115394000D01*
X180622200Y-115394000D01*
X180622200Y-116696000D01*
X181974200Y-116696000D01*
X182126200Y-116544000D01*
X182126200Y-115729062D01*
X182033638Y-115505596D01*
X181862605Y-115334563D01*
X181639139Y-115242000D01*
X180774200Y-115242000D01*
X180622200Y-115394000D01*
X180314200Y-115394000D01*
X180162200Y-115242000D01*
X179297261Y-115242000D01*
X179093200Y-115326525D01*
X179093200Y-108390045D01*
X179110683Y-108407559D01*
X179331129Y-108499096D01*
X179500804Y-108499244D01*
X183062080Y-112060521D01*
X183199959Y-112152649D01*
X183362600Y-112185000D01*
X189386608Y-112185000D01*
X189389609Y-112200086D01*
X189638897Y-112573173D01*
X190011984Y-112822461D01*
X190452070Y-112910000D01*
X190497130Y-112910000D01*
X190937216Y-112822461D01*
X191310303Y-112573173D01*
X191559591Y-112200086D01*
X191647130Y-111760000D01*
X191559591Y-111319914D01*
X191310303Y-110946827D01*
X190937216Y-110697539D01*
X190497130Y-110610000D01*
X190452070Y-110610000D01*
X190011984Y-110697539D01*
X189638897Y-110946827D01*
X189389609Y-111319914D01*
X189386608Y-111335000D01*
X183538641Y-111335000D01*
X180051046Y-107847406D01*
X180051104Y-107780376D01*
X180023358Y-107713224D01*
X180171696Y-107713224D01*
X180262848Y-107933829D01*
X180431483Y-108102759D01*
X180651929Y-108194296D01*
X180890624Y-108194504D01*
X181111229Y-108103352D01*
X181280159Y-107934717D01*
X181371696Y-107714271D01*
X181371800Y-107595441D01*
X181829311Y-107137930D01*
X181962440Y-107111449D01*
X182098964Y-107020226D01*
X182160973Y-107008558D01*
X182263079Y-106942855D01*
X182331578Y-106842603D01*
X182355677Y-106723600D01*
X182355677Y-105823600D01*
X182334758Y-105712427D01*
X182269055Y-105610321D01*
X182168803Y-105541822D01*
X182049800Y-105517723D01*
X181549800Y-105517723D01*
X181438627Y-105538642D01*
X181336521Y-105604345D01*
X181268022Y-105704597D01*
X181243923Y-105823600D01*
X181243923Y-106521236D01*
X181209000Y-106556159D01*
X181209000Y-106528800D01*
X181057000Y-106376800D01*
X180355000Y-106376800D01*
X180355000Y-107053800D01*
X180409490Y-107108290D01*
X180263441Y-107254083D01*
X180171904Y-107474529D01*
X180171696Y-107713224D01*
X180023358Y-107713224D01*
X179959952Y-107559771D01*
X179791317Y-107390841D01*
X179570871Y-107299304D01*
X179332176Y-107299096D01*
X179111571Y-107390248D01*
X179093200Y-107408587D01*
X179093200Y-106903677D01*
X179101000Y-106903677D01*
X179212173Y-106882758D01*
X179250676Y-106857982D01*
X179285562Y-106942204D01*
X179456595Y-107113237D01*
X179680061Y-107205800D01*
X179895000Y-107205800D01*
X180047000Y-107053800D01*
X180047000Y-106376800D01*
X180027000Y-106376800D01*
X180027000Y-106068800D01*
X180047000Y-106068800D01*
X180047000Y-105391800D01*
X180355000Y-105391800D01*
X180355000Y-106068800D01*
X181057000Y-106068800D01*
X181209000Y-105916800D01*
X181209000Y-105726862D01*
X181116438Y-105503396D01*
X180945405Y-105332363D01*
X180721939Y-105239800D01*
X180507000Y-105239800D01*
X180355000Y-105391800D01*
X180047000Y-105391800D01*
X179895000Y-105239800D01*
X179680061Y-105239800D01*
X179456595Y-105332363D01*
X179285562Y-105503396D01*
X179250882Y-105587121D01*
X179220003Y-105566022D01*
X179126000Y-105546986D01*
X179126000Y-105218800D01*
X179109084Y-105133756D01*
X179521521Y-104721320D01*
X179613649Y-104583441D01*
X179646000Y-104420800D01*
X179646000Y-103605886D01*
X179721000Y-103620804D01*
X179893208Y-103586550D01*
X179971000Y-103534571D01*
X180048792Y-103586550D01*
X180221000Y-103620804D01*
X180393208Y-103586550D01*
X180471000Y-103534571D01*
X180548792Y-103586550D01*
X180721000Y-103620804D01*
X180893208Y-103586550D01*
X180971000Y-103534571D01*
X181048792Y-103586550D01*
X181221000Y-103620804D01*
X181393208Y-103586550D01*
X181471000Y-103534571D01*
X181548792Y-103586550D01*
X181721000Y-103620804D01*
X181893208Y-103586550D01*
X181971000Y-103534571D01*
X182048792Y-103586550D01*
X182221000Y-103620804D01*
X182393208Y-103586550D01*
X182539198Y-103489002D01*
X182636746Y-103343012D01*
X182671000Y-103170804D01*
X182671000Y-102650786D01*
X182740405Y-102622037D01*
X182911438Y-102451004D01*
X182940186Y-102381600D01*
X183460204Y-102381600D01*
X183632412Y-102347346D01*
X183778402Y-102249798D01*
X183875950Y-102103808D01*
X183910204Y-101931600D01*
X183875950Y-101759392D01*
X183823971Y-101681600D01*
X183875950Y-101603808D01*
X183910204Y-101431600D01*
X183875950Y-101259392D01*
X183823971Y-101181600D01*
X183875950Y-101103808D01*
X183910204Y-100931600D01*
X183875950Y-100759392D01*
X183823971Y-100681600D01*
X183875950Y-100603808D01*
X183910204Y-100431600D01*
X183875950Y-100259392D01*
X183823971Y-100181600D01*
X183875950Y-100103808D01*
X183910204Y-99931600D01*
X183875950Y-99759392D01*
X183823971Y-99681600D01*
X183875950Y-99603808D01*
X183910204Y-99431600D01*
X183875950Y-99259392D01*
X183823971Y-99181600D01*
X183875950Y-99103808D01*
X183910204Y-98931600D01*
X183875950Y-98759392D01*
X183778402Y-98613402D01*
X183632412Y-98515854D01*
X183460204Y-98481600D01*
X182940186Y-98481600D01*
X182911438Y-98412196D01*
X182740405Y-98241163D01*
X182671000Y-98212414D01*
X182671000Y-97692396D01*
X182636746Y-97520188D01*
X182539198Y-97374198D01*
X182393208Y-97276650D01*
X182221000Y-97242396D01*
X182050672Y-97276276D01*
X182082896Y-97198671D01*
X182083104Y-96959976D01*
X181991952Y-96739371D01*
X181823317Y-96570441D01*
X181602871Y-96478904D01*
X181497969Y-96478813D01*
X181503578Y-96470603D01*
X181527677Y-96351600D01*
X181527677Y-95851600D01*
X181506758Y-95740427D01*
X181441055Y-95638321D01*
X181340803Y-95569822D01*
X181221800Y-95545723D01*
X180321800Y-95545723D01*
X180210627Y-95566642D01*
X180108521Y-95632345D01*
X180040022Y-95732597D01*
X180015923Y-95851600D01*
X180015923Y-96331482D01*
X179648077Y-95963637D01*
X179648077Y-95851600D01*
X179627158Y-95740427D01*
X179561455Y-95638321D01*
X179461203Y-95569822D01*
X179342200Y-95545723D01*
X178442200Y-95545723D01*
X178331027Y-95566642D01*
X178228921Y-95632345D01*
X178160422Y-95732597D01*
X178136323Y-95851600D01*
X178136323Y-96351600D01*
X178157242Y-96462773D01*
X178222945Y-96564879D01*
X178323197Y-96633378D01*
X178442200Y-96657477D01*
X179139837Y-96657477D01*
X179725688Y-97243328D01*
X179721000Y-97242396D01*
X179548792Y-97276650D01*
X179471000Y-97328629D01*
X179393208Y-97276650D01*
X179221000Y-97242396D01*
X179048792Y-97276650D01*
X178902802Y-97374198D01*
X178805254Y-97520188D01*
X178798011Y-97556600D01*
X178345441Y-97556600D01*
X177031200Y-96242360D01*
X177031200Y-94620800D01*
X176998849Y-94458160D01*
X176961039Y-94401573D01*
X176906720Y-94320279D01*
X176228477Y-93642037D01*
X176228477Y-93188800D01*
X176207558Y-93077627D01*
X176141855Y-92975521D01*
X176041603Y-92907022D01*
X175922600Y-92882923D01*
X175022600Y-92882923D01*
X174911427Y-92903842D01*
X174809321Y-92969545D01*
X174740822Y-93069797D01*
X174716723Y-93188800D01*
X174716723Y-93988800D01*
X174737642Y-94099973D01*
X174803345Y-94202079D01*
X174903597Y-94270578D01*
X175022600Y-94294677D01*
X175679037Y-94294677D01*
X176181200Y-94796841D01*
X176181200Y-94936665D01*
X176141855Y-94875521D01*
X176041603Y-94807022D01*
X175922600Y-94782923D01*
X175022600Y-94782923D01*
X174911427Y-94803842D01*
X174809321Y-94869545D01*
X174740822Y-94969797D01*
X174716723Y-95088800D01*
X174716723Y-95745236D01*
X173673037Y-96788923D01*
X173209800Y-96788923D01*
X173098627Y-96809842D01*
X172996521Y-96875545D01*
X172928022Y-96975797D01*
X172903923Y-97094800D01*
X172903923Y-97594800D01*
X172924842Y-97705973D01*
X172990545Y-97808079D01*
X173090797Y-97876578D01*
X173209800Y-97900677D01*
X174109800Y-97900677D01*
X174220973Y-97879758D01*
X174323079Y-97814055D01*
X174391578Y-97713803D01*
X174415677Y-97594800D01*
X174415677Y-97248363D01*
X175469364Y-96194677D01*
X175922600Y-96194677D01*
X176033773Y-96173758D01*
X176135879Y-96108055D01*
X176181200Y-96041725D01*
X176181200Y-96191560D01*
X175583837Y-96788923D01*
X175038600Y-96788923D01*
X174927427Y-96809842D01*
X174825321Y-96875545D01*
X174756822Y-96975797D01*
X174732723Y-97094800D01*
X174732723Y-97594800D01*
X174753642Y-97705973D01*
X174819345Y-97808079D01*
X174919597Y-97876578D01*
X175038600Y-97900677D01*
X175938600Y-97900677D01*
X176049773Y-97879758D01*
X176151879Y-97814055D01*
X176220378Y-97713803D01*
X176244477Y-97594800D01*
X176244477Y-97330363D01*
X176580800Y-96994040D01*
X177868880Y-98282121D01*
X178006759Y-98374249D01*
X178169400Y-98406600D01*
X178536158Y-98406600D01*
X178530562Y-98412196D01*
X178501814Y-98481600D01*
X177981796Y-98481600D01*
X177809588Y-98515854D01*
X177663598Y-98613402D01*
X177566050Y-98759392D01*
X177531796Y-98931600D01*
X177566050Y-99103808D01*
X177618029Y-99181600D01*
X177566050Y-99259392D01*
X177556899Y-99305395D01*
X177444037Y-99381011D01*
X177275351Y-99634149D01*
X177262739Y-99739528D01*
X177394659Y-99856600D01*
X177856111Y-99856600D01*
X177981796Y-99881600D01*
X178445000Y-99881600D01*
X178445000Y-99893100D01*
X178438000Y-99900100D01*
X178438000Y-99981600D01*
X177981796Y-99981600D01*
X177856111Y-100006600D01*
X177394659Y-100006600D01*
X177372952Y-100025864D01*
X177307159Y-100038951D01*
X177169280Y-100131079D01*
X176777200Y-100523160D01*
X176777200Y-99708400D01*
X176766747Y-99655849D01*
X176744849Y-99545759D01*
X176652721Y-99407880D01*
X176244477Y-98999636D01*
X176244477Y-98594800D01*
X176223558Y-98483627D01*
X176157855Y-98381521D01*
X176057603Y-98313022D01*
X175938600Y-98288923D01*
X175038600Y-98288923D01*
X174927427Y-98309842D01*
X174825321Y-98375545D01*
X174756822Y-98475797D01*
X174732723Y-98594800D01*
X174732723Y-99094800D01*
X174753642Y-99205973D01*
X174819345Y-99308079D01*
X174919597Y-99376578D01*
X175038600Y-99400677D01*
X175335383Y-99400677D01*
X175301571Y-99414648D01*
X175132641Y-99583283D01*
X175095755Y-99672114D01*
X174415677Y-98992037D01*
X174415677Y-98594800D01*
X174394758Y-98483627D01*
X174329055Y-98381521D01*
X174228803Y-98313022D01*
X174109800Y-98288923D01*
X173209800Y-98288923D01*
X173098627Y-98309842D01*
X172996521Y-98375545D01*
X172928022Y-98475797D01*
X172903923Y-98594800D01*
X172903923Y-99094800D01*
X172924842Y-99205973D01*
X172990545Y-99308079D01*
X173090797Y-99376578D01*
X173209800Y-99400677D01*
X173622237Y-99400677D01*
X174716723Y-100495164D01*
X174716723Y-101202400D01*
X174737642Y-101313573D01*
X174803345Y-101415679D01*
X174903597Y-101484178D01*
X175022600Y-101508277D01*
X175922600Y-101508277D01*
X175927200Y-101507411D01*
X175927200Y-101997455D01*
X175922600Y-101996523D01*
X175022600Y-101996523D01*
X174911427Y-102017442D01*
X174809321Y-102083145D01*
X174740822Y-102183397D01*
X174716723Y-102302400D01*
X174716723Y-103102400D01*
X174737642Y-103213573D01*
X174803345Y-103315679D01*
X174903597Y-103384178D01*
X175022600Y-103408277D01*
X175922600Y-103408277D01*
X176033773Y-103387358D01*
X176135879Y-103321655D01*
X176204378Y-103221403D01*
X176228477Y-103102400D01*
X176228477Y-102934363D01*
X176435200Y-102727641D01*
X176435200Y-107289600D01*
X176448917Y-107358558D01*
X176467551Y-107452241D01*
X176559680Y-107590120D01*
X176943200Y-107973641D01*
X176943200Y-108542558D01*
X176809041Y-108676483D01*
X176717504Y-108896929D01*
X176717296Y-109135624D01*
X176808448Y-109356229D01*
X176943200Y-109491217D01*
X176943200Y-114855385D01*
X176794117Y-114706041D01*
X176573671Y-114614504D01*
X176334976Y-114614296D01*
X176114371Y-114705448D01*
X175945441Y-114874083D01*
X175853904Y-115094529D01*
X175853743Y-115279543D01*
X175816200Y-115242000D01*
X175747261Y-115242000D01*
X175593200Y-115305814D01*
X175439139Y-115242000D01*
X174574200Y-115242000D01*
X174422200Y-115394000D01*
X174422200Y-116696000D01*
X174442200Y-116696000D01*
X174442200Y-117004000D01*
X174422200Y-117004000D01*
X174422200Y-117024000D01*
X174114200Y-117024000D01*
X174114200Y-117004000D01*
X172762200Y-117004000D01*
X172610200Y-117156000D01*
X172610200Y-117642000D01*
X172347261Y-117642000D01*
X172123795Y-117734563D01*
X171952762Y-117905596D01*
X171860200Y-118129062D01*
X155515287Y-118129062D01*
X155402198Y-117560527D01*
X154918291Y-116836309D01*
X154194073Y-116352402D01*
X153339800Y-116182476D01*
X152485527Y-116352402D01*
X151761309Y-116836309D01*
X151277402Y-117560527D01*
X151107476Y-118414800D01*
X150235000Y-118414800D01*
X150235000Y-115729062D01*
X172610200Y-115729062D01*
X172610200Y-116544000D01*
X172762200Y-116696000D01*
X174114200Y-116696000D01*
X174114200Y-115394000D01*
X173962200Y-115242000D01*
X173097261Y-115242000D01*
X172873795Y-115334563D01*
X172702762Y-115505596D01*
X172610200Y-115729062D01*
X150235000Y-115729062D01*
X150235000Y-114121200D01*
X162055800Y-114121200D01*
X162055800Y-114886138D01*
X162148362Y-115109604D01*
X162319395Y-115280637D01*
X162542861Y-115373200D01*
X163157800Y-115373200D01*
X163309800Y-115221200D01*
X163309800Y-113969200D01*
X163617800Y-113969200D01*
X163617800Y-115221200D01*
X163769800Y-115373200D01*
X164384739Y-115373200D01*
X164608205Y-115280637D01*
X164779238Y-115109604D01*
X164871800Y-114886138D01*
X164871800Y-114121200D01*
X165505800Y-114121200D01*
X165505800Y-114886138D01*
X165598362Y-115109604D01*
X165769395Y-115280637D01*
X165992861Y-115373200D01*
X166407800Y-115373200D01*
X166559800Y-115221200D01*
X166559800Y-113969200D01*
X166867800Y-113969200D01*
X166867800Y-115221200D01*
X167019800Y-115373200D01*
X167434739Y-115373200D01*
X167563800Y-115319741D01*
X167692861Y-115373200D01*
X168107800Y-115373200D01*
X168259800Y-115221200D01*
X168259800Y-113969200D01*
X168567800Y-113969200D01*
X168567800Y-115221200D01*
X168719800Y-115373200D01*
X169134739Y-115373200D01*
X169358205Y-115280637D01*
X169529238Y-115109604D01*
X169621800Y-114886138D01*
X169621800Y-114121200D01*
X170255800Y-114121200D01*
X170255800Y-114886138D01*
X170348362Y-115109604D01*
X170519395Y-115280637D01*
X170742861Y-115373200D01*
X171357800Y-115373200D01*
X171509800Y-115221200D01*
X171509800Y-113969200D01*
X171817800Y-113969200D01*
X171817800Y-115221200D01*
X171969800Y-115373200D01*
X172584739Y-115373200D01*
X172808205Y-115280637D01*
X172979238Y-115109604D01*
X173071800Y-114886138D01*
X173071800Y-114121200D01*
X172919800Y-113969200D01*
X171817800Y-113969200D01*
X171509800Y-113969200D01*
X170407800Y-113969200D01*
X170255800Y-114121200D01*
X169621800Y-114121200D01*
X169469800Y-113969200D01*
X168567800Y-113969200D01*
X168259800Y-113969200D01*
X166867800Y-113969200D01*
X166559800Y-113969200D01*
X165657800Y-113969200D01*
X165505800Y-114121200D01*
X164871800Y-114121200D01*
X164719800Y-113969200D01*
X163617800Y-113969200D01*
X163309800Y-113969200D01*
X162207800Y-113969200D01*
X162055800Y-114121200D01*
X150235000Y-114121200D01*
X150235000Y-109598910D01*
X150992097Y-109598910D01*
X151136523Y-109947616D01*
X151511146Y-110375741D01*
X152021089Y-110627915D01*
X152245998Y-110517857D01*
X152245998Y-110636152D01*
X151937384Y-110697539D01*
X151564297Y-110946827D01*
X151315009Y-111319914D01*
X151227470Y-111760000D01*
X151315009Y-112200086D01*
X151564297Y-112573173D01*
X151937384Y-112822461D01*
X152377470Y-112910000D01*
X152422530Y-112910000D01*
X152862616Y-112822461D01*
X153235703Y-112573173D01*
X153484991Y-112200086D01*
X153487992Y-112185000D01*
X157264800Y-112185000D01*
X157400457Y-112158016D01*
X157427441Y-112152649D01*
X157565320Y-112060520D01*
X159281578Y-110344262D01*
X162805800Y-110344262D01*
X162805800Y-111159200D01*
X162957800Y-111311200D01*
X164309800Y-111311200D01*
X164309800Y-110009200D01*
X164157800Y-109857200D01*
X163292861Y-109857200D01*
X163069395Y-109949763D01*
X162898362Y-110120796D01*
X162805800Y-110344262D01*
X159281578Y-110344262D01*
X162671364Y-106954477D01*
X162831037Y-106954477D01*
X163923879Y-108047320D01*
X163999907Y-108098120D01*
X164061760Y-108139449D01*
X164224400Y-108171800D01*
X170721475Y-108171800D01*
X170666880Y-108208279D01*
X169276966Y-109598194D01*
X169190352Y-109388571D01*
X169072729Y-109270742D01*
X169189759Y-109153917D01*
X169281296Y-108933471D01*
X169281504Y-108694776D01*
X169190352Y-108474171D01*
X169021717Y-108305241D01*
X168801271Y-108213704D01*
X168562576Y-108213496D01*
X168341971Y-108304648D01*
X168173041Y-108473283D01*
X168081504Y-108693729D01*
X168081400Y-108812560D01*
X167331713Y-109562247D01*
X167259952Y-109388571D01*
X167091317Y-109219641D01*
X166870871Y-109128104D01*
X166632176Y-109127896D01*
X166411571Y-109219048D01*
X166242641Y-109387683D01*
X166151104Y-109608129D01*
X166150896Y-109846824D01*
X166155183Y-109857200D01*
X166109798Y-109857200D01*
X166109798Y-109955198D01*
X166011800Y-109857200D01*
X165942861Y-109857200D01*
X165788800Y-109921014D01*
X165634739Y-109857200D01*
X164769800Y-109857200D01*
X164617800Y-110009200D01*
X164617800Y-111311200D01*
X164637800Y-111311200D01*
X164637800Y-111619200D01*
X164617800Y-111619200D01*
X164617800Y-111639200D01*
X164309800Y-111639200D01*
X164309800Y-111619200D01*
X162957800Y-111619200D01*
X162805800Y-111771200D01*
X162805800Y-112257200D01*
X162542861Y-112257200D01*
X162319395Y-112349763D01*
X162148362Y-112520796D01*
X162055800Y-112744262D01*
X162055800Y-113509200D01*
X162207800Y-113661200D01*
X163309800Y-113661200D01*
X163309800Y-113641200D01*
X163617800Y-113641200D01*
X163617800Y-113661200D01*
X164719800Y-113661200D01*
X164871800Y-113509200D01*
X164871800Y-113073200D01*
X165505800Y-113073200D01*
X165505800Y-113509200D01*
X165657800Y-113661200D01*
X166559800Y-113661200D01*
X166559800Y-113641200D01*
X166867800Y-113641200D01*
X166867800Y-113661200D01*
X168259800Y-113661200D01*
X168259800Y-112409200D01*
X168107800Y-112257200D01*
X167692861Y-112257200D01*
X167563800Y-112310659D01*
X167434739Y-112257200D01*
X167019800Y-112257200D01*
X166867802Y-112409198D01*
X166867802Y-112271040D01*
X166979238Y-112159604D01*
X166995196Y-112121077D01*
X167113800Y-112121077D01*
X167224973Y-112100158D01*
X167237579Y-112092046D01*
X167244797Y-112096978D01*
X167363800Y-112121077D01*
X167763800Y-112121077D01*
X167874973Y-112100158D01*
X167887579Y-112092046D01*
X167894797Y-112096978D01*
X168013800Y-112121077D01*
X168413800Y-112121077D01*
X168524973Y-112100158D01*
X168537579Y-112092046D01*
X168544797Y-112096978D01*
X168663800Y-112121077D01*
X169005800Y-112121077D01*
X169005800Y-112257200D01*
X168719800Y-112257200D01*
X168567800Y-112409200D01*
X168567800Y-113661200D01*
X169469800Y-113661200D01*
X169621800Y-113509200D01*
X169621800Y-113073200D01*
X170255800Y-113073200D01*
X170255800Y-113509200D01*
X170407800Y-113661200D01*
X171509800Y-113661200D01*
X171509800Y-113641200D01*
X171817800Y-113641200D01*
X171817800Y-113661200D01*
X172919800Y-113661200D01*
X173071800Y-113509200D01*
X173071800Y-112744262D01*
X172979238Y-112520796D01*
X172808205Y-112349763D01*
X172584739Y-112257200D01*
X172321800Y-112257200D01*
X172321800Y-111771200D01*
X172169800Y-111619200D01*
X170817800Y-111619200D01*
X170817800Y-111639200D01*
X170509800Y-111639200D01*
X170509800Y-111619200D01*
X170489800Y-111619200D01*
X170489800Y-111311200D01*
X170509800Y-111311200D01*
X170509800Y-110009200D01*
X170817800Y-110009200D01*
X170817800Y-111311200D01*
X172169800Y-111311200D01*
X172321800Y-111159200D01*
X172321800Y-110344262D01*
X172229238Y-110120796D01*
X172058205Y-109949763D01*
X171834739Y-109857200D01*
X170969800Y-109857200D01*
X170817800Y-110009200D01*
X170509800Y-110009200D01*
X170357800Y-109857200D01*
X170220041Y-109857200D01*
X171143441Y-108933800D01*
X173338200Y-108933800D01*
X173483194Y-108904959D01*
X173500841Y-108901449D01*
X173638720Y-108809320D01*
X175367763Y-107080277D01*
X175922600Y-107080277D01*
X176033773Y-107059358D01*
X176135879Y-106993655D01*
X176204378Y-106893403D01*
X176228477Y-106774400D01*
X176228477Y-105874400D01*
X176207558Y-105763227D01*
X176141855Y-105661121D01*
X176041603Y-105592622D01*
X175947600Y-105573586D01*
X175947600Y-105545590D01*
X175996959Y-105496317D01*
X176088496Y-105275871D01*
X176088704Y-105037176D01*
X175997552Y-104816571D01*
X175828917Y-104647641D01*
X175608471Y-104556104D01*
X175369776Y-104555896D01*
X175149171Y-104647048D01*
X174980241Y-104815683D01*
X174888704Y-105036129D01*
X174888496Y-105274824D01*
X174979648Y-105495429D01*
X175063681Y-105579609D01*
X175011427Y-105589442D01*
X174909321Y-105655145D01*
X174840822Y-105755397D01*
X174816723Y-105874400D01*
X174816723Y-106429237D01*
X173162160Y-108083800D01*
X172280125Y-108083800D01*
X172334720Y-108047320D01*
X173301763Y-107080277D01*
X173576092Y-107080277D01*
X173615560Y-107106649D01*
X173778200Y-107139000D01*
X173940840Y-107106649D01*
X174078720Y-107014520D01*
X174170849Y-106876640D01*
X174203200Y-106714000D01*
X174203200Y-106324400D01*
X174170849Y-106161760D01*
X174128477Y-106098346D01*
X174128477Y-105874400D01*
X174107558Y-105763227D01*
X174041855Y-105661121D01*
X173941603Y-105592622D01*
X173822600Y-105568523D01*
X173022600Y-105568523D01*
X172911427Y-105589442D01*
X172809321Y-105655145D01*
X172740822Y-105755397D01*
X172716723Y-105874400D01*
X172716723Y-106463237D01*
X172407000Y-106772960D01*
X172407000Y-106579600D01*
X172255000Y-106427600D01*
X171453000Y-106427600D01*
X171453000Y-106447600D01*
X171145000Y-106447600D01*
X171145000Y-106427600D01*
X171125000Y-106427600D01*
X171125000Y-106119600D01*
X171145000Y-106119600D01*
X171145000Y-105017600D01*
X171453000Y-105017600D01*
X171453000Y-106119600D01*
X172255000Y-106119600D01*
X172407000Y-105967600D01*
X172407000Y-105352662D01*
X172314438Y-105129196D01*
X172143405Y-104958163D01*
X171919939Y-104865600D01*
X171605000Y-104865600D01*
X171453000Y-105017600D01*
X171145000Y-105017600D01*
X170993000Y-104865600D01*
X170678061Y-104865600D01*
X170454595Y-104958163D01*
X170283562Y-105129196D01*
X170191000Y-105352662D01*
X170191000Y-105967600D01*
X170342998Y-106119598D01*
X170290210Y-106119598D01*
X170139317Y-105968441D01*
X169918871Y-105876904D01*
X169737299Y-105876746D01*
X169725506Y-105874400D01*
X169595800Y-105848600D01*
X169104877Y-105848600D01*
X169104877Y-105473600D01*
X169083958Y-105362427D01*
X169018255Y-105260321D01*
X168918003Y-105191822D01*
X168799000Y-105167723D01*
X167799000Y-105167723D01*
X167687827Y-105188642D01*
X167585721Y-105254345D01*
X167517222Y-105354597D01*
X167493123Y-105473600D01*
X167493123Y-105848600D01*
X166825869Y-105848600D01*
X166814358Y-105787427D01*
X166748655Y-105685321D01*
X166648403Y-105616822D01*
X166605200Y-105608073D01*
X166605200Y-104409773D01*
X166691373Y-104393558D01*
X166793479Y-104327855D01*
X166861978Y-104227603D01*
X166886077Y-104108600D01*
X166886077Y-103358600D01*
X166865158Y-103247427D01*
X166799455Y-103145321D01*
X166699203Y-103076822D01*
X166605200Y-103057786D01*
X166605200Y-102736200D01*
X168122600Y-102736200D01*
X168258257Y-102709216D01*
X168285241Y-102703849D01*
X168423120Y-102611720D01*
X169439120Y-101595720D01*
X169531249Y-101457841D01*
X169547090Y-101378201D01*
X169563600Y-101295200D01*
X169563600Y-100532261D01*
X170797200Y-100532261D01*
X170797200Y-100747200D01*
X170949200Y-100899200D01*
X171626200Y-100899200D01*
X171626200Y-100197200D01*
X171934200Y-100197200D01*
X171934200Y-100899200D01*
X172611200Y-100899200D01*
X172763200Y-100747200D01*
X172763200Y-100532261D01*
X172670637Y-100308795D01*
X172499604Y-100137762D01*
X172276138Y-100045200D01*
X172086200Y-100045200D01*
X171934200Y-100197200D01*
X171626200Y-100197200D01*
X171474200Y-100045200D01*
X171284262Y-100045200D01*
X171060796Y-100137762D01*
X170889763Y-100308795D01*
X170797200Y-100532261D01*
X169563600Y-100532261D01*
X169563600Y-99845640D01*
X170113371Y-99295869D01*
X170113296Y-99382024D01*
X170204448Y-99602629D01*
X170373083Y-99771559D01*
X170593529Y-99863096D01*
X170832224Y-99863304D01*
X171052829Y-99772152D01*
X171221759Y-99603517D01*
X171311804Y-99386664D01*
X171381000Y-99400677D01*
X171773837Y-99400677D01*
X173200000Y-100826840D01*
X173200000Y-101046523D01*
X173022600Y-101046523D01*
X172911427Y-101067442D01*
X172809321Y-101133145D01*
X172740822Y-101233397D01*
X172723405Y-101319405D01*
X172611200Y-101207200D01*
X171934200Y-101207200D01*
X171934200Y-101227200D01*
X171626200Y-101227200D01*
X171626200Y-101207200D01*
X170949200Y-101207200D01*
X170797200Y-101359200D01*
X170797200Y-101574139D01*
X170889763Y-101797605D01*
X171060796Y-101968638D01*
X171144521Y-102003318D01*
X171123422Y-102034197D01*
X171099323Y-102153200D01*
X171099323Y-102953200D01*
X171120242Y-103064373D01*
X171185945Y-103166479D01*
X171220919Y-103190376D01*
X171129504Y-103410529D01*
X171129296Y-103649224D01*
X171220448Y-103869829D01*
X171389083Y-104038759D01*
X171609529Y-104130296D01*
X171848224Y-104130504D01*
X172068829Y-104039352D01*
X172237759Y-103870717D01*
X172329296Y-103650271D01*
X172329504Y-103411576D01*
X172258464Y-103239646D01*
X172266373Y-103238158D01*
X172368479Y-103172455D01*
X172436978Y-103072203D01*
X172456014Y-102978200D01*
X173062200Y-102978200D01*
X173197857Y-102951216D01*
X173224841Y-102945849D01*
X173362720Y-102853720D01*
X173758164Y-102458277D01*
X173922600Y-102458277D01*
X174033773Y-102437358D01*
X174135879Y-102371655D01*
X174204378Y-102271403D01*
X174228477Y-102152400D01*
X174228477Y-101352400D01*
X174207558Y-101241227D01*
X174141855Y-101139121D01*
X174050000Y-101076359D01*
X174050000Y-100650800D01*
X174017649Y-100488160D01*
X174017649Y-100488159D01*
X173925520Y-100350280D01*
X172586877Y-99011637D01*
X172586877Y-98594800D01*
X172565958Y-98483627D01*
X172500255Y-98381521D01*
X172400003Y-98313022D01*
X172281000Y-98288923D01*
X171381000Y-98288923D01*
X171269827Y-98309842D01*
X171167721Y-98375545D01*
X171137483Y-98419800D01*
X171131800Y-98419800D01*
X170996143Y-98446784D01*
X170969159Y-98452151D01*
X170932785Y-98476456D01*
X171508564Y-97900677D01*
X172281000Y-97900677D01*
X172392173Y-97879758D01*
X172494279Y-97814055D01*
X172562778Y-97713803D01*
X172586877Y-97594800D01*
X172586877Y-97094800D01*
X172565958Y-96983627D01*
X172500255Y-96881521D01*
X172400003Y-96813022D01*
X172281000Y-96788923D01*
X171381000Y-96788923D01*
X171269827Y-96809842D01*
X171167721Y-96875545D01*
X171099222Y-96975797D01*
X171075123Y-97094800D01*
X171075123Y-97132036D01*
X168838080Y-99369080D01*
X168745951Y-99506959D01*
X168745951Y-99506960D01*
X168713600Y-99669600D01*
X168713600Y-101119160D01*
X167946560Y-101886200D01*
X166419041Y-101886200D01*
X162428720Y-97895880D01*
X162423589Y-97892451D01*
X164019640Y-96296400D01*
X165953523Y-96296400D01*
X165953523Y-100096400D01*
X165974442Y-100207573D01*
X166040145Y-100309679D01*
X166140397Y-100378178D01*
X166259400Y-100402277D01*
X168259400Y-100402277D01*
X168370573Y-100381358D01*
X168472679Y-100315655D01*
X168541178Y-100215403D01*
X168565277Y-100096400D01*
X168565277Y-96296400D01*
X168544358Y-96185227D01*
X168478655Y-96083121D01*
X168378403Y-96014622D01*
X168259400Y-95990523D01*
X166259400Y-95990523D01*
X166148227Y-96011442D01*
X166046121Y-96077145D01*
X165977622Y-96177397D01*
X165953523Y-96296400D01*
X164019640Y-96296400D01*
X164619640Y-95696400D01*
X170797200Y-95696400D01*
X170797200Y-95911339D01*
X170889763Y-96134805D01*
X171060796Y-96305838D01*
X171284262Y-96398400D01*
X171474200Y-96398400D01*
X171626200Y-96246400D01*
X171626200Y-95544400D01*
X171934200Y-95544400D01*
X171934200Y-96246400D01*
X172086200Y-96398400D01*
X172276138Y-96398400D01*
X172499604Y-96305838D01*
X172670637Y-96134805D01*
X172763200Y-95911339D01*
X172763200Y-95696400D01*
X172611200Y-95544400D01*
X171934200Y-95544400D01*
X171626200Y-95544400D01*
X170949200Y-95544400D01*
X170797200Y-95696400D01*
X164619640Y-95696400D01*
X164872440Y-95443601D01*
X164990224Y-95443704D01*
X165210829Y-95352552D01*
X165379759Y-95183917D01*
X165471296Y-94963471D01*
X165471377Y-94869461D01*
X170797200Y-94869461D01*
X170797200Y-95084400D01*
X170949200Y-95236400D01*
X171626200Y-95236400D01*
X171626200Y-95216400D01*
X171934200Y-95216400D01*
X171934200Y-95236400D01*
X172611200Y-95236400D01*
X172761128Y-95086472D01*
X172803345Y-95152079D01*
X172903597Y-95220578D01*
X173022600Y-95244677D01*
X173922600Y-95244677D01*
X174033773Y-95223758D01*
X174135879Y-95158055D01*
X174204378Y-95057803D01*
X174228477Y-94938800D01*
X174228477Y-94138800D01*
X174207558Y-94027627D01*
X174141855Y-93925521D01*
X174041603Y-93857022D01*
X173999200Y-93848435D01*
X173999200Y-93437200D01*
X173994777Y-93414966D01*
X174005696Y-93388671D01*
X174005904Y-93149976D01*
X173914752Y-92929371D01*
X173746117Y-92760441D01*
X173525671Y-92668904D01*
X173286976Y-92668696D01*
X173066371Y-92759848D01*
X172897441Y-92928483D01*
X172805904Y-93148929D01*
X172805696Y-93387624D01*
X172837832Y-93465400D01*
X172456373Y-93465400D01*
X172440158Y-93379227D01*
X172374455Y-93277121D01*
X172274203Y-93208622D01*
X172155200Y-93184523D01*
X171405200Y-93184523D01*
X171294027Y-93205442D01*
X171191921Y-93271145D01*
X171123422Y-93371397D01*
X171099323Y-93490400D01*
X171099323Y-94290400D01*
X171120242Y-94401573D01*
X171145018Y-94440076D01*
X171060796Y-94474962D01*
X170889763Y-94645995D01*
X170797200Y-94869461D01*
X165471377Y-94869461D01*
X165471504Y-94724776D01*
X165380352Y-94504171D01*
X165211717Y-94335241D01*
X164991271Y-94243704D01*
X164752576Y-94243496D01*
X164531971Y-94334648D01*
X164363041Y-94503283D01*
X164271504Y-94723729D01*
X164271400Y-94842559D01*
X162567400Y-96546560D01*
X162567400Y-96202400D01*
X162415400Y-96050400D01*
X161113400Y-96050400D01*
X161113400Y-96070400D01*
X160805400Y-96070400D01*
X160805400Y-96050400D01*
X159503400Y-96050400D01*
X159351400Y-96202400D01*
X159351400Y-96767338D01*
X159443962Y-96990804D01*
X159614995Y-97161837D01*
X159756515Y-97220457D01*
X159746121Y-97227145D01*
X159677622Y-97327397D01*
X159653523Y-97446400D01*
X159653523Y-98946400D01*
X159674442Y-99057573D01*
X159740145Y-99159679D01*
X159840397Y-99228178D01*
X159959400Y-99252277D01*
X161959400Y-99252277D01*
X162070573Y-99231358D01*
X162172679Y-99165655D01*
X162241178Y-99065403D01*
X162265277Y-98946400D01*
X162265277Y-98934517D01*
X165755200Y-102424441D01*
X165755200Y-103057427D01*
X165669027Y-103073642D01*
X165630524Y-103098418D01*
X165595638Y-103014196D01*
X165424605Y-102843163D01*
X165201139Y-102750600D01*
X164986200Y-102750600D01*
X164834200Y-102902600D01*
X164834200Y-103579600D01*
X164854200Y-103579600D01*
X164854200Y-103887600D01*
X164834200Y-103887600D01*
X164834200Y-104564600D01*
X164986200Y-104716600D01*
X165201139Y-104716600D01*
X165424605Y-104624037D01*
X165595638Y-104453004D01*
X165630318Y-104369279D01*
X165661197Y-104390378D01*
X165755200Y-104409414D01*
X165755200Y-105592723D01*
X165729400Y-105592723D01*
X165618227Y-105613642D01*
X165579724Y-105638418D01*
X165544838Y-105554196D01*
X165373805Y-105383163D01*
X165150339Y-105290600D01*
X164935400Y-105290600D01*
X164783400Y-105442600D01*
X164783400Y-106119600D01*
X164803400Y-106119600D01*
X164803400Y-106427600D01*
X164783400Y-106427600D01*
X164783400Y-107104600D01*
X164935400Y-107256600D01*
X165150339Y-107256600D01*
X165373805Y-107164037D01*
X165544838Y-106993004D01*
X165579518Y-106909279D01*
X165610397Y-106930378D01*
X165729400Y-106954477D01*
X166529400Y-106954477D01*
X166640573Y-106933558D01*
X166742679Y-106867855D01*
X166811178Y-106767603D01*
X166825152Y-106698600D01*
X167493123Y-106698600D01*
X167493123Y-107073600D01*
X167514042Y-107184773D01*
X167579745Y-107286879D01*
X167630854Y-107321800D01*
X164400441Y-107321800D01*
X164329320Y-107250680D01*
X164475400Y-107104600D01*
X164475400Y-106427600D01*
X163773400Y-106427600D01*
X163639820Y-106561180D01*
X163457077Y-106378437D01*
X163457077Y-105898600D01*
X163436158Y-105787427D01*
X163429875Y-105777662D01*
X163621400Y-105777662D01*
X163621400Y-105967600D01*
X163773400Y-106119600D01*
X164475400Y-106119600D01*
X164475400Y-105442600D01*
X164323400Y-105290600D01*
X164108461Y-105290600D01*
X163884995Y-105383163D01*
X163713962Y-105554196D01*
X163621400Y-105777662D01*
X163429875Y-105777662D01*
X163370455Y-105685321D01*
X163270203Y-105616822D01*
X163176200Y-105597786D01*
X163176200Y-104409773D01*
X163262373Y-104393558D01*
X163364479Y-104327855D01*
X163432978Y-104227603D01*
X163457077Y-104108600D01*
X163457077Y-104039600D01*
X163672200Y-104039600D01*
X163672200Y-104229538D01*
X163764762Y-104453004D01*
X163935795Y-104624037D01*
X164159261Y-104716600D01*
X164374200Y-104716600D01*
X164526200Y-104564600D01*
X164526200Y-103887600D01*
X163824200Y-103887600D01*
X163672200Y-104039600D01*
X163457077Y-104039600D01*
X163457077Y-103358600D01*
X163436158Y-103247427D01*
X163429875Y-103237662D01*
X163672200Y-103237662D01*
X163672200Y-103427600D01*
X163824200Y-103579600D01*
X164526200Y-103579600D01*
X164526200Y-102902600D01*
X164374200Y-102750600D01*
X164159261Y-102750600D01*
X163935795Y-102843163D01*
X163764762Y-103014196D01*
X163672200Y-103237662D01*
X163429875Y-103237662D01*
X163370455Y-103145321D01*
X163270203Y-103076822D01*
X163151200Y-103052723D01*
X162671363Y-103052723D01*
X161384400Y-101765760D01*
X161384400Y-101552277D01*
X161959400Y-101552277D01*
X162070573Y-101531358D01*
X162172679Y-101465655D01*
X162241178Y-101365403D01*
X162265277Y-101246400D01*
X162265277Y-99746400D01*
X162244358Y-99635227D01*
X162178655Y-99533121D01*
X162078403Y-99464622D01*
X161959400Y-99440523D01*
X159959400Y-99440523D01*
X159848227Y-99461442D01*
X159746121Y-99527145D01*
X159677622Y-99627397D01*
X159653523Y-99746400D01*
X159653523Y-101246400D01*
X159674442Y-101357573D01*
X159740145Y-101459679D01*
X159840397Y-101528178D01*
X159959400Y-101552277D01*
X160534400Y-101552277D01*
X160534400Y-101941800D01*
X160556503Y-102052920D01*
X160566751Y-102104441D01*
X160658880Y-102242320D01*
X161167160Y-102750600D01*
X161097198Y-102750600D01*
X161097198Y-102902598D01*
X160945200Y-102750600D01*
X160730261Y-102750600D01*
X160506795Y-102843163D01*
X160335762Y-103014196D01*
X160243200Y-103237662D01*
X160243200Y-103427600D01*
X160395200Y-103579600D01*
X161097200Y-103579600D01*
X161097200Y-103559600D01*
X161405200Y-103559600D01*
X161405200Y-103579600D01*
X161425200Y-103579600D01*
X161425200Y-103887600D01*
X161405200Y-103887600D01*
X161405200Y-104564600D01*
X161557200Y-104716600D01*
X161772139Y-104716600D01*
X161995605Y-104624037D01*
X162166638Y-104453004D01*
X162201318Y-104369279D01*
X162232197Y-104390378D01*
X162326200Y-104409414D01*
X162326200Y-105597427D01*
X162240027Y-105613642D01*
X162201524Y-105638418D01*
X162166638Y-105554196D01*
X161995605Y-105383163D01*
X161772139Y-105290600D01*
X161557200Y-105290600D01*
X161405200Y-105442600D01*
X161405200Y-106119600D01*
X161425200Y-106119600D01*
X161425200Y-106427600D01*
X161405200Y-106427600D01*
X161405200Y-106447600D01*
X161097200Y-106447600D01*
X161097200Y-106427600D01*
X160395200Y-106427600D01*
X160243200Y-106579600D01*
X160243200Y-106769538D01*
X160335762Y-106993004D01*
X160506795Y-107164037D01*
X160730261Y-107256600D01*
X160945200Y-107256600D01*
X161097198Y-107104602D01*
X161097198Y-107256600D01*
X161167159Y-107256600D01*
X157088760Y-111335000D01*
X153487992Y-111335000D01*
X153484991Y-111319914D01*
X153235703Y-110946827D01*
X152862616Y-110697539D01*
X152554002Y-110636152D01*
X152554002Y-110517857D01*
X152778911Y-110627915D01*
X153288854Y-110375741D01*
X153663477Y-109947616D01*
X153807903Y-109598910D01*
X153696889Y-109374000D01*
X152554000Y-109374000D01*
X152554000Y-109394000D01*
X152246000Y-109394000D01*
X152246000Y-109374000D01*
X151103111Y-109374000D01*
X150992097Y-109598910D01*
X150235000Y-109598910D01*
X150235000Y-109409053D01*
X150252649Y-109382640D01*
X150285000Y-109220000D01*
X150285000Y-106856040D01*
X150287520Y-106853520D01*
X150379649Y-106715641D01*
X150411999Y-106553000D01*
X150379649Y-106390359D01*
X150287520Y-106252480D01*
X150235000Y-106217387D01*
X150235000Y-71426000D01*
X150942000Y-71426000D01*
X150942000Y-72090938D01*
X151034562Y-72314404D01*
X151205595Y-72485437D01*
X151429061Y-72578000D01*
X152035613Y-72578000D01*
X151937384Y-72597539D01*
X151564297Y-72846827D01*
X151315009Y-73219914D01*
X151227470Y-73660000D01*
X151315009Y-74100086D01*
X151564297Y-74473173D01*
X151937384Y-74722461D01*
X152377470Y-74810000D01*
X152422530Y-74810000D01*
X152862616Y-74722461D01*
X153235703Y-74473173D01*
X153484991Y-74100086D01*
X153572530Y-73660000D01*
X153484991Y-73219914D01*
X153467421Y-73193619D01*
X153762041Y-72899000D01*
X161196724Y-72899000D01*
X161267104Y-73004330D01*
X161423753Y-73109000D01*
X161267104Y-73213670D01*
X161196724Y-73319000D01*
X154856000Y-73319000D01*
X154693359Y-73351351D01*
X154555480Y-73443479D01*
X152861619Y-75137341D01*
X152422530Y-75050000D01*
X152377470Y-75050000D01*
X151937384Y-75137539D01*
X151564297Y-75386827D01*
X151315009Y-75759914D01*
X151227470Y-76200000D01*
X151315009Y-76640086D01*
X151564297Y-77013173D01*
X151937384Y-77262461D01*
X152377470Y-77350000D01*
X152422530Y-77350000D01*
X152862616Y-77262461D01*
X153235703Y-77013173D01*
X153484991Y-76640086D01*
X153572530Y-76200000D01*
X153484991Y-75759914D01*
X153467421Y-75733619D01*
X155032041Y-74169000D01*
X161196724Y-74169000D01*
X161267104Y-74274330D01*
X161423753Y-74379000D01*
X161267104Y-74483670D01*
X161196724Y-74589000D01*
X156126000Y-74589000D01*
X155963359Y-74621351D01*
X155825480Y-74713479D01*
X152861619Y-77677341D01*
X152422530Y-77590000D01*
X152377470Y-77590000D01*
X151937384Y-77677539D01*
X151564297Y-77926827D01*
X151315009Y-78299914D01*
X151227470Y-78740000D01*
X151315009Y-79180086D01*
X151564297Y-79553173D01*
X151937384Y-79802461D01*
X152377470Y-79890000D01*
X152422530Y-79890000D01*
X152862616Y-79802461D01*
X153235703Y-79553173D01*
X153484991Y-79180086D01*
X153572530Y-78740000D01*
X153484991Y-78299914D01*
X153467421Y-78273619D01*
X156302041Y-75439000D01*
X161196724Y-75439000D01*
X161267104Y-75544330D01*
X161423753Y-75649000D01*
X161267104Y-75753670D01*
X161196724Y-75859000D01*
X157396000Y-75859000D01*
X157260343Y-75885984D01*
X157233359Y-75891351D01*
X157095480Y-75983480D01*
X152861619Y-80217341D01*
X152422530Y-80130000D01*
X152377470Y-80130000D01*
X151937384Y-80217539D01*
X151564297Y-80466827D01*
X151315009Y-80839914D01*
X151227470Y-81280000D01*
X151315009Y-81720086D01*
X151564297Y-82093173D01*
X151937384Y-82342461D01*
X152377470Y-82430000D01*
X152422530Y-82430000D01*
X152862616Y-82342461D01*
X153235703Y-82093173D01*
X153484991Y-81720086D01*
X153572530Y-81280000D01*
X153484991Y-80839914D01*
X153467421Y-80813619D01*
X157572040Y-76709000D01*
X161196724Y-76709000D01*
X161267104Y-76814330D01*
X161423753Y-76919000D01*
X161267104Y-77023670D01*
X161196724Y-77129000D01*
X158666000Y-77129000D01*
X158503360Y-77161351D01*
X158503358Y-77161352D01*
X158503359Y-77161352D01*
X158365479Y-77253480D01*
X152861619Y-82757341D01*
X152422530Y-82670000D01*
X152377470Y-82670000D01*
X151937384Y-82757539D01*
X151564297Y-83006827D01*
X151315009Y-83379914D01*
X151227470Y-83820000D01*
X151315009Y-84260086D01*
X151564297Y-84633173D01*
X151937384Y-84882461D01*
X152377470Y-84970000D01*
X152422530Y-84970000D01*
X152862616Y-84882461D01*
X153235703Y-84633173D01*
X153484991Y-84260086D01*
X153572530Y-83820000D01*
X153484991Y-83379914D01*
X153467421Y-83353619D01*
X158842041Y-77979000D01*
X161196724Y-77979000D01*
X161267104Y-78084330D01*
X161423753Y-78189000D01*
X161267104Y-78293670D01*
X161196724Y-78399000D01*
X159936000Y-78399000D01*
X159773360Y-78431351D01*
X159727608Y-78461922D01*
X159635479Y-78523480D01*
X152861619Y-85297341D01*
X152422530Y-85210000D01*
X152377470Y-85210000D01*
X151937384Y-85297539D01*
X151564297Y-85546827D01*
X151315009Y-85919914D01*
X151227470Y-86360000D01*
X151315009Y-86800086D01*
X151564297Y-87173173D01*
X151937384Y-87422461D01*
X152377470Y-87510000D01*
X152422530Y-87510000D01*
X152862616Y-87422461D01*
X153235703Y-87173173D01*
X153484991Y-86800086D01*
X153572530Y-86360000D01*
X153484991Y-85919914D01*
X153467421Y-85893619D01*
X160112041Y-79249000D01*
X161196724Y-79249000D01*
X161267104Y-79354330D01*
X161423753Y-79459000D01*
X161267104Y-79563670D01*
X161195303Y-79671128D01*
X161043359Y-79701351D01*
X160905480Y-79793479D01*
X152861619Y-87837341D01*
X152422530Y-87750000D01*
X152377470Y-87750000D01*
X151937384Y-87837539D01*
X151564297Y-88086827D01*
X151315009Y-88459914D01*
X151227470Y-88900000D01*
X151315009Y-89340086D01*
X151564297Y-89713173D01*
X151937384Y-89962461D01*
X152377470Y-90050000D01*
X152422530Y-90050000D01*
X152862616Y-89962461D01*
X153235703Y-89713173D01*
X153484991Y-89340086D01*
X153572530Y-88900000D01*
X153484991Y-88459914D01*
X153467421Y-88433619D01*
X153727600Y-88173440D01*
X153727600Y-89511359D01*
X152861619Y-90377341D01*
X152422530Y-90290000D01*
X152377470Y-90290000D01*
X151937384Y-90377539D01*
X151564297Y-90626827D01*
X151315009Y-90999914D01*
X151227470Y-91440000D01*
X151315009Y-91880086D01*
X151564297Y-92253173D01*
X151937384Y-92502461D01*
X152377470Y-92590000D01*
X152422530Y-92590000D01*
X152862616Y-92502461D01*
X153235703Y-92253173D01*
X153484991Y-91880086D01*
X153572530Y-91440000D01*
X153484991Y-90999914D01*
X153467421Y-90973619D01*
X154184800Y-90256241D01*
X154184800Y-91594160D01*
X152861619Y-92917341D01*
X152422530Y-92830000D01*
X152377470Y-92830000D01*
X151937384Y-92917539D01*
X151564297Y-93166827D01*
X151315009Y-93539914D01*
X151227470Y-93980000D01*
X151315009Y-94420086D01*
X151564297Y-94793173D01*
X151937384Y-95042461D01*
X152377470Y-95130000D01*
X152422530Y-95130000D01*
X152862616Y-95042461D01*
X153235703Y-94793173D01*
X153484991Y-94420086D01*
X153572530Y-93980000D01*
X153484991Y-93539914D01*
X153467421Y-93513619D01*
X154692800Y-92288240D01*
X154692800Y-93626159D01*
X152861619Y-95457341D01*
X152422530Y-95370000D01*
X152377470Y-95370000D01*
X151937384Y-95457539D01*
X151564297Y-95706827D01*
X151315009Y-96079914D01*
X151227470Y-96520000D01*
X151315009Y-96960086D01*
X151564297Y-97333173D01*
X151937384Y-97582461D01*
X152377470Y-97670000D01*
X152422530Y-97670000D01*
X152862616Y-97582461D01*
X153235703Y-97333173D01*
X153484991Y-96960086D01*
X153572530Y-96520000D01*
X153484991Y-96079914D01*
X153467421Y-96053619D01*
X155251600Y-94269441D01*
X155251600Y-95607360D01*
X152861619Y-97997341D01*
X152422530Y-97910000D01*
X152377470Y-97910000D01*
X151937384Y-97997539D01*
X151564297Y-98246827D01*
X151315009Y-98619914D01*
X151227470Y-99060000D01*
X151315009Y-99500086D01*
X151564297Y-99873173D01*
X151937384Y-100122461D01*
X152377470Y-100210000D01*
X152422530Y-100210000D01*
X152862616Y-100122461D01*
X153235703Y-99873173D01*
X153484991Y-99500086D01*
X153572530Y-99060000D01*
X153484991Y-98619914D01*
X153467421Y-98593619D01*
X155708800Y-96352240D01*
X155708800Y-97690159D01*
X152861619Y-100537341D01*
X152422530Y-100450000D01*
X152377470Y-100450000D01*
X151937384Y-100537539D01*
X151564297Y-100786827D01*
X151315009Y-101159914D01*
X151227470Y-101600000D01*
X151315009Y-102040086D01*
X151564297Y-102413173D01*
X151937384Y-102662461D01*
X152377470Y-102750000D01*
X152422530Y-102750000D01*
X152862616Y-102662461D01*
X153235703Y-102413173D01*
X153484991Y-102040086D01*
X153572530Y-101600000D01*
X153484991Y-101159914D01*
X153467421Y-101133619D01*
X156267600Y-98333441D01*
X156267600Y-99671360D01*
X152861619Y-103077341D01*
X152422530Y-102990000D01*
X152377470Y-102990000D01*
X151937384Y-103077539D01*
X151564297Y-103326827D01*
X151315009Y-103699914D01*
X151227470Y-104140000D01*
X151315009Y-104580086D01*
X151564297Y-104953173D01*
X151937384Y-105202461D01*
X152377470Y-105290000D01*
X152422530Y-105290000D01*
X152862616Y-105202461D01*
X153235703Y-104953173D01*
X153484991Y-104580086D01*
X153572530Y-104140000D01*
X153484991Y-103699914D01*
X153467421Y-103673619D01*
X156826400Y-100314640D01*
X156826400Y-101652559D01*
X152861619Y-105617341D01*
X152422530Y-105530000D01*
X152377470Y-105530000D01*
X151937384Y-105617539D01*
X151564297Y-105866827D01*
X151315009Y-106239914D01*
X151227470Y-106680000D01*
X151315009Y-107120086D01*
X151564297Y-107493173D01*
X151937384Y-107742461D01*
X152245998Y-107803848D01*
X152245998Y-107922143D01*
X152021089Y-107812085D01*
X151511146Y-108064259D01*
X151136523Y-108492384D01*
X150992097Y-108841090D01*
X151103111Y-109066000D01*
X152246000Y-109066000D01*
X152246000Y-109046000D01*
X152554000Y-109046000D01*
X152554000Y-109066000D01*
X153696889Y-109066000D01*
X153807903Y-108841090D01*
X153663477Y-108492384D01*
X153288854Y-108064259D01*
X152778911Y-107812085D01*
X152554002Y-107922143D01*
X152554002Y-107803848D01*
X152862616Y-107742461D01*
X153235703Y-107493173D01*
X153484991Y-107120086D01*
X153572530Y-106680000D01*
X153484991Y-106239914D01*
X153467421Y-106213619D01*
X153903378Y-105777662D01*
X160243200Y-105777662D01*
X160243200Y-105967600D01*
X160395200Y-106119600D01*
X161097200Y-106119600D01*
X161097200Y-105442600D01*
X160945200Y-105290600D01*
X160730261Y-105290600D01*
X160506795Y-105383163D01*
X160335762Y-105554196D01*
X160243200Y-105777662D01*
X153903378Y-105777662D01*
X155641440Y-104039600D01*
X160243200Y-104039600D01*
X160243200Y-104229538D01*
X160335762Y-104453004D01*
X160506795Y-104624037D01*
X160730261Y-104716600D01*
X160945200Y-104716600D01*
X161097200Y-104564600D01*
X161097200Y-103887600D01*
X160395200Y-103887600D01*
X160243200Y-104039600D01*
X155641440Y-104039600D01*
X157551921Y-102129120D01*
X157644049Y-101991241D01*
X157676400Y-101828600D01*
X157676400Y-95025462D01*
X159351400Y-95025462D01*
X159351400Y-95590400D01*
X159503400Y-95742400D01*
X160805400Y-95742400D01*
X160805400Y-94690400D01*
X161113400Y-94690400D01*
X161113400Y-95742400D01*
X162415400Y-95742400D01*
X162567400Y-95590400D01*
X162567400Y-95025462D01*
X162474838Y-94801996D01*
X162303805Y-94630963D01*
X162080339Y-94538400D01*
X161265400Y-94538400D01*
X161113400Y-94690400D01*
X160805400Y-94690400D01*
X160653400Y-94538400D01*
X159838461Y-94538400D01*
X159614995Y-94630963D01*
X159443962Y-94801996D01*
X159351400Y-95025462D01*
X157676400Y-95025462D01*
X157676400Y-92378040D01*
X158189441Y-91865000D01*
X166497000Y-91865000D01*
X166632657Y-91838016D01*
X166659641Y-91832649D01*
X166797520Y-91740520D01*
X167483321Y-91054720D01*
X167575449Y-90916841D01*
X167607800Y-90754200D01*
X167607800Y-90635076D01*
X167713130Y-90564696D01*
X167817800Y-90408047D01*
X167922470Y-90564696D01*
X168165787Y-90727276D01*
X168452800Y-90784366D01*
X168739813Y-90727276D01*
X168983130Y-90564696D01*
X169087800Y-90408047D01*
X169192470Y-90564696D01*
X169435787Y-90727276D01*
X169722800Y-90784366D01*
X170009813Y-90727276D01*
X170253130Y-90564696D01*
X170357800Y-90408047D01*
X170462470Y-90564696D01*
X170705787Y-90727276D01*
X170992800Y-90784366D01*
X171279813Y-90727276D01*
X171523130Y-90564696D01*
X171627800Y-90408047D01*
X171732470Y-90564696D01*
X171975787Y-90727276D01*
X172262800Y-90784366D01*
X172549813Y-90727276D01*
X172793130Y-90564696D01*
X172897800Y-90408047D01*
X173002470Y-90564696D01*
X173245787Y-90727276D01*
X173532800Y-90784366D01*
X173819813Y-90727276D01*
X174063130Y-90564696D01*
X174167800Y-90408047D01*
X174272470Y-90564696D01*
X174515787Y-90727276D01*
X174802800Y-90784366D01*
X175089813Y-90727276D01*
X175333130Y-90564696D01*
X175437800Y-90408047D01*
X175542470Y-90564696D01*
X175785787Y-90727276D01*
X176072800Y-90784366D01*
X176105101Y-90777941D01*
X177575680Y-92248521D01*
X177713559Y-92340649D01*
X177876200Y-92373000D01*
X178484064Y-92373000D01*
X178393904Y-92590129D01*
X178393696Y-92828824D01*
X178467200Y-93006718D01*
X178467200Y-94045723D01*
X178442200Y-94045723D01*
X178331027Y-94066642D01*
X178228921Y-94132345D01*
X178160422Y-94232597D01*
X178136323Y-94351600D01*
X178136323Y-94851600D01*
X178157242Y-94962773D01*
X178222945Y-95064879D01*
X178323197Y-95133378D01*
X178442200Y-95157477D01*
X179342200Y-95157477D01*
X179453373Y-95136558D01*
X179555479Y-95070855D01*
X179623978Y-94970603D01*
X179648077Y-94851600D01*
X179648077Y-94351600D01*
X179627158Y-94240427D01*
X179561455Y-94138321D01*
X179461203Y-94069822D01*
X179342200Y-94045723D01*
X179317200Y-94045723D01*
X179317200Y-93225575D01*
X179333229Y-93218952D01*
X179502159Y-93050317D01*
X179593696Y-92829871D01*
X179593904Y-92591176D01*
X179503756Y-92373000D01*
X180311007Y-92373000D01*
X180263441Y-92420483D01*
X180171904Y-92640929D01*
X180171696Y-92879624D01*
X180262848Y-93100229D01*
X180346800Y-93184328D01*
X180346800Y-94045723D01*
X180321800Y-94045723D01*
X180210627Y-94066642D01*
X180108521Y-94132345D01*
X180040022Y-94232597D01*
X180015923Y-94351600D01*
X180015923Y-94851600D01*
X180036842Y-94962773D01*
X180102545Y-95064879D01*
X180202797Y-95133378D01*
X180321800Y-95157477D01*
X181221800Y-95157477D01*
X181332973Y-95136558D01*
X181435079Y-95070855D01*
X181503578Y-94970603D01*
X181527677Y-94851600D01*
X181527677Y-94351600D01*
X181506758Y-94240427D01*
X181441055Y-94138321D01*
X181340803Y-94069822D01*
X181221800Y-94045723D01*
X181196800Y-94045723D01*
X181196800Y-93184330D01*
X181280159Y-93101117D01*
X181371696Y-92880671D01*
X181371904Y-92641976D01*
X181280752Y-92421371D01*
X181232465Y-92373000D01*
X184202560Y-92373000D01*
X184664800Y-92835241D01*
X184664800Y-97127864D01*
X184447671Y-97037704D01*
X184208976Y-97037496D01*
X183988371Y-97128648D01*
X183819441Y-97297283D01*
X183727904Y-97517729D01*
X183727696Y-97756424D01*
X183818848Y-97977029D01*
X183953600Y-98112017D01*
X183953600Y-105018759D01*
X183454637Y-105517723D01*
X183049800Y-105517723D01*
X182938627Y-105538642D01*
X182836521Y-105604345D01*
X182768022Y-105704597D01*
X182743923Y-105823600D01*
X182743923Y-106723600D01*
X182764842Y-106834773D01*
X182830545Y-106936879D01*
X182930797Y-107005378D01*
X183049800Y-107029477D01*
X183549800Y-107029477D01*
X183660973Y-107008558D01*
X183763079Y-106942855D01*
X183831578Y-106842603D01*
X183855677Y-106723600D01*
X183855677Y-106318763D01*
X184679121Y-105495320D01*
X184771249Y-105357441D01*
X184803600Y-105194800D01*
X184803600Y-104150040D01*
X189407178Y-108753619D01*
X189389609Y-108779914D01*
X189302070Y-109220000D01*
X189389609Y-109660086D01*
X189638897Y-110033173D01*
X190011984Y-110282461D01*
X190452070Y-110370000D01*
X190497130Y-110370000D01*
X190937216Y-110282461D01*
X191310303Y-110033173D01*
X191559591Y-109660086D01*
X191647130Y-109220000D01*
X191559591Y-108779914D01*
X191310303Y-108406827D01*
X190937216Y-108157539D01*
X190497130Y-108070000D01*
X190452070Y-108070000D01*
X190012981Y-108157341D01*
X185514800Y-103659160D01*
X185514800Y-102321240D01*
X189407178Y-106213619D01*
X189389609Y-106239914D01*
X189302070Y-106680000D01*
X189389609Y-107120086D01*
X189638897Y-107493173D01*
X190011984Y-107742461D01*
X190452070Y-107830000D01*
X190497130Y-107830000D01*
X190937216Y-107742461D01*
X191310303Y-107493173D01*
X191559591Y-107120086D01*
X191647130Y-106680000D01*
X191559591Y-106239914D01*
X191310303Y-105866827D01*
X190937216Y-105617539D01*
X190497130Y-105530000D01*
X190452070Y-105530000D01*
X190012981Y-105617341D01*
X186022800Y-101627160D01*
X186022800Y-100289240D01*
X189407178Y-103673619D01*
X189389609Y-103699914D01*
X189302070Y-104140000D01*
X189389609Y-104580086D01*
X189638897Y-104953173D01*
X190011984Y-105202461D01*
X190452070Y-105290000D01*
X190497130Y-105290000D01*
X190937216Y-105202461D01*
X191310303Y-104953173D01*
X191559591Y-104580086D01*
X191647130Y-104140000D01*
X191559591Y-103699914D01*
X191310303Y-103326827D01*
X190937216Y-103077539D01*
X190497130Y-102990000D01*
X190452070Y-102990000D01*
X190012981Y-103077341D01*
X186530800Y-99595160D01*
X186530800Y-98257240D01*
X189407179Y-101133619D01*
X189389609Y-101159914D01*
X189302070Y-101600000D01*
X189389609Y-102040086D01*
X189638897Y-102413173D01*
X190011984Y-102662461D01*
X190452070Y-102750000D01*
X190497130Y-102750000D01*
X190937216Y-102662461D01*
X191310303Y-102413173D01*
X191559591Y-102040086D01*
X191647130Y-101600000D01*
X191559591Y-101159914D01*
X191310303Y-100786827D01*
X190937216Y-100537539D01*
X190497130Y-100450000D01*
X190452070Y-100450000D01*
X190012981Y-100537341D01*
X187038800Y-97563160D01*
X187038800Y-96225240D01*
X189407179Y-98593619D01*
X189389609Y-98619914D01*
X189302070Y-99060000D01*
X189389609Y-99500086D01*
X189638897Y-99873173D01*
X190011984Y-100122461D01*
X190452070Y-100210000D01*
X190497130Y-100210000D01*
X190937216Y-100122461D01*
X191310303Y-99873173D01*
X191559591Y-99500086D01*
X191647130Y-99060000D01*
X191559591Y-98619914D01*
X191310303Y-98246827D01*
X190937216Y-97997539D01*
X190497130Y-97910000D01*
X190452070Y-97910000D01*
X190012981Y-97997341D01*
X187597600Y-95581960D01*
X187597600Y-94244040D01*
X189407179Y-96053619D01*
X189389609Y-96079914D01*
X189302070Y-96520000D01*
X189389609Y-96960086D01*
X189638897Y-97333173D01*
X190011984Y-97582461D01*
X190452070Y-97670000D01*
X190497130Y-97670000D01*
X190937216Y-97582461D01*
X191310303Y-97333173D01*
X191559591Y-96960086D01*
X191647130Y-96520000D01*
X191559591Y-96079914D01*
X191310303Y-95706827D01*
X190937216Y-95457539D01*
X190497130Y-95370000D01*
X190452070Y-95370000D01*
X190012981Y-95457341D01*
X188207200Y-93651560D01*
X188207200Y-92313640D01*
X189407179Y-93513619D01*
X189389609Y-93539914D01*
X189302070Y-93980000D01*
X189389609Y-94420086D01*
X189638897Y-94793173D01*
X190011984Y-95042461D01*
X190452070Y-95130000D01*
X190497130Y-95130000D01*
X190937216Y-95042461D01*
X191310303Y-94793173D01*
X191559591Y-94420086D01*
X191647130Y-93980000D01*
X191559591Y-93539914D01*
X191310303Y-93166827D01*
X190937216Y-92917539D01*
X190497130Y-92830000D01*
X190452070Y-92830000D01*
X190012981Y-92917341D01*
X188766000Y-91670360D01*
X188766000Y-90332440D01*
X189407179Y-90973619D01*
X189389609Y-90999914D01*
X189302070Y-91440000D01*
X189389609Y-91880086D01*
X189638897Y-92253173D01*
X190011984Y-92502461D01*
X190452070Y-92590000D01*
X190497130Y-92590000D01*
X190937216Y-92502461D01*
X191310303Y-92253173D01*
X191559591Y-91880086D01*
X191647130Y-91440000D01*
X191559591Y-90999914D01*
X191310303Y-90626827D01*
X190937216Y-90377539D01*
X190497130Y-90290000D01*
X190452070Y-90290000D01*
X190012981Y-90377341D01*
X189324800Y-89689160D01*
X189324800Y-89014271D01*
X189389609Y-89340086D01*
X189638897Y-89713173D01*
X190011984Y-89962461D01*
X190452070Y-90050000D01*
X190497130Y-90050000D01*
X190937216Y-89962461D01*
X191310303Y-89713173D01*
X191559591Y-89340086D01*
X191647130Y-88900000D01*
X191559591Y-88459914D01*
X191310303Y-88086827D01*
X190937216Y-87837539D01*
X190497130Y-87750000D01*
X190452070Y-87750000D01*
X190012981Y-87837341D01*
X182226780Y-80051140D01*
X182414624Y-80051304D01*
X182635229Y-79960152D01*
X182804159Y-79791517D01*
X182895696Y-79571071D01*
X182895860Y-79382301D01*
X189407178Y-85893619D01*
X189389609Y-85919914D01*
X189302070Y-86360000D01*
X189389609Y-86800086D01*
X189638897Y-87173173D01*
X190011984Y-87422461D01*
X190452070Y-87510000D01*
X190497130Y-87510000D01*
X190937216Y-87422461D01*
X191310303Y-87173173D01*
X191559591Y-86800086D01*
X191647130Y-86360000D01*
X191559591Y-85919914D01*
X191310303Y-85546827D01*
X190937216Y-85297539D01*
X190497130Y-85210000D01*
X190452070Y-85210000D01*
X190012981Y-85297341D01*
X182277625Y-77561985D01*
X182414624Y-77562104D01*
X182635229Y-77470952D01*
X182804159Y-77302317D01*
X182895696Y-77081871D01*
X182895862Y-76891772D01*
X182930868Y-76877308D01*
X189407178Y-83353619D01*
X189389609Y-83379914D01*
X189302070Y-83820000D01*
X189389609Y-84260086D01*
X189638897Y-84633173D01*
X190011984Y-84882461D01*
X190452070Y-84970000D01*
X190497130Y-84970000D01*
X190937216Y-84882461D01*
X191310303Y-84633173D01*
X191559591Y-84260086D01*
X191647130Y-83820000D01*
X191559591Y-83379914D01*
X191310303Y-83006827D01*
X190937216Y-82757539D01*
X190497130Y-82670000D01*
X190452070Y-82670000D01*
X190012981Y-82757341D01*
X183293033Y-76037393D01*
X183261952Y-75962171D01*
X183093317Y-75793241D01*
X182872871Y-75701704D01*
X182844948Y-75701680D01*
X182845104Y-75522376D01*
X182810654Y-75439000D01*
X183040670Y-75439000D01*
X183123883Y-75522359D01*
X183344329Y-75613896D01*
X183583024Y-75614104D01*
X183803629Y-75522952D01*
X183887728Y-75439000D01*
X184032560Y-75439000D01*
X189407178Y-80813619D01*
X189389609Y-80839914D01*
X189302070Y-81280000D01*
X189389609Y-81720086D01*
X189638897Y-82093173D01*
X190011984Y-82342461D01*
X190452070Y-82430000D01*
X190497130Y-82430000D01*
X190937216Y-82342461D01*
X191310303Y-82093173D01*
X191559591Y-81720086D01*
X191647130Y-81280000D01*
X191559591Y-80839914D01*
X191310303Y-80466827D01*
X190937216Y-80217539D01*
X190497130Y-80130000D01*
X190452070Y-80130000D01*
X190012981Y-80217341D01*
X184509120Y-74713480D01*
X184371241Y-74621351D01*
X184344257Y-74615984D01*
X184208600Y-74589000D01*
X183887730Y-74589000D01*
X183804517Y-74505641D01*
X183584071Y-74414104D01*
X183345376Y-74413896D01*
X183124771Y-74505048D01*
X183040672Y-74589000D01*
X182905832Y-74589000D01*
X182946496Y-74491071D01*
X182946704Y-74252376D01*
X182912254Y-74169000D01*
X185302560Y-74169000D01*
X189407179Y-78273619D01*
X189389609Y-78299914D01*
X189302070Y-78740000D01*
X189389609Y-79180086D01*
X189638897Y-79553173D01*
X190011984Y-79802461D01*
X190452070Y-79890000D01*
X190497130Y-79890000D01*
X190937216Y-79802461D01*
X191310303Y-79553173D01*
X191559591Y-79180086D01*
X191647130Y-78740000D01*
X191559591Y-78299914D01*
X191310303Y-77926827D01*
X190937216Y-77677539D01*
X190497130Y-77590000D01*
X190452070Y-77590000D01*
X190012981Y-77677341D01*
X185779120Y-73443480D01*
X185641241Y-73351351D01*
X185614257Y-73345984D01*
X185478600Y-73319000D01*
X182905832Y-73319000D01*
X182946496Y-73221071D01*
X182946704Y-72982376D01*
X182912254Y-72899000D01*
X186572560Y-72899000D01*
X189407179Y-75733619D01*
X189389609Y-75759914D01*
X189302070Y-76200000D01*
X189389609Y-76640086D01*
X189638897Y-77013173D01*
X190011984Y-77262461D01*
X190452070Y-77350000D01*
X190497130Y-77350000D01*
X190937216Y-77262461D01*
X191310303Y-77013173D01*
X191559591Y-76640086D01*
X191647130Y-76200000D01*
X191559591Y-75759914D01*
X191310303Y-75386827D01*
X190937216Y-75137539D01*
X190497130Y-75050000D01*
X190452070Y-75050000D01*
X190012981Y-75137341D01*
X187049120Y-72173480D01*
X186911241Y-72081351D01*
X186884257Y-72075984D01*
X186748600Y-72049000D01*
X182058876Y-72049000D01*
X182057994Y-72047681D01*
X182284814Y-71843224D01*
X182437554Y-71519849D01*
X182369747Y-71426000D01*
X189016600Y-71426000D01*
X189016600Y-72090938D01*
X189109162Y-72314404D01*
X189280195Y-72485437D01*
X189503661Y-72578000D01*
X190110213Y-72578000D01*
X190011984Y-72597539D01*
X189638897Y-72846827D01*
X189389609Y-73219914D01*
X189302070Y-73660000D01*
X189389609Y-74100086D01*
X189638897Y-74473173D01*
X190011984Y-74722461D01*
X190452070Y-74810000D01*
X190497130Y-74810000D01*
X190937216Y-74722461D01*
X191310303Y-74473173D01*
X191559591Y-74100086D01*
X191647130Y-73660000D01*
X191559591Y-73219914D01*
X191310303Y-72846827D01*
X190937216Y-72597539D01*
X190838987Y-72578000D01*
X191445539Y-72578000D01*
X191669005Y-72485437D01*
X191840038Y-72314404D01*
X191932600Y-72090938D01*
X191932600Y-71426000D01*
X191780600Y-71274000D01*
X190628600Y-71274000D01*
X190628600Y-71294000D01*
X190320600Y-71294000D01*
X190320600Y-71274000D01*
X189168600Y-71274000D01*
X189016600Y-71426000D01*
X182369747Y-71426000D01*
X182320616Y-71358000D01*
X180781800Y-71358000D01*
X180781800Y-71378000D01*
X180473800Y-71378000D01*
X180473800Y-71358000D01*
X178934984Y-71358000D01*
X178818046Y-71519849D01*
X178970786Y-71843224D01*
X179197606Y-72047681D01*
X179104524Y-72186987D01*
X179047434Y-72474000D01*
X179104524Y-72761013D01*
X179267104Y-73004330D01*
X179423753Y-73109000D01*
X179267104Y-73213670D01*
X179104524Y-73456987D01*
X179047434Y-73744000D01*
X179104524Y-74031013D01*
X179267104Y-74274330D01*
X179423753Y-74379000D01*
X179267104Y-74483670D01*
X179104524Y-74726987D01*
X179047434Y-75014000D01*
X179104524Y-75301013D01*
X179267104Y-75544330D01*
X179423753Y-75649000D01*
X179267104Y-75753670D01*
X179104524Y-75996987D01*
X179047434Y-76284000D01*
X179104524Y-76571013D01*
X179267104Y-76814330D01*
X179423753Y-76919000D01*
X179267104Y-77023670D01*
X179104524Y-77266987D01*
X179047434Y-77554000D01*
X179104524Y-77841013D01*
X179267104Y-78084330D01*
X179423753Y-78189000D01*
X179267104Y-78293670D01*
X179104524Y-78536987D01*
X179047434Y-78824000D01*
X179104524Y-79111013D01*
X179267104Y-79354330D01*
X179423753Y-79459000D01*
X179267104Y-79563670D01*
X179104524Y-79806987D01*
X179047434Y-80094000D01*
X179104524Y-80381013D01*
X179267104Y-80624330D01*
X179423753Y-80729000D01*
X179267104Y-80833670D01*
X179104524Y-81076987D01*
X179047434Y-81364000D01*
X179104524Y-81651013D01*
X179267104Y-81894330D01*
X179423753Y-81999000D01*
X179267104Y-82103670D01*
X179104524Y-82346987D01*
X179047434Y-82634000D01*
X179104524Y-82921013D01*
X179267104Y-83164330D01*
X179423753Y-83269000D01*
X179267104Y-83373670D01*
X179104524Y-83616987D01*
X179047434Y-83904000D01*
X179104524Y-84191013D01*
X179267104Y-84434330D01*
X179423753Y-84539000D01*
X179267104Y-84643670D01*
X179104524Y-84886987D01*
X179047434Y-85174000D01*
X179104524Y-85461013D01*
X179267104Y-85704330D01*
X179423753Y-85809000D01*
X179267104Y-85913670D01*
X179104524Y-86156987D01*
X179047434Y-86444000D01*
X179104524Y-86731013D01*
X179267104Y-86974330D01*
X179423753Y-87079000D01*
X179267104Y-87183670D01*
X179196724Y-87289000D01*
X179196650Y-87289000D01*
X179181717Y-87274041D01*
X178961271Y-87182504D01*
X178722576Y-87182296D01*
X178501971Y-87273448D01*
X178333041Y-87442083D01*
X178241504Y-87662529D01*
X178241296Y-87901224D01*
X178332448Y-88121829D01*
X178501083Y-88290759D01*
X178721529Y-88382296D01*
X178960224Y-88382504D01*
X179180829Y-88291352D01*
X179251431Y-88220873D01*
X179267104Y-88244330D01*
X179510421Y-88406910D01*
X179797434Y-88464000D01*
X181458166Y-88464000D01*
X181745179Y-88406910D01*
X181988496Y-88244330D01*
X182058876Y-88139000D01*
X184649358Y-88139000D01*
X185680800Y-89170442D01*
X185680800Y-90051161D01*
X184533118Y-88903480D01*
X184395239Y-88811351D01*
X184368255Y-88805984D01*
X184232598Y-88779000D01*
X178092800Y-88779000D01*
X178092800Y-88373634D01*
X178035710Y-88086621D01*
X177873130Y-87843304D01*
X177629813Y-87680724D01*
X177342800Y-87623634D01*
X177055787Y-87680724D01*
X176812470Y-87843304D01*
X176707800Y-87999953D01*
X176603130Y-87843304D01*
X176359813Y-87680724D01*
X176072800Y-87623634D01*
X175785787Y-87680724D01*
X175542470Y-87843304D01*
X175437800Y-87999953D01*
X175333130Y-87843304D01*
X175089813Y-87680724D01*
X174802800Y-87623634D01*
X174515787Y-87680724D01*
X174272470Y-87843304D01*
X174167800Y-87999953D01*
X174063130Y-87843304D01*
X173819813Y-87680724D01*
X173532800Y-87623634D01*
X173245787Y-87680724D01*
X173002470Y-87843304D01*
X172897800Y-87999953D01*
X172793130Y-87843304D01*
X172549813Y-87680724D01*
X172262800Y-87623634D01*
X171975787Y-87680724D01*
X171732470Y-87843304D01*
X171627800Y-87999953D01*
X171523130Y-87843304D01*
X171279813Y-87680724D01*
X170992800Y-87623634D01*
X170705787Y-87680724D01*
X170462470Y-87843304D01*
X170357800Y-87999953D01*
X170253130Y-87843304D01*
X170009813Y-87680724D01*
X169722800Y-87623634D01*
X169435787Y-87680724D01*
X169192470Y-87843304D01*
X169087800Y-87999953D01*
X168983130Y-87843304D01*
X168739813Y-87680724D01*
X168452800Y-87623634D01*
X168165787Y-87680724D01*
X167922470Y-87843304D01*
X167817800Y-87999953D01*
X167713130Y-87843304D01*
X167469813Y-87680724D01*
X167182800Y-87623634D01*
X166895787Y-87680724D01*
X166756481Y-87773806D01*
X166552024Y-87546986D01*
X166228649Y-87394246D01*
X166066800Y-87511184D01*
X166066800Y-89050000D01*
X166086800Y-89050000D01*
X166086800Y-89358000D01*
X166066800Y-89358000D01*
X166066800Y-89378000D01*
X165758800Y-89378000D01*
X165758800Y-89358000D01*
X164854800Y-89358000D01*
X164854800Y-90158000D01*
X164994269Y-90551157D01*
X165273576Y-90861014D01*
X165596951Y-91013754D01*
X165758798Y-90896817D01*
X165758798Y-91015000D01*
X158013400Y-91015000D01*
X157850759Y-91047351D01*
X157712880Y-91139479D01*
X157117600Y-91734760D01*
X157117600Y-89330040D01*
X158308641Y-88139000D01*
X161196724Y-88139000D01*
X161267104Y-88244330D01*
X161510421Y-88406910D01*
X161797434Y-88464000D01*
X163458166Y-88464000D01*
X163745179Y-88406910D01*
X163980010Y-88250000D01*
X164854800Y-88250000D01*
X164854800Y-89050000D01*
X165758800Y-89050000D01*
X165758800Y-87511184D01*
X165596951Y-87394246D01*
X165273576Y-87546986D01*
X164994269Y-87856843D01*
X164854800Y-88250000D01*
X163980010Y-88250000D01*
X163988496Y-88244330D01*
X164151076Y-88001013D01*
X164208166Y-87714000D01*
X164151076Y-87426987D01*
X163988496Y-87183670D01*
X163831847Y-87079000D01*
X163988496Y-86974330D01*
X164151076Y-86731013D01*
X164208166Y-86444000D01*
X164151076Y-86156987D01*
X163988496Y-85913670D01*
X163831847Y-85809000D01*
X163988496Y-85704330D01*
X164151076Y-85461013D01*
X164208166Y-85174000D01*
X164151076Y-84886987D01*
X163988496Y-84643670D01*
X163831847Y-84539000D01*
X163988496Y-84434330D01*
X164151076Y-84191013D01*
X164208166Y-83904000D01*
X164151076Y-83616987D01*
X163988496Y-83373670D01*
X163831847Y-83269000D01*
X163988496Y-83164330D01*
X164151076Y-82921013D01*
X164208166Y-82634000D01*
X164151076Y-82346987D01*
X163988496Y-82103670D01*
X163831847Y-81999000D01*
X163988496Y-81894330D01*
X164151076Y-81651013D01*
X164208166Y-81364000D01*
X164151076Y-81076987D01*
X163988496Y-80833670D01*
X163831847Y-80729000D01*
X163988496Y-80624330D01*
X164151076Y-80381013D01*
X164208166Y-80094000D01*
X164151076Y-79806987D01*
X163988496Y-79563670D01*
X163831847Y-79459000D01*
X163988496Y-79354330D01*
X164084934Y-79210000D01*
X167719800Y-79210000D01*
X167719800Y-82024938D01*
X167812362Y-82248404D01*
X167983395Y-82419437D01*
X168206861Y-82512000D01*
X171021800Y-82512000D01*
X171173800Y-82360000D01*
X171173800Y-79058000D01*
X171481800Y-79058000D01*
X171481800Y-82360000D01*
X171633800Y-82512000D01*
X174448739Y-82512000D01*
X174672205Y-82419437D01*
X174843238Y-82248404D01*
X174935800Y-82024938D01*
X174935800Y-79210000D01*
X174783800Y-79058000D01*
X171481800Y-79058000D01*
X171173800Y-79058000D01*
X167871800Y-79058000D01*
X167719800Y-79210000D01*
X164084934Y-79210000D01*
X164151076Y-79111013D01*
X164208166Y-78824000D01*
X164151076Y-78536987D01*
X163988496Y-78293670D01*
X163831847Y-78189000D01*
X163988496Y-78084330D01*
X164151076Y-77841013D01*
X164208166Y-77554000D01*
X164151076Y-77266987D01*
X163988496Y-77023670D01*
X163831847Y-76919000D01*
X163988496Y-76814330D01*
X164151076Y-76571013D01*
X164208166Y-76284000D01*
X164151076Y-75996987D01*
X163988496Y-75753670D01*
X163831847Y-75649000D01*
X163988496Y-75544330D01*
X164151076Y-75301013D01*
X164208166Y-75014000D01*
X164151076Y-74726987D01*
X163988496Y-74483670D01*
X163831847Y-74379000D01*
X163988496Y-74274330D01*
X164058876Y-74169000D01*
X164271360Y-74169000D01*
X165439799Y-75337439D01*
X165439696Y-75455224D01*
X165530848Y-75675829D01*
X165699483Y-75844759D01*
X165919929Y-75936296D01*
X166158624Y-75936504D01*
X166379229Y-75845352D01*
X166441627Y-75783062D01*
X167719800Y-75783062D01*
X167719800Y-78598000D01*
X167871800Y-78750000D01*
X171173800Y-78750000D01*
X171173800Y-75448000D01*
X171481800Y-75448000D01*
X171481800Y-78750000D01*
X174783800Y-78750000D01*
X174935800Y-78598000D01*
X174935800Y-75783062D01*
X174843238Y-75559596D01*
X174672205Y-75388563D01*
X174448739Y-75296000D01*
X171633800Y-75296000D01*
X171481800Y-75448000D01*
X171173800Y-75448000D01*
X171021800Y-75296000D01*
X168206861Y-75296000D01*
X167983395Y-75388563D01*
X167812362Y-75559596D01*
X167719800Y-75783062D01*
X166441627Y-75783062D01*
X166548159Y-75676717D01*
X166639696Y-75456271D01*
X166639904Y-75217576D01*
X166548752Y-74996971D01*
X166380117Y-74828041D01*
X166159671Y-74736504D01*
X166040841Y-74736400D01*
X164747920Y-73443480D01*
X164610041Y-73351351D01*
X164583057Y-73345984D01*
X164447400Y-73319000D01*
X164058876Y-73319000D01*
X163988496Y-73213670D01*
X163831847Y-73109000D01*
X163988496Y-73004330D01*
X164058876Y-72899000D01*
X164805753Y-72899000D01*
X164819648Y-72932629D01*
X164988283Y-73101559D01*
X165208729Y-73193096D01*
X165447424Y-73193304D01*
X165668029Y-73102152D01*
X165836959Y-72933517D01*
X165928496Y-72713071D01*
X165928704Y-72474376D01*
X165837552Y-72253771D01*
X165668917Y-72084841D01*
X165448471Y-71993304D01*
X165209776Y-71993096D01*
X165074478Y-72049000D01*
X164058876Y-72049000D01*
X164057994Y-72047681D01*
X164284814Y-71843224D01*
X164437554Y-71519849D01*
X164320616Y-71358000D01*
X162781800Y-71358000D01*
X162781800Y-71378000D01*
X162473800Y-71378000D01*
X162473800Y-71358000D01*
X160934984Y-71358000D01*
X160818046Y-71519849D01*
X160970786Y-71843224D01*
X161197606Y-72047681D01*
X161196724Y-72049000D01*
X153858000Y-72049000D01*
X153858000Y-71426000D01*
X153706000Y-71274000D01*
X152554000Y-71274000D01*
X152554000Y-71294000D01*
X152246000Y-71294000D01*
X152246000Y-71274000D01*
X151094000Y-71274000D01*
X150942000Y-71426000D01*
X150235000Y-71426000D01*
X150235000Y-69848400D01*
X151111758Y-69848400D01*
X151034562Y-69925596D01*
G36*
X176168200Y-116371000D02*
X176212323Y-116371000D01*
X176212323Y-116679000D01*
X176168200Y-116679000D01*
X176168200Y-116699000D01*
X175968200Y-116699000D01*
X175968200Y-116679000D01*
X175894200Y-116679000D01*
X175894200Y-116576000D01*
X175926200Y-116544000D01*
X175926200Y-116371000D01*
X175968200Y-116371000D01*
X175968200Y-116351000D01*
X176168200Y-116351000D01*
X176168200Y-116371000D01*
X176168200Y-116371000D01*
G37*
X176168200Y-116371000D02*
X176212323Y-116371000D01*
X176212323Y-116679000D01*
X176168200Y-116679000D01*
X176168200Y-116699000D01*
X175968200Y-116699000D01*
X175968200Y-116679000D01*
X175894200Y-116679000D01*
X175894200Y-116576000D01*
X175926200Y-116544000D01*
X175926200Y-116371000D01*
X175968200Y-116371000D01*
X175968200Y-116351000D01*
X176168200Y-116351000D01*
X176168200Y-116371000D01*
G36*
X177809588Y-102347346D02*
X177846000Y-102354589D01*
X177846000Y-102858400D01*
X177869830Y-102978200D01*
X177878351Y-103021041D01*
X177970480Y-103158920D01*
X177993680Y-103182121D01*
X178131559Y-103274249D01*
X178294200Y-103306600D01*
X178796000Y-103306600D01*
X178796000Y-104244759D01*
X178462160Y-104578600D01*
X178401330Y-104578600D01*
X178318117Y-104495241D01*
X178097671Y-104403704D01*
X177858976Y-104403496D01*
X177742400Y-104451664D01*
X177742400Y-102302452D01*
X177809588Y-102347346D01*
X177809588Y-102347346D01*
G37*
X177809588Y-102347346D02*
X177846000Y-102354589D01*
X177846000Y-102858400D01*
X177869830Y-102978200D01*
X177878351Y-103021041D01*
X177970480Y-103158920D01*
X177993680Y-103182121D01*
X178131559Y-103274249D01*
X178294200Y-103306600D01*
X178796000Y-103306600D01*
X178796000Y-104244759D01*
X178462160Y-104578600D01*
X178401330Y-104578600D01*
X178318117Y-104495241D01*
X178097671Y-104403704D01*
X177858976Y-104403496D01*
X177742400Y-104451664D01*
X177742400Y-102302452D01*
X177809588Y-102347346D01*
G36*
X180037500Y-99440100D02*
X181404500Y-99440100D01*
X181404500Y-99420100D01*
X181712500Y-99420100D01*
X181712500Y-99440100D01*
X181732500Y-99440100D01*
X181732500Y-99748100D01*
X181712500Y-99748100D01*
X181712500Y-101115100D01*
X181732500Y-101115100D01*
X181732500Y-101423100D01*
X181712500Y-101423100D01*
X181712500Y-101443100D01*
X181404500Y-101443100D01*
X181404500Y-101423100D01*
X180037500Y-101423100D01*
X180037500Y-101443100D01*
X179729500Y-101443100D01*
X179729500Y-101423100D01*
X179709500Y-101423100D01*
X179709500Y-101115100D01*
X179729500Y-101115100D01*
X179729500Y-99748100D01*
X180037500Y-99748100D01*
X180037500Y-101115100D01*
X181404500Y-101115100D01*
X181404500Y-99748100D01*
X180037500Y-99748100D01*
X179729500Y-99748100D01*
X179709500Y-99748100D01*
X179709500Y-99440100D01*
X179729500Y-99440100D01*
X179729500Y-99420100D01*
X180037500Y-99420100D01*
X180037500Y-99440100D01*
X180037500Y-99440100D01*
G37*
X180037500Y-99440100D02*
X181404500Y-99440100D01*
X181404500Y-99420100D01*
X181712500Y-99420100D01*
X181712500Y-99440100D01*
X181732500Y-99440100D01*
X181732500Y-99748100D01*
X181712500Y-99748100D01*
X181712500Y-101115100D01*
X181732500Y-101115100D01*
X181732500Y-101423100D01*
X181712500Y-101423100D01*
X181712500Y-101443100D01*
X181404500Y-101443100D01*
X181404500Y-101423100D01*
X180037500Y-101423100D01*
X180037500Y-101443100D01*
X179729500Y-101443100D01*
X179729500Y-101423100D01*
X179709500Y-101423100D01*
X179709500Y-101115100D01*
X179729500Y-101115100D01*
X179729500Y-99748100D01*
X180037500Y-99748100D01*
X180037500Y-101115100D01*
X181404500Y-101115100D01*
X181404500Y-99748100D01*
X180037500Y-99748100D01*
X179729500Y-99748100D01*
X179709500Y-99748100D01*
X179709500Y-99440100D01*
X179729500Y-99440100D01*
X179729500Y-99420100D01*
X180037500Y-99420100D01*
X180037500Y-99440100D01*
G36*
X166363800Y-110986200D02*
X166407923Y-110986200D01*
X166407923Y-111294200D01*
X166363800Y-111294200D01*
X166363800Y-111314200D01*
X166163800Y-111314200D01*
X166163800Y-111294200D01*
X166089800Y-111294200D01*
X166089800Y-111191200D01*
X166121800Y-111159200D01*
X166121800Y-110986200D01*
X166163800Y-110986200D01*
X166163800Y-110966200D01*
X166363800Y-110966200D01*
X166363800Y-110986200D01*
X166363800Y-110986200D01*
G37*
X166363800Y-110986200D02*
X166407923Y-110986200D01*
X166407923Y-111294200D01*
X166363800Y-111294200D01*
X166363800Y-111314200D01*
X166163800Y-111314200D01*
X166163800Y-111294200D01*
X166089800Y-111294200D01*
X166089800Y-111191200D01*
X166121800Y-111159200D01*
X166121800Y-110986200D01*
X166163800Y-110986200D01*
X166163800Y-110966200D01*
X166363800Y-110966200D01*
X166363800Y-110986200D01*
G36*
X185172800Y-90745243D02*
X185172800Y-92141159D01*
X184679120Y-91647480D01*
X184541241Y-91555351D01*
X184514257Y-91549984D01*
X184378600Y-91523000D01*
X178052241Y-91523000D01*
X177306358Y-90777117D01*
X177342800Y-90784366D01*
X177629813Y-90727276D01*
X177873130Y-90564696D01*
X178035710Y-90321379D01*
X178092800Y-90034366D01*
X178092800Y-89629000D01*
X184056558Y-89629000D01*
X185172800Y-90745243D01*
X185172800Y-90745243D01*
G37*
X185172800Y-90745243D02*
X185172800Y-92141159D01*
X184679120Y-91647480D01*
X184541241Y-91555351D01*
X184514257Y-91549984D01*
X184378600Y-91523000D01*
X178052241Y-91523000D01*
X177306358Y-90777117D01*
X177342800Y-90784366D01*
X177629813Y-90727276D01*
X177873130Y-90564696D01*
X178035710Y-90321379D01*
X178092800Y-90034366D01*
X178092800Y-89629000D01*
X184056558Y-89629000D01*
X185172800Y-90745243D01*
M02*
