G04 #@! TF.FileFunction,Copper,L2,Bot,Signal*
%FSLAX46Y46*%
G04 Gerber Fmt 4.6, Leading zero omitted, Abs format (unit mm)*
G04 Created by KiCad (PCBNEW 4.0.6-e0-6349~52~ubuntu16.10.1) date Sat Mar  4 22:51:03 2017*
%MOMM*%
%LPD*%
G01*
G04 APERTURE LIST*
%ADD10C,0.100000*%
%ADD11R,0.650000X1.050000*%
%ADD12R,0.800000X0.800000*%
%ADD13R,1.700000X1.700000*%
%ADD14O,1.700000X1.700000*%
%ADD15C,0.600000*%
%ADD16C,0.250000*%
%ADD17C,0.200000*%
G04 APERTURE END LIST*
D10*
D11*
X160333000Y-120947000D03*
X160333000Y-116797000D03*
X158183000Y-120947000D03*
X158183000Y-116797000D03*
D12*
X167170000Y-118364000D03*
X165570000Y-118364000D03*
D13*
X152400000Y-71120000D03*
D14*
X152400000Y-73660000D03*
X152400000Y-76200000D03*
X152400000Y-78740000D03*
X152400000Y-81280000D03*
X152400000Y-83820000D03*
X152400000Y-86360000D03*
X152400000Y-88900000D03*
X152400000Y-91440000D03*
X152400000Y-93980000D03*
X152400000Y-96520000D03*
X152400000Y-99060000D03*
X152400000Y-101600000D03*
X152400000Y-104140000D03*
X152400000Y-106680000D03*
X152400000Y-109220000D03*
X152400000Y-111760000D03*
D11*
X185225000Y-120947000D03*
X185225000Y-116797000D03*
X183075000Y-120947000D03*
X183075000Y-116797000D03*
D13*
X190500000Y-71120000D03*
D14*
X190500000Y-73660000D03*
X190500000Y-76200000D03*
X190500000Y-78740000D03*
X190500000Y-81280000D03*
X190500000Y-83820000D03*
X190500000Y-86360000D03*
X190500000Y-88900000D03*
X190500000Y-91440000D03*
X190500000Y-93980000D03*
X190500000Y-96520000D03*
X190500000Y-99060000D03*
X190500000Y-101600000D03*
X190500000Y-104140000D03*
X190500000Y-106680000D03*
X190500000Y-109220000D03*
X190500000Y-111760000D03*
X190500000Y-114300000D03*
D15*
X175958500Y-108458000D03*
X180213000Y-104203500D03*
X176149000Y-104140000D03*
X180276500Y-109283500D03*
X164592000Y-101219000D03*
X155829000Y-109728000D03*
X164973000Y-69469000D03*
X159639000Y-118554500D03*
X161798000Y-118491000D03*
X187134500Y-106235500D03*
X184150000Y-106172000D03*
X183075000Y-119443500D03*
X179578000Y-101854000D03*
X182626000Y-101854000D03*
X172466000Y-97028000D03*
X159131000Y-100965000D03*
X162433000Y-100711000D03*
X161163000Y-93980000D03*
X186690000Y-104267000D03*
X185420000Y-97790000D03*
X168021000Y-100711000D03*
X163957000Y-92202000D03*
X164846000Y-91186000D03*
X166878000Y-97282000D03*
X166243000Y-94615000D03*
X166243000Y-89789000D03*
X163449000Y-97663000D03*
X163322000Y-94107000D03*
X161417000Y-99441000D03*
X161417000Y-97155000D03*
X183515000Y-108585000D03*
X178816000Y-97155000D03*
X172974000Y-74041000D03*
X172847000Y-89154000D03*
X178689000Y-73914000D03*
X179197000Y-89979500D03*
X176784000Y-115252500D03*
X168021000Y-95631000D03*
X161544000Y-80899000D03*
X159639000Y-75819000D03*
X159639000Y-77216000D03*
X159385000Y-78486000D03*
X159512000Y-79629000D03*
X159639000Y-81026000D03*
X188785500Y-108712000D03*
X187833000Y-100076000D03*
X185737500Y-91567000D03*
X187071000Y-99504500D03*
X184848500Y-91567000D03*
X172466000Y-95250000D03*
X172466000Y-93472000D03*
X175577500Y-100139500D03*
X174498000Y-95123000D03*
X172593000Y-92456000D03*
X171323000Y-92837000D03*
X175133000Y-90424000D03*
X169164000Y-91948000D03*
X175641000Y-86360000D03*
X171323000Y-100203000D03*
X179324000Y-111760000D03*
X184594500Y-111696500D03*
D16*
X164592000Y-101219000D02*
X165798500Y-101219000D01*
X173037500Y-108458000D02*
X175958500Y-108458000D01*
X165798500Y-101219000D02*
X173037500Y-108458000D01*
X176212500Y-104203500D02*
X180213000Y-104203500D01*
X176149000Y-104140000D02*
X176212500Y-104203500D01*
X187960000Y-109220000D02*
X187960000Y-101346000D01*
X188595000Y-75565000D02*
X190500000Y-73660000D01*
X188595000Y-100711000D02*
X188595000Y-75565000D01*
X187960000Y-101346000D02*
X188595000Y-100711000D01*
X180276500Y-109283500D02*
X180340000Y-109220000D01*
X180340000Y-109220000D02*
X187960000Y-109220000D01*
X187960000Y-109220000D02*
X190500000Y-111760000D01*
X164592000Y-104394000D02*
X164592000Y-101219000D01*
X164338000Y-104648000D02*
X164592000Y-104394000D01*
X160909000Y-104648000D02*
X164338000Y-104648000D01*
X155829000Y-109728000D02*
X160909000Y-104648000D01*
X190500000Y-73660000D02*
X190373000Y-73660000D01*
X164973000Y-69469000D02*
X165100000Y-69596000D01*
X165100000Y-69596000D02*
X186436000Y-69596000D01*
X186436000Y-69596000D02*
X190500000Y-73660000D01*
X165570000Y-118364000D02*
X161925000Y-118364000D01*
X159639000Y-118554500D02*
X158183000Y-117098500D01*
X161925000Y-118364000D02*
X161798000Y-118491000D01*
X158183000Y-117098500D02*
X158183000Y-116797000D01*
X165570000Y-118364000D02*
X165570000Y-118453000D01*
X165570000Y-118453000D02*
X166306500Y-119189500D01*
X166306500Y-119189500D02*
X182821000Y-119189500D01*
X182821000Y-119189500D02*
X183075000Y-119443500D01*
X187134500Y-106235500D02*
X187071000Y-106172000D01*
X187071000Y-106172000D02*
X184150000Y-106172000D01*
X183075000Y-116797000D02*
X183075000Y-119443500D01*
X183075000Y-119443500D02*
X183075000Y-120947000D01*
X158183000Y-120947000D02*
X158183000Y-116797000D01*
X158183000Y-116797000D02*
X154686000Y-113300000D01*
X154686000Y-113300000D02*
X154686000Y-111506000D01*
X154686000Y-111506000D02*
X152400000Y-109220000D01*
X182626000Y-101854000D02*
X179578000Y-101854000D01*
X162433000Y-100711000D02*
X163322000Y-100711000D01*
X170434000Y-99060000D02*
X172466000Y-97028000D01*
X170434000Y-100330000D02*
X170434000Y-99060000D01*
X168910000Y-101854000D02*
X170434000Y-100330000D01*
X167513000Y-101854000D02*
X168910000Y-101854000D01*
X165735000Y-100076000D02*
X167513000Y-101854000D01*
X163957000Y-100076000D02*
X165735000Y-100076000D01*
X163322000Y-100711000D02*
X163957000Y-100076000D01*
X162433000Y-100711000D02*
X159385000Y-100711000D01*
X159385000Y-100711000D02*
X159131000Y-100965000D01*
X162433000Y-95250000D02*
X162433000Y-100711000D01*
X161163000Y-93980000D02*
X162433000Y-95250000D01*
X152400000Y-70485000D02*
X151765000Y-70485000D01*
X186690000Y-104267000D02*
X185420000Y-102997000D01*
X185420000Y-102997000D02*
X185420000Y-97790000D01*
X164211000Y-96901000D02*
X168021000Y-100711000D01*
X164211000Y-92456000D02*
X164211000Y-96901000D01*
X163957000Y-92202000D02*
X164211000Y-92456000D01*
X164846000Y-91186000D02*
X164846000Y-95885000D01*
X164846000Y-95885000D02*
X166243000Y-97282000D01*
X166243000Y-97282000D02*
X166878000Y-97282000D01*
X166243000Y-89789000D02*
X166243000Y-94615000D01*
X163449000Y-94234000D02*
X163449000Y-97663000D01*
X163322000Y-94107000D02*
X163449000Y-94234000D01*
X161417000Y-97155000D02*
X161417000Y-99441000D01*
X178816000Y-97155000D02*
X183515000Y-101854000D01*
X183515000Y-101854000D02*
X183515000Y-108585000D01*
X172974000Y-74041000D02*
X172847000Y-74168000D01*
X172847000Y-74168000D02*
X172847000Y-89154000D01*
X178689000Y-88265000D02*
X178689000Y-73914000D01*
X179197000Y-89979500D02*
X178689000Y-88265000D01*
X176784000Y-115252500D02*
X184721500Y-115252500D01*
X184721500Y-115252500D02*
X185225000Y-115756000D01*
X185225000Y-115756000D02*
X185225000Y-116797000D01*
X185225000Y-116797000D02*
X185225000Y-120947000D01*
X168021000Y-87376000D02*
X168021000Y-95631000D01*
X161544000Y-80899000D02*
X168021000Y-87376000D01*
X152400000Y-86360000D02*
X153162000Y-86360000D01*
X153162000Y-86360000D02*
X156337000Y-83185000D01*
X156337000Y-83185000D02*
X156337000Y-79121000D01*
X156337000Y-79121000D02*
X159639000Y-75819000D01*
X152400000Y-88900000D02*
X154686000Y-88900000D01*
X156972000Y-79883000D02*
X159639000Y-77216000D01*
X156972000Y-86614000D02*
X156972000Y-79883000D01*
X154686000Y-88900000D02*
X156972000Y-86614000D01*
X152400000Y-91440000D02*
X154813000Y-91440000D01*
X157607000Y-80264000D02*
X159385000Y-78486000D01*
X157607000Y-88646000D02*
X157607000Y-80264000D01*
X154813000Y-91440000D02*
X157607000Y-88646000D01*
X152400000Y-93980000D02*
X154305000Y-93980000D01*
X158242000Y-80899000D02*
X159512000Y-79629000D01*
X158242000Y-90043000D02*
X158242000Y-80899000D01*
X154305000Y-93980000D02*
X158242000Y-90043000D01*
X159639000Y-91059000D02*
X159639000Y-81026000D01*
X154178000Y-96520000D02*
X159639000Y-91059000D01*
X152400000Y-96520000D02*
X154178000Y-96520000D01*
X190500000Y-104140000D02*
X190500000Y-104267000D01*
X190500000Y-104267000D02*
X188785500Y-105981500D01*
X188785500Y-105981500D02*
X188785500Y-108712000D01*
X187833000Y-93662500D02*
X187833000Y-100076000D01*
X185737500Y-91567000D02*
X187833000Y-93662500D01*
X187071000Y-93789500D02*
X187071000Y-99504500D01*
X184848500Y-91567000D02*
X187071000Y-93789500D01*
X172466000Y-93472000D02*
X172466000Y-95250000D01*
X174498000Y-95123000D02*
X174498000Y-99060000D01*
X174498000Y-99060000D02*
X175577500Y-100139500D01*
X174498000Y-94361000D02*
X174498000Y-95123000D01*
X172593000Y-92456000D02*
X174498000Y-94361000D01*
X173101000Y-91059000D02*
X171323000Y-92837000D01*
X174498000Y-91059000D02*
X173101000Y-91059000D01*
X175133000Y-90424000D02*
X174498000Y-91059000D01*
X169164000Y-91059000D02*
X169164000Y-91948000D01*
X169926000Y-90297000D02*
X169164000Y-91059000D01*
X172720000Y-90297000D02*
X169926000Y-90297000D01*
X175514000Y-87503000D02*
X172720000Y-90297000D01*
X175514000Y-86487000D02*
X175514000Y-87503000D01*
X175641000Y-86360000D02*
X175514000Y-86487000D01*
X179324000Y-110109000D02*
X179324000Y-111760000D01*
X172466000Y-103251000D02*
X179324000Y-110109000D01*
X172466000Y-101346000D02*
X172466000Y-103251000D01*
X171323000Y-100203000D02*
X172466000Y-101346000D01*
X160333000Y-116797000D02*
X160333000Y-116209500D01*
X164782500Y-111760000D02*
X179324000Y-111760000D01*
X160333000Y-116209500D02*
X164782500Y-111760000D01*
X160333000Y-116797000D02*
X160333000Y-120947000D01*
X171107000Y-114427000D02*
X167170000Y-118364000D01*
X179260500Y-114427000D02*
X171107000Y-114427000D01*
X181991000Y-111696500D02*
X179260500Y-114427000D01*
X184594500Y-111696500D02*
X181991000Y-111696500D01*
X167170000Y-118364000D02*
X167170000Y-118402000D01*
D17*
G36*
X176275641Y-114912183D02*
X176184104Y-115132629D01*
X176183896Y-115371324D01*
X176275048Y-115591929D01*
X176443683Y-115760859D01*
X176664129Y-115852396D01*
X176902824Y-115852604D01*
X177123429Y-115761452D01*
X177207528Y-115677500D01*
X182596470Y-115677500D01*
X182405596Y-115756562D01*
X182234563Y-115927595D01*
X182142000Y-116151061D01*
X182142000Y-116491000D01*
X182294000Y-116643000D01*
X182921000Y-116643000D01*
X182921000Y-116623000D01*
X183229000Y-116623000D01*
X183229000Y-116643000D01*
X183856000Y-116643000D01*
X184008000Y-116491000D01*
X184008000Y-116151061D01*
X183915437Y-115927595D01*
X183744404Y-115756562D01*
X183553530Y-115677500D01*
X184545460Y-115677500D01*
X184800000Y-115932041D01*
X184800000Y-115984940D01*
X184788827Y-115987042D01*
X184686721Y-116052745D01*
X184618222Y-116152997D01*
X184594123Y-116272000D01*
X184594123Y-117322000D01*
X184615042Y-117433173D01*
X184680745Y-117535279D01*
X184780997Y-117603778D01*
X184800000Y-117607626D01*
X184800000Y-120134940D01*
X184788827Y-120137042D01*
X184686721Y-120202745D01*
X184618222Y-120302997D01*
X184594123Y-120422000D01*
X184594123Y-121472000D01*
X184615042Y-121583173D01*
X184656849Y-121648144D01*
X184646835Y-121654835D01*
X184565545Y-121776494D01*
X184537000Y-121920000D01*
X184542371Y-121947000D01*
X183784842Y-121947000D01*
X183915437Y-121816405D01*
X184008000Y-121592939D01*
X184008000Y-121253000D01*
X183856000Y-121101000D01*
X183229000Y-121101000D01*
X183229000Y-121121000D01*
X182921000Y-121121000D01*
X182921000Y-121101000D01*
X182901000Y-121101000D01*
X182901000Y-120793000D01*
X182921000Y-120793000D01*
X182921000Y-119966000D01*
X183229000Y-119966000D01*
X183229000Y-120793000D01*
X183856000Y-120793000D01*
X184008000Y-120641000D01*
X184008000Y-120301061D01*
X183915437Y-120077595D01*
X183744404Y-119906562D01*
X183520938Y-119814000D01*
X183381000Y-119814000D01*
X183229000Y-119966000D01*
X182921000Y-119966000D01*
X182769000Y-119814000D01*
X182629062Y-119814000D01*
X182405596Y-119906562D01*
X182234563Y-120077595D01*
X182142000Y-120301061D01*
X182142000Y-120641000D01*
X182293998Y-120792998D01*
X182142000Y-120792998D01*
X182142000Y-120905670D01*
X181875165Y-120638835D01*
X181753507Y-120557545D01*
X181610000Y-120529000D01*
X173129330Y-120529000D01*
X171969165Y-119368835D01*
X171847507Y-119287545D01*
X171704000Y-119259000D01*
X166334842Y-119259000D01*
X166485438Y-119108404D01*
X166544057Y-118966885D01*
X166550745Y-118977279D01*
X166650997Y-119045778D01*
X166770000Y-119069877D01*
X167570000Y-119069877D01*
X167681173Y-119048958D01*
X167783279Y-118983255D01*
X167851778Y-118883003D01*
X167875877Y-118764000D01*
X167875877Y-118259163D01*
X169032040Y-117103000D01*
X182142000Y-117103000D01*
X182142000Y-117442939D01*
X182234563Y-117666405D01*
X182405596Y-117837438D01*
X182629062Y-117930000D01*
X182769000Y-117930000D01*
X182921000Y-117778000D01*
X182921000Y-116951000D01*
X183229000Y-116951000D01*
X183229000Y-117778000D01*
X183381000Y-117930000D01*
X183520938Y-117930000D01*
X183744404Y-117837438D01*
X183915437Y-117666405D01*
X184008000Y-117442939D01*
X184008000Y-117103000D01*
X183856000Y-116951000D01*
X183229000Y-116951000D01*
X182921000Y-116951000D01*
X182294000Y-116951000D01*
X182142000Y-117103000D01*
X169032040Y-117103000D01*
X171283041Y-114852000D01*
X176335929Y-114852000D01*
X176275641Y-114912183D01*
X176275641Y-114912183D01*
G37*
X176275641Y-114912183D02*
X176184104Y-115132629D01*
X176183896Y-115371324D01*
X176275048Y-115591929D01*
X176443683Y-115760859D01*
X176664129Y-115852396D01*
X176902824Y-115852604D01*
X177123429Y-115761452D01*
X177207528Y-115677500D01*
X182596470Y-115677500D01*
X182405596Y-115756562D01*
X182234563Y-115927595D01*
X182142000Y-116151061D01*
X182142000Y-116491000D01*
X182294000Y-116643000D01*
X182921000Y-116643000D01*
X182921000Y-116623000D01*
X183229000Y-116623000D01*
X183229000Y-116643000D01*
X183856000Y-116643000D01*
X184008000Y-116491000D01*
X184008000Y-116151061D01*
X183915437Y-115927595D01*
X183744404Y-115756562D01*
X183553530Y-115677500D01*
X184545460Y-115677500D01*
X184800000Y-115932041D01*
X184800000Y-115984940D01*
X184788827Y-115987042D01*
X184686721Y-116052745D01*
X184618222Y-116152997D01*
X184594123Y-116272000D01*
X184594123Y-117322000D01*
X184615042Y-117433173D01*
X184680745Y-117535279D01*
X184780997Y-117603778D01*
X184800000Y-117607626D01*
X184800000Y-120134940D01*
X184788827Y-120137042D01*
X184686721Y-120202745D01*
X184618222Y-120302997D01*
X184594123Y-120422000D01*
X184594123Y-121472000D01*
X184615042Y-121583173D01*
X184656849Y-121648144D01*
X184646835Y-121654835D01*
X184565545Y-121776494D01*
X184537000Y-121920000D01*
X184542371Y-121947000D01*
X183784842Y-121947000D01*
X183915437Y-121816405D01*
X184008000Y-121592939D01*
X184008000Y-121253000D01*
X183856000Y-121101000D01*
X183229000Y-121101000D01*
X183229000Y-121121000D01*
X182921000Y-121121000D01*
X182921000Y-121101000D01*
X182901000Y-121101000D01*
X182901000Y-120793000D01*
X182921000Y-120793000D01*
X182921000Y-119966000D01*
X183229000Y-119966000D01*
X183229000Y-120793000D01*
X183856000Y-120793000D01*
X184008000Y-120641000D01*
X184008000Y-120301061D01*
X183915437Y-120077595D01*
X183744404Y-119906562D01*
X183520938Y-119814000D01*
X183381000Y-119814000D01*
X183229000Y-119966000D01*
X182921000Y-119966000D01*
X182769000Y-119814000D01*
X182629062Y-119814000D01*
X182405596Y-119906562D01*
X182234563Y-120077595D01*
X182142000Y-120301061D01*
X182142000Y-120641000D01*
X182293998Y-120792998D01*
X182142000Y-120792998D01*
X182142000Y-120905670D01*
X181875165Y-120638835D01*
X181753507Y-120557545D01*
X181610000Y-120529000D01*
X173129330Y-120529000D01*
X171969165Y-119368835D01*
X171847507Y-119287545D01*
X171704000Y-119259000D01*
X166334842Y-119259000D01*
X166485438Y-119108404D01*
X166544057Y-118966885D01*
X166550745Y-118977279D01*
X166650997Y-119045778D01*
X166770000Y-119069877D01*
X167570000Y-119069877D01*
X167681173Y-119048958D01*
X167783279Y-118983255D01*
X167851778Y-118883003D01*
X167875877Y-118764000D01*
X167875877Y-118259163D01*
X169032040Y-117103000D01*
X182142000Y-117103000D01*
X182142000Y-117442939D01*
X182234563Y-117666405D01*
X182405596Y-117837438D01*
X182629062Y-117930000D01*
X182769000Y-117930000D01*
X182921000Y-117778000D01*
X182921000Y-116951000D01*
X183229000Y-116951000D01*
X183229000Y-117778000D01*
X183381000Y-117930000D01*
X183520938Y-117930000D01*
X183744404Y-117837438D01*
X183915437Y-117666405D01*
X184008000Y-117442939D01*
X184008000Y-117103000D01*
X183856000Y-116951000D01*
X183229000Y-116951000D01*
X182921000Y-116951000D01*
X182294000Y-116951000D01*
X182142000Y-117103000D01*
X169032040Y-117103000D01*
X171283041Y-114852000D01*
X176335929Y-114852000D01*
X176275641Y-114912183D01*
G36*
X192665000Y-120613064D02*
X192590085Y-120989689D01*
X192397666Y-121277666D01*
X192109689Y-121470085D01*
X191733068Y-121545000D01*
X185841094Y-121545000D01*
X185855877Y-121472000D01*
X185855877Y-120422000D01*
X185834958Y-120310827D01*
X185769255Y-120208721D01*
X185669003Y-120140222D01*
X185650000Y-120136374D01*
X185650000Y-118173500D01*
X187038900Y-118173500D01*
X187212455Y-119046018D01*
X187706697Y-119785703D01*
X188446382Y-120279945D01*
X189318900Y-120453500D01*
X190191418Y-120279945D01*
X190931103Y-119785703D01*
X191425345Y-119046018D01*
X191598900Y-118173500D01*
X191425345Y-117300982D01*
X190931103Y-116561297D01*
X190191418Y-116067055D01*
X189318900Y-115893500D01*
X188446382Y-116067055D01*
X187706697Y-116561297D01*
X187212455Y-117300982D01*
X187038900Y-118173500D01*
X185650000Y-118173500D01*
X185650000Y-117609060D01*
X185661173Y-117606958D01*
X185763279Y-117541255D01*
X185831778Y-117441003D01*
X185855877Y-117322000D01*
X185855877Y-116272000D01*
X185834958Y-116160827D01*
X185769255Y-116058721D01*
X185669003Y-115990222D01*
X185650000Y-115986374D01*
X185650000Y-115756000D01*
X185617649Y-115593359D01*
X185525521Y-115455480D01*
X185022020Y-114951980D01*
X184884141Y-114859851D01*
X184844665Y-114851999D01*
X184721500Y-114827500D01*
X179383670Y-114827500D01*
X179396157Y-114825016D01*
X179423141Y-114819649D01*
X179561020Y-114727520D01*
X179988540Y-114300000D01*
X189327470Y-114300000D01*
X189415009Y-114740086D01*
X189664297Y-115113173D01*
X190037384Y-115362461D01*
X190477470Y-115450000D01*
X190522530Y-115450000D01*
X190962616Y-115362461D01*
X191335703Y-115113173D01*
X191584991Y-114740086D01*
X191672530Y-114300000D01*
X191584991Y-113859914D01*
X191335703Y-113486827D01*
X190962616Y-113237539D01*
X190522530Y-113150000D01*
X190477470Y-113150000D01*
X190037384Y-113237539D01*
X189664297Y-113486827D01*
X189415009Y-113859914D01*
X189327470Y-114300000D01*
X179988540Y-114300000D01*
X182167040Y-112121500D01*
X184170970Y-112121500D01*
X184254183Y-112204859D01*
X184474629Y-112296396D01*
X184713324Y-112296604D01*
X184933929Y-112205452D01*
X185102859Y-112036817D01*
X185194396Y-111816371D01*
X185194604Y-111577676D01*
X185103452Y-111357071D01*
X184934817Y-111188141D01*
X184714371Y-111096604D01*
X184475676Y-111096396D01*
X184255071Y-111187548D01*
X184170972Y-111271500D01*
X181991000Y-111271500D01*
X181855343Y-111298484D01*
X181828359Y-111303851D01*
X181690480Y-111395980D01*
X179084460Y-114002000D01*
X171107000Y-114002000D01*
X170944359Y-114034351D01*
X170806480Y-114126479D01*
X167274837Y-117658123D01*
X166770000Y-117658123D01*
X166658827Y-117679042D01*
X166556721Y-117744745D01*
X166544615Y-117762463D01*
X166485438Y-117619596D01*
X166314405Y-117448563D01*
X166090939Y-117356000D01*
X165876000Y-117356000D01*
X165724000Y-117508000D01*
X165724000Y-118210000D01*
X165744000Y-118210000D01*
X165744000Y-118518000D01*
X165724000Y-118518000D01*
X165724000Y-118538000D01*
X165416000Y-118538000D01*
X165416000Y-118518000D01*
X164714000Y-118518000D01*
X164562000Y-118670000D01*
X164562000Y-118884938D01*
X164654562Y-119108404D01*
X164805158Y-119259000D01*
X163322000Y-119259000D01*
X163178493Y-119287545D01*
X163056835Y-119368835D01*
X160963877Y-121461793D01*
X160963877Y-120422000D01*
X160942958Y-120310827D01*
X160877255Y-120208721D01*
X160777003Y-120140222D01*
X160758000Y-120136374D01*
X160758000Y-117843062D01*
X164562000Y-117843062D01*
X164562000Y-118058000D01*
X164714000Y-118210000D01*
X165416000Y-118210000D01*
X165416000Y-117508000D01*
X165264000Y-117356000D01*
X165049061Y-117356000D01*
X164825595Y-117448563D01*
X164654562Y-117619596D01*
X164562000Y-117843062D01*
X160758000Y-117843062D01*
X160758000Y-117609060D01*
X160769173Y-117606958D01*
X160871279Y-117541255D01*
X160939778Y-117441003D01*
X160963877Y-117322000D01*
X160963877Y-116272000D01*
X160949254Y-116194286D01*
X164958541Y-112185000D01*
X178900470Y-112185000D01*
X178983683Y-112268359D01*
X179204129Y-112359896D01*
X179442824Y-112360104D01*
X179663429Y-112268952D01*
X179832359Y-112100317D01*
X179923896Y-111879871D01*
X179924104Y-111641176D01*
X179832952Y-111420571D01*
X179749000Y-111336472D01*
X179749000Y-110109000D01*
X179716649Y-109946360D01*
X179716649Y-109946359D01*
X179624521Y-109808480D01*
X174074865Y-104258824D01*
X175548896Y-104258824D01*
X175640048Y-104479429D01*
X175808683Y-104648359D01*
X176029129Y-104739896D01*
X176267824Y-104740104D01*
X176488429Y-104648952D01*
X176508917Y-104628500D01*
X179789470Y-104628500D01*
X179872683Y-104711859D01*
X180093129Y-104803396D01*
X180331824Y-104803604D01*
X180552429Y-104712452D01*
X180721359Y-104543817D01*
X180812896Y-104323371D01*
X180813104Y-104084676D01*
X180721952Y-103864071D01*
X180553317Y-103695141D01*
X180332871Y-103603604D01*
X180094176Y-103603396D01*
X179873571Y-103694548D01*
X179789472Y-103778500D01*
X176635920Y-103778500D01*
X176489317Y-103631641D01*
X176268871Y-103540104D01*
X176030176Y-103539896D01*
X175809571Y-103631048D01*
X175640641Y-103799683D01*
X175549104Y-104020129D01*
X175548896Y-104258824D01*
X174074865Y-104258824D01*
X172891000Y-103074960D01*
X172891000Y-101346000D01*
X172858649Y-101183360D01*
X172858649Y-101183359D01*
X172766520Y-101045480D01*
X171923001Y-100201961D01*
X171923104Y-100084176D01*
X171831952Y-99863571D01*
X171663317Y-99694641D01*
X171442871Y-99603104D01*
X171204176Y-99602896D01*
X170983571Y-99694048D01*
X170814641Y-99862683D01*
X170723104Y-100083129D01*
X170722896Y-100321824D01*
X170814048Y-100542429D01*
X170982683Y-100711359D01*
X171203129Y-100802896D01*
X171321960Y-100803000D01*
X172041000Y-101522040D01*
X172041000Y-103251000D01*
X172056083Y-103326827D01*
X172073351Y-103413641D01*
X172165480Y-103551520D01*
X178899000Y-110285041D01*
X178899000Y-111335000D01*
X164782500Y-111335000D01*
X164619860Y-111367351D01*
X164619858Y-111367352D01*
X164619859Y-111367352D01*
X164481979Y-111459480D01*
X160032480Y-115908980D01*
X159992327Y-115969072D01*
X159896827Y-115987042D01*
X159794721Y-116052745D01*
X159726222Y-116152997D01*
X159702123Y-116272000D01*
X159702123Y-117322000D01*
X159723042Y-117433173D01*
X159788745Y-117535279D01*
X159888997Y-117603778D01*
X159908000Y-117607626D01*
X159908000Y-120134940D01*
X159896827Y-120137042D01*
X159794721Y-120202745D01*
X159726222Y-120302997D01*
X159702123Y-120422000D01*
X159702123Y-121472000D01*
X159715859Y-121545000D01*
X159116000Y-121545000D01*
X159116000Y-121253000D01*
X158964000Y-121101000D01*
X158337000Y-121101000D01*
X158337000Y-121121000D01*
X158029000Y-121121000D01*
X158029000Y-121101000D01*
X157402000Y-121101000D01*
X157250000Y-121253000D01*
X157250000Y-121545000D01*
X151166936Y-121545000D01*
X150790311Y-121470085D01*
X150502334Y-121277666D01*
X150309915Y-120989689D01*
X150235000Y-120613068D01*
X150235000Y-118237000D01*
X151313800Y-118237000D01*
X151487355Y-119109518D01*
X151981597Y-119849203D01*
X152721282Y-120343445D01*
X153593800Y-120517000D01*
X154466318Y-120343445D01*
X154529750Y-120301061D01*
X157250000Y-120301061D01*
X157250000Y-120641000D01*
X157402000Y-120793000D01*
X158029000Y-120793000D01*
X158029000Y-119966000D01*
X158337000Y-119966000D01*
X158337000Y-120793000D01*
X158964000Y-120793000D01*
X159116000Y-120641000D01*
X159116000Y-120301061D01*
X159023437Y-120077595D01*
X158852404Y-119906562D01*
X158628938Y-119814000D01*
X158489000Y-119814000D01*
X158337000Y-119966000D01*
X158029000Y-119966000D01*
X157877000Y-119814000D01*
X157737062Y-119814000D01*
X157513596Y-119906562D01*
X157342563Y-120077595D01*
X157250000Y-120301061D01*
X154529750Y-120301061D01*
X155206003Y-119849203D01*
X155700245Y-119109518D01*
X155873800Y-118237000D01*
X155700245Y-117364482D01*
X155525529Y-117103000D01*
X157250000Y-117103000D01*
X157250000Y-117442939D01*
X157342563Y-117666405D01*
X157513596Y-117837438D01*
X157737062Y-117930000D01*
X157877000Y-117930000D01*
X158029000Y-117778000D01*
X158029000Y-116951000D01*
X158337000Y-116951000D01*
X158337000Y-117778000D01*
X158489000Y-117930000D01*
X158628938Y-117930000D01*
X158852404Y-117837438D01*
X159023437Y-117666405D01*
X159116000Y-117442939D01*
X159116000Y-117103000D01*
X158964000Y-116951000D01*
X158337000Y-116951000D01*
X158029000Y-116951000D01*
X157402000Y-116951000D01*
X157250000Y-117103000D01*
X155525529Y-117103000D01*
X155206003Y-116624797D01*
X154497008Y-116151061D01*
X157250000Y-116151061D01*
X157250000Y-116491000D01*
X157402000Y-116643000D01*
X158029000Y-116643000D01*
X158029000Y-115816000D01*
X158337000Y-115816000D01*
X158337000Y-116643000D01*
X158964000Y-116643000D01*
X159116000Y-116491000D01*
X159116000Y-116151061D01*
X159023437Y-115927595D01*
X158852404Y-115756562D01*
X158628938Y-115664000D01*
X158489000Y-115664000D01*
X158337000Y-115816000D01*
X158029000Y-115816000D01*
X157877000Y-115664000D01*
X157737062Y-115664000D01*
X157513596Y-115756562D01*
X157342563Y-115927595D01*
X157250000Y-116151061D01*
X154497008Y-116151061D01*
X154466318Y-116130555D01*
X153593800Y-115957000D01*
X152721282Y-116130555D01*
X151981597Y-116624797D01*
X151487355Y-117364482D01*
X151313800Y-118237000D01*
X150235000Y-118237000D01*
X150235000Y-109598910D01*
X150992097Y-109598910D01*
X151136523Y-109947616D01*
X151511146Y-110375741D01*
X152021089Y-110627915D01*
X152245998Y-110517857D01*
X152245998Y-110636152D01*
X151937384Y-110697539D01*
X151564297Y-110946827D01*
X151315009Y-111319914D01*
X151227470Y-111760000D01*
X151315009Y-112200086D01*
X151564297Y-112573173D01*
X151937384Y-112822461D01*
X152377470Y-112910000D01*
X152422530Y-112910000D01*
X152862616Y-112822461D01*
X153235703Y-112573173D01*
X153484991Y-112200086D01*
X153572530Y-111760000D01*
X153484991Y-111319914D01*
X153235703Y-110946827D01*
X152862616Y-110697539D01*
X152554002Y-110636152D01*
X152554002Y-110517857D01*
X152778911Y-110627915D01*
X153288854Y-110375741D01*
X153663477Y-109947616D01*
X153705222Y-109846824D01*
X155228896Y-109846824D01*
X155320048Y-110067429D01*
X155488683Y-110236359D01*
X155709129Y-110327896D01*
X155947824Y-110328104D01*
X156168429Y-110236952D01*
X156337359Y-110068317D01*
X156428896Y-109847871D01*
X156429000Y-109729040D01*
X161085040Y-105073000D01*
X164338000Y-105073000D01*
X164473657Y-105046016D01*
X164500641Y-105040649D01*
X164638520Y-104948520D01*
X164892520Y-104694521D01*
X164984648Y-104556641D01*
X164984649Y-104556640D01*
X165017000Y-104394000D01*
X165017000Y-101644000D01*
X165622460Y-101644000D01*
X172736980Y-108758520D01*
X172874859Y-108850649D01*
X172901843Y-108856016D01*
X173037500Y-108883000D01*
X175534970Y-108883000D01*
X175618183Y-108966359D01*
X175838629Y-109057896D01*
X176077324Y-109058104D01*
X176297929Y-108966952D01*
X176466859Y-108798317D01*
X176558396Y-108577871D01*
X176558604Y-108339176D01*
X176467452Y-108118571D01*
X176298817Y-107949641D01*
X176078371Y-107858104D01*
X175839676Y-107857896D01*
X175619071Y-107949048D01*
X175534972Y-108033000D01*
X173213540Y-108033000D01*
X166099020Y-100918480D01*
X165961141Y-100826351D01*
X165934157Y-100820984D01*
X165798500Y-100794000D01*
X165015530Y-100794000D01*
X164932317Y-100710641D01*
X164711871Y-100619104D01*
X164473176Y-100618896D01*
X164252571Y-100710048D01*
X164083641Y-100878683D01*
X163992104Y-101099129D01*
X163991896Y-101337824D01*
X164083048Y-101558429D01*
X164167000Y-101642528D01*
X164167000Y-104217959D01*
X164161960Y-104223000D01*
X160909000Y-104223000D01*
X160746359Y-104255351D01*
X160608480Y-104347480D01*
X155827961Y-109127999D01*
X155710176Y-109127896D01*
X155489571Y-109219048D01*
X155320641Y-109387683D01*
X155229104Y-109608129D01*
X155228896Y-109846824D01*
X153705222Y-109846824D01*
X153807903Y-109598910D01*
X153696889Y-109374000D01*
X152554000Y-109374000D01*
X152554000Y-109394000D01*
X152246000Y-109394000D01*
X152246000Y-109374000D01*
X151103111Y-109374000D01*
X150992097Y-109598910D01*
X150235000Y-109598910D01*
X150235000Y-108841090D01*
X150992097Y-108841090D01*
X151103111Y-109066000D01*
X152246000Y-109066000D01*
X152246000Y-109046000D01*
X152554000Y-109046000D01*
X152554000Y-109066000D01*
X153696889Y-109066000D01*
X153807903Y-108841090D01*
X153663477Y-108492384D01*
X153288854Y-108064259D01*
X152778911Y-107812085D01*
X152554002Y-107922143D01*
X152554002Y-107803848D01*
X152862616Y-107742461D01*
X153235703Y-107493173D01*
X153484991Y-107120086D01*
X153572530Y-106680000D01*
X153484991Y-106239914D01*
X153235703Y-105866827D01*
X152862616Y-105617539D01*
X152422530Y-105530000D01*
X152377470Y-105530000D01*
X151937384Y-105617539D01*
X151564297Y-105866827D01*
X151315009Y-106239914D01*
X151227470Y-106680000D01*
X151315009Y-107120086D01*
X151564297Y-107493173D01*
X151937384Y-107742461D01*
X152245998Y-107803848D01*
X152245998Y-107922143D01*
X152021089Y-107812085D01*
X151511146Y-108064259D01*
X151136523Y-108492384D01*
X150992097Y-108841090D01*
X150235000Y-108841090D01*
X150235000Y-104140000D01*
X151227470Y-104140000D01*
X151315009Y-104580086D01*
X151564297Y-104953173D01*
X151937384Y-105202461D01*
X152377470Y-105290000D01*
X152422530Y-105290000D01*
X152862616Y-105202461D01*
X153235703Y-104953173D01*
X153484991Y-104580086D01*
X153572530Y-104140000D01*
X153484991Y-103699914D01*
X153235703Y-103326827D01*
X152862616Y-103077539D01*
X152422530Y-102990000D01*
X152377470Y-102990000D01*
X151937384Y-103077539D01*
X151564297Y-103326827D01*
X151315009Y-103699914D01*
X151227470Y-104140000D01*
X150235000Y-104140000D01*
X150235000Y-101600000D01*
X151227470Y-101600000D01*
X151315009Y-102040086D01*
X151564297Y-102413173D01*
X151937384Y-102662461D01*
X152377470Y-102750000D01*
X152422530Y-102750000D01*
X152862616Y-102662461D01*
X153235703Y-102413173D01*
X153484991Y-102040086D01*
X153572530Y-101600000D01*
X153484991Y-101159914D01*
X153235703Y-100786827D01*
X152862616Y-100537539D01*
X152422530Y-100450000D01*
X152377470Y-100450000D01*
X151937384Y-100537539D01*
X151564297Y-100786827D01*
X151315009Y-101159914D01*
X151227470Y-101600000D01*
X150235000Y-101600000D01*
X150235000Y-99060000D01*
X151227470Y-99060000D01*
X151315009Y-99500086D01*
X151564297Y-99873173D01*
X151937384Y-100122461D01*
X152377470Y-100210000D01*
X152422530Y-100210000D01*
X152862616Y-100122461D01*
X153235703Y-99873173D01*
X153484991Y-99500086D01*
X153572530Y-99060000D01*
X153484991Y-98619914D01*
X153235703Y-98246827D01*
X152862616Y-97997539D01*
X152422530Y-97910000D01*
X152377470Y-97910000D01*
X151937384Y-97997539D01*
X151564297Y-98246827D01*
X151315009Y-98619914D01*
X151227470Y-99060000D01*
X150235000Y-99060000D01*
X150235000Y-96520000D01*
X151227470Y-96520000D01*
X151315009Y-96960086D01*
X151564297Y-97333173D01*
X151937384Y-97582461D01*
X152377470Y-97670000D01*
X152422530Y-97670000D01*
X152862616Y-97582461D01*
X153235703Y-97333173D01*
X153275358Y-97273824D01*
X160816896Y-97273824D01*
X160908048Y-97494429D01*
X160992000Y-97578528D01*
X160992000Y-99017470D01*
X160908641Y-99100683D01*
X160817104Y-99321129D01*
X160816896Y-99559824D01*
X160908048Y-99780429D01*
X161076683Y-99949359D01*
X161297129Y-100040896D01*
X161535824Y-100041104D01*
X161756429Y-99949952D01*
X161925359Y-99781317D01*
X162016896Y-99560871D01*
X162017104Y-99322176D01*
X161925952Y-99101571D01*
X161842000Y-99017472D01*
X161842000Y-97578530D01*
X161925359Y-97495317D01*
X162016896Y-97274871D01*
X162017104Y-97036176D01*
X161925952Y-96815571D01*
X161757317Y-96646641D01*
X161536871Y-96555104D01*
X161298176Y-96554896D01*
X161077571Y-96646048D01*
X160908641Y-96814683D01*
X160817104Y-97035129D01*
X160816896Y-97273824D01*
X153275358Y-97273824D01*
X153484991Y-96960086D01*
X153487992Y-96945000D01*
X154178000Y-96945000D01*
X154313657Y-96918016D01*
X154340641Y-96912649D01*
X154478520Y-96820520D01*
X157073216Y-94225824D01*
X162721896Y-94225824D01*
X162813048Y-94446429D01*
X162981683Y-94615359D01*
X163024000Y-94632931D01*
X163024000Y-97239470D01*
X162940641Y-97322683D01*
X162849104Y-97543129D01*
X162848896Y-97781824D01*
X162940048Y-98002429D01*
X163108683Y-98171359D01*
X163329129Y-98262896D01*
X163567824Y-98263104D01*
X163788429Y-98171952D01*
X163957359Y-98003317D01*
X164048896Y-97782871D01*
X164049104Y-97544176D01*
X163957952Y-97323571D01*
X163874000Y-97239472D01*
X163874000Y-97146925D01*
X163910480Y-97201520D01*
X167420999Y-100712040D01*
X167420896Y-100829824D01*
X167512048Y-101050429D01*
X167680683Y-101219359D01*
X167901129Y-101310896D01*
X168139824Y-101311104D01*
X168360429Y-101219952D01*
X168529359Y-101051317D01*
X168620896Y-100830871D01*
X168621104Y-100592176D01*
X168529952Y-100371571D01*
X168361317Y-100202641D01*
X168140871Y-100111104D01*
X168022041Y-100111000D01*
X164636000Y-96724960D01*
X164636000Y-96276040D01*
X165942479Y-97582520D01*
X166000711Y-97621429D01*
X166080360Y-97674649D01*
X166243000Y-97707000D01*
X166454470Y-97707000D01*
X166537683Y-97790359D01*
X166758129Y-97881896D01*
X166996824Y-97882104D01*
X167217429Y-97790952D01*
X167386359Y-97622317D01*
X167477896Y-97401871D01*
X167478104Y-97163176D01*
X167386952Y-96942571D01*
X167218317Y-96773641D01*
X166997871Y-96682104D01*
X166759176Y-96681896D01*
X166538571Y-96773048D01*
X166454472Y-96857000D01*
X166419041Y-96857000D01*
X165271000Y-95708960D01*
X165271000Y-91609530D01*
X165354359Y-91526317D01*
X165445896Y-91305871D01*
X165446104Y-91067176D01*
X165354952Y-90846571D01*
X165186317Y-90677641D01*
X164965871Y-90586104D01*
X164727176Y-90585896D01*
X164506571Y-90677048D01*
X164337641Y-90845683D01*
X164246104Y-91066129D01*
X164245896Y-91304824D01*
X164337048Y-91525429D01*
X164421000Y-91609528D01*
X164421000Y-91817540D01*
X164297317Y-91693641D01*
X164076871Y-91602104D01*
X163838176Y-91601896D01*
X163617571Y-91693048D01*
X163448641Y-91861683D01*
X163357104Y-92082129D01*
X163356896Y-92320824D01*
X163448048Y-92541429D01*
X163616683Y-92710359D01*
X163786000Y-92780665D01*
X163786000Y-93722540D01*
X163662317Y-93598641D01*
X163441871Y-93507104D01*
X163203176Y-93506896D01*
X162982571Y-93598048D01*
X162813641Y-93766683D01*
X162722104Y-93987129D01*
X162721896Y-94225824D01*
X157073216Y-94225824D01*
X159939520Y-91359521D01*
X160031648Y-91221641D01*
X160031649Y-91221640D01*
X160064000Y-91059000D01*
X160064000Y-89907824D01*
X165642896Y-89907824D01*
X165734048Y-90128429D01*
X165818000Y-90212528D01*
X165818000Y-94191470D01*
X165734641Y-94274683D01*
X165643104Y-94495129D01*
X165642896Y-94733824D01*
X165734048Y-94954429D01*
X165902683Y-95123359D01*
X166123129Y-95214896D01*
X166361824Y-95215104D01*
X166582429Y-95123952D01*
X166751359Y-94955317D01*
X166842896Y-94734871D01*
X166843104Y-94496176D01*
X166751952Y-94275571D01*
X166668000Y-94191472D01*
X166668000Y-90212530D01*
X166751359Y-90129317D01*
X166842896Y-89908871D01*
X166843104Y-89670176D01*
X166751952Y-89449571D01*
X166583317Y-89280641D01*
X166362871Y-89189104D01*
X166124176Y-89188896D01*
X165903571Y-89280048D01*
X165734641Y-89448683D01*
X165643104Y-89669129D01*
X165642896Y-89907824D01*
X160064000Y-89907824D01*
X160064000Y-81449530D01*
X160147359Y-81366317D01*
X160238896Y-81145871D01*
X160239007Y-81017824D01*
X160943896Y-81017824D01*
X161035048Y-81238429D01*
X161203683Y-81407359D01*
X161424129Y-81498896D01*
X161542960Y-81499000D01*
X167596000Y-87552041D01*
X167596000Y-95207470D01*
X167512641Y-95290683D01*
X167421104Y-95511129D01*
X167420896Y-95749824D01*
X167512048Y-95970429D01*
X167680683Y-96139359D01*
X167901129Y-96230896D01*
X168139824Y-96231104D01*
X168360429Y-96139952D01*
X168529359Y-95971317D01*
X168620896Y-95750871D01*
X168621104Y-95512176D01*
X168529952Y-95291571D01*
X168446000Y-95207472D01*
X168446000Y-92955824D01*
X170722896Y-92955824D01*
X170814048Y-93176429D01*
X170982683Y-93345359D01*
X171203129Y-93436896D01*
X171441824Y-93437104D01*
X171662429Y-93345952D01*
X171831359Y-93177317D01*
X171922896Y-92956871D01*
X171923000Y-92838041D01*
X172049419Y-92711621D01*
X172084048Y-92795429D01*
X172214929Y-92926539D01*
X172126571Y-92963048D01*
X171957641Y-93131683D01*
X171866104Y-93352129D01*
X171865896Y-93590824D01*
X171957048Y-93811429D01*
X172041000Y-93895528D01*
X172041000Y-94826470D01*
X171957641Y-94909683D01*
X171866104Y-95130129D01*
X171865896Y-95368824D01*
X171957048Y-95589429D01*
X172125683Y-95758359D01*
X172346129Y-95849896D01*
X172584824Y-95850104D01*
X172805429Y-95758952D01*
X172974359Y-95590317D01*
X173065896Y-95369871D01*
X173066104Y-95131176D01*
X172974952Y-94910571D01*
X172891000Y-94826472D01*
X172891000Y-93895530D01*
X172974359Y-93812317D01*
X173065896Y-93591871D01*
X173065950Y-93529990D01*
X174073000Y-94537040D01*
X174073000Y-94699470D01*
X173989641Y-94782683D01*
X173898104Y-95003129D01*
X173897896Y-95241824D01*
X173989048Y-95462429D01*
X174073000Y-95546528D01*
X174073000Y-99060000D01*
X174093723Y-99164183D01*
X174105351Y-99222641D01*
X174197480Y-99360520D01*
X174977499Y-100140539D01*
X174977396Y-100258324D01*
X175068548Y-100478929D01*
X175237183Y-100647859D01*
X175457629Y-100739396D01*
X175696324Y-100739604D01*
X175916929Y-100648452D01*
X176085859Y-100479817D01*
X176177396Y-100259371D01*
X176177604Y-100020676D01*
X176086452Y-99800071D01*
X175917817Y-99631141D01*
X175697371Y-99539604D01*
X175578541Y-99539500D01*
X174923000Y-98883960D01*
X174923000Y-95546530D01*
X175006359Y-95463317D01*
X175097896Y-95242871D01*
X175098104Y-95004176D01*
X175006952Y-94783571D01*
X174923000Y-94699472D01*
X174923000Y-94361000D01*
X174896112Y-94225824D01*
X174890649Y-94198359D01*
X174798520Y-94060480D01*
X173193001Y-92454961D01*
X173193104Y-92337176D01*
X173101952Y-92116571D01*
X172933317Y-91947641D01*
X172848584Y-91912457D01*
X173277041Y-91484000D01*
X174498000Y-91484000D01*
X174633657Y-91457016D01*
X174660641Y-91451649D01*
X174798520Y-91359520D01*
X175134039Y-91024001D01*
X175251824Y-91024104D01*
X175472429Y-90932952D01*
X175641359Y-90764317D01*
X175732896Y-90543871D01*
X175733104Y-90305176D01*
X175641952Y-90084571D01*
X175473317Y-89915641D01*
X175252871Y-89824104D01*
X175014176Y-89823896D01*
X174793571Y-89915048D01*
X174624641Y-90083683D01*
X174533104Y-90304129D01*
X174533000Y-90422959D01*
X174321960Y-90634000D01*
X173101000Y-90634000D01*
X172938359Y-90666351D01*
X172800480Y-90758479D01*
X171321961Y-92236999D01*
X171204176Y-92236896D01*
X170983571Y-92328048D01*
X170814641Y-92496683D01*
X170723104Y-92717129D01*
X170722896Y-92955824D01*
X168446000Y-92955824D01*
X168446000Y-92066824D01*
X168563896Y-92066824D01*
X168655048Y-92287429D01*
X168823683Y-92456359D01*
X169044129Y-92547896D01*
X169282824Y-92548104D01*
X169503429Y-92456952D01*
X169672359Y-92288317D01*
X169763896Y-92067871D01*
X169764104Y-91829176D01*
X169672952Y-91608571D01*
X169589000Y-91524472D01*
X169589000Y-91235040D01*
X170102041Y-90722000D01*
X172720000Y-90722000D01*
X172855657Y-90695016D01*
X172882641Y-90689649D01*
X173020520Y-90597520D01*
X175814521Y-87803520D01*
X175906649Y-87665641D01*
X175939000Y-87503000D01*
X175939000Y-86886070D01*
X175980429Y-86868952D01*
X176149359Y-86700317D01*
X176240896Y-86479871D01*
X176241104Y-86241176D01*
X176149952Y-86020571D01*
X175981317Y-85851641D01*
X175760871Y-85760104D01*
X175522176Y-85759896D01*
X175301571Y-85851048D01*
X175132641Y-86019683D01*
X175041104Y-86240129D01*
X175040896Y-86478824D01*
X175089000Y-86595245D01*
X175089000Y-87326959D01*
X173427713Y-88988246D01*
X173355952Y-88814571D01*
X173272000Y-88730472D01*
X173272000Y-74567070D01*
X173313429Y-74549952D01*
X173482359Y-74381317D01*
X173573896Y-74160871D01*
X173574007Y-74032824D01*
X178088896Y-74032824D01*
X178180048Y-74253429D01*
X178264000Y-74337528D01*
X178264000Y-88265000D01*
X178275917Y-88324912D01*
X178281511Y-88385738D01*
X178667785Y-89689411D01*
X178597104Y-89859629D01*
X178596896Y-90098324D01*
X178688048Y-90318929D01*
X178856683Y-90487859D01*
X179077129Y-90579396D01*
X179315824Y-90579604D01*
X179536429Y-90488452D01*
X179705359Y-90319817D01*
X179796896Y-90099371D01*
X179797104Y-89860676D01*
X179705952Y-89640071D01*
X179537317Y-89471141D01*
X179482949Y-89448566D01*
X179114000Y-88203362D01*
X179114000Y-74337530D01*
X179197359Y-74254317D01*
X179288896Y-74033871D01*
X179289104Y-73795176D01*
X179197952Y-73574571D01*
X179029317Y-73405641D01*
X178808871Y-73314104D01*
X178570176Y-73313896D01*
X178349571Y-73405048D01*
X178180641Y-73573683D01*
X178089104Y-73794129D01*
X178088896Y-74032824D01*
X173574007Y-74032824D01*
X173574104Y-73922176D01*
X173482952Y-73701571D01*
X173314317Y-73532641D01*
X173093871Y-73441104D01*
X172855176Y-73440896D01*
X172634571Y-73532048D01*
X172465641Y-73700683D01*
X172374104Y-73921129D01*
X172373896Y-74159824D01*
X172422000Y-74276245D01*
X172422000Y-88730470D01*
X172338641Y-88813683D01*
X172247104Y-89034129D01*
X172246896Y-89272824D01*
X172338048Y-89493429D01*
X172506683Y-89662359D01*
X172681154Y-89734806D01*
X172543960Y-89872000D01*
X169926000Y-89872000D01*
X169763359Y-89904351D01*
X169625480Y-89996479D01*
X168863480Y-90758480D01*
X168771351Y-90896359D01*
X168771351Y-90896360D01*
X168739000Y-91059000D01*
X168739000Y-91524470D01*
X168655641Y-91607683D01*
X168564104Y-91828129D01*
X168563896Y-92066824D01*
X168446000Y-92066824D01*
X168446000Y-87376000D01*
X168413649Y-87213360D01*
X168383078Y-87167608D01*
X168321520Y-87075479D01*
X162144001Y-80897961D01*
X162144104Y-80780176D01*
X162052952Y-80559571D01*
X161884317Y-80390641D01*
X161663871Y-80299104D01*
X161425176Y-80298896D01*
X161204571Y-80390048D01*
X161035641Y-80558683D01*
X160944104Y-80779129D01*
X160943896Y-81017824D01*
X160239007Y-81017824D01*
X160239104Y-80907176D01*
X160147952Y-80686571D01*
X159979317Y-80517641D01*
X159758871Y-80426104D01*
X159520176Y-80425896D01*
X159299571Y-80517048D01*
X159130641Y-80685683D01*
X159039104Y-80906129D01*
X159038896Y-81144824D01*
X159130048Y-81365429D01*
X159214000Y-81449528D01*
X159214000Y-90882959D01*
X154001960Y-96095000D01*
X153487992Y-96095000D01*
X153484991Y-96079914D01*
X153235703Y-95706827D01*
X152862616Y-95457539D01*
X152422530Y-95370000D01*
X152377470Y-95370000D01*
X151937384Y-95457539D01*
X151564297Y-95706827D01*
X151315009Y-96079914D01*
X151227470Y-96520000D01*
X150235000Y-96520000D01*
X150235000Y-86360000D01*
X151227470Y-86360000D01*
X151315009Y-86800086D01*
X151564297Y-87173173D01*
X151937384Y-87422461D01*
X152377470Y-87510000D01*
X152422530Y-87510000D01*
X152862616Y-87422461D01*
X153235703Y-87173173D01*
X153484991Y-86800086D01*
X153525226Y-86597814D01*
X156547000Y-83576040D01*
X156547000Y-86437959D01*
X154509960Y-88475000D01*
X153487992Y-88475000D01*
X153484991Y-88459914D01*
X153235703Y-88086827D01*
X152862616Y-87837539D01*
X152422530Y-87750000D01*
X152377470Y-87750000D01*
X151937384Y-87837539D01*
X151564297Y-88086827D01*
X151315009Y-88459914D01*
X151227470Y-88900000D01*
X151315009Y-89340086D01*
X151564297Y-89713173D01*
X151937384Y-89962461D01*
X152377470Y-90050000D01*
X152422530Y-90050000D01*
X152862616Y-89962461D01*
X153235703Y-89713173D01*
X153484991Y-89340086D01*
X153487992Y-89325000D01*
X154686000Y-89325000D01*
X154821657Y-89298016D01*
X154848641Y-89292649D01*
X154986520Y-89200520D01*
X157182000Y-87005041D01*
X157182000Y-88469959D01*
X154636960Y-91015000D01*
X153487992Y-91015000D01*
X153484991Y-90999914D01*
X153235703Y-90626827D01*
X152862616Y-90377539D01*
X152422530Y-90290000D01*
X152377470Y-90290000D01*
X151937384Y-90377539D01*
X151564297Y-90626827D01*
X151315009Y-90999914D01*
X151227470Y-91440000D01*
X151315009Y-91880086D01*
X151564297Y-92253173D01*
X151937384Y-92502461D01*
X152377470Y-92590000D01*
X152422530Y-92590000D01*
X152862616Y-92502461D01*
X153235703Y-92253173D01*
X153484991Y-91880086D01*
X153487992Y-91865000D01*
X154813000Y-91865000D01*
X154948657Y-91838016D01*
X154975641Y-91832649D01*
X155113520Y-91740520D01*
X157817000Y-89037041D01*
X157817000Y-89866959D01*
X154128960Y-93555000D01*
X153487992Y-93555000D01*
X153484991Y-93539914D01*
X153235703Y-93166827D01*
X152862616Y-92917539D01*
X152422530Y-92830000D01*
X152377470Y-92830000D01*
X151937384Y-92917539D01*
X151564297Y-93166827D01*
X151315009Y-93539914D01*
X151227470Y-93980000D01*
X151315009Y-94420086D01*
X151564297Y-94793173D01*
X151937384Y-95042461D01*
X152377470Y-95130000D01*
X152422530Y-95130000D01*
X152862616Y-95042461D01*
X153235703Y-94793173D01*
X153484991Y-94420086D01*
X153487992Y-94405000D01*
X154305000Y-94405000D01*
X154440657Y-94378016D01*
X154467641Y-94372649D01*
X154605520Y-94280520D01*
X158542521Y-90343520D01*
X158634649Y-90205641D01*
X158667000Y-90043000D01*
X158667000Y-81075040D01*
X159513039Y-80229001D01*
X159630824Y-80229104D01*
X159851429Y-80137952D01*
X160020359Y-79969317D01*
X160111896Y-79748871D01*
X160112104Y-79510176D01*
X160020952Y-79289571D01*
X159852317Y-79120641D01*
X159636811Y-79031155D01*
X159724429Y-78994952D01*
X159893359Y-78826317D01*
X159984896Y-78605871D01*
X159985104Y-78367176D01*
X159893952Y-78146571D01*
X159725317Y-77977641D01*
X159550846Y-77905195D01*
X159640040Y-77816001D01*
X159757824Y-77816104D01*
X159978429Y-77724952D01*
X160147359Y-77556317D01*
X160238896Y-77335871D01*
X160239104Y-77097176D01*
X160147952Y-76876571D01*
X159979317Y-76707641D01*
X159758871Y-76616104D01*
X159520176Y-76615896D01*
X159388905Y-76670136D01*
X159640040Y-76419001D01*
X159757824Y-76419104D01*
X159978429Y-76327952D01*
X160147359Y-76159317D01*
X160238896Y-75938871D01*
X160239104Y-75700176D01*
X160147952Y-75479571D01*
X159979317Y-75310641D01*
X159758871Y-75219104D01*
X159520176Y-75218896D01*
X159299571Y-75310048D01*
X159130641Y-75478683D01*
X159039104Y-75699129D01*
X159039000Y-75817959D01*
X156036480Y-78820480D01*
X155944351Y-78958359D01*
X155944351Y-78958360D01*
X155912000Y-79121000D01*
X155912000Y-83008960D01*
X153291150Y-85629810D01*
X153235703Y-85546827D01*
X152862616Y-85297539D01*
X152422530Y-85210000D01*
X152377470Y-85210000D01*
X151937384Y-85297539D01*
X151564297Y-85546827D01*
X151315009Y-85919914D01*
X151227470Y-86360000D01*
X150235000Y-86360000D01*
X150235000Y-83820000D01*
X151227470Y-83820000D01*
X151315009Y-84260086D01*
X151564297Y-84633173D01*
X151937384Y-84882461D01*
X152377470Y-84970000D01*
X152422530Y-84970000D01*
X152862616Y-84882461D01*
X153235703Y-84633173D01*
X153484991Y-84260086D01*
X153572530Y-83820000D01*
X153484991Y-83379914D01*
X153235703Y-83006827D01*
X152862616Y-82757539D01*
X152422530Y-82670000D01*
X152377470Y-82670000D01*
X151937384Y-82757539D01*
X151564297Y-83006827D01*
X151315009Y-83379914D01*
X151227470Y-83820000D01*
X150235000Y-83820000D01*
X150235000Y-81280000D01*
X151227470Y-81280000D01*
X151315009Y-81720086D01*
X151564297Y-82093173D01*
X151937384Y-82342461D01*
X152377470Y-82430000D01*
X152422530Y-82430000D01*
X152862616Y-82342461D01*
X153235703Y-82093173D01*
X153484991Y-81720086D01*
X153572530Y-81280000D01*
X153484991Y-80839914D01*
X153235703Y-80466827D01*
X152862616Y-80217539D01*
X152422530Y-80130000D01*
X152377470Y-80130000D01*
X151937384Y-80217539D01*
X151564297Y-80466827D01*
X151315009Y-80839914D01*
X151227470Y-81280000D01*
X150235000Y-81280000D01*
X150235000Y-78740000D01*
X151227470Y-78740000D01*
X151315009Y-79180086D01*
X151564297Y-79553173D01*
X151937384Y-79802461D01*
X152377470Y-79890000D01*
X152422530Y-79890000D01*
X152862616Y-79802461D01*
X153235703Y-79553173D01*
X153484991Y-79180086D01*
X153572530Y-78740000D01*
X153484991Y-78299914D01*
X153235703Y-77926827D01*
X152862616Y-77677539D01*
X152422530Y-77590000D01*
X152377470Y-77590000D01*
X151937384Y-77677539D01*
X151564297Y-77926827D01*
X151315009Y-78299914D01*
X151227470Y-78740000D01*
X150235000Y-78740000D01*
X150235000Y-76200000D01*
X151227470Y-76200000D01*
X151315009Y-76640086D01*
X151564297Y-77013173D01*
X151937384Y-77262461D01*
X152377470Y-77350000D01*
X152422530Y-77350000D01*
X152862616Y-77262461D01*
X153235703Y-77013173D01*
X153484991Y-76640086D01*
X153572530Y-76200000D01*
X153484991Y-75759914D01*
X153235703Y-75386827D01*
X152862616Y-75137539D01*
X152422530Y-75050000D01*
X152377470Y-75050000D01*
X151937384Y-75137539D01*
X151564297Y-75386827D01*
X151315009Y-75759914D01*
X151227470Y-76200000D01*
X150235000Y-76200000D01*
X150235000Y-71426000D01*
X150942000Y-71426000D01*
X150942000Y-72090938D01*
X151034562Y-72314404D01*
X151205595Y-72485437D01*
X151429061Y-72578000D01*
X152035613Y-72578000D01*
X151937384Y-72597539D01*
X151564297Y-72846827D01*
X151315009Y-73219914D01*
X151227470Y-73660000D01*
X151315009Y-74100086D01*
X151564297Y-74473173D01*
X151937384Y-74722461D01*
X152377470Y-74810000D01*
X152422530Y-74810000D01*
X152862616Y-74722461D01*
X153235703Y-74473173D01*
X153484991Y-74100086D01*
X153572530Y-73660000D01*
X153484991Y-73219914D01*
X153235703Y-72846827D01*
X152862616Y-72597539D01*
X152764387Y-72578000D01*
X153370939Y-72578000D01*
X153594405Y-72485437D01*
X153765438Y-72314404D01*
X153858000Y-72090938D01*
X153858000Y-71426000D01*
X153706000Y-71274000D01*
X152554000Y-71274000D01*
X152554000Y-71294000D01*
X152246000Y-71294000D01*
X152246000Y-71274000D01*
X151094000Y-71274000D01*
X150942000Y-71426000D01*
X150235000Y-71426000D01*
X150235000Y-70149062D01*
X150942000Y-70149062D01*
X150942000Y-70814000D01*
X151094000Y-70966000D01*
X152246000Y-70966000D01*
X152246000Y-69814000D01*
X152554000Y-69814000D01*
X152554000Y-70966000D01*
X153706000Y-70966000D01*
X153858000Y-70814000D01*
X153858000Y-70149062D01*
X153765438Y-69925596D01*
X153594405Y-69754563D01*
X153370939Y-69662000D01*
X152706000Y-69662000D01*
X152554000Y-69814000D01*
X152246000Y-69814000D01*
X152094000Y-69662000D01*
X151429061Y-69662000D01*
X151205595Y-69754563D01*
X151034562Y-69925596D01*
X150942000Y-70149062D01*
X150235000Y-70149062D01*
X150235000Y-69587824D01*
X164372896Y-69587824D01*
X164464048Y-69808429D01*
X164632683Y-69977359D01*
X164853129Y-70068896D01*
X165091824Y-70069104D01*
X165208245Y-70021000D01*
X186259960Y-70021000D01*
X189432579Y-73193619D01*
X189415009Y-73219914D01*
X189327470Y-73660000D01*
X189415009Y-74100086D01*
X189432579Y-74126381D01*
X188294480Y-75264480D01*
X188202351Y-75402359D01*
X188202351Y-75402360D01*
X188170000Y-75565000D01*
X188170000Y-93416575D01*
X188133521Y-93361980D01*
X186337501Y-91565961D01*
X186337604Y-91448176D01*
X186246452Y-91227571D01*
X186077817Y-91058641D01*
X185857371Y-90967104D01*
X185618676Y-90966896D01*
X185398071Y-91058048D01*
X185292965Y-91162971D01*
X185188817Y-91058641D01*
X184968371Y-90967104D01*
X184729676Y-90966896D01*
X184509071Y-91058048D01*
X184340141Y-91226683D01*
X184248604Y-91447129D01*
X184248396Y-91685824D01*
X184339548Y-91906429D01*
X184508183Y-92075359D01*
X184728629Y-92166896D01*
X184847459Y-92167000D01*
X186646000Y-93965541D01*
X186646000Y-99080970D01*
X186562641Y-99164183D01*
X186471104Y-99384629D01*
X186470896Y-99623324D01*
X186562048Y-99843929D01*
X186730683Y-100012859D01*
X186951129Y-100104396D01*
X187189824Y-100104604D01*
X187232990Y-100086768D01*
X187232896Y-100194824D01*
X187324048Y-100415429D01*
X187492683Y-100584359D01*
X187713129Y-100675896D01*
X187951824Y-100676104D01*
X188083096Y-100621864D01*
X187659480Y-101045480D01*
X187567351Y-101183359D01*
X187567351Y-101183360D01*
X187535000Y-101346000D01*
X187535000Y-108795000D01*
X184077471Y-108795000D01*
X184114896Y-108704871D01*
X184115104Y-108466176D01*
X184023952Y-108245571D01*
X183940000Y-108161472D01*
X183940000Y-101854000D01*
X183907649Y-101691360D01*
X183907649Y-101691359D01*
X183815521Y-101553480D01*
X180170865Y-97908824D01*
X184819896Y-97908824D01*
X184911048Y-98129429D01*
X184995000Y-98213528D01*
X184995000Y-102997000D01*
X185021984Y-103132657D01*
X185027351Y-103159641D01*
X185119480Y-103297520D01*
X186089999Y-104268039D01*
X186089896Y-104385824D01*
X186181048Y-104606429D01*
X186349683Y-104775359D01*
X186570129Y-104866896D01*
X186808824Y-104867104D01*
X187029429Y-104775952D01*
X187198359Y-104607317D01*
X187289896Y-104386871D01*
X187290104Y-104148176D01*
X187198952Y-103927571D01*
X187030317Y-103758641D01*
X186809871Y-103667104D01*
X186691041Y-103667000D01*
X185845000Y-102820960D01*
X185845000Y-98213530D01*
X185928359Y-98130317D01*
X186019896Y-97909871D01*
X186020104Y-97671176D01*
X185928952Y-97450571D01*
X185760317Y-97281641D01*
X185539871Y-97190104D01*
X185301176Y-97189896D01*
X185080571Y-97281048D01*
X184911641Y-97449683D01*
X184820104Y-97670129D01*
X184819896Y-97908824D01*
X180170865Y-97908824D01*
X179416001Y-97153961D01*
X179416104Y-97036176D01*
X179324952Y-96815571D01*
X179156317Y-96646641D01*
X178935871Y-96555104D01*
X178697176Y-96554896D01*
X178476571Y-96646048D01*
X178307641Y-96814683D01*
X178216104Y-97035129D01*
X178215896Y-97273824D01*
X178307048Y-97494429D01*
X178475683Y-97663359D01*
X178696129Y-97754896D01*
X178814959Y-97755000D01*
X183090000Y-102030041D01*
X183090000Y-108161470D01*
X183006641Y-108244683D01*
X182915104Y-108465129D01*
X182914896Y-108703824D01*
X182952569Y-108795000D01*
X180636641Y-108795000D01*
X180616817Y-108775141D01*
X180396371Y-108683604D01*
X180157676Y-108683396D01*
X179937071Y-108774548D01*
X179768141Y-108943183D01*
X179676604Y-109163629D01*
X179676396Y-109402324D01*
X179767548Y-109622929D01*
X179936183Y-109791859D01*
X180156629Y-109883396D01*
X180395324Y-109883604D01*
X180615929Y-109792452D01*
X180763639Y-109645000D01*
X187783960Y-109645000D01*
X189432579Y-111293619D01*
X189415009Y-111319914D01*
X189327470Y-111760000D01*
X189415009Y-112200086D01*
X189664297Y-112573173D01*
X190037384Y-112822461D01*
X190477470Y-112910000D01*
X190522530Y-112910000D01*
X190962616Y-112822461D01*
X191335703Y-112573173D01*
X191584991Y-112200086D01*
X191672530Y-111760000D01*
X191584991Y-111319914D01*
X191335703Y-110946827D01*
X190962616Y-110697539D01*
X190654002Y-110636152D01*
X190654002Y-110517857D01*
X190878911Y-110627915D01*
X191388854Y-110375741D01*
X191763477Y-109947616D01*
X191907903Y-109598910D01*
X191796889Y-109374000D01*
X190654000Y-109374000D01*
X190654000Y-109394000D01*
X190346000Y-109394000D01*
X190346000Y-109374000D01*
X190326000Y-109374000D01*
X190326000Y-109066000D01*
X190346000Y-109066000D01*
X190346000Y-109046000D01*
X190654000Y-109046000D01*
X190654000Y-109066000D01*
X191796889Y-109066000D01*
X191907903Y-108841090D01*
X191763477Y-108492384D01*
X191388854Y-108064259D01*
X190878911Y-107812085D01*
X190654002Y-107922143D01*
X190654002Y-107803848D01*
X190962616Y-107742461D01*
X191335703Y-107493173D01*
X191584991Y-107120086D01*
X191672530Y-106680000D01*
X191584991Y-106239914D01*
X191335703Y-105866827D01*
X190962616Y-105617539D01*
X190522530Y-105530000D01*
X190477470Y-105530000D01*
X190037384Y-105617539D01*
X189664297Y-105866827D01*
X189415009Y-106239914D01*
X189327470Y-106680000D01*
X189415009Y-107120086D01*
X189664297Y-107493173D01*
X190037384Y-107742461D01*
X190345998Y-107803848D01*
X190345998Y-107922143D01*
X190121089Y-107812085D01*
X189611146Y-108064259D01*
X189309499Y-108408986D01*
X189294452Y-108372571D01*
X189210500Y-108288472D01*
X189210500Y-106157540D01*
X190144310Y-105223730D01*
X190477470Y-105290000D01*
X190522530Y-105290000D01*
X190962616Y-105202461D01*
X191335703Y-104953173D01*
X191584991Y-104580086D01*
X191672530Y-104140000D01*
X191584991Y-103699914D01*
X191335703Y-103326827D01*
X190962616Y-103077539D01*
X190522530Y-102990000D01*
X190477470Y-102990000D01*
X190037384Y-103077539D01*
X189664297Y-103326827D01*
X189415009Y-103699914D01*
X189327470Y-104140000D01*
X189415009Y-104580086D01*
X189483448Y-104682512D01*
X188484980Y-105680980D01*
X188392851Y-105818859D01*
X188392851Y-105818860D01*
X188385000Y-105858330D01*
X188385000Y-101600000D01*
X189327470Y-101600000D01*
X189415009Y-102040086D01*
X189664297Y-102413173D01*
X190037384Y-102662461D01*
X190477470Y-102750000D01*
X190522530Y-102750000D01*
X190962616Y-102662461D01*
X191335703Y-102413173D01*
X191584991Y-102040086D01*
X191672530Y-101600000D01*
X191584991Y-101159914D01*
X191335703Y-100786827D01*
X190962616Y-100537539D01*
X190522530Y-100450000D01*
X190477470Y-100450000D01*
X190037384Y-100537539D01*
X189664297Y-100786827D01*
X189415009Y-101159914D01*
X189327470Y-101600000D01*
X188385000Y-101600000D01*
X188385000Y-101522040D01*
X188895521Y-101011520D01*
X188987649Y-100873641D01*
X189020000Y-100711000D01*
X189020000Y-99060000D01*
X189327470Y-99060000D01*
X189415009Y-99500086D01*
X189664297Y-99873173D01*
X190037384Y-100122461D01*
X190477470Y-100210000D01*
X190522530Y-100210000D01*
X190962616Y-100122461D01*
X191335703Y-99873173D01*
X191584991Y-99500086D01*
X191672530Y-99060000D01*
X191584991Y-98619914D01*
X191335703Y-98246827D01*
X190962616Y-97997539D01*
X190522530Y-97910000D01*
X190477470Y-97910000D01*
X190037384Y-97997539D01*
X189664297Y-98246827D01*
X189415009Y-98619914D01*
X189327470Y-99060000D01*
X189020000Y-99060000D01*
X189020000Y-96520000D01*
X189327470Y-96520000D01*
X189415009Y-96960086D01*
X189664297Y-97333173D01*
X190037384Y-97582461D01*
X190477470Y-97670000D01*
X190522530Y-97670000D01*
X190962616Y-97582461D01*
X191335703Y-97333173D01*
X191584991Y-96960086D01*
X191672530Y-96520000D01*
X191584991Y-96079914D01*
X191335703Y-95706827D01*
X190962616Y-95457539D01*
X190522530Y-95370000D01*
X190477470Y-95370000D01*
X190037384Y-95457539D01*
X189664297Y-95706827D01*
X189415009Y-96079914D01*
X189327470Y-96520000D01*
X189020000Y-96520000D01*
X189020000Y-93980000D01*
X189327470Y-93980000D01*
X189415009Y-94420086D01*
X189664297Y-94793173D01*
X190037384Y-95042461D01*
X190477470Y-95130000D01*
X190522530Y-95130000D01*
X190962616Y-95042461D01*
X191335703Y-94793173D01*
X191584991Y-94420086D01*
X191672530Y-93980000D01*
X191584991Y-93539914D01*
X191335703Y-93166827D01*
X190962616Y-92917539D01*
X190522530Y-92830000D01*
X190477470Y-92830000D01*
X190037384Y-92917539D01*
X189664297Y-93166827D01*
X189415009Y-93539914D01*
X189327470Y-93980000D01*
X189020000Y-93980000D01*
X189020000Y-91440000D01*
X189327470Y-91440000D01*
X189415009Y-91880086D01*
X189664297Y-92253173D01*
X190037384Y-92502461D01*
X190477470Y-92590000D01*
X190522530Y-92590000D01*
X190962616Y-92502461D01*
X191335703Y-92253173D01*
X191584991Y-91880086D01*
X191672530Y-91440000D01*
X191584991Y-90999914D01*
X191335703Y-90626827D01*
X190962616Y-90377539D01*
X190522530Y-90290000D01*
X190477470Y-90290000D01*
X190037384Y-90377539D01*
X189664297Y-90626827D01*
X189415009Y-90999914D01*
X189327470Y-91440000D01*
X189020000Y-91440000D01*
X189020000Y-88900000D01*
X189327470Y-88900000D01*
X189415009Y-89340086D01*
X189664297Y-89713173D01*
X190037384Y-89962461D01*
X190477470Y-90050000D01*
X190522530Y-90050000D01*
X190962616Y-89962461D01*
X191335703Y-89713173D01*
X191584991Y-89340086D01*
X191672530Y-88900000D01*
X191584991Y-88459914D01*
X191335703Y-88086827D01*
X190962616Y-87837539D01*
X190522530Y-87750000D01*
X190477470Y-87750000D01*
X190037384Y-87837539D01*
X189664297Y-88086827D01*
X189415009Y-88459914D01*
X189327470Y-88900000D01*
X189020000Y-88900000D01*
X189020000Y-86360000D01*
X189327470Y-86360000D01*
X189415009Y-86800086D01*
X189664297Y-87173173D01*
X190037384Y-87422461D01*
X190477470Y-87510000D01*
X190522530Y-87510000D01*
X190962616Y-87422461D01*
X191335703Y-87173173D01*
X191584991Y-86800086D01*
X191672530Y-86360000D01*
X191584991Y-85919914D01*
X191335703Y-85546827D01*
X190962616Y-85297539D01*
X190522530Y-85210000D01*
X190477470Y-85210000D01*
X190037384Y-85297539D01*
X189664297Y-85546827D01*
X189415009Y-85919914D01*
X189327470Y-86360000D01*
X189020000Y-86360000D01*
X189020000Y-83820000D01*
X189327470Y-83820000D01*
X189415009Y-84260086D01*
X189664297Y-84633173D01*
X190037384Y-84882461D01*
X190477470Y-84970000D01*
X190522530Y-84970000D01*
X190962616Y-84882461D01*
X191335703Y-84633173D01*
X191584991Y-84260086D01*
X191672530Y-83820000D01*
X191584991Y-83379914D01*
X191335703Y-83006827D01*
X190962616Y-82757539D01*
X190522530Y-82670000D01*
X190477470Y-82670000D01*
X190037384Y-82757539D01*
X189664297Y-83006827D01*
X189415009Y-83379914D01*
X189327470Y-83820000D01*
X189020000Y-83820000D01*
X189020000Y-81280000D01*
X189327470Y-81280000D01*
X189415009Y-81720086D01*
X189664297Y-82093173D01*
X190037384Y-82342461D01*
X190477470Y-82430000D01*
X190522530Y-82430000D01*
X190962616Y-82342461D01*
X191335703Y-82093173D01*
X191584991Y-81720086D01*
X191672530Y-81280000D01*
X191584991Y-80839914D01*
X191335703Y-80466827D01*
X190962616Y-80217539D01*
X190522530Y-80130000D01*
X190477470Y-80130000D01*
X190037384Y-80217539D01*
X189664297Y-80466827D01*
X189415009Y-80839914D01*
X189327470Y-81280000D01*
X189020000Y-81280000D01*
X189020000Y-78740000D01*
X189327470Y-78740000D01*
X189415009Y-79180086D01*
X189664297Y-79553173D01*
X190037384Y-79802461D01*
X190477470Y-79890000D01*
X190522530Y-79890000D01*
X190962616Y-79802461D01*
X191335703Y-79553173D01*
X191584991Y-79180086D01*
X191672530Y-78740000D01*
X191584991Y-78299914D01*
X191335703Y-77926827D01*
X190962616Y-77677539D01*
X190522530Y-77590000D01*
X190477470Y-77590000D01*
X190037384Y-77677539D01*
X189664297Y-77926827D01*
X189415009Y-78299914D01*
X189327470Y-78740000D01*
X189020000Y-78740000D01*
X189020000Y-76200000D01*
X189327470Y-76200000D01*
X189415009Y-76640086D01*
X189664297Y-77013173D01*
X190037384Y-77262461D01*
X190477470Y-77350000D01*
X190522530Y-77350000D01*
X190962616Y-77262461D01*
X191335703Y-77013173D01*
X191584991Y-76640086D01*
X191672530Y-76200000D01*
X191584991Y-75759914D01*
X191335703Y-75386827D01*
X190962616Y-75137539D01*
X190522530Y-75050000D01*
X190477470Y-75050000D01*
X190037384Y-75137539D01*
X189664297Y-75386827D01*
X189415009Y-75759914D01*
X189327470Y-76200000D01*
X189020000Y-76200000D01*
X189020000Y-75741040D01*
X190038381Y-74722659D01*
X190477470Y-74810000D01*
X190522530Y-74810000D01*
X190962616Y-74722461D01*
X191335703Y-74473173D01*
X191584991Y-74100086D01*
X191672530Y-73660000D01*
X191584991Y-73219914D01*
X191335703Y-72846827D01*
X190962616Y-72597539D01*
X190864387Y-72578000D01*
X191470939Y-72578000D01*
X191694405Y-72485437D01*
X191865438Y-72314404D01*
X191958000Y-72090938D01*
X191958000Y-71426000D01*
X191806000Y-71274000D01*
X190654000Y-71274000D01*
X190654000Y-71294000D01*
X190346000Y-71294000D01*
X190346000Y-71274000D01*
X189194000Y-71274000D01*
X189042000Y-71426000D01*
X189042000Y-71600960D01*
X187590102Y-70149062D01*
X189042000Y-70149062D01*
X189042000Y-70814000D01*
X189194000Y-70966000D01*
X190346000Y-70966000D01*
X190346000Y-69814000D01*
X190654000Y-69814000D01*
X190654000Y-70966000D01*
X191806000Y-70966000D01*
X191958000Y-70814000D01*
X191958000Y-70149062D01*
X191865438Y-69925596D01*
X191694405Y-69754563D01*
X191470939Y-69662000D01*
X190806000Y-69662000D01*
X190654000Y-69814000D01*
X190346000Y-69814000D01*
X190194000Y-69662000D01*
X189529061Y-69662000D01*
X189305595Y-69754563D01*
X189134562Y-69925596D01*
X189042000Y-70149062D01*
X187590102Y-70149062D01*
X186736520Y-69295480D01*
X186598641Y-69203351D01*
X186571657Y-69197984D01*
X186436000Y-69171000D01*
X165499070Y-69171000D01*
X165481952Y-69129571D01*
X165313317Y-68960641D01*
X165092871Y-68869104D01*
X164854176Y-68868896D01*
X164633571Y-68960048D01*
X164464641Y-69128683D01*
X164373104Y-69349129D01*
X164372896Y-69587824D01*
X150235000Y-69587824D01*
X150235000Y-67918000D01*
X192665000Y-67918000D01*
X192665000Y-120613064D01*
X192665000Y-120613064D01*
G37*
X192665000Y-120613064D02*
X192590085Y-120989689D01*
X192397666Y-121277666D01*
X192109689Y-121470085D01*
X191733068Y-121545000D01*
X185841094Y-121545000D01*
X185855877Y-121472000D01*
X185855877Y-120422000D01*
X185834958Y-120310827D01*
X185769255Y-120208721D01*
X185669003Y-120140222D01*
X185650000Y-120136374D01*
X185650000Y-118173500D01*
X187038900Y-118173500D01*
X187212455Y-119046018D01*
X187706697Y-119785703D01*
X188446382Y-120279945D01*
X189318900Y-120453500D01*
X190191418Y-120279945D01*
X190931103Y-119785703D01*
X191425345Y-119046018D01*
X191598900Y-118173500D01*
X191425345Y-117300982D01*
X190931103Y-116561297D01*
X190191418Y-116067055D01*
X189318900Y-115893500D01*
X188446382Y-116067055D01*
X187706697Y-116561297D01*
X187212455Y-117300982D01*
X187038900Y-118173500D01*
X185650000Y-118173500D01*
X185650000Y-117609060D01*
X185661173Y-117606958D01*
X185763279Y-117541255D01*
X185831778Y-117441003D01*
X185855877Y-117322000D01*
X185855877Y-116272000D01*
X185834958Y-116160827D01*
X185769255Y-116058721D01*
X185669003Y-115990222D01*
X185650000Y-115986374D01*
X185650000Y-115756000D01*
X185617649Y-115593359D01*
X185525521Y-115455480D01*
X185022020Y-114951980D01*
X184884141Y-114859851D01*
X184844665Y-114851999D01*
X184721500Y-114827500D01*
X179383670Y-114827500D01*
X179396157Y-114825016D01*
X179423141Y-114819649D01*
X179561020Y-114727520D01*
X179988540Y-114300000D01*
X189327470Y-114300000D01*
X189415009Y-114740086D01*
X189664297Y-115113173D01*
X190037384Y-115362461D01*
X190477470Y-115450000D01*
X190522530Y-115450000D01*
X190962616Y-115362461D01*
X191335703Y-115113173D01*
X191584991Y-114740086D01*
X191672530Y-114300000D01*
X191584991Y-113859914D01*
X191335703Y-113486827D01*
X190962616Y-113237539D01*
X190522530Y-113150000D01*
X190477470Y-113150000D01*
X190037384Y-113237539D01*
X189664297Y-113486827D01*
X189415009Y-113859914D01*
X189327470Y-114300000D01*
X179988540Y-114300000D01*
X182167040Y-112121500D01*
X184170970Y-112121500D01*
X184254183Y-112204859D01*
X184474629Y-112296396D01*
X184713324Y-112296604D01*
X184933929Y-112205452D01*
X185102859Y-112036817D01*
X185194396Y-111816371D01*
X185194604Y-111577676D01*
X185103452Y-111357071D01*
X184934817Y-111188141D01*
X184714371Y-111096604D01*
X184475676Y-111096396D01*
X184255071Y-111187548D01*
X184170972Y-111271500D01*
X181991000Y-111271500D01*
X181855343Y-111298484D01*
X181828359Y-111303851D01*
X181690480Y-111395980D01*
X179084460Y-114002000D01*
X171107000Y-114002000D01*
X170944359Y-114034351D01*
X170806480Y-114126479D01*
X167274837Y-117658123D01*
X166770000Y-117658123D01*
X166658827Y-117679042D01*
X166556721Y-117744745D01*
X166544615Y-117762463D01*
X166485438Y-117619596D01*
X166314405Y-117448563D01*
X166090939Y-117356000D01*
X165876000Y-117356000D01*
X165724000Y-117508000D01*
X165724000Y-118210000D01*
X165744000Y-118210000D01*
X165744000Y-118518000D01*
X165724000Y-118518000D01*
X165724000Y-118538000D01*
X165416000Y-118538000D01*
X165416000Y-118518000D01*
X164714000Y-118518000D01*
X164562000Y-118670000D01*
X164562000Y-118884938D01*
X164654562Y-119108404D01*
X164805158Y-119259000D01*
X163322000Y-119259000D01*
X163178493Y-119287545D01*
X163056835Y-119368835D01*
X160963877Y-121461793D01*
X160963877Y-120422000D01*
X160942958Y-120310827D01*
X160877255Y-120208721D01*
X160777003Y-120140222D01*
X160758000Y-120136374D01*
X160758000Y-117843062D01*
X164562000Y-117843062D01*
X164562000Y-118058000D01*
X164714000Y-118210000D01*
X165416000Y-118210000D01*
X165416000Y-117508000D01*
X165264000Y-117356000D01*
X165049061Y-117356000D01*
X164825595Y-117448563D01*
X164654562Y-117619596D01*
X164562000Y-117843062D01*
X160758000Y-117843062D01*
X160758000Y-117609060D01*
X160769173Y-117606958D01*
X160871279Y-117541255D01*
X160939778Y-117441003D01*
X160963877Y-117322000D01*
X160963877Y-116272000D01*
X160949254Y-116194286D01*
X164958541Y-112185000D01*
X178900470Y-112185000D01*
X178983683Y-112268359D01*
X179204129Y-112359896D01*
X179442824Y-112360104D01*
X179663429Y-112268952D01*
X179832359Y-112100317D01*
X179923896Y-111879871D01*
X179924104Y-111641176D01*
X179832952Y-111420571D01*
X179749000Y-111336472D01*
X179749000Y-110109000D01*
X179716649Y-109946360D01*
X179716649Y-109946359D01*
X179624521Y-109808480D01*
X174074865Y-104258824D01*
X175548896Y-104258824D01*
X175640048Y-104479429D01*
X175808683Y-104648359D01*
X176029129Y-104739896D01*
X176267824Y-104740104D01*
X176488429Y-104648952D01*
X176508917Y-104628500D01*
X179789470Y-104628500D01*
X179872683Y-104711859D01*
X180093129Y-104803396D01*
X180331824Y-104803604D01*
X180552429Y-104712452D01*
X180721359Y-104543817D01*
X180812896Y-104323371D01*
X180813104Y-104084676D01*
X180721952Y-103864071D01*
X180553317Y-103695141D01*
X180332871Y-103603604D01*
X180094176Y-103603396D01*
X179873571Y-103694548D01*
X179789472Y-103778500D01*
X176635920Y-103778500D01*
X176489317Y-103631641D01*
X176268871Y-103540104D01*
X176030176Y-103539896D01*
X175809571Y-103631048D01*
X175640641Y-103799683D01*
X175549104Y-104020129D01*
X175548896Y-104258824D01*
X174074865Y-104258824D01*
X172891000Y-103074960D01*
X172891000Y-101346000D01*
X172858649Y-101183360D01*
X172858649Y-101183359D01*
X172766520Y-101045480D01*
X171923001Y-100201961D01*
X171923104Y-100084176D01*
X171831952Y-99863571D01*
X171663317Y-99694641D01*
X171442871Y-99603104D01*
X171204176Y-99602896D01*
X170983571Y-99694048D01*
X170814641Y-99862683D01*
X170723104Y-100083129D01*
X170722896Y-100321824D01*
X170814048Y-100542429D01*
X170982683Y-100711359D01*
X171203129Y-100802896D01*
X171321960Y-100803000D01*
X172041000Y-101522040D01*
X172041000Y-103251000D01*
X172056083Y-103326827D01*
X172073351Y-103413641D01*
X172165480Y-103551520D01*
X178899000Y-110285041D01*
X178899000Y-111335000D01*
X164782500Y-111335000D01*
X164619860Y-111367351D01*
X164619858Y-111367352D01*
X164619859Y-111367352D01*
X164481979Y-111459480D01*
X160032480Y-115908980D01*
X159992327Y-115969072D01*
X159896827Y-115987042D01*
X159794721Y-116052745D01*
X159726222Y-116152997D01*
X159702123Y-116272000D01*
X159702123Y-117322000D01*
X159723042Y-117433173D01*
X159788745Y-117535279D01*
X159888997Y-117603778D01*
X159908000Y-117607626D01*
X159908000Y-120134940D01*
X159896827Y-120137042D01*
X159794721Y-120202745D01*
X159726222Y-120302997D01*
X159702123Y-120422000D01*
X159702123Y-121472000D01*
X159715859Y-121545000D01*
X159116000Y-121545000D01*
X159116000Y-121253000D01*
X158964000Y-121101000D01*
X158337000Y-121101000D01*
X158337000Y-121121000D01*
X158029000Y-121121000D01*
X158029000Y-121101000D01*
X157402000Y-121101000D01*
X157250000Y-121253000D01*
X157250000Y-121545000D01*
X151166936Y-121545000D01*
X150790311Y-121470085D01*
X150502334Y-121277666D01*
X150309915Y-120989689D01*
X150235000Y-120613068D01*
X150235000Y-118237000D01*
X151313800Y-118237000D01*
X151487355Y-119109518D01*
X151981597Y-119849203D01*
X152721282Y-120343445D01*
X153593800Y-120517000D01*
X154466318Y-120343445D01*
X154529750Y-120301061D01*
X157250000Y-120301061D01*
X157250000Y-120641000D01*
X157402000Y-120793000D01*
X158029000Y-120793000D01*
X158029000Y-119966000D01*
X158337000Y-119966000D01*
X158337000Y-120793000D01*
X158964000Y-120793000D01*
X159116000Y-120641000D01*
X159116000Y-120301061D01*
X159023437Y-120077595D01*
X158852404Y-119906562D01*
X158628938Y-119814000D01*
X158489000Y-119814000D01*
X158337000Y-119966000D01*
X158029000Y-119966000D01*
X157877000Y-119814000D01*
X157737062Y-119814000D01*
X157513596Y-119906562D01*
X157342563Y-120077595D01*
X157250000Y-120301061D01*
X154529750Y-120301061D01*
X155206003Y-119849203D01*
X155700245Y-119109518D01*
X155873800Y-118237000D01*
X155700245Y-117364482D01*
X155525529Y-117103000D01*
X157250000Y-117103000D01*
X157250000Y-117442939D01*
X157342563Y-117666405D01*
X157513596Y-117837438D01*
X157737062Y-117930000D01*
X157877000Y-117930000D01*
X158029000Y-117778000D01*
X158029000Y-116951000D01*
X158337000Y-116951000D01*
X158337000Y-117778000D01*
X158489000Y-117930000D01*
X158628938Y-117930000D01*
X158852404Y-117837438D01*
X159023437Y-117666405D01*
X159116000Y-117442939D01*
X159116000Y-117103000D01*
X158964000Y-116951000D01*
X158337000Y-116951000D01*
X158029000Y-116951000D01*
X157402000Y-116951000D01*
X157250000Y-117103000D01*
X155525529Y-117103000D01*
X155206003Y-116624797D01*
X154497008Y-116151061D01*
X157250000Y-116151061D01*
X157250000Y-116491000D01*
X157402000Y-116643000D01*
X158029000Y-116643000D01*
X158029000Y-115816000D01*
X158337000Y-115816000D01*
X158337000Y-116643000D01*
X158964000Y-116643000D01*
X159116000Y-116491000D01*
X159116000Y-116151061D01*
X159023437Y-115927595D01*
X158852404Y-115756562D01*
X158628938Y-115664000D01*
X158489000Y-115664000D01*
X158337000Y-115816000D01*
X158029000Y-115816000D01*
X157877000Y-115664000D01*
X157737062Y-115664000D01*
X157513596Y-115756562D01*
X157342563Y-115927595D01*
X157250000Y-116151061D01*
X154497008Y-116151061D01*
X154466318Y-116130555D01*
X153593800Y-115957000D01*
X152721282Y-116130555D01*
X151981597Y-116624797D01*
X151487355Y-117364482D01*
X151313800Y-118237000D01*
X150235000Y-118237000D01*
X150235000Y-109598910D01*
X150992097Y-109598910D01*
X151136523Y-109947616D01*
X151511146Y-110375741D01*
X152021089Y-110627915D01*
X152245998Y-110517857D01*
X152245998Y-110636152D01*
X151937384Y-110697539D01*
X151564297Y-110946827D01*
X151315009Y-111319914D01*
X151227470Y-111760000D01*
X151315009Y-112200086D01*
X151564297Y-112573173D01*
X151937384Y-112822461D01*
X152377470Y-112910000D01*
X152422530Y-112910000D01*
X152862616Y-112822461D01*
X153235703Y-112573173D01*
X153484991Y-112200086D01*
X153572530Y-111760000D01*
X153484991Y-111319914D01*
X153235703Y-110946827D01*
X152862616Y-110697539D01*
X152554002Y-110636152D01*
X152554002Y-110517857D01*
X152778911Y-110627915D01*
X153288854Y-110375741D01*
X153663477Y-109947616D01*
X153705222Y-109846824D01*
X155228896Y-109846824D01*
X155320048Y-110067429D01*
X155488683Y-110236359D01*
X155709129Y-110327896D01*
X155947824Y-110328104D01*
X156168429Y-110236952D01*
X156337359Y-110068317D01*
X156428896Y-109847871D01*
X156429000Y-109729040D01*
X161085040Y-105073000D01*
X164338000Y-105073000D01*
X164473657Y-105046016D01*
X164500641Y-105040649D01*
X164638520Y-104948520D01*
X164892520Y-104694521D01*
X164984648Y-104556641D01*
X164984649Y-104556640D01*
X165017000Y-104394000D01*
X165017000Y-101644000D01*
X165622460Y-101644000D01*
X172736980Y-108758520D01*
X172874859Y-108850649D01*
X172901843Y-108856016D01*
X173037500Y-108883000D01*
X175534970Y-108883000D01*
X175618183Y-108966359D01*
X175838629Y-109057896D01*
X176077324Y-109058104D01*
X176297929Y-108966952D01*
X176466859Y-108798317D01*
X176558396Y-108577871D01*
X176558604Y-108339176D01*
X176467452Y-108118571D01*
X176298817Y-107949641D01*
X176078371Y-107858104D01*
X175839676Y-107857896D01*
X175619071Y-107949048D01*
X175534972Y-108033000D01*
X173213540Y-108033000D01*
X166099020Y-100918480D01*
X165961141Y-100826351D01*
X165934157Y-100820984D01*
X165798500Y-100794000D01*
X165015530Y-100794000D01*
X164932317Y-100710641D01*
X164711871Y-100619104D01*
X164473176Y-100618896D01*
X164252571Y-100710048D01*
X164083641Y-100878683D01*
X163992104Y-101099129D01*
X163991896Y-101337824D01*
X164083048Y-101558429D01*
X164167000Y-101642528D01*
X164167000Y-104217959D01*
X164161960Y-104223000D01*
X160909000Y-104223000D01*
X160746359Y-104255351D01*
X160608480Y-104347480D01*
X155827961Y-109127999D01*
X155710176Y-109127896D01*
X155489571Y-109219048D01*
X155320641Y-109387683D01*
X155229104Y-109608129D01*
X155228896Y-109846824D01*
X153705222Y-109846824D01*
X153807903Y-109598910D01*
X153696889Y-109374000D01*
X152554000Y-109374000D01*
X152554000Y-109394000D01*
X152246000Y-109394000D01*
X152246000Y-109374000D01*
X151103111Y-109374000D01*
X150992097Y-109598910D01*
X150235000Y-109598910D01*
X150235000Y-108841090D01*
X150992097Y-108841090D01*
X151103111Y-109066000D01*
X152246000Y-109066000D01*
X152246000Y-109046000D01*
X152554000Y-109046000D01*
X152554000Y-109066000D01*
X153696889Y-109066000D01*
X153807903Y-108841090D01*
X153663477Y-108492384D01*
X153288854Y-108064259D01*
X152778911Y-107812085D01*
X152554002Y-107922143D01*
X152554002Y-107803848D01*
X152862616Y-107742461D01*
X153235703Y-107493173D01*
X153484991Y-107120086D01*
X153572530Y-106680000D01*
X153484991Y-106239914D01*
X153235703Y-105866827D01*
X152862616Y-105617539D01*
X152422530Y-105530000D01*
X152377470Y-105530000D01*
X151937384Y-105617539D01*
X151564297Y-105866827D01*
X151315009Y-106239914D01*
X151227470Y-106680000D01*
X151315009Y-107120086D01*
X151564297Y-107493173D01*
X151937384Y-107742461D01*
X152245998Y-107803848D01*
X152245998Y-107922143D01*
X152021089Y-107812085D01*
X151511146Y-108064259D01*
X151136523Y-108492384D01*
X150992097Y-108841090D01*
X150235000Y-108841090D01*
X150235000Y-104140000D01*
X151227470Y-104140000D01*
X151315009Y-104580086D01*
X151564297Y-104953173D01*
X151937384Y-105202461D01*
X152377470Y-105290000D01*
X152422530Y-105290000D01*
X152862616Y-105202461D01*
X153235703Y-104953173D01*
X153484991Y-104580086D01*
X153572530Y-104140000D01*
X153484991Y-103699914D01*
X153235703Y-103326827D01*
X152862616Y-103077539D01*
X152422530Y-102990000D01*
X152377470Y-102990000D01*
X151937384Y-103077539D01*
X151564297Y-103326827D01*
X151315009Y-103699914D01*
X151227470Y-104140000D01*
X150235000Y-104140000D01*
X150235000Y-101600000D01*
X151227470Y-101600000D01*
X151315009Y-102040086D01*
X151564297Y-102413173D01*
X151937384Y-102662461D01*
X152377470Y-102750000D01*
X152422530Y-102750000D01*
X152862616Y-102662461D01*
X153235703Y-102413173D01*
X153484991Y-102040086D01*
X153572530Y-101600000D01*
X153484991Y-101159914D01*
X153235703Y-100786827D01*
X152862616Y-100537539D01*
X152422530Y-100450000D01*
X152377470Y-100450000D01*
X151937384Y-100537539D01*
X151564297Y-100786827D01*
X151315009Y-101159914D01*
X151227470Y-101600000D01*
X150235000Y-101600000D01*
X150235000Y-99060000D01*
X151227470Y-99060000D01*
X151315009Y-99500086D01*
X151564297Y-99873173D01*
X151937384Y-100122461D01*
X152377470Y-100210000D01*
X152422530Y-100210000D01*
X152862616Y-100122461D01*
X153235703Y-99873173D01*
X153484991Y-99500086D01*
X153572530Y-99060000D01*
X153484991Y-98619914D01*
X153235703Y-98246827D01*
X152862616Y-97997539D01*
X152422530Y-97910000D01*
X152377470Y-97910000D01*
X151937384Y-97997539D01*
X151564297Y-98246827D01*
X151315009Y-98619914D01*
X151227470Y-99060000D01*
X150235000Y-99060000D01*
X150235000Y-96520000D01*
X151227470Y-96520000D01*
X151315009Y-96960086D01*
X151564297Y-97333173D01*
X151937384Y-97582461D01*
X152377470Y-97670000D01*
X152422530Y-97670000D01*
X152862616Y-97582461D01*
X153235703Y-97333173D01*
X153275358Y-97273824D01*
X160816896Y-97273824D01*
X160908048Y-97494429D01*
X160992000Y-97578528D01*
X160992000Y-99017470D01*
X160908641Y-99100683D01*
X160817104Y-99321129D01*
X160816896Y-99559824D01*
X160908048Y-99780429D01*
X161076683Y-99949359D01*
X161297129Y-100040896D01*
X161535824Y-100041104D01*
X161756429Y-99949952D01*
X161925359Y-99781317D01*
X162016896Y-99560871D01*
X162017104Y-99322176D01*
X161925952Y-99101571D01*
X161842000Y-99017472D01*
X161842000Y-97578530D01*
X161925359Y-97495317D01*
X162016896Y-97274871D01*
X162017104Y-97036176D01*
X161925952Y-96815571D01*
X161757317Y-96646641D01*
X161536871Y-96555104D01*
X161298176Y-96554896D01*
X161077571Y-96646048D01*
X160908641Y-96814683D01*
X160817104Y-97035129D01*
X160816896Y-97273824D01*
X153275358Y-97273824D01*
X153484991Y-96960086D01*
X153487992Y-96945000D01*
X154178000Y-96945000D01*
X154313657Y-96918016D01*
X154340641Y-96912649D01*
X154478520Y-96820520D01*
X157073216Y-94225824D01*
X162721896Y-94225824D01*
X162813048Y-94446429D01*
X162981683Y-94615359D01*
X163024000Y-94632931D01*
X163024000Y-97239470D01*
X162940641Y-97322683D01*
X162849104Y-97543129D01*
X162848896Y-97781824D01*
X162940048Y-98002429D01*
X163108683Y-98171359D01*
X163329129Y-98262896D01*
X163567824Y-98263104D01*
X163788429Y-98171952D01*
X163957359Y-98003317D01*
X164048896Y-97782871D01*
X164049104Y-97544176D01*
X163957952Y-97323571D01*
X163874000Y-97239472D01*
X163874000Y-97146925D01*
X163910480Y-97201520D01*
X167420999Y-100712040D01*
X167420896Y-100829824D01*
X167512048Y-101050429D01*
X167680683Y-101219359D01*
X167901129Y-101310896D01*
X168139824Y-101311104D01*
X168360429Y-101219952D01*
X168529359Y-101051317D01*
X168620896Y-100830871D01*
X168621104Y-100592176D01*
X168529952Y-100371571D01*
X168361317Y-100202641D01*
X168140871Y-100111104D01*
X168022041Y-100111000D01*
X164636000Y-96724960D01*
X164636000Y-96276040D01*
X165942479Y-97582520D01*
X166000711Y-97621429D01*
X166080360Y-97674649D01*
X166243000Y-97707000D01*
X166454470Y-97707000D01*
X166537683Y-97790359D01*
X166758129Y-97881896D01*
X166996824Y-97882104D01*
X167217429Y-97790952D01*
X167386359Y-97622317D01*
X167477896Y-97401871D01*
X167478104Y-97163176D01*
X167386952Y-96942571D01*
X167218317Y-96773641D01*
X166997871Y-96682104D01*
X166759176Y-96681896D01*
X166538571Y-96773048D01*
X166454472Y-96857000D01*
X166419041Y-96857000D01*
X165271000Y-95708960D01*
X165271000Y-91609530D01*
X165354359Y-91526317D01*
X165445896Y-91305871D01*
X165446104Y-91067176D01*
X165354952Y-90846571D01*
X165186317Y-90677641D01*
X164965871Y-90586104D01*
X164727176Y-90585896D01*
X164506571Y-90677048D01*
X164337641Y-90845683D01*
X164246104Y-91066129D01*
X164245896Y-91304824D01*
X164337048Y-91525429D01*
X164421000Y-91609528D01*
X164421000Y-91817540D01*
X164297317Y-91693641D01*
X164076871Y-91602104D01*
X163838176Y-91601896D01*
X163617571Y-91693048D01*
X163448641Y-91861683D01*
X163357104Y-92082129D01*
X163356896Y-92320824D01*
X163448048Y-92541429D01*
X163616683Y-92710359D01*
X163786000Y-92780665D01*
X163786000Y-93722540D01*
X163662317Y-93598641D01*
X163441871Y-93507104D01*
X163203176Y-93506896D01*
X162982571Y-93598048D01*
X162813641Y-93766683D01*
X162722104Y-93987129D01*
X162721896Y-94225824D01*
X157073216Y-94225824D01*
X159939520Y-91359521D01*
X160031648Y-91221641D01*
X160031649Y-91221640D01*
X160064000Y-91059000D01*
X160064000Y-89907824D01*
X165642896Y-89907824D01*
X165734048Y-90128429D01*
X165818000Y-90212528D01*
X165818000Y-94191470D01*
X165734641Y-94274683D01*
X165643104Y-94495129D01*
X165642896Y-94733824D01*
X165734048Y-94954429D01*
X165902683Y-95123359D01*
X166123129Y-95214896D01*
X166361824Y-95215104D01*
X166582429Y-95123952D01*
X166751359Y-94955317D01*
X166842896Y-94734871D01*
X166843104Y-94496176D01*
X166751952Y-94275571D01*
X166668000Y-94191472D01*
X166668000Y-90212530D01*
X166751359Y-90129317D01*
X166842896Y-89908871D01*
X166843104Y-89670176D01*
X166751952Y-89449571D01*
X166583317Y-89280641D01*
X166362871Y-89189104D01*
X166124176Y-89188896D01*
X165903571Y-89280048D01*
X165734641Y-89448683D01*
X165643104Y-89669129D01*
X165642896Y-89907824D01*
X160064000Y-89907824D01*
X160064000Y-81449530D01*
X160147359Y-81366317D01*
X160238896Y-81145871D01*
X160239007Y-81017824D01*
X160943896Y-81017824D01*
X161035048Y-81238429D01*
X161203683Y-81407359D01*
X161424129Y-81498896D01*
X161542960Y-81499000D01*
X167596000Y-87552041D01*
X167596000Y-95207470D01*
X167512641Y-95290683D01*
X167421104Y-95511129D01*
X167420896Y-95749824D01*
X167512048Y-95970429D01*
X167680683Y-96139359D01*
X167901129Y-96230896D01*
X168139824Y-96231104D01*
X168360429Y-96139952D01*
X168529359Y-95971317D01*
X168620896Y-95750871D01*
X168621104Y-95512176D01*
X168529952Y-95291571D01*
X168446000Y-95207472D01*
X168446000Y-92955824D01*
X170722896Y-92955824D01*
X170814048Y-93176429D01*
X170982683Y-93345359D01*
X171203129Y-93436896D01*
X171441824Y-93437104D01*
X171662429Y-93345952D01*
X171831359Y-93177317D01*
X171922896Y-92956871D01*
X171923000Y-92838041D01*
X172049419Y-92711621D01*
X172084048Y-92795429D01*
X172214929Y-92926539D01*
X172126571Y-92963048D01*
X171957641Y-93131683D01*
X171866104Y-93352129D01*
X171865896Y-93590824D01*
X171957048Y-93811429D01*
X172041000Y-93895528D01*
X172041000Y-94826470D01*
X171957641Y-94909683D01*
X171866104Y-95130129D01*
X171865896Y-95368824D01*
X171957048Y-95589429D01*
X172125683Y-95758359D01*
X172346129Y-95849896D01*
X172584824Y-95850104D01*
X172805429Y-95758952D01*
X172974359Y-95590317D01*
X173065896Y-95369871D01*
X173066104Y-95131176D01*
X172974952Y-94910571D01*
X172891000Y-94826472D01*
X172891000Y-93895530D01*
X172974359Y-93812317D01*
X173065896Y-93591871D01*
X173065950Y-93529990D01*
X174073000Y-94537040D01*
X174073000Y-94699470D01*
X173989641Y-94782683D01*
X173898104Y-95003129D01*
X173897896Y-95241824D01*
X173989048Y-95462429D01*
X174073000Y-95546528D01*
X174073000Y-99060000D01*
X174093723Y-99164183D01*
X174105351Y-99222641D01*
X174197480Y-99360520D01*
X174977499Y-100140539D01*
X174977396Y-100258324D01*
X175068548Y-100478929D01*
X175237183Y-100647859D01*
X175457629Y-100739396D01*
X175696324Y-100739604D01*
X175916929Y-100648452D01*
X176085859Y-100479817D01*
X176177396Y-100259371D01*
X176177604Y-100020676D01*
X176086452Y-99800071D01*
X175917817Y-99631141D01*
X175697371Y-99539604D01*
X175578541Y-99539500D01*
X174923000Y-98883960D01*
X174923000Y-95546530D01*
X175006359Y-95463317D01*
X175097896Y-95242871D01*
X175098104Y-95004176D01*
X175006952Y-94783571D01*
X174923000Y-94699472D01*
X174923000Y-94361000D01*
X174896112Y-94225824D01*
X174890649Y-94198359D01*
X174798520Y-94060480D01*
X173193001Y-92454961D01*
X173193104Y-92337176D01*
X173101952Y-92116571D01*
X172933317Y-91947641D01*
X172848584Y-91912457D01*
X173277041Y-91484000D01*
X174498000Y-91484000D01*
X174633657Y-91457016D01*
X174660641Y-91451649D01*
X174798520Y-91359520D01*
X175134039Y-91024001D01*
X175251824Y-91024104D01*
X175472429Y-90932952D01*
X175641359Y-90764317D01*
X175732896Y-90543871D01*
X175733104Y-90305176D01*
X175641952Y-90084571D01*
X175473317Y-89915641D01*
X175252871Y-89824104D01*
X175014176Y-89823896D01*
X174793571Y-89915048D01*
X174624641Y-90083683D01*
X174533104Y-90304129D01*
X174533000Y-90422959D01*
X174321960Y-90634000D01*
X173101000Y-90634000D01*
X172938359Y-90666351D01*
X172800480Y-90758479D01*
X171321961Y-92236999D01*
X171204176Y-92236896D01*
X170983571Y-92328048D01*
X170814641Y-92496683D01*
X170723104Y-92717129D01*
X170722896Y-92955824D01*
X168446000Y-92955824D01*
X168446000Y-92066824D01*
X168563896Y-92066824D01*
X168655048Y-92287429D01*
X168823683Y-92456359D01*
X169044129Y-92547896D01*
X169282824Y-92548104D01*
X169503429Y-92456952D01*
X169672359Y-92288317D01*
X169763896Y-92067871D01*
X169764104Y-91829176D01*
X169672952Y-91608571D01*
X169589000Y-91524472D01*
X169589000Y-91235040D01*
X170102041Y-90722000D01*
X172720000Y-90722000D01*
X172855657Y-90695016D01*
X172882641Y-90689649D01*
X173020520Y-90597520D01*
X175814521Y-87803520D01*
X175906649Y-87665641D01*
X175939000Y-87503000D01*
X175939000Y-86886070D01*
X175980429Y-86868952D01*
X176149359Y-86700317D01*
X176240896Y-86479871D01*
X176241104Y-86241176D01*
X176149952Y-86020571D01*
X175981317Y-85851641D01*
X175760871Y-85760104D01*
X175522176Y-85759896D01*
X175301571Y-85851048D01*
X175132641Y-86019683D01*
X175041104Y-86240129D01*
X175040896Y-86478824D01*
X175089000Y-86595245D01*
X175089000Y-87326959D01*
X173427713Y-88988246D01*
X173355952Y-88814571D01*
X173272000Y-88730472D01*
X173272000Y-74567070D01*
X173313429Y-74549952D01*
X173482359Y-74381317D01*
X173573896Y-74160871D01*
X173574007Y-74032824D01*
X178088896Y-74032824D01*
X178180048Y-74253429D01*
X178264000Y-74337528D01*
X178264000Y-88265000D01*
X178275917Y-88324912D01*
X178281511Y-88385738D01*
X178667785Y-89689411D01*
X178597104Y-89859629D01*
X178596896Y-90098324D01*
X178688048Y-90318929D01*
X178856683Y-90487859D01*
X179077129Y-90579396D01*
X179315824Y-90579604D01*
X179536429Y-90488452D01*
X179705359Y-90319817D01*
X179796896Y-90099371D01*
X179797104Y-89860676D01*
X179705952Y-89640071D01*
X179537317Y-89471141D01*
X179482949Y-89448566D01*
X179114000Y-88203362D01*
X179114000Y-74337530D01*
X179197359Y-74254317D01*
X179288896Y-74033871D01*
X179289104Y-73795176D01*
X179197952Y-73574571D01*
X179029317Y-73405641D01*
X178808871Y-73314104D01*
X178570176Y-73313896D01*
X178349571Y-73405048D01*
X178180641Y-73573683D01*
X178089104Y-73794129D01*
X178088896Y-74032824D01*
X173574007Y-74032824D01*
X173574104Y-73922176D01*
X173482952Y-73701571D01*
X173314317Y-73532641D01*
X173093871Y-73441104D01*
X172855176Y-73440896D01*
X172634571Y-73532048D01*
X172465641Y-73700683D01*
X172374104Y-73921129D01*
X172373896Y-74159824D01*
X172422000Y-74276245D01*
X172422000Y-88730470D01*
X172338641Y-88813683D01*
X172247104Y-89034129D01*
X172246896Y-89272824D01*
X172338048Y-89493429D01*
X172506683Y-89662359D01*
X172681154Y-89734806D01*
X172543960Y-89872000D01*
X169926000Y-89872000D01*
X169763359Y-89904351D01*
X169625480Y-89996479D01*
X168863480Y-90758480D01*
X168771351Y-90896359D01*
X168771351Y-90896360D01*
X168739000Y-91059000D01*
X168739000Y-91524470D01*
X168655641Y-91607683D01*
X168564104Y-91828129D01*
X168563896Y-92066824D01*
X168446000Y-92066824D01*
X168446000Y-87376000D01*
X168413649Y-87213360D01*
X168383078Y-87167608D01*
X168321520Y-87075479D01*
X162144001Y-80897961D01*
X162144104Y-80780176D01*
X162052952Y-80559571D01*
X161884317Y-80390641D01*
X161663871Y-80299104D01*
X161425176Y-80298896D01*
X161204571Y-80390048D01*
X161035641Y-80558683D01*
X160944104Y-80779129D01*
X160943896Y-81017824D01*
X160239007Y-81017824D01*
X160239104Y-80907176D01*
X160147952Y-80686571D01*
X159979317Y-80517641D01*
X159758871Y-80426104D01*
X159520176Y-80425896D01*
X159299571Y-80517048D01*
X159130641Y-80685683D01*
X159039104Y-80906129D01*
X159038896Y-81144824D01*
X159130048Y-81365429D01*
X159214000Y-81449528D01*
X159214000Y-90882959D01*
X154001960Y-96095000D01*
X153487992Y-96095000D01*
X153484991Y-96079914D01*
X153235703Y-95706827D01*
X152862616Y-95457539D01*
X152422530Y-95370000D01*
X152377470Y-95370000D01*
X151937384Y-95457539D01*
X151564297Y-95706827D01*
X151315009Y-96079914D01*
X151227470Y-96520000D01*
X150235000Y-96520000D01*
X150235000Y-86360000D01*
X151227470Y-86360000D01*
X151315009Y-86800086D01*
X151564297Y-87173173D01*
X151937384Y-87422461D01*
X152377470Y-87510000D01*
X152422530Y-87510000D01*
X152862616Y-87422461D01*
X153235703Y-87173173D01*
X153484991Y-86800086D01*
X153525226Y-86597814D01*
X156547000Y-83576040D01*
X156547000Y-86437959D01*
X154509960Y-88475000D01*
X153487992Y-88475000D01*
X153484991Y-88459914D01*
X153235703Y-88086827D01*
X152862616Y-87837539D01*
X152422530Y-87750000D01*
X152377470Y-87750000D01*
X151937384Y-87837539D01*
X151564297Y-88086827D01*
X151315009Y-88459914D01*
X151227470Y-88900000D01*
X151315009Y-89340086D01*
X151564297Y-89713173D01*
X151937384Y-89962461D01*
X152377470Y-90050000D01*
X152422530Y-90050000D01*
X152862616Y-89962461D01*
X153235703Y-89713173D01*
X153484991Y-89340086D01*
X153487992Y-89325000D01*
X154686000Y-89325000D01*
X154821657Y-89298016D01*
X154848641Y-89292649D01*
X154986520Y-89200520D01*
X157182000Y-87005041D01*
X157182000Y-88469959D01*
X154636960Y-91015000D01*
X153487992Y-91015000D01*
X153484991Y-90999914D01*
X153235703Y-90626827D01*
X152862616Y-90377539D01*
X152422530Y-90290000D01*
X152377470Y-90290000D01*
X151937384Y-90377539D01*
X151564297Y-90626827D01*
X151315009Y-90999914D01*
X151227470Y-91440000D01*
X151315009Y-91880086D01*
X151564297Y-92253173D01*
X151937384Y-92502461D01*
X152377470Y-92590000D01*
X152422530Y-92590000D01*
X152862616Y-92502461D01*
X153235703Y-92253173D01*
X153484991Y-91880086D01*
X153487992Y-91865000D01*
X154813000Y-91865000D01*
X154948657Y-91838016D01*
X154975641Y-91832649D01*
X155113520Y-91740520D01*
X157817000Y-89037041D01*
X157817000Y-89866959D01*
X154128960Y-93555000D01*
X153487992Y-93555000D01*
X153484991Y-93539914D01*
X153235703Y-93166827D01*
X152862616Y-92917539D01*
X152422530Y-92830000D01*
X152377470Y-92830000D01*
X151937384Y-92917539D01*
X151564297Y-93166827D01*
X151315009Y-93539914D01*
X151227470Y-93980000D01*
X151315009Y-94420086D01*
X151564297Y-94793173D01*
X151937384Y-95042461D01*
X152377470Y-95130000D01*
X152422530Y-95130000D01*
X152862616Y-95042461D01*
X153235703Y-94793173D01*
X153484991Y-94420086D01*
X153487992Y-94405000D01*
X154305000Y-94405000D01*
X154440657Y-94378016D01*
X154467641Y-94372649D01*
X154605520Y-94280520D01*
X158542521Y-90343520D01*
X158634649Y-90205641D01*
X158667000Y-90043000D01*
X158667000Y-81075040D01*
X159513039Y-80229001D01*
X159630824Y-80229104D01*
X159851429Y-80137952D01*
X160020359Y-79969317D01*
X160111896Y-79748871D01*
X160112104Y-79510176D01*
X160020952Y-79289571D01*
X159852317Y-79120641D01*
X159636811Y-79031155D01*
X159724429Y-78994952D01*
X159893359Y-78826317D01*
X159984896Y-78605871D01*
X159985104Y-78367176D01*
X159893952Y-78146571D01*
X159725317Y-77977641D01*
X159550846Y-77905195D01*
X159640040Y-77816001D01*
X159757824Y-77816104D01*
X159978429Y-77724952D01*
X160147359Y-77556317D01*
X160238896Y-77335871D01*
X160239104Y-77097176D01*
X160147952Y-76876571D01*
X159979317Y-76707641D01*
X159758871Y-76616104D01*
X159520176Y-76615896D01*
X159388905Y-76670136D01*
X159640040Y-76419001D01*
X159757824Y-76419104D01*
X159978429Y-76327952D01*
X160147359Y-76159317D01*
X160238896Y-75938871D01*
X160239104Y-75700176D01*
X160147952Y-75479571D01*
X159979317Y-75310641D01*
X159758871Y-75219104D01*
X159520176Y-75218896D01*
X159299571Y-75310048D01*
X159130641Y-75478683D01*
X159039104Y-75699129D01*
X159039000Y-75817959D01*
X156036480Y-78820480D01*
X155944351Y-78958359D01*
X155944351Y-78958360D01*
X155912000Y-79121000D01*
X155912000Y-83008960D01*
X153291150Y-85629810D01*
X153235703Y-85546827D01*
X152862616Y-85297539D01*
X152422530Y-85210000D01*
X152377470Y-85210000D01*
X151937384Y-85297539D01*
X151564297Y-85546827D01*
X151315009Y-85919914D01*
X151227470Y-86360000D01*
X150235000Y-86360000D01*
X150235000Y-83820000D01*
X151227470Y-83820000D01*
X151315009Y-84260086D01*
X151564297Y-84633173D01*
X151937384Y-84882461D01*
X152377470Y-84970000D01*
X152422530Y-84970000D01*
X152862616Y-84882461D01*
X153235703Y-84633173D01*
X153484991Y-84260086D01*
X153572530Y-83820000D01*
X153484991Y-83379914D01*
X153235703Y-83006827D01*
X152862616Y-82757539D01*
X152422530Y-82670000D01*
X152377470Y-82670000D01*
X151937384Y-82757539D01*
X151564297Y-83006827D01*
X151315009Y-83379914D01*
X151227470Y-83820000D01*
X150235000Y-83820000D01*
X150235000Y-81280000D01*
X151227470Y-81280000D01*
X151315009Y-81720086D01*
X151564297Y-82093173D01*
X151937384Y-82342461D01*
X152377470Y-82430000D01*
X152422530Y-82430000D01*
X152862616Y-82342461D01*
X153235703Y-82093173D01*
X153484991Y-81720086D01*
X153572530Y-81280000D01*
X153484991Y-80839914D01*
X153235703Y-80466827D01*
X152862616Y-80217539D01*
X152422530Y-80130000D01*
X152377470Y-80130000D01*
X151937384Y-80217539D01*
X151564297Y-80466827D01*
X151315009Y-80839914D01*
X151227470Y-81280000D01*
X150235000Y-81280000D01*
X150235000Y-78740000D01*
X151227470Y-78740000D01*
X151315009Y-79180086D01*
X151564297Y-79553173D01*
X151937384Y-79802461D01*
X152377470Y-79890000D01*
X152422530Y-79890000D01*
X152862616Y-79802461D01*
X153235703Y-79553173D01*
X153484991Y-79180086D01*
X153572530Y-78740000D01*
X153484991Y-78299914D01*
X153235703Y-77926827D01*
X152862616Y-77677539D01*
X152422530Y-77590000D01*
X152377470Y-77590000D01*
X151937384Y-77677539D01*
X151564297Y-77926827D01*
X151315009Y-78299914D01*
X151227470Y-78740000D01*
X150235000Y-78740000D01*
X150235000Y-76200000D01*
X151227470Y-76200000D01*
X151315009Y-76640086D01*
X151564297Y-77013173D01*
X151937384Y-77262461D01*
X152377470Y-77350000D01*
X152422530Y-77350000D01*
X152862616Y-77262461D01*
X153235703Y-77013173D01*
X153484991Y-76640086D01*
X153572530Y-76200000D01*
X153484991Y-75759914D01*
X153235703Y-75386827D01*
X152862616Y-75137539D01*
X152422530Y-75050000D01*
X152377470Y-75050000D01*
X151937384Y-75137539D01*
X151564297Y-75386827D01*
X151315009Y-75759914D01*
X151227470Y-76200000D01*
X150235000Y-76200000D01*
X150235000Y-71426000D01*
X150942000Y-71426000D01*
X150942000Y-72090938D01*
X151034562Y-72314404D01*
X151205595Y-72485437D01*
X151429061Y-72578000D01*
X152035613Y-72578000D01*
X151937384Y-72597539D01*
X151564297Y-72846827D01*
X151315009Y-73219914D01*
X151227470Y-73660000D01*
X151315009Y-74100086D01*
X151564297Y-74473173D01*
X151937384Y-74722461D01*
X152377470Y-74810000D01*
X152422530Y-74810000D01*
X152862616Y-74722461D01*
X153235703Y-74473173D01*
X153484991Y-74100086D01*
X153572530Y-73660000D01*
X153484991Y-73219914D01*
X153235703Y-72846827D01*
X152862616Y-72597539D01*
X152764387Y-72578000D01*
X153370939Y-72578000D01*
X153594405Y-72485437D01*
X153765438Y-72314404D01*
X153858000Y-72090938D01*
X153858000Y-71426000D01*
X153706000Y-71274000D01*
X152554000Y-71274000D01*
X152554000Y-71294000D01*
X152246000Y-71294000D01*
X152246000Y-71274000D01*
X151094000Y-71274000D01*
X150942000Y-71426000D01*
X150235000Y-71426000D01*
X150235000Y-70149062D01*
X150942000Y-70149062D01*
X150942000Y-70814000D01*
X151094000Y-70966000D01*
X152246000Y-70966000D01*
X152246000Y-69814000D01*
X152554000Y-69814000D01*
X152554000Y-70966000D01*
X153706000Y-70966000D01*
X153858000Y-70814000D01*
X153858000Y-70149062D01*
X153765438Y-69925596D01*
X153594405Y-69754563D01*
X153370939Y-69662000D01*
X152706000Y-69662000D01*
X152554000Y-69814000D01*
X152246000Y-69814000D01*
X152094000Y-69662000D01*
X151429061Y-69662000D01*
X151205595Y-69754563D01*
X151034562Y-69925596D01*
X150942000Y-70149062D01*
X150235000Y-70149062D01*
X150235000Y-69587824D01*
X164372896Y-69587824D01*
X164464048Y-69808429D01*
X164632683Y-69977359D01*
X164853129Y-70068896D01*
X165091824Y-70069104D01*
X165208245Y-70021000D01*
X186259960Y-70021000D01*
X189432579Y-73193619D01*
X189415009Y-73219914D01*
X189327470Y-73660000D01*
X189415009Y-74100086D01*
X189432579Y-74126381D01*
X188294480Y-75264480D01*
X188202351Y-75402359D01*
X188202351Y-75402360D01*
X188170000Y-75565000D01*
X188170000Y-93416575D01*
X188133521Y-93361980D01*
X186337501Y-91565961D01*
X186337604Y-91448176D01*
X186246452Y-91227571D01*
X186077817Y-91058641D01*
X185857371Y-90967104D01*
X185618676Y-90966896D01*
X185398071Y-91058048D01*
X185292965Y-91162971D01*
X185188817Y-91058641D01*
X184968371Y-90967104D01*
X184729676Y-90966896D01*
X184509071Y-91058048D01*
X184340141Y-91226683D01*
X184248604Y-91447129D01*
X184248396Y-91685824D01*
X184339548Y-91906429D01*
X184508183Y-92075359D01*
X184728629Y-92166896D01*
X184847459Y-92167000D01*
X186646000Y-93965541D01*
X186646000Y-99080970D01*
X186562641Y-99164183D01*
X186471104Y-99384629D01*
X186470896Y-99623324D01*
X186562048Y-99843929D01*
X186730683Y-100012859D01*
X186951129Y-100104396D01*
X187189824Y-100104604D01*
X187232990Y-100086768D01*
X187232896Y-100194824D01*
X187324048Y-100415429D01*
X187492683Y-100584359D01*
X187713129Y-100675896D01*
X187951824Y-100676104D01*
X188083096Y-100621864D01*
X187659480Y-101045480D01*
X187567351Y-101183359D01*
X187567351Y-101183360D01*
X187535000Y-101346000D01*
X187535000Y-108795000D01*
X184077471Y-108795000D01*
X184114896Y-108704871D01*
X184115104Y-108466176D01*
X184023952Y-108245571D01*
X183940000Y-108161472D01*
X183940000Y-101854000D01*
X183907649Y-101691360D01*
X183907649Y-101691359D01*
X183815521Y-101553480D01*
X180170865Y-97908824D01*
X184819896Y-97908824D01*
X184911048Y-98129429D01*
X184995000Y-98213528D01*
X184995000Y-102997000D01*
X185021984Y-103132657D01*
X185027351Y-103159641D01*
X185119480Y-103297520D01*
X186089999Y-104268039D01*
X186089896Y-104385824D01*
X186181048Y-104606429D01*
X186349683Y-104775359D01*
X186570129Y-104866896D01*
X186808824Y-104867104D01*
X187029429Y-104775952D01*
X187198359Y-104607317D01*
X187289896Y-104386871D01*
X187290104Y-104148176D01*
X187198952Y-103927571D01*
X187030317Y-103758641D01*
X186809871Y-103667104D01*
X186691041Y-103667000D01*
X185845000Y-102820960D01*
X185845000Y-98213530D01*
X185928359Y-98130317D01*
X186019896Y-97909871D01*
X186020104Y-97671176D01*
X185928952Y-97450571D01*
X185760317Y-97281641D01*
X185539871Y-97190104D01*
X185301176Y-97189896D01*
X185080571Y-97281048D01*
X184911641Y-97449683D01*
X184820104Y-97670129D01*
X184819896Y-97908824D01*
X180170865Y-97908824D01*
X179416001Y-97153961D01*
X179416104Y-97036176D01*
X179324952Y-96815571D01*
X179156317Y-96646641D01*
X178935871Y-96555104D01*
X178697176Y-96554896D01*
X178476571Y-96646048D01*
X178307641Y-96814683D01*
X178216104Y-97035129D01*
X178215896Y-97273824D01*
X178307048Y-97494429D01*
X178475683Y-97663359D01*
X178696129Y-97754896D01*
X178814959Y-97755000D01*
X183090000Y-102030041D01*
X183090000Y-108161470D01*
X183006641Y-108244683D01*
X182915104Y-108465129D01*
X182914896Y-108703824D01*
X182952569Y-108795000D01*
X180636641Y-108795000D01*
X180616817Y-108775141D01*
X180396371Y-108683604D01*
X180157676Y-108683396D01*
X179937071Y-108774548D01*
X179768141Y-108943183D01*
X179676604Y-109163629D01*
X179676396Y-109402324D01*
X179767548Y-109622929D01*
X179936183Y-109791859D01*
X180156629Y-109883396D01*
X180395324Y-109883604D01*
X180615929Y-109792452D01*
X180763639Y-109645000D01*
X187783960Y-109645000D01*
X189432579Y-111293619D01*
X189415009Y-111319914D01*
X189327470Y-111760000D01*
X189415009Y-112200086D01*
X189664297Y-112573173D01*
X190037384Y-112822461D01*
X190477470Y-112910000D01*
X190522530Y-112910000D01*
X190962616Y-112822461D01*
X191335703Y-112573173D01*
X191584991Y-112200086D01*
X191672530Y-111760000D01*
X191584991Y-111319914D01*
X191335703Y-110946827D01*
X190962616Y-110697539D01*
X190654002Y-110636152D01*
X190654002Y-110517857D01*
X190878911Y-110627915D01*
X191388854Y-110375741D01*
X191763477Y-109947616D01*
X191907903Y-109598910D01*
X191796889Y-109374000D01*
X190654000Y-109374000D01*
X190654000Y-109394000D01*
X190346000Y-109394000D01*
X190346000Y-109374000D01*
X190326000Y-109374000D01*
X190326000Y-109066000D01*
X190346000Y-109066000D01*
X190346000Y-109046000D01*
X190654000Y-109046000D01*
X190654000Y-109066000D01*
X191796889Y-109066000D01*
X191907903Y-108841090D01*
X191763477Y-108492384D01*
X191388854Y-108064259D01*
X190878911Y-107812085D01*
X190654002Y-107922143D01*
X190654002Y-107803848D01*
X190962616Y-107742461D01*
X191335703Y-107493173D01*
X191584991Y-107120086D01*
X191672530Y-106680000D01*
X191584991Y-106239914D01*
X191335703Y-105866827D01*
X190962616Y-105617539D01*
X190522530Y-105530000D01*
X190477470Y-105530000D01*
X190037384Y-105617539D01*
X189664297Y-105866827D01*
X189415009Y-106239914D01*
X189327470Y-106680000D01*
X189415009Y-107120086D01*
X189664297Y-107493173D01*
X190037384Y-107742461D01*
X190345998Y-107803848D01*
X190345998Y-107922143D01*
X190121089Y-107812085D01*
X189611146Y-108064259D01*
X189309499Y-108408986D01*
X189294452Y-108372571D01*
X189210500Y-108288472D01*
X189210500Y-106157540D01*
X190144310Y-105223730D01*
X190477470Y-105290000D01*
X190522530Y-105290000D01*
X190962616Y-105202461D01*
X191335703Y-104953173D01*
X191584991Y-104580086D01*
X191672530Y-104140000D01*
X191584991Y-103699914D01*
X191335703Y-103326827D01*
X190962616Y-103077539D01*
X190522530Y-102990000D01*
X190477470Y-102990000D01*
X190037384Y-103077539D01*
X189664297Y-103326827D01*
X189415009Y-103699914D01*
X189327470Y-104140000D01*
X189415009Y-104580086D01*
X189483448Y-104682512D01*
X188484980Y-105680980D01*
X188392851Y-105818859D01*
X188392851Y-105818860D01*
X188385000Y-105858330D01*
X188385000Y-101600000D01*
X189327470Y-101600000D01*
X189415009Y-102040086D01*
X189664297Y-102413173D01*
X190037384Y-102662461D01*
X190477470Y-102750000D01*
X190522530Y-102750000D01*
X190962616Y-102662461D01*
X191335703Y-102413173D01*
X191584991Y-102040086D01*
X191672530Y-101600000D01*
X191584991Y-101159914D01*
X191335703Y-100786827D01*
X190962616Y-100537539D01*
X190522530Y-100450000D01*
X190477470Y-100450000D01*
X190037384Y-100537539D01*
X189664297Y-100786827D01*
X189415009Y-101159914D01*
X189327470Y-101600000D01*
X188385000Y-101600000D01*
X188385000Y-101522040D01*
X188895521Y-101011520D01*
X188987649Y-100873641D01*
X189020000Y-100711000D01*
X189020000Y-99060000D01*
X189327470Y-99060000D01*
X189415009Y-99500086D01*
X189664297Y-99873173D01*
X190037384Y-100122461D01*
X190477470Y-100210000D01*
X190522530Y-100210000D01*
X190962616Y-100122461D01*
X191335703Y-99873173D01*
X191584991Y-99500086D01*
X191672530Y-99060000D01*
X191584991Y-98619914D01*
X191335703Y-98246827D01*
X190962616Y-97997539D01*
X190522530Y-97910000D01*
X190477470Y-97910000D01*
X190037384Y-97997539D01*
X189664297Y-98246827D01*
X189415009Y-98619914D01*
X189327470Y-99060000D01*
X189020000Y-99060000D01*
X189020000Y-96520000D01*
X189327470Y-96520000D01*
X189415009Y-96960086D01*
X189664297Y-97333173D01*
X190037384Y-97582461D01*
X190477470Y-97670000D01*
X190522530Y-97670000D01*
X190962616Y-97582461D01*
X191335703Y-97333173D01*
X191584991Y-96960086D01*
X191672530Y-96520000D01*
X191584991Y-96079914D01*
X191335703Y-95706827D01*
X190962616Y-95457539D01*
X190522530Y-95370000D01*
X190477470Y-95370000D01*
X190037384Y-95457539D01*
X189664297Y-95706827D01*
X189415009Y-96079914D01*
X189327470Y-96520000D01*
X189020000Y-96520000D01*
X189020000Y-93980000D01*
X189327470Y-93980000D01*
X189415009Y-94420086D01*
X189664297Y-94793173D01*
X190037384Y-95042461D01*
X190477470Y-95130000D01*
X190522530Y-95130000D01*
X190962616Y-95042461D01*
X191335703Y-94793173D01*
X191584991Y-94420086D01*
X191672530Y-93980000D01*
X191584991Y-93539914D01*
X191335703Y-93166827D01*
X190962616Y-92917539D01*
X190522530Y-92830000D01*
X190477470Y-92830000D01*
X190037384Y-92917539D01*
X189664297Y-93166827D01*
X189415009Y-93539914D01*
X189327470Y-93980000D01*
X189020000Y-93980000D01*
X189020000Y-91440000D01*
X189327470Y-91440000D01*
X189415009Y-91880086D01*
X189664297Y-92253173D01*
X190037384Y-92502461D01*
X190477470Y-92590000D01*
X190522530Y-92590000D01*
X190962616Y-92502461D01*
X191335703Y-92253173D01*
X191584991Y-91880086D01*
X191672530Y-91440000D01*
X191584991Y-90999914D01*
X191335703Y-90626827D01*
X190962616Y-90377539D01*
X190522530Y-90290000D01*
X190477470Y-90290000D01*
X190037384Y-90377539D01*
X189664297Y-90626827D01*
X189415009Y-90999914D01*
X189327470Y-91440000D01*
X189020000Y-91440000D01*
X189020000Y-88900000D01*
X189327470Y-88900000D01*
X189415009Y-89340086D01*
X189664297Y-89713173D01*
X190037384Y-89962461D01*
X190477470Y-90050000D01*
X190522530Y-90050000D01*
X190962616Y-89962461D01*
X191335703Y-89713173D01*
X191584991Y-89340086D01*
X191672530Y-88900000D01*
X191584991Y-88459914D01*
X191335703Y-88086827D01*
X190962616Y-87837539D01*
X190522530Y-87750000D01*
X190477470Y-87750000D01*
X190037384Y-87837539D01*
X189664297Y-88086827D01*
X189415009Y-88459914D01*
X189327470Y-88900000D01*
X189020000Y-88900000D01*
X189020000Y-86360000D01*
X189327470Y-86360000D01*
X189415009Y-86800086D01*
X189664297Y-87173173D01*
X190037384Y-87422461D01*
X190477470Y-87510000D01*
X190522530Y-87510000D01*
X190962616Y-87422461D01*
X191335703Y-87173173D01*
X191584991Y-86800086D01*
X191672530Y-86360000D01*
X191584991Y-85919914D01*
X191335703Y-85546827D01*
X190962616Y-85297539D01*
X190522530Y-85210000D01*
X190477470Y-85210000D01*
X190037384Y-85297539D01*
X189664297Y-85546827D01*
X189415009Y-85919914D01*
X189327470Y-86360000D01*
X189020000Y-86360000D01*
X189020000Y-83820000D01*
X189327470Y-83820000D01*
X189415009Y-84260086D01*
X189664297Y-84633173D01*
X190037384Y-84882461D01*
X190477470Y-84970000D01*
X190522530Y-84970000D01*
X190962616Y-84882461D01*
X191335703Y-84633173D01*
X191584991Y-84260086D01*
X191672530Y-83820000D01*
X191584991Y-83379914D01*
X191335703Y-83006827D01*
X190962616Y-82757539D01*
X190522530Y-82670000D01*
X190477470Y-82670000D01*
X190037384Y-82757539D01*
X189664297Y-83006827D01*
X189415009Y-83379914D01*
X189327470Y-83820000D01*
X189020000Y-83820000D01*
X189020000Y-81280000D01*
X189327470Y-81280000D01*
X189415009Y-81720086D01*
X189664297Y-82093173D01*
X190037384Y-82342461D01*
X190477470Y-82430000D01*
X190522530Y-82430000D01*
X190962616Y-82342461D01*
X191335703Y-82093173D01*
X191584991Y-81720086D01*
X191672530Y-81280000D01*
X191584991Y-80839914D01*
X191335703Y-80466827D01*
X190962616Y-80217539D01*
X190522530Y-80130000D01*
X190477470Y-80130000D01*
X190037384Y-80217539D01*
X189664297Y-80466827D01*
X189415009Y-80839914D01*
X189327470Y-81280000D01*
X189020000Y-81280000D01*
X189020000Y-78740000D01*
X189327470Y-78740000D01*
X189415009Y-79180086D01*
X189664297Y-79553173D01*
X190037384Y-79802461D01*
X190477470Y-79890000D01*
X190522530Y-79890000D01*
X190962616Y-79802461D01*
X191335703Y-79553173D01*
X191584991Y-79180086D01*
X191672530Y-78740000D01*
X191584991Y-78299914D01*
X191335703Y-77926827D01*
X190962616Y-77677539D01*
X190522530Y-77590000D01*
X190477470Y-77590000D01*
X190037384Y-77677539D01*
X189664297Y-77926827D01*
X189415009Y-78299914D01*
X189327470Y-78740000D01*
X189020000Y-78740000D01*
X189020000Y-76200000D01*
X189327470Y-76200000D01*
X189415009Y-76640086D01*
X189664297Y-77013173D01*
X190037384Y-77262461D01*
X190477470Y-77350000D01*
X190522530Y-77350000D01*
X190962616Y-77262461D01*
X191335703Y-77013173D01*
X191584991Y-76640086D01*
X191672530Y-76200000D01*
X191584991Y-75759914D01*
X191335703Y-75386827D01*
X190962616Y-75137539D01*
X190522530Y-75050000D01*
X190477470Y-75050000D01*
X190037384Y-75137539D01*
X189664297Y-75386827D01*
X189415009Y-75759914D01*
X189327470Y-76200000D01*
X189020000Y-76200000D01*
X189020000Y-75741040D01*
X190038381Y-74722659D01*
X190477470Y-74810000D01*
X190522530Y-74810000D01*
X190962616Y-74722461D01*
X191335703Y-74473173D01*
X191584991Y-74100086D01*
X191672530Y-73660000D01*
X191584991Y-73219914D01*
X191335703Y-72846827D01*
X190962616Y-72597539D01*
X190864387Y-72578000D01*
X191470939Y-72578000D01*
X191694405Y-72485437D01*
X191865438Y-72314404D01*
X191958000Y-72090938D01*
X191958000Y-71426000D01*
X191806000Y-71274000D01*
X190654000Y-71274000D01*
X190654000Y-71294000D01*
X190346000Y-71294000D01*
X190346000Y-71274000D01*
X189194000Y-71274000D01*
X189042000Y-71426000D01*
X189042000Y-71600960D01*
X187590102Y-70149062D01*
X189042000Y-70149062D01*
X189042000Y-70814000D01*
X189194000Y-70966000D01*
X190346000Y-70966000D01*
X190346000Y-69814000D01*
X190654000Y-69814000D01*
X190654000Y-70966000D01*
X191806000Y-70966000D01*
X191958000Y-70814000D01*
X191958000Y-70149062D01*
X191865438Y-69925596D01*
X191694405Y-69754563D01*
X191470939Y-69662000D01*
X190806000Y-69662000D01*
X190654000Y-69814000D01*
X190346000Y-69814000D01*
X190194000Y-69662000D01*
X189529061Y-69662000D01*
X189305595Y-69754563D01*
X189134562Y-69925596D01*
X189042000Y-70149062D01*
X187590102Y-70149062D01*
X186736520Y-69295480D01*
X186598641Y-69203351D01*
X186571657Y-69197984D01*
X186436000Y-69171000D01*
X165499070Y-69171000D01*
X165481952Y-69129571D01*
X165313317Y-68960641D01*
X165092871Y-68869104D01*
X164854176Y-68868896D01*
X164633571Y-68960048D01*
X164464641Y-69128683D01*
X164373104Y-69349129D01*
X164372896Y-69587824D01*
X150235000Y-69587824D01*
X150235000Y-67918000D01*
X192665000Y-67918000D01*
X192665000Y-120613064D01*
M02*
