G04 #@! TF.FileFunction,Legend,Top*
%FSLAX46Y46*%
G04 Gerber Fmt 4.6, Leading zero omitted, Abs format (unit mm)*
G04 Created by KiCad (PCBNEW 4.0.6-e0-6349~52~ubuntu16.10.1) date Sun Mar 19 23:18:16 2017*
%MOMM*%
%LPD*%
G01*
G04 APERTURE LIST*
%ADD10C,0.100000*%
%ADD11C,0.175000*%
%ADD12C,0.500000*%
%ADD13C,0.200000*%
%ADD14C,0.127000*%
%ADD15C,0.150000*%
%ADD16C,0.120000*%
%ADD17C,0.010000*%
%ADD18C,0.125000*%
%ADD19R,0.800000X1.750000*%
%ADD20R,2.500000X2.400000*%
%ADD21R,2.000000X2.300000*%
%ADD22R,1.600000X2.300000*%
%ADD23O,2.900000X1.300000*%
%ADD24O,1.300000X2.900000*%
%ADD25R,6.400000X6.400000*%
%ADD26R,1.200000X1.150000*%
%ADD27R,1.300000X1.200000*%
%ADD28R,1.300000X0.900000*%
%ADD29R,0.900000X1.300000*%
%ADD30R,1.200000X1.300000*%
%ADD31R,2.100000X2.100000*%
%ADD32O,2.100000X2.100000*%
%ADD33R,1.150000X1.200000*%
%ADD34R,1.400000X2.000000*%
%ADD35O,1.250000X0.700000*%
%ADD36O,0.700000X1.250000*%
%ADD37R,2.075000X2.075000*%
%ADD38R,2.400000X4.200000*%
%ADD39R,2.400000X1.900000*%
G04 APERTURE END LIST*
D10*
D11*
X192721667Y-84000166D02*
X192388333Y-84233500D01*
X192721667Y-84400166D02*
X192021667Y-84400166D01*
X192021667Y-84133500D01*
X192055000Y-84066833D01*
X192088333Y-84033500D01*
X192155000Y-84000166D01*
X192255000Y-84000166D01*
X192321667Y-84033500D01*
X192355000Y-84066833D01*
X192388333Y-84133500D01*
X192388333Y-84400166D01*
X192021667Y-83766833D02*
X192721667Y-83300166D01*
X192021667Y-83300166D02*
X192721667Y-83766833D01*
X150878333Y-110993334D02*
X150178333Y-111226667D01*
X150878333Y-111460000D01*
X150178333Y-111693334D02*
X150878333Y-111693334D01*
X150178333Y-112026667D02*
X150878333Y-112026667D01*
X150178333Y-112426667D01*
X150878333Y-112426667D01*
X150845000Y-108686667D02*
X150878333Y-108620001D01*
X150878333Y-108520001D01*
X150845000Y-108420001D01*
X150778333Y-108353334D01*
X150711667Y-108320001D01*
X150578333Y-108286667D01*
X150478333Y-108286667D01*
X150345000Y-108320001D01*
X150278333Y-108353334D01*
X150211667Y-108420001D01*
X150178333Y-108520001D01*
X150178333Y-108586667D01*
X150211667Y-108686667D01*
X150245000Y-108720001D01*
X150478333Y-108720001D01*
X150478333Y-108586667D01*
X150178333Y-109020001D02*
X150878333Y-109020001D01*
X150178333Y-109420001D01*
X150878333Y-109420001D01*
X150178333Y-109753334D02*
X150878333Y-109753334D01*
X150878333Y-109920000D01*
X150845000Y-110020000D01*
X150778333Y-110086667D01*
X150711667Y-110120000D01*
X150578333Y-110153334D01*
X150478333Y-110153334D01*
X150345000Y-110120000D01*
X150278333Y-110086667D01*
X150211667Y-110020000D01*
X150178333Y-109920000D01*
X150178333Y-109753334D01*
X150178333Y-105830000D02*
X150878333Y-105830000D01*
X150878333Y-105996666D01*
X150845000Y-106096666D01*
X150778333Y-106163333D01*
X150711667Y-106196666D01*
X150578333Y-106230000D01*
X150478333Y-106230000D01*
X150345000Y-106196666D01*
X150278333Y-106163333D01*
X150211667Y-106096666D01*
X150178333Y-105996666D01*
X150178333Y-105830000D01*
X150178333Y-106896666D02*
X150178333Y-106496666D01*
X150178333Y-106696666D02*
X150878333Y-106696666D01*
X150778333Y-106630000D01*
X150711667Y-106563333D01*
X150678333Y-106496666D01*
X150878333Y-107130000D02*
X150878333Y-107563333D01*
X150611667Y-107330000D01*
X150611667Y-107430000D01*
X150578333Y-107496667D01*
X150545000Y-107530000D01*
X150478333Y-107563333D01*
X150311667Y-107563333D01*
X150245000Y-107530000D01*
X150211667Y-107496667D01*
X150178333Y-107430000D01*
X150178333Y-107230000D01*
X150211667Y-107163333D01*
X150245000Y-107130000D01*
X150178333Y-103290000D02*
X150878333Y-103290000D01*
X150878333Y-103456666D01*
X150845000Y-103556666D01*
X150778333Y-103623333D01*
X150711667Y-103656666D01*
X150578333Y-103690000D01*
X150478333Y-103690000D01*
X150345000Y-103656666D01*
X150278333Y-103623333D01*
X150211667Y-103556666D01*
X150178333Y-103456666D01*
X150178333Y-103290000D01*
X150178333Y-104356666D02*
X150178333Y-103956666D01*
X150178333Y-104156666D02*
X150878333Y-104156666D01*
X150778333Y-104090000D01*
X150711667Y-104023333D01*
X150678333Y-103956666D01*
X150811667Y-104623333D02*
X150845000Y-104656667D01*
X150878333Y-104723333D01*
X150878333Y-104890000D01*
X150845000Y-104956667D01*
X150811667Y-104990000D01*
X150745000Y-105023333D01*
X150678333Y-105023333D01*
X150578333Y-104990000D01*
X150178333Y-104590000D01*
X150178333Y-105023333D01*
X150178333Y-100750000D02*
X150878333Y-100750000D01*
X150878333Y-100916666D01*
X150845000Y-101016666D01*
X150778333Y-101083333D01*
X150711667Y-101116666D01*
X150578333Y-101150000D01*
X150478333Y-101150000D01*
X150345000Y-101116666D01*
X150278333Y-101083333D01*
X150211667Y-101016666D01*
X150178333Y-100916666D01*
X150178333Y-100750000D01*
X150178333Y-101816666D02*
X150178333Y-101416666D01*
X150178333Y-101616666D02*
X150878333Y-101616666D01*
X150778333Y-101550000D01*
X150711667Y-101483333D01*
X150678333Y-101416666D01*
X150645000Y-102416667D02*
X150178333Y-102416667D01*
X150911667Y-102250000D02*
X150411667Y-102083333D01*
X150411667Y-102516667D01*
X150178333Y-95670000D02*
X150878333Y-95670000D01*
X150878333Y-95836666D01*
X150845000Y-95936666D01*
X150778333Y-96003333D01*
X150711667Y-96036666D01*
X150578333Y-96070000D01*
X150478333Y-96070000D01*
X150345000Y-96036666D01*
X150278333Y-96003333D01*
X150211667Y-95936666D01*
X150178333Y-95836666D01*
X150178333Y-95670000D01*
X150811667Y-96336666D02*
X150845000Y-96370000D01*
X150878333Y-96436666D01*
X150878333Y-96603333D01*
X150845000Y-96670000D01*
X150811667Y-96703333D01*
X150745000Y-96736666D01*
X150678333Y-96736666D01*
X150578333Y-96703333D01*
X150178333Y-96303333D01*
X150178333Y-96736666D01*
X150878333Y-97336667D02*
X150878333Y-97203333D01*
X150845000Y-97136667D01*
X150811667Y-97103333D01*
X150711667Y-97036667D01*
X150578333Y-97003333D01*
X150311667Y-97003333D01*
X150245000Y-97036667D01*
X150211667Y-97070000D01*
X150178333Y-97136667D01*
X150178333Y-97270000D01*
X150211667Y-97336667D01*
X150245000Y-97370000D01*
X150311667Y-97403333D01*
X150478333Y-97403333D01*
X150545000Y-97370000D01*
X150578333Y-97336667D01*
X150611667Y-97270000D01*
X150611667Y-97136667D01*
X150578333Y-97070000D01*
X150545000Y-97036667D01*
X150478333Y-97003333D01*
X150178333Y-93130000D02*
X150878333Y-93130000D01*
X150878333Y-93296666D01*
X150845000Y-93396666D01*
X150778333Y-93463333D01*
X150711667Y-93496666D01*
X150578333Y-93530000D01*
X150478333Y-93530000D01*
X150345000Y-93496666D01*
X150278333Y-93463333D01*
X150211667Y-93396666D01*
X150178333Y-93296666D01*
X150178333Y-93130000D01*
X150811667Y-93796666D02*
X150845000Y-93830000D01*
X150878333Y-93896666D01*
X150878333Y-94063333D01*
X150845000Y-94130000D01*
X150811667Y-94163333D01*
X150745000Y-94196666D01*
X150678333Y-94196666D01*
X150578333Y-94163333D01*
X150178333Y-93763333D01*
X150178333Y-94196666D01*
X150878333Y-94830000D02*
X150878333Y-94496667D01*
X150545000Y-94463333D01*
X150578333Y-94496667D01*
X150611667Y-94563333D01*
X150611667Y-94730000D01*
X150578333Y-94796667D01*
X150545000Y-94830000D01*
X150478333Y-94863333D01*
X150311667Y-94863333D01*
X150245000Y-94830000D01*
X150211667Y-94796667D01*
X150178333Y-94730000D01*
X150178333Y-94563333D01*
X150211667Y-94496667D01*
X150245000Y-94463333D01*
X150178333Y-90590000D02*
X150878333Y-90590000D01*
X150878333Y-90756666D01*
X150845000Y-90856666D01*
X150778333Y-90923333D01*
X150711667Y-90956666D01*
X150578333Y-90990000D01*
X150478333Y-90990000D01*
X150345000Y-90956666D01*
X150278333Y-90923333D01*
X150211667Y-90856666D01*
X150178333Y-90756666D01*
X150178333Y-90590000D01*
X150878333Y-91223333D02*
X150878333Y-91656666D01*
X150611667Y-91423333D01*
X150611667Y-91523333D01*
X150578333Y-91590000D01*
X150545000Y-91623333D01*
X150478333Y-91656666D01*
X150311667Y-91656666D01*
X150245000Y-91623333D01*
X150211667Y-91590000D01*
X150178333Y-91523333D01*
X150178333Y-91323333D01*
X150211667Y-91256666D01*
X150245000Y-91223333D01*
X150878333Y-91890000D02*
X150878333Y-92323333D01*
X150611667Y-92090000D01*
X150611667Y-92190000D01*
X150578333Y-92256667D01*
X150545000Y-92290000D01*
X150478333Y-92323333D01*
X150311667Y-92323333D01*
X150245000Y-92290000D01*
X150211667Y-92256667D01*
X150178333Y-92190000D01*
X150178333Y-91990000D01*
X150211667Y-91923333D01*
X150245000Y-91890000D01*
X150178333Y-88050000D02*
X150878333Y-88050000D01*
X150878333Y-88216666D01*
X150845000Y-88316666D01*
X150778333Y-88383333D01*
X150711667Y-88416666D01*
X150578333Y-88450000D01*
X150478333Y-88450000D01*
X150345000Y-88416666D01*
X150278333Y-88383333D01*
X150211667Y-88316666D01*
X150178333Y-88216666D01*
X150178333Y-88050000D01*
X150878333Y-88683333D02*
X150878333Y-89116666D01*
X150611667Y-88883333D01*
X150611667Y-88983333D01*
X150578333Y-89050000D01*
X150545000Y-89083333D01*
X150478333Y-89116666D01*
X150311667Y-89116666D01*
X150245000Y-89083333D01*
X150211667Y-89050000D01*
X150178333Y-88983333D01*
X150178333Y-88783333D01*
X150211667Y-88716666D01*
X150245000Y-88683333D01*
X150811667Y-89383333D02*
X150845000Y-89416667D01*
X150878333Y-89483333D01*
X150878333Y-89650000D01*
X150845000Y-89716667D01*
X150811667Y-89750000D01*
X150745000Y-89783333D01*
X150678333Y-89783333D01*
X150578333Y-89750000D01*
X150178333Y-89350000D01*
X150178333Y-89783333D01*
X150178333Y-85510000D02*
X150878333Y-85510000D01*
X150878333Y-85676666D01*
X150845000Y-85776666D01*
X150778333Y-85843333D01*
X150711667Y-85876666D01*
X150578333Y-85910000D01*
X150478333Y-85910000D01*
X150345000Y-85876666D01*
X150278333Y-85843333D01*
X150211667Y-85776666D01*
X150178333Y-85676666D01*
X150178333Y-85510000D01*
X150878333Y-86143333D02*
X150878333Y-86576666D01*
X150611667Y-86343333D01*
X150611667Y-86443333D01*
X150578333Y-86510000D01*
X150545000Y-86543333D01*
X150478333Y-86576666D01*
X150311667Y-86576666D01*
X150245000Y-86543333D01*
X150211667Y-86510000D01*
X150178333Y-86443333D01*
X150178333Y-86243333D01*
X150211667Y-86176666D01*
X150245000Y-86143333D01*
X150878333Y-87210000D02*
X150878333Y-86876667D01*
X150545000Y-86843333D01*
X150578333Y-86876667D01*
X150611667Y-86943333D01*
X150611667Y-87110000D01*
X150578333Y-87176667D01*
X150545000Y-87210000D01*
X150478333Y-87243333D01*
X150311667Y-87243333D01*
X150245000Y-87210000D01*
X150211667Y-87176667D01*
X150178333Y-87110000D01*
X150178333Y-86943333D01*
X150211667Y-86876667D01*
X150245000Y-86843333D01*
X150178333Y-82970000D02*
X150878333Y-82970000D01*
X150878333Y-83136666D01*
X150845000Y-83236666D01*
X150778333Y-83303333D01*
X150711667Y-83336666D01*
X150578333Y-83370000D01*
X150478333Y-83370000D01*
X150345000Y-83336666D01*
X150278333Y-83303333D01*
X150211667Y-83236666D01*
X150178333Y-83136666D01*
X150178333Y-82970000D01*
X150878333Y-83603333D02*
X150878333Y-84036666D01*
X150611667Y-83803333D01*
X150611667Y-83903333D01*
X150578333Y-83970000D01*
X150545000Y-84003333D01*
X150478333Y-84036666D01*
X150311667Y-84036666D01*
X150245000Y-84003333D01*
X150211667Y-83970000D01*
X150178333Y-83903333D01*
X150178333Y-83703333D01*
X150211667Y-83636666D01*
X150245000Y-83603333D01*
X150645000Y-84636667D02*
X150178333Y-84636667D01*
X150911667Y-84470000D02*
X150411667Y-84303333D01*
X150411667Y-84736667D01*
X150211667Y-80413333D02*
X150178333Y-80513333D01*
X150178333Y-80680000D01*
X150211667Y-80746667D01*
X150245000Y-80780000D01*
X150311667Y-80813333D01*
X150378333Y-80813333D01*
X150445000Y-80780000D01*
X150478333Y-80746667D01*
X150511667Y-80680000D01*
X150545000Y-80546667D01*
X150578333Y-80480000D01*
X150611667Y-80446667D01*
X150678333Y-80413333D01*
X150745000Y-80413333D01*
X150811667Y-80446667D01*
X150845000Y-80480000D01*
X150878333Y-80546667D01*
X150878333Y-80713333D01*
X150845000Y-80813333D01*
X150878333Y-81013334D02*
X150178333Y-81246667D01*
X150878333Y-81480000D01*
X150178333Y-81713334D02*
X150878333Y-81713334D01*
X150178333Y-82113334D01*
X150878333Y-82113334D01*
X150211667Y-77890000D02*
X150178333Y-77990000D01*
X150178333Y-78156667D01*
X150211667Y-78223334D01*
X150245000Y-78256667D01*
X150311667Y-78290000D01*
X150378333Y-78290000D01*
X150445000Y-78256667D01*
X150478333Y-78223334D01*
X150511667Y-78156667D01*
X150545000Y-78023334D01*
X150578333Y-77956667D01*
X150611667Y-77923334D01*
X150678333Y-77890000D01*
X150745000Y-77890000D01*
X150811667Y-77923334D01*
X150845000Y-77956667D01*
X150878333Y-78023334D01*
X150878333Y-78190000D01*
X150845000Y-78290000D01*
X150878333Y-78490001D02*
X150178333Y-78723334D01*
X150878333Y-78956667D01*
X150178333Y-79190001D02*
X150878333Y-79190001D01*
X150878333Y-79456667D01*
X150845000Y-79523334D01*
X150811667Y-79556667D01*
X150745000Y-79590001D01*
X150645000Y-79590001D01*
X150578333Y-79556667D01*
X150545000Y-79523334D01*
X150511667Y-79456667D01*
X150511667Y-79190001D01*
X150545000Y-75683334D02*
X150545000Y-75916667D01*
X150178333Y-76016667D02*
X150178333Y-75683334D01*
X150878333Y-75683334D01*
X150878333Y-76016667D01*
X150178333Y-76316667D02*
X150878333Y-76316667D01*
X150178333Y-76716667D01*
X150878333Y-76716667D01*
X150878333Y-72793333D02*
X150878333Y-73226666D01*
X150611667Y-72993333D01*
X150611667Y-73093333D01*
X150578333Y-73160000D01*
X150545000Y-73193333D01*
X150478333Y-73226666D01*
X150311667Y-73226666D01*
X150245000Y-73193333D01*
X150211667Y-73160000D01*
X150178333Y-73093333D01*
X150178333Y-72893333D01*
X150211667Y-72826666D01*
X150245000Y-72793333D01*
X150878333Y-73426667D02*
X150178333Y-73660000D01*
X150878333Y-73893333D01*
X150878333Y-74060000D02*
X150878333Y-74493333D01*
X150611667Y-74260000D01*
X150611667Y-74360000D01*
X150578333Y-74426667D01*
X150545000Y-74460000D01*
X150478333Y-74493333D01*
X150311667Y-74493333D01*
X150245000Y-74460000D01*
X150211667Y-74426667D01*
X150178333Y-74360000D01*
X150178333Y-74160000D01*
X150211667Y-74093333D01*
X150245000Y-74060000D01*
X150845000Y-70586667D02*
X150878333Y-70520001D01*
X150878333Y-70420001D01*
X150845000Y-70320001D01*
X150778333Y-70253334D01*
X150711667Y-70220001D01*
X150578333Y-70186667D01*
X150478333Y-70186667D01*
X150345000Y-70220001D01*
X150278333Y-70253334D01*
X150211667Y-70320001D01*
X150178333Y-70420001D01*
X150178333Y-70486667D01*
X150211667Y-70586667D01*
X150245000Y-70620001D01*
X150478333Y-70620001D01*
X150478333Y-70486667D01*
X150178333Y-70920001D02*
X150878333Y-70920001D01*
X150178333Y-71320001D01*
X150878333Y-71320001D01*
X150178333Y-71653334D02*
X150878333Y-71653334D01*
X150878333Y-71820000D01*
X150845000Y-71920000D01*
X150778333Y-71986667D01*
X150711667Y-72020000D01*
X150578333Y-72053334D01*
X150478333Y-72053334D01*
X150345000Y-72020000D01*
X150278333Y-71986667D01*
X150211667Y-71920000D01*
X150178333Y-71820000D01*
X150178333Y-71653334D01*
X192021667Y-112626667D02*
X192021667Y-112193334D01*
X192288333Y-112426667D01*
X192288333Y-112326667D01*
X192321667Y-112260000D01*
X192355000Y-112226667D01*
X192421667Y-112193334D01*
X192588333Y-112193334D01*
X192655000Y-112226667D01*
X192688333Y-112260000D01*
X192721667Y-112326667D01*
X192721667Y-112526667D01*
X192688333Y-112593334D01*
X192655000Y-112626667D01*
X192021667Y-111993333D02*
X192721667Y-111760000D01*
X192021667Y-111526667D01*
X192021667Y-111360000D02*
X192021667Y-110926667D01*
X192288333Y-111160000D01*
X192288333Y-111060000D01*
X192321667Y-110993333D01*
X192355000Y-110960000D01*
X192421667Y-110926667D01*
X192588333Y-110926667D01*
X192655000Y-110960000D01*
X192688333Y-110993333D01*
X192721667Y-111060000D01*
X192721667Y-111260000D01*
X192688333Y-111326667D01*
X192655000Y-111360000D01*
X192721667Y-110070000D02*
X192021667Y-110070000D01*
X192021667Y-109903334D01*
X192055000Y-109803334D01*
X192121667Y-109736667D01*
X192188333Y-109703334D01*
X192321667Y-109670000D01*
X192421667Y-109670000D01*
X192555000Y-109703334D01*
X192621667Y-109736667D01*
X192688333Y-109803334D01*
X192721667Y-109903334D01*
X192721667Y-110070000D01*
X192721667Y-109003334D02*
X192721667Y-109403334D01*
X192721667Y-109203334D02*
X192021667Y-109203334D01*
X192121667Y-109270000D01*
X192188333Y-109336667D01*
X192221667Y-109403334D01*
X192021667Y-108370000D02*
X192021667Y-108703333D01*
X192355000Y-108736667D01*
X192321667Y-108703333D01*
X192288333Y-108636667D01*
X192288333Y-108470000D01*
X192321667Y-108403333D01*
X192355000Y-108370000D01*
X192421667Y-108336667D01*
X192588333Y-108336667D01*
X192655000Y-108370000D01*
X192688333Y-108403333D01*
X192721667Y-108470000D01*
X192721667Y-108636667D01*
X192688333Y-108703333D01*
X192655000Y-108736667D01*
X192021667Y-81749833D02*
X192021667Y-81349833D01*
X192721667Y-81549833D02*
X192021667Y-81549833D01*
X192021667Y-81183167D02*
X192721667Y-80716500D01*
X192021667Y-80716500D02*
X192721667Y-81183167D01*
X192721667Y-107530000D02*
X192021667Y-107530000D01*
X192021667Y-107363334D01*
X192055000Y-107263334D01*
X192121667Y-107196667D01*
X192188333Y-107163334D01*
X192321667Y-107130000D01*
X192421667Y-107130000D01*
X192555000Y-107163334D01*
X192621667Y-107196667D01*
X192688333Y-107263334D01*
X192721667Y-107363334D01*
X192721667Y-107530000D01*
X192021667Y-106696667D02*
X192021667Y-106630000D01*
X192055000Y-106563334D01*
X192088333Y-106530000D01*
X192155000Y-106496667D01*
X192288333Y-106463334D01*
X192455000Y-106463334D01*
X192588333Y-106496667D01*
X192655000Y-106530000D01*
X192688333Y-106563334D01*
X192721667Y-106630000D01*
X192721667Y-106696667D01*
X192688333Y-106763334D01*
X192655000Y-106796667D01*
X192588333Y-106830000D01*
X192455000Y-106863334D01*
X192288333Y-106863334D01*
X192155000Y-106830000D01*
X192088333Y-106796667D01*
X192055000Y-106763334D01*
X192021667Y-106696667D01*
X192088333Y-106196667D02*
X192055000Y-106163333D01*
X192021667Y-106096667D01*
X192021667Y-105930000D01*
X192055000Y-105863333D01*
X192088333Y-105830000D01*
X192155000Y-105796667D01*
X192221667Y-105796667D01*
X192321667Y-105830000D01*
X192721667Y-106230000D01*
X192721667Y-105796667D01*
X192721667Y-104990000D02*
X192021667Y-104990000D01*
X192021667Y-104823334D01*
X192055000Y-104723334D01*
X192121667Y-104656667D01*
X192188333Y-104623334D01*
X192321667Y-104590000D01*
X192421667Y-104590000D01*
X192555000Y-104623334D01*
X192621667Y-104656667D01*
X192688333Y-104723334D01*
X192721667Y-104823334D01*
X192721667Y-104990000D01*
X192021667Y-104156667D02*
X192021667Y-104090000D01*
X192055000Y-104023334D01*
X192088333Y-103990000D01*
X192155000Y-103956667D01*
X192288333Y-103923334D01*
X192455000Y-103923334D01*
X192588333Y-103956667D01*
X192655000Y-103990000D01*
X192688333Y-104023334D01*
X192721667Y-104090000D01*
X192721667Y-104156667D01*
X192688333Y-104223334D01*
X192655000Y-104256667D01*
X192588333Y-104290000D01*
X192455000Y-104323334D01*
X192288333Y-104323334D01*
X192155000Y-104290000D01*
X192088333Y-104256667D01*
X192055000Y-104223334D01*
X192021667Y-104156667D01*
X192021667Y-103490000D02*
X192021667Y-103423333D01*
X192055000Y-103356667D01*
X192088333Y-103323333D01*
X192155000Y-103290000D01*
X192288333Y-103256667D01*
X192455000Y-103256667D01*
X192588333Y-103290000D01*
X192655000Y-103323333D01*
X192688333Y-103356667D01*
X192721667Y-103423333D01*
X192721667Y-103490000D01*
X192688333Y-103556667D01*
X192655000Y-103590000D01*
X192588333Y-103623333D01*
X192455000Y-103656667D01*
X192288333Y-103656667D01*
X192155000Y-103623333D01*
X192088333Y-103590000D01*
X192055000Y-103556667D01*
X192021667Y-103490000D01*
X192721667Y-102450000D02*
X192021667Y-102450000D01*
X192021667Y-102283334D01*
X192055000Y-102183334D01*
X192121667Y-102116667D01*
X192188333Y-102083334D01*
X192321667Y-102050000D01*
X192421667Y-102050000D01*
X192555000Y-102083334D01*
X192621667Y-102116667D01*
X192688333Y-102183334D01*
X192721667Y-102283334D01*
X192721667Y-102450000D01*
X192021667Y-101616667D02*
X192021667Y-101550000D01*
X192055000Y-101483334D01*
X192088333Y-101450000D01*
X192155000Y-101416667D01*
X192288333Y-101383334D01*
X192455000Y-101383334D01*
X192588333Y-101416667D01*
X192655000Y-101450000D01*
X192688333Y-101483334D01*
X192721667Y-101550000D01*
X192721667Y-101616667D01*
X192688333Y-101683334D01*
X192655000Y-101716667D01*
X192588333Y-101750000D01*
X192455000Y-101783334D01*
X192288333Y-101783334D01*
X192155000Y-101750000D01*
X192088333Y-101716667D01*
X192055000Y-101683334D01*
X192021667Y-101616667D01*
X192255000Y-100783333D02*
X192721667Y-100783333D01*
X191988333Y-100950000D02*
X192488333Y-101116667D01*
X192488333Y-100683333D01*
X192721667Y-99910000D02*
X192021667Y-99910000D01*
X192021667Y-99743334D01*
X192055000Y-99643334D01*
X192121667Y-99576667D01*
X192188333Y-99543334D01*
X192321667Y-99510000D01*
X192421667Y-99510000D01*
X192555000Y-99543334D01*
X192621667Y-99576667D01*
X192688333Y-99643334D01*
X192721667Y-99743334D01*
X192721667Y-99910000D01*
X192721667Y-98843334D02*
X192721667Y-99243334D01*
X192721667Y-99043334D02*
X192021667Y-99043334D01*
X192121667Y-99110000D01*
X192188333Y-99176667D01*
X192221667Y-99243334D01*
X192021667Y-98243333D02*
X192021667Y-98376667D01*
X192055000Y-98443333D01*
X192088333Y-98476667D01*
X192188333Y-98543333D01*
X192321667Y-98576667D01*
X192588333Y-98576667D01*
X192655000Y-98543333D01*
X192688333Y-98510000D01*
X192721667Y-98443333D01*
X192721667Y-98310000D01*
X192688333Y-98243333D01*
X192655000Y-98210000D01*
X192588333Y-98176667D01*
X192421667Y-98176667D01*
X192355000Y-98210000D01*
X192321667Y-98243333D01*
X192288333Y-98310000D01*
X192288333Y-98443333D01*
X192321667Y-98510000D01*
X192355000Y-98543333D01*
X192421667Y-98576667D01*
X192721667Y-97370000D02*
X192021667Y-97370000D01*
X192021667Y-97203334D01*
X192055000Y-97103334D01*
X192121667Y-97036667D01*
X192188333Y-97003334D01*
X192321667Y-96970000D01*
X192421667Y-96970000D01*
X192555000Y-97003334D01*
X192621667Y-97036667D01*
X192688333Y-97103334D01*
X192721667Y-97203334D01*
X192721667Y-97370000D01*
X192721667Y-96303334D02*
X192721667Y-96703334D01*
X192721667Y-96503334D02*
X192021667Y-96503334D01*
X192121667Y-96570000D01*
X192188333Y-96636667D01*
X192221667Y-96703334D01*
X192021667Y-96070000D02*
X192021667Y-95603333D01*
X192721667Y-95903333D01*
X192721667Y-94830000D02*
X192021667Y-94830000D01*
X192021667Y-94663334D01*
X192055000Y-94563334D01*
X192121667Y-94496667D01*
X192188333Y-94463334D01*
X192321667Y-94430000D01*
X192421667Y-94430000D01*
X192555000Y-94463334D01*
X192621667Y-94496667D01*
X192688333Y-94563334D01*
X192721667Y-94663334D01*
X192721667Y-94830000D01*
X192021667Y-93996667D02*
X192021667Y-93930000D01*
X192055000Y-93863334D01*
X192088333Y-93830000D01*
X192155000Y-93796667D01*
X192288333Y-93763334D01*
X192455000Y-93763334D01*
X192588333Y-93796667D01*
X192655000Y-93830000D01*
X192688333Y-93863334D01*
X192721667Y-93930000D01*
X192721667Y-93996667D01*
X192688333Y-94063334D01*
X192655000Y-94096667D01*
X192588333Y-94130000D01*
X192455000Y-94163334D01*
X192288333Y-94163334D01*
X192155000Y-94130000D01*
X192088333Y-94096667D01*
X192055000Y-94063334D01*
X192021667Y-93996667D01*
X192021667Y-93130000D02*
X192021667Y-93463333D01*
X192355000Y-93496667D01*
X192321667Y-93463333D01*
X192288333Y-93396667D01*
X192288333Y-93230000D01*
X192321667Y-93163333D01*
X192355000Y-93130000D01*
X192421667Y-93096667D01*
X192588333Y-93096667D01*
X192655000Y-93130000D01*
X192688333Y-93163333D01*
X192721667Y-93230000D01*
X192721667Y-93396667D01*
X192688333Y-93463333D01*
X192655000Y-93496667D01*
X192721667Y-92290000D02*
X192021667Y-92290000D01*
X192021667Y-92123334D01*
X192055000Y-92023334D01*
X192121667Y-91956667D01*
X192188333Y-91923334D01*
X192321667Y-91890000D01*
X192421667Y-91890000D01*
X192555000Y-91923334D01*
X192621667Y-91956667D01*
X192688333Y-92023334D01*
X192721667Y-92123334D01*
X192721667Y-92290000D01*
X192721667Y-91223334D02*
X192721667Y-91623334D01*
X192721667Y-91423334D02*
X192021667Y-91423334D01*
X192121667Y-91490000D01*
X192188333Y-91556667D01*
X192221667Y-91623334D01*
X192321667Y-90823333D02*
X192288333Y-90890000D01*
X192255000Y-90923333D01*
X192188333Y-90956667D01*
X192155000Y-90956667D01*
X192088333Y-90923333D01*
X192055000Y-90890000D01*
X192021667Y-90823333D01*
X192021667Y-90690000D01*
X192055000Y-90623333D01*
X192088333Y-90590000D01*
X192155000Y-90556667D01*
X192188333Y-90556667D01*
X192255000Y-90590000D01*
X192288333Y-90623333D01*
X192321667Y-90690000D01*
X192321667Y-90823333D01*
X192355000Y-90890000D01*
X192388333Y-90923333D01*
X192455000Y-90956667D01*
X192588333Y-90956667D01*
X192655000Y-90923333D01*
X192688333Y-90890000D01*
X192721667Y-90823333D01*
X192721667Y-90690000D01*
X192688333Y-90623333D01*
X192655000Y-90590000D01*
X192588333Y-90556667D01*
X192455000Y-90556667D01*
X192388333Y-90590000D01*
X192355000Y-90623333D01*
X192321667Y-90690000D01*
X192721667Y-89750000D02*
X192021667Y-89750000D01*
X192021667Y-89583334D01*
X192055000Y-89483334D01*
X192121667Y-89416667D01*
X192188333Y-89383334D01*
X192321667Y-89350000D01*
X192421667Y-89350000D01*
X192555000Y-89383334D01*
X192621667Y-89416667D01*
X192688333Y-89483334D01*
X192721667Y-89583334D01*
X192721667Y-89750000D01*
X192721667Y-88683334D02*
X192721667Y-89083334D01*
X192721667Y-88883334D02*
X192021667Y-88883334D01*
X192121667Y-88950000D01*
X192188333Y-89016667D01*
X192221667Y-89083334D01*
X192721667Y-88350000D02*
X192721667Y-88216667D01*
X192688333Y-88150000D01*
X192655000Y-88116667D01*
X192555000Y-88050000D01*
X192421667Y-88016667D01*
X192155000Y-88016667D01*
X192088333Y-88050000D01*
X192055000Y-88083333D01*
X192021667Y-88150000D01*
X192021667Y-88283333D01*
X192055000Y-88350000D01*
X192088333Y-88383333D01*
X192155000Y-88416667D01*
X192321667Y-88416667D01*
X192388333Y-88383333D01*
X192421667Y-88350000D01*
X192455000Y-88283333D01*
X192455000Y-88150000D01*
X192421667Y-88083333D01*
X192388333Y-88050000D01*
X192321667Y-88016667D01*
X192721667Y-87210000D02*
X192021667Y-87210000D01*
X192021667Y-87043334D01*
X192055000Y-86943334D01*
X192121667Y-86876667D01*
X192188333Y-86843334D01*
X192321667Y-86810000D01*
X192421667Y-86810000D01*
X192555000Y-86843334D01*
X192621667Y-86876667D01*
X192688333Y-86943334D01*
X192721667Y-87043334D01*
X192721667Y-87210000D01*
X192088333Y-86543334D02*
X192055000Y-86510000D01*
X192021667Y-86443334D01*
X192021667Y-86276667D01*
X192055000Y-86210000D01*
X192088333Y-86176667D01*
X192155000Y-86143334D01*
X192221667Y-86143334D01*
X192321667Y-86176667D01*
X192721667Y-86576667D01*
X192721667Y-86143334D01*
X192721667Y-85476667D02*
X192721667Y-85876667D01*
X192721667Y-85676667D02*
X192021667Y-85676667D01*
X192121667Y-85743333D01*
X192188333Y-85810000D01*
X192221667Y-85876667D01*
X192721667Y-79590000D02*
X192021667Y-79590000D01*
X192021667Y-79423334D01*
X192055000Y-79323334D01*
X192121667Y-79256667D01*
X192188333Y-79223334D01*
X192321667Y-79190000D01*
X192421667Y-79190000D01*
X192555000Y-79223334D01*
X192621667Y-79256667D01*
X192688333Y-79323334D01*
X192721667Y-79423334D01*
X192721667Y-79590000D01*
X192088333Y-78923334D02*
X192055000Y-78890000D01*
X192021667Y-78823334D01*
X192021667Y-78656667D01*
X192055000Y-78590000D01*
X192088333Y-78556667D01*
X192155000Y-78523334D01*
X192221667Y-78523334D01*
X192321667Y-78556667D01*
X192721667Y-78956667D01*
X192721667Y-78523334D01*
X192088333Y-78256667D02*
X192055000Y-78223333D01*
X192021667Y-78156667D01*
X192021667Y-77990000D01*
X192055000Y-77923333D01*
X192088333Y-77890000D01*
X192155000Y-77856667D01*
X192221667Y-77856667D01*
X192321667Y-77890000D01*
X192721667Y-78290000D01*
X192721667Y-77856667D01*
X192721667Y-77050000D02*
X192021667Y-77050000D01*
X192021667Y-76883334D01*
X192055000Y-76783334D01*
X192121667Y-76716667D01*
X192188333Y-76683334D01*
X192321667Y-76650000D01*
X192421667Y-76650000D01*
X192555000Y-76683334D01*
X192621667Y-76716667D01*
X192688333Y-76783334D01*
X192721667Y-76883334D01*
X192721667Y-77050000D01*
X192088333Y-76383334D02*
X192055000Y-76350000D01*
X192021667Y-76283334D01*
X192021667Y-76116667D01*
X192055000Y-76050000D01*
X192088333Y-76016667D01*
X192155000Y-75983334D01*
X192221667Y-75983334D01*
X192321667Y-76016667D01*
X192721667Y-76416667D01*
X192721667Y-75983334D01*
X192021667Y-75750000D02*
X192021667Y-75316667D01*
X192288333Y-75550000D01*
X192288333Y-75450000D01*
X192321667Y-75383333D01*
X192355000Y-75350000D01*
X192421667Y-75316667D01*
X192588333Y-75316667D01*
X192655000Y-75350000D01*
X192688333Y-75383333D01*
X192721667Y-75450000D01*
X192721667Y-75650000D01*
X192688333Y-75716667D01*
X192655000Y-75750000D01*
X192021667Y-74526667D02*
X192021667Y-74093334D01*
X192288333Y-74326667D01*
X192288333Y-74226667D01*
X192321667Y-74160000D01*
X192355000Y-74126667D01*
X192421667Y-74093334D01*
X192588333Y-74093334D01*
X192655000Y-74126667D01*
X192688333Y-74160000D01*
X192721667Y-74226667D01*
X192721667Y-74426667D01*
X192688333Y-74493334D01*
X192655000Y-74526667D01*
X192021667Y-73893333D02*
X192721667Y-73660000D01*
X192021667Y-73426667D01*
X192021667Y-73260000D02*
X192021667Y-72826667D01*
X192288333Y-73060000D01*
X192288333Y-72960000D01*
X192321667Y-72893333D01*
X192355000Y-72860000D01*
X192421667Y-72826667D01*
X192588333Y-72826667D01*
X192655000Y-72860000D01*
X192688333Y-72893333D01*
X192721667Y-72960000D01*
X192721667Y-73160000D01*
X192688333Y-73226667D01*
X192655000Y-73260000D01*
X192055000Y-71653333D02*
X192021667Y-71719999D01*
X192021667Y-71819999D01*
X192055000Y-71919999D01*
X192121667Y-71986666D01*
X192188333Y-72019999D01*
X192321667Y-72053333D01*
X192421667Y-72053333D01*
X192555000Y-72019999D01*
X192621667Y-71986666D01*
X192688333Y-71919999D01*
X192721667Y-71819999D01*
X192721667Y-71753333D01*
X192688333Y-71653333D01*
X192655000Y-71619999D01*
X192421667Y-71619999D01*
X192421667Y-71753333D01*
X192721667Y-71319999D02*
X192021667Y-71319999D01*
X192721667Y-70919999D01*
X192021667Y-70919999D01*
X192721667Y-70586666D02*
X192021667Y-70586666D01*
X192021667Y-70420000D01*
X192055000Y-70320000D01*
X192121667Y-70253333D01*
X192188333Y-70220000D01*
X192321667Y-70186666D01*
X192421667Y-70186666D01*
X192555000Y-70220000D01*
X192621667Y-70253333D01*
X192688333Y-70320000D01*
X192721667Y-70420000D01*
X192721667Y-70586666D01*
D12*
X156325914Y-89438571D02*
X156325914Y-88438571D01*
X157897343Y-88010000D02*
X157897343Y-89438571D01*
X154897343Y-89438571D01*
X154897343Y-88010000D01*
X157754486Y-86867142D02*
X157897343Y-86438571D01*
X157897343Y-85724285D01*
X157754486Y-85438571D01*
X157611629Y-85295714D01*
X157325914Y-85152857D01*
X157040200Y-85152857D01*
X156754486Y-85295714D01*
X156611629Y-85438571D01*
X156468771Y-85724285D01*
X156325914Y-86295714D01*
X156183057Y-86581428D01*
X156040200Y-86724285D01*
X155754486Y-86867142D01*
X155468771Y-86867142D01*
X155183057Y-86724285D01*
X155040200Y-86581428D01*
X154897343Y-86295714D01*
X154897343Y-85581428D01*
X155040200Y-85152857D01*
X157897343Y-83867142D02*
X154897343Y-83867142D01*
X154897343Y-82724285D01*
X155040200Y-82438571D01*
X155183057Y-82295714D01*
X155468771Y-82152857D01*
X155897343Y-82152857D01*
X156183057Y-82295714D01*
X156325914Y-82438571D01*
X156468771Y-82724285D01*
X156468771Y-83867142D01*
X154897343Y-81152857D02*
X154897343Y-79295714D01*
X156040200Y-80295714D01*
X156040200Y-79867142D01*
X156183057Y-79581428D01*
X156325914Y-79438571D01*
X156611629Y-79295714D01*
X157325914Y-79295714D01*
X157611629Y-79438571D01*
X157754486Y-79581428D01*
X157897343Y-79867142D01*
X157897343Y-80724285D01*
X157754486Y-81009999D01*
X157611629Y-81152857D01*
X155183057Y-78152856D02*
X155040200Y-78009999D01*
X154897343Y-77724285D01*
X154897343Y-77009999D01*
X155040200Y-76724285D01*
X155183057Y-76581428D01*
X155468771Y-76438571D01*
X155754486Y-76438571D01*
X156183057Y-76581428D01*
X157897343Y-78295714D01*
X157897343Y-76438571D01*
X156325914Y-74152856D02*
X156468771Y-73724285D01*
X156611629Y-73581428D01*
X156897343Y-73438571D01*
X157325914Y-73438571D01*
X157611629Y-73581428D01*
X157754486Y-73724285D01*
X157897343Y-74009999D01*
X157897343Y-75152856D01*
X154897343Y-75152856D01*
X154897343Y-74152856D01*
X155040200Y-73867142D01*
X155183057Y-73724285D01*
X155468771Y-73581428D01*
X155754486Y-73581428D01*
X156040200Y-73724285D01*
X156183057Y-73867142D01*
X156325914Y-74152856D01*
X156325914Y-75152856D01*
X156325914Y-71152856D02*
X156468771Y-70724285D01*
X156611629Y-70581428D01*
X156897343Y-70438571D01*
X157325914Y-70438571D01*
X157611629Y-70581428D01*
X157754486Y-70724285D01*
X157897343Y-71009999D01*
X157897343Y-72152856D01*
X154897343Y-72152856D01*
X154897343Y-71152856D01*
X155040200Y-70867142D01*
X155183057Y-70724285D01*
X155468771Y-70581428D01*
X155754486Y-70581428D01*
X156040200Y-70724285D01*
X156183057Y-70867142D01*
X156325914Y-71152856D01*
X156325914Y-72152856D01*
D13*
X159786581Y-88990228D02*
X159310390Y-89323562D01*
X159786581Y-89561657D02*
X158786581Y-89561657D01*
X158786581Y-89180704D01*
X158834200Y-89085466D01*
X158881819Y-89037847D01*
X158977057Y-88990228D01*
X159119914Y-88990228D01*
X159215152Y-89037847D01*
X159262771Y-89085466D01*
X159310390Y-89180704D01*
X159310390Y-89561657D01*
X159738962Y-88180704D02*
X159786581Y-88275942D01*
X159786581Y-88466419D01*
X159738962Y-88561657D01*
X159643724Y-88609276D01*
X159262771Y-88609276D01*
X159167533Y-88561657D01*
X159119914Y-88466419D01*
X159119914Y-88275942D01*
X159167533Y-88180704D01*
X159262771Y-88133085D01*
X159358010Y-88133085D01*
X159453248Y-88609276D01*
X159119914Y-87799752D02*
X159786581Y-87561657D01*
X159119914Y-87323561D01*
X158881819Y-86228323D02*
X158834200Y-86180704D01*
X158786581Y-86085466D01*
X158786581Y-85847370D01*
X158834200Y-85752132D01*
X158881819Y-85704513D01*
X158977057Y-85656894D01*
X159072295Y-85656894D01*
X159215152Y-85704513D01*
X159786581Y-86275942D01*
X159786581Y-85656894D01*
X159691343Y-85228323D02*
X159738962Y-85180704D01*
X159786581Y-85228323D01*
X159738962Y-85275942D01*
X159691343Y-85228323D01*
X159786581Y-85228323D01*
X158786581Y-84561657D02*
X158786581Y-84466418D01*
X158834200Y-84371180D01*
X158881819Y-84323561D01*
X158977057Y-84275942D01*
X159167533Y-84228323D01*
X159405629Y-84228323D01*
X159596105Y-84275942D01*
X159691343Y-84323561D01*
X159738962Y-84371180D01*
X159786581Y-84466418D01*
X159786581Y-84561657D01*
X159738962Y-84656895D01*
X159691343Y-84704514D01*
X159596105Y-84752133D01*
X159405629Y-84799752D01*
X159167533Y-84799752D01*
X158977057Y-84752133D01*
X158881819Y-84704514D01*
X158834200Y-84656895D01*
X158786581Y-84561657D01*
X187190886Y-94394419D02*
X188081362Y-94394419D01*
X188186124Y-94446800D01*
X188238505Y-94499181D01*
X188290886Y-94603942D01*
X188290886Y-94761085D01*
X188238505Y-94865847D01*
X187871838Y-94394419D02*
X187924219Y-94499181D01*
X187924219Y-94708704D01*
X187871838Y-94813466D01*
X187819457Y-94865847D01*
X187714695Y-94918228D01*
X187400410Y-94918228D01*
X187295648Y-94865847D01*
X187243267Y-94813466D01*
X187190886Y-94708704D01*
X187190886Y-94499181D01*
X187243267Y-94394419D01*
X187924219Y-93870609D02*
X187190886Y-93870609D01*
X186824219Y-93870609D02*
X186876600Y-93922990D01*
X186928981Y-93870609D01*
X186876600Y-93818228D01*
X186824219Y-93870609D01*
X186928981Y-93870609D01*
X187190886Y-93503942D02*
X187190886Y-93084894D01*
X186824219Y-93346799D02*
X187767076Y-93346799D01*
X187871838Y-93294418D01*
X187924219Y-93189656D01*
X187924219Y-93084894D01*
X187924219Y-92718228D02*
X186824219Y-92718228D01*
X187924219Y-92246800D02*
X187348029Y-92246800D01*
X187243267Y-92299181D01*
X187190886Y-92403943D01*
X187190886Y-92561085D01*
X187243267Y-92665847D01*
X187295648Y-92718228D01*
X187190886Y-91251562D02*
X187924219Y-91251562D01*
X187190886Y-91722990D02*
X187767076Y-91722990D01*
X187871838Y-91670609D01*
X187924219Y-91565847D01*
X187924219Y-91408705D01*
X187871838Y-91303943D01*
X187819457Y-91251562D01*
X187924219Y-90727752D02*
X186824219Y-90727752D01*
X187243267Y-90727752D02*
X187190886Y-90622990D01*
X187190886Y-90413467D01*
X187243267Y-90308705D01*
X187295648Y-90256324D01*
X187400410Y-90203943D01*
X187714695Y-90203943D01*
X187819457Y-90256324D01*
X187871838Y-90308705D01*
X187924219Y-90413467D01*
X187924219Y-90622990D01*
X187871838Y-90727752D01*
X187819457Y-89732514D02*
X187871838Y-89680133D01*
X187924219Y-89732514D01*
X187871838Y-89784895D01*
X187819457Y-89732514D01*
X187924219Y-89732514D01*
X187871838Y-88737276D02*
X187924219Y-88842038D01*
X187924219Y-89051561D01*
X187871838Y-89156323D01*
X187819457Y-89208704D01*
X187714695Y-89261085D01*
X187400410Y-89261085D01*
X187295648Y-89208704D01*
X187243267Y-89156323D01*
X187190886Y-89051561D01*
X187190886Y-88842038D01*
X187243267Y-88737276D01*
X187924219Y-88108704D02*
X187871838Y-88213466D01*
X187819457Y-88265847D01*
X187714695Y-88318228D01*
X187400410Y-88318228D01*
X187295648Y-88265847D01*
X187243267Y-88213466D01*
X187190886Y-88108704D01*
X187190886Y-87951562D01*
X187243267Y-87846800D01*
X187295648Y-87794419D01*
X187400410Y-87742038D01*
X187714695Y-87742038D01*
X187819457Y-87794419D01*
X187871838Y-87846800D01*
X187924219Y-87951562D01*
X187924219Y-88108704D01*
X187924219Y-87270609D02*
X187190886Y-87270609D01*
X187295648Y-87270609D02*
X187243267Y-87218228D01*
X187190886Y-87113466D01*
X187190886Y-86956324D01*
X187243267Y-86851562D01*
X187348029Y-86799181D01*
X187924219Y-86799181D01*
X187348029Y-86799181D02*
X187243267Y-86746800D01*
X187190886Y-86642038D01*
X187190886Y-86484895D01*
X187243267Y-86380133D01*
X187348029Y-86327752D01*
X187924219Y-86327752D01*
X186771838Y-85018228D02*
X188186124Y-85961085D01*
X187924219Y-84180133D02*
X187348029Y-84180133D01*
X187243267Y-84232514D01*
X187190886Y-84337276D01*
X187190886Y-84546799D01*
X187243267Y-84651561D01*
X187871838Y-84180133D02*
X187924219Y-84284895D01*
X187924219Y-84546799D01*
X187871838Y-84651561D01*
X187767076Y-84703942D01*
X187662314Y-84703942D01*
X187557552Y-84651561D01*
X187505171Y-84546799D01*
X187505171Y-84284895D01*
X187452790Y-84180133D01*
X187871838Y-83708704D02*
X187924219Y-83603942D01*
X187924219Y-83394418D01*
X187871838Y-83289657D01*
X187767076Y-83237276D01*
X187714695Y-83237276D01*
X187609933Y-83289657D01*
X187557552Y-83394418D01*
X187557552Y-83551561D01*
X187505171Y-83656323D01*
X187400410Y-83708704D01*
X187348029Y-83708704D01*
X187243267Y-83656323D01*
X187190886Y-83551561D01*
X187190886Y-83394418D01*
X187243267Y-83289657D01*
X187190886Y-82294419D02*
X187924219Y-82294419D01*
X187190886Y-82765847D02*
X187767076Y-82765847D01*
X187871838Y-82713466D01*
X187924219Y-82608704D01*
X187924219Y-82451562D01*
X187871838Y-82346800D01*
X187819457Y-82294419D01*
X187924219Y-81770609D02*
X186824219Y-81770609D01*
X187505171Y-81665847D02*
X187924219Y-81351562D01*
X187190886Y-81351562D02*
X187609933Y-81770609D01*
X187924219Y-80880133D02*
X187190886Y-80880133D01*
X186824219Y-80880133D02*
X186876600Y-80932514D01*
X186928981Y-80880133D01*
X186876600Y-80827752D01*
X186824219Y-80880133D01*
X186928981Y-80880133D01*
X187924219Y-79884895D02*
X187348029Y-79884895D01*
X187243267Y-79937276D01*
X187190886Y-80042038D01*
X187190886Y-80251561D01*
X187243267Y-80356323D01*
X187871838Y-79884895D02*
X187924219Y-79989657D01*
X187924219Y-80251561D01*
X187871838Y-80356323D01*
X187767076Y-80408704D01*
X187662314Y-80408704D01*
X187557552Y-80356323D01*
X187505171Y-80251561D01*
X187505171Y-79989657D01*
X187452790Y-79884895D01*
X187924219Y-78889657D02*
X187348029Y-78889657D01*
X187243267Y-78942038D01*
X187190886Y-79046800D01*
X187190886Y-79256323D01*
X187243267Y-79361085D01*
X187871838Y-78889657D02*
X187924219Y-78994419D01*
X187924219Y-79256323D01*
X187871838Y-79361085D01*
X187767076Y-79413466D01*
X187662314Y-79413466D01*
X187557552Y-79361085D01*
X187505171Y-79256323D01*
X187505171Y-78994419D01*
X187452790Y-78889657D01*
X187924219Y-77894419D02*
X187348029Y-77894419D01*
X187243267Y-77946800D01*
X187190886Y-78051562D01*
X187190886Y-78261085D01*
X187243267Y-78365847D01*
X187871838Y-77894419D02*
X187924219Y-77999181D01*
X187924219Y-78261085D01*
X187871838Y-78365847D01*
X187767076Y-78418228D01*
X187662314Y-78418228D01*
X187557552Y-78365847D01*
X187505171Y-78261085D01*
X187505171Y-77999181D01*
X187452790Y-77894419D01*
X186771838Y-76584895D02*
X188186124Y-77527752D01*
X187871838Y-75799181D02*
X187924219Y-75903943D01*
X187924219Y-76113466D01*
X187871838Y-76218228D01*
X187767076Y-76270609D01*
X187348029Y-76270609D01*
X187243267Y-76218228D01*
X187190886Y-76113466D01*
X187190886Y-75903943D01*
X187243267Y-75799181D01*
X187348029Y-75746800D01*
X187452790Y-75746800D01*
X187557552Y-76270609D01*
X187871838Y-75327752D02*
X187924219Y-75222990D01*
X187924219Y-75013466D01*
X187871838Y-74908705D01*
X187767076Y-74856324D01*
X187714695Y-74856324D01*
X187609933Y-74908705D01*
X187557552Y-75013466D01*
X187557552Y-75170609D01*
X187505171Y-75275371D01*
X187400410Y-75327752D01*
X187348029Y-75327752D01*
X187243267Y-75275371D01*
X187190886Y-75170609D01*
X187190886Y-75013466D01*
X187243267Y-74908705D01*
X187190886Y-74384895D02*
X188290886Y-74384895D01*
X187243267Y-74384895D02*
X187190886Y-74280133D01*
X187190886Y-74070610D01*
X187243267Y-73965848D01*
X187295648Y-73913467D01*
X187400410Y-73861086D01*
X187714695Y-73861086D01*
X187819457Y-73913467D01*
X187871838Y-73965848D01*
X187924219Y-74070610D01*
X187924219Y-74280133D01*
X187871838Y-74384895D01*
X186824219Y-73494419D02*
X186824219Y-72813467D01*
X187243267Y-73180133D01*
X187243267Y-73022991D01*
X187295648Y-72918229D01*
X187348029Y-72865848D01*
X187452790Y-72813467D01*
X187714695Y-72813467D01*
X187819457Y-72865848D01*
X187871838Y-72918229D01*
X187924219Y-73022991D01*
X187924219Y-73337276D01*
X187871838Y-73442038D01*
X187819457Y-73494419D01*
X186928981Y-72394419D02*
X186876600Y-72342038D01*
X186824219Y-72237276D01*
X186824219Y-71975372D01*
X186876600Y-71870610D01*
X186928981Y-71818229D01*
X187033743Y-71765848D01*
X187138505Y-71765848D01*
X187295648Y-71818229D01*
X187924219Y-72446800D01*
X187924219Y-71765848D01*
X187924219Y-71294419D02*
X186824219Y-71294419D01*
X187243267Y-71294419D02*
X187190886Y-71189657D01*
X187190886Y-70980134D01*
X187243267Y-70875372D01*
X187295648Y-70822991D01*
X187400410Y-70770610D01*
X187714695Y-70770610D01*
X187819457Y-70822991D01*
X187871838Y-70875372D01*
X187924219Y-70980134D01*
X187924219Y-71189657D01*
X187871838Y-71294419D01*
X187924219Y-70299181D02*
X186824219Y-70299181D01*
X187243267Y-70299181D02*
X187190886Y-70194419D01*
X187190886Y-69984896D01*
X187243267Y-69880134D01*
X187295648Y-69827753D01*
X187400410Y-69775372D01*
X187714695Y-69775372D01*
X187819457Y-69827753D01*
X187871838Y-69880134D01*
X187924219Y-69984896D01*
X187924219Y-70194419D01*
X187871838Y-70299181D01*
D11*
X150178333Y-98210000D02*
X150878333Y-98210000D01*
X150878333Y-98376666D01*
X150845000Y-98476666D01*
X150778333Y-98543333D01*
X150711667Y-98576666D01*
X150578333Y-98610000D01*
X150478333Y-98610000D01*
X150345000Y-98576666D01*
X150278333Y-98543333D01*
X150211667Y-98476666D01*
X150178333Y-98376666D01*
X150178333Y-98210000D01*
X150811667Y-98876666D02*
X150845000Y-98910000D01*
X150878333Y-98976666D01*
X150878333Y-99143333D01*
X150845000Y-99210000D01*
X150811667Y-99243333D01*
X150745000Y-99276666D01*
X150678333Y-99276666D01*
X150578333Y-99243333D01*
X150178333Y-98843333D01*
X150178333Y-99276666D01*
X150878333Y-99510000D02*
X150878333Y-99976667D01*
X150178333Y-99676667D01*
D14*
X163813800Y-115865200D02*
X163813800Y-110865200D01*
X163813800Y-110865200D02*
X171313800Y-110865200D01*
X171313800Y-110865200D02*
X171313800Y-115865200D01*
X163813800Y-115865200D02*
X163863800Y-115865200D01*
X163863800Y-115865200D02*
X171263800Y-115865200D01*
X171263800Y-115865200D02*
X171313800Y-115865200D01*
X163863800Y-115865200D02*
X163463800Y-116365200D01*
X171263800Y-115865200D02*
X171663800Y-116365200D01*
D12*
X162005781Y-69850000D02*
G75*
G03X162005781Y-69850000I-283981J0D01*
G01*
D15*
X180627800Y-69704000D02*
X162627800Y-69704000D01*
X162627800Y-63704000D02*
X162627800Y-89204000D01*
X180627800Y-63704000D02*
X180627800Y-89204000D01*
X180627800Y-89204000D02*
X162627800Y-89204000D01*
X180627800Y-63704000D02*
X162627800Y-63704000D01*
D16*
X165729400Y-106873600D02*
X165029400Y-106873600D01*
X165029400Y-105673600D02*
X165729400Y-105673600D01*
X165780200Y-104333600D02*
X165080200Y-104333600D01*
X165080200Y-103133600D02*
X165780200Y-103133600D01*
X162351200Y-106873600D02*
X161651200Y-106873600D01*
X161651200Y-105673600D02*
X162351200Y-105673600D01*
X162351200Y-104333600D02*
X161651200Y-104333600D01*
X161651200Y-103133600D02*
X162351200Y-103133600D01*
X179801000Y-106822800D02*
X179101000Y-106822800D01*
X179101000Y-105622800D02*
X179801000Y-105622800D01*
D17*
G36*
X158872984Y-112398759D02*
X158886082Y-112372247D01*
X158908906Y-112339553D01*
X158933796Y-112315725D01*
X158965049Y-112299406D01*
X159006966Y-112289240D01*
X159063844Y-112283872D01*
X159139984Y-112281944D01*
X159172717Y-112281831D01*
X159244456Y-112282161D01*
X159295727Y-112283527D01*
X159331204Y-112286500D01*
X159355563Y-112291649D01*
X159373480Y-112299543D01*
X159385702Y-112307757D01*
X159437705Y-112360187D01*
X159468984Y-112421930D01*
X159478392Y-112488536D01*
X159464780Y-112555558D01*
X159455154Y-112576792D01*
X159428659Y-112627624D01*
X159843852Y-112627624D01*
X159824668Y-112590525D01*
X159809825Y-112541643D01*
X159806022Y-112481561D01*
X159813043Y-112421564D01*
X159828813Y-112376256D01*
X159858847Y-112338675D01*
X159901824Y-112306564D01*
X159906236Y-112304150D01*
X159927021Y-112293967D01*
X159947970Y-112286530D01*
X159973348Y-112281411D01*
X160007418Y-112278181D01*
X160054441Y-112276413D01*
X160118682Y-112275677D01*
X160190976Y-112275544D01*
X160421622Y-112275544D01*
X160421622Y-112413861D01*
X159996333Y-112413861D01*
X159963779Y-112452549D01*
X159937740Y-112492738D01*
X159933005Y-112530797D01*
X159945189Y-112569066D01*
X159957120Y-112589462D01*
X159974113Y-112604642D01*
X159999795Y-112615438D01*
X160037791Y-112622683D01*
X160091726Y-112627208D01*
X160165225Y-112629844D01*
X160214147Y-112630772D01*
X160415335Y-112633911D01*
X160419136Y-112699926D01*
X160422936Y-112765940D01*
X159174450Y-112765940D01*
X159174450Y-112627624D01*
X159244054Y-112624097D01*
X159292369Y-112612215D01*
X159322431Y-112590020D01*
X159337271Y-112555559D01*
X159340236Y-112520742D01*
X159336828Y-112481329D01*
X159323417Y-112455171D01*
X159305696Y-112438814D01*
X159286635Y-112425937D01*
X159265401Y-112418272D01*
X159235649Y-112414861D01*
X159191036Y-112414749D01*
X159153680Y-112415897D01*
X159097404Y-112418532D01*
X159060458Y-112422456D01*
X159037023Y-112429063D01*
X159021280Y-112439749D01*
X159012180Y-112449833D01*
X158992337Y-112491970D01*
X158989132Y-112541840D01*
X158995968Y-112570476D01*
X159020264Y-112598828D01*
X159067528Y-112617609D01*
X159137424Y-112626712D01*
X159174450Y-112627624D01*
X159174450Y-112765940D01*
X158862414Y-112765940D01*
X158862414Y-112696782D01*
X158864056Y-112655260D01*
X158869887Y-112633838D01*
X158881261Y-112627626D01*
X158881598Y-112627624D01*
X158892738Y-112624742D01*
X158891473Y-112612030D01*
X158879233Y-112586757D01*
X158860507Y-112527869D01*
X158858539Y-112461615D01*
X158872984Y-112398759D01*
X158872984Y-112398759D01*
G37*
X158872984Y-112398759D02*
X158886082Y-112372247D01*
X158908906Y-112339553D01*
X158933796Y-112315725D01*
X158965049Y-112299406D01*
X159006966Y-112289240D01*
X159063844Y-112283872D01*
X159139984Y-112281944D01*
X159172717Y-112281831D01*
X159244456Y-112282161D01*
X159295727Y-112283527D01*
X159331204Y-112286500D01*
X159355563Y-112291649D01*
X159373480Y-112299543D01*
X159385702Y-112307757D01*
X159437705Y-112360187D01*
X159468984Y-112421930D01*
X159478392Y-112488536D01*
X159464780Y-112555558D01*
X159455154Y-112576792D01*
X159428659Y-112627624D01*
X159843852Y-112627624D01*
X159824668Y-112590525D01*
X159809825Y-112541643D01*
X159806022Y-112481561D01*
X159813043Y-112421564D01*
X159828813Y-112376256D01*
X159858847Y-112338675D01*
X159901824Y-112306564D01*
X159906236Y-112304150D01*
X159927021Y-112293967D01*
X159947970Y-112286530D01*
X159973348Y-112281411D01*
X160007418Y-112278181D01*
X160054441Y-112276413D01*
X160118682Y-112275677D01*
X160190976Y-112275544D01*
X160421622Y-112275544D01*
X160421622Y-112413861D01*
X159996333Y-112413861D01*
X159963779Y-112452549D01*
X159937740Y-112492738D01*
X159933005Y-112530797D01*
X159945189Y-112569066D01*
X159957120Y-112589462D01*
X159974113Y-112604642D01*
X159999795Y-112615438D01*
X160037791Y-112622683D01*
X160091726Y-112627208D01*
X160165225Y-112629844D01*
X160214147Y-112630772D01*
X160415335Y-112633911D01*
X160419136Y-112699926D01*
X160422936Y-112765940D01*
X159174450Y-112765940D01*
X159174450Y-112627624D01*
X159244054Y-112624097D01*
X159292369Y-112612215D01*
X159322431Y-112590020D01*
X159337271Y-112555559D01*
X159340236Y-112520742D01*
X159336828Y-112481329D01*
X159323417Y-112455171D01*
X159305696Y-112438814D01*
X159286635Y-112425937D01*
X159265401Y-112418272D01*
X159235649Y-112414861D01*
X159191036Y-112414749D01*
X159153680Y-112415897D01*
X159097404Y-112418532D01*
X159060458Y-112422456D01*
X159037023Y-112429063D01*
X159021280Y-112439749D01*
X159012180Y-112449833D01*
X158992337Y-112491970D01*
X158989132Y-112541840D01*
X158995968Y-112570476D01*
X159020264Y-112598828D01*
X159067528Y-112617609D01*
X159137424Y-112626712D01*
X159174450Y-112627624D01*
X159174450Y-112765940D01*
X158862414Y-112765940D01*
X158862414Y-112696782D01*
X158864056Y-112655260D01*
X158869887Y-112633838D01*
X158881261Y-112627626D01*
X158881598Y-112627624D01*
X158892738Y-112624742D01*
X158891473Y-112612030D01*
X158879233Y-112586757D01*
X158860507Y-112527869D01*
X158858539Y-112461615D01*
X158872984Y-112398759D01*
G36*
X159810355Y-111874210D02*
X159826139Y-111815055D01*
X159854748Y-111770023D01*
X159892219Y-111738246D01*
X159908211Y-111728366D01*
X159924963Y-111721073D01*
X159946392Y-111715974D01*
X159976416Y-111712679D01*
X160018954Y-111710797D01*
X160077922Y-111709937D01*
X160157240Y-111709707D01*
X160178284Y-111709703D01*
X160421622Y-111709703D01*
X160421622Y-111770059D01*
X160418926Y-111808557D01*
X160412095Y-111837023D01*
X160407883Y-111844155D01*
X160400613Y-111863652D01*
X160407883Y-111883566D01*
X160416960Y-111916353D01*
X160420613Y-111963978D01*
X160419028Y-112016764D01*
X160412389Y-112065036D01*
X160403872Y-112093218D01*
X160368863Y-112147753D01*
X160320279Y-112181835D01*
X160255682Y-112197157D01*
X160254023Y-112197299D01*
X160225366Y-112195955D01*
X160225366Y-112074356D01*
X160257961Y-112063726D01*
X160276305Y-112046410D01*
X160290179Y-112011652D01*
X160295717Y-111965773D01*
X160292991Y-111918988D01*
X160282074Y-111881514D01*
X160275069Y-111871015D01*
X160242704Y-111852668D01*
X160205911Y-111848020D01*
X160157563Y-111848020D01*
X160157563Y-111917582D01*
X160162650Y-111983667D01*
X160177063Y-112033764D01*
X160199529Y-112064929D01*
X160225366Y-112074356D01*
X160225366Y-112195955D01*
X160183447Y-112193987D01*
X160127645Y-112170710D01*
X160085447Y-112126948D01*
X160081608Y-112120899D01*
X160069109Y-112094907D01*
X160061540Y-112062735D01*
X160057861Y-112017760D01*
X160057016Y-111964331D01*
X160056969Y-111848020D01*
X160008211Y-111848020D01*
X159970381Y-111852953D01*
X159945036Y-111865543D01*
X159943687Y-111867017D01*
X159932600Y-111895034D01*
X159928303Y-111937326D01*
X159930415Y-111984064D01*
X159938556Y-112025418D01*
X159950765Y-112049957D01*
X159960546Y-112063253D01*
X159962413Y-112077294D01*
X159954400Y-112096671D01*
X159934539Y-112125976D01*
X159900863Y-112169803D01*
X159897709Y-112173825D01*
X159886036Y-112171764D01*
X159866622Y-112154568D01*
X159845048Y-112128433D01*
X159826896Y-112099552D01*
X159822609Y-112090478D01*
X159814056Y-112057380D01*
X159807955Y-112008880D01*
X159805508Y-111954695D01*
X159805503Y-111952161D01*
X159810355Y-111874210D01*
X159810355Y-111874210D01*
G37*
X159810355Y-111874210D02*
X159826139Y-111815055D01*
X159854748Y-111770023D01*
X159892219Y-111738246D01*
X159908211Y-111728366D01*
X159924963Y-111721073D01*
X159946392Y-111715974D01*
X159976416Y-111712679D01*
X160018954Y-111710797D01*
X160077922Y-111709937D01*
X160157240Y-111709707D01*
X160178284Y-111709703D01*
X160421622Y-111709703D01*
X160421622Y-111770059D01*
X160418926Y-111808557D01*
X160412095Y-111837023D01*
X160407883Y-111844155D01*
X160400613Y-111863652D01*
X160407883Y-111883566D01*
X160416960Y-111916353D01*
X160420613Y-111963978D01*
X160419028Y-112016764D01*
X160412389Y-112065036D01*
X160403872Y-112093218D01*
X160368863Y-112147753D01*
X160320279Y-112181835D01*
X160255682Y-112197157D01*
X160254023Y-112197299D01*
X160225366Y-112195955D01*
X160225366Y-112074356D01*
X160257961Y-112063726D01*
X160276305Y-112046410D01*
X160290179Y-112011652D01*
X160295717Y-111965773D01*
X160292991Y-111918988D01*
X160282074Y-111881514D01*
X160275069Y-111871015D01*
X160242704Y-111852668D01*
X160205911Y-111848020D01*
X160157563Y-111848020D01*
X160157563Y-111917582D01*
X160162650Y-111983667D01*
X160177063Y-112033764D01*
X160199529Y-112064929D01*
X160225366Y-112074356D01*
X160225366Y-112195955D01*
X160183447Y-112193987D01*
X160127645Y-112170710D01*
X160085447Y-112126948D01*
X160081608Y-112120899D01*
X160069109Y-112094907D01*
X160061540Y-112062735D01*
X160057861Y-112017760D01*
X160057016Y-111964331D01*
X160056969Y-111848020D01*
X160008211Y-111848020D01*
X159970381Y-111852953D01*
X159945036Y-111865543D01*
X159943687Y-111867017D01*
X159932600Y-111895034D01*
X159928303Y-111937326D01*
X159930415Y-111984064D01*
X159938556Y-112025418D01*
X159950765Y-112049957D01*
X159960546Y-112063253D01*
X159962413Y-112077294D01*
X159954400Y-112096671D01*
X159934539Y-112125976D01*
X159900863Y-112169803D01*
X159897709Y-112173825D01*
X159886036Y-112171764D01*
X159866622Y-112154568D01*
X159845048Y-112128433D01*
X159826896Y-112099552D01*
X159822609Y-112090478D01*
X159814056Y-112057380D01*
X159807955Y-112008880D01*
X159805508Y-111954695D01*
X159805503Y-111952161D01*
X159810355Y-111874210D01*
G36*
X159806820Y-111483356D02*
X159812460Y-111464539D01*
X159824853Y-111458473D01*
X159830447Y-111458218D01*
X159846030Y-111457129D01*
X159848476Y-111449632D01*
X159837793Y-111429381D01*
X159830494Y-111417351D01*
X159814863Y-111379400D01*
X159807134Y-111334072D01*
X159806540Y-111286544D01*
X159812313Y-111241995D01*
X159823684Y-111205602D01*
X159839888Y-111182543D01*
X159860155Y-111177996D01*
X159865643Y-111180291D01*
X159888426Y-111197020D01*
X159916447Y-111222963D01*
X159920977Y-111227655D01*
X159941805Y-111252383D01*
X159948535Y-111273718D01*
X159943838Y-111303555D01*
X159940717Y-111315508D01*
X159933221Y-111352705D01*
X159936592Y-111378859D01*
X159948481Y-111400946D01*
X159964435Y-111421178D01*
X159984500Y-111436079D01*
X160012502Y-111446434D01*
X160052267Y-111453029D01*
X160107623Y-111456649D01*
X160182394Y-111458078D01*
X160227540Y-111458218D01*
X160421622Y-111458218D01*
X160421622Y-111583960D01*
X159805483Y-111583960D01*
X159805483Y-111521089D01*
X159806820Y-111483356D01*
X159806820Y-111483356D01*
G37*
X159806820Y-111483356D02*
X159812460Y-111464539D01*
X159824853Y-111458473D01*
X159830447Y-111458218D01*
X159846030Y-111457129D01*
X159848476Y-111449632D01*
X159837793Y-111429381D01*
X159830494Y-111417351D01*
X159814863Y-111379400D01*
X159807134Y-111334072D01*
X159806540Y-111286544D01*
X159812313Y-111241995D01*
X159823684Y-111205602D01*
X159839888Y-111182543D01*
X159860155Y-111177996D01*
X159865643Y-111180291D01*
X159888426Y-111197020D01*
X159916447Y-111222963D01*
X159920977Y-111227655D01*
X159941805Y-111252383D01*
X159948535Y-111273718D01*
X159943838Y-111303555D01*
X159940717Y-111315508D01*
X159933221Y-111352705D01*
X159936592Y-111378859D01*
X159948481Y-111400946D01*
X159964435Y-111421178D01*
X159984500Y-111436079D01*
X160012502Y-111446434D01*
X160052267Y-111453029D01*
X160107623Y-111456649D01*
X160182394Y-111458078D01*
X160227540Y-111458218D01*
X160421622Y-111458218D01*
X160421622Y-111583960D01*
X159805483Y-111583960D01*
X159805483Y-111521089D01*
X159806820Y-111483356D01*
G36*
X160421622Y-110691188D02*
X160421622Y-110760346D01*
X160420445Y-110800488D01*
X160415572Y-110821394D01*
X160404986Y-110828922D01*
X160397829Y-110829505D01*
X160383476Y-110830774D01*
X160380723Y-110838779D01*
X160389571Y-110859815D01*
X160397829Y-110876173D01*
X160417397Y-110938977D01*
X160418529Y-111007248D01*
X160403935Y-111062752D01*
X160368677Y-111114438D01*
X160316635Y-111153838D01*
X160255250Y-111175413D01*
X160251818Y-111175962D01*
X160214371Y-111179167D01*
X160160613Y-111180761D01*
X160119955Y-111180633D01*
X160119955Y-111043279D01*
X160173994Y-111040097D01*
X160218535Y-111032859D01*
X160243688Y-111023060D01*
X160278060Y-110985989D01*
X160290382Y-110941974D01*
X160280418Y-110896584D01*
X160250695Y-110857797D01*
X160230705Y-110843108D01*
X160206850Y-110834519D01*
X160172030Y-110830496D01*
X160119730Y-110829505D01*
X160067939Y-110831278D01*
X160022434Y-110835963D01*
X159991981Y-110842603D01*
X159989252Y-110843710D01*
X159956800Y-110870491D01*
X159938983Y-110909579D01*
X159936106Y-110953315D01*
X159948474Y-110994038D01*
X159976393Y-111024087D01*
X159981948Y-111027204D01*
X160015822Y-111036961D01*
X160064528Y-111042277D01*
X160119955Y-111043279D01*
X160119955Y-111180633D01*
X160099340Y-111180568D01*
X160066363Y-111179664D01*
X159984781Y-111173514D01*
X159923530Y-111160733D01*
X159878249Y-111139471D01*
X159844579Y-111107878D01*
X159824814Y-111077207D01*
X159810920Y-111034354D01*
X159806154Y-110981056D01*
X159810036Y-110926480D01*
X159822082Y-110879792D01*
X159836493Y-110855124D01*
X159859678Y-110829505D01*
X159566573Y-110829505D01*
X159566573Y-110691188D01*
X160421622Y-110691188D01*
X160421622Y-110691188D01*
G37*
X160421622Y-110691188D02*
X160421622Y-110760346D01*
X160420445Y-110800488D01*
X160415572Y-110821394D01*
X160404986Y-110828922D01*
X160397829Y-110829505D01*
X160383476Y-110830774D01*
X160380723Y-110838779D01*
X160389571Y-110859815D01*
X160397829Y-110876173D01*
X160417397Y-110938977D01*
X160418529Y-111007248D01*
X160403935Y-111062752D01*
X160368677Y-111114438D01*
X160316635Y-111153838D01*
X160255250Y-111175413D01*
X160251818Y-111175962D01*
X160214371Y-111179167D01*
X160160613Y-111180761D01*
X160119955Y-111180633D01*
X160119955Y-111043279D01*
X160173994Y-111040097D01*
X160218535Y-111032859D01*
X160243688Y-111023060D01*
X160278060Y-110985989D01*
X160290382Y-110941974D01*
X160280418Y-110896584D01*
X160250695Y-110857797D01*
X160230705Y-110843108D01*
X160206850Y-110834519D01*
X160172030Y-110830496D01*
X160119730Y-110829505D01*
X160067939Y-110831278D01*
X160022434Y-110835963D01*
X159991981Y-110842603D01*
X159989252Y-110843710D01*
X159956800Y-110870491D01*
X159938983Y-110909579D01*
X159936106Y-110953315D01*
X159948474Y-110994038D01*
X159976393Y-111024087D01*
X159981948Y-111027204D01*
X160015822Y-111036961D01*
X160064528Y-111042277D01*
X160119955Y-111043279D01*
X160119955Y-111180633D01*
X160099340Y-111180568D01*
X160066363Y-111179664D01*
X159984781Y-111173514D01*
X159923530Y-111160733D01*
X159878249Y-111139471D01*
X159844579Y-111107878D01*
X159824814Y-111077207D01*
X159810920Y-111034354D01*
X159806154Y-110981056D01*
X159810036Y-110926480D01*
X159822082Y-110879792D01*
X159836493Y-110855124D01*
X159859678Y-110829505D01*
X159566573Y-110829505D01*
X159566573Y-110691188D01*
X160421622Y-110691188D01*
G36*
X159808037Y-110208476D02*
X159811771Y-110158745D01*
X160201573Y-110028709D01*
X160132414Y-110008322D01*
X160089674Y-109996054D01*
X160031915Y-109979915D01*
X159968425Y-109962488D01*
X159934370Y-109953274D01*
X159805483Y-109918612D01*
X159805483Y-109775609D01*
X159940657Y-109818354D01*
X160007142Y-109839404D01*
X160087339Y-109864833D01*
X160170993Y-109891390D01*
X160245582Y-109915098D01*
X160415335Y-109969098D01*
X160419128Y-110027402D01*
X160422922Y-110085705D01*
X160318534Y-110117321D01*
X160253689Y-110136818D01*
X160182200Y-110158096D01*
X160119063Y-110176692D01*
X160116550Y-110177426D01*
X160073769Y-110191316D01*
X160044579Y-110203571D01*
X160033541Y-110212154D01*
X160034818Y-110213918D01*
X160051930Y-110220109D01*
X160088587Y-110231872D01*
X160140178Y-110247775D01*
X160202094Y-110266386D01*
X160236152Y-110276457D01*
X160421622Y-110330993D01*
X160421622Y-110446736D01*
X160129271Y-110539263D01*
X160047262Y-110565256D01*
X159972787Y-110588934D01*
X159909344Y-110609180D01*
X159860432Y-110624874D01*
X159829549Y-110634898D01*
X159820526Y-110637945D01*
X159811287Y-110635533D01*
X159807241Y-110616592D01*
X159807646Y-110577177D01*
X159807952Y-110571007D01*
X159811771Y-110497914D01*
X159987810Y-110450043D01*
X160052011Y-110432447D01*
X160108449Y-110416723D01*
X160152222Y-110404254D01*
X160178430Y-110396426D01*
X160182703Y-110394980D01*
X160177790Y-110388986D01*
X160152332Y-110376899D01*
X160109797Y-110360107D01*
X160053650Y-110339997D01*
X160002930Y-110322997D01*
X159804304Y-110258206D01*
X159808037Y-110208476D01*
X159808037Y-110208476D01*
G37*
X159808037Y-110208476D02*
X159811771Y-110158745D01*
X160201573Y-110028709D01*
X160132414Y-110008322D01*
X160089674Y-109996054D01*
X160031915Y-109979915D01*
X159968425Y-109962488D01*
X159934370Y-109953274D01*
X159805483Y-109918612D01*
X159805483Y-109775609D01*
X159940657Y-109818354D01*
X160007142Y-109839404D01*
X160087339Y-109864833D01*
X160170993Y-109891390D01*
X160245582Y-109915098D01*
X160415335Y-109969098D01*
X160419128Y-110027402D01*
X160422922Y-110085705D01*
X160318534Y-110117321D01*
X160253689Y-110136818D01*
X160182200Y-110158096D01*
X160119063Y-110176692D01*
X160116550Y-110177426D01*
X160073769Y-110191316D01*
X160044579Y-110203571D01*
X160033541Y-110212154D01*
X160034818Y-110213918D01*
X160051930Y-110220109D01*
X160088587Y-110231872D01*
X160140178Y-110247775D01*
X160202094Y-110266386D01*
X160236152Y-110276457D01*
X160421622Y-110330993D01*
X160421622Y-110446736D01*
X160129271Y-110539263D01*
X160047262Y-110565256D01*
X159972787Y-110588934D01*
X159909344Y-110609180D01*
X159860432Y-110624874D01*
X159829549Y-110634898D01*
X159820526Y-110637945D01*
X159811287Y-110635533D01*
X159807241Y-110616592D01*
X159807646Y-110577177D01*
X159807952Y-110571007D01*
X159811771Y-110497914D01*
X159987810Y-110450043D01*
X160052011Y-110432447D01*
X160108449Y-110416723D01*
X160152222Y-110404254D01*
X160178430Y-110396426D01*
X160182703Y-110394980D01*
X160177790Y-110388986D01*
X160152332Y-110376899D01*
X160109797Y-110360107D01*
X160053650Y-110339997D01*
X160002930Y-110322997D01*
X159804304Y-110258206D01*
X159808037Y-110208476D01*
G36*
X159809217Y-109451589D02*
X159822090Y-109398589D01*
X159828910Y-109383269D01*
X159846774Y-109353572D01*
X159866893Y-109330780D01*
X159892762Y-109313917D01*
X159927873Y-109302002D01*
X159975720Y-109294058D01*
X160039796Y-109289106D01*
X160123594Y-109286169D01*
X160179568Y-109285053D01*
X160421622Y-109280948D01*
X160421622Y-109351068D01*
X160419838Y-109393607D01*
X160413742Y-109415524D01*
X160403506Y-109421188D01*
X160392437Y-109424179D01*
X160394554Y-109437549D01*
X160403429Y-109455767D01*
X160417033Y-109501376D01*
X160420699Y-109559993D01*
X160414703Y-109621646D01*
X160399321Y-109676362D01*
X160397186Y-109681270D01*
X160362055Y-109731277D01*
X160313219Y-109764244D01*
X160256133Y-109779413D01*
X160235624Y-109778254D01*
X160235624Y-109654492D01*
X160263225Y-109643587D01*
X160283004Y-109611255D01*
X160293619Y-109559090D01*
X160295028Y-109531213D01*
X160291420Y-109484753D01*
X160277397Y-109453871D01*
X160270731Y-109446336D01*
X160234466Y-109425924D01*
X160201573Y-109421188D01*
X160157563Y-109421188D01*
X160157563Y-109482487D01*
X160161195Y-109553744D01*
X160172618Y-109603724D01*
X160192624Y-109635304D01*
X160201543Y-109642374D01*
X160235624Y-109654492D01*
X160235624Y-109778254D01*
X160196256Y-109776029D01*
X160139044Y-109753337D01*
X160100380Y-109722376D01*
X160083664Y-109703624D01*
X160072678Y-109685267D01*
X160065980Y-109661381D01*
X160062126Y-109626043D01*
X160059673Y-109573331D01*
X160058968Y-109552423D01*
X160054679Y-109421188D01*
X160014958Y-109421380D01*
X159973205Y-109426463D01*
X159947958Y-109444838D01*
X159931830Y-109481961D01*
X159931542Y-109482957D01*
X159925200Y-109535590D01*
X159933484Y-109587094D01*
X159953627Y-109625370D01*
X159963573Y-109640728D01*
X159962197Y-109657270D01*
X159947787Y-109682725D01*
X159937617Y-109697672D01*
X159915888Y-109726909D01*
X159899600Y-109745020D01*
X159894937Y-109747926D01*
X159870805Y-109735960D01*
X159841985Y-109700604D01*
X159832261Y-109685247D01*
X159815514Y-109641099D01*
X159806027Y-109581602D01*
X159803895Y-109515513D01*
X159809217Y-109451589D01*
X159809217Y-109451589D01*
G37*
X159809217Y-109451589D02*
X159822090Y-109398589D01*
X159828910Y-109383269D01*
X159846774Y-109353572D01*
X159866893Y-109330780D01*
X159892762Y-109313917D01*
X159927873Y-109302002D01*
X159975720Y-109294058D01*
X160039796Y-109289106D01*
X160123594Y-109286169D01*
X160179568Y-109285053D01*
X160421622Y-109280948D01*
X160421622Y-109351068D01*
X160419838Y-109393607D01*
X160413742Y-109415524D01*
X160403506Y-109421188D01*
X160392437Y-109424179D01*
X160394554Y-109437549D01*
X160403429Y-109455767D01*
X160417033Y-109501376D01*
X160420699Y-109559993D01*
X160414703Y-109621646D01*
X160399321Y-109676362D01*
X160397186Y-109681270D01*
X160362055Y-109731277D01*
X160313219Y-109764244D01*
X160256133Y-109779413D01*
X160235624Y-109778254D01*
X160235624Y-109654492D01*
X160263225Y-109643587D01*
X160283004Y-109611255D01*
X160293619Y-109559090D01*
X160295028Y-109531213D01*
X160291420Y-109484753D01*
X160277397Y-109453871D01*
X160270731Y-109446336D01*
X160234466Y-109425924D01*
X160201573Y-109421188D01*
X160157563Y-109421188D01*
X160157563Y-109482487D01*
X160161195Y-109553744D01*
X160172618Y-109603724D01*
X160192624Y-109635304D01*
X160201543Y-109642374D01*
X160235624Y-109654492D01*
X160235624Y-109778254D01*
X160196256Y-109776029D01*
X160139044Y-109753337D01*
X160100380Y-109722376D01*
X160083664Y-109703624D01*
X160072678Y-109685267D01*
X160065980Y-109661381D01*
X160062126Y-109626043D01*
X160059673Y-109573331D01*
X160058968Y-109552423D01*
X160054679Y-109421188D01*
X160014958Y-109421380D01*
X159973205Y-109426463D01*
X159947958Y-109444838D01*
X159931830Y-109481961D01*
X159931542Y-109482957D01*
X159925200Y-109535590D01*
X159933484Y-109587094D01*
X159953627Y-109625370D01*
X159963573Y-109640728D01*
X159962197Y-109657270D01*
X159947787Y-109682725D01*
X159937617Y-109697672D01*
X159915888Y-109726909D01*
X159899600Y-109745020D01*
X159894937Y-109747926D01*
X159870805Y-109735960D01*
X159841985Y-109700604D01*
X159832261Y-109685247D01*
X159815514Y-109641099D01*
X159806027Y-109581602D01*
X159803895Y-109515513D01*
X159809217Y-109451589D01*
G36*
X159805286Y-108854745D02*
X159814815Y-108806405D01*
X159828925Y-108778886D01*
X159852368Y-108749936D01*
X159904371Y-108791124D01*
X159935864Y-108816518D01*
X159951228Y-108833762D01*
X159953576Y-108850898D01*
X159946017Y-108875973D01*
X159941741Y-108887743D01*
X159935431Y-108935730D01*
X159948956Y-108979676D01*
X159979510Y-109011940D01*
X159989252Y-109017181D01*
X160015058Y-109022888D01*
X160062617Y-109027294D01*
X160128558Y-109030189D01*
X160209510Y-109031369D01*
X160221026Y-109031386D01*
X160421622Y-109031386D01*
X160421622Y-109169703D01*
X159805483Y-109169703D01*
X159805483Y-109100544D01*
X159806525Y-109060667D01*
X159811158Y-109039893D01*
X159821649Y-109032211D01*
X159831545Y-109031386D01*
X159857606Y-109031386D01*
X159831545Y-108998255D01*
X159813765Y-108960265D01*
X159804974Y-108909230D01*
X159805286Y-108854745D01*
X159805286Y-108854745D01*
G37*
X159805286Y-108854745D02*
X159814815Y-108806405D01*
X159828925Y-108778886D01*
X159852368Y-108749936D01*
X159904371Y-108791124D01*
X159935864Y-108816518D01*
X159951228Y-108833762D01*
X159953576Y-108850898D01*
X159946017Y-108875973D01*
X159941741Y-108887743D01*
X159935431Y-108935730D01*
X159948956Y-108979676D01*
X159979510Y-109011940D01*
X159989252Y-109017181D01*
X160015058Y-109022888D01*
X160062617Y-109027294D01*
X160128558Y-109030189D01*
X160209510Y-109031369D01*
X160221026Y-109031386D01*
X160421622Y-109031386D01*
X160421622Y-109169703D01*
X159805483Y-109169703D01*
X159805483Y-109100544D01*
X159806525Y-109060667D01*
X159811158Y-109039893D01*
X159821649Y-109032211D01*
X159831545Y-109031386D01*
X159857606Y-109031386D01*
X159831545Y-108998255D01*
X159813765Y-108960265D01*
X159804974Y-108909230D01*
X159805286Y-108854745D01*
G36*
X159808770Y-108457419D02*
X159824397Y-108397315D01*
X159856648Y-108346979D01*
X159880740Y-108322607D01*
X159937695Y-108282655D01*
X160003765Y-108259758D01*
X160084982Y-108251892D01*
X160091548Y-108251852D01*
X160157563Y-108251782D01*
X160157563Y-108631736D01*
X160192142Y-108623637D01*
X160223459Y-108609013D01*
X160256091Y-108583419D01*
X160261300Y-108578065D01*
X160289494Y-108532057D01*
X160294275Y-108479590D01*
X160275726Y-108419197D01*
X160270731Y-108408960D01*
X160255545Y-108377561D01*
X160246894Y-108356530D01*
X160246093Y-108352861D01*
X160253863Y-108340052D01*
X160272872Y-108315622D01*
X160283260Y-108303221D01*
X160307121Y-108277524D01*
X160322877Y-108269085D01*
X160337371Y-108274942D01*
X160341334Y-108278072D01*
X160358679Y-108299275D01*
X160379759Y-108334262D01*
X160392065Y-108358663D01*
X160413746Y-108427928D01*
X160420771Y-108504612D01*
X160412447Y-108577235D01*
X160406486Y-108597574D01*
X160372752Y-108660524D01*
X160320845Y-108707185D01*
X160250259Y-108737827D01*
X160160492Y-108752718D01*
X160113553Y-108754353D01*
X160045213Y-108749579D01*
X160045213Y-108629010D01*
X160050265Y-108617348D01*
X160054229Y-108586002D01*
X160056568Y-108540429D01*
X160056969Y-108509554D01*
X160056583Y-108454019D01*
X160054775Y-108418967D01*
X160050573Y-108399738D01*
X160043003Y-108391670D01*
X160032018Y-108390099D01*
X159998181Y-108400879D01*
X159964740Y-108428020D01*
X159939072Y-108463723D01*
X159928572Y-108499440D01*
X159937886Y-108547952D01*
X159964813Y-108589947D01*
X160003627Y-108619064D01*
X160045213Y-108629010D01*
X160045213Y-108749579D01*
X160014036Y-108747401D01*
X159934749Y-108725945D01*
X159875063Y-108689530D01*
X159834349Y-108637703D01*
X159811979Y-108570010D01*
X159807671Y-108533338D01*
X159808770Y-108457419D01*
X159808770Y-108457419D01*
G37*
X159808770Y-108457419D02*
X159824397Y-108397315D01*
X159856648Y-108346979D01*
X159880740Y-108322607D01*
X159937695Y-108282655D01*
X160003765Y-108259758D01*
X160084982Y-108251892D01*
X160091548Y-108251852D01*
X160157563Y-108251782D01*
X160157563Y-108631736D01*
X160192142Y-108623637D01*
X160223459Y-108609013D01*
X160256091Y-108583419D01*
X160261300Y-108578065D01*
X160289494Y-108532057D01*
X160294275Y-108479590D01*
X160275726Y-108419197D01*
X160270731Y-108408960D01*
X160255545Y-108377561D01*
X160246894Y-108356530D01*
X160246093Y-108352861D01*
X160253863Y-108340052D01*
X160272872Y-108315622D01*
X160283260Y-108303221D01*
X160307121Y-108277524D01*
X160322877Y-108269085D01*
X160337371Y-108274942D01*
X160341334Y-108278072D01*
X160358679Y-108299275D01*
X160379759Y-108334262D01*
X160392065Y-108358663D01*
X160413746Y-108427928D01*
X160420771Y-108504612D01*
X160412447Y-108577235D01*
X160406486Y-108597574D01*
X160372752Y-108660524D01*
X160320845Y-108707185D01*
X160250259Y-108737827D01*
X160160492Y-108752718D01*
X160113553Y-108754353D01*
X160045213Y-108749579D01*
X160045213Y-108629010D01*
X160050265Y-108617348D01*
X160054229Y-108586002D01*
X160056568Y-108540429D01*
X160056969Y-108509554D01*
X160056583Y-108454019D01*
X160054775Y-108418967D01*
X160050573Y-108399738D01*
X160043003Y-108391670D01*
X160032018Y-108390099D01*
X159998181Y-108400879D01*
X159964740Y-108428020D01*
X159939072Y-108463723D01*
X159928572Y-108499440D01*
X159937886Y-108547952D01*
X159964813Y-108589947D01*
X160003627Y-108619064D01*
X160045213Y-108629010D01*
X160045213Y-108749579D01*
X160014036Y-108747401D01*
X159934749Y-108725945D01*
X159875063Y-108689530D01*
X159834349Y-108637703D01*
X159811979Y-108570010D01*
X159807671Y-108533338D01*
X159808770Y-108457419D01*
G36*
X158868948Y-113028261D02*
X158898031Y-112962479D01*
X158946593Y-112912540D01*
X159014708Y-112878374D01*
X159102451Y-112859907D01*
X159116151Y-112858583D01*
X159212739Y-112857546D01*
X159297402Y-112870993D01*
X159366021Y-112898108D01*
X159388094Y-112912627D01*
X159434811Y-112963201D01*
X159465068Y-113027609D01*
X159477624Y-113099666D01*
X159471239Y-113173185D01*
X159451572Y-113229072D01*
X159418429Y-113277132D01*
X159374975Y-113316412D01*
X159373958Y-113317092D01*
X159347138Y-113333044D01*
X159320168Y-113343410D01*
X159286132Y-113349688D01*
X159238110Y-113353373D01*
X159198731Y-113354997D01*
X159163019Y-113355672D01*
X159163019Y-113229955D01*
X159198570Y-113228726D01*
X159245894Y-113224266D01*
X159276265Y-113216397D01*
X159297872Y-113202207D01*
X159310494Y-113188917D01*
X159336922Y-113141802D01*
X159340453Y-113092505D01*
X159321439Y-113046593D01*
X159300131Y-113023638D01*
X159278659Y-113007096D01*
X159258113Y-112997421D01*
X159231374Y-112993174D01*
X159191323Y-112992920D01*
X159154438Y-112994228D01*
X159101747Y-112997043D01*
X159067572Y-113001505D01*
X159045280Y-113009548D01*
X159028242Y-113023103D01*
X159018503Y-113033845D01*
X158992923Y-113078777D01*
X158991647Y-113127249D01*
X159006799Y-113167894D01*
X159038442Y-113202567D01*
X159090420Y-113223224D01*
X159163019Y-113229955D01*
X159163019Y-113355672D01*
X159120421Y-113356479D01*
X159061856Y-113353948D01*
X159017807Y-113346362D01*
X158983048Y-113332681D01*
X158952351Y-113311865D01*
X158943236Y-113304147D01*
X158897821Y-113255889D01*
X158871293Y-113204128D01*
X158860179Y-113140828D01*
X158859271Y-113109961D01*
X158868948Y-113028261D01*
X158868948Y-113028261D01*
G37*
X158868948Y-113028261D02*
X158898031Y-112962479D01*
X158946593Y-112912540D01*
X159014708Y-112878374D01*
X159102451Y-112859907D01*
X159116151Y-112858583D01*
X159212739Y-112857546D01*
X159297402Y-112870993D01*
X159366021Y-112898108D01*
X159388094Y-112912627D01*
X159434811Y-112963201D01*
X159465068Y-113027609D01*
X159477624Y-113099666D01*
X159471239Y-113173185D01*
X159451572Y-113229072D01*
X159418429Y-113277132D01*
X159374975Y-113316412D01*
X159373958Y-113317092D01*
X159347138Y-113333044D01*
X159320168Y-113343410D01*
X159286132Y-113349688D01*
X159238110Y-113353373D01*
X159198731Y-113354997D01*
X159163019Y-113355672D01*
X159163019Y-113229955D01*
X159198570Y-113228726D01*
X159245894Y-113224266D01*
X159276265Y-113216397D01*
X159297872Y-113202207D01*
X159310494Y-113188917D01*
X159336922Y-113141802D01*
X159340453Y-113092505D01*
X159321439Y-113046593D01*
X159300131Y-113023638D01*
X159278659Y-113007096D01*
X159258113Y-112997421D01*
X159231374Y-112993174D01*
X159191323Y-112992920D01*
X159154438Y-112994228D01*
X159101747Y-112997043D01*
X159067572Y-113001505D01*
X159045280Y-113009548D01*
X159028242Y-113023103D01*
X159018503Y-113033845D01*
X158992923Y-113078777D01*
X158991647Y-113127249D01*
X159006799Y-113167894D01*
X159038442Y-113202567D01*
X159090420Y-113223224D01*
X159163019Y-113229955D01*
X159163019Y-113355672D01*
X159120421Y-113356479D01*
X159061856Y-113353948D01*
X159017807Y-113346362D01*
X158983048Y-113332681D01*
X158952351Y-113311865D01*
X158943236Y-113304147D01*
X158897821Y-113255889D01*
X158871293Y-113204128D01*
X158860179Y-113140828D01*
X158859271Y-113109961D01*
X158868948Y-113028261D01*
G36*
X158876414Y-111846699D02*
X158882314Y-111834168D01*
X158914083Y-111790799D01*
X158960446Y-111749790D01*
X159011496Y-111719168D01*
X159034966Y-111710459D01*
X159076891Y-111702512D01*
X159127557Y-111697774D01*
X159148479Y-111697199D01*
X159214493Y-111697129D01*
X159214493Y-112077083D01*
X159249073Y-112068983D01*
X159289970Y-112049104D01*
X159325314Y-112014347D01*
X159348082Y-111972998D01*
X159352810Y-111946649D01*
X159347073Y-111910916D01*
X159332682Y-111868282D01*
X159326062Y-111853799D01*
X159299313Y-111800240D01*
X159334176Y-111754533D01*
X159357755Y-111728158D01*
X159377217Y-111714124D01*
X159382929Y-111713414D01*
X159396773Y-111725951D01*
X159417812Y-111753428D01*
X159434225Y-111778366D01*
X159463730Y-111845664D01*
X159477084Y-111921110D01*
X159473612Y-111995888D01*
X159455463Y-112055495D01*
X159416584Y-112116941D01*
X159365395Y-112160608D01*
X159299167Y-112187926D01*
X159215171Y-112200322D01*
X159176736Y-112201421D01*
X159088661Y-112197022D01*
X159086099Y-112196482D01*
X159086099Y-112070582D01*
X159094358Y-112067115D01*
X159098913Y-112052863D01*
X159100865Y-112023470D01*
X159101317Y-111974575D01*
X159101325Y-111955748D01*
X159100643Y-111898467D01*
X159098164Y-111862141D01*
X159093243Y-111842604D01*
X159085234Y-111835690D01*
X159082662Y-111835445D01*
X159062223Y-111843336D01*
X159033589Y-111863085D01*
X159023563Y-111871575D01*
X158995208Y-111903094D01*
X158984059Y-111935949D01*
X158983127Y-111953651D01*
X158994781Y-112001539D01*
X159026085Y-112041699D01*
X159071552Y-112067173D01*
X159073033Y-112067625D01*
X159086099Y-112070582D01*
X159086099Y-112196482D01*
X159019310Y-112182392D01*
X158963825Y-112156038D01*
X158924439Y-112123807D01*
X158881731Y-112064217D01*
X158858909Y-111994168D01*
X158856846Y-111919661D01*
X158876414Y-111846699D01*
X158876414Y-111846699D01*
G37*
X158876414Y-111846699D02*
X158882314Y-111834168D01*
X158914083Y-111790799D01*
X158960446Y-111749790D01*
X159011496Y-111719168D01*
X159034966Y-111710459D01*
X159076891Y-111702512D01*
X159127557Y-111697774D01*
X159148479Y-111697199D01*
X159214493Y-111697129D01*
X159214493Y-112077083D01*
X159249073Y-112068983D01*
X159289970Y-112049104D01*
X159325314Y-112014347D01*
X159348082Y-111972998D01*
X159352810Y-111946649D01*
X159347073Y-111910916D01*
X159332682Y-111868282D01*
X159326062Y-111853799D01*
X159299313Y-111800240D01*
X159334176Y-111754533D01*
X159357755Y-111728158D01*
X159377217Y-111714124D01*
X159382929Y-111713414D01*
X159396773Y-111725951D01*
X159417812Y-111753428D01*
X159434225Y-111778366D01*
X159463730Y-111845664D01*
X159477084Y-111921110D01*
X159473612Y-111995888D01*
X159455463Y-112055495D01*
X159416584Y-112116941D01*
X159365395Y-112160608D01*
X159299167Y-112187926D01*
X159215171Y-112200322D01*
X159176736Y-112201421D01*
X159088661Y-112197022D01*
X159086099Y-112196482D01*
X159086099Y-112070582D01*
X159094358Y-112067115D01*
X159098913Y-112052863D01*
X159100865Y-112023470D01*
X159101317Y-111974575D01*
X159101325Y-111955748D01*
X159100643Y-111898467D01*
X159098164Y-111862141D01*
X159093243Y-111842604D01*
X159085234Y-111835690D01*
X159082662Y-111835445D01*
X159062223Y-111843336D01*
X159033589Y-111863085D01*
X159023563Y-111871575D01*
X158995208Y-111903094D01*
X158984059Y-111935949D01*
X158983127Y-111953651D01*
X158994781Y-112001539D01*
X159026085Y-112041699D01*
X159071552Y-112067173D01*
X159073033Y-112067625D01*
X159086099Y-112070582D01*
X159086099Y-112196482D01*
X159019310Y-112182392D01*
X158963825Y-112156038D01*
X158924439Y-112123807D01*
X158881731Y-112064217D01*
X158858909Y-111994168D01*
X158856846Y-111919661D01*
X158876414Y-111846699D01*
G36*
X158860252Y-110475983D02*
X158869282Y-110428366D01*
X158888170Y-110378966D01*
X158890577Y-110373688D01*
X158910276Y-110336226D01*
X158928581Y-110310283D01*
X158940308Y-110301897D01*
X158959432Y-110309883D01*
X158987650Y-110329280D01*
X158998184Y-110337890D01*
X159039647Y-110373372D01*
X159012658Y-110419115D01*
X158994678Y-110462650D01*
X158985067Y-110512950D01*
X158984460Y-110561188D01*
X158993491Y-110598533D01*
X158999127Y-110607495D01*
X159024971Y-110624563D01*
X159054741Y-110626637D01*
X159077997Y-110613866D01*
X159082508Y-110606312D01*
X159088109Y-110583675D01*
X159094692Y-110543885D01*
X159100983Y-110494834D01*
X159101970Y-110485785D01*
X159115598Y-110407004D01*
X159138746Y-110349864D01*
X159173552Y-110311970D01*
X159222154Y-110290921D01*
X159281518Y-110284365D01*
X159348998Y-110293423D01*
X159401988Y-110322836D01*
X159440583Y-110372722D01*
X159464881Y-110443200D01*
X159474467Y-110521435D01*
X159474352Y-110585234D01*
X159465645Y-110636984D01*
X159453625Y-110672327D01*
X159432680Y-110716983D01*
X159408374Y-110758253D01*
X159397676Y-110772921D01*
X159366884Y-110810643D01*
X159320849Y-110765148D01*
X159274813Y-110719653D01*
X159309043Y-110667928D01*
X159334752Y-110616048D01*
X159348199Y-110560649D01*
X159349618Y-110507395D01*
X159339243Y-110461951D01*
X159317307Y-110429984D01*
X159298798Y-110419662D01*
X159269114Y-110421211D01*
X159246415Y-110446860D01*
X159230740Y-110496540D01*
X159223495Y-110550969D01*
X159209673Y-110634736D01*
X159183596Y-110696967D01*
X159144499Y-110738493D01*
X159091620Y-110760147D01*
X159028926Y-110763147D01*
X158963442Y-110748329D01*
X158913944Y-110714546D01*
X158880208Y-110661495D01*
X158862007Y-110588874D01*
X158858439Y-110535072D01*
X158860252Y-110475983D01*
X158860252Y-110475983D01*
G37*
X158860252Y-110475983D02*
X158869282Y-110428366D01*
X158888170Y-110378966D01*
X158890577Y-110373688D01*
X158910276Y-110336226D01*
X158928581Y-110310283D01*
X158940308Y-110301897D01*
X158959432Y-110309883D01*
X158987650Y-110329280D01*
X158998184Y-110337890D01*
X159039647Y-110373372D01*
X159012658Y-110419115D01*
X158994678Y-110462650D01*
X158985067Y-110512950D01*
X158984460Y-110561188D01*
X158993491Y-110598533D01*
X158999127Y-110607495D01*
X159024971Y-110624563D01*
X159054741Y-110626637D01*
X159077997Y-110613866D01*
X159082508Y-110606312D01*
X159088109Y-110583675D01*
X159094692Y-110543885D01*
X159100983Y-110494834D01*
X159101970Y-110485785D01*
X159115598Y-110407004D01*
X159138746Y-110349864D01*
X159173552Y-110311970D01*
X159222154Y-110290921D01*
X159281518Y-110284365D01*
X159348998Y-110293423D01*
X159401988Y-110322836D01*
X159440583Y-110372722D01*
X159464881Y-110443200D01*
X159474467Y-110521435D01*
X159474352Y-110585234D01*
X159465645Y-110636984D01*
X159453625Y-110672327D01*
X159432680Y-110716983D01*
X159408374Y-110758253D01*
X159397676Y-110772921D01*
X159366884Y-110810643D01*
X159320849Y-110765148D01*
X159274813Y-110719653D01*
X159309043Y-110667928D01*
X159334752Y-110616048D01*
X159348199Y-110560649D01*
X159349618Y-110507395D01*
X159339243Y-110461951D01*
X159317307Y-110429984D01*
X159298798Y-110419662D01*
X159269114Y-110421211D01*
X159246415Y-110446860D01*
X159230740Y-110496540D01*
X159223495Y-110550969D01*
X159209673Y-110634736D01*
X159183596Y-110696967D01*
X159144499Y-110738493D01*
X159091620Y-110760147D01*
X159028926Y-110763147D01*
X158963442Y-110748329D01*
X158913944Y-110714546D01*
X158880208Y-110661495D01*
X158862007Y-110588874D01*
X158858439Y-110535072D01*
X158860252Y-110475983D01*
G36*
X158869855Y-109879238D02*
X158904492Y-109815637D01*
X158959172Y-109765877D01*
X159003642Y-109742432D01*
X159042921Y-109732366D01*
X159098916Y-109725844D01*
X159163421Y-109723049D01*
X159228229Y-109724164D01*
X159285134Y-109729374D01*
X159315527Y-109735459D01*
X159357106Y-109755986D01*
X159401268Y-109791537D01*
X159439887Y-109834381D01*
X159464834Y-109876789D01*
X159465230Y-109877823D01*
X159476131Y-109930447D01*
X159476401Y-109992812D01*
X159466476Y-110052076D01*
X159458522Y-110074960D01*
X159425100Y-110133898D01*
X159381311Y-110176110D01*
X159323338Y-110203844D01*
X159247365Y-110219349D01*
X159207571Y-110222857D01*
X159157566Y-110222410D01*
X159157566Y-110087624D01*
X159230532Y-110083083D01*
X159286134Y-110070014D01*
X159321661Y-110049244D01*
X159331820Y-110034448D01*
X159338904Y-109996536D01*
X159336807Y-109951473D01*
X159326612Y-109912513D01*
X159321004Y-109902296D01*
X159288338Y-109875341D01*
X159238345Y-109857549D01*
X159177505Y-109849976D01*
X159112297Y-109853675D01*
X159073053Y-109861943D01*
X159027605Y-109885680D01*
X158999196Y-109923151D01*
X158989373Y-109968280D01*
X158999687Y-110014989D01*
X159024912Y-110050868D01*
X159045725Y-110069723D01*
X159066239Y-110080728D01*
X159094003Y-110085974D01*
X159136562Y-110087551D01*
X159157566Y-110087624D01*
X159157566Y-110222410D01*
X159101380Y-110221906D01*
X159014301Y-110204612D01*
X158946330Y-110170971D01*
X158897464Y-110120982D01*
X158867699Y-110054644D01*
X158864248Y-110040399D01*
X158856145Y-109954790D01*
X158869855Y-109879238D01*
X158869855Y-109879238D01*
G37*
X158869855Y-109879238D02*
X158904492Y-109815637D01*
X158959172Y-109765877D01*
X159003642Y-109742432D01*
X159042921Y-109732366D01*
X159098916Y-109725844D01*
X159163421Y-109723049D01*
X159228229Y-109724164D01*
X159285134Y-109729374D01*
X159315527Y-109735459D01*
X159357106Y-109755986D01*
X159401268Y-109791537D01*
X159439887Y-109834381D01*
X159464834Y-109876789D01*
X159465230Y-109877823D01*
X159476131Y-109930447D01*
X159476401Y-109992812D01*
X159466476Y-110052076D01*
X159458522Y-110074960D01*
X159425100Y-110133898D01*
X159381311Y-110176110D01*
X159323338Y-110203844D01*
X159247365Y-110219349D01*
X159207571Y-110222857D01*
X159157566Y-110222410D01*
X159157566Y-110087624D01*
X159230532Y-110083083D01*
X159286134Y-110070014D01*
X159321661Y-110049244D01*
X159331820Y-110034448D01*
X159338904Y-109996536D01*
X159336807Y-109951473D01*
X159326612Y-109912513D01*
X159321004Y-109902296D01*
X159288338Y-109875341D01*
X159238345Y-109857549D01*
X159177505Y-109849976D01*
X159112297Y-109853675D01*
X159073053Y-109861943D01*
X159027605Y-109885680D01*
X158999196Y-109923151D01*
X158989373Y-109968280D01*
X158999687Y-110014989D01*
X159024912Y-110050868D01*
X159045725Y-110069723D01*
X159066239Y-110080728D01*
X159094003Y-110085974D01*
X159136562Y-110087551D01*
X159157566Y-110087624D01*
X159157566Y-110222410D01*
X159101380Y-110221906D01*
X159014301Y-110204612D01*
X158946330Y-110170971D01*
X158897464Y-110120982D01*
X158867699Y-110054644D01*
X158864248Y-110040399D01*
X158856145Y-109954790D01*
X158869855Y-109879238D01*
G36*
X159058142Y-109496633D02*
X159150363Y-109495445D01*
X159220410Y-109491103D01*
X159271181Y-109482442D01*
X159305572Y-109468296D01*
X159326479Y-109447500D01*
X159336800Y-109418890D01*
X159339436Y-109383465D01*
X159336482Y-109346364D01*
X159325689Y-109318182D01*
X159304160Y-109297757D01*
X159268999Y-109283921D01*
X159217310Y-109275509D01*
X159146194Y-109271357D01*
X159058142Y-109270297D01*
X158862414Y-109270297D01*
X158862414Y-109131980D01*
X159465979Y-109131980D01*
X159465979Y-109201138D01*
X159464289Y-109242830D01*
X159458356Y-109264299D01*
X159447093Y-109270297D01*
X159437061Y-109273909D01*
X159439183Y-109288286D01*
X159453380Y-109317264D01*
X159475280Y-109383681D01*
X159473728Y-109454125D01*
X159449947Y-109521623D01*
X159431162Y-109553767D01*
X159410822Y-109578285D01*
X159385373Y-109596196D01*
X159351258Y-109608521D01*
X159304921Y-109616277D01*
X159242807Y-109620484D01*
X159161361Y-109622160D01*
X159098378Y-109622376D01*
X158862414Y-109622376D01*
X158862414Y-109496633D01*
X159058142Y-109496633D01*
X159058142Y-109496633D01*
G37*
X159058142Y-109496633D02*
X159150363Y-109495445D01*
X159220410Y-109491103D01*
X159271181Y-109482442D01*
X159305572Y-109468296D01*
X159326479Y-109447500D01*
X159336800Y-109418890D01*
X159339436Y-109383465D01*
X159336482Y-109346364D01*
X159325689Y-109318182D01*
X159304160Y-109297757D01*
X159268999Y-109283921D01*
X159217310Y-109275509D01*
X159146194Y-109271357D01*
X159058142Y-109270297D01*
X158862414Y-109270297D01*
X158862414Y-109131980D01*
X159465979Y-109131980D01*
X159465979Y-109201138D01*
X159464289Y-109242830D01*
X159458356Y-109264299D01*
X159447093Y-109270297D01*
X159437061Y-109273909D01*
X159439183Y-109288286D01*
X159453380Y-109317264D01*
X159475280Y-109383681D01*
X159473728Y-109454125D01*
X159449947Y-109521623D01*
X159431162Y-109553767D01*
X159410822Y-109578285D01*
X159385373Y-109596196D01*
X159351258Y-109608521D01*
X159304921Y-109616277D01*
X159242807Y-109620484D01*
X159161361Y-109622160D01*
X159098378Y-109622376D01*
X158862414Y-109622376D01*
X158862414Y-109496633D01*
X159058142Y-109496633D01*
G36*
X158867680Y-108272774D02*
X158898630Y-108199920D01*
X158913695Y-108176973D01*
X158936848Y-108147646D01*
X158955053Y-108129236D01*
X158960983Y-108126039D01*
X158974140Y-108135065D01*
X158996467Y-108158163D01*
X159012050Y-108176656D01*
X159052726Y-108227272D01*
X159019095Y-108267240D01*
X158997384Y-108298126D01*
X158989890Y-108328241D01*
X158991720Y-108362708D01*
X159005328Y-108417439D01*
X159033572Y-108455114D01*
X159079233Y-108478009D01*
X159145089Y-108488403D01*
X159145131Y-108488405D01*
X159218739Y-108487506D01*
X159272746Y-108473537D01*
X159309516Y-108445672D01*
X159321968Y-108426675D01*
X159337473Y-108376224D01*
X159337483Y-108322337D01*
X159322438Y-108275454D01*
X159315087Y-108264356D01*
X159296311Y-108236524D01*
X159293234Y-108214764D01*
X159307209Y-108191296D01*
X159332310Y-108165351D01*
X159374680Y-108124284D01*
X159412264Y-108169879D01*
X159454682Y-108240326D01*
X159475585Y-108319767D01*
X159474072Y-108402785D01*
X159460211Y-108457306D01*
X159425935Y-108521030D01*
X159372012Y-108571995D01*
X159333949Y-108595149D01*
X159279336Y-108613901D01*
X159210169Y-108623285D01*
X159135207Y-108623357D01*
X159063209Y-108614176D01*
X159002937Y-108595801D01*
X158996758Y-108592907D01*
X158936151Y-108550048D01*
X158892024Y-108492021D01*
X158865293Y-108423409D01*
X158856873Y-108348799D01*
X158867680Y-108272774D01*
X158867680Y-108272774D01*
G37*
X158867680Y-108272774D02*
X158898630Y-108199920D01*
X158913695Y-108176973D01*
X158936848Y-108147646D01*
X158955053Y-108129236D01*
X158960983Y-108126039D01*
X158974140Y-108135065D01*
X158996467Y-108158163D01*
X159012050Y-108176656D01*
X159052726Y-108227272D01*
X159019095Y-108267240D01*
X158997384Y-108298126D01*
X158989890Y-108328241D01*
X158991720Y-108362708D01*
X159005328Y-108417439D01*
X159033572Y-108455114D01*
X159079233Y-108478009D01*
X159145089Y-108488403D01*
X159145131Y-108488405D01*
X159218739Y-108487506D01*
X159272746Y-108473537D01*
X159309516Y-108445672D01*
X159321968Y-108426675D01*
X159337473Y-108376224D01*
X159337483Y-108322337D01*
X159322438Y-108275454D01*
X159315087Y-108264356D01*
X159296311Y-108236524D01*
X159293234Y-108214764D01*
X159307209Y-108191296D01*
X159332310Y-108165351D01*
X159374680Y-108124284D01*
X159412264Y-108169879D01*
X159454682Y-108240326D01*
X159475585Y-108319767D01*
X159474072Y-108402785D01*
X159460211Y-108457306D01*
X159425935Y-108521030D01*
X159372012Y-108571995D01*
X159333949Y-108595149D01*
X159279336Y-108613901D01*
X159210169Y-108623285D01*
X159135207Y-108623357D01*
X159063209Y-108614176D01*
X159002937Y-108595801D01*
X158996758Y-108592907D01*
X158936151Y-108550048D01*
X158892024Y-108492021D01*
X158865293Y-108423409D01*
X158856873Y-108348799D01*
X158867680Y-108272774D01*
G36*
X158860257Y-107812102D02*
X158868079Y-107779904D01*
X158896721Y-107718175D01*
X158940467Y-107665390D01*
X158992917Y-107628859D01*
X159004693Y-107623840D01*
X159035540Y-107616955D01*
X159081171Y-107612136D01*
X159127292Y-107610495D01*
X159214493Y-107610495D01*
X159214493Y-107792822D01*
X159214778Y-107868021D01*
X159216504Y-107920997D01*
X159220981Y-107954675D01*
X159229520Y-107971980D01*
X159243430Y-107975837D01*
X159264022Y-107969171D01*
X159288115Y-107957230D01*
X159328325Y-107923920D01*
X159348358Y-107877632D01*
X159347705Y-107821056D01*
X159325901Y-107756969D01*
X159298993Y-107701583D01*
X159335332Y-107655625D01*
X159371672Y-107609667D01*
X159411619Y-107652904D01*
X159449363Y-107710626D01*
X159472120Y-107781614D01*
X159478488Y-107857971D01*
X159467068Y-107931801D01*
X159463193Y-107943713D01*
X159429306Y-108008601D01*
X159378786Y-108056870D01*
X159310125Y-108089535D01*
X159221814Y-108107615D01*
X159219921Y-108107825D01*
X159123678Y-108109444D01*
X159089342Y-108102900D01*
X159089342Y-107975148D01*
X159094622Y-107963416D01*
X159098667Y-107931562D01*
X159100976Y-107884603D01*
X159101325Y-107854846D01*
X159101106Y-107799352D01*
X159099716Y-107764654D01*
X159096051Y-107746399D01*
X159089010Y-107740234D01*
X159077490Y-107741805D01*
X159073033Y-107743122D01*
X159031155Y-107765618D01*
X158997404Y-107800997D01*
X158982573Y-107832220D01*
X158983468Y-107873699D01*
X159001964Y-107915731D01*
X159032586Y-107950988D01*
X159069862Y-107972146D01*
X159089342Y-107975148D01*
X159089342Y-108102900D01*
X159039029Y-108093310D01*
X158967991Y-108061302D01*
X158912579Y-108015299D01*
X158874809Y-107957179D01*
X158856696Y-107888820D01*
X158860257Y-107812102D01*
X158860257Y-107812102D01*
G37*
X158860257Y-107812102D02*
X158868079Y-107779904D01*
X158896721Y-107718175D01*
X158940467Y-107665390D01*
X158992917Y-107628859D01*
X159004693Y-107623840D01*
X159035540Y-107616955D01*
X159081171Y-107612136D01*
X159127292Y-107610495D01*
X159214493Y-107610495D01*
X159214493Y-107792822D01*
X159214778Y-107868021D01*
X159216504Y-107920997D01*
X159220981Y-107954675D01*
X159229520Y-107971980D01*
X159243430Y-107975837D01*
X159264022Y-107969171D01*
X159288115Y-107957230D01*
X159328325Y-107923920D01*
X159348358Y-107877632D01*
X159347705Y-107821056D01*
X159325901Y-107756969D01*
X159298993Y-107701583D01*
X159335332Y-107655625D01*
X159371672Y-107609667D01*
X159411619Y-107652904D01*
X159449363Y-107710626D01*
X159472120Y-107781614D01*
X159478488Y-107857971D01*
X159467068Y-107931801D01*
X159463193Y-107943713D01*
X159429306Y-108008601D01*
X159378786Y-108056870D01*
X159310125Y-108089535D01*
X159221814Y-108107615D01*
X159219921Y-108107825D01*
X159123678Y-108109444D01*
X159089342Y-108102900D01*
X159089342Y-107975148D01*
X159094622Y-107963416D01*
X159098667Y-107931562D01*
X159100976Y-107884603D01*
X159101325Y-107854846D01*
X159101106Y-107799352D01*
X159099716Y-107764654D01*
X159096051Y-107746399D01*
X159089010Y-107740234D01*
X159077490Y-107741805D01*
X159073033Y-107743122D01*
X159031155Y-107765618D01*
X158997404Y-107800997D01*
X158982573Y-107832220D01*
X158983468Y-107873699D01*
X159001964Y-107915731D01*
X159032586Y-107950988D01*
X159069862Y-107972146D01*
X159089342Y-107975148D01*
X159089342Y-108102900D01*
X159039029Y-108093310D01*
X158967991Y-108061302D01*
X158912579Y-108015299D01*
X158874809Y-107957179D01*
X158856696Y-107888820D01*
X158860257Y-107812102D01*
G36*
X158872802Y-111244012D02*
X158887750Y-111212717D01*
X158909341Y-111182409D01*
X158934191Y-111159318D01*
X158965887Y-111142500D01*
X159008014Y-111131006D01*
X159064158Y-111123891D01*
X159137906Y-111120207D01*
X159232844Y-111119008D01*
X159242785Y-111118989D01*
X159465979Y-111118713D01*
X159465979Y-111257030D01*
X159260218Y-111257030D01*
X159183989Y-111257128D01*
X159128739Y-111257809D01*
X159090301Y-111259651D01*
X159064506Y-111263233D01*
X159047184Y-111269132D01*
X159034168Y-111277927D01*
X159021307Y-111290180D01*
X158993673Y-111333047D01*
X158988545Y-111379843D01*
X159006017Y-111424424D01*
X159019021Y-111439928D01*
X159031247Y-111451310D01*
X159044340Y-111459481D01*
X159062415Y-111464974D01*
X159089587Y-111468320D01*
X159129970Y-111470051D01*
X159187679Y-111470697D01*
X159257932Y-111470792D01*
X159465979Y-111470792D01*
X159465979Y-111609109D01*
X158862414Y-111609109D01*
X158862414Y-111539950D01*
X158864056Y-111498428D01*
X158869887Y-111477006D01*
X158881261Y-111470795D01*
X158881598Y-111470792D01*
X158892738Y-111467910D01*
X158891474Y-111455199D01*
X158879234Y-111429926D01*
X158861224Y-111372605D01*
X158859221Y-111307037D01*
X158872802Y-111244012D01*
X158872802Y-111244012D01*
G37*
X158872802Y-111244012D02*
X158887750Y-111212717D01*
X158909341Y-111182409D01*
X158934191Y-111159318D01*
X158965887Y-111142500D01*
X159008014Y-111131006D01*
X159064158Y-111123891D01*
X159137906Y-111120207D01*
X159232844Y-111119008D01*
X159242785Y-111118989D01*
X159465979Y-111118713D01*
X159465979Y-111257030D01*
X159260218Y-111257030D01*
X159183989Y-111257128D01*
X159128739Y-111257809D01*
X159090301Y-111259651D01*
X159064506Y-111263233D01*
X159047184Y-111269132D01*
X159034168Y-111277927D01*
X159021307Y-111290180D01*
X158993673Y-111333047D01*
X158988545Y-111379843D01*
X159006017Y-111424424D01*
X159019021Y-111439928D01*
X159031247Y-111451310D01*
X159044340Y-111459481D01*
X159062415Y-111464974D01*
X159089587Y-111468320D01*
X159129970Y-111470051D01*
X159187679Y-111470697D01*
X159257932Y-111470792D01*
X159465979Y-111470792D01*
X159465979Y-111609109D01*
X158862414Y-111609109D01*
X158862414Y-111539950D01*
X158864056Y-111498428D01*
X158869887Y-111477006D01*
X158881261Y-111470795D01*
X158881598Y-111470792D01*
X158892738Y-111467910D01*
X158891474Y-111455199D01*
X158879234Y-111429926D01*
X158861224Y-111372605D01*
X158859221Y-111307037D01*
X158872802Y-111244012D01*
G36*
X158861830Y-108690540D02*
X158875045Y-108647289D01*
X158891741Y-108619442D01*
X158904945Y-108610371D01*
X158920597Y-108612868D01*
X158945185Y-108629069D01*
X158962600Y-108642768D01*
X158994083Y-108671008D01*
X159007329Y-108692225D01*
X159006464Y-108710312D01*
X158992810Y-108763965D01*
X158993430Y-108803370D01*
X159008904Y-108835368D01*
X159017961Y-108846110D01*
X159049827Y-108880495D01*
X159465979Y-108880495D01*
X159465979Y-109018812D01*
X158862414Y-109018812D01*
X158862414Y-108949653D01*
X158864056Y-108908131D01*
X158869887Y-108886709D01*
X158881261Y-108880498D01*
X158881598Y-108880495D01*
X158893513Y-108877561D01*
X158891959Y-108864296D01*
X158883363Y-108845916D01*
X158867368Y-108807954D01*
X158857745Y-108777128D01*
X158855278Y-108737464D01*
X158861830Y-108690540D01*
X158861830Y-108690540D01*
G37*
X158861830Y-108690540D02*
X158875045Y-108647289D01*
X158891741Y-108619442D01*
X158904945Y-108610371D01*
X158920597Y-108612868D01*
X158945185Y-108629069D01*
X158962600Y-108642768D01*
X158994083Y-108671008D01*
X159007329Y-108692225D01*
X159006464Y-108710312D01*
X158992810Y-108763965D01*
X158993430Y-108803370D01*
X159008904Y-108835368D01*
X159017961Y-108846110D01*
X159049827Y-108880495D01*
X159465979Y-108880495D01*
X159465979Y-109018812D01*
X158862414Y-109018812D01*
X158862414Y-108949653D01*
X158864056Y-108908131D01*
X158869887Y-108886709D01*
X158881261Y-108880498D01*
X158881598Y-108880495D01*
X158893513Y-108877561D01*
X158891959Y-108864296D01*
X158883363Y-108845916D01*
X158867368Y-108807954D01*
X158857745Y-108777128D01*
X158855278Y-108737464D01*
X158861830Y-108690540D01*
G36*
X154693818Y-110113036D02*
X154995370Y-110056188D01*
X155168312Y-109636662D01*
X154997195Y-109385016D01*
X154949550Y-109314542D01*
X154907010Y-109250837D01*
X154871515Y-109196874D01*
X154845010Y-109155627D01*
X154829436Y-109130066D01*
X154826078Y-109123105D01*
X154834714Y-109110565D01*
X154858592Y-109083769D01*
X154894659Y-109045720D01*
X154939867Y-108999421D01*
X154991164Y-108947877D01*
X155045501Y-108894091D01*
X155099828Y-108841065D01*
X155151095Y-108791805D01*
X155196251Y-108749313D01*
X155232246Y-108716593D01*
X155256030Y-108696649D01*
X155263990Y-108691881D01*
X155278665Y-108698743D01*
X155310814Y-108717980D01*
X155357292Y-108747570D01*
X155414956Y-108785490D01*
X155480660Y-108829718D01*
X155518136Y-108855346D01*
X155586568Y-108902059D01*
X155648320Y-108943568D01*
X155700319Y-108977860D01*
X155739492Y-109002920D01*
X155762765Y-109016736D01*
X155767655Y-109018812D01*
X155781555Y-109014105D01*
X155813950Y-109001277D01*
X155860285Y-108982262D01*
X155916006Y-108958997D01*
X155976558Y-108933416D01*
X156037386Y-108907455D01*
X156093936Y-108883050D01*
X156141652Y-108862137D01*
X156175981Y-108846651D01*
X156192368Y-108838528D01*
X156193012Y-108838048D01*
X156196141Y-108825293D01*
X156203121Y-108791323D01*
X156213267Y-108739660D01*
X156225892Y-108673824D01*
X156240309Y-108597336D01*
X156248623Y-108552710D01*
X156264184Y-108470979D01*
X156278992Y-108397157D01*
X156292236Y-108334979D01*
X156303105Y-108288178D01*
X156310789Y-108260491D01*
X156313227Y-108254926D01*
X156329730Y-108249474D01*
X156367000Y-108245076D01*
X156420680Y-108241728D01*
X156486412Y-108239426D01*
X156559837Y-108238168D01*
X156636596Y-108237952D01*
X156712332Y-108238773D01*
X156782686Y-108240629D01*
X156843300Y-108243518D01*
X156889816Y-108247435D01*
X156917875Y-108252378D01*
X156923716Y-108255343D01*
X156930717Y-108273066D01*
X156940727Y-108310619D01*
X156952569Y-108363036D01*
X156965067Y-108425348D01*
X156969110Y-108447100D01*
X156988320Y-108551976D01*
X157003791Y-108634820D01*
X157016137Y-108698370D01*
X157025973Y-108745363D01*
X157033914Y-108778537D01*
X157040576Y-108800629D01*
X157046573Y-108814376D01*
X157052519Y-108822516D01*
X157053694Y-108823655D01*
X157072626Y-108835023D01*
X157109469Y-108852365D01*
X157159713Y-108873950D01*
X157218846Y-108898046D01*
X157282356Y-108922921D01*
X157345732Y-108946843D01*
X157404462Y-108968081D01*
X157454035Y-108984903D01*
X157489939Y-108995578D01*
X157507662Y-108998373D01*
X157508283Y-108998140D01*
X157522770Y-108988669D01*
X157554644Y-108967182D01*
X157600589Y-108935937D01*
X157657285Y-108897193D01*
X157721417Y-108853207D01*
X157739642Y-108840681D01*
X157805714Y-108796016D01*
X157866000Y-108756712D01*
X157917035Y-108724912D01*
X157955360Y-108702755D01*
X157977511Y-108692383D01*
X157980232Y-108691881D01*
X157994536Y-108700595D01*
X158022872Y-108724675D01*
X158062196Y-108761024D01*
X158109461Y-108806547D01*
X158161623Y-108858148D01*
X158215635Y-108912733D01*
X158268453Y-108967206D01*
X158317031Y-109018471D01*
X158358323Y-109063433D01*
X158389285Y-109098996D01*
X158406870Y-109122065D01*
X158409741Y-109128446D01*
X158402978Y-109143301D01*
X158384739Y-109173714D01*
X158358097Y-109214732D01*
X158336652Y-109246291D01*
X158297303Y-109303475D01*
X158250971Y-109371194D01*
X158204713Y-109439120D01*
X158179955Y-109475639D01*
X158096347Y-109599248D01*
X158152450Y-109703009D01*
X158177028Y-109750280D01*
X158196131Y-109790477D01*
X158207027Y-109817674D01*
X158208543Y-109824598D01*
X158197349Y-109832923D01*
X158165717Y-109849346D01*
X158116565Y-109872643D01*
X158052810Y-109901586D01*
X157977371Y-109934950D01*
X157893164Y-109971509D01*
X157803108Y-110010036D01*
X157710121Y-110049306D01*
X157617120Y-110088092D01*
X157527023Y-110125170D01*
X157442748Y-110159311D01*
X157367213Y-110189292D01*
X157303334Y-110213884D01*
X157254031Y-110231864D01*
X157222221Y-110242003D01*
X157211296Y-110243634D01*
X157197361Y-110230709D01*
X157174740Y-110202411D01*
X157148133Y-110164654D01*
X157146028Y-110161485D01*
X157067914Y-110063900D01*
X156976782Y-109985214D01*
X156875545Y-109926109D01*
X156767118Y-109887268D01*
X156654414Y-109869372D01*
X156540348Y-109873103D01*
X156427834Y-109899143D01*
X156319785Y-109948175D01*
X156296145Y-109962600D01*
X156200687Y-110037631D01*
X156124032Y-110126270D01*
X156066580Y-110225451D01*
X156028729Y-110332105D01*
X156010878Y-110443164D01*
X156013425Y-110555561D01*
X156036770Y-110666227D01*
X156081310Y-110772094D01*
X156147445Y-110870095D01*
X156174287Y-110900410D01*
X156258312Y-110977562D01*
X156346766Y-111033782D01*
X156445915Y-111072347D01*
X156544103Y-111093826D01*
X156654497Y-111099128D01*
X156765440Y-111081448D01*
X156873181Y-111042581D01*
X156973969Y-110984323D01*
X157064056Y-110908469D01*
X157139692Y-110816817D01*
X157147664Y-110804772D01*
X157173774Y-110766611D01*
X157196395Y-110737601D01*
X157210839Y-110723732D01*
X157211296Y-110723531D01*
X157226921Y-110726508D01*
X157262382Y-110738311D01*
X157314762Y-110757714D01*
X157381145Y-110783488D01*
X157458614Y-110814409D01*
X157544250Y-110849249D01*
X157635137Y-110886783D01*
X157728359Y-110925783D01*
X157820997Y-110965023D01*
X157910135Y-111003276D01*
X157992855Y-111039317D01*
X158066241Y-111071917D01*
X158127375Y-111099852D01*
X158173341Y-111121895D01*
X158201221Y-111136818D01*
X158208543Y-111142828D01*
X158202841Y-111161191D01*
X158187549Y-111195552D01*
X158165399Y-111239984D01*
X158152450Y-111264417D01*
X158096347Y-111368178D01*
X158179955Y-111491787D01*
X158222787Y-111554886D01*
X158269922Y-111623970D01*
X158314303Y-111688707D01*
X158336652Y-111721134D01*
X158367277Y-111766741D01*
X158391547Y-111805360D01*
X158406387Y-111831952D01*
X158409524Y-111840590D01*
X158401061Y-111853161D01*
X158377436Y-111880984D01*
X158341102Y-111921361D01*
X158294511Y-111971595D01*
X158240117Y-112028988D01*
X158205192Y-112065286D01*
X158142796Y-112128790D01*
X158086988Y-112183673D01*
X158040154Y-112227714D01*
X158004682Y-112258695D01*
X157982961Y-112274398D01*
X157978552Y-112275905D01*
X157961785Y-112268914D01*
X157927882Y-112249594D01*
X157880276Y-112220091D01*
X157822399Y-112182545D01*
X157757684Y-112139100D01*
X157739642Y-112126745D01*
X157674067Y-112081727D01*
X157615028Y-112041340D01*
X157565842Y-112007840D01*
X157529828Y-111983486D01*
X157510302Y-111970536D01*
X157508283Y-111969285D01*
X157492722Y-111971156D01*
X157458509Y-111981087D01*
X157410155Y-111997347D01*
X157352171Y-112018205D01*
X157289070Y-112041927D01*
X157225363Y-112066784D01*
X157165561Y-112091042D01*
X157114176Y-112112971D01*
X157075719Y-112130838D01*
X157054702Y-112142913D01*
X157053694Y-112143771D01*
X157047688Y-112151154D01*
X157041748Y-112163625D01*
X157035260Y-112183920D01*
X157027609Y-112214778D01*
X157018180Y-112258934D01*
X157006359Y-112319126D01*
X156991529Y-112398093D01*
X156973077Y-112498570D01*
X156969110Y-112520325D01*
X156956653Y-112584802D01*
X156944466Y-112641011D01*
X156933726Y-112683987D01*
X156925609Y-112708760D01*
X156923716Y-112712082D01*
X156906938Y-112717556D01*
X156869445Y-112722006D01*
X156815594Y-112725428D01*
X156749744Y-112727819D01*
X156676253Y-112729177D01*
X156599480Y-112729499D01*
X156523783Y-112728781D01*
X156453520Y-112727021D01*
X156393050Y-112724216D01*
X156346730Y-112720362D01*
X156318919Y-112715457D01*
X156313227Y-112712500D01*
X156307486Y-112696037D01*
X156298145Y-112658551D01*
X156286015Y-112603775D01*
X156271907Y-112535445D01*
X156256630Y-112457294D01*
X156248623Y-112414716D01*
X156233521Y-112333929D01*
X156219840Y-112261887D01*
X156208267Y-112202111D01*
X156199487Y-112158121D01*
X156194187Y-112133439D01*
X156193012Y-112129377D01*
X156179765Y-112122511D01*
X156147857Y-112107998D01*
X156101847Y-112087771D01*
X156046292Y-112063766D01*
X155985753Y-112037918D01*
X155924786Y-112012160D01*
X155867951Y-111988427D01*
X155819806Y-111968654D01*
X155784910Y-111954776D01*
X155767821Y-111948726D01*
X155767074Y-111948614D01*
X155753593Y-111955472D01*
X155722570Y-111974698D01*
X155677089Y-112004272D01*
X155620232Y-112042173D01*
X155555083Y-112086380D01*
X155517662Y-112112079D01*
X155449047Y-112158907D01*
X155386752Y-112200499D01*
X155333929Y-112234825D01*
X155293727Y-112259857D01*
X155269300Y-112273565D01*
X155263824Y-112275544D01*
X155251078Y-112267034D01*
X155223863Y-112243507D01*
X155185228Y-112207968D01*
X155138223Y-112163423D01*
X155085895Y-112112877D01*
X155031295Y-112059336D01*
X154977470Y-112005805D01*
X154927470Y-111955289D01*
X154884343Y-111910794D01*
X154851139Y-111875325D01*
X154830906Y-111851887D01*
X154826078Y-111844046D01*
X154832867Y-111831280D01*
X154851942Y-111800744D01*
X154881361Y-111755410D01*
X154919181Y-111698244D01*
X154963461Y-111632216D01*
X154997195Y-111582410D01*
X155168312Y-111330764D01*
X155081841Y-111121001D01*
X154995370Y-110911237D01*
X154693818Y-110854389D01*
X154392266Y-110797540D01*
X154392266Y-110169885D01*
X154693818Y-110113036D01*
X154693818Y-110113036D01*
G37*
X154693818Y-110113036D02*
X154995370Y-110056188D01*
X155168312Y-109636662D01*
X154997195Y-109385016D01*
X154949550Y-109314542D01*
X154907010Y-109250837D01*
X154871515Y-109196874D01*
X154845010Y-109155627D01*
X154829436Y-109130066D01*
X154826078Y-109123105D01*
X154834714Y-109110565D01*
X154858592Y-109083769D01*
X154894659Y-109045720D01*
X154939867Y-108999421D01*
X154991164Y-108947877D01*
X155045501Y-108894091D01*
X155099828Y-108841065D01*
X155151095Y-108791805D01*
X155196251Y-108749313D01*
X155232246Y-108716593D01*
X155256030Y-108696649D01*
X155263990Y-108691881D01*
X155278665Y-108698743D01*
X155310814Y-108717980D01*
X155357292Y-108747570D01*
X155414956Y-108785490D01*
X155480660Y-108829718D01*
X155518136Y-108855346D01*
X155586568Y-108902059D01*
X155648320Y-108943568D01*
X155700319Y-108977860D01*
X155739492Y-109002920D01*
X155762765Y-109016736D01*
X155767655Y-109018812D01*
X155781555Y-109014105D01*
X155813950Y-109001277D01*
X155860285Y-108982262D01*
X155916006Y-108958997D01*
X155976558Y-108933416D01*
X156037386Y-108907455D01*
X156093936Y-108883050D01*
X156141652Y-108862137D01*
X156175981Y-108846651D01*
X156192368Y-108838528D01*
X156193012Y-108838048D01*
X156196141Y-108825293D01*
X156203121Y-108791323D01*
X156213267Y-108739660D01*
X156225892Y-108673824D01*
X156240309Y-108597336D01*
X156248623Y-108552710D01*
X156264184Y-108470979D01*
X156278992Y-108397157D01*
X156292236Y-108334979D01*
X156303105Y-108288178D01*
X156310789Y-108260491D01*
X156313227Y-108254926D01*
X156329730Y-108249474D01*
X156367000Y-108245076D01*
X156420680Y-108241728D01*
X156486412Y-108239426D01*
X156559837Y-108238168D01*
X156636596Y-108237952D01*
X156712332Y-108238773D01*
X156782686Y-108240629D01*
X156843300Y-108243518D01*
X156889816Y-108247435D01*
X156917875Y-108252378D01*
X156923716Y-108255343D01*
X156930717Y-108273066D01*
X156940727Y-108310619D01*
X156952569Y-108363036D01*
X156965067Y-108425348D01*
X156969110Y-108447100D01*
X156988320Y-108551976D01*
X157003791Y-108634820D01*
X157016137Y-108698370D01*
X157025973Y-108745363D01*
X157033914Y-108778537D01*
X157040576Y-108800629D01*
X157046573Y-108814376D01*
X157052519Y-108822516D01*
X157053694Y-108823655D01*
X157072626Y-108835023D01*
X157109469Y-108852365D01*
X157159713Y-108873950D01*
X157218846Y-108898046D01*
X157282356Y-108922921D01*
X157345732Y-108946843D01*
X157404462Y-108968081D01*
X157454035Y-108984903D01*
X157489939Y-108995578D01*
X157507662Y-108998373D01*
X157508283Y-108998140D01*
X157522770Y-108988669D01*
X157554644Y-108967182D01*
X157600589Y-108935937D01*
X157657285Y-108897193D01*
X157721417Y-108853207D01*
X157739642Y-108840681D01*
X157805714Y-108796016D01*
X157866000Y-108756712D01*
X157917035Y-108724912D01*
X157955360Y-108702755D01*
X157977511Y-108692383D01*
X157980232Y-108691881D01*
X157994536Y-108700595D01*
X158022872Y-108724675D01*
X158062196Y-108761024D01*
X158109461Y-108806547D01*
X158161623Y-108858148D01*
X158215635Y-108912733D01*
X158268453Y-108967206D01*
X158317031Y-109018471D01*
X158358323Y-109063433D01*
X158389285Y-109098996D01*
X158406870Y-109122065D01*
X158409741Y-109128446D01*
X158402978Y-109143301D01*
X158384739Y-109173714D01*
X158358097Y-109214732D01*
X158336652Y-109246291D01*
X158297303Y-109303475D01*
X158250971Y-109371194D01*
X158204713Y-109439120D01*
X158179955Y-109475639D01*
X158096347Y-109599248D01*
X158152450Y-109703009D01*
X158177028Y-109750280D01*
X158196131Y-109790477D01*
X158207027Y-109817674D01*
X158208543Y-109824598D01*
X158197349Y-109832923D01*
X158165717Y-109849346D01*
X158116565Y-109872643D01*
X158052810Y-109901586D01*
X157977371Y-109934950D01*
X157893164Y-109971509D01*
X157803108Y-110010036D01*
X157710121Y-110049306D01*
X157617120Y-110088092D01*
X157527023Y-110125170D01*
X157442748Y-110159311D01*
X157367213Y-110189292D01*
X157303334Y-110213884D01*
X157254031Y-110231864D01*
X157222221Y-110242003D01*
X157211296Y-110243634D01*
X157197361Y-110230709D01*
X157174740Y-110202411D01*
X157148133Y-110164654D01*
X157146028Y-110161485D01*
X157067914Y-110063900D01*
X156976782Y-109985214D01*
X156875545Y-109926109D01*
X156767118Y-109887268D01*
X156654414Y-109869372D01*
X156540348Y-109873103D01*
X156427834Y-109899143D01*
X156319785Y-109948175D01*
X156296145Y-109962600D01*
X156200687Y-110037631D01*
X156124032Y-110126270D01*
X156066580Y-110225451D01*
X156028729Y-110332105D01*
X156010878Y-110443164D01*
X156013425Y-110555561D01*
X156036770Y-110666227D01*
X156081310Y-110772094D01*
X156147445Y-110870095D01*
X156174287Y-110900410D01*
X156258312Y-110977562D01*
X156346766Y-111033782D01*
X156445915Y-111072347D01*
X156544103Y-111093826D01*
X156654497Y-111099128D01*
X156765440Y-111081448D01*
X156873181Y-111042581D01*
X156973969Y-110984323D01*
X157064056Y-110908469D01*
X157139692Y-110816817D01*
X157147664Y-110804772D01*
X157173774Y-110766611D01*
X157196395Y-110737601D01*
X157210839Y-110723732D01*
X157211296Y-110723531D01*
X157226921Y-110726508D01*
X157262382Y-110738311D01*
X157314762Y-110757714D01*
X157381145Y-110783488D01*
X157458614Y-110814409D01*
X157544250Y-110849249D01*
X157635137Y-110886783D01*
X157728359Y-110925783D01*
X157820997Y-110965023D01*
X157910135Y-111003276D01*
X157992855Y-111039317D01*
X158066241Y-111071917D01*
X158127375Y-111099852D01*
X158173341Y-111121895D01*
X158201221Y-111136818D01*
X158208543Y-111142828D01*
X158202841Y-111161191D01*
X158187549Y-111195552D01*
X158165399Y-111239984D01*
X158152450Y-111264417D01*
X158096347Y-111368178D01*
X158179955Y-111491787D01*
X158222787Y-111554886D01*
X158269922Y-111623970D01*
X158314303Y-111688707D01*
X158336652Y-111721134D01*
X158367277Y-111766741D01*
X158391547Y-111805360D01*
X158406387Y-111831952D01*
X158409524Y-111840590D01*
X158401061Y-111853161D01*
X158377436Y-111880984D01*
X158341102Y-111921361D01*
X158294511Y-111971595D01*
X158240117Y-112028988D01*
X158205192Y-112065286D01*
X158142796Y-112128790D01*
X158086988Y-112183673D01*
X158040154Y-112227714D01*
X158004682Y-112258695D01*
X157982961Y-112274398D01*
X157978552Y-112275905D01*
X157961785Y-112268914D01*
X157927882Y-112249594D01*
X157880276Y-112220091D01*
X157822399Y-112182545D01*
X157757684Y-112139100D01*
X157739642Y-112126745D01*
X157674067Y-112081727D01*
X157615028Y-112041340D01*
X157565842Y-112007840D01*
X157529828Y-111983486D01*
X157510302Y-111970536D01*
X157508283Y-111969285D01*
X157492722Y-111971156D01*
X157458509Y-111981087D01*
X157410155Y-111997347D01*
X157352171Y-112018205D01*
X157289070Y-112041927D01*
X157225363Y-112066784D01*
X157165561Y-112091042D01*
X157114176Y-112112971D01*
X157075719Y-112130838D01*
X157054702Y-112142913D01*
X157053694Y-112143771D01*
X157047688Y-112151154D01*
X157041748Y-112163625D01*
X157035260Y-112183920D01*
X157027609Y-112214778D01*
X157018180Y-112258934D01*
X157006359Y-112319126D01*
X156991529Y-112398093D01*
X156973077Y-112498570D01*
X156969110Y-112520325D01*
X156956653Y-112584802D01*
X156944466Y-112641011D01*
X156933726Y-112683987D01*
X156925609Y-112708760D01*
X156923716Y-112712082D01*
X156906938Y-112717556D01*
X156869445Y-112722006D01*
X156815594Y-112725428D01*
X156749744Y-112727819D01*
X156676253Y-112729177D01*
X156599480Y-112729499D01*
X156523783Y-112728781D01*
X156453520Y-112727021D01*
X156393050Y-112724216D01*
X156346730Y-112720362D01*
X156318919Y-112715457D01*
X156313227Y-112712500D01*
X156307486Y-112696037D01*
X156298145Y-112658551D01*
X156286015Y-112603775D01*
X156271907Y-112535445D01*
X156256630Y-112457294D01*
X156248623Y-112414716D01*
X156233521Y-112333929D01*
X156219840Y-112261887D01*
X156208267Y-112202111D01*
X156199487Y-112158121D01*
X156194187Y-112133439D01*
X156193012Y-112129377D01*
X156179765Y-112122511D01*
X156147857Y-112107998D01*
X156101847Y-112087771D01*
X156046292Y-112063766D01*
X155985753Y-112037918D01*
X155924786Y-112012160D01*
X155867951Y-111988427D01*
X155819806Y-111968654D01*
X155784910Y-111954776D01*
X155767821Y-111948726D01*
X155767074Y-111948614D01*
X155753593Y-111955472D01*
X155722570Y-111974698D01*
X155677089Y-112004272D01*
X155620232Y-112042173D01*
X155555083Y-112086380D01*
X155517662Y-112112079D01*
X155449047Y-112158907D01*
X155386752Y-112200499D01*
X155333929Y-112234825D01*
X155293727Y-112259857D01*
X155269300Y-112273565D01*
X155263824Y-112275544D01*
X155251078Y-112267034D01*
X155223863Y-112243507D01*
X155185228Y-112207968D01*
X155138223Y-112163423D01*
X155085895Y-112112877D01*
X155031295Y-112059336D01*
X154977470Y-112005805D01*
X154927470Y-111955289D01*
X154884343Y-111910794D01*
X154851139Y-111875325D01*
X154830906Y-111851887D01*
X154826078Y-111844046D01*
X154832867Y-111831280D01*
X154851942Y-111800744D01*
X154881361Y-111755410D01*
X154919181Y-111698244D01*
X154963461Y-111632216D01*
X154997195Y-111582410D01*
X155168312Y-111330764D01*
X155081841Y-111121001D01*
X154995370Y-110911237D01*
X154693818Y-110854389D01*
X154392266Y-110797540D01*
X154392266Y-110169885D01*
X154693818Y-110113036D01*
D16*
X173712600Y-100172400D02*
X173712600Y-101102400D01*
X173712600Y-103332400D02*
X173712600Y-102402400D01*
X173712600Y-103332400D02*
X175872600Y-103332400D01*
X173712600Y-100172400D02*
X175172600Y-100172400D01*
X173712600Y-92958800D02*
X173712600Y-93888800D01*
X173712600Y-96118800D02*
X173712600Y-95188800D01*
X173712600Y-96118800D02*
X175872600Y-96118800D01*
X173712600Y-92958800D02*
X175172600Y-92958800D01*
D15*
X178217200Y-95851600D02*
X178217200Y-94851600D01*
X179567200Y-94851600D02*
X179567200Y-95851600D01*
X180096800Y-95851600D02*
X180096800Y-94851600D01*
X181446800Y-94851600D02*
X181446800Y-95851600D01*
X182049800Y-107630600D02*
X183049800Y-107630600D01*
X183049800Y-108980600D02*
X182049800Y-108980600D01*
X174334800Y-97594800D02*
X174334800Y-98594800D01*
X172984800Y-98594800D02*
X172984800Y-97594800D01*
X182049800Y-105598600D02*
X183049800Y-105598600D01*
X183049800Y-106948600D02*
X182049800Y-106948600D01*
D14*
X173618200Y-121250000D02*
X173618200Y-116250000D01*
X173618200Y-116250000D02*
X181118200Y-116250000D01*
X181118200Y-116250000D02*
X181118200Y-121250000D01*
X173618200Y-121250000D02*
X173668200Y-121250000D01*
X173668200Y-121250000D02*
X181068200Y-121250000D01*
X181068200Y-121250000D02*
X181118200Y-121250000D01*
X173668200Y-121250000D02*
X173268200Y-121750000D01*
X181068200Y-121250000D02*
X181468200Y-121750000D01*
D16*
X172872600Y-105524400D02*
X172872600Y-107124400D01*
D10*
X174522600Y-106344400D02*
X174722600Y-106344400D01*
X174522600Y-106544400D02*
X174522600Y-106144400D01*
X174222600Y-106344400D02*
X174522600Y-106544400D01*
X174522600Y-106144400D02*
X174222600Y-106344400D01*
D16*
X172872600Y-107124400D02*
X175472600Y-107124400D01*
X172872600Y-105524400D02*
X175472600Y-105524400D01*
X171180200Y-102153200D02*
X171180200Y-101453200D01*
X172380200Y-101453200D02*
X172380200Y-102153200D01*
X172380200Y-94290400D02*
X172380200Y-94990400D01*
X171180200Y-94990400D02*
X171180200Y-94290400D01*
X170799000Y-105253600D02*
X168799000Y-105253600D01*
X168799000Y-107293600D02*
X170799000Y-107293600D01*
X174808600Y-98594800D02*
X174808600Y-97594800D01*
X176168600Y-97594800D02*
X176168600Y-98594800D01*
X172511000Y-97594800D02*
X172511000Y-98594800D01*
X171151000Y-98594800D02*
X171151000Y-97594800D01*
D15*
X183346000Y-97806600D02*
X183346000Y-98556600D01*
X178096000Y-103056600D02*
X178096000Y-102306600D01*
X183346000Y-103056600D02*
X183346000Y-102306600D01*
X178096000Y-97806600D02*
X178846000Y-97806600D01*
X178096000Y-103056600D02*
X178846000Y-103056600D01*
X183346000Y-103056600D02*
X182596000Y-103056600D01*
X183346000Y-97806600D02*
X182596000Y-97806600D01*
D16*
X166019400Y-101606400D02*
X166019400Y-100346400D01*
X166019400Y-94786400D02*
X166019400Y-96046400D01*
X162259400Y-101606400D02*
X166019400Y-101606400D01*
X160009400Y-94786400D02*
X166019400Y-94786400D01*
D15*
X178414371Y-83914430D02*
X178414371Y-83581096D01*
X178938181Y-83438239D02*
X178938181Y-83914430D01*
X177938181Y-83914430D01*
X177938181Y-83438239D01*
X178890562Y-83057287D02*
X178938181Y-82962049D01*
X178938181Y-82771573D01*
X178890562Y-82676334D01*
X178795324Y-82628715D01*
X178747705Y-82628715D01*
X178652467Y-82676334D01*
X178604848Y-82771573D01*
X178604848Y-82914430D01*
X178557229Y-83009668D01*
X178461990Y-83057287D01*
X178414371Y-83057287D01*
X178319133Y-83009668D01*
X178271514Y-82914430D01*
X178271514Y-82771573D01*
X178319133Y-82676334D01*
X178271514Y-82200144D02*
X179271514Y-82200144D01*
X178319133Y-82200144D02*
X178271514Y-82104906D01*
X178271514Y-81914429D01*
X178319133Y-81819191D01*
X178366752Y-81771572D01*
X178461990Y-81723953D01*
X178747705Y-81723953D01*
X178842943Y-81771572D01*
X178890562Y-81819191D01*
X178938181Y-81914429D01*
X178938181Y-82104906D01*
X178890562Y-82200144D01*
X178938181Y-81295382D02*
X178271514Y-81295382D01*
X178461990Y-81295382D02*
X178366752Y-81247763D01*
X178319133Y-81200144D01*
X178271514Y-81104906D01*
X178271514Y-81009667D01*
X178890562Y-80295381D02*
X178938181Y-80390619D01*
X178938181Y-80581096D01*
X178890562Y-80676334D01*
X178795324Y-80723953D01*
X178414371Y-80723953D01*
X178319133Y-80676334D01*
X178271514Y-80581096D01*
X178271514Y-80390619D01*
X178319133Y-80295381D01*
X178414371Y-80247762D01*
X178509610Y-80247762D01*
X178604848Y-80723953D01*
X178890562Y-79866810D02*
X178938181Y-79771572D01*
X178938181Y-79581096D01*
X178890562Y-79485857D01*
X178795324Y-79438238D01*
X178747705Y-79438238D01*
X178652467Y-79485857D01*
X178604848Y-79581096D01*
X178604848Y-79723953D01*
X178557229Y-79819191D01*
X178461990Y-79866810D01*
X178414371Y-79866810D01*
X178319133Y-79819191D01*
X178271514Y-79723953D01*
X178271514Y-79581096D01*
X178319133Y-79485857D01*
X178890562Y-79057286D02*
X178938181Y-78962048D01*
X178938181Y-78771572D01*
X178890562Y-78676333D01*
X178795324Y-78628714D01*
X178747705Y-78628714D01*
X178652467Y-78676333D01*
X178604848Y-78771572D01*
X178604848Y-78914429D01*
X178557229Y-79009667D01*
X178461990Y-79057286D01*
X178414371Y-79057286D01*
X178319133Y-79009667D01*
X178271514Y-78914429D01*
X178271514Y-78771572D01*
X178319133Y-78676333D01*
X178938181Y-78200143D02*
X178271514Y-78200143D01*
X177938181Y-78200143D02*
X177985800Y-78247762D01*
X178033419Y-78200143D01*
X177985800Y-78152524D01*
X177938181Y-78200143D01*
X178033419Y-78200143D01*
X178271514Y-77866810D02*
X178271514Y-77485858D01*
X178938181Y-77723953D02*
X178081038Y-77723953D01*
X177985800Y-77676334D01*
X177938181Y-77581096D01*
X177938181Y-77485858D01*
X178890562Y-76438238D02*
X178938181Y-76295381D01*
X178938181Y-76057285D01*
X178890562Y-75962047D01*
X178842943Y-75914428D01*
X178747705Y-75866809D01*
X178652467Y-75866809D01*
X178557229Y-75914428D01*
X178509610Y-75962047D01*
X178461990Y-76057285D01*
X178414371Y-76247762D01*
X178366752Y-76343000D01*
X178319133Y-76390619D01*
X178223895Y-76438238D01*
X178128657Y-76438238D01*
X178033419Y-76390619D01*
X177985800Y-76343000D01*
X177938181Y-76247762D01*
X177938181Y-76009666D01*
X177985800Y-75866809D01*
X178271514Y-75533476D02*
X178938181Y-75295381D01*
X178271514Y-75057285D02*
X178938181Y-75295381D01*
X179176276Y-75390619D01*
X179223895Y-75438238D01*
X179271514Y-75533476D01*
X178890562Y-74723952D02*
X178938181Y-74628714D01*
X178938181Y-74438238D01*
X178890562Y-74342999D01*
X178795324Y-74295380D01*
X178747705Y-74295380D01*
X178652467Y-74342999D01*
X178604848Y-74438238D01*
X178604848Y-74581095D01*
X178557229Y-74676333D01*
X178461990Y-74723952D01*
X178414371Y-74723952D01*
X178319133Y-74676333D01*
X178271514Y-74581095D01*
X178271514Y-74438238D01*
X178319133Y-74342999D01*
X178271514Y-74009666D02*
X178271514Y-73628714D01*
X177938181Y-73866809D02*
X178795324Y-73866809D01*
X178890562Y-73819190D01*
X178938181Y-73723952D01*
X178938181Y-73628714D01*
X178890562Y-72914427D02*
X178938181Y-73009665D01*
X178938181Y-73200142D01*
X178890562Y-73295380D01*
X178795324Y-73342999D01*
X178414371Y-73342999D01*
X178319133Y-73295380D01*
X178271514Y-73200142D01*
X178271514Y-73009665D01*
X178319133Y-72914427D01*
X178414371Y-72866808D01*
X178509610Y-72866808D01*
X178604848Y-73342999D01*
X178938181Y-72438237D02*
X178271514Y-72438237D01*
X178366752Y-72438237D02*
X178319133Y-72390618D01*
X178271514Y-72295380D01*
X178271514Y-72152522D01*
X178319133Y-72057284D01*
X178414371Y-72009665D01*
X178938181Y-72009665D01*
X178414371Y-72009665D02*
X178319133Y-71962046D01*
X178271514Y-71866808D01*
X178271514Y-71723951D01*
X178319133Y-71628713D01*
X178414371Y-71581094D01*
X178938181Y-71581094D01*
X178890562Y-71152523D02*
X178938181Y-71057285D01*
X178938181Y-70866809D01*
X178890562Y-70771570D01*
X178795324Y-70723951D01*
X178747705Y-70723951D01*
X178652467Y-70771570D01*
X178604848Y-70866809D01*
X178604848Y-71009666D01*
X178557229Y-71104904D01*
X178461990Y-71152523D01*
X178414371Y-71152523D01*
X178319133Y-71104904D01*
X178271514Y-71009666D01*
X178271514Y-70866809D01*
X178319133Y-70771570D01*
X176763371Y-81652381D02*
X176763371Y-81319047D01*
X177287181Y-81176190D02*
X177287181Y-81652381D01*
X176287181Y-81652381D01*
X176287181Y-81176190D01*
X177239562Y-80795238D02*
X177287181Y-80652381D01*
X177287181Y-80414285D01*
X177239562Y-80319047D01*
X177191943Y-80271428D01*
X177096705Y-80223809D01*
X177001467Y-80223809D01*
X176906229Y-80271428D01*
X176858610Y-80319047D01*
X176810990Y-80414285D01*
X176763371Y-80604762D01*
X176715752Y-80700000D01*
X176668133Y-80747619D01*
X176572895Y-80795238D01*
X176477657Y-80795238D01*
X176382419Y-80747619D01*
X176334800Y-80700000D01*
X176287181Y-80604762D01*
X176287181Y-80366666D01*
X176334800Y-80223809D01*
X177287181Y-79795238D02*
X176287181Y-79795238D01*
X176287181Y-79414285D01*
X176334800Y-79319047D01*
X176382419Y-79271428D01*
X176477657Y-79223809D01*
X176620514Y-79223809D01*
X176715752Y-79271428D01*
X176763371Y-79319047D01*
X176810990Y-79414285D01*
X176810990Y-79795238D01*
X176287181Y-78890476D02*
X176287181Y-78271428D01*
X176668133Y-78604762D01*
X176668133Y-78461904D01*
X176715752Y-78366666D01*
X176763371Y-78319047D01*
X176858610Y-78271428D01*
X177096705Y-78271428D01*
X177191943Y-78319047D01*
X177239562Y-78366666D01*
X177287181Y-78461904D01*
X177287181Y-78747619D01*
X177239562Y-78842857D01*
X177191943Y-78890476D01*
X176382419Y-77890476D02*
X176334800Y-77842857D01*
X176287181Y-77747619D01*
X176287181Y-77509523D01*
X176334800Y-77414285D01*
X176382419Y-77366666D01*
X176477657Y-77319047D01*
X176572895Y-77319047D01*
X176715752Y-77366666D01*
X177287181Y-77938095D01*
X177287181Y-77319047D01*
X176906229Y-76890476D02*
X176906229Y-76128571D01*
X176287181Y-75747619D02*
X177287181Y-75509524D01*
X176572895Y-75319047D01*
X177287181Y-75128571D01*
X176287181Y-74890476D01*
X177287181Y-73938095D02*
X176810990Y-74271429D01*
X177287181Y-74509524D02*
X176287181Y-74509524D01*
X176287181Y-74128571D01*
X176334800Y-74033333D01*
X176382419Y-73985714D01*
X176477657Y-73938095D01*
X176620514Y-73938095D01*
X176715752Y-73985714D01*
X176763371Y-74033333D01*
X176810990Y-74128571D01*
X176810990Y-74509524D01*
X176287181Y-73319048D02*
X176287181Y-73128571D01*
X176334800Y-73033333D01*
X176430038Y-72938095D01*
X176620514Y-72890476D01*
X176953848Y-72890476D01*
X177144324Y-72938095D01*
X177239562Y-73033333D01*
X177287181Y-73128571D01*
X177287181Y-73319048D01*
X177239562Y-73414286D01*
X177144324Y-73509524D01*
X176953848Y-73557143D01*
X176620514Y-73557143D01*
X176430038Y-73509524D01*
X176334800Y-73414286D01*
X176287181Y-73319048D01*
X176287181Y-72271429D02*
X176287181Y-72080952D01*
X176334800Y-71985714D01*
X176430038Y-71890476D01*
X176620514Y-71842857D01*
X176953848Y-71842857D01*
X177144324Y-71890476D01*
X177239562Y-71985714D01*
X177287181Y-72080952D01*
X177287181Y-72271429D01*
X177239562Y-72366667D01*
X177144324Y-72461905D01*
X176953848Y-72509524D01*
X176620514Y-72509524D01*
X176430038Y-72461905D01*
X176334800Y-72366667D01*
X176287181Y-72271429D01*
X177287181Y-71414286D02*
X176287181Y-71414286D01*
X177001467Y-71080952D01*
X176287181Y-70747619D01*
X177287181Y-70747619D01*
D18*
X164629401Y-104932990D02*
X164677020Y-104932990D01*
X164724639Y-104956800D01*
X164748448Y-104980610D01*
X164772258Y-105028229D01*
X164796067Y-105123467D01*
X164796067Y-105242514D01*
X164772258Y-105337752D01*
X164748448Y-105385371D01*
X164724639Y-105409181D01*
X164677020Y-105432990D01*
X164629401Y-105432990D01*
X164581782Y-105409181D01*
X164557972Y-105385371D01*
X164534163Y-105337752D01*
X164510353Y-105242514D01*
X164510353Y-105123467D01*
X164534163Y-105028229D01*
X164557972Y-104980610D01*
X164581782Y-104956800D01*
X164629401Y-104932990D01*
X165010353Y-105385371D02*
X165034162Y-105409181D01*
X165010353Y-105432990D01*
X164986543Y-105409181D01*
X165010353Y-105385371D01*
X165010353Y-105432990D01*
X165510352Y-105432990D02*
X165224638Y-105432990D01*
X165367495Y-105432990D02*
X165367495Y-104932990D01*
X165319876Y-105004419D01*
X165272257Y-105052038D01*
X165224638Y-105075848D01*
X165938923Y-105099657D02*
X165938923Y-105432990D01*
X165724638Y-105099657D02*
X165724638Y-105361562D01*
X165748447Y-105409181D01*
X165796066Y-105432990D01*
X165867495Y-105432990D01*
X165915114Y-105409181D01*
X165938923Y-105385371D01*
X166105590Y-105099657D02*
X166296066Y-105099657D01*
X166177019Y-105432990D02*
X166177019Y-105004419D01*
X166200828Y-104956800D01*
X166248447Y-104932990D01*
X166296066Y-104932990D01*
X164965915Y-102892990D02*
X164680201Y-102892990D01*
X164823058Y-102892990D02*
X164823058Y-102392990D01*
X164775439Y-102464419D01*
X164727820Y-102512038D01*
X164680201Y-102535848D01*
X165275439Y-102392990D02*
X165323058Y-102392990D01*
X165370677Y-102416800D01*
X165394486Y-102440610D01*
X165418296Y-102488229D01*
X165442105Y-102583467D01*
X165442105Y-102702514D01*
X165418296Y-102797752D01*
X165394486Y-102845371D01*
X165370677Y-102869181D01*
X165323058Y-102892990D01*
X165275439Y-102892990D01*
X165227820Y-102869181D01*
X165204010Y-102845371D01*
X165180201Y-102797752D01*
X165156391Y-102702514D01*
X165156391Y-102583467D01*
X165180201Y-102488229D01*
X165204010Y-102440610D01*
X165227820Y-102416800D01*
X165275439Y-102392990D01*
X165870676Y-102559657D02*
X165870676Y-102892990D01*
X165656391Y-102559657D02*
X165656391Y-102821562D01*
X165680200Y-102869181D01*
X165727819Y-102892990D01*
X165799248Y-102892990D01*
X165846867Y-102869181D01*
X165870676Y-102845371D01*
X166037343Y-102559657D02*
X166227819Y-102559657D01*
X166108772Y-102892990D02*
X166108772Y-102464419D01*
X166132581Y-102416800D01*
X166180200Y-102392990D01*
X166227819Y-102392990D01*
X161276601Y-104932990D02*
X161324220Y-104932990D01*
X161371839Y-104956800D01*
X161395648Y-104980610D01*
X161419458Y-105028229D01*
X161443267Y-105123467D01*
X161443267Y-105242514D01*
X161419458Y-105337752D01*
X161395648Y-105385371D01*
X161371839Y-105409181D01*
X161324220Y-105432990D01*
X161276601Y-105432990D01*
X161228982Y-105409181D01*
X161205172Y-105385371D01*
X161181363Y-105337752D01*
X161157553Y-105242514D01*
X161157553Y-105123467D01*
X161181363Y-105028229D01*
X161205172Y-104980610D01*
X161228982Y-104956800D01*
X161276601Y-104932990D01*
X161657553Y-105385371D02*
X161681362Y-105409181D01*
X161657553Y-105432990D01*
X161633743Y-105409181D01*
X161657553Y-105385371D01*
X161657553Y-105432990D01*
X162157552Y-105432990D02*
X161871838Y-105432990D01*
X162014695Y-105432990D02*
X162014695Y-104932990D01*
X161967076Y-105004419D01*
X161919457Y-105052038D01*
X161871838Y-105075848D01*
X162586123Y-105099657D02*
X162586123Y-105432990D01*
X162371838Y-105099657D02*
X162371838Y-105361562D01*
X162395647Y-105409181D01*
X162443266Y-105432990D01*
X162514695Y-105432990D01*
X162562314Y-105409181D01*
X162586123Y-105385371D01*
X162752790Y-105099657D02*
X162943266Y-105099657D01*
X162824219Y-105432990D02*
X162824219Y-105004419D01*
X162848028Y-104956800D01*
X162895647Y-104932990D01*
X162943266Y-104932990D01*
X161536915Y-102867590D02*
X161251201Y-102867590D01*
X161394058Y-102867590D02*
X161394058Y-102367590D01*
X161346439Y-102439019D01*
X161298820Y-102486638D01*
X161251201Y-102510448D01*
X161846439Y-102367590D02*
X161894058Y-102367590D01*
X161941677Y-102391400D01*
X161965486Y-102415210D01*
X161989296Y-102462829D01*
X162013105Y-102558067D01*
X162013105Y-102677114D01*
X161989296Y-102772352D01*
X161965486Y-102819971D01*
X161941677Y-102843781D01*
X161894058Y-102867590D01*
X161846439Y-102867590D01*
X161798820Y-102843781D01*
X161775010Y-102819971D01*
X161751201Y-102772352D01*
X161727391Y-102677114D01*
X161727391Y-102558067D01*
X161751201Y-102462829D01*
X161775010Y-102415210D01*
X161798820Y-102391400D01*
X161846439Y-102367590D01*
X162441676Y-102534257D02*
X162441676Y-102867590D01*
X162227391Y-102534257D02*
X162227391Y-102796162D01*
X162251200Y-102843781D01*
X162298819Y-102867590D01*
X162370248Y-102867590D01*
X162417867Y-102843781D01*
X162441676Y-102819971D01*
X162608343Y-102534257D02*
X162798819Y-102534257D01*
X162679772Y-102867590D02*
X162679772Y-102439019D01*
X162703581Y-102391400D01*
X162751200Y-102367590D01*
X162798819Y-102367590D01*
X178701001Y-104780590D02*
X178748620Y-104780590D01*
X178796239Y-104804400D01*
X178820048Y-104828210D01*
X178843858Y-104875829D01*
X178867667Y-104971067D01*
X178867667Y-105090114D01*
X178843858Y-105185352D01*
X178820048Y-105232971D01*
X178796239Y-105256781D01*
X178748620Y-105280590D01*
X178701001Y-105280590D01*
X178653382Y-105256781D01*
X178629572Y-105232971D01*
X178605763Y-105185352D01*
X178581953Y-105090114D01*
X178581953Y-104971067D01*
X178605763Y-104875829D01*
X178629572Y-104828210D01*
X178653382Y-104804400D01*
X178701001Y-104780590D01*
X179081953Y-105232971D02*
X179105762Y-105256781D01*
X179081953Y-105280590D01*
X179058143Y-105256781D01*
X179081953Y-105232971D01*
X179081953Y-105280590D01*
X179581952Y-105280590D02*
X179296238Y-105280590D01*
X179439095Y-105280590D02*
X179439095Y-104780590D01*
X179391476Y-104852019D01*
X179343857Y-104899638D01*
X179296238Y-104923448D01*
X180010523Y-104947257D02*
X180010523Y-105280590D01*
X179796238Y-104947257D02*
X179796238Y-105209162D01*
X179820047Y-105256781D01*
X179867666Y-105280590D01*
X179939095Y-105280590D01*
X179986714Y-105256781D01*
X180010523Y-105232971D01*
X180177190Y-104947257D02*
X180367666Y-104947257D01*
X180248619Y-105280590D02*
X180248619Y-104852019D01*
X180272428Y-104804400D01*
X180320047Y-104780590D01*
X180367666Y-104780590D01*
X178000790Y-95684933D02*
X178000790Y-95970647D01*
X178000790Y-95827790D02*
X177500790Y-95827790D01*
X177572219Y-95875409D01*
X177619838Y-95923028D01*
X177643648Y-95970647D01*
X177500790Y-95375409D02*
X177500790Y-95327790D01*
X177524600Y-95280171D01*
X177548410Y-95256362D01*
X177596029Y-95232552D01*
X177691267Y-95208743D01*
X177810314Y-95208743D01*
X177905552Y-95232552D01*
X177953171Y-95256362D01*
X177976981Y-95280171D01*
X178000790Y-95327790D01*
X178000790Y-95375409D01*
X177976981Y-95423028D01*
X177953171Y-95446838D01*
X177905552Y-95470647D01*
X177810314Y-95494457D01*
X177691267Y-95494457D01*
X177596029Y-95470647D01*
X177548410Y-95446838D01*
X177524600Y-95423028D01*
X177500790Y-95375409D01*
X177500790Y-94899219D02*
X177500790Y-94851600D01*
X177524600Y-94803981D01*
X177548410Y-94780172D01*
X177596029Y-94756362D01*
X177691267Y-94732553D01*
X177810314Y-94732553D01*
X177905552Y-94756362D01*
X177953171Y-94780172D01*
X177976981Y-94803981D01*
X178000790Y-94851600D01*
X178000790Y-94899219D01*
X177976981Y-94946838D01*
X177953171Y-94970648D01*
X177905552Y-94994457D01*
X177810314Y-95018267D01*
X177691267Y-95018267D01*
X177596029Y-94994457D01*
X177548410Y-94970648D01*
X177524600Y-94946838D01*
X177500790Y-94899219D01*
X182204562Y-105356790D02*
X181918848Y-105356790D01*
X182061705Y-105356790D02*
X182061705Y-104856790D01*
X182014086Y-104928219D01*
X181966467Y-104975838D01*
X181918848Y-104999648D01*
X182514086Y-104856790D02*
X182561705Y-104856790D01*
X182609324Y-104880600D01*
X182633133Y-104904410D01*
X182656943Y-104952029D01*
X182680752Y-105047267D01*
X182680752Y-105166314D01*
X182656943Y-105261552D01*
X182633133Y-105309171D01*
X182609324Y-105332981D01*
X182561705Y-105356790D01*
X182514086Y-105356790D01*
X182466467Y-105332981D01*
X182442657Y-105309171D01*
X182418848Y-105261552D01*
X182395038Y-105166314D01*
X182395038Y-105047267D01*
X182418848Y-104952029D01*
X182442657Y-104904410D01*
X182466467Y-104880600D01*
X182514086Y-104856790D01*
X182895038Y-105356790D02*
X182895038Y-104856790D01*
X183180752Y-105356790D02*
X182966466Y-105071076D01*
X183180752Y-104856790D02*
X182895038Y-105142505D01*
X174341648Y-105229790D02*
X174341648Y-104729790D01*
X174460695Y-104729790D01*
X174532124Y-104753600D01*
X174579743Y-104801219D01*
X174603552Y-104848838D01*
X174627362Y-104944076D01*
X174627362Y-105015505D01*
X174603552Y-105110743D01*
X174579743Y-105158362D01*
X174532124Y-105205981D01*
X174460695Y-105229790D01*
X174341648Y-105229790D01*
X170939590Y-102029390D02*
X170939590Y-102315104D01*
X170939590Y-102172247D02*
X170439590Y-102172247D01*
X170511019Y-102219866D01*
X170558638Y-102267485D01*
X170582448Y-102315104D01*
X170606257Y-101815104D02*
X170939590Y-101815104D01*
X170653876Y-101815104D02*
X170630067Y-101791295D01*
X170606257Y-101743676D01*
X170606257Y-101672247D01*
X170630067Y-101624628D01*
X170677686Y-101600819D01*
X170939590Y-101600819D01*
X170606257Y-101434152D02*
X170606257Y-101243676D01*
X170939590Y-101362723D02*
X170511019Y-101362723D01*
X170463400Y-101338914D01*
X170439590Y-101291295D01*
X170439590Y-101243676D01*
X170990390Y-94866590D02*
X170990390Y-95152304D01*
X170990390Y-95009447D02*
X170490390Y-95009447D01*
X170561819Y-95057066D01*
X170609438Y-95104685D01*
X170633248Y-95152304D01*
X170657057Y-94652304D02*
X170990390Y-94652304D01*
X170704676Y-94652304D02*
X170680867Y-94628495D01*
X170657057Y-94580876D01*
X170657057Y-94509447D01*
X170680867Y-94461828D01*
X170728486Y-94438019D01*
X170990390Y-94438019D01*
X170657057Y-94271352D02*
X170657057Y-94080876D01*
X170990390Y-94199923D02*
X170561819Y-94199923D01*
X170514200Y-94176114D01*
X170490390Y-94128495D01*
X170490390Y-94080876D01*
X169096620Y-105026590D02*
X168810906Y-105026590D01*
X168953763Y-105026590D02*
X168953763Y-104526590D01*
X168906144Y-104598019D01*
X168858525Y-104645638D01*
X168810906Y-104669448D01*
X169406144Y-104526590D02*
X169453763Y-104526590D01*
X169501382Y-104550400D01*
X169525191Y-104574210D01*
X169549001Y-104621829D01*
X169572810Y-104717067D01*
X169572810Y-104836114D01*
X169549001Y-104931352D01*
X169525191Y-104978971D01*
X169501382Y-105002781D01*
X169453763Y-105026590D01*
X169406144Y-105026590D01*
X169358525Y-105002781D01*
X169334715Y-104978971D01*
X169310906Y-104931352D01*
X169287096Y-104836114D01*
X169287096Y-104717067D01*
X169310906Y-104621829D01*
X169334715Y-104574210D01*
X169358525Y-104550400D01*
X169406144Y-104526590D01*
X169882334Y-104526590D02*
X169929953Y-104526590D01*
X169977572Y-104550400D01*
X170001381Y-104574210D01*
X170025191Y-104621829D01*
X170049000Y-104717067D01*
X170049000Y-104836114D01*
X170025191Y-104931352D01*
X170001381Y-104978971D01*
X169977572Y-105002781D01*
X169929953Y-105026590D01*
X169882334Y-105026590D01*
X169834715Y-105002781D01*
X169810905Y-104978971D01*
X169787096Y-104931352D01*
X169763286Y-104836114D01*
X169763286Y-104717067D01*
X169787096Y-104621829D01*
X169810905Y-104574210D01*
X169834715Y-104550400D01*
X169882334Y-104526590D01*
X170477571Y-104693257D02*
X170477571Y-105026590D01*
X170263286Y-104693257D02*
X170263286Y-104955162D01*
X170287095Y-105002781D01*
X170334714Y-105026590D01*
X170406143Y-105026590D01*
X170453762Y-105002781D01*
X170477571Y-104978971D01*
X170644238Y-104693257D02*
X170834714Y-104693257D01*
X170715667Y-105026590D02*
X170715667Y-104598019D01*
X170739476Y-104550400D01*
X170787095Y-104526590D01*
X170834714Y-104526590D01*
X170939590Y-98490838D02*
X170939590Y-98776552D01*
X170939590Y-98633695D02*
X170439590Y-98633695D01*
X170511019Y-98681314D01*
X170558638Y-98728933D01*
X170582448Y-98776552D01*
X170439590Y-98181314D02*
X170439590Y-98133695D01*
X170463400Y-98086076D01*
X170487210Y-98062267D01*
X170534829Y-98038457D01*
X170630067Y-98014648D01*
X170749114Y-98014648D01*
X170844352Y-98038457D01*
X170891971Y-98062267D01*
X170915781Y-98086076D01*
X170939590Y-98133695D01*
X170939590Y-98181314D01*
X170915781Y-98228933D01*
X170891971Y-98252743D01*
X170844352Y-98276552D01*
X170749114Y-98300362D01*
X170630067Y-98300362D01*
X170534829Y-98276552D01*
X170487210Y-98252743D01*
X170463400Y-98228933D01*
X170439590Y-98181314D01*
X170939590Y-97800362D02*
X170439590Y-97800362D01*
X170939590Y-97514648D02*
X170653876Y-97728934D01*
X170439590Y-97514648D02*
X170725305Y-97800362D01*
%LPC*%
D19*
X168863800Y-111140200D03*
X168213800Y-111140200D03*
X167563800Y-111140200D03*
X166913800Y-111140200D03*
X166263800Y-111140200D03*
D20*
X170663800Y-111465200D03*
X164463800Y-111465200D03*
D21*
X163463800Y-113815200D03*
D22*
X166713800Y-113815200D03*
X168413800Y-113815200D03*
D21*
X171663800Y-113815200D03*
D23*
X180627800Y-71204000D03*
X180627800Y-72474000D03*
X180627800Y-73744000D03*
X180627800Y-75014000D03*
X180627800Y-76284000D03*
X180627800Y-77554000D03*
X180627800Y-78824000D03*
X180627800Y-80094000D03*
X180627800Y-81364000D03*
X180627800Y-82634000D03*
X180627800Y-83904000D03*
X180627800Y-85174000D03*
X180627800Y-86444000D03*
X180627800Y-87714000D03*
D24*
X177342800Y-89204000D03*
X176072800Y-89204000D03*
X174802800Y-89204000D03*
X173532800Y-89204000D03*
X172262800Y-89204000D03*
X170992800Y-89204000D03*
X169722800Y-89204000D03*
X168452800Y-89204000D03*
X167182800Y-89204000D03*
X165912800Y-89204000D03*
D23*
X162627800Y-87714000D03*
X162627800Y-86444000D03*
X162627800Y-85174000D03*
X162627800Y-83904000D03*
X162627800Y-82634000D03*
X162627800Y-81364000D03*
X162627800Y-80094000D03*
X162627800Y-78824000D03*
X162627800Y-77554000D03*
X162627800Y-76284000D03*
X162627800Y-75014000D03*
X162627800Y-73744000D03*
X162627800Y-72474000D03*
X162627800Y-71204000D03*
D25*
X171327800Y-78904000D03*
D26*
X166129400Y-106273600D03*
X164629400Y-106273600D03*
X166180200Y-103733600D03*
X164680200Y-103733600D03*
X162751200Y-106273600D03*
X161251200Y-106273600D03*
X162751200Y-103733600D03*
X161251200Y-103733600D03*
X180201000Y-106222800D03*
X178701000Y-106222800D03*
D27*
X175472600Y-102702400D03*
X175472600Y-100802400D03*
X173472600Y-101752400D03*
X175472600Y-95488800D03*
X175472600Y-93588800D03*
X173472600Y-94538800D03*
D28*
X178892200Y-94601600D03*
X178892200Y-96101600D03*
X180771800Y-94601600D03*
X180771800Y-96101600D03*
D29*
X183299800Y-108305600D03*
X181799800Y-108305600D03*
D28*
X173659800Y-98844800D03*
X173659800Y-97344800D03*
D29*
X183299800Y-106273600D03*
X181799800Y-106273600D03*
D19*
X178668200Y-116525000D03*
X178018200Y-116525000D03*
X177368200Y-116525000D03*
X176718200Y-116525000D03*
X176068200Y-116525000D03*
D20*
X180468200Y-116850000D03*
X174268200Y-116850000D03*
D21*
X173268200Y-119200000D03*
D22*
X176518200Y-119200000D03*
X178218200Y-119200000D03*
D21*
X181468200Y-119200000D03*
D30*
X173422600Y-106324400D03*
X175522600Y-106324400D03*
D31*
X152400000Y-71120000D03*
D32*
X152400000Y-73660000D03*
X152400000Y-76200000D03*
X152400000Y-78740000D03*
X152400000Y-81280000D03*
X152400000Y-83820000D03*
X152400000Y-86360000D03*
X152400000Y-88900000D03*
X152400000Y-91440000D03*
X152400000Y-93980000D03*
X152400000Y-96520000D03*
X152400000Y-99060000D03*
X152400000Y-101600000D03*
X152400000Y-104140000D03*
X152400000Y-106680000D03*
X152400000Y-109220000D03*
X152400000Y-111760000D03*
D33*
X171780200Y-102553200D03*
X171780200Y-101053200D03*
X171780200Y-93890400D03*
X171780200Y-95390400D03*
D34*
X168299000Y-106273600D03*
X171299000Y-106273600D03*
D28*
X175488600Y-97344800D03*
X175488600Y-98844800D03*
X171831000Y-98844800D03*
X171831000Y-97344800D03*
D35*
X178271000Y-98931600D03*
X178271000Y-99431600D03*
X178271000Y-99931600D03*
X178271000Y-100431600D03*
X178271000Y-100931600D03*
X178271000Y-101431600D03*
X178271000Y-101931600D03*
D36*
X179221000Y-102881600D03*
X179721000Y-102881600D03*
X180221000Y-102881600D03*
X180721000Y-102881600D03*
X181221000Y-102881600D03*
X181721000Y-102881600D03*
X182221000Y-102881600D03*
D35*
X183171000Y-101931600D03*
X183171000Y-101431600D03*
X183171000Y-100931600D03*
X183171000Y-100431600D03*
X183171000Y-99931600D03*
X183171000Y-99431600D03*
X183171000Y-98931600D03*
D36*
X182221000Y-97981600D03*
X181721000Y-97981600D03*
X181221000Y-97981600D03*
X180721000Y-97981600D03*
X180221000Y-97981600D03*
X179721000Y-97981600D03*
X179221000Y-97981600D03*
D37*
X181558500Y-101269100D03*
X181558500Y-99594100D03*
X179883500Y-101269100D03*
X179883500Y-99594100D03*
D38*
X167259400Y-98196400D03*
D39*
X160959400Y-98196400D03*
X160959400Y-100496400D03*
X160959400Y-95896400D03*
D31*
X190474600Y-71120000D03*
D32*
X190474600Y-73660000D03*
X190474600Y-76200000D03*
X190474600Y-78740000D03*
X190474600Y-81280000D03*
X190474600Y-83820000D03*
X190474600Y-86360000D03*
X190474600Y-88900000D03*
X190474600Y-91440000D03*
X190474600Y-93980000D03*
X190474600Y-96520000D03*
X190474600Y-99060000D03*
X190474600Y-101600000D03*
X190474600Y-104140000D03*
X190474600Y-106680000D03*
X190474600Y-109220000D03*
X190474600Y-111760000D03*
M02*
