G04 #@! TF.FileFunction,Profile,NP*
%FSLAX46Y46*%
G04 Gerber Fmt 4.6, Leading zero omitted, Abs format (unit mm)*
G04 Created by KiCad (PCBNEW 4.0.6-e0-6349~52~ubuntu16.10.1) date Wed Mar 29 09:33:53 2017*
%MOMM*%
%LPD*%
G01*
G04 APERTURE LIST*
%ADD10C,0.100000*%
%ADD11C,0.200000*%
%ADD12C,0.150000*%
G04 APERTURE END LIST*
D10*
D11*
X187375800Y-60960000D02*
X191744600Y-60960000D01*
X184632600Y-63703200D02*
X187375800Y-60960000D01*
X158165800Y-63703200D02*
X184632600Y-63703200D01*
X155422600Y-60960000D02*
X158165800Y-63703200D01*
X151104600Y-60960000D02*
X155422600Y-60960000D01*
X172948600Y-120904000D02*
X171932600Y-121920000D01*
X171932600Y-121920000D02*
X151155400Y-121920000D01*
X182651400Y-121920000D02*
X191744600Y-121920000D01*
X155172124Y-64465200D02*
G75*
G03X155172124Y-64465200I-1832324J0D01*
G01*
X191341724Y-118364000D02*
G75*
G03X191341724Y-118364000I-1832324J0D01*
G01*
X155172124Y-118414800D02*
G75*
G03X155172124Y-118414800I-1832324J0D01*
G01*
X191341724Y-64465200D02*
G75*
G03X191341724Y-64465200I-1832324J0D01*
G01*
D12*
X172974000Y-120904000D02*
X181610000Y-120904000D01*
X182626000Y-121920000D02*
X181610000Y-120904000D01*
X191770000Y-121920000D02*
G75*
G03X193040000Y-120650000I0J1270000D01*
G01*
X149860000Y-120650000D02*
G75*
G03X151130000Y-121920000I1270000J0D01*
G01*
X193040000Y-62230000D02*
G75*
G03X191770000Y-60960000I-1270000J0D01*
G01*
X151130000Y-60960000D02*
G75*
G03X149860000Y-62230000I0J-1270000D01*
G01*
X193040000Y-120650000D02*
X193040000Y-62230000D01*
X149860000Y-62230000D02*
X149860000Y-120650000D01*
M02*
