  0
SECTION
  2
HEADER
  9
$ACADVER
  1
AC1014
  9
$HANDSEED
  5
FFFF
  9
$MEASUREMENT
 70
     1
  0
ENDSEC
  0
SECTION
  2
TABLES
  0
TABLE
  2
VPORT
  5
8
330
0
100
AcDbSymbolTable
 70
     4
  0
VPORT
  5
2E
330
8
100
AcDbSymbolTableRecord
100
AcDbViewportTableRecord
  2
*ACTIVE
 70
     0
 10
0.0
 20
0.0
 11
1.0
 21
1.0
 12
210.0
 22
148.5
 13
0.0
 23
0.0
 14
10.0
 24
10.0
 15
10.0
 25
10.0
 16
0.0
 26
0.0
 36
1.0
 17
0.0
 27
0.0
 37
0.0
 40
341.0
 41
1.24
 42
50.0
 43
0.0
 44
0.0
 50
0.0
 51
0.0
 71
     0
 72
   100
 73
     1
 74
     3
 75
     0
 76
     0
 77
     0
 78
     0
  0
ENDTAB
  0
TABLE
  2
LTYPE
  5
5
330
0
100
AcDbSymbolTable
 70
     1
  0
LTYPE
  5
14
330
5
100
AcDbSymbolTableRecord
100
AcDbLinetypeTableRecord
  2
BYBLOCK
 70
     0
  3

 72
    65
 73
     0
 40
0.0
  0
LTYPE
  5
15
330
5
100
AcDbSymbolTableRecord
100
AcDbLinetypeTableRecord
  2
BYLAYER
 70
     0
  3

 72
    65
 73
     0
 40
0.0
  0
LTYPE
  5
16
330
5
100
AcDbSymbolTableRecord
100
AcDbLinetypeTableRecord
  2
CONTINUOUS
 70
     0
  3
Solid line
 72
    65
 73
     0
 40
0.0
  0
ENDTAB
  0
TABLE
  2
LAYER
  5
2
100
AcDbSymbolTable
 70
2
  0
LAYER
  5
50
100
AcDbSymbolTableRecord
100
AcDbLayerTableRecord
  2
0
 70
0
  6
CONTINUOUS
  0
LAYER
  5
51
100
AcDbSymbolTableRecord
100
AcDbLayerTableRecord
  2
bottom_cover_through
 70
0
  6
CONTINUOUS
  0
ENDTAB
  0
TABLE
  2
STYLE
  5
3
330
0
100
AcDbSymbolTable
 70
     1
  0
STYLE
  5
11
330
3
100
AcDbSymbolTableRecord
100
AcDbTextStyleTableRecord
  2
STANDARD
 70
     0
 40
0.0
 41
1.0
 50
0.0
 71
     0
 42
2.5
  3
txt
  4

  0
ENDTAB
  0
TABLE
  2
VIEW
  5
6
330
0
100
AcDbSymbolTable
 70
     0
  0
ENDTAB
  0
TABLE
  2
UCS
  5
7
330
0
100
AcDbSymbolTable
 70
     0
  0
ENDTAB
  0
TABLE
  2
APPID
  5
9
330
0
100
AcDbSymbolTable
 70
     2
  0
APPID
  5
12
330
9
100
AcDbSymbolTableRecord
100
AcDbRegAppTableRecord
  2
ACAD
 70
     0
  0
ENDTAB
  0
TABLE
  2
DIMSTYLE
  5
A
330
0
100
AcDbSymbolTable
 70
     1
  0
DIMSTYLE
105
27
330
A
100
AcDbSymbolTableRecord
100
AcDbDimStyleTableRecord
  2
ISO-25
 70
     0
  3

  4

  5

  6

  7

 40
1.0
 41
2.5
 42
0.625
 43
3.75
 44
1.25
 45
0.0
 46
0.0
 47
0.0
 48
0.0
140
2.5
141
2.5
142
0.0
143
0.03937007874016
144
1.0
145
0.0
146
1.0
147
0.625
 71
     0
 72
     0
 73
     0
 74
     0
 75
     0
 76
     0
 77
     1
 78
     8
170
     0
171
     3
172
     1
173
     0
174
     0
175
     0
176
     0
177
     0
178
     0
270
     2
271
     2
272
     2
273
     2
274
     3
340
11
275
     0
280
     0
281
     0
282
     0
283
     0
284
     8
285
     0
286
     0
287
     3
288
     0
  0
ENDTAB
  0
TABLE
  2
BLOCK_RECORD
  5
1
330
0
100
AcDbSymbolTable
 70
     1
  0
BLOCK_RECORD
  5
1F
330
1
100
AcDbSymbolTableRecord
100
AcDbBlockTableRecord
  2
*MODEL_SPACE
  0
BLOCK_RECORD
  5
1B
330
1
100
AcDbSymbolTableRecord
100
AcDbBlockTableRecord
  2
*PAPER_SPACE
  0
ENDTAB
  0
ENDSEC
  0
SECTION
  2
BLOCKS
  0
BLOCK
  5
20
330
1F
100
AcDbEntity
  8
0
100
AcDbBlockBegin
  2
*MODEL_SPACE
 70
     0
 10
0.0
 20
0.0
 30
0.0
  3
*MODEL_SPACE
  1

  0
ENDBLK
  5
21
330
1F
100
AcDbEntity
  8
0
100
AcDbBlockEnd
  0
BLOCK
  5
1C
330
1B
100
AcDbEntity
 67
     1
  8
0
100
AcDbBlockBegin
  2
*PAPER_SPACE
  1

  0
ENDBLK
  5
1D
330
1B
100
AcDbEntity
 67
     1
  8
0
100
AcDbBlockEnd
  0
ENDSEC
  0
SECTION
  2
ENTITIES
  0
SPLINE
  5
100
100
AcDbEntity
  8
bottom_cover_through
 62
7
100
AcDbSpline
 70
8
 71
3
 72
8
 73
4
 74
0
 40
0
 40
0
 40
0
 40
0
 40
1
 40
1
 40
1
 40
1
 10
354.685030
 20
13.186123
 30
0.0
 10
354.685030
 20
20.326595
 30
0.0
 10
354.685030
 20
479.142332
 30
0.0
 10
354.685030
 20
479.230206
 30
0.0
  0
SPLINE
  5
101
100
AcDbEntity
  8
bottom_cover_through
 62
7
100
AcDbSpline
 70
8
 71
3
 72
8
 73
4
 74
0
 40
0
 40
0
 40
0
 40
0
 40
1
 40
1
 40
1
 40
1
 10
354.685030
 20
479.230206
 30
0.0
 10
354.685030
 20
485.840600
 30
0.0
 10
361.261409
 20
491.277450
 30
0.0
 10
366.732275
 20
491.277450
 30
0.0
  0
SPLINE
  5
102
100
AcDbEntity
  8
bottom_cover_through
 62
7
100
AcDbSpline
 70
8
 71
3
 72
8
 73
4
 74
0
 40
0
 40
0
 40
0
 40
0
 40
1
 40
1
 40
1
 40
1
 10
366.732275
 20
491.277450
 30
0.0
 10
372.203141
 20
491.277450
 30
0.0
 10
401.589910
 20
491.288789
 30
0.0
 10
402.896681
 20
491.277450
 30
0.0
  0
SPLINE
  5
103
100
AcDbEntity
  8
bottom_cover_through
 62
7
100
AcDbSpline
 70
8
 71
3
 72
8
 73
4
 74
0
 40
0
 40
0
 40
0
 40
0
 40
1
 40
1
 40
1
 40
1
 10
402.896681
 20
491.277450
 30
0.0
 10
402.896681
 20
491.277450
 30
0.0
 10
410.901721
 20
491.963434
 30
0.0
 10
410.924398
 20
483.249734
 30
0.0
  0
SPLINE
  5
104
100
AcDbEntity
  8
bottom_cover_through
 62
7
100
AcDbSpline
 70
8
 71
3
 72
8
 73
4
 74
0
 40
0
 40
0
 40
0
 40
0
 40
1
 40
1
 40
1
 40
1
 10
410.924398
 20
483.249734
 30
0.0
 10
410.958414
 20
474.536033
 30
0.0
 10
410.924398
 20
443.065796
 30
0.0
 10
410.924398
 20
443.065796
 30
0.0
  0
SPLINE
  5
105
100
AcDbEntity
  8
bottom_cover_through
 62
7
100
AcDbSpline
 70
8
 71
3
 72
8
 73
4
 74
0
 40
0
 40
0
 40
0
 40
0
 40
1
 40
1
 40
1
 40
1
 10
410.924398
 20
443.065796
 30
0.0
 10
411.111484
 20
437.461702
 30
0.0
 10
407.480303
 20
435.038080
 30
0.0
 10
402.896681
 20
435.038080
 30
0.0
  0
SPLINE
  5
106
100
AcDbEntity
  8
bottom_cover_through
 62
7
100
AcDbSpline
 70
8
 71
3
 72
8
 73
4
 74
0
 40
0
 40
0
 40
0
 40
0
 40
1
 40
1
 40
1
 40
1
 10
402.896681
 20
435.038080
 30
0.0
 10
398.301721
 20
435.038080
 30
0.0
 10
398.069280
 20
430.210678
 30
0.0
 10
398.069280
 20
430.210678
 30
0.0
  0
SPLINE
  5
107
100
AcDbEntity
  8
bottom_cover_through
 62
7
100
AcDbSpline
 70
8
 71
3
 72
8
 73
4
 74
0
 40
0
 40
0
 40
0
 40
0
 40
1
 40
1
 40
1
 40
1
 10
398.069280
 20
62.205647
 30
0.0
 10
398.069280
 20
62.205647
 30
0.0
 10
397.547705
 20
57.454781
 30
0.0
 10
402.896681
 20
57.378246
 30
0.0
  0
SPLINE
  5
108
100
AcDbEntity
  8
bottom_cover_through
 62
7
100
AcDbSpline
 70
8
 71
3
 72
8
 73
4
 74
0
 40
0
 40
0
 40
0
 40
0
 40
1
 40
1
 40
1
 40
1
 10
402.896681
 20
57.378246
 30
0.0
 10
408.245658
 20
57.298876
 30
0.0
 10
410.924398
 20
53.389902
 30
0.0
 10
410.924398
 20
49.350532
 30
0.0
  0
SPLINE
  5
109
100
AcDbEntity
  8
bottom_cover_through
 62
7
100
AcDbSpline
 70
8
 71
3
 72
8
 73
4
 74
0
 40
0
 40
0
 40
0
 40
0
 40
1
 40
1
 40
1
 40
1
 10
410.924398
 20
49.350532
 30
0.0
 10
410.924398
 20
35.951162
 30
0.0
 10
411.012272
 20
17.304863
 30
0.0
 10
410.924398
 20
9.166595
 30
0.0
  0
SPLINE
  5
10a
100
AcDbEntity
  8
bottom_cover_through
 62
7
100
AcDbSpline
 70
8
 71
3
 72
8
 73
4
 74
0
 40
0
 40
0
 40
0
 40
0
 40
1
 40
1
 40
1
 40
1
 10
410.924398
 20
9.166595
 30
0.0
 10
410.847863
 20
1.028327
 30
0.0
 10
402.896681
 20
1.138879
 30
0.0
 10
402.896681
 20
1.138879
 30
0.0
  0
SPLINE
  5
10b
100
AcDbEntity
  8
bottom_cover_through
 62
7
100
AcDbSpline
 70
8
 71
3
 72
8
 73
4
 74
0
 40
0
 40
0
 40
0
 40
0
 40
1
 40
1
 40
1
 40
1
 10
402.896681
 20
1.138879
 30
0.0
 10
402.896681
 20
1.138879
 30
0.0
 10
373.674323
 20
1.138879
 30
0.0
 10
366.732275
 20
1.138879
 30
0.0
  0
SPLINE
  5
10c
100
AcDbEntity
  8
bottom_cover_through
 62
7
100
AcDbSpline
 70
8
 71
3
 72
8
 73
4
 74
0
 40
0
 40
0
 40
0
 40
0
 40
1
 40
1
 40
1
 40
1
 10
366.732275
 20
1.138879
 30
0.0
 10
359.790228
 20
1.138879
 30
0.0
 10
354.685030
 20
6.042815
 30
0.0
 10
354.685030
 20
13.186123
 30
0.0
  0
SPLINE
  5
10d
100
AcDbEntity
  8
bottom_cover_through
 62
7
100
AcDbSpline
 70
8
 71
3
 72
8
 73
4
 74
0
 40
0
 40
0
 40
0
 40
0
 40
1
 40
1
 40
1
 40
1
 10
395.002196
 20
462.023906
 30
0.0
 10
395.002196
 20
455.543906
 30
0.0
 10
389.752432
 20
450.296978
 30
0.0
 10
383.275267
 20
450.296978
 30
0.0
  0
SPLINE
  5
10e
100
AcDbEntity
  8
bottom_cover_through
 62
7
100
AcDbSpline
 70
8
 71
3
 72
8
 73
4
 74
0
 40
0
 40
0
 40
0
 40
0
 40
1
 40
1
 40
1
 40
1
 10
383.275267
 20
450.296978
 30
0.0
 10
376.809440
 20
450.296978
 30
0.0
 10
371.559676
 20
455.543906
 30
0.0
 10
371.559676
 20
462.023906
 30
0.0
  0
SPLINE
  5
10f
100
AcDbEntity
  8
bottom_cover_through
 62
7
100
AcDbSpline
 70
8
 71
3
 72
8
 73
4
 74
0
 40
0
 40
0
 40
0
 40
0
 40
1
 40
1
 40
1
 40
1
 10
371.559676
 20
462.023906
 30
0.0
 10
371.559676
 20
468.501072
 30
0.0
 10
376.809440
 20
473.748001
 30
0.0
 10
383.275267
 20
473.748001
 30
0.0
  0
SPLINE
  5
110
100
AcDbEntity
  8
bottom_cover_through
 62
7
100
AcDbSpline
 70
8
 71
3
 72
8
 73
4
 74
0
 40
0
 40
0
 40
0
 40
0
 40
1
 40
1
 40
1
 40
1
 10
383.275267
 20
473.748001
 30
0.0
 10
389.752432
 20
473.748001
 30
0.0
 10
395.002196
 20
468.501072
 30
0.0
 10
395.002196
 20
462.023906
 30
0.0
  0
SPLINE
  5
111
100
AcDbEntity
  8
bottom_cover_through
 62
7
100
AcDbSpline
 70
8
 71
3
 72
8
 73
4
 74
0
 40
0
 40
0
 40
0
 40
0
 40
1
 40
1
 40
1
 40
1
 10
395.002196
 20
28.121870
 30
0.0
 10
395.002196
 20
21.644705
 30
0.0
 10
389.752432
 20
16.397776
 30
0.0
 10
383.275267
 20
16.397776
 30
0.0
  0
SPLINE
  5
112
100
AcDbEntity
  8
bottom_cover_through
 62
7
100
AcDbSpline
 70
8
 71
3
 72
8
 73
4
 74
0
 40
0
 40
0
 40
0
 40
0
 40
1
 40
1
 40
1
 40
1
 10
383.275267
 20
16.397776
 30
0.0
 10
376.809440
 20
16.397776
 30
0.0
 10
371.559676
 20
21.644705
 30
0.0
 10
371.559676
 20
28.121870
 30
0.0
  0
SPLINE
  5
113
100
AcDbEntity
  8
bottom_cover_through
 62
7
100
AcDbSpline
 70
8
 71
3
 72
8
 73
4
 74
0
 40
0
 40
0
 40
0
 40
0
 40
1
 40
1
 40
1
 40
1
 10
371.559676
 20
28.121870
 30
0.0
 10
371.559676
 20
34.599036
 30
0.0
 10
376.809440
 20
39.848800
 30
0.0
 10
383.275267
 20
39.848800
 30
0.0
  0
SPLINE
  5
114
100
AcDbEntity
  8
bottom_cover_through
 62
7
100
AcDbSpline
 70
8
 71
3
 72
8
 73
4
 74
0
 40
0
 40
0
 40
0
 40
0
 40
1
 40
1
 40
1
 40
1
 10
383.275267
 20
39.848800
 30
0.0
 10
389.752432
 20
39.848800
 30
0.0
 10
395.002196
 20
34.599036
 30
0.0
 10
395.002196
 20
28.121870
 30
0.0
  0
SPLINE
  5
115
100
AcDbEntity
  8
bottom_cover_through
 62
7
100
AcDbSpline
 70
8
 71
3
 72
8
 73
4
 74
0
 40
0
 40
0
 40
0
 40
0
 40
1
 40
1
 40
1
 40
1
 10
376.375739
 20
433.898552
 30
0.0
 10
379.754637
 20
433.898552
 30
0.0
 10
382.478731
 20
429.932883
 30
0.0
 10
382.478731
 20
425.006269
 30
0.0
  0
SPLINE
  5
116
100
AcDbEntity
  8
bottom_cover_through
 62
7
100
AcDbSpline
 70
8
 71
3
 72
8
 73
4
 74
0
 40
0
 40
0
 40
0
 40
0
 40
1
 40
1
 40
1
 40
1
 10
382.478731
 20
67.410057
 30
0.0
 10
382.478731
 20
62.480608
 30
0.0
 10
379.754637
 20
58.517774
 30
0.0
 10
376.375739
 20
58.517774
 30
0.0
  0
SPLINE
  5
117
100
AcDbEntity
  8
bottom_cover_through
 62
7
100
AcDbSpline
 70
8
 71
3
 72
8
 73
4
 74
0
 40
0
 40
0
 40
0
 40
0
 40
1
 40
1
 40
1
 40
1
 10
376.375739
 20
58.517774
 30
0.0
 10
372.999676
 20
58.517774
 30
0.0
 10
370.275582
 20
62.480608
 30
0.0
 10
370.275582
 20
67.410057
 30
0.0
  0
LWPOLYLINE
  5
118
100
AcDbEntity
  8
bottom_cover_through
 62
7
100
AcDbPolyline
 90
2
 70
0
 10
398.069280
 20
430.210678
 30
0.0
 10
398.069280
 20
62.205647
 30
0.0
  0
SPLINE
  5
119
100
AcDbEntity
  8
bottom_cover_through
 62
7
100
AcDbSpline
 70
8
 71
3
 72
8
 73
4
 74
0
 40
0
 40
0
 40
0
 40
0
 40
1
 40
1
 40
1
 40
1
 10
370.275582
 20
425.006269
 30
0.0
 10
370.275582
 20
429.932883
 30
0.0
 10
372.999676
 20
433.898552
 30
0.0
 10
376.375739
 20
433.898552
 30
0.0
  0
LWPOLYLINE
  5
11a
100
AcDbEntity
  8
bottom_cover_through
 62
7
100
AcDbPolyline
 90
2
 70
0
 10
382.478731
 20
425.006269
 30
0.0
 10
382.478731
 20
67.410057
 30
0.0
  0
LWPOLYLINE
  5
11b
100
AcDbEntity
  8
bottom_cover_through
 62
7
100
AcDbPolyline
 90
2
 70
0
 10
370.275582
 20
67.410057
 30
0.0
 10
370.275582
 20
425.006269
 30
0.0
  0
ENDSEC
  0
SECTION
  2
OBJECTS
  0
DICTIONARY
  5
C
330
0
100
AcDbDictionary
  3
ACAD_GROUP
350
D
  3
ACAD_MLINESTYLE
350
17
  0
DICTIONARY
  5
D
330
C
100
AcDbDictionary
  0
DICTIONARY
  5
1A
330
C
100
AcDbDictionary
  0
DICTIONARY
  5
17
330
C
100
AcDbDictionary
  3
STANDARD
350
18
  0
DICTIONARY
  5
19
330
C
100
AcDbDictionary
  0
ENDSEC
  0
EOF
