<?xml version="1.0" encoding="UTF-8" standalone="no"?>
<!-- Created with Inkscape (http://www.inkscape.org/) -->

<svg
   xmlns:dc="http://purl.org/dc/elements/1.1/"
   xmlns:cc="http://creativecommons.org/ns#"
   xmlns:rdf="http://www.w3.org/1999/02/22-rdf-syntax-ns#"
   xmlns:svg="http://www.w3.org/2000/svg"
   xmlns="http://www.w3.org/2000/svg"
   xmlns:sodipodi="http://sodipodi.sourceforge.net/DTD/sodipodi-0.dtd"
   xmlns:inkscape="http://www.inkscape.org/namespaces/inkscape"
   width="210mm"
   height="297mm"
   viewBox="0 0 744.09448819 1052.3622047"
   id="svg2"
   version="1.1"
   inkscape:version="0.91 r13725"
   sodipodi:docname="bottom_cover.svg">
  <defs
     id="defs4" />
  <sodipodi:namedview
     id="base"
     pagecolor="#ffffff"
     bordercolor="#666666"
     borderopacity="1.0"
     inkscape:pageopacity="0.0"
     inkscape:pageshadow="2"
     inkscape:zoom="2"
     inkscape:cx="12.121512"
     inkscape:cy="81.964924"
     inkscape:document-units="px"
     inkscape:current-layer="layer1"
     showgrid="false"
     inkscape:window-width="1920"
     inkscape:window-height="1056"
     inkscape:window-x="0"
     inkscape:window-y="24"
     inkscape:window-maximized="1"
     showguides="false" />
  <metadata
     id="metadata7">
    <rdf:RDF>
      <cc:Work
         rdf:about="">
        <dc:format>image/svg+xml</dc:format>
        <dc:type
           rdf:resource="http://purl.org/dc/dcmitype/StillImage" />
      </cc:Work>
    </rdf:RDF>
  </metadata>
  <g
     inkscape:label="レイヤー 1"
     inkscape:groupmode="layer"
     id="layer1">
    <path
       style="fill:none;fill-rule:evenodd;stroke:#000000;stroke-width:0.99921262;stroke-linecap:round;stroke-linejoin:round;stroke-miterlimit:4;stroke-dasharray:none;stroke-opacity:1"
       d="M 0,1047.0472 0,841.53543 c 0,-2.91769 2.9021152,-5.31496 5.3149606,-5.31496 2.4128454,0 141.4442594,0.004 141.7322794,0 2.67453,-0.0417 5.31496,2.84143 5.31496,5.31496 l 0,205.51177 c 0,2.8869 -2.76767,5.315 -5.31496,5.315 l -58.464563,0 -10.629921,-10.6299 -28.346457,0 -10.629921,10.6299 -33.6614174,0 C 2.2525074,1052.3622 0,1050.1974 0,1047.0472 Z"
       id="path4136"
       inkscape:connector-curvature="0"
       sodipodi:nodetypes="zszsczscccczz" />
    <circle
       style="fill:none;stroke:#000000;stroke-width:0.99921268;stroke-linecap:round;stroke-linejoin:round;stroke-miterlimit:4;stroke-dasharray:none;stroke-opacity:1"
       id="path4159"
       cx="12.401575"
       cy="848.62207"
       r="3.7523623" />
    <circle
       style="fill:none;stroke:#000000;stroke-width:0.99921268;stroke-linecap:round;stroke-linejoin:round;stroke-miterlimit:4;stroke-dasharray:none;stroke-opacity:1"
       id="path4159-3"
       cx="12.401575"
       cy="1039.9606"
       r="3.7523623" />
    <path
       style="fill:none;fill-rule:evenodd;stroke:#000000;stroke-width:0.99921262;stroke-linecap:round;stroke-linejoin:round;stroke-miterlimit:4;stroke-dasharray:none;stroke-opacity:1"
       d="m 156.40512,1046.5475 c 0,-3.1501 0,-205.47218 0,-205.51177 0,-2.91769 2.90211,-5.31496 5.31496,-5.31496 2.41284,0 15.3688,-0.005 15.94488,0 0,0 3.53123,-0.30003 3.5433,3.54331 0.0121,3.84334 0,17.71653 0,17.71653 0.0804,2.47341 -1.51895,3.54331 -3.5433,3.54331 -2.02435,0 -2.12599,2.12599 -2.12599,2.12599 l 0,162.28349 c 0,0 -0.23285,2.0921 2.12599,2.126 2.35884,0.034 3.5433,1.7569 3.5433,3.5433 0,5.9055 0.0354,14.1285 0,17.7165 -0.0354,3.588 -3.5433,3.5433 -3.5433,3.5433 0,0 -12.88243,0 -15.94488,0 -3.06246,0 -5.31496,-2.1648 -5.31496,-5.315 z"
       id="path4136-3"
       inkscape:connector-curvature="0"
       sodipodi:nodetypes="zszczczcczszczz" />
    <circle
       style="fill:none;stroke:#000000;stroke-width:0.99921262;stroke-linecap:round;stroke-linejoin:round;stroke-miterlimit:4;stroke-dasharray:none;stroke-opacity:1"
       id="path4159-6"
       cx="168.30708"
       cy="848.62207"
       r="5.1696849" />
    <circle
       style="fill:none;stroke:#000000;stroke-width:0.99921268;stroke-linecap:round;stroke-linejoin:round;stroke-miterlimit:4;stroke-dasharray:none;stroke-opacity:1"
       id="path4159-3-7"
       cx="168.30708"
       cy="1039.9606"
       r="5.1696849" />
    <rect
       style="fill:none;stroke:#000000;stroke-width:0.99921256;stroke-linecap:round;stroke-linejoin:round;stroke-miterlimit:4;stroke-dasharray:none;stroke-opacity:1"
       id="rect4176-5"
       width="5.3787403"
       height="165.53621"
       x="162.57402"
       y="861.02356"
       ry="3.9235446" />
    <circle
       style="fill:none;stroke:#000000;stroke-width:0.99921268;stroke-linecap:round;stroke-linejoin:round;stroke-miterlimit:4;stroke-dasharray:none;stroke-opacity:1"
       id="path4159-9"
       cx="139.96063"
       cy="848.62207"
       r="3.7523623" />
    <circle
       style="fill:none;stroke:#000000;stroke-width:0.99921268;stroke-linecap:round;stroke-linejoin:round;stroke-miterlimit:4;stroke-dasharray:none;stroke-opacity:1"
       id="path4159-9-1"
       cx="139.96063"
       cy="1039.9606"
       r="3.7523623" />
    <path
       style="fill:none;fill-rule:evenodd;stroke:#000000;stroke-width:0.99921262;stroke-linecap:round;stroke-linejoin:round;stroke-miterlimit:4;stroke-dasharray:none;stroke-opacity:1"
       d="m 184.75157,1046.5475 c 0,-3.1501 0,-205.47206 0,-205.51165 0,-2.91769 2.90211,-5.31496 5.31496,-5.31496 2.41284,0 15.3688,-0.005 15.94488,0 0,0 3.53123,-0.30003 3.5433,3.54331 0.0121,3.84334 0,17.71653 0,17.71653 0.0804,2.47341 -1.51895,3.54331 -3.5433,3.54331 -2.02435,0 -2.12599,2.12599 -2.12599,2.12599 l 0,162.28337 c 0,0 -0.23285,2.0921 2.12599,2.126 2.35884,0.034 3.5433,1.7569 3.5433,3.5433 0,5.9055 0.0354,14.1285 0,17.7165 -0.0354,3.588 -3.5433,3.5433 -3.5433,3.5433 0,0 -12.88243,0 -15.94488,0 -3.06246,0 -5.31496,-2.1648 -5.31496,-5.315 z"
       id="path4136-3-2"
       inkscape:connector-curvature="0"
       sodipodi:nodetypes="zszczczcczszczz" />
    <circle
       style="fill:none;stroke:#000000;stroke-width:0.99921262;stroke-linecap:round;stroke-linejoin:round;stroke-miterlimit:4;stroke-dasharray:none;stroke-opacity:1"
       id="path4159-6-7"
       cx="196.65353"
       cy="848.62225"
       r="5.1696849" />
    <circle
       style="fill:none;stroke:#000000;stroke-width:0.99921268;stroke-linecap:round;stroke-linejoin:round;stroke-miterlimit:4;stroke-dasharray:none;stroke-opacity:1"
       id="path4159-3-7-0"
       cx="196.65353"
       cy="1039.9606"
       r="5.1696849" />
    <rect
       style="fill:none;stroke:#000000;stroke-width:0.99921256;stroke-linecap:round;stroke-linejoin:round;stroke-miterlimit:4;stroke-dasharray:none;stroke-opacity:1"
       id="rect4176-5-9"
       width="5.3787403"
       height="165.53621"
       x="190.92047"
       y="861.02374"
       ry="3.9235446" />
  </g>
</svg>
