  0
SECTION
  2
HEADER
  9
$ACADVER
  1
AC1014
  9
$HANDSEED
  5
FFFF
  9
$MEASUREMENT
 70
     1
  0
ENDSEC
  0
SECTION
  2
TABLES
  0
TABLE
  2
VPORT
  5
8
330
0
100
AcDbSymbolTable
 70
     4
  0
VPORT
  5
2E
330
8
100
AcDbSymbolTableRecord
100
AcDbViewportTableRecord
  2
*ACTIVE
 70
     0
 10
0.0
 20
0.0
 11
1.0
 21
1.0
 12
210.0
 22
148.5
 13
0.0
 23
0.0
 14
10.0
 24
10.0
 15
10.0
 25
10.0
 16
0.0
 26
0.0
 36
1.0
 17
0.0
 27
0.0
 37
0.0
 40
341.0
 41
1.24
 42
50.0
 43
0.0
 44
0.0
 50
0.0
 51
0.0
 71
     0
 72
   100
 73
     1
 74
     3
 75
     0
 76
     0
 77
     0
 78
     0
  0
ENDTAB
  0
TABLE
  2
LTYPE
  5
5
330
0
100
AcDbSymbolTable
 70
     1
  0
LTYPE
  5
14
330
5
100
AcDbSymbolTableRecord
100
AcDbLinetypeTableRecord
  2
BYBLOCK
 70
     0
  3

 72
    65
 73
     0
 40
0.0
  0
LTYPE
  5
15
330
5
100
AcDbSymbolTableRecord
100
AcDbLinetypeTableRecord
  2
BYLAYER
 70
     0
  3

 72
    65
 73
     0
 40
0.0
  0
LTYPE
  5
16
330
5
100
AcDbSymbolTableRecord
100
AcDbLinetypeTableRecord
  2
CONTINUOUS
 70
     0
  3
Solid line
 72
    65
 73
     0
 40
0.0
  0
ENDTAB
  0
TABLE
  2
LAYER
  5
2
100
AcDbSymbolTable
 70
2
  0
LAYER
  5
50
100
AcDbSymbolTableRecord
100
AcDbLayerTableRecord
  2
0
 70
0
  6
CONTINUOUS
  0
LAYER
  5
51
100
AcDbSymbolTableRecord
100
AcDbLayerTableRecord
  2
bottom_cover_through
 70
0
  6
CONTINUOUS
  0
ENDTAB
  0
TABLE
  2
STYLE
  5
3
330
0
100
AcDbSymbolTable
 70
     1
  0
STYLE
  5
11
330
3
100
AcDbSymbolTableRecord
100
AcDbTextStyleTableRecord
  2
STANDARD
 70
     0
 40
0.0
 41
1.0
 50
0.0
 71
     0
 42
2.5
  3
txt
  4

  0
ENDTAB
  0
TABLE
  2
VIEW
  5
6
330
0
100
AcDbSymbolTable
 70
     0
  0
ENDTAB
  0
TABLE
  2
UCS
  5
7
330
0
100
AcDbSymbolTable
 70
     0
  0
ENDTAB
  0
TABLE
  2
APPID
  5
9
330
0
100
AcDbSymbolTable
 70
     2
  0
APPID
  5
12
330
9
100
AcDbSymbolTableRecord
100
AcDbRegAppTableRecord
  2
ACAD
 70
     0
  0
ENDTAB
  0
TABLE
  2
DIMSTYLE
  5
A
330
0
100
AcDbSymbolTable
 70
     1
  0
DIMSTYLE
105
27
330
A
100
AcDbSymbolTableRecord
100
AcDbDimStyleTableRecord
  2
ISO-25
 70
     0
  3

  4

  5

  6

  7

 40
1.0
 41
2.5
 42
0.625
 43
3.75
 44
1.25
 45
0.0
 46
0.0
 47
0.0
 48
0.0
140
2.5
141
2.5
142
0.0
143
0.03937007874016
144
1.0
145
0.0
146
1.0
147
0.625
 71
     0
 72
     0
 73
     0
 74
     0
 75
     0
 76
     0
 77
     1
 78
     8
170
     0
171
     3
172
     1
173
     0
174
     0
175
     0
176
     0
177
     0
178
     0
270
     2
271
     2
272
     2
273
     2
274
     3
340
11
275
     0
280
     0
281
     0
282
     0
283
     0
284
     8
285
     0
286
     0
287
     3
288
     0
  0
ENDTAB
  0
TABLE
  2
BLOCK_RECORD
  5
1
330
0
100
AcDbSymbolTable
 70
     1
  0
BLOCK_RECORD
  5
1F
330
1
100
AcDbSymbolTableRecord
100
AcDbBlockTableRecord
  2
*MODEL_SPACE
  0
BLOCK_RECORD
  5
1B
330
1
100
AcDbSymbolTableRecord
100
AcDbBlockTableRecord
  2
*PAPER_SPACE
  0
ENDTAB
  0
ENDSEC
  0
SECTION
  2
BLOCKS
  0
BLOCK
  5
20
330
1F
100
AcDbEntity
  8
0
100
AcDbBlockBegin
  2
*MODEL_SPACE
 70
     0
 10
0.0
 20
0.0
 30
0.0
  3
*MODEL_SPACE
  1

  0
ENDBLK
  5
21
330
1F
100
AcDbEntity
  8
0
100
AcDbBlockEnd
  0
BLOCK
  5
1C
330
1B
100
AcDbEntity
 67
     1
  8
0
100
AcDbBlockBegin
  2
*PAPER_SPACE
  1

  0
ENDBLK
  5
1D
330
1B
100
AcDbEntity
 67
     1
  8
0
100
AcDbBlockEnd
  0
ENDSEC
  0
SECTION
  2
ENTITIES
  0
SPLINE
  5
100
100
AcDbEntity
  8
bottom_cover_through
 62
7
100
AcDbSpline
 70
8
 71
3
 72
8
 73
4
 74
0
 40
0
 40
0
 40
0
 40
0
 40
1
 40
1
 40
1
 40
1
 10
0.000000
 20
168.662767
 30
0.0
 10
0.000000
 20
170.994767
 30
0.0
 10
2.320000
 20
172.912767
 30
0.0
 10
4.254000
 20
172.912767
 30
0.0
  0
SPLINE
  5
101
100
AcDbEntity
  8
bottom_cover_through
 62
7
100
AcDbSpline
 70
8
 71
3
 72
8
 73
4
 74
0
 40
0
 40
0
 40
0
 40
0
 40
1
 40
1
 40
1
 40
1
 10
4.254000
 20
172.912767
 30
0.0
 10
6.184000
 20
172.912767
 30
0.0
 10
117.405997
 20
172.909767
 30
0.0
 10
117.636997
 20
172.912767
 30
0.0
  0
SPLINE
  5
102
100
AcDbEntity
  8
bottom_cover_through
 62
7
100
AcDbSpline
 70
8
 71
3
 72
8
 73
4
 74
0
 40
0
 40
0
 40
0
 40
0
 40
1
 40
1
 40
1
 40
1
 10
117.636997
 20
172.912767
 30
0.0
 10
119.776997
 20
172.948767
 30
0.0
 10
121.890997
 20
170.639767
 30
0.0
 10
121.890997
 20
168.662767
 30
0.0
  0
LWPOLYLINE
  5
103
100
AcDbEntity
  8
bottom_cover_through
 62
7
100
AcDbPolyline
 90
2
 70
0
 10
0.000000
 20
4.252771
 30
0.0
 10
0.000000
 20
168.662767
 30
0.0
  0
SPLINE
  5
104
100
AcDbEntity
  8
bottom_cover_through
 62
7
100
AcDbSpline
 70
8
 71
3
 72
8
 73
4
 74
0
 40
0
 40
0
 40
0
 40
0
 40
1
 40
1
 40
1
 40
1
 10
121.890997
 20
4.252771
 30
0.0
 10
121.890997
 20
1.940771
 30
0.0
 10
119.675997
 20
-0.001229
 30
0.0
 10
117.636997
 20
-0.001229
 30
0.0
  0
LWPOLYLINE
  5
105
100
AcDbEntity
  8
bottom_cover_through
 62
7
100
AcDbPolyline
 90
2
 70
0
 10
121.890997
 20
168.662767
 30
0.0
 10
121.890997
 20
4.252771
 30
0.0
  0
SPLINE
  5
106
100
AcDbEntity
  8
bottom_cover_through
 62
7
100
AcDbSpline
 70
8
 71
3
 72
8
 73
4
 74
0
 40
0
 40
0
 40
0
 40
0
 40
1
 40
1
 40
1
 40
1
 10
4.254000
 20
-0.001229
 30
0.0
 10
1.801000
 20
-0.001229
 30
0.0
 10
0.000000
 20
1.733771
 30
0.0
 10
0.000000
 20
4.252771
 30
0.0
  0
LWPOLYLINE
  5
107
100
AcDbEntity
  8
bottom_cover_through
 62
7
100
AcDbPolyline
 90
6
 70
0
 10
117.636997
 20
-0.001229
 30
0.0
 10
106.300997
 20
-0.001229
 30
0.0
 10
99.210998
 20
7.084771
 30
0.0
 10
22.675999
 20
7.084771
 30
0.0
 10
15.590000
 20
-0.001229
 30
0.0
 10
4.254000
 20
-0.001229
 30
0.0
  0
SPLINE
  5
108
100
AcDbEntity
  8
bottom_cover_through
 62
7
100
AcDbSpline
 70
8
 71
3
 72
8
 73
4
 74
0
 40
0
 40
0
 40
0
 40
0
 40
1
 40
1
 40
1
 40
1
 10
14.059000
 20
162.991767
 30
0.0
 10
14.059000
 20
160.705767
 30
0.0
 10
12.207000
 20
158.854767
 30
0.0
 10
9.922000
 20
158.854767
 30
0.0
  0
SPLINE
  5
109
100
AcDbEntity
  8
bottom_cover_through
 62
7
100
AcDbSpline
 70
8
 71
3
 72
8
 73
4
 74
0
 40
0
 40
0
 40
0
 40
0
 40
1
 40
1
 40
1
 40
1
 10
9.922000
 20
158.854767
 30
0.0
 10
7.637000
 20
158.854767
 30
0.0
 10
5.785000
 20
160.705767
 30
0.0
 10
5.785000
 20
162.991767
 30
0.0
  0
SPLINE
  5
10a
100
AcDbEntity
  8
bottom_cover_through
 62
7
100
AcDbSpline
 70
8
 71
3
 72
8
 73
4
 74
0
 40
0
 40
0
 40
0
 40
0
 40
1
 40
1
 40
1
 40
1
 10
5.785000
 20
162.991767
 30
0.0
 10
5.785000
 20
165.276767
 30
0.0
 10
7.637000
 20
167.127767
 30
0.0
 10
9.922000
 20
167.127767
 30
0.0
  0
SPLINE
  5
10b
100
AcDbEntity
  8
bottom_cover_through
 62
7
100
AcDbSpline
 70
8
 71
3
 72
8
 73
4
 74
0
 40
0
 40
0
 40
0
 40
0
 40
1
 40
1
 40
1
 40
1
 10
9.922000
 20
167.127767
 30
0.0
 10
12.207000
 20
167.127767
 30
0.0
 10
14.059000
 20
165.276767
 30
0.0
 10
14.059000
 20
162.991767
 30
0.0
  0
LWPOLYLINE
  5
10c
100
AcDbEntity
  8
bottom_cover_through
 62
7
100
AcDbPolyline
 90
1
 70
1
 10
0.000000
 20
4.252771
 30
0.0
  0
SPLINE
  5
10d
100
AcDbEntity
  8
bottom_cover_through
 62
7
100
AcDbSpline
 70
8
 71
3
 72
8
 73
4
 74
0
 40
0
 40
0
 40
0
 40
0
 40
1
 40
1
 40
1
 40
1
 10
14.059000
 20
9.920771
 30
0.0
 10
14.059000
 20
7.635771
 30
0.0
 10
12.207000
 20
5.784771
 30
0.0
 10
9.922000
 20
5.784771
 30
0.0
  0
SPLINE
  5
10e
100
AcDbEntity
  8
bottom_cover_through
 62
7
100
AcDbSpline
 70
8
 71
3
 72
8
 73
4
 74
0
 40
0
 40
0
 40
0
 40
0
 40
1
 40
1
 40
1
 40
1
 10
9.922000
 20
5.784771
 30
0.0
 10
7.637000
 20
5.784771
 30
0.0
 10
5.785000
 20
7.635771
 30
0.0
 10
5.785000
 20
9.920771
 30
0.0
  0
SPLINE
  5
10f
100
AcDbEntity
  8
bottom_cover_through
 62
7
100
AcDbSpline
 70
8
 71
3
 72
8
 73
4
 74
0
 40
0
 40
0
 40
0
 40
0
 40
1
 40
1
 40
1
 40
1
 10
5.785000
 20
9.920771
 30
0.0
 10
5.785000
 20
12.205771
 30
0.0
 10
7.637000
 20
14.057771
 30
0.0
 10
9.922000
 20
14.057771
 30
0.0
  0
SPLINE
  5
110
100
AcDbEntity
  8
bottom_cover_through
 62
7
100
AcDbSpline
 70
8
 71
3
 72
8
 73
4
 74
0
 40
0
 40
0
 40
0
 40
0
 40
1
 40
1
 40
1
 40
1
 10
9.922000
 20
14.057771
 30
0.0
 10
12.207000
 20
14.057771
 30
0.0
 10
14.059000
 20
12.205771
 30
0.0
 10
14.059000
 20
9.920771
 30
0.0
  0
LWPOLYLINE
  5
111
100
AcDbEntity
  8
bottom_cover_through
 62
7
100
AcDbPolyline
 90
1
 70
1
 10
14.059000
 20
162.991767
 30
0.0
  0
SPLINE
  5
112
100
AcDbEntity
  8
bottom_cover_through
 62
7
100
AcDbSpline
 70
8
 71
3
 72
8
 73
4
 74
0
 40
0
 40
0
 40
0
 40
0
 40
1
 40
1
 40
1
 40
1
 10
125.124997
 20
4.651771
 30
0.0
 10
125.124997
 20
7.170771
 30
0.0
 10
125.124997
 20
169.030767
 30
0.0
 10
125.124997
 20
169.061767
 30
0.0
  0
SPLINE
  5
113
100
AcDbEntity
  8
bottom_cover_through
 62
7
100
AcDbSpline
 70
8
 71
3
 72
8
 73
4
 74
0
 40
0
 40
0
 40
0
 40
0
 40
1
 40
1
 40
1
 40
1
 10
125.124997
 20
169.061767
 30
0.0
 10
125.124997
 20
171.393767
 30
0.0
 10
127.444997
 20
173.311767
 30
0.0
 10
129.374997
 20
173.311767
 30
0.0
  0
SPLINE
  5
114
100
AcDbEntity
  8
bottom_cover_through
 62
7
100
AcDbSpline
 70
8
 71
3
 72
8
 73
4
 74
0
 40
0
 40
0
 40
0
 40
0
 40
1
 40
1
 40
1
 40
1
 10
129.374997
 20
173.311767
 30
0.0
 10
131.304997
 20
173.311767
 30
0.0
 10
141.671996
 20
173.315767
 30
0.0
 10
142.132996
 20
173.311767
 30
0.0
  0
SPLINE
  5
115
100
AcDbEntity
  8
bottom_cover_through
 62
7
100
AcDbSpline
 70
8
 71
3
 72
8
 73
4
 74
0
 40
0
 40
0
 40
0
 40
0
 40
1
 40
1
 40
1
 40
1
 10
142.132996
 20
173.311767
 30
0.0
 10
142.132996
 20
173.311767
 30
0.0
 10
144.956996
 20
173.553767
 30
0.0
 10
144.964996
 20
170.479767
 30
0.0
  0
SPLINE
  5
116
100
AcDbEntity
  8
bottom_cover_through
 62
7
100
AcDbSpline
 70
8
 71
3
 72
8
 73
4
 74
0
 40
0
 40
0
 40
0
 40
0
 40
1
 40
1
 40
1
 40
1
 10
144.964996
 20
170.479767
 30
0.0
 10
144.976996
 20
167.405767
 30
0.0
 10
144.964996
 20
156.303767
 30
0.0
 10
144.964996
 20
156.303767
 30
0.0
  0
SPLINE
  5
117
100
AcDbEntity
  8
bottom_cover_through
 62
7
100
AcDbSpline
 70
8
 71
3
 72
8
 73
4
 74
0
 40
0
 40
0
 40
0
 40
0
 40
1
 40
1
 40
1
 40
1
 10
144.964996
 20
156.303767
 30
0.0
 10
145.030996
 20
154.326767
 30
0.0
 10
143.749996
 20
153.471767
 30
0.0
 10
142.132996
 20
153.471767
 30
0.0
  0
SPLINE
  5
118
100
AcDbEntity
  8
bottom_cover_through
 62
7
100
AcDbSpline
 70
8
 71
3
 72
8
 73
4
 74
0
 40
0
 40
0
 40
0
 40
0
 40
1
 40
1
 40
1
 40
1
 10
142.132996
 20
153.471767
 30
0.0
 10
140.511996
 20
153.471767
 30
0.0
 10
140.429996
 20
151.768767
 30
0.0
 10
140.429996
 20
151.768767
 30
0.0
  0
LWPOLYLINE
  5
119
100
AcDbEntity
  8
bottom_cover_through
 62
7
100
AcDbPolyline
 90
1
 70
1
 10
14.059000
 20
9.920771
 30
0.0
  0
SPLINE
  5
11a
100
AcDbEntity
  8
bottom_cover_through
 62
7
100
AcDbSpline
 70
8
 71
3
 72
8
 73
4
 74
0
 40
0
 40
0
 40
0
 40
0
 40
1
 40
1
 40
1
 40
1
 10
140.429996
 20
21.944770
 30
0.0
 10
140.429996
 20
21.944770
 30
0.0
 10
140.245996
 20
20.268770
 30
0.0
 10
142.132996
 20
20.241770
 30
0.0
  0
SPLINE
  5
11b
100
AcDbEntity
  8
bottom_cover_through
 62
7
100
AcDbSpline
 70
8
 71
3
 72
8
 73
4
 74
0
 40
0
 40
0
 40
0
 40
0
 40
1
 40
1
 40
1
 40
1
 10
142.132996
 20
20.241770
 30
0.0
 10
144.019996
 20
20.213770
 30
0.0
 10
144.964996
 20
18.834771
 30
0.0
 10
144.964996
 20
17.409771
 30
0.0
  0
SPLINE
  5
11c
100
AcDbEntity
  8
bottom_cover_through
 62
7
100
AcDbSpline
 70
8
 71
3
 72
8
 73
4
 74
0
 40
0
 40
0
 40
0
 40
0
 40
1
 40
1
 40
1
 40
1
 10
144.964996
 20
17.409771
 30
0.0
 10
144.964996
 20
12.682771
 30
0.0
 10
144.995996
 20
6.104771
 30
0.0
 10
144.964996
 20
3.233771
 30
0.0
  0
SPLINE
  5
11d
100
AcDbEntity
  8
bottom_cover_through
 62
7
100
AcDbSpline
 70
8
 71
3
 72
8
 73
4
 74
0
 40
0
 40
0
 40
0
 40
0
 40
1
 40
1
 40
1
 40
1
 10
144.964996
 20
3.233771
 30
0.0
 10
144.937996
 20
0.362771
 30
0.0
 10
142.132996
 20
0.401771
 30
0.0
 10
142.132996
 20
0.401771
 30
0.0
  0
SPLINE
  5
11e
100
AcDbEntity
  8
bottom_cover_through
 62
7
100
AcDbSpline
 70
8
 71
3
 72
8
 73
4
 74
0
 40
0
 40
0
 40
0
 40
0
 40
1
 40
1
 40
1
 40
1
 10
142.132996
 20
0.401771
 30
0.0
 10
142.132996
 20
0.401771
 30
0.0
 10
131.823997
 20
0.401771
 30
0.0
 10
129.374997
 20
0.401771
 30
0.0
  0
SPLINE
  5
11f
100
AcDbEntity
  8
bottom_cover_through
 62
7
100
AcDbSpline
 70
8
 71
3
 72
8
 73
4
 74
0
 40
0
 40
0
 40
0
 40
0
 40
1
 40
1
 40
1
 40
1
 10
129.374997
 20
0.401771
 30
0.0
 10
126.925997
 20
0.401771
 30
0.0
 10
125.124997
 20
2.131771
 30
0.0
 10
125.124997
 20
4.651771
 30
0.0
  0
LWPOLYLINE
  5
120
100
AcDbEntity
  8
bottom_cover_through
 62
7
100
AcDbPolyline
 90
2
 70
0
 10
140.429996
 20
151.768767
 30
0.0
 10
140.429996
 20
21.944770
 30
0.0
  0
SPLINE
  5
121
100
AcDbEntity
  8
bottom_cover_through
 62
7
100
AcDbSpline
 70
8
 71
3
 72
8
 73
4
 74
0
 40
0
 40
0
 40
0
 40
0
 40
1
 40
1
 40
1
 40
1
 10
139.347997
 20
162.991767
 30
0.0
 10
139.347997
 20
160.705767
 30
0.0
 10
137.495997
 20
158.854767
 30
0.0
 10
135.210997
 20
158.854767
 30
0.0
  0
SPLINE
  5
122
100
AcDbEntity
  8
bottom_cover_through
 62
7
100
AcDbSpline
 70
8
 71
3
 72
8
 73
4
 74
0
 40
0
 40
0
 40
0
 40
0
 40
1
 40
1
 40
1
 40
1
 10
135.210997
 20
158.854767
 30
0.0
 10
132.929997
 20
158.854767
 30
0.0
 10
131.077997
 20
160.705767
 30
0.0
 10
131.077997
 20
162.991767
 30
0.0
  0
SPLINE
  5
123
100
AcDbEntity
  8
bottom_cover_through
 62
7
100
AcDbSpline
 70
8
 71
3
 72
8
 73
4
 74
0
 40
0
 40
0
 40
0
 40
0
 40
1
 40
1
 40
1
 40
1
 10
131.077997
 20
162.991767
 30
0.0
 10
131.077997
 20
165.276767
 30
0.0
 10
132.929997
 20
167.127767
 30
0.0
 10
135.210997
 20
167.127767
 30
0.0
  0
SPLINE
  5
124
100
AcDbEntity
  8
bottom_cover_through
 62
7
100
AcDbSpline
 70
8
 71
3
 72
8
 73
4
 74
0
 40
0
 40
0
 40
0
 40
0
 40
1
 40
1
 40
1
 40
1
 10
135.210997
 20
167.127767
 30
0.0
 10
137.495997
 20
167.127767
 30
0.0
 10
139.347997
 20
165.276767
 30
0.0
 10
139.347997
 20
162.991767
 30
0.0
  0
LWPOLYLINE
  5
125
100
AcDbEntity
  8
bottom_cover_through
 62
7
100
AcDbPolyline
 90
1
 70
1
 10
125.124997
 20
4.651771
 30
0.0
  0
SPLINE
  5
126
100
AcDbEntity
  8
bottom_cover_through
 62
7
100
AcDbSpline
 70
8
 71
3
 72
8
 73
4
 74
0
 40
0
 40
0
 40
0
 40
0
 40
1
 40
1
 40
1
 40
1
 10
139.347997
 20
9.920771
 30
0.0
 10
139.347997
 20
7.635771
 30
0.0
 10
137.495997
 20
5.784771
 30
0.0
 10
135.210997
 20
5.784771
 30
0.0
  0
SPLINE
  5
127
100
AcDbEntity
  8
bottom_cover_through
 62
7
100
AcDbSpline
 70
8
 71
3
 72
8
 73
4
 74
0
 40
0
 40
0
 40
0
 40
0
 40
1
 40
1
 40
1
 40
1
 10
135.210997
 20
5.784771
 30
0.0
 10
132.929997
 20
5.784771
 30
0.0
 10
131.077997
 20
7.635771
 30
0.0
 10
131.077997
 20
9.920771
 30
0.0
  0
SPLINE
  5
128
100
AcDbEntity
  8
bottom_cover_through
 62
7
100
AcDbSpline
 70
8
 71
3
 72
8
 73
4
 74
0
 40
0
 40
0
 40
0
 40
0
 40
1
 40
1
 40
1
 40
1
 10
131.077997
 20
9.920771
 30
0.0
 10
131.077997
 20
12.205771
 30
0.0
 10
132.929997
 20
14.057771
 30
0.0
 10
135.210997
 20
14.057771
 30
0.0
  0
SPLINE
  5
129
100
AcDbEntity
  8
bottom_cover_through
 62
7
100
AcDbSpline
 70
8
 71
3
 72
8
 73
4
 74
0
 40
0
 40
0
 40
0
 40
0
 40
1
 40
1
 40
1
 40
1
 10
135.210997
 20
14.057771
 30
0.0
 10
137.495997
 20
14.057771
 30
0.0
 10
139.347997
 20
12.205771
 30
0.0
 10
139.347997
 20
9.920771
 30
0.0
  0
LWPOLYLINE
  5
12a
100
AcDbEntity
  8
bottom_cover_through
 62
7
100
AcDbPolyline
 90
1
 70
1
 10
139.347997
 20
162.991767
 30
0.0
  0
SPLINE
  5
12b
100
AcDbEntity
  8
bottom_cover_through
 62
7
100
AcDbSpline
 70
8
 71
3
 72
8
 73
4
 74
0
 40
0
 40
0
 40
0
 40
0
 40
1
 40
1
 40
1
 40
1
 10
132.776997
 20
153.069767
 30
0.0
 10
133.968997
 20
153.069767
 30
0.0
 10
134.929997
 20
151.670767
 30
0.0
 10
134.929997
 20
149.932767
 30
0.0
  0
LWPOLYLINE
  5
12c
100
AcDbEntity
  8
bottom_cover_through
 62
7
100
AcDbPolyline
 90
1
 70
1
 10
139.347997
 20
9.920771
 30
0.0
  0
SPLINE
  5
12d
100
AcDbEntity
  8
bottom_cover_through
 62
7
100
AcDbSpline
 70
8
 71
3
 72
8
 73
4
 74
0
 40
0
 40
0
 40
0
 40
0
 40
1
 40
1
 40
1
 40
1
 10
134.929997
 20
23.780770
 30
0.0
 10
134.929997
 20
22.041770
 30
0.0
 10
133.968997
 20
20.643770
 30
0.0
 10
132.776997
 20
20.643770
 30
0.0
  0
SPLINE
  5
12e
100
AcDbEntity
  8
bottom_cover_through
 62
7
100
AcDbSpline
 70
8
 71
3
 72
8
 73
4
 74
0
 40
0
 40
0
 40
0
 40
0
 40
1
 40
1
 40
1
 40
1
 10
132.776997
 20
20.643770
 30
0.0
 10
131.585997
 20
20.643770
 30
0.0
 10
130.624997
 20
22.041770
 30
0.0
 10
130.624997
 20
23.780770
 30
0.0
  0
LWPOLYLINE
  5
12f
100
AcDbEntity
  8
bottom_cover_through
 62
7
100
AcDbPolyline
 90
2
 70
0
 10
134.929997
 20
149.932767
 30
0.0
 10
134.929997
 20
23.780770
 30
0.0
  0
SPLINE
  5
130
100
AcDbEntity
  8
bottom_cover_through
 62
7
100
AcDbSpline
 70
8
 71
3
 72
8
 73
4
 74
0
 40
0
 40
0
 40
0
 40
0
 40
1
 40
1
 40
1
 40
1
 10
130.624997
 20
149.932767
 30
0.0
 10
130.624997
 20
151.670767
 30
0.0
 10
131.585997
 20
153.069767
 30
0.0
 10
132.776997
 20
153.069767
 30
0.0
  0
LWPOLYLINE
  5
131
100
AcDbEntity
  8
bottom_cover_through
 62
7
100
AcDbPolyline
 90
2
 70
0
 10
130.624997
 20
23.780770
 30
0.0
 10
130.624997
 20
149.932767
 30
0.0
  0
SPLINE
  5
132
100
AcDbEntity
  8
bottom_cover_through
 62
7
100
AcDbSpline
 70
8
 71
3
 72
8
 73
4
 74
0
 40
0
 40
0
 40
0
 40
0
 40
1
 40
1
 40
1
 40
1
 10
116.104997
 20
162.991767
 30
0.0
 10
116.104997
 20
160.705767
 30
0.0
 10
114.253997
 20
158.854767
 30
0.0
 10
111.968997
 20
158.854767
 30
0.0
  0
SPLINE
  5
133
100
AcDbEntity
  8
bottom_cover_through
 62
7
100
AcDbSpline
 70
8
 71
3
 72
8
 73
4
 74
0
 40
0
 40
0
 40
0
 40
0
 40
1
 40
1
 40
1
 40
1
 10
111.968997
 20
158.854767
 30
0.0
 10
109.683997
 20
158.854767
 30
0.0
 10
107.831997
 20
160.705767
 30
0.0
 10
107.831997
 20
162.991767
 30
0.0
  0
SPLINE
  5
134
100
AcDbEntity
  8
bottom_cover_through
 62
7
100
AcDbSpline
 70
8
 71
3
 72
8
 73
4
 74
0
 40
0
 40
0
 40
0
 40
0
 40
1
 40
1
 40
1
 40
1
 10
107.831997
 20
162.991767
 30
0.0
 10
107.831997
 20
165.276767
 30
0.0
 10
109.683997
 20
167.127767
 30
0.0
 10
111.968997
 20
167.127767
 30
0.0
  0
SPLINE
  5
135
100
AcDbEntity
  8
bottom_cover_through
 62
7
100
AcDbSpline
 70
8
 71
3
 72
8
 73
4
 74
0
 40
0
 40
0
 40
0
 40
0
 40
1
 40
1
 40
1
 40
1
 10
111.968997
 20
167.127767
 30
0.0
 10
114.253997
 20
167.127767
 30
0.0
 10
116.104997
 20
165.276767
 30
0.0
 10
116.104997
 20
162.991767
 30
0.0
  0
LWPOLYLINE
  5
136
100
AcDbEntity
  8
bottom_cover_through
 62
7
100
AcDbPolyline
 90
1
 70
1
 10
132.776997
 20
153.069767
 30
0.0
  0
SPLINE
  5
137
100
AcDbEntity
  8
bottom_cover_through
 62
7
100
AcDbSpline
 70
8
 71
3
 72
8
 73
4
 74
0
 40
0
 40
0
 40
0
 40
0
 40
1
 40
1
 40
1
 40
1
 10
116.104997
 20
9.920771
 30
0.0
 10
116.104997
 20
7.635771
 30
0.0
 10
114.253997
 20
5.784771
 30
0.0
 10
111.968997
 20
5.784771
 30
0.0
  0
SPLINE
  5
138
100
AcDbEntity
  8
bottom_cover_through
 62
7
100
AcDbSpline
 70
8
 71
3
 72
8
 73
4
 74
0
 40
0
 40
0
 40
0
 40
0
 40
1
 40
1
 40
1
 40
1
 10
111.968997
 20
5.784771
 30
0.0
 10
109.683997
 20
5.784771
 30
0.0
 10
107.831997
 20
7.635771
 30
0.0
 10
107.831997
 20
9.920771
 30
0.0
  0
SPLINE
  5
139
100
AcDbEntity
  8
bottom_cover_through
 62
7
100
AcDbSpline
 70
8
 71
3
 72
8
 73
4
 74
0
 40
0
 40
0
 40
0
 40
0
 40
1
 40
1
 40
1
 40
1
 10
107.831997
 20
9.920771
 30
0.0
 10
107.831997
 20
12.205771
 30
0.0
 10
109.683997
 20
14.057771
 30
0.0
 10
111.968997
 20
14.057771
 30
0.0
  0
SPLINE
  5
13a
100
AcDbEntity
  8
bottom_cover_through
 62
7
100
AcDbSpline
 70
8
 71
3
 72
8
 73
4
 74
0
 40
0
 40
0
 40
0
 40
0
 40
1
 40
1
 40
1
 40
1
 10
111.968997
 20
14.057771
 30
0.0
 10
114.253997
 20
14.057771
 30
0.0
 10
116.104997
 20
12.205771
 30
0.0
 10
116.104997
 20
9.920771
 30
0.0
  0
LWPOLYLINE
  5
13b
100
AcDbEntity
  8
bottom_cover_through
 62
7
100
AcDbPolyline
 90
1
 70
1
 10
116.104997
 20
162.991767
 30
0.0
  0
SPLINE
  5
13c
100
AcDbEntity
  8
bottom_cover_through
 62
7
100
AcDbSpline
 70
8
 71
3
 72
8
 73
4
 74
0
 40
0
 40
0
 40
0
 40
0
 40
1
 40
1
 40
1
 40
1
 10
147.800996
 20
4.651771
 30
0.0
 10
147.800996
 20
7.170771
 30
0.0
 10
147.800996
 20
169.030767
 30
0.0
 10
147.800996
 20
169.061767
 30
0.0
  0
SPLINE
  5
13d
100
AcDbEntity
  8
bottom_cover_through
 62
7
100
AcDbSpline
 70
8
 71
3
 72
8
 73
4
 74
0
 40
0
 40
0
 40
0
 40
0
 40
1
 40
1
 40
1
 40
1
 10
147.800996
 20
169.061767
 30
0.0
 10
147.800996
 20
171.393767
 30
0.0
 10
150.120996
 20
173.311767
 30
0.0
 10
152.054996
 20
173.311767
 30
0.0
  0
SPLINE
  5
13e
100
AcDbEntity
  8
bottom_cover_through
 62
7
100
AcDbSpline
 70
8
 71
3
 72
8
 73
4
 74
0
 40
0
 40
0
 40
0
 40
0
 40
1
 40
1
 40
1
 40
1
 10
152.054996
 20
173.311767
 30
0.0
 10
153.983996
 20
173.311767
 30
0.0
 10
164.347996
 20
173.315767
 30
0.0
 10
164.808996
 20
173.311767
 30
0.0
  0
SPLINE
  5
13f
100
AcDbEntity
  8
bottom_cover_through
 62
7
100
AcDbSpline
 70
8
 71
3
 72
8
 73
4
 74
0
 40
0
 40
0
 40
0
 40
0
 40
1
 40
1
 40
1
 40
1
 10
164.808996
 20
173.311767
 30
0.0
 10
164.808996
 20
173.311767
 30
0.0
 10
167.632996
 20
173.553767
 30
0.0
 10
167.644996
 20
170.479767
 30
0.0
  0
SPLINE
  5
140
100
AcDbEntity
  8
bottom_cover_through
 62
7
100
AcDbSpline
 70
8
 71
3
 72
8
 73
4
 74
0
 40
0
 40
0
 40
0
 40
0
 40
1
 40
1
 40
1
 40
1
 10
167.644996
 20
170.479767
 30
0.0
 10
167.651996
 20
167.405767
 30
0.0
 10
167.644996
 20
156.303767
 30
0.0
 10
167.644996
 20
156.303767
 30
0.0
  0
SPLINE
  5
141
100
AcDbEntity
  8
bottom_cover_through
 62
7
100
AcDbSpline
 70
8
 71
3
 72
8
 73
4
 74
0
 40
0
 40
0
 40
0
 40
0
 40
1
 40
1
 40
1
 40
1
 10
167.644996
 20
156.303767
 30
0.0
 10
167.706996
 20
154.326767
 30
0.0
 10
166.429996
 20
153.471767
 30
0.0
 10
164.808996
 20
153.471767
 30
0.0
  0
SPLINE
  5
142
100
AcDbEntity
  8
bottom_cover_through
 62
7
100
AcDbSpline
 70
8
 71
3
 72
8
 73
4
 74
0
 40
0
 40
0
 40
0
 40
0
 40
1
 40
1
 40
1
 40
1
 10
164.808996
 20
153.471767
 30
0.0
 10
163.190996
 20
153.471767
 30
0.0
 10
163.108996
 20
151.768767
 30
0.0
 10
163.108996
 20
151.768767
 30
0.0
  0
LWPOLYLINE
  5
143
100
AcDbEntity
  8
bottom_cover_through
 62
7
100
AcDbPolyline
 90
1
 70
1
 10
116.104997
 20
9.920771
 30
0.0
  0
SPLINE
  5
144
100
AcDbEntity
  8
bottom_cover_through
 62
7
100
AcDbSpline
 70
8
 71
3
 72
8
 73
4
 74
0
 40
0
 40
0
 40
0
 40
0
 40
1
 40
1
 40
1
 40
1
 10
163.108996
 20
21.944770
 30
0.0
 10
163.108996
 20
21.944770
 30
0.0
 10
162.921996
 20
20.268770
 30
0.0
 10
164.808996
 20
20.241770
 30
0.0
  0
SPLINE
  5
145
100
AcDbEntity
  8
bottom_cover_through
 62
7
100
AcDbSpline
 70
8
 71
3
 72
8
 73
4
 74
0
 40
0
 40
0
 40
0
 40
0
 40
1
 40
1
 40
1
 40
1
 10
164.808996
 20
20.241770
 30
0.0
 10
166.694996
 20
20.213770
 30
0.0
 10
167.644996
 20
18.834771
 30
0.0
 10
167.644996
 20
17.409771
 30
0.0
  0
SPLINE
  5
146
100
AcDbEntity
  8
bottom_cover_through
 62
7
100
AcDbSpline
 70
8
 71
3
 72
8
 73
4
 74
0
 40
0
 40
0
 40
0
 40
0
 40
1
 40
1
 40
1
 40
1
 10
167.644996
 20
17.409771
 30
0.0
 10
167.644996
 20
12.682771
 30
0.0
 10
167.671996
 20
6.104771
 30
0.0
 10
167.644996
 20
3.233771
 30
0.0
  0
SPLINE
  5
147
100
AcDbEntity
  8
bottom_cover_through
 62
7
100
AcDbSpline
 70
8
 71
3
 72
8
 73
4
 74
0
 40
0
 40
0
 40
0
 40
0
 40
1
 40
1
 40
1
 40
1
 10
167.644996
 20
3.233771
 30
0.0
 10
167.616996
 20
0.362771
 30
0.0
 10
164.808996
 20
0.401771
 30
0.0
 10
164.808996
 20
0.401771
 30
0.0
  0
SPLINE
  5
148
100
AcDbEntity
  8
bottom_cover_through
 62
7
100
AcDbSpline
 70
8
 71
3
 72
8
 73
4
 74
0
 40
0
 40
0
 40
0
 40
0
 40
1
 40
1
 40
1
 40
1
 10
164.808996
 20
0.401771
 30
0.0
 10
164.808996
 20
0.401771
 30
0.0
 10
154.503996
 20
0.401771
 30
0.0
 10
152.054996
 20
0.401771
 30
0.0
  0
SPLINE
  5
149
100
AcDbEntity
  8
bottom_cover_through
 62
7
100
AcDbSpline
 70
8
 71
3
 72
8
 73
4
 74
0
 40
0
 40
0
 40
0
 40
0
 40
1
 40
1
 40
1
 40
1
 10
152.054996
 20
0.401771
 30
0.0
 10
149.601996
 20
0.401771
 30
0.0
 10
147.800996
 20
2.131771
 30
0.0
 10
147.800996
 20
4.651771
 30
0.0
  0
LWPOLYLINE
  5
14a
100
AcDbEntity
  8
bottom_cover_through
 62
7
100
AcDbPolyline
 90
2
 70
0
 10
163.108996
 20
151.768767
 30
0.0
 10
163.108996
 20
21.944770
 30
0.0
  0
SPLINE
  5
14b
100
AcDbEntity
  8
bottom_cover_through
 62
7
100
AcDbSpline
 70
8
 71
3
 72
8
 73
4
 74
0
 40
0
 40
0
 40
0
 40
0
 40
1
 40
1
 40
1
 40
1
 10
162.026996
 20
162.991767
 30
0.0
 10
162.026996
 20
160.705767
 30
0.0
 10
160.175996
 20
158.854767
 30
0.0
 10
157.890996
 20
158.854767
 30
0.0
  0
SPLINE
  5
14c
100
AcDbEntity
  8
bottom_cover_through
 62
7
100
AcDbSpline
 70
8
 71
3
 72
8
 73
4
 74
0
 40
0
 40
0
 40
0
 40
0
 40
1
 40
1
 40
1
 40
1
 10
157.890996
 20
158.854767
 30
0.0
 10
155.604996
 20
158.854767
 30
0.0
 10
153.753996
 20
160.705767
 30
0.0
 10
153.753996
 20
162.991767
 30
0.0
  0
SPLINE
  5
14d
100
AcDbEntity
  8
bottom_cover_through
 62
7
100
AcDbSpline
 70
8
 71
3
 72
8
 73
4
 74
0
 40
0
 40
0
 40
0
 40
0
 40
1
 40
1
 40
1
 40
1
 10
153.753996
 20
162.991767
 30
0.0
 10
153.753996
 20
165.276767
 30
0.0
 10
155.604996
 20
167.127767
 30
0.0
 10
157.890996
 20
167.127767
 30
0.0
  0
SPLINE
  5
14e
100
AcDbEntity
  8
bottom_cover_through
 62
7
100
AcDbSpline
 70
8
 71
3
 72
8
 73
4
 74
0
 40
0
 40
0
 40
0
 40
0
 40
1
 40
1
 40
1
 40
1
 10
157.890996
 20
167.127767
 30
0.0
 10
160.175996
 20
167.127767
 30
0.0
 10
162.026996
 20
165.276767
 30
0.0
 10
162.026996
 20
162.991767
 30
0.0
  0
LWPOLYLINE
  5
14f
100
AcDbEntity
  8
bottom_cover_through
 62
7
100
AcDbPolyline
 90
1
 70
1
 10
147.800996
 20
4.651771
 30
0.0
  0
SPLINE
  5
150
100
AcDbEntity
  8
bottom_cover_through
 62
7
100
AcDbSpline
 70
8
 71
3
 72
8
 73
4
 74
0
 40
0
 40
0
 40
0
 40
0
 40
1
 40
1
 40
1
 40
1
 10
162.026996
 20
9.920771
 30
0.0
 10
162.026996
 20
7.635771
 30
0.0
 10
160.175996
 20
5.784771
 30
0.0
 10
157.890996
 20
5.784771
 30
0.0
  0
SPLINE
  5
151
100
AcDbEntity
  8
bottom_cover_through
 62
7
100
AcDbSpline
 70
8
 71
3
 72
8
 73
4
 74
0
 40
0
 40
0
 40
0
 40
0
 40
1
 40
1
 40
1
 40
1
 10
157.890996
 20
5.784771
 30
0.0
 10
155.604996
 20
5.784771
 30
0.0
 10
153.753996
 20
7.635771
 30
0.0
 10
153.753996
 20
9.920771
 30
0.0
  0
SPLINE
  5
152
100
AcDbEntity
  8
bottom_cover_through
 62
7
100
AcDbSpline
 70
8
 71
3
 72
8
 73
4
 74
0
 40
0
 40
0
 40
0
 40
0
 40
1
 40
1
 40
1
 40
1
 10
153.753996
 20
9.920771
 30
0.0
 10
153.753996
 20
12.205771
 30
0.0
 10
155.604996
 20
14.057771
 30
0.0
 10
157.890996
 20
14.057771
 30
0.0
  0
SPLINE
  5
153
100
AcDbEntity
  8
bottom_cover_through
 62
7
100
AcDbSpline
 70
8
 71
3
 72
8
 73
4
 74
0
 40
0
 40
0
 40
0
 40
0
 40
1
 40
1
 40
1
 40
1
 10
157.890996
 20
14.057771
 30
0.0
 10
160.175996
 20
14.057771
 30
0.0
 10
162.026996
 20
12.205771
 30
0.0
 10
162.026996
 20
9.920771
 30
0.0
  0
LWPOLYLINE
  5
154
100
AcDbEntity
  8
bottom_cover_through
 62
7
100
AcDbPolyline
 90
1
 70
1
 10
162.026996
 20
162.991767
 30
0.0
  0
SPLINE
  5
155
100
AcDbEntity
  8
bottom_cover_through
 62
7
100
AcDbSpline
 70
8
 71
3
 72
8
 73
4
 74
0
 40
0
 40
0
 40
0
 40
0
 40
1
 40
1
 40
1
 40
1
 10
155.452996
 20
153.069767
 30
0.0
 10
156.647996
 20
153.069767
 30
0.0
 10
157.604996
 20
151.670767
 30
0.0
 10
157.604996
 20
149.932767
 30
0.0
  0
LWPOLYLINE
  5
156
100
AcDbEntity
  8
bottom_cover_through
 62
7
100
AcDbPolyline
 90
1
 70
1
 10
162.026996
 20
9.920771
 30
0.0
  0
SPLINE
  5
157
100
AcDbEntity
  8
bottom_cover_through
 62
7
100
AcDbSpline
 70
8
 71
3
 72
8
 73
4
 74
0
 40
0
 40
0
 40
0
 40
0
 40
1
 40
1
 40
1
 40
1
 10
157.604996
 20
23.780770
 30
0.0
 10
157.604996
 20
22.041770
 30
0.0
 10
156.647996
 20
20.643770
 30
0.0
 10
155.452996
 20
20.643770
 30
0.0
  0
SPLINE
  5
158
100
AcDbEntity
  8
bottom_cover_through
 62
7
100
AcDbSpline
 70
8
 71
3
 72
8
 73
4
 74
0
 40
0
 40
0
 40
0
 40
0
 40
1
 40
1
 40
1
 40
1
 10
155.452996
 20
20.643770
 30
0.0
 10
154.261996
 20
20.643770
 30
0.0
 10
153.304996
 20
22.041770
 30
0.0
 10
153.304996
 20
23.780770
 30
0.0
  0
LWPOLYLINE
  5
159
100
AcDbEntity
  8
bottom_cover_through
 62
7
100
AcDbPolyline
 90
2
 70
0
 10
157.604996
 20
149.932767
 30
0.0
 10
157.604996
 20
23.780770
 30
0.0
  0
SPLINE
  5
15a
100
AcDbEntity
  8
bottom_cover_through
 62
7
100
AcDbSpline
 70
8
 71
3
 72
8
 73
4
 74
0
 40
0
 40
0
 40
0
 40
0
 40
1
 40
1
 40
1
 40
1
 10
153.304996
 20
149.932767
 30
0.0
 10
153.304996
 20
151.670767
 30
0.0
 10
154.261996
 20
153.069767
 30
0.0
 10
155.452996
 20
153.069767
 30
0.0
  0
LWPOLYLINE
  5
15b
100
AcDbEntity
  8
bottom_cover_through
 62
7
100
AcDbPolyline
 90
2
 70
0
 10
153.304996
 20
23.780770
 30
0.0
 10
153.304996
 20
149.932767
 30
0.0
  0
LWPOLYLINE
  5
15c
100
AcDbEntity
  8
bottom_cover_through
 62
7
100
AcDbPolyline
 90
1
 70
1
 10
155.452996
 20
153.069767
 30
0.0
  0
ENDSEC
  0
SECTION
  2
OBJECTS
  0
DICTIONARY
  5
C
330
0
100
AcDbDictionary
  3
ACAD_GROUP
350
D
  3
ACAD_MLINESTYLE
350
17
  0
DICTIONARY
  5
D
330
C
100
AcDbDictionary
  0
DICTIONARY
  5
1A
330
C
100
AcDbDictionary
  0
DICTIONARY
  5
17
330
C
100
AcDbDictionary
  3
STANDARD
350
18
  0
DICTIONARY
  5
19
330
C
100
AcDbDictionary
  0
ENDSEC
  0
EOF
