G04 #@! TF.GenerationSoftware,KiCad,Pcbnew,5.0.2-bee76a0~70~ubuntu18.04.1*
G04 #@! TF.CreationDate,2019-01-18T11:27:08+09:00*
G04 #@! TF.ProjectId,spacer_pcb,73706163-6572-45f7-9063-622e6b696361,rev?*
G04 #@! TF.SameCoordinates,Original*
G04 #@! TF.FileFunction,Soldermask,Bot*
G04 #@! TF.FilePolarity,Negative*
%FSLAX46Y46*%
G04 Gerber Fmt 4.6, Leading zero omitted, Abs format (unit mm)*
G04 Created by KiCad (PCBNEW 5.0.2-bee76a0~70~ubuntu18.04.1) date 2019年01月18日 11時27分08秒*
%MOMM*%
%LPD*%
G01*
G04 APERTURE LIST*
%ADD10C,0.100000*%
G04 APERTURE END LIST*
D10*
G36*
X120644996Y-110752074D02*
X120972757Y-110887837D01*
X121267738Y-111084937D01*
X121518591Y-111335790D01*
X121715691Y-111630771D01*
X121851454Y-111958532D01*
X121920665Y-112306479D01*
X121920665Y-112661247D01*
X121851454Y-113009194D01*
X121715691Y-113336955D01*
X121518591Y-113631936D01*
X121267738Y-113882789D01*
X120972757Y-114079889D01*
X120644996Y-114215652D01*
X120297049Y-114284863D01*
X119942281Y-114284863D01*
X119594334Y-114215652D01*
X119266573Y-114079889D01*
X118971592Y-113882789D01*
X118720739Y-113631936D01*
X118523639Y-113336955D01*
X118387876Y-113009194D01*
X118318665Y-112661247D01*
X118318665Y-112306479D01*
X118387876Y-111958532D01*
X118523639Y-111630771D01*
X118720739Y-111335790D01*
X118971592Y-111084937D01*
X119266573Y-110887837D01*
X119594334Y-110752074D01*
X119942281Y-110682863D01*
X120297049Y-110682863D01*
X120644996Y-110752074D01*
X120644996Y-110752074D01*
G37*
G36*
X120644996Y-56752074D02*
X120972757Y-56887837D01*
X121267738Y-57084937D01*
X121518591Y-57335790D01*
X121715691Y-57630771D01*
X121851454Y-57958532D01*
X121920665Y-58306479D01*
X121920665Y-58661247D01*
X121851454Y-59009194D01*
X121715691Y-59336955D01*
X121518591Y-59631936D01*
X121267738Y-59882789D01*
X120972757Y-60079889D01*
X120644996Y-60215652D01*
X120297049Y-60284863D01*
X119942281Y-60284863D01*
X119594334Y-60215652D01*
X119266573Y-60079889D01*
X118971592Y-59882789D01*
X118720739Y-59631936D01*
X118523639Y-59336955D01*
X118387876Y-59009194D01*
X118318665Y-58661247D01*
X118318665Y-58306479D01*
X118387876Y-57958532D01*
X118523639Y-57630771D01*
X118720739Y-57335790D01*
X118971592Y-57084937D01*
X119266573Y-56887837D01*
X119594334Y-56752074D01*
X119942281Y-56682863D01*
X120297049Y-56682863D01*
X120644996Y-56752074D01*
X120644996Y-56752074D01*
G37*
M02*
