<?xml version="1.0" encoding="UTF-8" standalone="no"?>
<svg
   xmlns:dc="http://purl.org/dc/elements/1.1/"
   xmlns:cc="http://creativecommons.org/ns#"
   xmlns:rdf="http://www.w3.org/1999/02/22-rdf-syntax-ns#"
   xmlns:svg="http://www.w3.org/2000/svg"
   xmlns="http://www.w3.org/2000/svg"
   version="1.1"
   id="svg2"
   viewBox="0 0 744.09448819 1052.3622047"
   height="297mm"
   width="210mm">
  <defs
     id="defs4" />
  <metadata
     id="metadata7">
    <rdf:RDF>
      <cc:Work
         rdf:about="">
        <dc:format>image/svg+xml</dc:format>
        <dc:type
           rdf:resource="http://purl.org/dc/dcmitype/StillImage" />
        <dc:title></dc:title>
      </cc:Work>
    </rdf:RDF>
  </metadata>
  <g
     id="layer1">
    <path
       id="path4136"
       d="M 0,1047.0472 0,841.53543 c 0,-2.91769 2.9021152,-5.31496 5.3149606,-5.31496 2.4128454,0 141.4442594,0.004 141.7322794,0 2.67453,-0.0417 5.31496,2.84143 5.31496,5.31496 l 0,205.51177 c 0,2.8869 -2.76767,5.315 -5.31496,5.315 l -14.17322,0 -8.85827,-8.8583 -95.669293,0 -8.858268,8.8583 -14.1732284,0 C 2.2525074,1052.3622 0,1050.1974 0,1047.0472 Z"
       style="fill:none;fill-rule:evenodd;stroke:#000000;stroke-width:0.99921262;stroke-linecap:round;stroke-linejoin:round;stroke-miterlimit:4;stroke-dasharray:none;stroke-opacity:1" />
    <circle
       r="5.1696849"
       cy="848.62207"
       cx="12.401575"
       id="path4159"
       style="fill:none;stroke:#000000;stroke-width:0.99921268;stroke-linecap:round;stroke-linejoin:round;stroke-miterlimit:4;stroke-dasharray:none;stroke-opacity:1" />
    <circle
       r="5.1696849"
       cy="1039.9606"
       cx="12.401575"
       id="path4159-3"
       style="fill:none;stroke:#000000;stroke-width:0.99921268;stroke-linecap:round;stroke-linejoin:round;stroke-miterlimit:4;stroke-dasharray:none;stroke-opacity:1" />
    <path
       id="path4136-3"
       d="m 156.40512,1046.5475 c 0,-3.1501 0,-205.47218 0,-205.51177 0,-2.91769 2.90211,-5.31496 5.31496,-5.31496 2.41284,0 15.3688,-0.005 15.94488,0 0,0 3.53123,-0.30003 3.5433,3.54331 0.0121,3.84334 0,17.71653 0,17.71653 0.0804,2.47341 -1.51895,3.54331 -3.5433,3.54331 -2.02435,0 -2.12599,2.12599 -2.12599,2.12599 l 0,162.28349 c 0,0 -0.23285,2.0921 2.12599,2.126 2.35884,0.034 3.5433,1.7569 3.5433,3.5433 0,5.9055 0.0354,14.1285 0,17.7165 -0.0354,3.588 -3.5433,3.5433 -3.5433,3.5433 0,0 -12.88243,0 -15.94488,0 -3.06246,0 -5.31496,-2.1648 -5.31496,-5.315 z"
       style="fill:none;fill-rule:evenodd;stroke:#000000;stroke-width:0.99921262;stroke-linecap:round;stroke-linejoin:round;stroke-miterlimit:4;stroke-dasharray:none;stroke-opacity:1" />
    <circle
       r="5.1696849"
       cy="848.62207"
       cx="169.01575"
       id="path4159-6"
       style="fill:none;stroke:#000000;stroke-width:0.99921262;stroke-linecap:round;stroke-linejoin:round;stroke-miterlimit:4;stroke-dasharray:none;stroke-opacity:1" />
    <circle
       r="5.1696849"
       cy="1039.9606"
       cx="169.01575"
       id="path4159-3-7"
       style="fill:none;stroke:#000000;stroke-width:0.99921268;stroke-linecap:round;stroke-linejoin:round;stroke-miterlimit:4;stroke-dasharray:none;stroke-opacity:1" />
    <rect
       ry="3.9235446"
       y="861.02356"
       x="163.28268"
       height="165.53621"
       width="5.3787403"
       id="rect4176-5"
       style="fill:none;stroke:#000000;stroke-width:0.99921256;stroke-linecap:round;stroke-linejoin:round;stroke-miterlimit:4;stroke-dasharray:none;stroke-opacity:1" />
    <circle
       r="5.1696849"
       cy="848.62207"
       cx="139.96063"
       id="path4159-9"
       style="fill:none;stroke:#000000;stroke-width:0.99921268;stroke-linecap:round;stroke-linejoin:round;stroke-miterlimit:4;stroke-dasharray:none;stroke-opacity:1" />
    <circle
       r="5.1696849"
       cy="1039.9606"
       cx="139.96063"
       id="path4159-9-1"
       style="fill:none;stroke:#000000;stroke-width:0.99921268;stroke-linecap:round;stroke-linejoin:round;stroke-miterlimit:4;stroke-dasharray:none;stroke-opacity:1" />
    <path
       id="path4136-3-2"
       d="m 184.75157,1046.5475 c 0,-3.1501 0,-205.47206 0,-205.51165 0,-2.91769 2.90211,-5.31496 5.31496,-5.31496 2.41284,0 15.3688,-0.005 15.94488,0 0,0 3.53123,-0.30003 3.5433,3.54331 0.0121,3.84334 0,17.71653 0,17.71653 0.0804,2.47341 -1.51895,3.54331 -3.5433,3.54331 -2.02435,0 -2.12599,2.12599 -2.12599,2.12599 l 0,162.28337 c 0,0 -0.23285,2.0921 2.12599,2.126 2.35884,0.034 3.5433,1.7569 3.5433,3.5433 0,5.9055 0.0354,14.1285 0,17.7165 -0.0354,3.588 -3.5433,3.5433 -3.5433,3.5433 0,0 -12.88243,0 -15.94488,0 -3.06246,0 -5.31496,-2.1648 -5.31496,-5.315 z"
       style="fill:none;fill-rule:evenodd;stroke:#000000;stroke-width:0.99921262;stroke-linecap:round;stroke-linejoin:round;stroke-miterlimit:4;stroke-dasharray:none;stroke-opacity:1" />
    <circle
       r="5.1696849"
       cy="848.62225"
       cx="197.3622"
       id="path4159-6-7"
       style="fill:none;stroke:#000000;stroke-width:0.99921262;stroke-linecap:round;stroke-linejoin:round;stroke-miterlimit:4;stroke-dasharray:none;stroke-opacity:1" />
    <circle
       r="5.1696849"
       cy="1039.9606"
       cx="197.3622"
       id="path4159-3-7-0"
       style="fill:none;stroke:#000000;stroke-width:0.99921268;stroke-linecap:round;stroke-linejoin:round;stroke-miterlimit:4;stroke-dasharray:none;stroke-opacity:1" />
    <rect
       ry="3.9235446"
       y="861.02374"
       x="191.62914"
       height="165.53621"
       width="5.3787403"
       id="rect4176-5-9"
       style="fill:none;stroke:#000000;stroke-width:0.99921256;stroke-linecap:round;stroke-linejoin:round;stroke-miterlimit:4;stroke-dasharray:none;stroke-opacity:1" />
    <text
       id="text4854"
       y="804.5213"
       x="154.14928"
       style="font-style:normal;font-weight:normal;line-height:0%;font-family:sans-serif;letter-spacing:0px;word-spacing:0px;fill:#000000;fill-opacity:1;stroke:none;stroke-width:1px;stroke-linecap:butt;stroke-linejoin:miter;stroke-opacity:1"
       xml:space="preserve"><tspan
         style="font-size:12.5px;line-height:1.25"
         y="804.5213"
         x="154.14928"
         id="tspan4856">4mm</tspan><tspan
         id="tspan4858"
         style="font-size:12.5px;line-height:1.25"
         y="820.1463"
         x="154.14928">power 100 speed 15</tspan></text>
    <text
       id="text4854-3"
       y="806.85345"
       x="8.4169483"
       style="font-style:normal;font-weight:normal;line-height:0%;font-family:sans-serif;letter-spacing:0px;word-spacing:0px;fill:#000000;fill-opacity:1;stroke:none;stroke-width:1px;stroke-linecap:butt;stroke-linejoin:miter;stroke-opacity:1"
       xml:space="preserve"><tspan
         style="font-size:12.5px;line-height:1.25"
         y="806.85345"
         x="8.4169483"
         id="tspan4856-6">2mm</tspan><tspan
         id="tspan4858-7"
         style="font-size:12.5px;line-height:1.25"
         y="822.47845"
         x="8.4169483">power 100 speed 20</tspan></text>
  </g>
</svg>
