M48
;DRILL file {KiCad 4.0.6-e0-6349~52~ubuntu16.10.1} date Wed Mar 29 09:33:57 2017
;FORMAT={-:-/ absolute / metric / decimal}
FMAT,2
METRIC,TZ
T1C0.400
T2C1.000
%
G90
G05
M71
T1
X157.556Y-90.729
X158.267Y-92.507
X159.385Y-120.802
X160.706Y-73.101
X160.706Y-74.371
X160.706Y-75.641
X160.706Y-76.911
X160.706Y-78.181
X160.706Y-79.502
X160.909Y-93.929
X162.027Y-120.752
X163.398Y-89.459
X163.855Y-104.75
X163.855Y-109.423
X164.871Y-94.844
X165.329Y-72.593
X166.04Y-75.336
X166.751Y-109.728
X166.903Y-106.985
X167.107Y-105.461
X168.681Y-108.814
X168.681Y-109.728
X169.799Y-106.477
X170.713Y-99.263
X171.729Y-99.974
X171.729Y-103.53
X173.406Y-93.269
X175.489Y-105.156
X175.641Y-99.924
X176.454Y-115.214
X177.317Y-109.017
X177.978Y-105.004
X178.029Y-109.83
X178.283Y-103.988
X178.841Y-87.782
X178.994Y-92.71
X179.451Y-107.899
X180.772Y-92.761
X180.772Y-107.594
X180.823Y-104.394
X180.873Y-100.838
X181.483Y-97.079
X182.245Y-75.641
X182.296Y-76.962
X182.296Y-79.451
X182.347Y-73.101
X182.347Y-74.371
X182.753Y-76.302
X183.464Y-75.014
X184.125Y-93.015
X184.277Y-120.802
X184.328Y-97.638
X184.582Y-90.932
X185.141Y-89.103
X186.614Y-120.904
T2
X152.4Y-71.12
X152.4Y-73.66
X152.4Y-76.2
X152.4Y-78.74
X152.4Y-81.28
X152.4Y-83.82
X152.4Y-86.36
X152.4Y-88.9
X152.4Y-91.44
X152.4Y-93.98
X152.4Y-96.52
X152.4Y-99.06
X152.4Y-101.6
X152.4Y-104.14
X152.4Y-106.68
X152.4Y-109.22
X152.4Y-111.76
X190.475Y-71.12
X190.475Y-73.66
X190.475Y-76.2
X190.475Y-78.74
X190.475Y-81.28
X190.475Y-83.82
X190.475Y-86.36
X190.475Y-88.9
X190.475Y-91.44
X190.475Y-93.98
X190.475Y-96.52
X190.475Y-99.06
X190.475Y-101.6
X190.475Y-104.14
X190.475Y-106.68
X190.475Y-109.22
X190.475Y-111.76
T0
M30
